<svg width="618" height="302" viewBox="0 0 618 302" fill="none" xmlns="http://www.w3.org/2000/svg">
<rect width="618" height="302" fill="white"/>
<g clip-path="url(#clip0)">
<path d="M247.393 134.848V122C247.393 119.23 245.164 117 242.394 117H196C193.23 117 191 119.23 191 122V152.892C191 155.662 193.23 157.892 196 157.892H208.3" stroke="black" stroke-width="2" stroke-linecap="round" stroke-linejoin="round"/>
<path d="M209.662 134.506V133.729C209.662 130.959 207.432 128.729 204.662 128.729H191V145.549H202.793" stroke="black" stroke-width="2" stroke-linecap="round" stroke-linejoin="round"/>
<path d="M200.331 141.182C202.564 141.182 204.374 139.372 204.374 137.139C204.374 134.907 202.564 133.097 200.331 133.097C198.099 133.097 196.289 134.907 196.289 137.139C196.289 139.372 198.099 141.182 200.331 141.182Z" stroke="black" stroke-width="2" stroke-linecap="round" stroke-linejoin="round"/>
<path fill-rule="evenodd" clip-rule="evenodd" d="M219.434 158.956L230.238 163.293L240.944 158.72L245.283 147.916L240.71 137.21L229.906 132.872L219.197 137.446L214.86 148.249L219.434 158.956ZM230.248 165.297C230.127 165.297 230.004 165.274 229.89 165.228L218.345 160.593C218.108 160.498 217.918 160.313 217.819 160.077L212.933 148.636C212.832 148.401 212.829 148.137 212.925 147.899L217.56 136.354C217.654 136.117 217.84 135.927 218.075 135.827L229.516 130.942C229.752 130.84 230.017 130.839 230.255 130.934L241.799 135.569C242.036 135.663 242.226 135.849 242.325 136.084L247.211 147.523C247.312 147.759 247.315 148.023 247.219 148.261L242.584 159.807C242.49 160.043 242.305 160.233 242.069 160.332L230.629 165.218C230.506 165.272 230.378 165.297 230.248 165.297Z" fill="black" stroke="black" stroke-width="0.589302"/>
<path fill-rule="evenodd" clip-rule="evenodd" d="M235.222 140.97V143.166H228.035L232.556 147.9L227.929 152.995H235.222V155.191H224.923V152.995L229.507 147.921L224.944 143.166V140.97H235.222Z" fill="black" stroke="black" stroke-width="0.589302"/>
</g>
<g clip-path="url(#clip1)">
<path d="M565.665 106.155L539.842 121.064C540.212 121.702 540.408 122.426 540.41 123.164C540.41 124.279 539.967 125.349 539.179 126.137C538.39 126.926 537.32 127.369 536.205 127.369V157.182L562.027 172.09C562.395 171.451 562.926 170.92 563.564 170.55C564.203 170.181 564.928 169.986 565.665 169.985C566.403 169.986 567.127 170.182 567.766 170.551C568.404 170.92 568.934 171.451 569.302 172.09L595.126 157.182V127.369C594.573 127.369 594.027 127.26 593.516 127.049C593.006 126.837 592.543 126.528 592.152 126.137C591.762 125.747 591.452 125.283 591.241 124.773C591.029 124.263 590.921 123.716 590.921 123.164C590.922 122.426 591.117 121.701 591.487 121.063L565.665 106.155Z" stroke="black" stroke-width="2"/>
<path d="M536.205 127.369C538.527 127.369 540.41 125.486 540.41 123.164C540.41 120.841 538.527 118.959 536.205 118.959C533.883 118.959 532 120.841 532 123.164C532 125.486 533.883 127.369 536.205 127.369Z" stroke="black" stroke-width="2" stroke-linecap="round" stroke-linejoin="round"/>
<path d="M595.126 127.369C597.448 127.369 599.331 125.486 599.331 123.164C599.331 120.841 597.448 118.959 595.126 118.959C592.803 118.959 590.921 120.841 590.921 123.164C590.921 125.486 592.803 127.369 595.126 127.369Z" stroke="black" stroke-width="2" stroke-linecap="round" stroke-linejoin="round"/>
<path d="M565.665 178.395C567.988 178.395 569.87 176.513 569.87 174.19C569.87 171.868 567.988 169.985 565.665 169.985C563.343 169.985 561.46 171.868 561.46 174.19C561.46 176.513 563.343 178.395 565.665 178.395Z" stroke="black" stroke-width="2" stroke-linecap="round" stroke-linejoin="round"/>
<path d="M547.418 129.637V150.708L565.665 161.243L583.913 150.708V129.637L565.665 119.102L547.418 129.637ZM547.418 129.637L565.665 140.173L583.913 129.637" stroke="black" stroke-width="2" stroke-linejoin="round"/>
<path d="M565.665 140.173V161.243" stroke="black" stroke-width="2" stroke-linecap="round" stroke-dasharray="16 4 2 4"/>
</g>
<path d="M541.012 195H536.08V186.432H541.012V187.92H537.892V189.804H540.796V191.292H537.892V193.5H541.012V195ZM546.311 188.328C546.399 188.328 546.503 188.332 546.623 188.34C546.743 188.348 546.839 188.36 546.911 188.376L546.779 190.056C546.723 190.04 546.639 190.028 546.527 190.02C546.423 190.004 546.331 189.996 546.251 189.996C545.947 189.996 545.655 190.052 545.375 190.164C545.095 190.268 544.867 190.44 544.691 190.68C544.523 190.92 544.439 191.248 544.439 191.664V195H542.651V188.448H544.007L544.271 189.552H544.355C544.547 189.216 544.811 188.928 545.147 188.688C545.483 188.448 545.871 188.328 546.311 188.328ZM550.107 188.328C550.915 188.328 551.547 188.648 552.003 189.288H552.051L552.195 188.448H553.707V195.012C553.707 195.948 553.431 196.66 552.879 197.148C552.327 197.636 551.511 197.88 550.431 197.88C549.967 197.88 549.535 197.852 549.135 197.796C548.743 197.74 548.359 197.64 547.983 197.496V196.068C548.791 196.404 549.643 196.572 550.539 196.572C551.459 196.572 551.919 196.076 551.919 195.084V194.952C551.919 194.816 551.923 194.676 551.931 194.532C551.947 194.388 551.959 194.26 551.967 194.148H551.919C551.695 194.492 551.427 194.74 551.115 194.892C550.803 195.044 550.451 195.12 550.059 195.12C549.283 195.12 548.675 194.824 548.235 194.232C547.803 193.632 547.587 192.8 547.587 191.736C547.587 190.664 547.811 189.828 548.259 189.228C548.707 188.628 549.323 188.328 550.107 188.328ZM550.671 189.78C549.831 189.78 549.411 190.44 549.411 191.76C549.411 193.064 549.839 193.716 550.695 193.716C551.151 193.716 551.487 193.588 551.703 193.332C551.927 193.068 552.039 192.612 552.039 191.964V191.748C552.039 191.044 551.931 190.54 551.715 190.236C551.499 189.932 551.151 189.78 550.671 189.78ZM561.529 191.712C561.529 192.8 561.241 193.64 560.665 194.232C560.097 194.824 559.321 195.12 558.337 195.12C557.729 195.12 557.185 194.988 556.705 194.724C556.233 194.46 555.861 194.076 555.589 193.572C555.317 193.06 555.181 192.44 555.181 191.712C555.181 190.624 555.465 189.788 556.033 189.204C556.601 188.62 557.381 188.328 558.373 188.328C558.989 188.328 559.533 188.46 560.005 188.724C560.477 188.988 560.849 189.372 561.121 189.876C561.393 190.372 561.529 190.984 561.529 191.712ZM557.005 191.712C557.005 192.36 557.109 192.852 557.317 193.188C557.533 193.516 557.881 193.68 558.361 193.68C558.833 193.68 559.173 193.516 559.381 193.188C559.597 192.852 559.705 192.36 559.705 191.712C559.705 191.064 559.597 190.58 559.381 190.26C559.173 189.932 558.829 189.768 558.349 189.768C557.877 189.768 557.533 189.932 557.317 190.26C557.109 190.58 557.005 191.064 557.005 191.712ZM573.864 195H571.56L567.828 188.52H567.78C567.796 188.928 567.812 189.336 567.828 189.744C567.852 190.152 567.872 190.56 567.888 190.968V195H566.268V186.432H568.56L572.28 192.852H572.316C572.308 192.452 572.296 192.056 572.28 191.664C572.264 191.272 572.248 190.88 572.232 190.488V186.432H573.864V195ZM581.837 191.712C581.837 192.8 581.549 193.64 580.973 194.232C580.405 194.824 579.629 195.12 578.645 195.12C578.037 195.12 577.493 194.988 577.013 194.724C576.541 194.46 576.169 194.076 575.897 193.572C575.625 193.06 575.489 192.44 575.489 191.712C575.489 190.624 575.773 189.788 576.341 189.204C576.909 188.62 577.689 188.328 578.681 188.328C579.297 188.328 579.841 188.46 580.313 188.724C580.785 188.988 581.157 189.372 581.429 189.876C581.701 190.372 581.837 190.984 581.837 191.712ZM577.313 191.712C577.313 192.36 577.417 192.852 577.625 193.188C577.841 193.516 578.189 193.68 578.669 193.68C579.141 193.68 579.481 193.516 579.689 193.188C579.905 192.852 580.013 192.36 580.013 191.712C580.013 191.064 579.905 190.58 579.689 190.26C579.481 189.932 579.137 189.768 578.657 189.768C578.185 189.768 577.841 189.932 577.625 190.26C577.417 190.58 577.313 191.064 577.313 191.712ZM585.391 195.12C584.663 195.12 584.067 194.836 583.603 194.268C583.147 193.692 582.919 192.848 582.919 191.736C582.919 190.616 583.151 189.768 583.615 189.192C584.079 188.616 584.687 188.328 585.439 188.328C585.911 188.328 586.299 188.42 586.603 188.604C586.907 188.788 587.147 189.016 587.323 189.288H587.383C587.359 189.16 587.331 188.976 587.299 188.736C587.267 188.488 587.251 188.236 587.251 187.98V185.88H589.039V195H587.671L587.323 194.148H587.251C587.075 194.42 586.839 194.652 586.543 194.844C586.247 195.028 585.863 195.12 585.391 195.12ZM586.015 193.692C586.511 193.692 586.859 193.548 587.059 193.26C587.259 192.964 587.363 192.524 587.371 191.94V191.748C587.371 191.108 587.271 190.62 587.071 190.284C586.879 189.948 586.519 189.78 585.991 189.78C585.599 189.78 585.291 189.952 585.067 190.296C584.843 190.632 584.731 191.12 584.731 191.76C584.731 192.4 584.843 192.884 585.067 193.212C585.291 193.532 585.607 193.692 586.015 193.692ZM593.609 188.328C594.513 188.328 595.229 188.588 595.757 189.108C596.285 189.62 596.549 190.352 596.549 191.304V192.168H592.325C592.341 192.672 592.489 193.068 592.769 193.356C593.057 193.644 593.453 193.788 593.957 193.788C594.381 193.788 594.765 193.748 595.109 193.668C595.453 193.58 595.809 193.448 596.177 193.272V194.652C595.857 194.812 595.517 194.928 595.157 195C594.805 195.08 594.377 195.12 593.873 195.12C593.217 195.12 592.637 195 592.133 194.76C591.629 194.512 591.233 194.14 590.945 193.644C590.657 193.148 590.513 192.524 590.513 191.772C590.513 191.004 590.641 190.368 590.897 189.864C591.161 189.352 591.525 188.968 591.989 188.712C592.453 188.456 592.993 188.328 593.609 188.328ZM593.621 189.6C593.277 189.6 592.989 189.712 592.757 189.936C592.533 190.16 592.401 190.508 592.361 190.98H594.869C594.861 190.58 594.757 190.252 594.557 189.996C594.357 189.732 594.045 189.6 593.621 189.6Z" fill="black"/>
<g clip-path="url(#clip2)">
<path d="M67.6655 101.155L41.8422 116.064C42.2124 116.702 42.4083 117.426 42.4102 118.164C42.4102 119.279 41.9671 120.349 41.1786 121.137C40.39 121.926 39.3205 122.369 38.2053 122.369V152.182L64.0269 167.09C64.3955 166.451 64.9258 165.92 65.5644 165.55C66.2031 165.181 66.9277 164.986 67.6655 164.985C68.403 164.986 69.1274 165.182 69.7657 165.551C70.4041 165.92 70.9341 166.451 71.3025 167.09L97.1257 152.182V122.369C96.5735 122.369 96.0266 122.26 95.5164 122.049C95.0062 121.837 94.5427 121.528 94.1522 121.137C93.7617 120.747 93.452 120.283 93.2407 119.773C93.0294 119.263 92.9207 118.716 92.9208 118.164C92.922 117.426 93.1174 116.701 93.4872 116.063L67.6655 101.155Z" stroke="black" stroke-width="2"/>
<path d="M38.205 122.369C40.5273 122.369 42.41 120.486 42.41 118.164C42.41 115.841 40.5273 113.959 38.205 113.959C35.8826 113.959 34 115.841 34 118.164C34 120.486 35.8826 122.369 38.205 122.369Z" stroke="black" stroke-width="2" stroke-linecap="round" stroke-linejoin="round"/>
<path d="M97.1256 122.369C99.448 122.369 101.331 120.486 101.331 118.164C101.331 115.841 99.448 113.959 97.1256 113.959C94.8033 113.959 92.9207 115.841 92.9207 118.164C92.9207 120.486 94.8033 122.369 97.1256 122.369Z" stroke="black" stroke-width="2" stroke-linecap="round" stroke-linejoin="round"/>
<path d="M67.6653 173.395C69.9877 173.395 71.8703 171.513 71.8703 169.19C71.8703 166.868 69.9877 164.985 67.6653 164.985C65.343 164.985 63.4603 166.868 63.4603 169.19C63.4603 171.513 65.343 173.395 67.6653 173.395Z" stroke="black" stroke-width="2" stroke-linecap="round" stroke-linejoin="round"/>
<path d="M49.4178 124.637V145.708L67.6653 156.243L85.9128 145.708V124.637L67.6653 114.102L49.4178 124.637ZM49.4178 124.637L67.6653 135.173L85.9128 124.637" stroke="black" stroke-width="2" stroke-linejoin="round"/>
<path d="M67.6653 135.173V156.243" stroke="black" stroke-width="2" stroke-linecap="round" stroke-dasharray="16 4 2 4"/>
</g>
<path d="M43.012 190H38.08V181.432H43.012V182.92H39.892V184.804H42.796V186.292H39.892V188.5H43.012V190ZM48.3108 183.328C48.3988 183.328 48.5028 183.332 48.6228 183.34C48.7428 183.348 48.8388 183.36 48.9108 183.376L48.7788 185.056C48.7228 185.04 48.6388 185.028 48.5268 185.02C48.4228 185.004 48.3308 184.996 48.2508 184.996C47.9468 184.996 47.6548 185.052 47.3748 185.164C47.0948 185.268 46.8668 185.44 46.6908 185.68C46.5228 185.92 46.4388 186.248 46.4388 186.664V190H44.6508V183.448H46.0068L46.2708 184.552H46.3548C46.5468 184.216 46.8108 183.928 47.1468 183.688C47.4828 183.448 47.8708 183.328 48.3108 183.328ZM52.1069 183.328C52.9149 183.328 53.5469 183.648 54.0029 184.288H54.0509L54.1949 183.448H55.7069V190.012C55.7069 190.948 55.4309 191.66 54.8789 192.148C54.3269 192.636 53.5109 192.88 52.4309 192.88C51.9669 192.88 51.5349 192.852 51.1349 192.796C50.7429 192.74 50.3589 192.64 49.9829 192.496V191.068C50.7909 191.404 51.6429 191.572 52.5389 191.572C53.4589 191.572 53.9189 191.076 53.9189 190.084V189.952C53.9189 189.816 53.9229 189.676 53.9309 189.532C53.9469 189.388 53.9589 189.26 53.9669 189.148H53.9189C53.6949 189.492 53.4269 189.74 53.1149 189.892C52.8029 190.044 52.4509 190.12 52.0589 190.12C51.2829 190.12 50.6749 189.824 50.2349 189.232C49.8029 188.632 49.5869 187.8 49.5869 186.736C49.5869 185.664 49.8109 184.828 50.2589 184.228C50.7069 183.628 51.3229 183.328 52.1069 183.328ZM52.6709 184.78C51.8309 184.78 51.4109 185.44 51.4109 186.76C51.4109 188.064 51.8389 188.716 52.6949 188.716C53.1509 188.716 53.4869 188.588 53.7029 188.332C53.9269 188.068 54.0389 187.612 54.0389 186.964V186.748C54.0389 186.044 53.9309 185.54 53.7149 185.236C53.4989 184.932 53.1509 184.78 52.6709 184.78ZM63.5286 186.712C63.5286 187.8 63.2406 188.64 62.6646 189.232C62.0966 189.824 61.3206 190.12 60.3366 190.12C59.7286 190.12 59.1846 189.988 58.7046 189.724C58.2326 189.46 57.8606 189.076 57.5886 188.572C57.3166 188.06 57.1806 187.44 57.1806 186.712C57.1806 185.624 57.4646 184.788 58.0326 184.204C58.6006 183.62 59.3806 183.328 60.3726 183.328C60.9886 183.328 61.5326 183.46 62.0046 183.724C62.4766 183.988 62.8486 184.372 63.1206 184.876C63.3926 185.372 63.5286 185.984 63.5286 186.712ZM59.0046 186.712C59.0046 187.36 59.1086 187.852 59.3166 188.188C59.5326 188.516 59.8806 188.68 60.3606 188.68C60.8326 188.68 61.1726 188.516 61.3806 188.188C61.5966 187.852 61.7046 187.36 61.7046 186.712C61.7046 186.064 61.5966 185.58 61.3806 185.26C61.1726 184.932 60.8286 184.768 60.3486 184.768C59.8766 184.768 59.5326 184.932 59.3166 185.26C59.1086 185.58 59.0046 186.064 59.0046 186.712ZM75.8635 190H73.5595L69.8275 183.52H69.7795C69.7955 183.928 69.8115 184.336 69.8275 184.744C69.8515 185.152 69.8715 185.56 69.8875 185.968V190H68.2675V181.432H70.5595L74.2795 187.852H74.3155C74.3075 187.452 74.2955 187.056 74.2795 186.664C74.2635 186.272 74.2475 185.88 74.2315 185.488V181.432H75.8635V190ZM83.8372 186.712C83.8372 187.8 83.5492 188.64 82.9732 189.232C82.4052 189.824 81.6292 190.12 80.6452 190.12C80.0372 190.12 79.4932 189.988 79.0132 189.724C78.5412 189.46 78.1692 189.076 77.8972 188.572C77.6252 188.06 77.4892 187.44 77.4892 186.712C77.4892 185.624 77.7732 184.788 78.3412 184.204C78.9092 183.62 79.6892 183.328 80.6812 183.328C81.2972 183.328 81.8412 183.46 82.3132 183.724C82.7852 183.988 83.1572 184.372 83.4292 184.876C83.7012 185.372 83.8372 185.984 83.8372 186.712ZM79.3132 186.712C79.3132 187.36 79.4172 187.852 79.6252 188.188C79.8412 188.516 80.1892 188.68 80.6692 188.68C81.1412 188.68 81.4812 188.516 81.6892 188.188C81.9052 187.852 82.0132 187.36 82.0132 186.712C82.0132 186.064 81.9052 185.58 81.6892 185.26C81.4812 184.932 81.1372 184.768 80.6572 184.768C80.1852 184.768 79.8412 184.932 79.6252 185.26C79.4172 185.58 79.3132 186.064 79.3132 186.712ZM87.3909 190.12C86.6629 190.12 86.0669 189.836 85.6029 189.268C85.1469 188.692 84.9189 187.848 84.9189 186.736C84.9189 185.616 85.1509 184.768 85.6149 184.192C86.0789 183.616 86.6869 183.328 87.4389 183.328C87.9109 183.328 88.2989 183.42 88.6029 183.604C88.9069 183.788 89.1469 184.016 89.3229 184.288H89.3829C89.3589 184.16 89.3309 183.976 89.2989 183.736C89.2669 183.488 89.2509 183.236 89.2509 182.98V180.88H91.0389V190H89.6709L89.3229 189.148H89.2509C89.0749 189.42 88.8389 189.652 88.5429 189.844C88.2469 190.028 87.8629 190.12 87.3909 190.12ZM88.0149 188.692C88.5109 188.692 88.8589 188.548 89.0589 188.26C89.2589 187.964 89.3629 187.524 89.3709 186.94V186.748C89.3709 186.108 89.2709 185.62 89.0709 185.284C88.8789 184.948 88.5189 184.78 87.9909 184.78C87.5989 184.78 87.2909 184.952 87.0669 185.296C86.8429 185.632 86.7309 186.12 86.7309 186.76C86.7309 187.4 86.8429 187.884 87.0669 188.212C87.2909 188.532 87.6069 188.692 88.0149 188.692ZM95.6087 183.328C96.5127 183.328 97.2287 183.588 97.7567 184.108C98.2847 184.62 98.5487 185.352 98.5487 186.304V187.168H94.3247C94.3407 187.672 94.4887 188.068 94.7687 188.356C95.0567 188.644 95.4527 188.788 95.9567 188.788C96.3807 188.788 96.7647 188.748 97.1087 188.668C97.4527 188.58 97.8087 188.448 98.1767 188.272V189.652C97.8567 189.812 97.5167 189.928 97.1567 190C96.8047 190.08 96.3767 190.12 95.8727 190.12C95.2167 190.12 94.6367 190 94.1327 189.76C93.6287 189.512 93.2327 189.14 92.9447 188.644C92.6567 188.148 92.5127 187.524 92.5127 186.772C92.5127 186.004 92.6407 185.368 92.8967 184.864C93.1607 184.352 93.5247 183.968 93.9887 183.712C94.4527 183.456 94.9927 183.328 95.6087 183.328ZM95.6207 184.6C95.2767 184.6 94.9887 184.712 94.7567 184.936C94.5327 185.16 94.4007 185.508 94.3607 185.98H96.8687C96.8607 185.58 96.7567 185.252 96.5567 184.996C96.3567 184.732 96.0447 184.6 95.6207 184.6Z" fill="black"/>
<path d="M247.293 140.293C246.902 140.683 246.902 141.317 247.293 141.707L253.657 148.071C254.047 148.462 254.681 148.462 255.071 148.071C255.462 147.681 255.462 147.047 255.071 146.657L249.414 141L255.071 135.343C255.462 134.953 255.462 134.319 255.071 133.929C254.681 133.538 254.047 133.538 253.657 133.929L247.293 140.293ZM248 142L359 142V140L248 140V142Z" fill="black"/>
<path d="M471.293 141.293C470.902 141.683 470.902 142.317 471.293 142.707L477.657 149.071C478.047 149.462 478.681 149.462 479.071 149.071C479.462 148.681 479.462 148.047 479.071 147.657L473.414 142L479.071 136.343C479.462 135.953 479.462 135.319 479.071 134.929C478.681 134.538 478.047 134.538 477.657 134.929L471.293 141.293ZM472 143L536 143V141L472 141V143Z" fill="black"/>
<path d="M98.2929 130.293C97.9024 130.683 97.9024 131.317 98.2929 131.707L104.657 138.071C105.047 138.462 105.681 138.462 106.071 138.071C106.462 137.681 106.462 137.047 106.071 136.657L100.414 131L106.071 125.343C106.462 124.953 106.462 124.319 106.071 123.929C105.681 123.538 105.047 123.538 104.657 123.929L98.2929 130.293ZM191 130H99V132H191V130Z" fill="black"/>
<path d="M189.707 146.707C190.098 146.317 190.098 145.683 189.707 145.293L183.343 138.929C182.953 138.538 182.319 138.538 181.929 138.929C181.538 139.319 181.538 139.953 181.929 140.343L187.586 146L181.929 151.657C181.538 152.047 181.538 152.681 181.929 153.071C182.319 153.462 182.953 153.462 183.343 153.071L189.707 146.707ZM189 145H97V147H189V145Z" fill="black"/>
<path d="M141.38 125H139.568V117.944H137.24V116.432H143.708V117.944H141.38V125ZM145.995 121.652L143.883 118.448H145.911L147.183 120.536L148.467 118.448H150.495L148.359 121.652L150.591 125H148.563L147.183 122.756L145.803 125H143.775L145.995 121.652ZM156.16 123.056C156.16 123.72 155.924 124.232 155.452 124.592C154.988 124.944 154.292 125.12 153.364 125.12C152.908 125.12 152.516 125.088 152.188 125.024C151.86 124.968 151.532 124.872 151.204 124.736V123.26C151.556 123.42 151.936 123.552 152.344 123.656C152.752 123.76 153.112 123.812 153.424 123.812C153.776 123.812 154.024 123.76 154.168 123.656C154.32 123.552 154.396 123.416 154.396 123.248C154.396 123.136 154.364 123.036 154.3 122.948C154.244 122.86 154.116 122.76 153.916 122.648C153.716 122.536 153.404 122.392 152.98 122.216C152.572 122.04 152.236 121.868 151.972 121.7C151.708 121.524 151.512 121.316 151.384 121.076C151.256 120.828 151.192 120.52 151.192 120.152C151.192 119.544 151.428 119.088 151.9 118.784C152.372 118.48 153 118.328 153.784 118.328C154.192 118.328 154.58 118.368 154.948 118.448C155.316 118.528 155.696 118.66 156.088 118.844L155.548 120.128C155.228 119.992 154.924 119.88 154.636 119.792C154.348 119.696 154.056 119.648 153.76 119.648C153.232 119.648 152.968 119.792 152.968 120.08C152.968 120.184 153 120.28 153.064 120.368C153.136 120.448 153.268 120.536 153.46 120.632C153.66 120.728 153.952 120.856 154.336 121.016C154.712 121.168 155.036 121.328 155.308 121.496C155.58 121.656 155.788 121.86 155.932 122.108C156.084 122.348 156.16 122.664 156.16 123.056Z" fill="black"/>
<path d="M132.744 151.432C133.888 151.432 134.752 151.592 135.336 151.912C135.92 152.232 136.212 152.796 136.212 153.604C136.212 154.092 136.096 154.504 135.864 154.84C135.64 155.176 135.316 155.38 134.892 155.452V155.512C135.18 155.568 135.44 155.668 135.672 155.812C135.904 155.956 136.088 156.164 136.224 156.436C136.36 156.708 136.428 157.068 136.428 157.516C136.428 158.292 136.148 158.9 135.588 159.34C135.028 159.78 134.26 160 133.284 160H130.08V151.432H132.744ZM132.948 154.828C133.476 154.828 133.84 154.744 134.04 154.576C134.248 154.408 134.352 154.164 134.352 153.844C134.352 153.516 134.232 153.28 133.992 153.136C133.752 152.992 133.372 152.92 132.852 152.92H131.892V154.828H132.948ZM131.892 156.268V158.5H133.08C133.624 158.5 134.004 158.396 134.22 158.188C134.436 157.972 134.544 157.688 134.544 157.336C134.544 157.016 134.432 156.76 134.208 156.568C133.992 156.368 133.596 156.268 133.02 156.268H131.892ZM139.787 160H137.999V150.88H139.787V160ZM147.607 156.712C147.607 157.8 147.319 158.64 146.743 159.232C146.175 159.824 145.399 160.12 144.415 160.12C143.807 160.12 143.263 159.988 142.783 159.724C142.311 159.46 141.939 159.076 141.667 158.572C141.395 158.06 141.259 157.44 141.259 156.712C141.259 155.624 141.543 154.788 142.111 154.204C142.679 153.62 143.459 153.328 144.451 153.328C145.067 153.328 145.611 153.46 146.083 153.724C146.555 153.988 146.927 154.372 147.199 154.876C147.471 155.372 147.607 155.984 147.607 156.712ZM143.083 156.712C143.083 157.36 143.187 157.852 143.395 158.188C143.611 158.516 143.959 158.68 144.439 158.68C144.911 158.68 145.251 158.516 145.459 158.188C145.675 157.852 145.783 157.36 145.783 156.712C145.783 156.064 145.675 155.58 145.459 155.26C145.251 154.932 144.907 154.768 144.427 154.768C143.955 154.768 143.611 154.932 143.395 155.26C143.187 155.58 143.083 156.064 143.083 156.712ZM151.748 160.12C150.772 160.12 150.016 159.852 149.48 159.316C148.952 158.772 148.688 157.92 148.688 156.76C148.688 155.96 148.824 155.308 149.096 154.804C149.368 154.3 149.744 153.928 150.224 153.688C150.712 153.448 151.272 153.328 151.904 153.328C152.352 153.328 152.74 153.372 153.068 153.46C153.404 153.548 153.696 153.652 153.944 153.772L153.416 155.152C153.136 155.04 152.872 154.948 152.624 154.876C152.384 154.804 152.144 154.768 151.904 154.768C150.976 154.768 150.512 155.428 150.512 156.748C150.512 157.404 150.632 157.888 150.872 158.2C151.12 158.512 151.464 158.668 151.904 158.668C152.28 158.668 152.612 158.62 152.9 158.524C153.188 158.42 153.468 158.28 153.74 158.104V159.628C153.468 159.804 153.18 159.928 152.876 160C152.58 160.08 152.204 160.12 151.748 160.12ZM157.037 154.96C157.037 155.208 157.025 155.456 157.001 155.704C156.985 155.944 156.965 156.188 156.941 156.436H156.965C157.085 156.268 157.209 156.1 157.337 155.932C157.465 155.756 157.601 155.592 157.745 155.44L159.581 153.448H161.597L158.993 156.292L161.753 160H159.689L157.805 157.348L157.037 157.96V160H155.249V150.88H157.037V154.96ZM167.262 158.056C167.262 158.72 167.026 159.232 166.554 159.592C166.09 159.944 165.394 160.12 164.466 160.12C164.01 160.12 163.618 160.088 163.29 160.024C162.962 159.968 162.634 159.872 162.306 159.736V158.26C162.658 158.42 163.038 158.552 163.446 158.656C163.854 158.76 164.214 158.812 164.526 158.812C164.878 158.812 165.126 158.76 165.27 158.656C165.422 158.552 165.498 158.416 165.498 158.248C165.498 158.136 165.466 158.036 165.402 157.948C165.346 157.86 165.218 157.76 165.018 157.648C164.818 157.536 164.506 157.392 164.082 157.216C163.674 157.04 163.338 156.868 163.074 156.7C162.81 156.524 162.614 156.316 162.486 156.076C162.358 155.828 162.294 155.52 162.294 155.152C162.294 154.544 162.53 154.088 163.002 153.784C163.474 153.48 164.102 153.328 164.886 153.328C165.294 153.328 165.682 153.368 166.05 153.448C166.418 153.528 166.798 153.66 167.19 153.844L166.65 155.128C166.33 154.992 166.026 154.88 165.738 154.792C165.45 154.696 165.158 154.648 164.862 154.648C164.334 154.648 164.07 154.792 164.07 155.08C164.07 155.184 164.102 155.28 164.166 155.368C164.238 155.448 164.37 155.536 164.562 155.632C164.762 155.728 165.054 155.856 165.438 156.016C165.814 156.168 166.138 156.328 166.41 156.496C166.682 156.656 166.89 156.86 167.034 157.108C167.186 157.348 167.262 157.664 167.262 158.056Z" fill="black"/>
<path d="M489.744 125.432C490.888 125.432 491.752 125.592 492.336 125.912C492.92 126.232 493.212 126.796 493.212 127.604C493.212 128.092 493.096 128.504 492.864 128.84C492.64 129.176 492.316 129.38 491.892 129.452V129.512C492.18 129.568 492.44 129.668 492.672 129.812C492.904 129.956 493.088 130.164 493.224 130.436C493.36 130.708 493.428 131.068 493.428 131.516C493.428 132.292 493.148 132.9 492.588 133.34C492.028 133.78 491.26 134 490.284 134H487.08V125.432H489.744ZM489.948 128.828C490.476 128.828 490.84 128.744 491.04 128.576C491.248 128.408 491.352 128.164 491.352 127.844C491.352 127.516 491.232 127.28 490.992 127.136C490.752 126.992 490.372 126.92 489.852 126.92H488.892V128.828H489.948ZM488.892 130.268V132.5H490.08C490.624 132.5 491.004 132.396 491.22 132.188C491.436 131.972 491.544 131.688 491.544 131.336C491.544 131.016 491.432 130.76 491.208 130.568C490.992 130.368 490.596 130.268 490.02 130.268H488.892ZM496.787 134H494.999V124.88H496.787V134ZM504.607 130.712C504.607 131.8 504.319 132.64 503.743 133.232C503.175 133.824 502.399 134.12 501.415 134.12C500.807 134.12 500.263 133.988 499.783 133.724C499.311 133.46 498.939 133.076 498.667 132.572C498.395 132.06 498.259 131.44 498.259 130.712C498.259 129.624 498.543 128.788 499.111 128.204C499.679 127.62 500.459 127.328 501.451 127.328C502.067 127.328 502.611 127.46 503.083 127.724C503.555 127.988 503.927 128.372 504.199 128.876C504.471 129.372 504.607 129.984 504.607 130.712ZM500.083 130.712C500.083 131.36 500.187 131.852 500.395 132.188C500.611 132.516 500.959 132.68 501.439 132.68C501.911 132.68 502.251 132.516 502.459 132.188C502.675 131.852 502.783 131.36 502.783 130.712C502.783 130.064 502.675 129.58 502.459 129.26C502.251 128.932 501.907 128.768 501.427 128.768C500.955 128.768 500.611 128.932 500.395 129.26C500.187 129.58 500.083 130.064 500.083 130.712ZM508.748 134.12C507.772 134.12 507.016 133.852 506.48 133.316C505.952 132.772 505.688 131.92 505.688 130.76C505.688 129.96 505.824 129.308 506.096 128.804C506.368 128.3 506.744 127.928 507.224 127.688C507.712 127.448 508.272 127.328 508.904 127.328C509.352 127.328 509.74 127.372 510.068 127.46C510.404 127.548 510.696 127.652 510.944 127.772L510.416 129.152C510.136 129.04 509.872 128.948 509.624 128.876C509.384 128.804 509.144 128.768 508.904 128.768C507.976 128.768 507.512 129.428 507.512 130.748C507.512 131.404 507.632 131.888 507.872 132.2C508.12 132.512 508.464 132.668 508.904 132.668C509.28 132.668 509.612 132.62 509.9 132.524C510.188 132.42 510.468 132.28 510.74 132.104V133.628C510.468 133.804 510.18 133.928 509.876 134C509.58 134.08 509.204 134.12 508.748 134.12ZM514.037 128.96C514.037 129.208 514.025 129.456 514.001 129.704C513.985 129.944 513.965 130.188 513.941 130.436H513.965C514.085 130.268 514.209 130.1 514.337 129.932C514.465 129.756 514.601 129.592 514.745 129.44L516.581 127.448H518.597L515.993 130.292L518.753 134H516.689L514.805 131.348L514.037 131.96V134H512.249V124.88H514.037V128.96ZM524.262 132.056C524.262 132.72 524.026 133.232 523.554 133.592C523.09 133.944 522.394 134.12 521.466 134.12C521.01 134.12 520.618 134.088 520.29 134.024C519.962 133.968 519.634 133.872 519.306 133.736V132.26C519.658 132.42 520.038 132.552 520.446 132.656C520.854 132.76 521.214 132.812 521.526 132.812C521.878 132.812 522.126 132.76 522.27 132.656C522.422 132.552 522.498 132.416 522.498 132.248C522.498 132.136 522.466 132.036 522.402 131.948C522.346 131.86 522.218 131.76 522.018 131.648C521.818 131.536 521.506 131.392 521.082 131.216C520.674 131.04 520.338 130.868 520.074 130.7C519.81 130.524 519.614 130.316 519.486 130.076C519.358 129.828 519.294 129.52 519.294 129.152C519.294 128.544 519.53 128.088 520.002 127.784C520.474 127.48 521.102 127.328 521.886 127.328C522.294 127.328 522.682 127.368 523.05 127.448C523.418 127.528 523.798 127.66 524.19 127.844L523.65 129.128C523.33 128.992 523.026 128.88 522.738 128.792C522.45 128.696 522.158 128.648 521.862 128.648C521.334 128.648 521.07 128.792 521.07 129.08C521.07 129.184 521.102 129.28 521.166 129.368C521.238 129.448 521.37 129.536 521.562 129.632C521.762 129.728 522.054 129.856 522.438 130.016C522.814 130.168 523.138 130.328 523.41 130.496C523.682 130.656 523.89 130.86 524.034 131.108C524.186 131.348 524.262 131.664 524.262 132.056Z" fill="black"/>
<path d="M283.868 134H282.08V125.432H286.988V126.92H283.868V129.128H286.772V130.616H283.868V134ZM289.422 124.88C289.686 124.88 289.914 124.944 290.106 125.072C290.298 125.192 290.394 125.42 290.394 125.756C290.394 126.084 290.298 126.312 290.106 126.44C289.914 126.568 289.686 126.632 289.422 126.632C289.15 126.632 288.918 126.568 288.726 126.44C288.542 126.312 288.45 126.084 288.45 125.756C288.45 125.42 288.542 125.192 288.726 125.072C288.918 124.944 289.15 124.88 289.422 124.88ZM290.31 127.448V134H288.522V127.448H290.31ZM293.966 134H292.178V124.88H293.966V134ZM298.594 132.692C298.794 132.692 298.986 132.672 299.17 132.632C299.354 132.592 299.538 132.544 299.722 132.488V133.82C299.53 133.9 299.29 133.968 299.002 134.024C298.722 134.088 298.414 134.12 298.078 134.12C297.686 134.12 297.334 134.056 297.022 133.928C296.718 133.8 296.474 133.58 296.29 133.268C296.114 132.948 296.026 132.508 296.026 131.948V128.792H295.174V128.036L296.158 127.436L296.674 126.056H297.814V127.448H299.65V128.792H297.814V131.948C297.814 132.196 297.886 132.384 298.03 132.512C298.174 132.632 298.362 132.692 298.594 132.692ZM303.738 127.328C304.642 127.328 305.358 127.588 305.886 128.108C306.414 128.62 306.678 129.352 306.678 130.304V131.168H302.454C302.47 131.672 302.618 132.068 302.898 132.356C303.186 132.644 303.582 132.788 304.086 132.788C304.51 132.788 304.894 132.748 305.238 132.668C305.582 132.58 305.938 132.448 306.306 132.272V133.652C305.986 133.812 305.646 133.928 305.286 134C304.934 134.08 304.506 134.12 304.002 134.12C303.346 134.12 302.766 134 302.262 133.76C301.758 133.512 301.362 133.14 301.074 132.644C300.786 132.148 300.642 131.524 300.642 130.772C300.642 130.004 300.77 129.368 301.026 128.864C301.29 128.352 301.654 127.968 302.118 127.712C302.582 127.456 303.122 127.328 303.738 127.328ZM303.75 128.6C303.406 128.6 303.118 128.712 302.886 128.936C302.662 129.16 302.53 129.508 302.49 129.98H304.998C304.99 129.58 304.886 129.252 304.686 128.996C304.486 128.732 304.174 128.6 303.75 128.6ZM311.787 127.328C311.875 127.328 311.979 127.332 312.099 127.34C312.219 127.348 312.315 127.36 312.387 127.376L312.255 129.056C312.199 129.04 312.115 129.028 312.003 129.02C311.899 129.004 311.807 128.996 311.727 128.996C311.423 128.996 311.131 129.052 310.851 129.164C310.571 129.268 310.343 129.44 310.167 129.68C309.999 129.92 309.915 130.248 309.915 130.664V134H308.127V127.448H309.483L309.747 128.552H309.831C310.023 128.216 310.287 127.928 310.623 127.688C310.959 127.448 311.347 127.328 311.787 127.328ZM318.149 132.056C318.149 132.72 317.913 133.232 317.441 133.592C316.977 133.944 316.281 134.12 315.353 134.12C314.897 134.12 314.505 134.088 314.177 134.024C313.849 133.968 313.521 133.872 313.193 133.736V132.26C313.545 132.42 313.925 132.552 314.333 132.656C314.741 132.76 315.101 132.812 315.413 132.812C315.765 132.812 316.013 132.76 316.157 132.656C316.309 132.552 316.385 132.416 316.385 132.248C316.385 132.136 316.353 132.036 316.289 131.948C316.233 131.86 316.105 131.76 315.905 131.648C315.705 131.536 315.393 131.392 314.969 131.216C314.561 131.04 314.225 130.868 313.961 130.7C313.697 130.524 313.501 130.316 313.373 130.076C313.245 129.828 313.181 129.52 313.181 129.152C313.181 128.544 313.417 128.088 313.889 127.784C314.361 127.48 314.989 127.328 315.773 127.328C316.181 127.328 316.569 127.368 316.937 127.448C317.305 127.528 317.685 127.66 318.077 127.844L317.537 129.128C317.217 128.992 316.913 128.88 316.625 128.792C316.337 128.696 316.045 128.648 315.749 128.648C315.221 128.648 314.957 128.792 314.957 129.08C314.957 129.184 314.989 129.28 315.053 129.368C315.125 129.448 315.257 129.536 315.449 129.632C315.649 129.728 315.941 129.856 316.325 130.016C316.701 130.168 317.025 130.328 317.297 130.496C317.569 130.656 317.777 130.86 317.921 131.108C318.073 131.348 318.149 131.664 318.149 132.056Z" fill="black"/>
<path d="M213.604 178.432L211.42 187H209.356L208.192 182.5C208.168 182.412 208.136 182.28 208.096 182.104C208.064 181.928 208.024 181.736 207.976 181.528C207.936 181.32 207.9 181.124 207.868 180.94C207.836 180.748 207.812 180.6 207.796 180.496C207.788 180.6 207.764 180.748 207.724 180.94C207.692 181.124 207.656 181.32 207.616 181.528C207.576 181.728 207.536 181.92 207.496 182.104C207.456 182.28 207.424 182.416 207.4 182.512L206.248 187H204.184L202 178.432H203.788L204.88 183.112C204.928 183.296 204.98 183.528 205.036 183.808C205.092 184.088 205.144 184.368 205.192 184.648C205.24 184.928 205.276 185.164 205.3 185.356C205.324 185.156 205.36 184.92 205.408 184.648C205.456 184.368 205.504 184.1 205.552 183.844C205.608 183.58 205.656 183.376 205.696 183.232L206.944 178.432H208.66L209.908 183.232C209.948 183.368 209.992 183.568 210.04 183.832C210.096 184.096 210.148 184.368 210.196 184.648C210.244 184.928 210.28 185.164 210.304 185.356C210.328 185.156 210.364 184.92 210.412 184.648C210.46 184.368 210.512 184.088 210.568 183.808C210.632 183.528 210.684 183.296 210.724 183.112L211.816 178.432H213.604ZM216.991 180.316C217.871 180.316 218.543 180.508 219.007 180.892C219.479 181.268 219.715 181.848 219.715 182.632V187H218.467L218.119 186.112H218.071C217.791 186.464 217.495 186.72 217.183 186.88C216.871 187.04 216.443 187.12 215.899 187.12C215.315 187.12 214.831 186.952 214.447 186.616C214.063 186.272 213.871 185.748 213.871 185.044C213.871 184.348 214.115 183.836 214.603 183.508C215.091 183.172 215.823 182.988 216.799 182.956L217.939 182.92V182.632C217.939 182.288 217.847 182.036 217.663 181.876C217.487 181.716 217.239 181.636 216.919 181.636C216.599 181.636 216.287 181.684 215.983 181.78C215.679 181.868 215.375 181.98 215.071 182.116L214.483 180.904C214.835 180.72 215.223 180.576 215.647 180.472C216.079 180.368 216.527 180.316 216.991 180.316ZM217.243 183.988C216.667 184.004 216.267 184.108 216.043 184.3C215.819 184.492 215.707 184.744 215.707 185.056C215.707 185.328 215.787 185.524 215.947 185.644C216.107 185.756 216.315 185.812 216.571 185.812C216.955 185.812 217.279 185.7 217.543 185.476C217.807 185.244 217.939 184.92 217.939 184.504V183.964L217.243 183.988ZM223.333 187H221.545V177.88H223.333V187ZM226.99 187H225.202V177.88H226.99V187ZM231.558 180.328C232.462 180.328 233.178 180.588 233.706 181.108C234.234 181.62 234.498 182.352 234.498 183.304V184.168H230.274C230.29 184.672 230.438 185.068 230.718 185.356C231.006 185.644 231.402 185.788 231.906 185.788C232.33 185.788 232.714 185.748 233.058 185.668C233.402 185.58 233.758 185.448 234.126 185.272V186.652C233.806 186.812 233.466 186.928 233.106 187C232.754 187.08 232.326 187.12 231.822 187.12C231.166 187.12 230.586 187 230.082 186.76C229.578 186.512 229.182 186.14 228.894 185.644C228.606 185.148 228.462 184.524 228.462 183.772C228.462 183.004 228.59 182.368 228.846 181.864C229.11 181.352 229.474 180.968 229.938 180.712C230.402 180.456 230.942 180.328 231.558 180.328ZM231.57 181.6C231.226 181.6 230.938 181.712 230.706 181.936C230.482 182.16 230.35 182.508 230.31 182.98H232.818C232.81 182.58 232.706 182.252 232.506 181.996C232.306 181.732 231.994 181.6 231.57 181.6ZM238.708 185.692C238.908 185.692 239.1 185.672 239.284 185.632C239.468 185.592 239.652 185.544 239.836 185.488V186.82C239.644 186.9 239.404 186.968 239.116 187.024C238.836 187.088 238.528 187.12 238.192 187.12C237.8 187.12 237.448 187.056 237.136 186.928C236.832 186.8 236.588 186.58 236.404 186.268C236.228 185.948 236.14 185.508 236.14 184.948V181.792H235.288V181.036L236.272 180.436L236.788 179.056H237.928V180.448H239.764V181.792H237.928V184.948C237.928 185.196 238 185.384 238.144 185.512C238.288 185.632 238.476 185.692 238.708 185.692Z" fill="black"/>
<path d="M385.25 90.461C376.798 90.4611 368.692 93.8065 362.715 99.7613C356.739 105.716 353.381 113.793 353.381 122.214C353.39 125.323 353.858 128.414 354.769 131.388C344.553 135.642 337.466 145.156 337.466 156.272C337.466 171.378 350.546 183.539 366.793 183.539H444.207C460.454 183.539 473.534 171.378 473.534 156.272C473.534 143.491 464.17 132.821 451.446 129.839C451.463 129.598 451.475 129.358 451.483 129.117C451.483 126.253 450.916 123.416 449.816 120.77C448.716 118.123 447.103 115.718 445.07 113.693C443.037 111.667 440.624 110.061 437.968 108.965C435.311 107.868 432.465 107.304 429.59 107.304C424.443 107.306 419.462 109.115 415.521 112.412C413.445 106.039 409.399 100.483 403.962 96.5406C398.524 92.5978 391.975 90.4698 385.25 90.461H385.25Z" fill="white" stroke="black" stroke-width="2" stroke-linejoin="round"/>
<g clip-path="url(#clip3)">
<path d="M426.307 120H383C381.895 120 381 120.895 381 122V130.829C381 131.934 381.895 132.829 383 132.829H426.307C427.411 132.829 428.307 131.934 428.307 130.829V122C428.307 120.895 427.411 120 426.307 120Z" stroke="black" stroke-width="2" stroke-linecap="round" stroke-linejoin="round"/>
<path d="M426.307 132.829H383C381.895 132.829 381 133.724 381 134.829V143.658C381 144.762 381.895 145.658 383 145.658H426.307C427.411 145.658 428.307 144.762 428.307 143.658V134.829C428.307 133.724 427.411 132.829 426.307 132.829Z" stroke="black" stroke-width="2" stroke-linecap="round" stroke-linejoin="round"/>
<path d="M426.307 145.658H383C381.895 145.658 381 146.553 381 147.658V156.487C381 157.591 381.895 158.487 383 158.487H426.307C427.411 158.487 428.307 157.591 428.307 156.487V147.658C428.307 146.553 427.411 145.658 426.307 145.658Z" stroke="black" stroke-width="2" stroke-linecap="round" stroke-linejoin="round"/>
<path d="M388.425 125.015H385.592V127.814H388.425V125.015Z" fill="black" stroke="black" stroke-width="0.49296" stroke-linecap="round" stroke-linejoin="round"/>
<path d="M388.425 137.844H385.592V140.643H388.425V137.844Z" fill="black" stroke="black" stroke-width="0.49296" stroke-linecap="round" stroke-linejoin="round"/>
<path d="M388.425 150.672H385.592V153.472H388.425V150.672Z" fill="black" stroke="black" stroke-width="0.49296" stroke-linecap="round" stroke-linejoin="round"/>
<path d="M395.78 125.015H392.947V127.814H395.78V125.015Z" fill="black" stroke="black" stroke-width="0.49296" stroke-linecap="round" stroke-linejoin="round"/>
<path d="M395.78 137.844H392.947V140.643H395.78V137.844Z" fill="black" stroke="black" stroke-width="0.49296" stroke-linecap="round" stroke-linejoin="round"/>
<path d="M395.78 150.672H392.947V153.472H395.78V150.672Z" fill="black" stroke="black" stroke-width="0.49296" stroke-linecap="round" stroke-linejoin="round"/>
</g>
<path d="M383.284 174H379.384V172.968L380.428 172.488V166.944L379.384 166.464V165.432H383.284V166.464L382.24 166.944V172.488L383.284 172.968V174ZM388.32 167.328C389.024 167.328 389.588 167.52 390.012 167.904C390.436 168.28 390.648 168.888 390.648 169.728V174H388.86V170.172C388.86 169.7 388.776 169.348 388.608 169.116C388.44 168.876 388.172 168.756 387.804 168.756C387.26 168.756 386.888 168.944 386.688 169.32C386.488 169.688 386.388 170.22 386.388 170.916V174H384.6V167.448H385.968L386.208 168.288H386.304C386.512 167.952 386.796 167.708 387.156 167.556C387.524 167.404 387.912 167.328 388.32 167.328ZM394.563 174.12C393.835 174.12 393.239 173.836 392.775 173.268C392.319 172.692 392.091 171.848 392.091 170.736C392.091 169.616 392.323 168.768 392.787 168.192C393.251 167.616 393.859 167.328 394.611 167.328C395.083 167.328 395.471 167.42 395.775 167.604C396.079 167.788 396.319 168.016 396.495 168.288H396.555C396.531 168.16 396.503 167.976 396.471 167.736C396.439 167.488 396.423 167.236 396.423 166.98V164.88H398.211V174H396.843L396.495 173.148H396.423C396.247 173.42 396.011 173.652 395.715 173.844C395.419 174.028 395.035 174.12 394.563 174.12ZM395.187 172.692C395.683 172.692 396.031 172.548 396.231 172.26C396.431 171.964 396.535 171.524 396.543 170.94V170.748C396.543 170.108 396.443 169.62 396.243 169.284C396.051 168.948 395.691 168.78 395.163 168.78C394.771 168.78 394.463 168.952 394.239 169.296C394.015 169.632 393.903 170.12 393.903 170.76C393.903 171.4 394.015 171.884 394.239 172.212C394.463 172.532 394.779 172.692 395.187 172.692ZM402.781 167.328C403.685 167.328 404.401 167.588 404.929 168.108C405.457 168.62 405.721 169.352 405.721 170.304V171.168H401.497C401.513 171.672 401.661 172.068 401.941 172.356C402.229 172.644 402.625 172.788 403.129 172.788C403.553 172.788 403.937 172.748 404.281 172.668C404.625 172.58 404.981 172.448 405.349 172.272V173.652C405.029 173.812 404.689 173.928 404.329 174C403.977 174.08 403.549 174.12 403.045 174.12C402.389 174.12 401.809 174 401.305 173.76C400.801 173.512 400.405 173.14 400.117 172.644C399.829 172.148 399.685 171.524 399.685 170.772C399.685 170.004 399.813 169.368 400.069 168.864C400.333 168.352 400.697 167.968 401.161 167.712C401.625 167.456 402.165 167.328 402.781 167.328ZM402.793 168.6C402.449 168.6 402.161 168.712 401.929 168.936C401.705 169.16 401.573 169.508 401.533 169.98H404.041C404.033 169.58 403.929 169.252 403.729 168.996C403.529 168.732 403.217 168.6 402.793 168.6ZM408.28 170.652L406.168 167.448H408.196L409.468 169.536L410.752 167.448H412.78L410.644 170.652L412.876 174H410.848L409.468 171.756L408.088 174H406.06L408.28 170.652ZM416.339 167.328C417.243 167.328 417.959 167.588 418.487 168.108C419.015 168.62 419.279 169.352 419.279 170.304V171.168H415.055C415.071 171.672 415.219 172.068 415.499 172.356C415.787 172.644 416.183 172.788 416.687 172.788C417.111 172.788 417.495 172.748 417.839 172.668C418.183 172.58 418.539 172.448 418.907 172.272V173.652C418.587 173.812 418.247 173.928 417.887 174C417.535 174.08 417.107 174.12 416.603 174.12C415.947 174.12 415.367 174 414.863 173.76C414.359 173.512 413.963 173.14 413.675 172.644C413.387 172.148 413.243 171.524 413.243 170.772C413.243 170.004 413.371 169.368 413.627 168.864C413.891 168.352 414.255 167.968 414.719 167.712C415.183 167.456 415.723 167.328 416.339 167.328ZM416.351 168.6C416.007 168.6 415.719 168.712 415.487 168.936C415.263 169.16 415.131 169.508 415.091 169.98H417.599C417.591 169.58 417.487 169.252 417.287 168.996C417.087 168.732 416.775 168.6 416.351 168.6ZM424.389 167.328C424.477 167.328 424.581 167.332 424.701 167.34C424.821 167.348 424.917 167.36 424.989 167.376L424.857 169.056C424.801 169.04 424.717 169.028 424.605 169.02C424.501 169.004 424.409 168.996 424.329 168.996C424.025 168.996 423.733 169.052 423.453 169.164C423.173 169.268 422.945 169.44 422.769 169.68C422.601 169.92 422.517 170.248 422.517 170.664V174H420.729V167.448H422.085L422.349 168.552H422.433C422.625 168.216 422.889 167.928 423.225 167.688C423.561 167.448 423.949 167.328 424.389 167.328ZM430.75 172.056C430.75 172.72 430.514 173.232 430.042 173.592C429.578 173.944 428.882 174.12 427.954 174.12C427.498 174.12 427.106 174.088 426.778 174.024C426.45 173.968 426.122 173.872 425.794 173.736V172.26C426.146 172.42 426.526 172.552 426.934 172.656C427.342 172.76 427.702 172.812 428.014 172.812C428.366 172.812 428.614 172.76 428.758 172.656C428.91 172.552 428.986 172.416 428.986 172.248C428.986 172.136 428.954 172.036 428.89 171.948C428.834 171.86 428.706 171.76 428.506 171.648C428.306 171.536 427.994 171.392 427.57 171.216C427.162 171.04 426.826 170.868 426.562 170.7C426.298 170.524 426.102 170.316 425.974 170.076C425.846 169.828 425.782 169.52 425.782 169.152C425.782 168.544 426.018 168.088 426.49 167.784C426.962 167.48 427.59 167.328 428.374 167.328C428.782 167.328 429.17 167.368 429.538 167.448C429.906 167.528 430.286 167.66 430.678 167.844L430.138 169.128C429.818 168.992 429.514 168.88 429.226 168.792C428.938 168.696 428.646 168.648 428.35 168.648C427.822 168.648 427.558 168.792 427.558 169.08C427.558 169.184 427.59 169.28 427.654 169.368C427.726 169.448 427.858 169.536 428.05 169.632C428.25 169.728 428.542 169.856 428.926 170.016C429.302 170.168 429.626 170.328 429.898 170.496C430.17 170.656 430.378 170.86 430.522 171.108C430.674 171.348 430.75 171.664 430.75 172.056Z" fill="black"/>
<defs>
<clipPath id="clip0">
<rect width="58.3936" height="49.5916" fill="white" transform="translate(190 116)"/>
</clipPath>
<clipPath id="clip1">
<rect width="69.3307" height="74.3952" fill="white" transform="translate(531 105)"/>
</clipPath>
<clipPath id="clip2">
<rect width="69.3307" height="74.3952" fill="white" transform="translate(33 100)"/>
</clipPath>
<clipPath id="clip3">
<rect width="49.3067" height="40.4868" fill="white" transform="translate(380 119)"/>
</clipPath>
</defs>
</svg>
