<svg width="409" height="276" viewBox="0 0 409 276" fill="none" xmlns="http://www.w3.org/2000/svg">
<path d="M57.3935 231.848V219C57.3935 216.23 55.1638 214 52.3938 214H5.99969C3.2297 214 1 216.23 1 219V249.892C1 252.662 3.2297 254.892 5.99969 254.892H18.3002" stroke="black" stroke-width="2" stroke-linecap="round" stroke-linejoin="round"/>
<path d="M19.6624 231.777V231C19.6624 228.23 17.4322 226 14.6622 226H1V242.82H12.7926" stroke="black" stroke-width="2" stroke-linecap="round" stroke-linejoin="round"/>
<path d="M10.3313 238.182C12.5639 238.182 14.3737 236.372 14.3737 234.139C14.3737 231.907 12.5639 230.097 10.3313 230.097C8.09868 230.097 6.28882 231.907 6.28882 234.139C6.28882 236.372 8.09868 238.182 10.3313 238.182Z" stroke="black" stroke-width="2" stroke-linecap="round" stroke-linejoin="round"/>
<path fill-rule="evenodd" clip-rule="evenodd" d="M29.4337 255.956L40.2377 260.293L50.9441 255.72L55.2826 244.916L50.7101 234.21L39.906 229.872L29.1968 234.446L24.8597 245.249L29.4337 255.956ZM40.2483 262.297C40.1267 262.297 40.0036 262.274 39.8898 262.228L28.3446 257.593C28.1077 257.498 27.9175 257.313 27.8192 257.077L22.9327 245.636C22.8316 245.401 22.8288 245.137 22.9249 244.899L27.5597 233.354C27.6545 233.117 27.8397 232.927 28.0752 232.827L39.5164 227.942C39.7519 227.841 40.0171 227.839 40.2547 227.934L51.7991 232.569C52.036 232.663 52.2255 232.849 52.3252 233.084L57.211 244.523C57.3121 244.759 57.315 245.023 57.2188 245.261L52.5841 256.807C52.49 257.044 52.3047 257.233 52.0685 257.332L40.6288 262.219C40.5057 262.272 40.3777 262.297 40.2483 262.297V262.297Z" fill="black" stroke="black" stroke-width="0.589302"/>
<path d="M44.4097 243.73C45.4458 243.158 46.094 242.149 45.9426 240.469C45.7387 238.174 43.9114 237.404 41.6047 237.184L41.6042 234H39.817L39.8165 237.101C39.3462 237.101 38.8669 237.111 38.3897 237.121L38.3893 234L36.6036 234L36.6033 237.184C36.2163 237.192 35.8363 237.201 35.4652 237.201V237.191L33 237.19L33.0003 239.26C33.0003 239.26 34.3202 239.233 34.2984 239.259C35.0221 239.26 35.2584 239.716 35.3263 240.109L35.3269 243.737V248.833C35.295 249.08 35.161 249.474 34.655 249.475C34.678 249.497 33.3548 249.475 33.3548 249.475L33.0003 251.789H35.3258C35.7591 251.79 36.1848 251.797 36.6025 251.801L36.6041 255.021L38.3893 255.022L38.3888 251.835C38.8799 251.846 39.354 251.851 39.8171 251.85L39.8166 255.022H41.6038L41.6048 251.807C44.6089 251.62 46.7121 250.799 46.9736 247.738C47.1844 245.274 46.1153 244.174 44.4097 243.73ZM38.4324 239.4C39.4404 239.4 42.6105 239.052 42.6109 241.336C42.6105 243.526 39.4414 243.27 38.4324 243.27V239.4V239.4ZM38.4316 249.491L38.4324 245.224C39.6435 245.223 43.442 244.846 43.4425 247.356C43.443 249.764 39.6435 249.49 38.4316 249.491Z" fill="black"/>
<path d="M20.5781 271.242H17.4961L16.9102 273H15.041L18.2168 264.469H19.8457L23.0391 273H21.1699L20.5781 271.242ZM17.9707 269.818H20.1035L19.0312 266.625L17.9707 269.818ZM25.5117 273H23.8125V264H25.5117V273ZM28.6992 273H27V266.66H28.6992V273ZM26.9004 265.02C26.9004 264.766 26.9844 264.557 27.1523 264.393C27.3242 264.229 27.5566 264.146 27.8496 264.146C28.1387 264.146 28.3691 264.229 28.541 264.393C28.7129 264.557 28.7988 264.766 28.7988 265.02C28.7988 265.277 28.7109 265.488 28.5352 265.652C28.3633 265.816 28.1348 265.898 27.8496 265.898C27.5645 265.898 27.334 265.816 27.1582 265.652C26.9863 265.488 26.9004 265.277 26.9004 265.02ZM32.7363 271.752C33.0488 271.752 33.3027 271.666 33.498 271.494C33.6934 271.322 33.7949 271.094 33.8027 270.809H35.3906C35.3867 271.238 35.2695 271.633 35.0391 271.992C34.8086 272.348 34.4922 272.625 34.0898 272.824C33.6914 273.02 33.25 273.117 32.7656 273.117C31.8594 273.117 31.1445 272.83 30.6211 272.256C30.0977 271.678 29.8359 270.881 29.8359 269.865V269.754C29.8359 268.777 30.0957 267.998 30.6152 267.416C31.1348 266.834 31.8477 266.543 32.7539 266.543C33.5469 266.543 34.1816 266.77 34.6582 267.223C35.1387 267.672 35.3828 268.271 35.3906 269.021H33.8027C33.7949 268.693 33.6934 268.428 33.498 268.225C33.3027 268.018 33.0449 267.914 32.7246 267.914C32.3301 267.914 32.0312 268.059 31.8281 268.348C31.6289 268.633 31.5293 269.098 31.5293 269.742V269.918C31.5293 270.57 31.6289 271.039 31.8281 271.324C32.0273 271.609 32.3301 271.752 32.7363 271.752ZM39.2754 273.117C38.3457 273.117 37.5879 272.832 37.002 272.262C36.4199 271.691 36.1289 270.932 36.1289 269.982V269.818C36.1289 269.182 36.252 268.613 36.498 268.113C36.7441 267.609 37.0918 267.223 37.541 266.953C37.9941 266.68 38.5098 266.543 39.0879 266.543C39.9551 266.543 40.6367 266.816 41.1328 267.363C41.6328 267.91 41.8828 268.686 41.8828 269.689V270.381H37.8457C37.9004 270.795 38.0645 271.127 38.3379 271.377C38.6152 271.627 38.9648 271.752 39.3867 271.752C40.0391 271.752 40.5488 271.516 40.916 271.043L41.748 271.975C41.4941 272.334 41.1504 272.615 40.7168 272.818C40.2832 273.018 39.8027 273.117 39.2754 273.117ZM39.082 267.914C38.7461 267.914 38.4727 268.027 38.2617 268.254C38.0547 268.48 37.9219 268.805 37.8633 269.227H40.2188V269.092C40.2109 268.717 40.1094 268.428 39.9141 268.225C39.7188 268.018 39.4414 267.914 39.082 267.914Z" fill="black"/>
<path d="M264.459 79.1582C264.393 80.0762 264.053 80.7988 263.439 81.3262C262.83 81.8535 262.025 82.1172 261.025 82.1172C259.932 82.1172 259.07 81.75 258.441 81.0156C257.816 80.2773 257.504 79.2656 257.504 77.9805V77.459C257.504 76.6387 257.648 75.916 257.938 75.291C258.227 74.666 258.639 74.1875 259.174 73.8555C259.713 73.5195 260.338 73.3516 261.049 73.3516C262.033 73.3516 262.826 73.6152 263.428 74.1426C264.029 74.6699 264.377 75.4102 264.471 76.3633H262.713C262.67 75.8125 262.516 75.4141 262.25 75.168C261.988 74.918 261.588 74.793 261.049 74.793C260.463 74.793 260.023 75.0039 259.73 75.4258C259.441 75.8438 259.293 76.4941 259.285 77.377V78.0215C259.285 78.9434 259.424 79.6172 259.701 80.043C259.982 80.4688 260.424 80.6816 261.025 80.6816C261.568 80.6816 261.973 80.5586 262.238 80.3125C262.508 80.0625 262.662 79.6777 262.701 79.1582H264.459ZM267.154 76.3516C267.604 75.8125 268.168 75.543 268.848 75.543C270.223 75.543 270.92 76.3418 270.939 77.9395V82H269.246V77.9863C269.246 77.623 269.168 77.3555 269.012 77.1836C268.855 77.0078 268.596 76.9199 268.232 76.9199C267.736 76.9199 267.377 77.1113 267.154 77.4941V82H265.461V73H267.154V76.3516ZM275.135 82.1172C274.205 82.1172 273.447 81.832 272.861 81.2617C272.279 80.6914 271.988 79.9316 271.988 78.9824V78.8184C271.988 78.1816 272.111 77.6133 272.357 77.1133C272.604 76.6094 272.951 76.2227 273.4 75.9531C273.854 75.6797 274.369 75.543 274.947 75.543C275.814 75.543 276.496 75.8164 276.992 76.3633C277.492 76.9102 277.742 77.6855 277.742 78.6895V79.3809H273.705C273.76 79.7949 273.924 80.127 274.197 80.377C274.475 80.627 274.824 80.752 275.246 80.752C275.898 80.752 276.408 80.5156 276.775 80.043L277.607 80.9746C277.354 81.334 277.01 81.6152 276.576 81.8184C276.143 82.0176 275.662 82.1172 275.135 82.1172ZM274.941 76.9141C274.605 76.9141 274.332 77.0273 274.121 77.2539C273.914 77.4805 273.781 77.8047 273.723 78.2266H276.078V78.0918C276.07 77.7168 275.969 77.4277 275.773 77.2246C275.578 77.0176 275.301 76.9141 274.941 76.9141ZM281.346 80.752C281.658 80.752 281.912 80.666 282.107 80.4941C282.303 80.3223 282.404 80.0938 282.412 79.8086H284C283.996 80.2383 283.879 80.6328 283.648 80.9922C283.418 81.3477 283.102 81.625 282.699 81.8242C282.301 82.0195 281.859 82.1172 281.375 82.1172C280.469 82.1172 279.754 81.8301 279.23 81.2559C278.707 80.6777 278.445 79.8809 278.445 78.8652V78.7539C278.445 77.7773 278.705 76.998 279.225 76.416C279.744 75.834 280.457 75.543 281.363 75.543C282.156 75.543 282.791 75.7695 283.268 76.2227C283.748 76.6719 283.992 77.2715 284 78.0215H282.412C282.404 77.6934 282.303 77.4277 282.107 77.2246C281.912 77.0176 281.654 76.9141 281.334 76.9141C280.939 76.9141 280.641 77.0586 280.438 77.3477C280.238 77.6328 280.139 78.0977 280.139 78.7422V78.918C280.139 79.5703 280.238 80.0391 280.438 80.3242C280.637 80.6094 280.939 80.752 281.346 80.752ZM287.27 79.457L286.66 80.0664V82H284.967V73H286.66V77.9863L286.988 77.5645L288.611 75.6602H290.645L288.354 78.3027L290.844 82H288.898L287.27 79.457ZM300.072 78.8887C300.072 79.8652 299.85 80.6484 299.404 81.2383C298.963 81.8242 298.365 82.1172 297.611 82.1172C296.971 82.1172 296.453 81.8945 296.059 81.4492V84.4375H294.365V75.6602H295.936L295.994 76.2812C296.404 75.7891 296.939 75.543 297.6 75.543C298.381 75.543 298.988 75.832 299.422 76.4102C299.855 76.9883 300.072 77.7852 300.072 78.8008V78.8887ZM298.379 78.7656C298.379 78.1758 298.273 77.7207 298.062 77.4004C297.855 77.0801 297.553 76.9199 297.154 76.9199C296.623 76.9199 296.258 77.123 296.059 77.5293V80.125C296.266 80.543 296.635 80.752 297.166 80.752C297.975 80.752 298.379 80.0898 298.379 78.7656ZM304.924 81.3555C304.506 81.8633 303.928 82.1172 303.189 82.1172C302.51 82.1172 301.99 81.9219 301.631 81.5312C301.275 81.1406 301.094 80.5684 301.086 79.8145V75.6602H302.779V79.7559C302.779 80.416 303.08 80.7461 303.682 80.7461C304.256 80.7461 304.65 80.5469 304.865 80.1484V75.6602H306.564V82H304.971L304.924 81.3555ZM313.555 78.8887C313.555 79.9043 313.338 80.6973 312.904 81.2676C312.471 81.834 311.865 82.1172 311.088 82.1172C310.4 82.1172 309.852 81.8535 309.441 81.3262L309.365 82H307.842V73H309.535V76.2285C309.926 75.7715 310.439 75.543 311.076 75.543C311.85 75.543 312.455 75.8281 312.893 76.3984C313.334 76.9648 313.555 77.7637 313.555 78.7949V78.8887ZM311.861 78.7656C311.861 78.125 311.76 77.6582 311.557 77.3652C311.354 77.0684 311.051 76.9199 310.648 76.9199C310.109 76.9199 309.738 77.1406 309.535 77.582V80.084C309.742 80.5293 310.117 80.752 310.66 80.752C311.207 80.752 311.566 80.4824 311.738 79.9434C311.82 79.6855 311.861 79.293 311.861 78.7656ZM316.391 82H314.691V73H316.391V82ZM319.578 82H317.879V75.6602H319.578V82ZM317.779 74.0195C317.779 73.7656 317.863 73.5566 318.031 73.3926C318.203 73.2285 318.436 73.1465 318.729 73.1465C319.018 73.1465 319.248 73.2285 319.42 73.3926C319.592 73.5566 319.678 73.7656 319.678 74.0195C319.678 74.2773 319.59 74.4883 319.414 74.6523C319.242 74.8164 319.014 74.8984 318.729 74.8984C318.443 74.8984 318.213 74.8164 318.037 74.6523C317.865 74.4883 317.779 74.2773 317.779 74.0195ZM323.615 80.752C323.928 80.752 324.182 80.666 324.377 80.4941C324.572 80.3223 324.674 80.0938 324.682 79.8086H326.27C326.266 80.2383 326.148 80.6328 325.918 80.9922C325.688 81.3477 325.371 81.625 324.969 81.8242C324.57 82.0195 324.129 82.1172 323.645 82.1172C322.738 82.1172 322.023 81.8301 321.5 81.2559C320.977 80.6777 320.715 79.8809 320.715 78.8652V78.7539C320.715 77.7773 320.975 76.998 321.494 76.416C322.014 75.834 322.727 75.543 323.633 75.543C324.426 75.543 325.061 75.7695 325.537 76.2227C326.018 76.6719 326.262 77.2715 326.27 78.0215H324.682C324.674 77.6934 324.572 77.4277 324.377 77.2246C324.182 77.0176 323.924 76.9141 323.604 76.9141C323.209 76.9141 322.91 77.0586 322.707 77.3477C322.508 77.6328 322.408 78.0977 322.408 78.7422V78.918C322.408 79.5703 322.508 80.0391 322.707 80.3242C322.906 80.6094 323.209 80.752 323.615 80.752ZM332.527 79.457L331.918 80.0664V82H330.225V73H331.918V77.9863L332.246 77.5645L333.869 75.6602H335.902L333.611 78.3027L336.102 82H334.156L332.527 79.457ZM339.436 82.1172C338.506 82.1172 337.748 81.832 337.162 81.2617C336.58 80.6914 336.289 79.9316 336.289 78.9824V78.8184C336.289 78.1816 336.412 77.6133 336.658 77.1133C336.904 76.6094 337.252 76.2227 337.701 75.9531C338.154 75.6797 338.67 75.543 339.248 75.543C340.115 75.543 340.797 75.8164 341.293 76.3633C341.793 76.9102 342.043 77.6855 342.043 78.6895V79.3809H338.006C338.061 79.7949 338.225 80.127 338.498 80.377C338.775 80.627 339.125 80.752 339.547 80.752C340.199 80.752 340.709 80.5156 341.076 80.043L341.908 80.9746C341.654 81.334 341.311 81.6152 340.877 81.8184C340.443 82.0176 339.963 82.1172 339.436 82.1172ZM339.242 76.9141C338.906 76.9141 338.633 77.0273 338.422 77.2539C338.215 77.4805 338.082 77.8047 338.023 78.2266H340.379V78.0918C340.371 77.7168 340.27 77.4277 340.074 77.2246C339.879 77.0176 339.602 76.9141 339.242 76.9141ZM345.295 79.6035L346.467 75.6602H348.283L345.734 82.9844L345.594 83.3184C345.215 84.1465 344.59 84.5605 343.719 84.5605C343.473 84.5605 343.223 84.5234 342.969 84.4492V83.166L343.227 83.1719C343.547 83.1719 343.785 83.123 343.941 83.0254C344.102 82.9277 344.227 82.7656 344.316 82.5391L344.516 82.0176L342.295 75.6602H344.117L345.295 79.6035Z" fill="black"/>
<path d="M209.814 174.41L211.414 171.469H213.436L210.951 175.699L213.5 180H211.455L209.814 177.012L208.174 180H206.129L208.678 175.699L206.193 171.469H208.215L209.814 174.41Z" fill="black"/>
<path d="M100.814 39.4102L102.414 36.4688H104.436L101.951 40.6992L104.5 45H102.455L100.814 42.0117L99.1738 45H97.1289L99.6777 40.6992L97.1934 36.4688H99.2148L100.814 39.4102Z" fill="black"/>
<path d="M82.5195 109.994V113H80.7617V104.469H84.0898C84.7305 104.469 85.293 104.586 85.7773 104.82C86.2656 105.055 86.6406 105.389 86.9023 105.822C87.1641 106.252 87.2949 106.742 87.2949 107.293C87.2949 108.129 87.0078 108.789 86.4336 109.273C85.8633 109.754 85.0723 109.994 84.0605 109.994H82.5195ZM82.5195 108.57H84.0898C84.5547 108.57 84.9082 108.461 85.1504 108.242C85.3965 108.023 85.5195 107.711 85.5195 107.305C85.5195 106.887 85.3965 106.549 85.1504 106.291C84.9043 106.033 84.5645 105.9 84.1309 105.893H82.5195V108.57ZM94.1738 113H88.3262V111.84L91.0859 108.898C91.4648 108.484 91.7441 108.123 91.9238 107.814C92.1074 107.506 92.1992 107.213 92.1992 106.936C92.1992 106.557 92.1035 106.26 91.9121 106.045C91.7207 105.826 91.4473 105.717 91.0918 105.717C90.709 105.717 90.4062 105.85 90.1836 106.115C89.9648 106.377 89.8555 106.723 89.8555 107.152H88.1562C88.1562 106.633 88.2793 106.158 88.5254 105.729C88.7754 105.299 89.127 104.963 89.5801 104.721C90.0332 104.475 90.5469 104.352 91.1211 104.352C92 104.352 92.6816 104.562 93.166 104.984C93.6543 105.406 93.8984 106.002 93.8984 106.771C93.8984 107.193 93.7891 107.623 93.5703 108.061C93.3516 108.498 92.9766 109.008 92.4453 109.59L90.5059 111.635H94.1738V113ZM102.043 110.539L103.191 104.469H104.943L103.051 113H101.281L99.8926 107.293L98.5039 113H96.7344L94.8418 104.469H96.5938L97.748 110.527L99.1543 104.469H100.643L102.043 110.539ZM110.322 110.762C110.322 110.43 110.205 110.176 109.971 110C109.736 109.82 109.314 109.633 108.705 109.438C108.096 109.238 107.613 109.043 107.258 108.852C106.289 108.328 105.805 107.623 105.805 106.736C105.805 106.275 105.934 105.865 106.191 105.506C106.453 105.143 106.826 104.859 107.311 104.656C107.799 104.453 108.346 104.352 108.951 104.352C109.561 104.352 110.104 104.463 110.58 104.686C111.057 104.904 111.426 105.215 111.688 105.617C111.953 106.02 112.086 106.477 112.086 106.988H110.328C110.328 106.598 110.205 106.295 109.959 106.08C109.713 105.861 109.367 105.752 108.922 105.752C108.492 105.752 108.158 105.844 107.92 106.027C107.682 106.207 107.562 106.445 107.562 106.742C107.562 107.02 107.701 107.252 107.979 107.439C108.26 107.627 108.672 107.803 109.215 107.967C110.215 108.268 110.943 108.641 111.4 109.086C111.857 109.531 112.086 110.086 112.086 110.75C112.086 111.488 111.807 112.068 111.248 112.49C110.689 112.908 109.938 113.117 108.992 113.117C108.336 113.117 107.738 112.998 107.199 112.76C106.66 112.518 106.248 112.188 105.963 111.77C105.682 111.352 105.541 110.867 105.541 110.316H107.305C107.305 111.258 107.867 111.729 108.992 111.729C109.41 111.729 109.736 111.645 109.971 111.477C110.205 111.305 110.322 111.066 110.322 110.762ZM120.225 113H118.467V109.344H115.039V113H113.281V104.469H115.039V107.926H118.467V104.469H120.225V113Z" fill="black"/>
<path d="M82.3574 138.889C82.3574 139.865 82.1348 140.648 81.6895 141.238C81.248 141.824 80.6504 142.117 79.8965 142.117C79.2559 142.117 78.7383 141.895 78.3438 141.449V144.438H76.6504V135.66H78.2207L78.2793 136.281C78.6895 135.789 79.2246 135.543 79.8848 135.543C80.666 135.543 81.2734 135.832 81.707 136.41C82.1406 136.988 82.3574 137.785 82.3574 138.801V138.889ZM80.6641 138.766C80.6641 138.176 80.5586 137.721 80.3477 137.4C80.1406 137.08 79.8379 136.92 79.4395 136.92C78.9082 136.92 78.543 137.123 78.3438 137.529V140.125C78.5508 140.543 78.9199 140.752 79.4512 140.752C80.2598 140.752 80.6641 140.09 80.6641 138.766ZM85.7148 139.457L85.1055 140.066V142H83.4121V133H85.1055V137.986L85.4336 137.564L87.0566 135.66H89.0898L86.7988 138.303L89.2891 142H87.3438L85.7148 139.457ZM89.8984 138.531C89.8984 137.637 90.0176 136.785 90.2559 135.977C90.4941 135.168 90.8457 134.453 91.3105 133.832C91.7754 133.207 92.2793 132.773 92.8223 132.531L93.1504 133.445C92.5801 133.867 92.1348 134.52 91.8145 135.402C91.4941 136.285 91.334 137.316 91.334 138.496V138.678C91.334 139.861 91.4922 140.896 91.8086 141.783C92.125 142.67 92.5723 143.332 93.1504 143.77L92.8223 144.666C92.291 144.428 91.7949 144.006 91.334 143.4C90.877 142.799 90.5273 142.104 90.2852 141.314C90.043 140.525 89.9141 139.701 89.8984 138.842V138.531ZM98.9688 140.242H95.8867L95.3008 142H93.4316L96.6074 133.469H98.2363L101.43 142H99.5605L98.9688 140.242ZM96.3613 138.818H98.4941L97.4219 135.625L96.3613 138.818ZM103.902 142H102.203V133H103.902V142ZM107.09 142H105.391V135.66H107.09V142ZM105.291 134.02C105.291 133.766 105.375 133.557 105.543 133.393C105.715 133.229 105.947 133.146 106.24 133.146C106.529 133.146 106.76 133.229 106.932 133.393C107.104 133.557 107.189 133.766 107.189 134.02C107.189 134.277 107.102 134.488 106.926 134.652C106.754 134.816 106.525 134.898 106.24 134.898C105.955 134.898 105.725 134.816 105.549 134.652C105.377 134.488 105.291 134.277 105.291 134.02ZM111.127 140.752C111.439 140.752 111.693 140.666 111.889 140.494C112.084 140.322 112.186 140.094 112.193 139.809H113.781C113.777 140.238 113.66 140.633 113.43 140.992C113.199 141.348 112.883 141.625 112.48 141.824C112.082 142.02 111.641 142.117 111.156 142.117C110.25 142.117 109.535 141.83 109.012 141.256C108.488 140.678 108.227 139.881 108.227 138.865V138.754C108.227 137.777 108.486 136.998 109.006 136.416C109.525 135.834 110.238 135.543 111.145 135.543C111.938 135.543 112.572 135.77 113.049 136.223C113.529 136.672 113.773 137.271 113.781 138.021H112.193C112.186 137.693 112.084 137.428 111.889 137.225C111.693 137.018 111.436 136.914 111.115 136.914C110.721 136.914 110.422 137.059 110.219 137.348C110.02 137.633 109.92 138.098 109.92 138.742V138.918C109.92 139.57 110.02 140.039 110.219 140.324C110.418 140.609 110.721 140.752 111.127 140.752ZM117.666 142.117C116.736 142.117 115.979 141.832 115.393 141.262C114.811 140.691 114.52 139.932 114.52 138.982V138.818C114.52 138.182 114.643 137.613 114.889 137.113C115.135 136.609 115.482 136.223 115.932 135.953C116.385 135.68 116.9 135.543 117.479 135.543C118.346 135.543 119.027 135.816 119.523 136.363C120.023 136.91 120.273 137.686 120.273 138.689V139.381H116.236C116.291 139.795 116.455 140.127 116.729 140.377C117.006 140.627 117.355 140.752 117.777 140.752C118.43 140.752 118.939 140.516 119.307 140.043L120.139 140.975C119.885 141.334 119.541 141.615 119.107 141.818C118.674 142.018 118.193 142.117 117.666 142.117ZM117.473 136.914C117.137 136.914 116.863 137.027 116.652 137.254C116.445 137.48 116.312 137.805 116.254 138.227H118.609V138.092C118.602 137.717 118.5 137.428 118.305 137.225C118.109 137.018 117.832 136.914 117.473 136.914ZM124.158 138.666C124.158 139.549 124.031 140.398 123.777 141.215C123.523 142.031 123.158 142.752 122.682 143.377C122.205 144.002 121.695 144.432 121.152 144.666L120.824 143.77C121.379 143.352 121.816 142.707 122.137 141.836C122.457 140.965 122.623 139.963 122.635 138.83V138.52C122.635 137.352 122.475 136.322 122.154 135.432C121.838 134.541 121.395 133.873 120.824 133.428L121.152 132.531C121.684 132.762 122.184 133.18 122.652 133.785C123.125 134.391 123.49 135.096 123.748 135.9C124.01 136.705 124.146 137.539 124.158 138.402V138.666Z" fill="black"/>
<path d="M82.3574 26.8887C82.3574 27.8652 82.1348 28.6484 81.6895 29.2383C81.248 29.8242 80.6504 30.1172 79.8965 30.1172C79.2559 30.1172 78.7383 29.8945 78.3438 29.4492V32.4375H76.6504V23.6602H78.2207L78.2793 24.2812C78.6895 23.7891 79.2246 23.543 79.8848 23.543C80.666 23.543 81.2734 23.832 81.707 24.4102C82.1406 24.9883 82.3574 25.7852 82.3574 26.8008V26.8887ZM80.6641 26.7656C80.6641 26.1758 80.5586 25.7207 80.3477 25.4004C80.1406 25.0801 79.8379 24.9199 79.4395 24.9199C78.9082 24.9199 78.543 25.123 78.3438 25.5293V28.125C78.5508 28.543 78.9199 28.752 79.4512 28.752C80.2598 28.752 80.6641 28.0898 80.6641 26.7656ZM85.7148 27.457L85.1055 28.0664V30H83.4121V21H85.1055V25.9863L85.4336 25.5645L87.0566 23.6602H89.0898L86.7988 26.3027L89.2891 30H87.3438L85.7148 27.457ZM89.8984 26.5312C89.8984 25.6367 90.0176 24.7852 90.2559 23.9766C90.4941 23.168 90.8457 22.4531 91.3105 21.832C91.7754 21.207 92.2793 20.7734 92.8223 20.5312L93.1504 21.4453C92.5801 21.8672 92.1348 22.5195 91.8145 23.4023C91.4941 24.2852 91.334 25.3164 91.334 26.4961V26.6777C91.334 27.8613 91.4922 28.8965 91.8086 29.7832C92.125 30.6699 92.5723 31.332 93.1504 31.7695L92.8223 32.666C92.291 32.4277 91.7949 32.0059 91.334 31.4004C90.877 30.7988 90.5273 30.1035 90.2852 29.3145C90.043 28.5254 89.9141 27.7012 89.8984 26.8418V26.5312ZM98.9688 28.2422H95.8867L95.3008 30H93.4316L96.6074 21.4688H98.2363L101.43 30H99.5605L98.9688 28.2422ZM96.3613 26.8184H98.4941L97.4219 23.625L96.3613 26.8184ZM103.902 30H102.203V21H103.902V30ZM107.09 30H105.391V23.6602H107.09V30ZM105.291 22.0195C105.291 21.7656 105.375 21.5566 105.543 21.3926C105.715 21.2285 105.947 21.1465 106.24 21.1465C106.529 21.1465 106.76 21.2285 106.932 21.3926C107.104 21.5566 107.189 21.7656 107.189 22.0195C107.189 22.2773 107.102 22.4883 106.926 22.6523C106.754 22.8164 106.525 22.8984 106.24 22.8984C105.955 22.8984 105.725 22.8164 105.549 22.6523C105.377 22.4883 105.291 22.2773 105.291 22.0195ZM111.127 28.752C111.439 28.752 111.693 28.666 111.889 28.4941C112.084 28.3223 112.186 28.0938 112.193 27.8086H113.781C113.777 28.2383 113.66 28.6328 113.43 28.9922C113.199 29.3477 112.883 29.625 112.48 29.8242C112.082 30.0195 111.641 30.1172 111.156 30.1172C110.25 30.1172 109.535 29.8301 109.012 29.2559C108.488 28.6777 108.227 27.8809 108.227 26.8652V26.7539C108.227 25.7773 108.486 24.998 109.006 24.416C109.525 23.834 110.238 23.543 111.145 23.543C111.938 23.543 112.572 23.7695 113.049 24.2227C113.529 24.6719 113.773 25.2715 113.781 26.0215H112.193C112.186 25.6934 112.084 25.4277 111.889 25.2246C111.693 25.0176 111.436 24.9141 111.115 24.9141C110.721 24.9141 110.422 25.0586 110.219 25.3477C110.02 25.6328 109.92 26.0977 109.92 26.7422V26.918C109.92 27.5703 110.02 28.0391 110.219 28.3242C110.418 28.6094 110.721 28.752 111.127 28.752ZM117.666 30.1172C116.736 30.1172 115.979 29.832 115.393 29.2617C114.811 28.6914 114.52 27.9316 114.52 26.9824V26.8184C114.52 26.1816 114.643 25.6133 114.889 25.1133C115.135 24.6094 115.482 24.2227 115.932 23.9531C116.385 23.6797 116.9 23.543 117.479 23.543C118.346 23.543 119.027 23.8164 119.523 24.3633C120.023 24.9102 120.273 25.6855 120.273 26.6895V27.3809H116.236C116.291 27.7949 116.455 28.127 116.729 28.377C117.006 28.627 117.355 28.752 117.777 28.752C118.43 28.752 118.939 28.5156 119.307 28.043L120.139 28.9746C119.885 29.334 119.541 29.6152 119.107 29.8184C118.674 30.0176 118.193 30.1172 117.666 30.1172ZM117.473 24.9141C117.137 24.9141 116.863 25.0273 116.652 25.2539C116.445 25.4805 116.312 25.8047 116.254 26.2266H118.609V26.0918C118.602 25.7168 118.5 25.4277 118.305 25.2246C118.109 25.0176 117.832 24.9141 117.473 24.9141ZM124.158 26.666C124.158 27.5488 124.031 28.3984 123.777 29.2148C123.523 30.0312 123.158 30.752 122.682 31.377C122.205 32.002 121.695 32.4316 121.152 32.666L120.824 31.7695C121.379 31.3516 121.816 30.707 122.137 29.8359C122.457 28.9648 122.623 27.9629 122.635 26.8301V26.5195C122.635 25.3516 122.475 24.3223 122.154 23.4316C121.838 22.541 121.395 21.873 120.824 21.4277L121.152 20.5312C121.684 20.7617 122.184 21.1797 122.652 21.7852C123.125 22.3906 123.49 23.0957 123.748 23.9004C124.01 24.7051 124.146 25.5391 124.158 26.4023V26.666Z" fill="black"/>
<path d="M178.77 229.928C178.77 230.768 178.621 231.504 178.324 232.137C178.027 232.77 177.602 233.258 177.047 233.602C176.496 233.945 175.863 234.117 175.148 234.117C174.441 234.117 173.811 233.947 173.256 233.607C172.701 233.268 172.271 232.783 171.967 232.154C171.662 231.521 171.508 230.795 171.504 229.975V229.553C171.504 228.713 171.654 227.975 171.955 227.338C172.26 226.697 172.688 226.207 173.238 225.867C173.793 225.523 174.426 225.352 175.137 225.352C175.848 225.352 176.479 225.523 177.029 225.867C177.584 226.207 178.012 226.697 178.312 227.338C178.617 227.975 178.77 228.711 178.77 229.547V229.928ZM176.988 229.541C176.988 228.646 176.828 227.967 176.508 227.502C176.188 227.037 175.73 226.805 175.137 226.805C174.547 226.805 174.092 227.035 173.771 227.496C173.451 227.953 173.289 228.625 173.285 229.512V229.928C173.285 230.799 173.445 231.475 173.766 231.955C174.086 232.436 174.547 232.676 175.148 232.676C175.738 232.676 176.191 232.445 176.508 231.984C176.824 231.52 176.984 230.844 176.988 229.957V229.541ZM183.498 229.248C183.268 229.217 183.064 229.201 182.889 229.201C182.248 229.201 181.828 229.418 181.629 229.852V234H179.936V227.66H181.535L181.582 228.416C181.922 227.834 182.393 227.543 182.994 227.543C183.182 227.543 183.357 227.568 183.521 227.619L183.498 229.248ZM183.938 230.783C183.938 229.795 184.158 229.008 184.6 228.422C185.045 227.836 185.652 227.543 186.422 227.543C187.039 227.543 187.549 227.773 187.951 228.234V225H189.65V234H188.121L188.039 233.326C187.617 233.854 187.074 234.117 186.41 234.117C185.664 234.117 185.064 233.824 184.611 233.238C184.162 232.648 183.938 231.83 183.938 230.783ZM185.631 230.906C185.631 231.5 185.734 231.955 185.941 232.271C186.148 232.588 186.449 232.746 186.844 232.746C187.367 232.746 187.736 232.525 187.951 232.084V229.582C187.74 229.141 187.375 228.92 186.855 228.92C186.039 228.92 185.631 229.582 185.631 230.906ZM193.881 234.117C192.951 234.117 192.193 233.832 191.607 233.262C191.025 232.691 190.734 231.932 190.734 230.982V230.818C190.734 230.182 190.857 229.613 191.104 229.113C191.35 228.609 191.697 228.223 192.146 227.953C192.6 227.68 193.115 227.543 193.693 227.543C194.561 227.543 195.242 227.816 195.738 228.363C196.238 228.91 196.488 229.686 196.488 230.689V231.381H192.451C192.506 231.795 192.67 232.127 192.943 232.377C193.221 232.627 193.57 232.752 193.992 232.752C194.645 232.752 195.154 232.516 195.521 232.043L196.354 232.975C196.1 233.334 195.756 233.615 195.322 233.818C194.889 234.018 194.408 234.117 193.881 234.117ZM193.688 228.914C193.352 228.914 193.078 229.027 192.867 229.254C192.66 229.48 192.527 229.805 192.469 230.227H194.824V230.092C194.816 229.717 194.715 229.428 194.52 229.225C194.324 229.018 194.047 228.914 193.688 228.914ZM201.018 229.248C200.787 229.217 200.584 229.201 200.408 229.201C199.768 229.201 199.348 229.418 199.148 229.852V234H197.455V227.66H199.055L199.102 228.416C199.441 227.834 199.912 227.543 200.514 227.543C200.701 227.543 200.877 227.568 201.041 227.619L201.018 229.248ZM208.389 229.248C208.158 229.217 207.955 229.201 207.779 229.201C207.139 229.201 206.719 229.418 206.52 229.852V234H204.826V227.66H206.426L206.473 228.416C206.812 227.834 207.283 227.543 207.885 227.543C208.072 227.543 208.248 227.568 208.412 227.619L208.389 229.248ZM212.01 234.117C211.08 234.117 210.322 233.832 209.736 233.262C209.154 232.691 208.863 231.932 208.863 230.982V230.818C208.863 230.182 208.986 229.613 209.232 229.113C209.479 228.609 209.826 228.223 210.275 227.953C210.729 227.68 211.244 227.543 211.822 227.543C212.689 227.543 213.371 227.816 213.867 228.363C214.367 228.91 214.617 229.686 214.617 230.689V231.381H210.58C210.635 231.795 210.799 232.127 211.072 232.377C211.35 232.627 211.699 232.752 212.121 232.752C212.773 232.752 213.283 232.516 213.65 232.043L214.482 232.975C214.229 233.334 213.885 233.615 213.451 233.818C213.018 234.018 212.537 234.117 212.01 234.117ZM211.816 228.914C211.48 228.914 211.207 229.027 210.996 229.254C210.789 229.48 210.656 229.805 210.598 230.227H212.953V230.092C212.945 229.717 212.844 229.428 212.648 229.225C212.453 229.018 212.176 228.914 211.816 228.914ZM215.32 230.771C215.32 229.775 215.541 228.988 215.982 228.41C216.428 227.832 217.037 227.543 217.811 227.543C218.49 227.543 219.031 227.803 219.434 228.322L219.545 227.66H221.033V236.438H219.334V233.455C218.943 233.896 218.432 234.117 217.799 234.117C217.045 234.117 216.443 233.824 215.994 233.238C215.545 232.652 215.32 231.83 215.32 230.771ZM217.014 230.895C217.014 231.5 217.119 231.961 217.33 232.277C217.545 232.594 217.846 232.752 218.232 232.752C218.752 232.752 219.119 232.545 219.334 232.131V229.512C219.123 229.113 218.76 228.914 218.244 228.914C217.854 228.914 217.551 229.072 217.336 229.389C217.121 229.705 217.014 230.207 217.014 230.895ZM226.166 233.355C225.748 233.863 225.17 234.117 224.432 234.117C223.752 234.117 223.232 233.922 222.873 233.531C222.518 233.141 222.336 232.568 222.328 231.814V227.66H224.021V231.756C224.021 232.416 224.322 232.746 224.924 232.746C225.498 232.746 225.893 232.547 226.107 232.148V227.66H227.807V234H226.213L226.166 233.355ZM232.002 234.117C231.072 234.117 230.314 233.832 229.729 233.262C229.146 232.691 228.855 231.932 228.855 230.982V230.818C228.855 230.182 228.979 229.613 229.225 229.113C229.471 228.609 229.818 228.223 230.268 227.953C230.721 227.68 231.236 227.543 231.814 227.543C232.682 227.543 233.363 227.816 233.859 228.363C234.359 228.91 234.609 229.686 234.609 230.689V231.381H230.572C230.627 231.795 230.791 232.127 231.064 232.377C231.342 232.627 231.691 232.752 232.113 232.752C232.766 232.752 233.275 232.516 233.643 232.043L234.475 232.975C234.221 233.334 233.877 233.615 233.443 233.818C233.01 234.018 232.529 234.117 232.002 234.117ZM231.809 228.914C231.473 228.914 231.199 229.027 230.988 229.254C230.781 229.48 230.648 229.805 230.59 230.227H232.945V230.092C232.938 229.717 232.836 229.428 232.641 229.225C232.445 229.018 232.168 228.914 231.809 228.914ZM239.01 232.248C239.01 232.041 238.906 231.879 238.699 231.762C238.496 231.641 238.168 231.533 237.715 231.439C236.207 231.123 235.453 230.482 235.453 229.518C235.453 228.955 235.686 228.486 236.15 228.111C236.619 227.732 237.23 227.543 237.984 227.543C238.789 227.543 239.432 227.732 239.912 228.111C240.396 228.49 240.639 228.982 240.639 229.588H238.945C238.945 229.346 238.867 229.146 238.711 228.99C238.555 228.83 238.311 228.75 237.979 228.75C237.693 228.75 237.473 228.814 237.316 228.943C237.16 229.072 237.082 229.236 237.082 229.436C237.082 229.623 237.17 229.775 237.346 229.893C237.525 230.006 237.826 230.105 238.248 230.191C238.67 230.273 239.025 230.367 239.314 230.473C240.209 230.801 240.656 231.369 240.656 232.178C240.656 232.756 240.408 233.225 239.912 233.584C239.416 233.939 238.775 234.117 237.99 234.117C237.459 234.117 236.986 234.023 236.572 233.836C236.162 233.645 235.84 233.385 235.605 233.057C235.371 232.725 235.254 232.367 235.254 231.984H236.859C236.875 232.285 236.986 232.516 237.193 232.676C237.4 232.836 237.678 232.916 238.025 232.916C238.35 232.916 238.594 232.855 238.758 232.734C238.926 232.609 239.01 232.447 239.01 232.248ZM243.779 226.102V227.66H244.863V228.902H243.779V232.066C243.779 232.301 243.824 232.469 243.914 232.57C244.004 232.672 244.176 232.723 244.43 232.723C244.617 232.723 244.783 232.709 244.928 232.682V233.965C244.596 234.066 244.254 234.117 243.902 234.117C242.715 234.117 242.109 233.518 242.086 232.318V228.902H241.16V227.66H242.086V226.102H243.779Z" fill="black"/>
<path d="M366.631 273H364.873V264.469H366.631V273ZM369.713 266.66L369.766 267.393C370.219 266.826 370.826 266.543 371.588 266.543C372.26 266.543 372.76 266.74 373.088 267.135C373.416 267.529 373.584 268.119 373.592 268.904V273H371.898V268.945C371.898 268.586 371.82 268.326 371.664 268.166C371.508 268.002 371.248 267.92 370.885 267.92C370.408 267.92 370.051 268.123 369.812 268.529V273H368.119V266.66H369.713ZM374.617 269.783C374.617 268.795 374.838 268.008 375.279 267.422C375.725 266.836 376.332 266.543 377.102 266.543C377.719 266.543 378.229 266.773 378.631 267.234V264H380.33V273H378.801L378.719 272.326C378.297 272.854 377.754 273.117 377.09 273.117C376.344 273.117 375.744 272.824 375.291 272.238C374.842 271.648 374.617 270.83 374.617 269.783ZM376.311 269.906C376.311 270.5 376.414 270.955 376.621 271.271C376.828 271.588 377.129 271.746 377.523 271.746C378.047 271.746 378.416 271.525 378.631 271.084V268.582C378.42 268.141 378.055 267.92 377.535 267.92C376.719 267.92 376.311 268.582 376.311 269.906ZM384.561 273.117C383.631 273.117 382.873 272.832 382.287 272.262C381.705 271.691 381.414 270.932 381.414 269.982V269.818C381.414 269.182 381.537 268.613 381.783 268.113C382.029 267.609 382.377 267.223 382.826 266.953C383.279 266.68 383.795 266.543 384.373 266.543C385.24 266.543 385.922 266.816 386.418 267.363C386.918 267.91 387.168 268.686 387.168 269.689V270.381H383.131C383.186 270.795 383.35 271.127 383.623 271.377C383.9 271.627 384.25 271.752 384.672 271.752C385.324 271.752 385.834 271.516 386.201 271.043L387.033 271.975C386.779 272.334 386.436 272.615 386.002 272.818C385.568 273.018 385.088 273.117 384.561 273.117ZM384.367 267.914C384.031 267.914 383.758 268.027 383.547 268.254C383.34 268.48 383.207 268.805 383.148 269.227H385.504V269.092C385.496 268.717 385.395 268.428 385.199 268.225C385.004 268.018 384.727 267.914 384.367 267.914ZM390.549 268.553L391.615 266.66H393.426L391.621 269.766L393.502 273H391.686L390.555 271.008L389.43 273H387.607L389.488 269.766L387.689 266.66H389.506L390.549 268.553ZM397.041 273.117C396.111 273.117 395.354 272.832 394.768 272.262C394.186 271.691 393.895 270.932 393.895 269.982V269.818C393.895 269.182 394.018 268.613 394.264 268.113C394.51 267.609 394.857 267.223 395.307 266.953C395.76 266.68 396.275 266.543 396.854 266.543C397.721 266.543 398.402 266.816 398.898 267.363C399.398 267.91 399.648 268.686 399.648 269.689V270.381H395.611C395.666 270.795 395.83 271.127 396.104 271.377C396.381 271.627 396.73 271.752 397.152 271.752C397.805 271.752 398.314 271.516 398.682 271.043L399.514 271.975C399.26 272.334 398.916 272.615 398.482 272.818C398.049 273.018 397.568 273.117 397.041 273.117ZM396.848 267.914C396.512 267.914 396.238 268.027 396.027 268.254C395.82 268.48 395.688 268.805 395.629 269.227H397.984V269.092C397.977 268.717 397.875 268.428 397.68 268.225C397.484 268.018 397.207 267.914 396.848 267.914ZM404.178 268.248C403.947 268.217 403.744 268.201 403.568 268.201C402.928 268.201 402.508 268.418 402.309 268.852V273H400.615V266.66H402.215L402.262 267.416C402.602 266.834 403.072 266.543 403.674 266.543C403.861 266.543 404.037 266.568 404.201 266.619L404.178 268.248Z" fill="black"/>
<path d="M405.307 219H362C360.895 219 360 219.895 360 221V229.829C360 230.934 360.895 231.829 362 231.829H405.307C406.411 231.829 407.307 230.934 407.307 229.829V221C407.307 219.895 406.411 219 405.307 219Z" stroke="black" stroke-width="2" stroke-linecap="round" stroke-linejoin="round"/>
<path d="M405.307 231.829H362C360.895 231.829 360 232.724 360 233.829V242.658C360 243.762 360.895 244.658 362 244.658H405.307C406.411 244.658 407.307 243.762 407.307 242.658V233.829C407.307 232.724 406.411 231.829 405.307 231.829Z" stroke="black" stroke-width="2" stroke-linecap="round" stroke-linejoin="round"/>
<path d="M405.307 244.658H362C360.895 244.658 360 245.553 360 246.658V255.487C360 256.591 360.895 257.487 362 257.487H405.307C406.411 257.487 407.307 256.591 407.307 255.487V246.658C407.307 245.553 406.411 244.658 405.307 244.658Z" stroke="black" stroke-width="2" stroke-linecap="round" stroke-linejoin="round"/>
<path d="M367.425 224.015H364.592V226.814H367.425V224.015Z" fill="black" stroke="black" stroke-width="0.49296" stroke-linecap="round" stroke-linejoin="round"/>
<path d="M367.425 236.844H364.592V239.643H367.425V236.844Z" fill="black" stroke="black" stroke-width="0.49296" stroke-linecap="round" stroke-linejoin="round"/>
<path d="M367.425 249.672H364.592V252.472H367.425V249.672Z" fill="black" stroke="black" stroke-width="0.49296" stroke-linecap="round" stroke-linejoin="round"/>
<path d="M374.78 224.015H371.947V226.814H374.78V224.015Z" fill="black" stroke="black" stroke-width="0.49296" stroke-linecap="round" stroke-linejoin="round"/>
<path d="M374.78 236.844H371.947V239.643H374.78V236.844Z" fill="black" stroke="black" stroke-width="0.49296" stroke-linecap="round" stroke-linejoin="round"/>
<path d="M374.78 249.672H371.947V252.472H374.78V249.672Z" fill="black" stroke="black" stroke-width="0.49296" stroke-linecap="round" stroke-linejoin="round"/>
<path d="M221.893 184H197.934C196.313 184 195 185.204 195 186.689V201.235C195 202.72 196.313 203.924 197.934 203.924H221.893C223.513 203.924 224.827 202.72 224.827 201.235V186.689C224.827 185.204 223.513 184 221.893 184Z" fill="white" stroke="black" stroke-width="2" stroke-linecap="round" stroke-linejoin="round"/>
<path d="M196.109 184.581L209.83 196.923" stroke="black" stroke-width="2" stroke-linecap="round"/>
<path d="M223.674 184.549L209.83 196.923" stroke="black" stroke-width="2" stroke-linecap="round"/>
<path d="M195.782 203.067L206.143 193.708" stroke="black" stroke-width="2"/>
<path d="M223.811 203.273L213.351 193.708" stroke="black" stroke-width="2"/>
<path d="M112.893 48H88.9335C87.3134 48 86 49.2041 86 50.6894V65.2348C86 66.7201 87.3134 67.9242 88.9335 67.9242H112.893C114.513 67.9242 115.827 66.7201 115.827 65.2348V50.6894C115.827 49.2041 114.513 48 112.893 48Z" fill="white" stroke="black" stroke-width="2" stroke-linecap="round" stroke-linejoin="round"/>
<path d="M87.1086 48.5806L100.83 60.9227" stroke="black" stroke-width="2" stroke-linecap="round"/>
<path d="M114.674 48.549L100.83 60.9227" stroke="black" stroke-width="2" stroke-linecap="round"/>
<path d="M86.782 67.0666L97.1434 57.708" stroke="black" stroke-width="2"/>
<path d="M114.811 67.2728L104.351 57.708" stroke="black" stroke-width="2"/>
<path d="M78 99.5H123C125.485 99.5 127.5 101.515 127.5 104V159C127.5 161.485 125.485 163.5 123 163.5H78C75.5147 163.5 73.5 161.485 73.5 159V104C73.5 101.515 75.5147 99.5 78 99.5Z" stroke="black"/>
<path d="M78 13.5H123C125.485 13.5 127.5 15.5147 127.5 18V73C127.5 75.4853 125.485 77.5 123 77.5H78C75.5147 77.5 73.5 75.4853 73.5 73V18C73.5 15.5147 75.5147 13.5 78 13.5Z" stroke="black"/>
<path d="M355.7 240.714C356.094 240.328 356.101 239.695 355.714 239.3L349.416 232.871C349.03 232.477 348.396 232.47 348.002 232.857C347.607 233.243 347.601 233.876 347.987 234.271L353.586 239.985L347.871 245.584C347.477 245.97 347.47 246.604 347.857 246.998C348.243 247.393 348.876 247.399 349.271 247.013L355.7 240.714ZM62.9897 238L354.99 241L355.01 239L63.0103 236L62.9897 238Z" fill="black"/>
<line x1="28.5" y1="214" x2="28.5" y2="131" stroke="black"/>
<path d="M73.3536 130.854C73.5488 130.658 73.5488 130.342 73.3536 130.146L70.1716 126.964C69.9763 126.769 69.6597 126.769 69.4645 126.964C69.2692 127.16 69.2692 127.476 69.4645 127.672L72.2929 130.5L69.4645 133.328C69.2692 133.524 69.2692 133.84 69.4645 134.036C69.6597 134.231 69.9763 134.231 70.1716 134.036L73.3536 130.854ZM29 131H73V130H29V131Z" fill="black"/>
<line x1="383.5" y1="214" x2="383.5" y2="195" stroke="black"/>
<line x1="384" y1="194.5" x2="224" y2="194.5" stroke="black"/>
<line x1="195" y1="195.5" x2="51" y2="195.5" stroke="black"/>
<path d="M50.6464 209.354C50.8417 209.549 51.1583 209.549 51.3536 209.354L54.5355 206.172C54.7308 205.976 54.7308 205.66 54.5355 205.464C54.3403 205.269 54.0237 205.269 53.8284 205.464L51 208.293L48.1716 205.464C47.9763 205.269 47.6597 205.269 47.4645 205.464C47.2692 205.66 47.2692 205.976 47.4645 206.172L50.6464 209.354ZM50.5 195V209H51.5V195H50.5Z" fill="black"/>
<line x1="28.5" y1="131" x2="28.5" y2="45" stroke="black"/>
<path d="M73.3536 45.3536C73.5488 45.1583 73.5488 44.8417 73.3536 44.6464L70.1716 41.4645C69.9763 41.2692 69.6597 41.2692 69.4645 41.4645C69.2692 41.6597 69.2692 41.9763 69.4645 42.1716L72.2929 45L69.4645 47.8284C69.2692 48.0237 69.2692 48.3403 69.4645 48.5355C69.6597 48.7308 69.9763 48.7308 70.1716 48.5355L73.3536 45.3536ZM29 45.5H73V44.5H29V45.5Z" fill="black"/>
<line x1="115" y1="0.5" x2="148" y2="0.5" stroke="black"/>
<line x1="115" y1="175.5" x2="148" y2="175.5" stroke="black"/>
<line x1="148.5" y1="1" x2="148.5" y2="176" stroke="black"/>
<line x1="148" y1="87.5" x2="400" y2="87.5" stroke="black"/>
<path d="M399.646 214.354C399.842 214.549 400.158 214.549 400.354 214.354L403.536 211.172C403.731 210.976 403.731 210.66 403.536 210.464C403.34 210.269 403.024 210.269 402.828 210.464L400 213.293L397.172 210.464C396.976 210.269 396.66 210.269 396.464 210.464C396.269 210.66 396.269 210.976 396.464 211.172L399.646 214.354ZM399.5 88V214H400.5V88H399.5Z" fill="black"/>
</svg>
