<svg width="455" height="226" viewBox="0 0 455 226" fill="none" xmlns="http://www.w3.org/2000/svg">
<path d="M57.3935 18.848V5.9997C57.3935 3.2297 55.1638 1 52.3938 1H5.99969C3.2297 1 1 3.2297 1 5.9997V36.8919C1 39.6619 3.2297 41.8921 5.99969 41.8921H18.3002" stroke="black" stroke-width="2" stroke-linecap="round" stroke-linejoin="round"/>
<path d="M19.6624 18.7769V18.0002C19.6624 15.2302 17.4322 13 14.6622 13H1V29.8202H12.7926" stroke="black" stroke-width="2" stroke-linecap="round" stroke-linejoin="round"/>
<path d="M10.3313 25.1816C12.5639 25.1816 14.3737 23.3717 14.3737 21.1391C14.3737 18.9065 12.5639 17.0967 10.3313 17.0967C8.09868 17.0967 6.28882 18.9065 6.28882 21.1391C6.28882 23.3717 8.09868 25.1816 10.3313 25.1816Z" stroke="black" stroke-width="2" stroke-linecap="round" stroke-linejoin="round"/>
<path fill-rule="evenodd" clip-rule="evenodd" d="M29.4337 42.9559L40.2377 47.2929L50.9441 42.7204L55.2826 31.9163L50.7101 21.2099L39.906 16.8722L29.1968 21.4461L24.8597 32.2494L29.4337 42.9559ZM40.2483 49.297C40.1267 49.297 40.0036 49.2736 39.8898 49.2277L28.3446 44.5929C28.1077 44.4982 27.9175 44.3129 27.8192 44.0774L22.9327 32.6362C22.8316 32.4007 22.8288 32.137 22.9249 31.8987L27.5597 20.3535C27.6545 20.1166 27.8397 19.9271 28.0752 19.8274L39.5164 14.9416C39.7519 14.8405 40.0171 14.8391 40.2547 14.9338L51.7991 19.5686C52.036 19.6633 52.2255 19.8486 52.3252 20.0841L57.211 31.5232C57.3121 31.7594 57.315 32.0231 57.2188 32.2614L52.5841 43.8066C52.49 44.0435 52.3047 44.233 52.0685 44.332L40.6288 49.2185C40.5057 49.2722 40.3777 49.297 40.2483 49.297Z" fill="black" stroke="black" stroke-width="0.589302"/>
<path d="M44.4097 30.7302C45.4458 30.1576 46.094 29.1492 45.9426 27.4693C45.7387 25.1735 43.9114 24.4037 41.6047 24.1844L41.6042 21H39.817L39.8165 24.1007C39.3462 24.1007 38.8669 24.1107 38.3897 24.1211L38.3893 21.0004L36.6036 21.0002L36.6033 24.1839C36.2163 24.1925 35.8363 24.2006 35.4652 24.2006V24.1912L33 24.1901L33.0003 26.26C33.0003 26.26 34.3202 26.2331 34.2984 26.2592C35.0221 26.2598 35.2584 26.7156 35.3263 27.1091L35.3269 30.7369V35.8327C35.295 36.0796 35.161 36.4742 34.655 36.4749C34.678 36.4969 33.3548 36.4747 33.3548 36.4747L33.0003 38.7893H35.3258C35.7591 38.7899 36.1848 38.7972 36.6025 38.8008L36.6041 42.0213L38.3893 42.0218L38.3888 38.8351C38.8799 38.846 39.354 38.8507 39.8171 38.85L39.8166 42.0218H41.6038L41.6048 38.8067C44.6089 38.6195 46.7121 37.7986 46.9736 34.7381C47.1844 32.2741 46.1153 31.1742 44.4097 30.7302ZM38.4324 26.3997C39.4404 26.3997 42.6105 26.0515 42.6109 28.3357C42.6105 30.5256 39.4414 30.2698 38.4324 30.2698V26.3997ZM38.4316 36.4906L38.4324 32.2235C39.6435 32.2232 43.442 31.8455 43.4425 34.3561C43.443 36.7638 39.6435 36.4897 38.4316 36.4906Z" fill="black"/>
<path d="M20.5781 58.2422H17.4961L16.9102 60H15.041L18.2168 51.4688H19.8457L23.0391 60H21.1699L20.5781 58.2422ZM17.9707 56.8184H20.1035L19.0312 53.625L17.9707 56.8184ZM25.5117 60H23.8125V51H25.5117V60ZM28.6992 60H27V53.6602H28.6992V60ZM26.9004 52.0195C26.9004 51.7656 26.9844 51.5566 27.1523 51.3926C27.3242 51.2285 27.5566 51.1465 27.8496 51.1465C28.1387 51.1465 28.3691 51.2285 28.541 51.3926C28.7129 51.5566 28.7988 51.7656 28.7988 52.0195C28.7988 52.2773 28.7109 52.4883 28.5352 52.6523C28.3633 52.8164 28.1348 52.8984 27.8496 52.8984C27.5645 52.8984 27.334 52.8164 27.1582 52.6523C26.9863 52.4883 26.9004 52.2773 26.9004 52.0195ZM32.7363 58.752C33.0488 58.752 33.3027 58.666 33.498 58.4941C33.6934 58.3223 33.7949 58.0938 33.8027 57.8086H35.3906C35.3867 58.2383 35.2695 58.6328 35.0391 58.9922C34.8086 59.3477 34.4922 59.625 34.0898 59.8242C33.6914 60.0195 33.25 60.1172 32.7656 60.1172C31.8594 60.1172 31.1445 59.8301 30.6211 59.2559C30.0977 58.6777 29.8359 57.8809 29.8359 56.8652V56.7539C29.8359 55.7773 30.0957 54.998 30.6152 54.416C31.1348 53.834 31.8477 53.543 32.7539 53.543C33.5469 53.543 34.1816 53.7695 34.6582 54.2227C35.1387 54.6719 35.3828 55.2715 35.3906 56.0215H33.8027C33.7949 55.6934 33.6934 55.4277 33.498 55.2246C33.3027 55.0176 33.0449 54.9141 32.7246 54.9141C32.3301 54.9141 32.0312 55.0586 31.8281 55.3477C31.6289 55.6328 31.5293 56.0977 31.5293 56.7422V56.918C31.5293 57.5703 31.6289 58.0391 31.8281 58.3242C32.0273 58.6094 32.3301 58.752 32.7363 58.752ZM39.2754 60.1172C38.3457 60.1172 37.5879 59.832 37.002 59.2617C36.4199 58.6914 36.1289 57.9316 36.1289 56.9824V56.8184C36.1289 56.1816 36.252 55.6133 36.498 55.1133C36.7441 54.6094 37.0918 54.2227 37.541 53.9531C37.9941 53.6797 38.5098 53.543 39.0879 53.543C39.9551 53.543 40.6367 53.8164 41.1328 54.3633C41.6328 54.9102 41.8828 55.6855 41.8828 56.6895V57.3809H37.8457C37.9004 57.7949 38.0645 58.127 38.3379 58.377C38.6152 58.627 38.9648 58.752 39.3867 58.752C40.0391 58.752 40.5488 58.5156 40.916 58.043L41.748 58.9746C41.4941 59.334 41.1504 59.6152 40.7168 59.8184C40.2832 60.0176 39.8027 60.1172 39.2754 60.1172ZM39.082 54.9141C38.7461 54.9141 38.4727 55.0273 38.2617 55.2539C38.0547 55.4805 37.9219 55.8047 37.8633 56.2266H40.2188V56.0918C40.2109 55.7168 40.1094 55.4277 39.9141 55.2246C39.7188 55.0176 39.4414 54.9141 39.082 54.9141Z" fill="black"/>
<path d="M412.631 60H410.873V51.4688H412.631V60ZM415.713 53.6602L415.766 54.3926C416.219 53.8262 416.826 53.543 417.588 53.543C418.26 53.543 418.76 53.7402 419.088 54.1348C419.416 54.5293 419.584 55.1191 419.592 55.9043V60H417.898V55.9453C417.898 55.5859 417.82 55.3262 417.664 55.166C417.508 55.002 417.248 54.9199 416.885 54.9199C416.408 54.9199 416.051 55.123 415.812 55.5293V60H414.119V53.6602H415.713ZM420.617 56.7832C420.617 55.7949 420.838 55.0078 421.279 54.4219C421.725 53.8359 422.332 53.543 423.102 53.543C423.719 53.543 424.229 53.7734 424.631 54.2344V51H426.33V60H424.801L424.719 59.3262C424.297 59.8535 423.754 60.1172 423.09 60.1172C422.344 60.1172 421.744 59.8242 421.291 59.2383C420.842 58.6484 420.617 57.8301 420.617 56.7832ZM422.311 56.9062C422.311 57.5 422.414 57.9551 422.621 58.2715C422.828 58.5879 423.129 58.7461 423.523 58.7461C424.047 58.7461 424.416 58.5254 424.631 58.084V55.582C424.42 55.1406 424.055 54.9199 423.535 54.9199C422.719 54.9199 422.311 55.582 422.311 56.9062ZM430.561 60.1172C429.631 60.1172 428.873 59.832 428.287 59.2617C427.705 58.6914 427.414 57.9316 427.414 56.9824V56.8184C427.414 56.1816 427.537 55.6133 427.783 55.1133C428.029 54.6094 428.377 54.2227 428.826 53.9531C429.279 53.6797 429.795 53.543 430.373 53.543C431.24 53.543 431.922 53.8164 432.418 54.3633C432.918 54.9102 433.168 55.6855 433.168 56.6895V57.3809H429.131C429.186 57.7949 429.35 58.127 429.623 58.377C429.9 58.627 430.25 58.752 430.672 58.752C431.324 58.752 431.834 58.5156 432.201 58.043L433.033 58.9746C432.779 59.334 432.436 59.6152 432.002 59.8184C431.568 60.0176 431.088 60.1172 430.561 60.1172ZM430.367 54.9141C430.031 54.9141 429.758 55.0273 429.547 55.2539C429.34 55.4805 429.207 55.8047 429.148 56.2266H431.504V56.0918C431.496 55.7168 431.395 55.4277 431.199 55.2246C431.004 55.0176 430.727 54.9141 430.367 54.9141ZM436.549 55.5527L437.615 53.6602H439.426L437.621 56.7656L439.502 60H437.686L436.555 58.0078L435.43 60H433.607L435.488 56.7656L433.689 53.6602H435.506L436.549 55.5527ZM443.041 60.1172C442.111 60.1172 441.354 59.832 440.768 59.2617C440.186 58.6914 439.895 57.9316 439.895 56.9824V56.8184C439.895 56.1816 440.018 55.6133 440.264 55.1133C440.51 54.6094 440.857 54.2227 441.307 53.9531C441.76 53.6797 442.275 53.543 442.854 53.543C443.721 53.543 444.402 53.8164 444.898 54.3633C445.398 54.9102 445.648 55.6855 445.648 56.6895V57.3809H441.611C441.666 57.7949 441.83 58.127 442.104 58.377C442.381 58.627 442.73 58.752 443.152 58.752C443.805 58.752 444.314 58.5156 444.682 58.043L445.514 58.9746C445.26 59.334 444.916 59.6152 444.482 59.8184C444.049 60.0176 443.568 60.1172 443.041 60.1172ZM442.848 54.9141C442.512 54.9141 442.238 55.0273 442.027 55.2539C441.82 55.4805 441.688 55.8047 441.629 56.2266H443.984V56.0918C443.977 55.7168 443.875 55.4277 443.68 55.2246C443.484 55.0176 443.207 54.9141 442.848 54.9141ZM450.178 55.248C449.947 55.2168 449.744 55.2012 449.568 55.2012C448.928 55.2012 448.508 55.418 448.309 55.8516V60H446.615V53.6602H448.215L448.262 54.416C448.602 53.834 449.072 53.543 449.674 53.543C449.861 53.543 450.037 53.5684 450.201 53.6191L450.178 55.248Z" fill="black"/>
<path d="M451.307 6H408C406.895 6 406 6.89543 406 8V16.8289C406 17.9335 406.895 18.8289 408 18.8289H451.307C452.411 18.8289 453.307 17.9335 453.307 16.8289V8C453.307 6.89543 452.411 6 451.307 6Z" stroke="black" stroke-width="2" stroke-linecap="round" stroke-linejoin="round"/>
<path d="M451.307 18.8289H408C406.895 18.8289 406 19.7244 406 20.8289V29.6579C406 30.7624 406.895 31.6579 408 31.6579H451.307C452.411 31.6579 453.307 30.7624 453.307 29.6579V20.8289C453.307 19.7244 452.411 18.8289 451.307 18.8289Z" stroke="black" stroke-width="2" stroke-linecap="round" stroke-linejoin="round"/>
<path d="M451.307 31.6579H408C406.895 31.6579 406 32.5533 406 33.6579V42.4868C406 43.5914 406.895 44.4868 408 44.4868H451.307C452.411 44.4868 453.307 43.5914 453.307 42.4868V33.6579C453.307 32.5533 452.411 31.6579 451.307 31.6579Z" stroke="black" stroke-width="2" stroke-linecap="round" stroke-linejoin="round"/>
<path d="M413.425 11.0146H410.592V13.8143H413.425V11.0146Z" fill="black" stroke="black" stroke-width="0.49296" stroke-linecap="round" stroke-linejoin="round"/>
<path d="M413.425 23.8435H410.592V26.6433H413.425V23.8435Z" fill="black" stroke="black" stroke-width="0.49296" stroke-linecap="round" stroke-linejoin="round"/>
<path d="M413.425 36.6725H410.592V39.4722H413.425V36.6725Z" fill="black" stroke="black" stroke-width="0.49296" stroke-linecap="round" stroke-linejoin="round"/>
<path d="M420.78 11.0146H417.947V13.8143H420.78V11.0146Z" fill="black" stroke="black" stroke-width="0.49296" stroke-linecap="round" stroke-linejoin="round"/>
<path d="M420.78 23.8435H417.947V26.6433H420.78V23.8435Z" fill="black" stroke="black" stroke-width="0.49296" stroke-linecap="round" stroke-linejoin="round"/>
<path d="M420.78 36.6725H417.947V39.4722H420.78V36.6725Z" fill="black" stroke="black" stroke-width="0.49296" stroke-linecap="round" stroke-linejoin="round"/>
<path d="M399.707 37.7071C400.098 37.3166 400.098 36.6834 399.707 36.2929L393.343 29.9289C392.953 29.5384 392.319 29.5384 391.929 29.9289C391.538 30.3195 391.538 30.9526 391.929 31.3431L397.586 37L391.929 42.6569C391.538 43.0474 391.538 43.6805 391.929 44.0711C392.319 44.4616 392.953 44.4616 393.343 44.0711L399.707 37.7071ZM65 38H399V36H65V38Z" fill="black"/>
<path d="M64.2929 16.2929C63.9024 16.6834 63.9024 17.3166 64.2929 17.7071L70.6569 24.0711C71.0474 24.4616 71.6805 24.4616 72.0711 24.0711C72.4616 23.6805 72.4616 23.0474 72.0711 22.6569L66.4142 17L72.0711 11.3431C72.4616 10.9526 72.4616 10.3195 72.0711 9.92893C71.6805 9.53841 71.0474 9.53841 70.6569 9.92893L64.2929 16.2929ZM65 18H399V16H65V18Z" fill="black"/>
<path d="M191.699 11H189.941L186.52 5.38672V11H184.762V2.46875H186.52L189.947 8.09375V2.46875H191.699V11ZM196.92 10.3555C196.502 10.8633 195.924 11.1172 195.186 11.1172C194.506 11.1172 193.986 10.9219 193.627 10.5312C193.271 10.1406 193.09 9.56836 193.082 8.81445V4.66016H194.775V8.75586C194.775 9.41602 195.076 9.74609 195.678 9.74609C196.252 9.74609 196.646 9.54688 196.861 9.14844V4.66016H198.561V11H196.967L196.92 10.3555ZM201.426 4.66016L201.479 5.36914C201.928 4.81836 202.535 4.54297 203.301 4.54297C204.117 4.54297 204.678 4.86523 204.982 5.50977C205.428 4.86523 206.062 4.54297 206.887 4.54297C207.574 4.54297 208.086 4.74414 208.422 5.14648C208.758 5.54492 208.926 6.14648 208.926 6.95117V11H207.227V6.95703C207.227 6.59766 207.156 6.33594 207.016 6.17188C206.875 6.00391 206.627 5.91992 206.271 5.91992C205.764 5.91992 205.412 6.16211 205.217 6.64648L205.223 11H203.529V6.96289C203.529 6.5957 203.457 6.33008 203.312 6.16602C203.168 6.00195 202.922 5.91992 202.574 5.91992C202.094 5.91992 201.746 6.11914 201.531 6.51758V11H199.838V4.66016H201.426ZM215.945 7.88867C215.945 8.9043 215.729 9.69727 215.295 10.2676C214.861 10.834 214.256 11.1172 213.479 11.1172C212.791 11.1172 212.242 10.8535 211.832 10.3262L211.756 11H210.232V2H211.926V5.22852C212.316 4.77148 212.83 4.54297 213.467 4.54297C214.24 4.54297 214.846 4.82812 215.283 5.39844C215.725 5.96484 215.945 6.76367 215.945 7.79492V7.88867ZM214.252 7.76562C214.252 7.125 214.15 6.6582 213.947 6.36523C213.744 6.06836 213.441 5.91992 213.039 5.91992C212.5 5.91992 212.129 6.14062 211.926 6.58203V9.08398C212.133 9.5293 212.508 9.75195 213.051 9.75195C213.598 9.75195 213.957 9.48242 214.129 8.94336C214.211 8.68555 214.252 8.29297 214.252 7.76562ZM219.912 11.1172C218.982 11.1172 218.225 10.832 217.639 10.2617C217.057 9.69141 216.766 8.93164 216.766 7.98242V7.81836C216.766 7.18164 216.889 6.61328 217.135 6.11328C217.381 5.60938 217.729 5.22266 218.178 4.95312C218.631 4.67969 219.146 4.54297 219.725 4.54297C220.592 4.54297 221.273 4.81641 221.77 5.36328C222.27 5.91016 222.52 6.68555 222.52 7.68945V8.38086H218.482C218.537 8.79492 218.701 9.12695 218.975 9.37695C219.252 9.62695 219.602 9.75195 220.023 9.75195C220.676 9.75195 221.186 9.51562 221.553 9.04297L222.385 9.97461C222.131 10.334 221.787 10.6152 221.354 10.8184C220.92 11.0176 220.439 11.1172 219.912 11.1172ZM219.719 5.91406C219.383 5.91406 219.109 6.02734 218.898 6.25391C218.691 6.48047 218.559 6.80469 218.5 7.22656H220.855V7.0918C220.848 6.7168 220.746 6.42773 220.551 6.22461C220.355 6.01758 220.078 5.91406 219.719 5.91406ZM227.049 6.24805C226.818 6.2168 226.615 6.20117 226.439 6.20117C225.799 6.20117 225.379 6.41797 225.18 6.85156V11H223.486V4.66016H225.086L225.133 5.41602C225.473 4.83398 225.943 4.54297 226.545 4.54297C226.732 4.54297 226.908 4.56836 227.072 4.61914L227.049 6.24805ZM234.021 5.41016L235.621 2.46875H237.643L235.158 6.69922L237.707 11H235.662L234.021 8.01172L232.381 11H230.336L232.885 6.69922L230.4 2.46875H232.422L234.021 5.41016ZM243.502 3.10156V4.66016H244.586V5.90234H243.502V9.06641C243.502 9.30078 243.547 9.46875 243.637 9.57031C243.727 9.67188 243.898 9.72266 244.152 9.72266C244.34 9.72266 244.506 9.70898 244.65 9.68164V10.9648C244.318 11.0664 243.977 11.1172 243.625 11.1172C242.438 11.1172 241.832 10.5176 241.809 9.31836V5.90234H240.883V4.66016H241.809V3.10156H243.502ZM245.09 7.77148C245.09 7.14258 245.211 6.58203 245.453 6.08984C245.695 5.59766 246.043 5.2168 246.496 4.94727C246.953 4.67773 247.482 4.54297 248.084 4.54297C248.939 4.54297 249.637 4.80469 250.176 5.32812C250.719 5.85156 251.021 6.5625 251.084 7.46094L251.096 7.89453C251.096 8.86719 250.824 9.64844 250.281 10.2383C249.738 10.8242 249.01 11.1172 248.096 11.1172C247.182 11.1172 246.451 10.8242 245.904 10.2383C245.361 9.65234 245.09 8.85547 245.09 7.84766V7.77148ZM246.783 7.89453C246.783 8.49609 246.896 8.95703 247.123 9.27734C247.35 9.59375 247.674 9.75195 248.096 9.75195C248.506 9.75195 248.826 9.5957 249.057 9.2832C249.287 8.9668 249.402 8.46289 249.402 7.77148C249.402 7.18164 249.287 6.72461 249.057 6.40039C248.826 6.07617 248.502 5.91406 248.084 5.91406C247.67 5.91406 247.35 6.07617 247.123 6.40039C246.896 6.7207 246.783 7.21875 246.783 7.89453ZM258.561 9.24805C258.561 9.04102 258.457 8.87891 258.25 8.76172C258.047 8.64062 257.719 8.5332 257.266 8.43945C255.758 8.12305 255.004 7.48242 255.004 6.51758C255.004 5.95508 255.236 5.48633 255.701 5.11133C256.17 4.73242 256.781 4.54297 257.535 4.54297C258.34 4.54297 258.982 4.73242 259.463 5.11133C259.947 5.49023 260.189 5.98242 260.189 6.58789H258.496C258.496 6.3457 258.418 6.14648 258.262 5.99023C258.105 5.83008 257.861 5.75 257.529 5.75C257.244 5.75 257.023 5.81445 256.867 5.94336C256.711 6.07227 256.633 6.23633 256.633 6.43555C256.633 6.62305 256.721 6.77539 256.896 6.89258C257.076 7.00586 257.377 7.10547 257.799 7.19141C258.221 7.27344 258.576 7.36719 258.865 7.47266C259.76 7.80078 260.207 8.36914 260.207 9.17773C260.207 9.75586 259.959 10.2246 259.463 10.584C258.967 10.9395 258.326 11.1172 257.541 11.1172C257.01 11.1172 256.537 11.0234 256.123 10.8359C255.713 10.6445 255.391 10.3848 255.156 10.0566C254.922 9.72461 254.805 9.36719 254.805 8.98438H256.41C256.426 9.28516 256.537 9.51562 256.744 9.67578C256.951 9.83594 257.229 9.91602 257.576 9.91602C257.9 9.91602 258.145 9.85547 258.309 9.73438C258.477 9.60938 258.561 9.44727 258.561 9.24805ZM263.09 11H261.391V4.66016H263.09V11ZM261.291 3.01953C261.291 2.76563 261.375 2.55664 261.543 2.39258C261.715 2.22852 261.947 2.14648 262.24 2.14648C262.529 2.14648 262.76 2.22852 262.932 2.39258C263.104 2.55664 263.189 2.76563 263.189 3.01953C263.189 3.27734 263.102 3.48828 262.926 3.65234C262.754 3.81641 262.525 3.89844 262.24 3.89844C261.955 3.89844 261.725 3.81641 261.549 3.65234C261.377 3.48828 261.291 3.27734 261.291 3.01953ZM264.244 7.7832C264.244 6.81055 264.475 6.02734 264.936 5.43359C265.4 4.83984 266.025 4.54297 266.811 4.54297C267.506 4.54297 268.047 4.78125 268.434 5.25781L268.504 4.66016H270.039V10.7891C270.039 11.3438 269.912 11.8262 269.658 12.2363C269.408 12.6465 269.055 12.959 268.598 13.1738C268.141 13.3887 267.605 13.4961 266.992 13.4961C266.527 13.4961 266.074 13.4023 265.633 13.2148C265.191 13.0312 264.857 12.793 264.631 12.5L265.381 11.4688C265.803 11.9414 266.314 12.1777 266.916 12.1777C267.365 12.1777 267.715 12.0566 267.965 11.8145C268.215 11.5762 268.34 11.2363 268.34 10.7949V10.4551C267.949 10.8965 267.436 11.1172 266.799 11.1172C266.037 11.1172 265.42 10.8203 264.947 10.2266C264.479 9.62891 264.244 8.83789 264.244 7.85352V7.7832ZM265.938 7.90625C265.938 8.48047 266.053 8.93164 266.283 9.25977C266.514 9.58398 266.83 9.74609 267.232 9.74609C267.748 9.74609 268.117 9.55273 268.34 9.16602V6.5C268.113 6.11328 267.748 5.91992 267.244 5.91992C266.838 5.91992 266.518 6.08594 266.283 6.41797C266.053 6.75 265.938 7.24609 265.938 7.90625ZM272.904 4.66016L272.957 5.39258C273.41 4.82617 274.018 4.54297 274.779 4.54297C275.451 4.54297 275.951 4.74023 276.279 5.13477C276.607 5.5293 276.775 6.11914 276.783 6.9043V11H275.09V6.94531C275.09 6.58594 275.012 6.32617 274.855 6.16602C274.699 6.00195 274.439 5.91992 274.076 5.91992C273.6 5.91992 273.242 6.12305 273.004 6.5293V11H271.311V4.66016H272.904Z" fill="black"/>
<path d="M223.77 48.9277C223.77 49.7676 223.621 50.5039 223.324 51.1367C223.027 51.7695 222.602 52.2578 222.047 52.6016C221.496 52.9453 220.863 53.1172 220.148 53.1172C219.441 53.1172 218.811 52.9473 218.256 52.6074C217.701 52.2676 217.271 51.7832 216.967 51.1543C216.662 50.5215 216.508 49.7949 216.504 48.9746V48.5527C216.504 47.7129 216.654 46.9746 216.955 46.3379C217.26 45.6973 217.688 45.207 218.238 44.8672C218.793 44.5234 219.426 44.3516 220.137 44.3516C220.848 44.3516 221.479 44.5234 222.029 44.8672C222.584 45.207 223.012 45.6973 223.312 46.3379C223.617 46.9746 223.77 47.7109 223.77 48.5469V48.9277ZM221.988 48.541C221.988 47.6465 221.828 46.9668 221.508 46.502C221.188 46.0371 220.73 45.8047 220.137 45.8047C219.547 45.8047 219.092 46.0352 218.771 46.4961C218.451 46.9531 218.289 47.625 218.285 48.5117V48.9277C218.285 49.7988 218.445 50.4746 218.766 50.9551C219.086 51.4355 219.547 51.6758 220.148 51.6758C220.738 51.6758 221.191 51.4453 221.508 50.9844C221.824 50.5195 221.984 49.8438 221.988 48.957V48.541ZM228.498 48.248C228.268 48.2168 228.064 48.2012 227.889 48.2012C227.248 48.2012 226.828 48.418 226.629 48.8516V53H224.936V46.6602H226.535L226.582 47.416C226.922 46.834 227.393 46.543 227.994 46.543C228.182 46.543 228.357 46.5684 228.521 46.6191L228.498 48.248ZM228.938 49.7832C228.938 48.7949 229.158 48.0078 229.6 47.4219C230.045 46.8359 230.652 46.543 231.422 46.543C232.039 46.543 232.549 46.7734 232.951 47.2344V44H234.65V53H233.121L233.039 52.3262C232.617 52.8535 232.074 53.1172 231.41 53.1172C230.664 53.1172 230.064 52.8242 229.611 52.2383C229.162 51.6484 228.938 50.8301 228.938 49.7832ZM230.631 49.9062C230.631 50.5 230.734 50.9551 230.941 51.2715C231.148 51.5879 231.449 51.7461 231.844 51.7461C232.367 51.7461 232.736 51.5254 232.951 51.084V48.582C232.74 48.1406 232.375 47.9199 231.855 47.9199C231.039 47.9199 230.631 48.582 230.631 49.9062ZM238.881 53.1172C237.951 53.1172 237.193 52.832 236.607 52.2617C236.025 51.6914 235.734 50.9316 235.734 49.9824V49.8184C235.734 49.1816 235.857 48.6133 236.104 48.1133C236.35 47.6094 236.697 47.2227 237.146 46.9531C237.6 46.6797 238.115 46.543 238.693 46.543C239.561 46.543 240.242 46.8164 240.738 47.3633C241.238 47.9102 241.488 48.6855 241.488 49.6895V50.3809H237.451C237.506 50.7949 237.67 51.127 237.943 51.377C238.221 51.627 238.57 51.752 238.992 51.752C239.645 51.752 240.154 51.5156 240.521 51.043L241.354 51.9746C241.1 52.334 240.756 52.6152 240.322 52.8184C239.889 53.0176 239.408 53.1172 238.881 53.1172ZM238.688 47.9141C238.352 47.9141 238.078 48.0273 237.867 48.2539C237.66 48.4805 237.527 48.8047 237.469 49.2266H239.824V49.0918C239.816 48.7168 239.715 48.4277 239.52 48.2246C239.324 48.0176 239.047 47.9141 238.688 47.9141ZM246.018 48.248C245.787 48.2168 245.584 48.2012 245.408 48.2012C244.768 48.2012 244.348 48.418 244.148 48.8516V53H242.455V46.6602H244.055L244.102 47.416C244.441 46.834 244.912 46.543 245.514 46.543C245.701 46.543 245.877 46.5684 246.041 46.6191L246.018 48.248Z" fill="black"/>
<path d="M188.982 90.7617C188.982 90.4297 188.864 90.1758 188.63 90C188.396 89.8203 187.974 89.6328 187.364 89.4375C186.755 89.2383 186.273 89.043 185.917 88.8516C184.948 88.3281 184.464 87.623 184.464 86.7363C184.464 86.2754 184.593 85.8652 184.851 85.5059C185.113 85.1426 185.486 84.8594 185.97 84.6562C186.458 84.4531 187.005 84.3516 187.611 84.3516C188.22 84.3516 188.763 84.4629 189.239 84.6855C189.716 84.9043 190.085 85.2148 190.347 85.6172C190.613 86.0195 190.745 86.4766 190.745 86.9883H188.988C188.988 86.5977 188.864 86.2949 188.618 86.0801C188.372 85.8613 188.027 85.752 187.581 85.752C187.152 85.752 186.818 85.8438 186.579 86.0273C186.341 86.207 186.222 86.4453 186.222 86.7422C186.222 87.0195 186.361 87.252 186.638 87.4395C186.919 87.627 187.331 87.8027 187.874 87.9668C188.874 88.2676 189.603 88.6406 190.06 89.0859C190.517 89.5312 190.745 90.0859 190.745 90.75C190.745 91.4883 190.466 92.0684 189.907 92.4902C189.349 92.9082 188.597 93.1172 187.652 93.1172C186.995 93.1172 186.398 92.998 185.859 92.7598C185.32 92.5176 184.907 92.1875 184.622 91.7695C184.341 91.3516 184.2 90.8672 184.2 90.3164H185.964C185.964 91.2578 186.527 91.7285 187.652 91.7285C188.07 91.7285 188.396 91.6445 188.63 91.4766C188.864 91.3047 188.982 91.0664 188.982 90.7617ZM193.616 93H191.917V86.6602H193.616V93ZM191.818 85.0195C191.818 84.7656 191.902 84.5566 192.07 84.3926C192.241 84.2285 192.474 84.1465 192.767 84.1465C193.056 84.1465 193.286 84.2285 193.458 84.3926C193.63 84.5566 193.716 84.7656 193.716 85.0195C193.716 85.2773 193.628 85.4883 193.452 85.6523C193.28 85.8164 193.052 85.8984 192.767 85.8984C192.482 85.8984 192.251 85.8164 192.075 85.6523C191.904 85.4883 191.818 85.2773 191.818 85.0195ZM194.771 89.7832C194.771 88.8105 195.001 88.0273 195.462 87.4336C195.927 86.8398 196.552 86.543 197.337 86.543C198.032 86.543 198.573 86.7812 198.96 87.2578L199.03 86.6602H200.566V92.7891C200.566 93.3438 200.439 93.8262 200.185 94.2363C199.935 94.6465 199.581 94.959 199.124 95.1738C198.667 95.3887 198.132 95.4961 197.519 95.4961C197.054 95.4961 196.601 95.4023 196.159 95.2148C195.718 95.0312 195.384 94.793 195.157 94.5L195.907 93.4688C196.329 93.9414 196.841 94.1777 197.443 94.1777C197.892 94.1777 198.241 94.0566 198.491 93.8145C198.741 93.5762 198.866 93.2363 198.866 92.7949V92.4551C198.476 92.8965 197.962 93.1172 197.325 93.1172C196.564 93.1172 195.947 92.8203 195.474 92.2266C195.005 91.6289 194.771 90.8379 194.771 89.8535V89.7832ZM196.464 89.9062C196.464 90.4805 196.579 90.9316 196.81 91.2598C197.04 91.584 197.357 91.7461 197.759 91.7461C198.275 91.7461 198.644 91.5527 198.866 91.166V88.5C198.64 88.1133 198.275 87.9199 197.771 87.9199C197.364 87.9199 197.044 88.0859 196.81 88.418C196.579 88.75 196.464 89.2461 196.464 89.9062ZM203.431 86.6602L203.484 87.3926C203.937 86.8262 204.544 86.543 205.306 86.543C205.978 86.543 206.478 86.7402 206.806 87.1348C207.134 87.5293 207.302 88.1191 207.31 88.9043V93H205.616V88.9453C205.616 88.5859 205.538 88.3262 205.382 88.166C205.226 88.002 204.966 87.9199 204.603 87.9199C204.126 87.9199 203.769 88.123 203.53 88.5293V93H201.837V86.6602H203.431ZM211.517 93.1172C210.587 93.1172 209.829 92.832 209.243 92.2617C208.661 91.6914 208.37 90.9316 208.37 89.9824V89.8184C208.37 89.1816 208.493 88.6133 208.739 88.1133C208.986 87.6094 209.333 87.2227 209.782 86.9531C210.236 86.6797 210.751 86.543 211.329 86.543C212.197 86.543 212.878 86.8164 213.374 87.3633C213.874 87.9102 214.124 88.6855 214.124 89.6895V90.3809H210.087C210.142 90.7949 210.306 91.127 210.579 91.377C210.857 91.627 211.206 91.752 211.628 91.752C212.28 91.752 212.79 91.5156 213.157 91.043L213.989 91.9746C213.736 92.334 213.392 92.6152 212.958 92.8184C212.525 93.0176 212.044 93.1172 211.517 93.1172ZM211.323 87.9141C210.988 87.9141 210.714 88.0273 210.503 88.2539C210.296 88.4805 210.163 88.8047 210.105 89.2266H212.46V89.0918C212.452 88.7168 212.351 88.4277 212.155 88.2246C211.96 88.0176 211.683 87.9141 211.323 87.9141ZM214.827 89.7832C214.827 88.7949 215.048 88.0078 215.489 87.4219C215.935 86.8359 216.542 86.543 217.312 86.543C217.929 86.543 218.439 86.7734 218.841 87.2344V84H220.54V93H219.011L218.929 92.3262C218.507 92.8535 217.964 93.1172 217.3 93.1172C216.554 93.1172 215.954 92.8242 215.501 92.2383C215.052 91.6484 214.827 90.8301 214.827 89.7832ZM216.521 89.9062C216.521 90.5 216.624 90.9551 216.831 91.2715C217.038 91.5879 217.339 91.7461 217.734 91.7461C218.257 91.7461 218.626 91.5254 218.841 91.084V88.582C218.63 88.1406 218.265 87.9199 217.745 87.9199C216.929 87.9199 216.521 88.582 216.521 89.9062ZM228.005 87.4102L229.605 84.4688H231.626L229.142 88.6992L231.691 93H229.646L228.005 90.0117L226.364 93H224.32L226.868 88.6992L224.384 84.4688H226.405L228.005 87.4102Z" fill="black"/>
<path d="M186.671 120.994V124H184.913V115.469H188.241C188.882 115.469 189.444 115.586 189.929 115.82C190.417 116.055 190.792 116.389 191.054 116.822C191.316 117.252 191.446 117.742 191.446 118.293C191.446 119.129 191.159 119.789 190.585 120.273C190.015 120.754 189.224 120.994 188.212 120.994H186.671ZM186.671 119.57H188.241C188.706 119.57 189.06 119.461 189.302 119.242C189.548 119.023 189.671 118.711 189.671 118.305C189.671 117.887 189.548 117.549 189.302 117.291C189.056 117.033 188.716 116.9 188.282 116.893H186.671V119.57ZM196.345 123.355C195.927 123.863 195.349 124.117 194.611 124.117C193.931 124.117 193.411 123.922 193.052 123.531C192.696 123.141 192.515 122.568 192.507 121.814V117.66H194.2V121.756C194.2 122.416 194.501 122.746 195.103 122.746C195.677 122.746 196.071 122.547 196.286 122.148V117.66H197.986V124H196.392L196.345 123.355ZM204.976 120.889C204.976 121.904 204.759 122.697 204.325 123.268C203.892 123.834 203.286 124.117 202.509 124.117C201.821 124.117 201.273 123.854 200.862 123.326L200.786 124H199.263V115H200.956V118.229C201.347 117.771 201.861 117.543 202.497 117.543C203.271 117.543 203.876 117.828 204.314 118.398C204.755 118.965 204.976 119.764 204.976 120.795V120.889ZM203.282 120.766C203.282 120.125 203.181 119.658 202.978 119.365C202.775 119.068 202.472 118.92 202.069 118.92C201.53 118.92 201.159 119.141 200.956 119.582V122.084C201.163 122.529 201.538 122.752 202.081 122.752C202.628 122.752 202.987 122.482 203.159 121.943C203.241 121.686 203.282 121.293 203.282 120.766ZM207.812 124H206.112V115H207.812V124ZM210.999 124H209.3V117.66H210.999V124ZM209.2 116.02C209.2 115.766 209.284 115.557 209.452 115.393C209.624 115.229 209.857 115.146 210.15 115.146C210.439 115.146 210.669 115.229 210.841 115.393C211.013 115.557 211.099 115.766 211.099 116.02C211.099 116.277 211.011 116.488 210.835 116.652C210.663 116.816 210.435 116.898 210.15 116.898C209.864 116.898 209.634 116.816 209.458 116.652C209.286 116.488 209.2 116.277 209.2 116.02ZM215.036 122.752C215.349 122.752 215.603 122.666 215.798 122.494C215.993 122.322 216.095 122.094 216.103 121.809H217.691C217.687 122.238 217.569 122.633 217.339 122.992C217.109 123.348 216.792 123.625 216.39 123.824C215.991 124.02 215.55 124.117 215.066 124.117C214.159 124.117 213.444 123.83 212.921 123.256C212.398 122.678 212.136 121.881 212.136 120.865V120.754C212.136 119.777 212.396 118.998 212.915 118.416C213.435 117.834 214.148 117.543 215.054 117.543C215.847 117.543 216.482 117.77 216.958 118.223C217.439 118.672 217.683 119.271 217.691 120.021H216.103C216.095 119.693 215.993 119.428 215.798 119.225C215.603 119.018 215.345 118.914 215.025 118.914C214.63 118.914 214.331 119.059 214.128 119.348C213.929 119.633 213.829 120.098 213.829 120.742V120.918C213.829 121.57 213.929 122.039 214.128 122.324C214.327 122.609 214.63 122.752 215.036 122.752ZM223.948 121.457L223.339 122.066V124H221.646V115H223.339V119.986L223.667 119.564L225.29 117.66H227.323L225.032 120.303L227.523 124H225.577L223.948 121.457ZM230.857 124.117C229.927 124.117 229.169 123.832 228.583 123.262C228.001 122.691 227.71 121.932 227.71 120.982V120.818C227.71 120.182 227.833 119.613 228.079 119.113C228.325 118.609 228.673 118.223 229.122 117.953C229.575 117.68 230.091 117.543 230.669 117.543C231.536 117.543 232.218 117.816 232.714 118.363C233.214 118.91 233.464 119.686 233.464 120.689V121.381H229.427C229.482 121.795 229.646 122.127 229.919 122.377C230.196 122.627 230.546 122.752 230.968 122.752C231.62 122.752 232.13 122.516 232.497 122.043L233.329 122.975C233.075 123.334 232.732 123.615 232.298 123.818C231.864 124.018 231.384 124.117 230.857 124.117ZM230.663 118.914C230.327 118.914 230.054 119.027 229.843 119.254C229.636 119.48 229.503 119.805 229.444 120.227H231.8V120.092C231.792 119.717 231.691 119.428 231.495 119.225C231.3 119.018 231.023 118.914 230.663 118.914ZM236.716 121.604L237.888 117.66H239.704L237.155 124.984L237.015 125.318C236.636 126.146 236.011 126.561 235.14 126.561C234.894 126.561 234.644 126.523 234.39 126.449V125.166L234.648 125.172C234.968 125.172 235.206 125.123 235.362 125.025C235.523 124.928 235.648 124.766 235.737 124.539L235.937 124.018L233.716 117.66H235.538L236.716 121.604Z" fill="black"/>
<path d="M191.37 145.469V151.088C191.37 152.021 191.077 152.76 190.491 153.303C189.909 153.846 189.112 154.117 188.101 154.117C187.105 154.117 186.314 153.854 185.728 153.326C185.142 152.799 184.843 152.074 184.831 151.152V145.469H186.589V151.1C186.589 151.658 186.722 152.066 186.987 152.324C187.257 152.578 187.628 152.705 188.101 152.705C189.089 152.705 189.591 152.186 189.607 151.146V145.469H191.37ZM199.234 146.893H196.62V154H194.862V146.893H192.284V145.469H199.234V146.893ZM203.294 148.41L204.894 145.469H206.915L204.431 149.699L206.98 154H204.935L203.294 151.012L201.653 154H199.609L202.157 149.699L199.673 145.469H201.694L203.294 148.41ZM214.726 149.928C214.726 150.768 214.577 151.504 214.28 152.137C213.984 152.77 213.558 153.258 213.003 153.602C212.452 153.945 211.819 154.117 211.105 154.117C210.398 154.117 209.767 153.947 209.212 153.607C208.657 153.268 208.228 152.783 207.923 152.154C207.618 151.521 207.464 150.795 207.46 149.975V149.553C207.46 148.713 207.611 147.975 207.911 147.338C208.216 146.697 208.644 146.207 209.194 145.867C209.749 145.523 210.382 145.352 211.093 145.352C211.804 145.352 212.435 145.523 212.986 145.867C213.54 146.207 213.968 146.697 214.269 147.338C214.573 147.975 214.726 148.711 214.726 149.547V149.928ZM212.944 149.541C212.944 148.646 212.784 147.967 212.464 147.502C212.144 147.037 211.687 146.805 211.093 146.805C210.503 146.805 210.048 147.035 209.728 147.496C209.407 147.953 209.245 148.625 209.241 149.512V149.928C209.241 150.799 209.402 151.475 209.722 151.955C210.042 152.436 210.503 152.676 211.105 152.676C211.694 152.676 212.148 152.445 212.464 151.984C212.78 151.52 212.941 150.844 212.944 149.957V149.541Z" fill="black"/>
<path d="M188.066 181.885L189.999 175.469H191.956L188.986 184H187.152L184.193 175.469H186.144L188.066 181.885ZM192.12 180.771C192.12 180.143 192.241 179.582 192.484 179.09C192.726 178.598 193.073 178.217 193.527 177.947C193.984 177.678 194.513 177.543 195.114 177.543C195.97 177.543 196.667 177.805 197.206 178.328C197.749 178.852 198.052 179.562 198.114 180.461L198.126 180.895C198.126 181.867 197.855 182.648 197.312 183.238C196.769 183.824 196.04 184.117 195.126 184.117C194.212 184.117 193.482 183.824 192.935 183.238C192.392 182.652 192.12 181.855 192.12 180.848V180.771ZM193.814 180.895C193.814 181.496 193.927 181.957 194.153 182.277C194.38 182.594 194.704 182.752 195.126 182.752C195.536 182.752 195.857 182.596 196.087 182.283C196.318 181.967 196.433 181.463 196.433 180.771C196.433 180.182 196.318 179.725 196.087 179.4C195.857 179.076 195.532 178.914 195.114 178.914C194.7 178.914 194.38 179.076 194.153 179.4C193.927 179.721 193.814 180.219 193.814 180.895ZM200.956 184H199.257V175H200.956V184ZM206.153 183.355C205.736 183.863 205.157 184.117 204.419 184.117C203.739 184.117 203.22 183.922 202.861 183.531C202.505 183.141 202.323 182.568 202.316 181.814V177.66H204.009V181.756C204.009 182.416 204.31 182.746 204.911 182.746C205.486 182.746 205.88 182.547 206.095 182.148V177.66H207.794V184H206.2L206.153 183.355ZM210.659 177.66L210.712 178.369C211.161 177.818 211.769 177.543 212.534 177.543C213.351 177.543 213.911 177.865 214.216 178.51C214.661 177.865 215.296 177.543 216.12 177.543C216.808 177.543 217.319 177.744 217.655 178.146C217.991 178.545 218.159 179.146 218.159 179.951V184H216.46V179.957C216.46 179.598 216.39 179.336 216.249 179.172C216.109 179.004 215.861 178.92 215.505 178.92C214.997 178.92 214.646 179.162 214.45 179.646L214.456 184H212.763V179.963C212.763 179.596 212.691 179.33 212.546 179.166C212.402 179.002 212.155 178.92 211.808 178.92C211.327 178.92 210.98 179.119 210.765 179.518V184H209.071V177.66H210.659ZM222.384 184.117C221.454 184.117 220.696 183.832 220.111 183.262C219.528 182.691 219.237 181.932 219.237 180.982V180.818C219.237 180.182 219.361 179.613 219.607 179.113C219.853 178.609 220.2 178.223 220.65 177.953C221.103 177.68 221.618 177.543 222.196 177.543C223.064 177.543 223.745 177.816 224.241 178.363C224.741 178.91 224.991 179.686 224.991 180.689V181.381H220.954C221.009 181.795 221.173 182.127 221.446 182.377C221.724 182.627 222.073 182.752 222.495 182.752C223.148 182.752 223.657 182.516 224.025 182.043L224.857 182.975C224.603 183.334 224.259 183.615 223.825 183.818C223.392 184.018 222.911 184.117 222.384 184.117ZM222.191 178.914C221.855 178.914 221.581 179.027 221.37 179.254C221.163 179.48 221.03 179.805 220.972 180.227H223.327V180.092C223.319 179.717 223.218 179.428 223.023 179.225C222.827 179.018 222.55 178.914 222.191 178.914ZM230.734 184H229.034V177.66H230.734V184ZM228.935 176.02C228.935 175.766 229.019 175.557 229.187 175.393C229.359 175.229 229.591 175.146 229.884 175.146C230.173 175.146 230.403 175.229 230.575 175.393C230.747 175.557 230.833 175.766 230.833 176.02C230.833 176.277 230.745 176.488 230.569 176.652C230.398 176.816 230.169 176.898 229.884 176.898C229.599 176.898 229.368 176.816 229.193 176.652C229.021 176.488 228.935 176.277 228.935 176.02ZM233.693 177.66L233.745 178.393C234.198 177.826 234.806 177.543 235.568 177.543C236.239 177.543 236.739 177.74 237.068 178.135C237.396 178.529 237.564 179.119 237.571 179.904V184H235.878V179.945C235.878 179.586 235.8 179.326 235.644 179.166C235.487 179.002 235.228 178.92 234.864 178.92C234.388 178.92 234.03 179.123 233.792 179.529V184H232.099V177.66H233.693ZM241.96 184V175.469H244.948C245.984 175.469 246.769 175.668 247.304 176.066C247.839 176.461 248.107 177.041 248.107 177.807C248.107 178.225 247.999 178.594 247.784 178.914C247.569 179.23 247.271 179.463 246.888 179.611C247.325 179.721 247.669 179.941 247.919 180.273C248.173 180.605 248.3 181.012 248.3 181.492C248.3 182.312 248.038 182.934 247.515 183.355C246.991 183.777 246.245 183.992 245.277 184H241.96ZM243.718 180.285V182.588H245.224C245.638 182.588 245.96 182.49 246.191 182.295C246.425 182.096 246.542 181.822 246.542 181.475C246.542 180.693 246.138 180.297 245.329 180.285H243.718ZM243.718 179.043H245.019C245.905 179.027 246.349 178.674 246.349 177.982C246.349 177.596 246.236 177.318 246.009 177.15C245.786 176.979 245.433 176.893 244.948 176.893H243.718V179.043ZM255.882 176.893H253.269V184H251.511V176.893H248.933V175.469H255.882V176.893ZM263.423 181.158C263.357 182.076 263.017 182.799 262.403 183.326C261.794 183.854 260.989 184.117 259.989 184.117C258.896 184.117 258.034 183.75 257.405 183.016C256.78 182.277 256.468 181.266 256.468 179.98V179.459C256.468 178.639 256.612 177.916 256.902 177.291C257.191 176.666 257.603 176.188 258.138 175.855C258.677 175.52 259.302 175.352 260.013 175.352C260.997 175.352 261.79 175.615 262.392 176.143C262.993 176.67 263.341 177.41 263.435 178.363H261.677C261.634 177.812 261.48 177.414 261.214 177.168C260.952 176.918 260.552 176.793 260.013 176.793C259.427 176.793 258.987 177.004 258.694 177.426C258.405 177.844 258.257 178.494 258.249 179.377V180.021C258.249 180.943 258.388 181.617 258.665 182.043C258.946 182.469 259.388 182.682 259.989 182.682C260.532 182.682 260.937 182.559 261.202 182.312C261.472 182.062 261.626 181.678 261.665 181.158H263.423Z" fill="black"/>
<rect x="175.5" y="70.5" width="116.282" height="155" rx="4.5" stroke="black"/>
<line x1="175" y1="102.5" x2="292.282" y2="102.5" stroke="black"/>
<line x1="175" y1="136.5" x2="292.282" y2="136.5" stroke="black"/>
<line x1="175" y1="165.5" x2="292.282" y2="165.5" stroke="black"/>
<line x1="175" y1="194.5" x2="292.282" y2="194.5" stroke="black"/>
<path d="M186.52 210.994V214H184.762V205.469H188.09C188.73 205.469 189.293 205.586 189.777 205.82C190.266 206.055 190.641 206.389 190.902 206.822C191.164 207.252 191.295 207.742 191.295 208.293C191.295 209.129 191.008 209.789 190.434 210.273C189.863 210.754 189.072 210.994 188.061 210.994H186.52ZM186.52 209.57H188.09C188.555 209.57 188.908 209.461 189.15 209.242C189.396 209.023 189.52 208.711 189.52 208.305C189.52 207.887 189.396 207.549 189.15 207.291C188.904 207.033 188.564 206.9 188.131 206.893H186.52V209.57ZM195.959 209.248C195.729 209.217 195.525 209.201 195.35 209.201C194.709 209.201 194.289 209.418 194.09 209.852V214H192.396V207.66H193.996L194.043 208.416C194.383 207.834 194.854 207.543 195.455 207.543C195.643 207.543 195.818 207.568 195.982 207.619L195.959 209.248ZM198.566 214H196.867V207.66H198.566V214ZM196.768 206.02C196.768 205.766 196.852 205.557 197.02 205.393C197.191 205.229 197.424 205.146 197.717 205.146C198.006 205.146 198.236 205.229 198.408 205.393C198.58 205.557 198.666 205.766 198.666 206.02C198.666 206.277 198.578 206.488 198.402 206.652C198.23 206.816 198.002 206.898 197.717 206.898C197.432 206.898 197.201 206.816 197.025 206.652C196.854 206.488 196.768 206.277 196.768 206.02ZM202.604 212.752C202.916 212.752 203.17 212.666 203.365 212.494C203.561 212.322 203.662 212.094 203.67 211.809H205.258C205.254 212.238 205.137 212.633 204.906 212.992C204.676 213.348 204.359 213.625 203.957 213.824C203.559 214.02 203.117 214.117 202.633 214.117C201.727 214.117 201.012 213.83 200.488 213.256C199.965 212.678 199.703 211.881 199.703 210.865V210.754C199.703 209.777 199.963 208.998 200.482 208.416C201.002 207.834 201.715 207.543 202.621 207.543C203.414 207.543 204.049 207.77 204.525 208.223C205.006 208.672 205.25 209.271 205.258 210.021H203.67C203.662 209.693 203.561 209.428 203.365 209.225C203.17 209.018 202.912 208.914 202.592 208.914C202.197 208.914 201.898 209.059 201.695 209.348C201.496 209.633 201.396 210.098 201.396 210.742V210.918C201.396 211.57 201.496 212.039 201.695 212.324C201.895 212.609 202.197 212.752 202.604 212.752ZM209.143 214.117C208.213 214.117 207.455 213.832 206.869 213.262C206.287 212.691 205.996 211.932 205.996 210.982V210.818C205.996 210.182 206.119 209.613 206.365 209.113C206.611 208.609 206.959 208.223 207.408 207.953C207.861 207.68 208.377 207.543 208.955 207.543C209.822 207.543 210.504 207.816 211 208.363C211.5 208.91 211.75 209.686 211.75 210.689V211.381H207.713C207.768 211.795 207.932 212.127 208.205 212.377C208.482 212.627 208.832 212.752 209.254 212.752C209.906 212.752 210.416 212.516 210.783 212.043L211.615 212.975C211.361 213.334 211.018 213.615 210.584 213.818C210.15 214.018 209.67 214.117 209.143 214.117ZM208.949 208.914C208.613 208.914 208.34 209.027 208.129 209.254C207.922 209.48 207.789 209.805 207.73 210.227H210.086V210.092C210.078 209.717 209.977 209.428 209.781 209.225C209.586 209.018 209.309 208.914 208.949 208.914ZM217.492 214H215.793V207.66H217.492V214ZM215.693 206.02C215.693 205.766 215.777 205.557 215.945 205.393C216.117 205.229 216.35 205.146 216.643 205.146C216.932 205.146 217.162 205.229 217.334 205.393C217.506 205.557 217.592 205.766 217.592 206.02C217.592 206.277 217.504 206.488 217.328 206.652C217.156 206.816 216.928 206.898 216.643 206.898C216.357 206.898 216.127 206.816 215.951 206.652C215.779 206.488 215.693 206.277 215.693 206.02ZM220.451 207.66L220.504 208.393C220.957 207.826 221.564 207.543 222.326 207.543C222.998 207.543 223.498 207.74 223.826 208.135C224.154 208.529 224.322 209.119 224.33 209.904V214H222.637V209.945C222.637 209.586 222.559 209.326 222.402 209.166C222.246 209.002 221.986 208.92 221.623 208.92C221.146 208.92 220.789 209.123 220.551 209.529V214H218.857V207.66H220.451ZM233.852 210.303H230.477V212.588H234.438V214H228.719V205.469H234.426V206.893H230.477V208.926H233.852V210.303ZM238.92 209.248C238.689 209.217 238.486 209.201 238.311 209.201C237.67 209.201 237.25 209.418 237.051 209.852V214H235.357V207.66H236.957L237.004 208.416C237.344 207.834 237.814 207.543 238.416 207.543C238.604 207.543 238.779 207.568 238.943 207.619L238.92 209.248ZM239.377 210.783C239.377 209.811 239.607 209.027 240.068 208.434C240.533 207.84 241.158 207.543 241.943 207.543C242.639 207.543 243.18 207.781 243.566 208.258L243.637 207.66H245.172V213.789C245.172 214.344 245.045 214.826 244.791 215.236C244.541 215.646 244.188 215.959 243.73 216.174C243.273 216.389 242.738 216.496 242.125 216.496C241.66 216.496 241.207 216.402 240.766 216.215C240.324 216.031 239.99 215.793 239.764 215.5L240.514 214.469C240.936 214.941 241.447 215.178 242.049 215.178C242.498 215.178 242.848 215.057 243.098 214.814C243.348 214.576 243.473 214.236 243.473 213.795V213.455C243.082 213.896 242.568 214.117 241.932 214.117C241.17 214.117 240.553 213.82 240.08 213.227C239.611 212.629 239.377 211.838 239.377 210.854V210.783ZM241.07 210.906C241.07 211.48 241.186 211.932 241.416 212.26C241.646 212.584 241.963 212.746 242.365 212.746C242.881 212.746 243.25 212.553 243.473 212.166V209.5C243.246 209.113 242.881 208.92 242.377 208.92C241.971 208.92 241.65 209.086 241.416 209.418C241.186 209.75 241.07 210.246 241.07 210.906ZM246.215 210.771C246.215 210.143 246.336 209.582 246.578 209.09C246.82 208.598 247.168 208.217 247.621 207.947C248.078 207.678 248.607 207.543 249.209 207.543C250.064 207.543 250.762 207.805 251.301 208.328C251.844 208.852 252.146 209.562 252.209 210.461L252.221 210.895C252.221 211.867 251.949 212.648 251.406 213.238C250.863 213.824 250.135 214.117 249.221 214.117C248.307 214.117 247.576 213.824 247.029 213.238C246.486 212.652 246.215 211.855 246.215 210.848V210.771ZM247.908 210.895C247.908 211.496 248.021 211.957 248.248 212.277C248.475 212.594 248.799 212.752 249.221 212.752C249.631 212.752 249.951 212.596 250.182 212.283C250.412 211.967 250.527 211.463 250.527 210.771C250.527 210.182 250.412 209.725 250.182 209.4C249.951 209.076 249.627 208.914 249.209 208.914C248.795 208.914 248.475 209.076 248.248 209.4C248.021 209.721 247.908 210.219 247.908 210.895Z" fill="black"/>
</svg>
