<svg width="270" height="261" viewBox="0 0 270 261" fill="none" xmlns="http://www.w3.org/2000/svg">
<rect x="29.5" y="49.5" width="210" height="103" rx="4.5" stroke="black"/>
<path d="M57.3935 216.848V204C57.3935 201.23 55.1638 199 52.3938 199H5.99969C3.2297 199 1 201.23 1 204V234.892C1 237.662 3.2297 239.892 5.99969 239.892H18.3002" stroke="black" stroke-width="2" stroke-linecap="round" stroke-linejoin="round"/>
<path d="M19.6624 216.777V216C19.6624 213.23 17.4322 211 14.6622 211H1V227.82H12.7926" stroke="black" stroke-width="2" stroke-linecap="round" stroke-linejoin="round"/>
<path d="M10.3313 223.182C12.5639 223.182 14.3737 221.372 14.3737 219.139C14.3737 216.907 12.5639 215.097 10.3313 215.097C8.09868 215.097 6.28882 216.907 6.28882 219.139C6.28882 221.372 8.09868 223.182 10.3313 223.182Z" stroke="black" stroke-width="2" stroke-linecap="round" stroke-linejoin="round"/>
<path fill-rule="evenodd" clip-rule="evenodd" d="M29.4337 240.956L40.2377 245.293L50.9441 240.72L55.2826 229.916L50.7101 219.21L39.906 214.872L29.1968 219.446L24.8597 230.249L29.4337 240.956ZM40.2483 247.297C40.1267 247.297 40.0036 247.274 39.8898 247.228L28.3446 242.593C28.1077 242.498 27.9175 242.313 27.8192 242.077L22.9327 230.636C22.8316 230.401 22.8288 230.137 22.9249 229.899L27.5597 218.354C27.6545 218.117 27.8397 217.927 28.0752 217.827L39.5164 212.942C39.7519 212.84 40.0171 212.839 40.2547 212.934L51.7991 217.569C52.036 217.663 52.2255 217.849 52.3252 218.084L57.211 229.523C57.3121 229.759 57.315 230.023 57.2188 230.261L52.5841 241.807C52.49 242.043 52.3047 242.233 52.0685 242.332L40.6288 247.218C40.5057 247.272 40.3777 247.297 40.2483 247.297Z" fill="black" stroke="black" stroke-width="0.589302"/>
<path d="M44.4097 228.73C45.4458 228.158 46.094 227.149 45.9426 225.469C45.7387 223.174 43.9114 222.404 41.6047 222.184L41.6042 219H39.817L39.8165 222.101C39.3462 222.101 38.8669 222.111 38.3897 222.121L38.3893 219L36.6036 219L36.6033 222.184C36.2163 222.192 35.8363 222.201 35.4652 222.201V222.191L33 222.19L33.0003 224.26C33.0003 224.26 34.3202 224.233 34.2984 224.259C35.0221 224.26 35.2584 224.716 35.3263 225.109L35.3269 228.737V233.833C35.295 234.08 35.161 234.474 34.655 234.475C34.678 234.497 33.3548 234.475 33.3548 234.475L33.0003 236.789H35.3258C35.7591 236.79 36.1848 236.797 36.6025 236.801L36.6041 240.021L38.3893 240.022L38.3888 236.835C38.8799 236.846 39.354 236.851 39.8171 236.85L39.8166 240.022H41.6038L41.6048 236.807C44.6089 236.62 46.7121 235.799 46.9736 232.738C47.1844 230.274 46.1153 229.174 44.4097 228.73ZM38.4324 224.4C39.4404 224.4 42.6105 224.052 42.6109 226.336C42.6105 228.526 39.4414 228.27 38.4324 228.27V224.4ZM38.4316 234.491L38.4324 230.224C39.6435 230.223 43.442 229.846 43.4425 232.356C43.443 234.764 39.6435 234.49 38.4316 234.491Z" fill="black"/>
<path d="M20.5781 256.242H17.4961L16.9102 258H15.041L18.2168 249.469H19.8457L23.0391 258H21.1699L20.5781 256.242ZM17.9707 254.818H20.1035L19.0312 251.625L17.9707 254.818ZM25.5117 258H23.8125V249H25.5117V258ZM28.6992 258H27V251.66H28.6992V258ZM26.9004 250.02C26.9004 249.766 26.9844 249.557 27.1523 249.393C27.3242 249.229 27.5566 249.146 27.8496 249.146C28.1387 249.146 28.3691 249.229 28.541 249.393C28.7129 249.557 28.7988 249.766 28.7988 250.02C28.7988 250.277 28.7109 250.488 28.5352 250.652C28.3633 250.816 28.1348 250.898 27.8496 250.898C27.5645 250.898 27.334 250.816 27.1582 250.652C26.9863 250.488 26.9004 250.277 26.9004 250.02ZM32.7363 256.752C33.0488 256.752 33.3027 256.666 33.498 256.494C33.6934 256.322 33.7949 256.094 33.8027 255.809H35.3906C35.3867 256.238 35.2695 256.633 35.0391 256.992C34.8086 257.348 34.4922 257.625 34.0898 257.824C33.6914 258.02 33.25 258.117 32.7656 258.117C31.8594 258.117 31.1445 257.83 30.6211 257.256C30.0977 256.678 29.8359 255.881 29.8359 254.865V254.754C29.8359 253.777 30.0957 252.998 30.6152 252.416C31.1348 251.834 31.8477 251.543 32.7539 251.543C33.5469 251.543 34.1816 251.77 34.6582 252.223C35.1387 252.672 35.3828 253.271 35.3906 254.021H33.8027C33.7949 253.693 33.6934 253.428 33.498 253.225C33.3027 253.018 33.0449 252.914 32.7246 252.914C32.3301 252.914 32.0312 253.059 31.8281 253.348C31.6289 253.633 31.5293 254.098 31.5293 254.742V254.918C31.5293 255.57 31.6289 256.039 31.8281 256.324C32.0273 256.609 32.3301 256.752 32.7363 256.752ZM39.2754 258.117C38.3457 258.117 37.5879 257.832 37.002 257.262C36.4199 256.691 36.1289 255.932 36.1289 254.982V254.818C36.1289 254.182 36.252 253.613 36.498 253.113C36.7441 252.609 37.0918 252.223 37.541 251.953C37.9941 251.68 38.5098 251.543 39.0879 251.543C39.9551 251.543 40.6367 251.816 41.1328 252.363C41.6328 252.91 41.8828 253.686 41.8828 254.689V255.381H37.8457C37.9004 255.795 38.0645 256.127 38.3379 256.377C38.6152 256.627 38.9648 256.752 39.3867 256.752C40.0391 256.752 40.5488 256.516 40.916 256.043L41.748 256.975C41.4941 257.334 41.1504 257.615 40.7168 257.818C40.2832 258.018 39.8027 258.117 39.2754 258.117ZM39.082 252.914C38.7461 252.914 38.4727 253.027 38.2617 253.254C38.0547 253.48 37.9219 253.805 37.8633 254.227H40.2188V254.092C40.2109 253.717 40.1094 253.428 39.9141 253.225C39.7188 253.018 39.4414 252.914 39.082 252.914Z" fill="black"/>
<path d="M141.5 100C141.5 97.5147 143.515 95.5 146 95.5H227C229.485 95.5 231.5 97.5147 231.5 100V137C231.5 139.485 229.485 141.5 227 141.5H146C143.515 141.5 141.5 139.485 141.5 137V100Z" stroke="black"/>
<path d="M176.357 108.889C176.357 109.865 176.135 110.648 175.689 111.238C175.248 111.824 174.65 112.117 173.896 112.117C173.256 112.117 172.738 111.895 172.344 111.449V114.438H170.65V105.66H172.221L172.279 106.281C172.689 105.789 173.225 105.543 173.885 105.543C174.666 105.543 175.273 105.832 175.707 106.41C176.141 106.988 176.357 107.785 176.357 108.801V108.889ZM174.664 108.766C174.664 108.176 174.559 107.721 174.348 107.4C174.141 107.08 173.838 106.92 173.439 106.92C172.908 106.92 172.543 107.123 172.344 107.529V110.125C172.551 110.543 172.92 110.752 173.451 110.752C174.26 110.752 174.664 110.09 174.664 108.766ZM179.715 109.457L179.105 110.066V112H177.412V103H179.105V107.986L179.434 107.564L181.057 105.66H183.09L180.799 108.303L183.289 112H181.344L179.715 109.457ZM183.898 108.531C183.898 107.637 184.018 106.785 184.256 105.977C184.494 105.168 184.846 104.453 185.311 103.832C185.775 103.207 186.279 102.773 186.822 102.531L187.15 103.445C186.58 103.867 186.135 104.52 185.814 105.402C185.494 106.285 185.334 107.316 185.334 108.496V108.678C185.334 109.861 185.492 110.896 185.809 111.783C186.125 112.67 186.572 113.332 187.15 113.77L186.822 114.666C186.291 114.428 185.795 114.006 185.334 113.4C184.877 112.799 184.527 112.104 184.285 111.314C184.043 110.525 183.914 109.701 183.898 108.842V108.531ZM188.152 112V103.469H191.141C192.176 103.469 192.961 103.668 193.496 104.066C194.031 104.461 194.299 105.041 194.299 105.807C194.299 106.225 194.191 106.594 193.977 106.914C193.762 107.23 193.463 107.463 193.08 107.611C193.518 107.721 193.861 107.941 194.111 108.273C194.365 108.605 194.492 109.012 194.492 109.492C194.492 110.312 194.23 110.934 193.707 111.355C193.184 111.777 192.438 111.992 191.469 112H188.152ZM189.91 108.285V110.588H191.416C191.83 110.588 192.152 110.49 192.383 110.295C192.617 110.096 192.734 109.822 192.734 109.475C192.734 108.693 192.33 108.297 191.521 108.285H189.91ZM189.91 107.043H191.211C192.098 107.027 192.541 106.674 192.541 105.982C192.541 105.596 192.428 105.318 192.201 105.15C191.979 104.979 191.625 104.893 191.141 104.893H189.91V107.043ZM195.441 108.771C195.441 108.143 195.562 107.582 195.805 107.09C196.047 106.598 196.395 106.217 196.848 105.947C197.305 105.678 197.834 105.543 198.436 105.543C199.291 105.543 199.988 105.805 200.527 106.328C201.07 106.852 201.373 107.562 201.436 108.461L201.447 108.895C201.447 109.867 201.176 110.648 200.633 111.238C200.09 111.824 199.361 112.117 198.447 112.117C197.533 112.117 196.803 111.824 196.256 111.238C195.713 110.652 195.441 109.855 195.441 108.848V108.771ZM197.135 108.895C197.135 109.496 197.248 109.957 197.475 110.277C197.701 110.594 198.025 110.752 198.447 110.752C198.857 110.752 199.178 110.596 199.408 110.283C199.639 109.967 199.754 109.463 199.754 108.771C199.754 108.182 199.639 107.725 199.408 107.4C199.178 107.076 198.854 106.914 198.436 106.914C198.021 106.914 197.701 107.076 197.475 107.4C197.248 107.721 197.135 108.219 197.135 108.895ZM208.203 108.889C208.203 109.904 207.986 110.697 207.553 111.268C207.119 111.834 206.514 112.117 205.736 112.117C205.049 112.117 204.5 111.854 204.09 111.326L204.014 112H202.49V103H204.184V106.229C204.574 105.771 205.088 105.543 205.725 105.543C206.498 105.543 207.104 105.828 207.541 106.398C207.982 106.965 208.203 107.764 208.203 108.795V108.889ZM206.51 108.766C206.51 108.125 206.408 107.658 206.205 107.365C206.002 107.068 205.699 106.92 205.297 106.92C204.758 106.92 204.387 107.141 204.184 107.582V110.084C204.391 110.529 204.766 110.752 205.309 110.752C205.855 110.752 206.215 110.482 206.387 109.943C206.469 109.686 206.51 109.293 206.51 108.766ZM212.17 108.666C212.17 109.549 212.043 110.398 211.789 111.215C211.535 112.031 211.17 112.752 210.693 113.377C210.217 114.002 209.707 114.432 209.164 114.666L208.836 113.77C209.391 113.352 209.828 112.707 210.148 111.836C210.469 110.965 210.635 109.963 210.646 108.83V108.52C210.646 107.352 210.486 106.322 210.166 105.432C209.85 104.541 209.406 103.873 208.836 103.428L209.164 102.531C209.695 102.762 210.195 103.18 210.664 103.785C211.137 104.391 211.502 105.096 211.76 105.9C212.021 106.705 212.158 107.539 212.17 108.402V108.666Z" fill="black"/>
<path d="M151.084 133.248C151.084 133.041 150.98 132.879 150.773 132.762C150.57 132.641 150.242 132.533 149.789 132.439C148.281 132.123 147.527 131.482 147.527 130.518C147.527 129.955 147.76 129.486 148.225 129.111C148.693 128.732 149.305 128.543 150.059 128.543C150.863 128.543 151.506 128.732 151.986 129.111C152.471 129.49 152.713 129.982 152.713 130.588H151.02C151.02 130.346 150.941 130.146 150.785 129.99C150.629 129.83 150.385 129.75 150.053 129.75C149.768 129.75 149.547 129.814 149.391 129.943C149.234 130.072 149.156 130.236 149.156 130.436C149.156 130.623 149.244 130.775 149.42 130.893C149.6 131.006 149.9 131.105 150.322 131.191C150.744 131.273 151.1 131.367 151.389 131.473C152.283 131.801 152.73 132.369 152.73 133.178C152.73 133.756 152.482 134.225 151.986 134.584C151.49 134.939 150.85 135.117 150.064 135.117C149.533 135.117 149.061 135.023 148.646 134.836C148.236 134.645 147.914 134.385 147.68 134.057C147.445 133.725 147.328 133.367 147.328 132.984H148.934C148.949 133.285 149.061 133.516 149.268 133.676C149.475 133.836 149.752 133.916 150.1 133.916C150.424 133.916 150.668 133.855 150.832 133.734C151 133.609 151.084 133.447 151.084 133.248ZM155.479 129.352C155.928 128.812 156.492 128.543 157.172 128.543C158.547 128.543 159.244 129.342 159.264 130.939V135H157.57V130.986C157.57 130.623 157.492 130.355 157.336 130.184C157.18 130.008 156.92 129.92 156.557 129.92C156.061 129.92 155.701 130.111 155.479 130.494V135H153.785V126H155.479V129.352ZM164.215 135C164.137 134.848 164.08 134.658 164.045 134.432C163.635 134.889 163.102 135.117 162.445 135.117C161.824 135.117 161.309 134.938 160.898 134.578C160.492 134.219 160.289 133.766 160.289 133.219C160.289 132.547 160.537 132.031 161.033 131.672C161.533 131.312 162.254 131.131 163.195 131.127H163.975V130.764C163.975 130.471 163.898 130.236 163.746 130.061C163.598 129.885 163.361 129.797 163.037 129.797C162.752 129.797 162.527 129.865 162.363 130.002C162.203 130.139 162.123 130.326 162.123 130.564H160.43C160.43 130.197 160.543 129.857 160.77 129.545C160.996 129.232 161.316 128.988 161.73 128.812C162.145 128.633 162.609 128.543 163.125 128.543C163.906 128.543 164.525 128.74 164.982 129.135C165.443 129.525 165.674 130.076 165.674 130.787V133.535C165.678 134.137 165.762 134.592 165.926 134.9V135H164.215ZM162.814 133.822C163.064 133.822 163.295 133.768 163.506 133.658C163.717 133.545 163.873 133.395 163.975 133.207V132.117H163.342C162.494 132.117 162.043 132.41 161.988 132.996L161.982 133.096C161.982 133.307 162.057 133.48 162.205 133.617C162.354 133.754 162.557 133.822 162.814 133.822ZM172.752 135H166.904V133.84L169.664 130.898C170.043 130.484 170.322 130.123 170.502 129.814C170.686 129.506 170.777 129.213 170.777 128.936C170.777 128.557 170.682 128.26 170.49 128.045C170.299 127.826 170.025 127.717 169.67 127.717C169.287 127.717 168.984 127.85 168.762 128.115C168.543 128.377 168.434 128.723 168.434 129.152H166.734C166.734 128.633 166.857 128.158 167.104 127.729C167.354 127.299 167.705 126.963 168.158 126.721C168.611 126.475 169.125 126.352 169.699 126.352C170.578 126.352 171.26 126.562 171.744 126.984C172.232 127.406 172.477 128.002 172.477 128.771C172.477 129.193 172.367 129.623 172.148 130.061C171.93 130.498 171.555 131.008 171.023 131.59L169.084 133.635H172.752V135ZM174.047 130.805L174.539 126.469H179.32V127.881H175.928L175.717 129.715C176.119 129.5 176.547 129.393 177 129.393C177.812 129.393 178.449 129.645 178.91 130.148C179.371 130.652 179.602 131.357 179.602 132.264C179.602 132.814 179.484 133.309 179.25 133.746C179.02 134.18 178.688 134.518 178.254 134.76C177.82 134.998 177.309 135.117 176.719 135.117C176.203 135.117 175.725 135.014 175.283 134.807C174.842 134.596 174.492 134.301 174.234 133.922C173.98 133.543 173.846 133.111 173.83 132.627H175.506C175.541 132.982 175.664 133.26 175.875 133.459C176.09 133.654 176.369 133.752 176.713 133.752C177.096 133.752 177.391 133.615 177.598 133.342C177.805 133.064 177.908 132.674 177.908 132.17C177.908 131.686 177.789 131.314 177.551 131.057C177.312 130.799 176.975 130.67 176.537 130.67C176.135 130.67 175.809 130.775 175.559 130.986L175.395 131.139L174.047 130.805ZM185.279 126.381V127.775H185.115C184.35 127.787 183.732 127.986 183.264 128.373C182.799 128.76 182.52 129.297 182.426 129.984C182.879 129.523 183.451 129.293 184.143 129.293C184.885 129.293 185.475 129.559 185.912 130.09C186.35 130.621 186.568 131.32 186.568 132.188C186.568 132.742 186.447 133.244 186.205 133.693C185.967 134.143 185.627 134.492 185.186 134.742C184.748 134.992 184.252 135.117 183.697 135.117C182.799 135.117 182.072 134.805 181.518 134.18C180.967 133.555 180.691 132.721 180.691 131.678V131.068C180.691 130.143 180.865 129.326 181.213 128.619C181.564 127.908 182.066 127.359 182.719 126.973C183.375 126.582 184.135 126.385 184.998 126.381H185.279ZM183.627 130.652C183.354 130.652 183.105 130.725 182.883 130.869C182.66 131.01 182.496 131.197 182.391 131.432V131.947C182.391 132.514 182.502 132.957 182.725 133.277C182.947 133.594 183.26 133.752 183.662 133.752C184.025 133.752 184.318 133.609 184.541 133.324C184.768 133.035 184.881 132.662 184.881 132.205C184.881 131.74 184.768 131.365 184.541 131.08C184.314 130.795 184.01 130.652 183.627 130.652ZM187.723 131.531C187.723 130.637 187.842 129.785 188.08 128.977C188.318 128.168 188.67 127.453 189.135 126.832C189.6 126.207 190.104 125.773 190.646 125.531L190.975 126.445C190.404 126.867 189.959 127.52 189.639 128.402C189.318 129.285 189.158 130.316 189.158 131.496V131.678C189.158 132.861 189.316 133.896 189.633 134.783C189.949 135.67 190.396 136.332 190.975 136.77L190.646 137.666C190.115 137.428 189.619 137.006 189.158 136.4C188.701 135.799 188.352 135.104 188.109 134.314C187.867 133.525 187.738 132.701 187.723 131.842V131.531ZM195.299 133.248C195.299 133.041 195.195 132.879 194.988 132.762C194.785 132.641 194.457 132.533 194.004 132.439C192.496 132.123 191.742 131.482 191.742 130.518C191.742 129.955 191.975 129.486 192.439 129.111C192.908 128.732 193.52 128.543 194.273 128.543C195.078 128.543 195.721 128.732 196.201 129.111C196.686 129.49 196.928 129.982 196.928 130.588H195.234C195.234 130.346 195.156 130.146 195 129.99C194.844 129.83 194.6 129.75 194.268 129.75C193.982 129.75 193.762 129.814 193.605 129.943C193.449 130.072 193.371 130.236 193.371 130.436C193.371 130.623 193.459 130.775 193.635 130.893C193.814 131.006 194.115 131.105 194.537 131.191C194.959 131.273 195.314 131.367 195.604 131.473C196.498 131.801 196.945 132.369 196.945 133.178C196.945 133.756 196.697 134.225 196.201 134.584C195.705 134.939 195.064 135.117 194.279 135.117C193.748 135.117 193.275 135.023 192.861 134.836C192.451 134.645 192.129 134.385 191.895 134.057C191.66 133.725 191.543 133.367 191.543 132.984H193.148C193.164 133.285 193.275 133.516 193.482 133.676C193.689 133.836 193.967 133.916 194.314 133.916C194.639 133.916 194.883 133.855 195.047 133.734C195.215 133.609 195.299 133.447 195.299 133.248ZM200.959 135.117C200.029 135.117 199.271 134.832 198.686 134.262C198.104 133.691 197.812 132.932 197.812 131.982V131.818C197.812 131.182 197.936 130.613 198.182 130.113C198.428 129.609 198.775 129.223 199.225 128.953C199.678 128.68 200.193 128.543 200.771 128.543C201.639 128.543 202.32 128.816 202.816 129.363C203.316 129.91 203.566 130.686 203.566 131.689V132.381H199.529C199.584 132.795 199.748 133.127 200.021 133.377C200.299 133.627 200.648 133.752 201.07 133.752C201.723 133.752 202.232 133.516 202.6 133.043L203.432 133.975C203.178 134.334 202.834 134.615 202.4 134.818C201.967 135.018 201.486 135.117 200.959 135.117ZM200.766 129.914C200.43 129.914 200.156 130.027 199.945 130.254C199.738 130.48 199.605 130.805 199.547 131.227H201.902V131.092C201.895 130.717 201.793 130.428 201.598 130.225C201.402 130.018 201.125 129.914 200.766 129.914ZM207.17 133.752C207.482 133.752 207.736 133.666 207.932 133.494C208.127 133.322 208.229 133.094 208.236 132.809H209.824C209.82 133.238 209.703 133.633 209.473 133.992C209.242 134.348 208.926 134.625 208.523 134.824C208.125 135.02 207.684 135.117 207.199 135.117C206.293 135.117 205.578 134.83 205.055 134.256C204.531 133.678 204.27 132.881 204.27 131.865V131.754C204.27 130.777 204.529 129.998 205.049 129.416C205.568 128.834 206.281 128.543 207.188 128.543C207.98 128.543 208.615 128.77 209.092 129.223C209.572 129.672 209.816 130.271 209.824 131.021H208.236C208.229 130.693 208.127 130.428 207.932 130.225C207.736 130.018 207.479 129.914 207.158 129.914C206.764 129.914 206.465 130.059 206.262 130.348C206.062 130.633 205.963 131.098 205.963 131.742V131.918C205.963 132.57 206.062 133.039 206.262 133.324C206.461 133.609 206.764 133.752 207.17 133.752ZM214.354 130.248C214.123 130.217 213.92 130.201 213.744 130.201C213.104 130.201 212.684 130.418 212.484 130.852V135H210.791V128.66H212.391L212.438 129.416C212.777 128.834 213.248 128.543 213.85 128.543C214.037 128.543 214.213 128.568 214.377 128.619L214.354 130.248ZM217.975 135.117C217.045 135.117 216.287 134.832 215.701 134.262C215.119 133.691 214.828 132.932 214.828 131.982V131.818C214.828 131.182 214.951 130.613 215.197 130.113C215.443 129.609 215.791 129.223 216.24 128.953C216.693 128.68 217.209 128.543 217.787 128.543C218.654 128.543 219.336 128.816 219.832 129.363C220.332 129.91 220.582 130.686 220.582 131.689V132.381H216.545C216.6 132.795 216.764 133.127 217.037 133.377C217.314 133.627 217.664 133.752 218.086 133.752C218.738 133.752 219.248 133.516 219.615 133.043L220.447 133.975C220.193 134.334 219.85 134.615 219.416 134.818C218.982 135.018 218.502 135.117 217.975 135.117ZM217.781 129.914C217.445 129.914 217.172 130.027 216.961 130.254C216.754 130.48 216.621 130.805 216.562 131.227H218.918V131.092C218.91 130.717 218.809 130.428 218.613 130.225C218.418 130.018 218.141 129.914 217.781 129.914ZM223.576 127.102V128.66H224.66V129.902H223.576V133.066C223.576 133.301 223.621 133.469 223.711 133.57C223.801 133.672 223.973 133.723 224.227 133.723C224.414 133.723 224.58 133.709 224.725 133.682V134.965C224.393 135.066 224.051 135.117 223.699 135.117C222.512 135.117 221.906 134.518 221.883 133.318V129.902H220.957V128.66H221.883V127.102H223.576ZM228.521 131.666C228.521 132.549 228.395 133.398 228.141 134.215C227.887 135.031 227.521 135.752 227.045 136.377C226.568 137.002 226.059 137.432 225.516 137.666L225.188 136.77C225.742 136.352 226.18 135.707 226.5 134.836C226.82 133.965 226.986 132.963 226.998 131.83V131.52C226.998 130.352 226.838 129.322 226.518 128.432C226.201 127.541 225.758 126.873 225.188 126.428L225.516 125.531C226.047 125.762 226.547 126.18 227.016 126.785C227.488 127.391 227.854 128.096 228.111 128.9C228.373 129.705 228.51 130.539 228.521 131.402V131.666Z" fill="black"/>
<path d="M42.5 100C42.5 97.5147 44.5147 95.5 47 95.5H121C123.485 95.5 125.5 97.5147 125.5 100V137C125.5 139.485 123.485 141.5 121 141.5H47C44.5147 141.5 42.5 139.485 42.5 137V100Z" stroke="black"/>
<path d="M65.3574 108.889C65.3574 109.865 65.1348 110.648 64.6895 111.238C64.248 111.824 63.6504 112.117 62.8965 112.117C62.2559 112.117 61.7383 111.895 61.3438 111.449V114.438H59.6504V105.66H61.2207L61.2793 106.281C61.6895 105.789 62.2246 105.543 62.8848 105.543C63.666 105.543 64.2734 105.832 64.707 106.41C65.1406 106.988 65.3574 107.785 65.3574 108.801V108.889ZM63.6641 108.766C63.6641 108.176 63.5586 107.721 63.3477 107.4C63.1406 107.08 62.8379 106.92 62.4395 106.92C61.9082 106.92 61.543 107.123 61.3438 107.529V110.125C61.5508 110.543 61.9199 110.752 62.4512 110.752C63.2598 110.752 63.6641 110.09 63.6641 108.766ZM68.7148 109.457L68.1055 110.066V112H66.4121V103H68.1055V107.986L68.4336 107.564L70.0566 105.66H72.0898L69.7988 108.303L72.2891 112H70.3438L68.7148 109.457ZM72.8984 108.531C72.8984 107.637 73.0176 106.785 73.2559 105.977C73.4941 105.168 73.8457 104.453 74.3105 103.832C74.7754 103.207 75.2793 102.773 75.8223 102.531L76.1504 103.445C75.5801 103.867 75.1348 104.52 74.8145 105.402C74.4941 106.285 74.334 107.316 74.334 108.496V108.678C74.334 109.861 74.4922 110.896 74.8086 111.783C75.125 112.67 75.5723 113.332 76.1504 113.77L75.8223 114.666C75.291 114.428 74.7949 114.006 74.334 113.4C73.877 112.799 73.5273 112.104 73.2852 111.314C73.043 110.525 72.9141 109.701 72.8984 108.842V108.531ZM81.9688 110.242H78.8867L78.3008 112H76.4316L79.6074 103.469H81.2363L84.4297 112H82.5605L81.9688 110.242ZM79.3613 108.818H81.4941L80.4219 105.625L79.3613 108.818ZM86.9023 112H85.2031V103H86.9023V112ZM90.0898 112H88.3906V105.66H90.0898V112ZM88.291 104.02C88.291 103.766 88.375 103.557 88.543 103.393C88.7148 103.229 88.9473 103.146 89.2402 103.146C89.5293 103.146 89.7598 103.229 89.9316 103.393C90.1035 103.557 90.1895 103.766 90.1895 104.02C90.1895 104.277 90.1016 104.488 89.9258 104.652C89.7539 104.816 89.5254 104.898 89.2402 104.898C88.9551 104.898 88.7246 104.816 88.5488 104.652C88.377 104.488 88.291 104.277 88.291 104.02ZM94.127 110.752C94.4395 110.752 94.6934 110.666 94.8887 110.494C95.084 110.322 95.1855 110.094 95.1934 109.809H96.7812C96.7773 110.238 96.6602 110.633 96.4297 110.992C96.1992 111.348 95.8828 111.625 95.4805 111.824C95.082 112.02 94.6406 112.117 94.1562 112.117C93.25 112.117 92.5352 111.83 92.0117 111.256C91.4883 110.678 91.2266 109.881 91.2266 108.865V108.754C91.2266 107.777 91.4863 106.998 92.0059 106.416C92.5254 105.834 93.2383 105.543 94.1445 105.543C94.9375 105.543 95.5723 105.77 96.0488 106.223C96.5293 106.672 96.7734 107.271 96.7812 108.021H95.1934C95.1855 107.693 95.084 107.428 94.8887 107.225C94.6934 107.018 94.4355 106.914 94.1152 106.914C93.7207 106.914 93.4219 107.059 93.2188 107.348C93.0195 107.633 92.9199 108.098 92.9199 108.742V108.918C92.9199 109.57 93.0195 110.039 93.2188 110.324C93.418 110.609 93.7207 110.752 94.127 110.752ZM100.666 112.117C99.7363 112.117 98.9785 111.832 98.3926 111.262C97.8105 110.691 97.5195 109.932 97.5195 108.982V108.818C97.5195 108.182 97.6426 107.613 97.8887 107.113C98.1348 106.609 98.4824 106.223 98.9316 105.953C99.3848 105.68 99.9004 105.543 100.479 105.543C101.346 105.543 102.027 105.816 102.523 106.363C103.023 106.91 103.273 107.686 103.273 108.689V109.381H99.2363C99.291 109.795 99.4551 110.127 99.7285 110.377C100.006 110.627 100.355 110.752 100.777 110.752C101.43 110.752 101.939 110.516 102.307 110.043L103.139 110.975C102.885 111.334 102.541 111.615 102.107 111.818C101.674 112.018 101.193 112.117 100.666 112.117ZM100.473 106.914C100.137 106.914 99.8633 107.027 99.6523 107.254C99.4453 107.48 99.3125 107.805 99.2539 108.227H101.609V108.092C101.602 107.717 101.5 107.428 101.305 107.225C101.109 107.018 100.832 106.914 100.473 106.914ZM107.158 108.666C107.158 109.549 107.031 110.398 106.777 111.215C106.523 112.031 106.158 112.752 105.682 113.377C105.205 114.002 104.695 114.432 104.152 114.666L103.824 113.77C104.379 113.352 104.816 112.707 105.137 111.836C105.457 110.965 105.623 109.963 105.635 108.83V108.52C105.635 107.352 105.475 106.322 105.154 105.432C104.838 104.541 104.395 103.873 103.824 103.428L104.152 102.531C104.684 102.762 105.184 103.18 105.652 103.785C106.125 104.391 106.49 105.096 106.748 105.9C107.01 106.705 107.146 107.539 107.158 108.402V108.666Z" fill="black"/>
<path d="M59.3242 135C59.2461 134.848 59.1895 134.658 59.1543 134.432C58.7441 134.889 58.2109 135.117 57.5547 135.117C56.9336 135.117 56.418 134.938 56.0078 134.578C55.6016 134.219 55.3984 133.766 55.3984 133.219C55.3984 132.547 55.6465 132.031 56.1426 131.672C56.6426 131.312 57.3633 131.131 58.3047 131.127H59.084V130.764C59.084 130.471 59.0078 130.236 58.8555 130.061C58.707 129.885 58.4707 129.797 58.1465 129.797C57.8613 129.797 57.6367 129.865 57.4727 130.002C57.3125 130.139 57.2324 130.326 57.2324 130.564H55.5391C55.5391 130.197 55.6523 129.857 55.8789 129.545C56.1055 129.232 56.4258 128.988 56.8398 128.812C57.2539 128.633 57.7188 128.543 58.2344 128.543C59.0156 128.543 59.6348 128.74 60.0918 129.135C60.5527 129.525 60.7832 130.076 60.7832 130.787V133.535C60.7871 134.137 60.8711 134.592 61.0352 134.9V135H59.3242ZM57.9238 133.822C58.1738 133.822 58.4043 133.768 58.6152 133.658C58.8262 133.545 58.9824 133.395 59.084 133.207V132.117H58.4512C57.6035 132.117 57.1523 132.41 57.0977 132.996L57.0918 133.096C57.0918 133.307 57.166 133.48 57.3145 133.617C57.4629 133.754 57.666 133.822 57.9238 133.822ZM62.5469 135V129.902H61.6035V128.66H62.5469V128.121C62.5469 127.41 62.75 126.859 63.1562 126.469C63.5664 126.074 64.1387 125.877 64.873 125.877C65.1074 125.877 65.3945 125.916 65.7344 125.994L65.7168 127.307C65.5762 127.271 65.4043 127.254 65.2012 127.254C64.5645 127.254 64.2461 127.553 64.2461 128.15V128.66H65.5059V129.902H64.2461V135H62.5469ZM68.4121 127.102V128.66H69.4961V129.902H68.4121V133.066C68.4121 133.301 68.457 133.469 68.5469 133.57C68.6367 133.672 68.8086 133.723 69.0625 133.723C69.25 133.723 69.416 133.709 69.5605 133.682V134.965C69.2285 135.066 68.8867 135.117 68.5352 135.117C67.3477 135.117 66.7422 134.518 66.7188 133.318V129.902H65.793V128.66H66.7188V127.102H68.4121ZM73.3574 135.117C72.4277 135.117 71.6699 134.832 71.084 134.262C70.502 133.691 70.2109 132.932 70.2109 131.982V131.818C70.2109 131.182 70.334 130.613 70.5801 130.113C70.8262 129.609 71.1738 129.223 71.623 128.953C72.0762 128.68 72.5918 128.543 73.1699 128.543C74.0371 128.543 74.7188 128.816 75.2148 129.363C75.7148 129.91 75.9648 130.686 75.9648 131.689V132.381H71.9277C71.9824 132.795 72.1465 133.127 72.4199 133.377C72.6973 133.627 73.0469 133.752 73.4688 133.752C74.1211 133.752 74.6309 133.516 74.998 133.043L75.8301 133.975C75.5762 134.334 75.2324 134.615 74.7988 134.818C74.3652 135.018 73.8848 135.117 73.3574 135.117ZM73.1641 129.914C72.8281 129.914 72.5547 130.027 72.3438 130.254C72.1367 130.48 72.0039 130.805 71.9453 131.227H74.3008V131.092C74.293 130.717 74.1914 130.428 73.9961 130.225C73.8008 130.018 73.5234 129.914 73.1641 129.914ZM80.4941 130.248C80.2637 130.217 80.0605 130.201 79.8848 130.201C79.2441 130.201 78.8242 130.418 78.625 130.852V135H76.9316V128.66H78.5312L78.5781 129.416C78.918 128.834 79.3887 128.543 79.9902 128.543C80.1777 128.543 80.3535 128.568 80.5176 128.619L80.4941 130.248ZM81.3906 131.531C81.3906 130.637 81.5098 129.785 81.748 128.977C81.9863 128.168 82.3379 127.453 82.8027 126.832C83.2676 126.207 83.7715 125.773 84.3145 125.531L84.6426 126.445C84.0723 126.867 83.627 127.52 83.3066 128.402C82.9863 129.285 82.8262 130.316 82.8262 131.496V131.678C82.8262 132.861 82.9844 133.896 83.3008 134.783C83.6172 135.67 84.0645 136.332 84.6426 136.77L84.3145 137.666C83.7832 137.428 83.2871 137.006 82.8262 136.4C82.3691 135.799 82.0195 135.104 81.7773 134.314C81.5352 133.525 81.4062 132.701 81.3906 131.842V131.531ZM91.3105 135H85.4629V133.84L88.2227 130.898C88.6016 130.484 88.8809 130.123 89.0605 129.814C89.2441 129.506 89.3359 129.213 89.3359 128.936C89.3359 128.557 89.2402 128.26 89.0488 128.045C88.8574 127.826 88.584 127.717 88.2285 127.717C87.8457 127.717 87.543 127.85 87.3203 128.115C87.1016 128.377 86.9922 128.723 86.9922 129.152H85.293C85.293 128.633 85.416 128.158 85.6621 127.729C85.9121 127.299 86.2637 126.963 86.7168 126.721C87.1699 126.475 87.6836 126.352 88.2578 126.352C89.1367 126.352 89.8184 126.562 90.3027 126.984C90.791 127.406 91.0352 128.002 91.0352 128.771C91.0352 129.193 90.9258 129.623 90.707 130.061C90.4883 130.498 90.1133 131.008 89.582 131.59L87.6426 133.635H91.3105V135ZM92.6055 130.805L93.0977 126.469H97.8789V127.881H94.4863L94.2754 129.715C94.6777 129.5 95.1055 129.393 95.5586 129.393C96.3711 129.393 97.0078 129.645 97.4688 130.148C97.9297 130.652 98.1602 131.357 98.1602 132.264C98.1602 132.814 98.043 133.309 97.8086 133.746C97.5781 134.18 97.2461 134.518 96.8125 134.76C96.3789 134.998 95.8672 135.117 95.2773 135.117C94.7617 135.117 94.2832 135.014 93.8418 134.807C93.4004 134.596 93.0508 134.301 92.793 133.922C92.5391 133.543 92.4043 133.111 92.3887 132.627H94.0645C94.0996 132.982 94.2227 133.26 94.4336 133.459C94.6484 133.654 94.9277 133.752 95.2715 133.752C95.6543 133.752 95.9492 133.615 96.1562 133.342C96.3633 133.064 96.4668 132.674 96.4668 132.17C96.4668 131.686 96.3477 131.314 96.1094 131.057C95.8711 130.799 95.5332 130.67 95.0957 130.67C94.6934 130.67 94.3672 130.775 94.1172 130.986L93.9531 131.139L92.6055 130.805ZM103.838 126.381V127.775H103.674C102.908 127.787 102.291 127.986 101.822 128.373C101.357 128.76 101.078 129.297 100.984 129.984C101.438 129.523 102.01 129.293 102.701 129.293C103.443 129.293 104.033 129.559 104.471 130.09C104.908 130.621 105.127 131.32 105.127 132.188C105.127 132.742 105.006 133.244 104.764 133.693C104.525 134.143 104.186 134.492 103.744 134.742C103.307 134.992 102.811 135.117 102.256 135.117C101.357 135.117 100.631 134.805 100.076 134.18C99.5254 133.555 99.25 132.721 99.25 131.678V131.068C99.25 130.143 99.4238 129.326 99.7715 128.619C100.123 127.908 100.625 127.359 101.277 126.973C101.934 126.582 102.693 126.385 103.557 126.381H103.838ZM102.186 130.652C101.912 130.652 101.664 130.725 101.441 130.869C101.219 131.01 101.055 131.197 100.949 131.432V131.947C100.949 132.514 101.061 132.957 101.283 133.277C101.506 133.594 101.818 133.752 102.221 133.752C102.584 133.752 102.877 133.609 103.1 133.324C103.326 133.035 103.439 132.662 103.439 132.205C103.439 131.74 103.326 131.365 103.1 131.08C102.873 130.795 102.568 130.652 102.186 130.652ZM109.123 131.666C109.123 132.549 108.996 133.398 108.742 134.215C108.488 135.031 108.123 135.752 107.646 136.377C107.17 137.002 106.66 137.432 106.117 137.666L105.789 136.77C106.344 136.352 106.781 135.707 107.102 134.836C107.422 133.965 107.588 132.963 107.6 131.83V131.52C107.6 130.352 107.439 129.322 107.119 128.432C106.803 127.541 106.359 126.873 105.789 126.428L106.117 125.531C106.648 125.762 107.148 126.18 107.617 126.785C108.09 127.391 108.455 128.096 108.713 128.9C108.975 129.705 109.111 130.539 109.123 131.402V131.666Z" fill="black"/>
<line x1="127" y1="68.5" x2="84" y2="68.5" stroke="black"/>
<path d="M83.6464 95.3536C83.8417 95.5488 84.1583 95.5488 84.3536 95.3536L87.5355 92.1716C87.7308 91.9763 87.7308 91.6597 87.5355 91.4645C87.3403 91.2692 87.0237 91.2692 86.8284 91.4645L84 94.2929L81.1716 91.4645C80.9763 91.2692 80.6597 91.2692 80.4645 91.4645C80.2692 91.6597 80.2692 91.9763 80.4645 92.1716L83.6464 95.3536ZM83.5 69L83.5 95L84.5 95L84.5 69L83.5 69Z" fill="black"/>
<path d="M58.6464 219.646C58.4512 219.842 58.4512 220.158 58.6464 220.354L61.8284 223.536C62.0237 223.731 62.3403 223.731 62.5355 223.536C62.7308 223.34 62.7308 223.024 62.5355 222.828L59.7071 220L62.5355 217.172C62.7308 216.976 62.7308 216.66 62.5355 216.464C62.3403 216.269 62.0237 216.269 61.8284 216.464L58.6464 219.646ZM83 219.5L59 219.5L59 220.5L83 220.5L83 219.5Z" fill="black"/>
<path d="M210.354 221.354C210.549 221.158 210.549 220.842 210.354 220.646L207.172 217.464C206.976 217.269 206.66 217.269 206.464 217.464C206.269 217.66 206.269 217.976 206.464 218.172L209.293 221L206.464 223.828C206.269 224.024 206.269 224.34 206.464 224.536C206.66 224.731 206.976 224.731 207.172 224.536L210.354 221.354ZM210 220.5L186 220.5L186 221.5L210 221.5L210 220.5Z" fill="black"/>
<line x1="185" y1="68.5" x2="142" y2="68.5" stroke="black"/>
<path d="M185.646 95.3536C185.842 95.5488 186.158 95.5488 186.354 95.3536L189.536 92.1716C189.731 91.9763 189.731 91.6597 189.536 91.4645C189.34 91.2692 189.024 91.2692 188.828 91.4645L186 94.2929L183.172 91.4645C182.976 91.2692 182.66 91.2692 182.464 91.4645C182.269 91.6597 182.269 91.9763 182.464 92.1716L185.646 95.3536ZM185.5 69L185.5 95L186.5 95L186.5 69L185.5 69Z" fill="black"/>
<path d="M77.7786 74.2214C75.6998 72.1449 72.9386 71 70 71C67.0614 71 64.3002 72.1449 62.2214 74.2214C60.1449 76.3002 59 79.0614 59 82C59 84.9386 60.1449 87.6998 62.2214 89.7786C64.3002 91.8551 67.0614 93 70 93C72.9386 93 75.6998 91.8551 77.7786 89.7786C79.8573 87.702 81 84.9386 81 82C81 79.0614 79.8551 76.3002 77.7786 74.2214ZM77.2914 89.2914C75.3451 91.24 72.7545 92.3131 70 92.3131C67.2455 92.3131 64.6549 91.24 62.7086 89.2937C60.76 87.3451 59.6869 84.7545 59.6869 82C59.6869 79.2455 60.76 76.6549 62.7063 74.7086C64.6549 72.76 67.2455 71.6869 70 71.6869C72.7545 71.6869 75.3451 72.76 77.2914 74.7063C79.24 76.6549 80.3108 79.2433 80.3108 81.9978C80.3108 84.7522 79.24 87.3451 77.2914 89.2914Z" fill="black"/>
<path d="M61.063 82C61.063 77.0725 65.0724 73.0631 70 73.0631C71.7779 73.0631 73.4953 73.5839 74.9657 74.5672C75.1228 74.6727 75.3361 74.63 75.4416 74.4729C75.5471 74.3158 75.5045 74.1025 75.3473 73.997C73.7624 72.9351 71.9149 72.3762 70 72.3762C67.4296 72.3762 65.0118 73.3774 63.1934 75.1958C61.3751 77.0141 60.3738 79.4296 60.3738 82.0023C60.3738 84.3751 61.2449 86.6537 62.8253 88.4182C62.8926 88.4945 62.9869 88.5327 63.0812 88.5327C63.162 88.5327 63.2451 88.5035 63.3102 88.4451C63.4516 88.3194 63.4628 88.1017 63.3371 87.9602C61.8712 86.3192 61.063 84.2023 61.063 82Z" fill="black"/>
<path d="M78.0031 76.6527C77.8976 76.4955 77.6843 76.4529 77.5271 76.5584C77.37 76.6639 77.3273 76.8772 77.4329 77.0343C78.4184 78.5047 78.9369 80.2221 78.9369 82C78.9369 86.9276 74.9276 90.937 70 90.937C67.9549 90.937 65.9569 90.2298 64.372 88.9435C64.2239 88.8245 64.0084 88.847 63.8894 88.9929C63.7704 89.1411 63.7929 89.3566 63.9388 89.4755C65.6449 90.8606 67.7978 91.6239 70 91.6239C72.5704 91.6239 74.9882 90.6227 76.8065 88.8043C78.6249 86.986 79.6261 84.5704 79.6261 81.9978C79.6261 80.0851 79.0649 78.2376 78.0031 76.6527Z" fill="black"/>
<path d="M75.958 75.3372C76.1892 75.5437 76.4114 75.7659 76.6202 75.9949C76.6875 76.069 76.7818 76.1072 76.8739 76.1072C76.9569 76.1072 77.04 76.078 77.1051 76.0174C77.2465 75.8894 77.2555 75.6716 77.1275 75.5325C76.9031 75.2855 76.6628 75.0476 76.4137 74.8253C76.2722 74.6996 76.0545 74.7108 75.9288 74.8523C75.8053 74.9937 75.8165 75.2114 75.958 75.3372Z" fill="black"/>
<path d="M70 75.4696C70.1908 75.4696 70.3435 75.3147 70.3435 75.1261V74.0957C70.3435 73.9049 70.1886 73.7523 70 73.7523C69.8092 73.7523 69.6566 73.9072 69.6566 74.0957V75.1261C69.6566 75.3147 69.8092 75.4696 70 75.4696Z" fill="black"/>
<path d="M69.6566 88.8761V89.9066C69.6566 90.0974 69.8115 90.25 70 90.25C70.1908 90.25 70.3435 90.0951 70.3435 89.9066V88.8761C70.3435 88.6853 70.1886 88.5327 70 88.5327C69.8092 88.5304 69.6566 88.6853 69.6566 88.8761Z" fill="black"/>
<path d="M63.4696 82C63.4696 81.8092 63.3147 81.6566 63.1261 81.6566H62.0957C61.9049 81.6566 61.7523 81.8115 61.7523 82C61.7523 82.1908 61.9072 82.3435 62.0957 82.3435H63.1261C63.3147 82.3435 63.4696 82.1908 63.4696 82Z" fill="black"/>
<path d="M76.5304 82C76.5304 82.1908 76.6853 82.3435 76.8739 82.3435H77.9043C78.0951 82.3435 78.2477 82.1886 78.2477 82C78.2477 81.8092 78.0928 81.6566 77.9043 81.6566H76.8739C76.6853 81.6566 76.5304 81.8092 76.5304 82Z" fill="black"/>
<path d="M66.8594 75.8737L66.3431 74.9802C66.2488 74.8164 66.0378 74.7602 65.8739 74.8545C65.71 74.9488 65.6539 75.1598 65.7482 75.3237L66.2645 76.2172C66.3274 76.3272 66.4441 76.39 66.5631 76.39C66.6215 76.39 66.6798 76.3743 66.7337 76.3429C66.8998 76.2486 66.9559 76.0376 66.8594 75.8737Z" fill="black"/>
<path d="M73.7355 87.7828C73.6413 87.619 73.4302 87.5628 73.2664 87.6571C73.1025 87.7514 73.0464 87.9624 73.1406 88.1263L73.657 89.0198C73.7198 89.1298 73.8366 89.1926 73.9555 89.1926C74.0139 89.1926 74.0723 89.1769 74.1262 89.1455C74.29 89.0512 74.3462 88.8402 74.2519 88.6763L73.7355 87.7828Z" fill="black"/>
<path d="M63.1531 86.2968C63.2115 86.2968 63.2698 86.281 63.3237 86.2496L64.2172 85.7333C64.381 85.639 64.4372 85.428 64.3429 85.2641C64.2486 85.1002 64.0376 85.0441 63.8737 85.1384L62.9802 85.6547C62.8164 85.749 62.7602 85.96 62.8545 86.1239C62.9196 86.2361 63.0341 86.2968 63.1531 86.2968Z" fill="black"/>
<path d="M75.9535 78.9066C76.0119 78.9066 76.0702 78.8908 76.1241 78.8594L77.0176 78.3431C77.1815 78.2488 77.2376 78.0378 77.1433 77.8739C77.049 77.71 76.838 77.6539 76.6741 77.7482L75.7806 78.2645C75.6168 78.3588 75.5606 78.5698 75.6549 78.7337C75.72 78.8437 75.8345 78.9066 75.9535 78.9066Z" fill="black"/>
<path d="M74.1262 74.8545C73.9623 74.7602 73.7513 74.8164 73.657 74.9802L73.1406 75.8737C73.0464 76.0376 73.1025 76.2486 73.2664 76.3429C73.3202 76.3743 73.3786 76.39 73.437 76.39C73.556 76.39 73.6704 76.3294 73.7355 76.2172L74.2519 75.3237C74.3462 75.1598 74.29 74.951 74.1262 74.8545Z" fill="black"/>
<path d="M66.7337 87.6571C66.5698 87.5628 66.3588 87.619 66.2645 87.7828L65.7482 88.6763C65.6539 88.8402 65.71 89.0512 65.8739 89.1455C65.9278 89.1769 65.9862 89.1926 66.0445 89.1926C66.1635 89.1926 66.278 89.132 66.3431 89.0198L66.8594 88.1263C66.9559 87.9624 66.8998 87.7514 66.7337 87.6571Z" fill="black"/>
<path d="M75.7829 85.7355L76.6763 86.2519C76.7302 86.2833 76.7886 86.299 76.8469 86.299C76.9659 86.299 77.0804 86.2384 77.1455 86.1262C77.2398 85.9623 77.1837 85.7513 77.0198 85.657L76.1263 85.1406C75.9625 85.0464 75.7514 85.1025 75.6572 85.2664C75.5606 85.4302 75.6167 85.6413 75.7829 85.7355Z" fill="black"/>
<path d="M64.2172 78.2645L63.3237 77.7482C63.1598 77.6539 62.9488 77.71 62.8545 77.8739C62.7602 78.0378 62.8164 78.2488 62.9802 78.3431L63.8737 78.8594C63.9276 78.8908 63.9859 78.9066 64.0443 78.9066C64.1633 78.9066 64.2778 78.8459 64.3429 78.7337C64.4394 78.5698 64.3833 78.3588 64.2172 78.2645Z" fill="black"/>
<path d="M72.3931 86.4876C72.4514 86.4876 72.5098 86.4719 72.5637 86.4404C72.7276 86.3461 72.7837 86.1351 72.6894 85.9712L70.7835 82.669C70.9384 82.4894 71.0304 82.2559 71.0304 82C71.0304 81.551 70.7431 81.1694 70.3435 81.028V76.5C70.3435 76.3092 70.1886 76.1566 70 76.1566C69.8092 76.1566 69.6565 76.3115 69.6565 76.5V81.028C69.257 81.1694 68.9696 81.551 68.9696 82C68.9696 82.568 69.4321 83.0304 70 83.0304C70.0651 83.0304 70.128 83.0237 70.1886 83.0125L72.0945 86.3147C72.1596 86.427 72.2741 86.4876 72.3931 86.4876ZM69.6565 82C69.6565 81.8115 69.8114 81.6566 70 81.6566C70.1886 81.6566 70.3435 81.8115 70.3435 82C70.3435 82.1886 70.1886 82.3435 70 82.3435C69.8114 82.3435 69.6565 82.1886 69.6565 82Z" fill="black"/>
<path d="M205.627 79.5544H203.57V76.6207C203.57 73.0808 202.044 71 198.999 71C195.953 71 194.428 73.0808 194.428 76.6207V79.5544H192.142C191.51 79.5544 191 80.3446 191 81.0202V90.5533C191 91.2245 191.489 91.945 192.087 92.1515L193.456 92.6251C194.054 92.8294 195.057 93 195.687 93H202.315C202.943 93 203.946 92.8294 204.544 92.6251L205.911 92.1515C206.509 91.9473 207 91.2267 207 90.5556V81.0202C206.998 80.3446 206.257 79.5544 205.627 79.5544ZM201.285 79.5544H196.713V76.1313C196.713 74.3648 197.624 73.4444 198.999 73.4444C200.374 73.4444 201.285 74.367 201.285 76.1313V79.5544Z" fill="black"/>
<line x1="83.5" y1="141" x2="83.5" y2="220" stroke="black"/>
<line x1="185.5" y1="142" x2="185.5" y2="221" stroke="black"/>
<path d="M268.393 213.848V201C268.393 198.23 266.164 196 263.394 196H217C214.23 196 212 198.23 212 201V231.892C212 234.662 214.23 236.892 217 236.892H229.3" stroke="black" stroke-width="2" stroke-linecap="round" stroke-linejoin="round"/>
<path d="M230.662 213.506V212.729C230.662 209.959 228.432 207.729 225.662 207.729H212V224.549H223.793" stroke="black" stroke-width="2" stroke-linecap="round" stroke-linejoin="round"/>
<path d="M221.331 220.182C223.564 220.182 225.374 218.372 225.374 216.139C225.374 213.907 223.564 212.097 221.331 212.097C219.099 212.097 217.289 213.907 217.289 216.139C217.289 218.372 219.099 220.182 221.331 220.182Z" stroke="black" stroke-width="2" stroke-linecap="round" stroke-linejoin="round"/>
<path fill-rule="evenodd" clip-rule="evenodd" d="M240.434 237.956L251.238 242.293L261.944 237.72L266.283 226.916L261.71 216.21L250.906 211.872L240.197 216.446L235.86 227.249L240.434 237.956ZM251.248 244.297C251.127 244.297 251.004 244.274 250.89 244.228L239.345 239.593C239.108 239.498 238.918 239.313 238.819 239.077L233.933 227.636C233.832 227.401 233.829 227.137 233.925 226.899L238.56 215.354C238.654 215.117 238.84 214.927 239.075 214.827L250.516 209.942C250.752 209.84 251.017 209.839 251.255 209.934L262.799 214.569C263.036 214.663 263.226 214.849 263.325 215.084L268.211 226.523C268.312 226.759 268.315 227.023 268.219 227.261L263.584 238.807C263.49 239.043 263.305 239.233 263.069 239.332L251.629 244.218C251.506 244.272 251.378 244.297 251.248 244.297Z" fill="black" stroke="black" stroke-width="0.589302"/>
<path d="M225.762 257V248.469H228.75C229.785 248.469 230.57 248.668 231.105 249.066C231.641 249.461 231.908 250.041 231.908 250.807C231.908 251.225 231.801 251.594 231.586 251.914C231.371 252.23 231.072 252.463 230.689 252.611C231.127 252.721 231.471 252.941 231.721 253.273C231.975 253.605 232.102 254.012 232.102 254.492C232.102 255.312 231.84 255.934 231.316 256.355C230.793 256.777 230.047 256.992 229.078 257H225.762ZM227.52 253.285V255.588H229.025C229.439 255.588 229.762 255.49 229.992 255.295C230.227 255.096 230.344 254.822 230.344 254.475C230.344 253.693 229.939 253.297 229.131 253.285H227.52ZM227.52 252.043H228.82C229.707 252.027 230.15 251.674 230.15 250.982C230.15 250.596 230.037 250.318 229.811 250.15C229.588 249.979 229.234 249.893 228.75 249.893H227.52V252.043ZM233.051 253.771C233.051 253.143 233.172 252.582 233.414 252.09C233.656 251.598 234.004 251.217 234.457 250.947C234.914 250.678 235.443 250.543 236.045 250.543C236.9 250.543 237.598 250.805 238.137 251.328C238.68 251.852 238.982 252.562 239.045 253.461L239.057 253.895C239.057 254.867 238.785 255.648 238.242 256.238C237.699 256.824 236.971 257.117 236.057 257.117C235.143 257.117 234.412 256.824 233.865 256.238C233.322 255.652 233.051 254.855 233.051 253.848V253.771ZM234.744 253.895C234.744 254.496 234.857 254.957 235.084 255.277C235.311 255.594 235.635 255.752 236.057 255.752C236.467 255.752 236.787 255.596 237.018 255.283C237.248 254.967 237.363 254.463 237.363 253.771C237.363 253.182 237.248 252.725 237.018 252.4C236.787 252.076 236.463 251.914 236.045 251.914C235.631 251.914 235.311 252.076 235.084 252.4C234.857 252.721 234.744 253.219 234.744 253.895ZM245.812 253.889C245.812 254.904 245.596 255.697 245.162 256.268C244.729 256.834 244.123 257.117 243.346 257.117C242.658 257.117 242.109 256.854 241.699 256.326L241.623 257H240.1V248H241.793V251.229C242.184 250.771 242.697 250.543 243.334 250.543C244.107 250.543 244.713 250.828 245.15 251.398C245.592 251.965 245.812 252.764 245.812 253.795V253.889ZM244.119 253.766C244.119 253.125 244.018 252.658 243.814 252.365C243.611 252.068 243.309 251.92 242.906 251.92C242.367 251.92 241.996 252.141 241.793 252.582V255.084C242 255.529 242.375 255.752 242.918 255.752C243.465 255.752 243.824 255.482 243.996 254.943C244.078 254.686 244.119 254.293 244.119 253.766Z" fill="black"/>
<path d="M255.41 225.73C256.446 225.158 257.094 224.149 256.943 222.469C256.739 220.174 254.911 219.404 252.605 219.184L252.604 216H250.817L250.816 219.101C250.346 219.101 249.867 219.111 249.39 219.121L249.389 216L247.604 216L247.603 219.184C247.216 219.192 246.836 219.201 246.465 219.201V219.191L244 219.19L244 221.26C244 221.26 245.32 221.233 245.298 221.259C246.022 221.26 246.258 221.716 246.326 222.109L246.327 225.737V230.833C246.295 231.08 246.161 231.474 245.655 231.475C245.678 231.497 244.355 231.475 244.355 231.475L244 233.789H246.326C246.759 233.79 247.185 233.797 247.603 233.801L247.604 237.021L249.389 237.022L249.389 233.835C249.88 233.846 250.354 233.851 250.817 233.85L250.817 237.022H252.604L252.605 233.807C255.609 233.62 257.712 232.799 257.974 229.738C258.184 227.274 257.115 226.174 255.41 225.73ZM249.432 221.4C250.44 221.4 253.61 221.052 253.611 223.336C253.61 225.526 250.441 225.27 249.432 225.27V221.4ZM249.432 231.491L249.432 227.224C250.643 227.223 254.442 226.846 254.443 229.356C254.443 231.764 250.643 231.49 249.432 231.491Z" fill="black"/>
<path d="M138.41 66.7302C139.446 66.1576 140.094 65.1492 139.943 63.4693C139.739 61.1735 137.911 60.4037 135.605 60.1844L135.604 57H133.817L133.816 60.1007C133.346 60.1007 132.867 60.1107 132.39 60.1211L132.389 57.0004L130.604 57.0002L130.603 60.1839C130.216 60.1925 129.836 60.2006 129.465 60.2006V60.1912L127 60.1901L127 62.26C127 62.26 128.32 62.2331 128.298 62.2592C129.022 62.2598 129.258 62.7156 129.326 63.1091L129.327 66.7369V71.8327C129.295 72.0796 129.161 72.4742 128.655 72.4749C128.678 72.4969 127.355 72.4747 127.355 72.4747L127 74.7893H129.326C129.759 74.7899 130.185 74.7972 130.603 74.8008L130.604 78.0213L132.389 78.0218L132.389 74.8351C132.88 74.846 133.354 74.8507 133.817 74.85L133.817 78.0218H135.604L135.605 74.8067C138.609 74.6195 140.712 73.7986 140.974 70.7381C141.184 68.2741 140.115 67.1742 138.41 66.7302ZM132.432 62.3997C133.44 62.3997 136.61 62.0515 136.611 64.3357C136.61 66.5256 133.441 66.2698 132.432 66.2698V62.3997ZM132.432 72.4906L132.432 68.2235C133.643 68.2232 137.442 67.8455 137.443 70.3561C137.443 72.7638 133.643 72.4897 132.432 72.4906Z" fill="black"/>
<path d="M128.205 0.0423965C126.18 0.343483 124.448 1.84249 123.75 3.89581C123.367 5.00444 123.38 4.67621 123.38 15.8936V26.2555H121.649C119.993 26.2555 119.903 26.2623 119.616 26.4063C119.24 26.5977 119 27.0152 119 27.4874C119 28.8492 119.459 30.4715 120.184 31.6965C120.567 32.3605 121.519 33.387 122.101 33.7773C123.004 34.3863 124.14 34.8038 125.297 34.9478C125.769 35.0024 128.26 35.0163 134.365 35.0024C142.243 34.982 142.811 34.9681 143.194 34.8517C145.145 34.2631 146.534 32.8462 147.178 30.7933L147.369 30.1911L147.404 19.4455L147.438 8.70034L150.394 8.66606C153.242 8.63177 153.358 8.62498 153.536 8.48819C153.96 8.17317 154.008 8.03638 154.001 7.20848C153.974 5.29195 153.337 3.35507 152.304 2.04786C151.763 1.37032 151.181 0.891373 150.449 0.528496C149.32 -0.0326042 150.333 0.0152512 138.814 0.0013237C133.168 -0.00546265 128.39 0.0148964 128.205 0.0423965ZM149.799 2.6911C150.955 3.26614 151.77 4.53227 151.804 5.79841C151.818 6.17485 151.797 6.2295 151.626 6.38022L151.435 6.54452H149.415H147.403V5.49732C147.403 3.84116 147.547 3.28649 148.081 2.84182C148.635 2.3693 149.087 2.32823 149.799 2.6911ZM131.566 11.0683C132.107 11.3283 132.332 12.0127 132.059 12.533C131.997 12.6427 131.115 13.5667 130.088 14.5796L128.226 16.4207L130.15 18.3441C132.237 20.4317 132.292 20.5067 132.141 21.0474C132.004 21.5746 131.6 21.8892 131.08 21.8892C130.916 21.8892 130.711 21.8482 130.615 21.7935C130.348 21.6499 125.804 17.1465 125.68 16.9C125.544 16.6333 125.537 16.2636 125.667 15.9693C125.797 15.6682 130.328 11.1648 130.636 11.0347C130.963 10.8905 131.224 10.8972 131.566 11.0683ZM140.203 11.0408C140.32 11.1094 141.483 12.2248 142.783 13.5252C144.768 15.51 145.158 15.9275 145.22 16.1604C145.377 16.7283 145.343 16.7693 142.797 19.3291C141.51 20.6227 140.368 21.7314 140.251 21.786C139.799 22.0325 139.142 21.8749 138.827 21.4506C138.636 21.1906 138.595 20.6567 138.745 20.342C138.821 20.1913 139.615 19.3562 140.737 18.2612L142.612 16.4268L140.723 14.5517C139.69 13.5181 138.793 12.5873 138.739 12.4848C138.615 12.252 138.615 11.7937 138.739 11.5541C139.026 10.9997 139.69 10.7672 140.203 11.0408ZM138.718 28.6442C138.896 28.8221 138.917 28.8975 138.917 29.2532C138.917 29.9307 139.252 30.5057 140.155 31.4022C140.641 31.8812 140.901 32.1823 140.901 32.2783C140.901 32.3605 140.813 32.518 140.703 32.6273L140.504 32.8259H132.688C123.969 32.8259 124.29 32.8394 123.277 32.3469C122.093 31.7719 121.293 30.5947 121.217 29.3353C121.183 28.8014 121.224 28.6853 121.498 28.5278C121.6 28.4731 123.859 28.4524 130.074 28.4456H138.52L138.718 28.6442Z" fill="black"/>
<path d="M131.084 44.248C131.084 44.041 130.98 43.8789 130.773 43.7617C130.57 43.6406 130.242 43.5332 129.789 43.4395C128.281 43.123 127.527 42.4824 127.527 41.5176C127.527 40.9551 127.76 40.4863 128.225 40.1113C128.693 39.7324 129.305 39.543 130.059 39.543C130.863 39.543 131.506 39.7324 131.986 40.1113C132.471 40.4902 132.713 40.9824 132.713 41.5879H131.02C131.02 41.3457 130.941 41.1465 130.785 40.9902C130.629 40.8301 130.385 40.75 130.053 40.75C129.768 40.75 129.547 40.8145 129.391 40.9434C129.234 41.0723 129.156 41.2363 129.156 41.4355C129.156 41.623 129.244 41.7754 129.42 41.8926C129.6 42.0059 129.9 42.1055 130.322 42.1914C130.744 42.2734 131.1 42.3672 131.389 42.4727C132.283 42.8008 132.73 43.3691 132.73 44.1777C132.73 44.7559 132.482 45.2246 131.986 45.584C131.49 45.9395 130.85 46.1172 130.064 46.1172C129.533 46.1172 129.061 46.0234 128.646 45.8359C128.236 45.6445 127.914 45.3848 127.68 45.0566C127.445 44.7246 127.328 44.3672 127.328 43.9844H128.934C128.949 44.2852 129.061 44.5156 129.268 44.6758C129.475 44.8359 129.752 44.916 130.1 44.916C130.424 44.916 130.668 44.8555 130.832 44.7344C131 44.6094 131.084 44.4473 131.084 44.248ZM136.463 44.752C136.775 44.752 137.029 44.666 137.225 44.4941C137.42 44.3223 137.521 44.0938 137.529 43.8086H139.117C139.113 44.2383 138.996 44.6328 138.766 44.9922C138.535 45.3477 138.219 45.625 137.816 45.8242C137.418 46.0195 136.977 46.1172 136.492 46.1172C135.586 46.1172 134.871 45.8301 134.348 45.2559C133.824 44.6777 133.562 43.8809 133.562 42.8652V42.7539C133.562 41.7773 133.822 40.998 134.342 40.416C134.861 39.834 135.574 39.543 136.48 39.543C137.273 39.543 137.908 39.7695 138.385 40.2227C138.865 40.6719 139.109 41.2715 139.117 42.0215H137.529C137.521 41.6934 137.42 41.4277 137.225 41.2246C137.029 41.0176 136.771 40.9141 136.451 40.9141C136.057 40.9141 135.758 41.0586 135.555 41.3477C135.355 41.6328 135.256 42.0977 135.256 42.7422V42.918C135.256 43.5703 135.355 44.0391 135.555 44.3242C135.754 44.6094 136.057 44.752 136.463 44.752ZM144.127 46H142.434V39.4727L140.412 40.0996V38.7227L143.945 37.457H144.127V46Z" fill="black"/>
</svg>
