<svg width="270" height="261" viewBox="0 0 270 261" fill="none" xmlns="http://www.w3.org/2000/svg">
<path fill-rule="evenodd" clip-rule="evenodd" d="M139.298 62V64.1957H132.112L136.633 68.9295L132.006 74.0253H139.298V76.221H129V74.0253L133.584 68.9507L129.021 64.1957V62H139.298Z" fill="black" stroke="black" stroke-width="0.589302"/>
<path fill-rule="evenodd" clip-rule="evenodd" d="M45.2984 223V225.196H38.1122L42.6331 229.929L38.0061 235.025H45.2984V237.221H35V235.025L39.5838 229.951L35.0205 225.196V223H45.2984Z" fill="black" stroke="black" stroke-width="0.589302"/>
<path fill-rule="evenodd" clip-rule="evenodd" d="M256.298 220V222.196H249.112L253.633 226.929L249.006 232.025H256.298V234.221H246V232.025L250.584 226.951L246.021 222.196V220H256.298Z" fill="black" stroke="black" stroke-width="0.589302"/>
<rect x="29.5" y="49.5" width="210" height="103" rx="4.5" stroke="black"/>
<path d="M57.3935 216.848V204C57.3935 201.23 55.1638 199 52.3938 199H5.99969C3.2297 199 1 201.23 1 204V234.892C1 237.662 3.2297 239.892 5.99969 239.892H18.3002" stroke="black" stroke-width="2" stroke-linecap="round" stroke-linejoin="round"/>
<path d="M19.6624 216.777V216C19.6624 213.23 17.4322 211 14.6622 211H1V227.82H12.7926" stroke="black" stroke-width="2" stroke-linecap="round" stroke-linejoin="round"/>
<path d="M10.3313 223.182C12.5639 223.182 14.3737 221.372 14.3737 219.139C14.3737 216.907 12.5639 215.097 10.3313 215.097C8.09868 215.097 6.28882 216.907 6.28882 219.139C6.28882 221.372 8.09868 223.182 10.3313 223.182Z" stroke="black" stroke-width="2" stroke-linecap="round" stroke-linejoin="round"/>
<path fill-rule="evenodd" clip-rule="evenodd" d="M29.4337 240.956L40.2377 245.293L50.9441 240.72L55.2826 229.916L50.7101 219.21L39.906 214.872L29.1968 219.446L24.8597 230.249L29.4337 240.956ZM40.2483 247.297C40.1267 247.297 40.0036 247.274 39.8898 247.228L28.3446 242.593C28.1077 242.498 27.9175 242.313 27.8192 242.077L22.9327 230.636C22.8316 230.401 22.8288 230.137 22.9249 229.899L27.5597 218.354C27.6545 218.117 27.8397 217.927 28.0752 217.827L39.5164 212.942C39.7519 212.84 40.0171 212.839 40.2547 212.934L51.7991 217.569C52.036 217.663 52.2255 217.849 52.3252 218.084L57.211 229.523C57.3121 229.759 57.315 230.023 57.2188 230.261L52.5841 241.807C52.49 242.043 52.3047 242.233 52.0685 242.332L40.6288 247.218C40.5057 247.272 40.3777 247.297 40.2483 247.297Z" fill="black" stroke="black" stroke-width="0.589302"/>
<path d="M20.5781 256.242H17.4961L16.9102 258H15.041L18.2168 249.469H19.8457L23.0391 258H21.1699L20.5781 256.242ZM17.9707 254.818H20.1035L19.0312 251.625L17.9707 254.818ZM25.5117 258H23.8125V249H25.5117V258ZM28.6992 258H27V251.66H28.6992V258ZM26.9004 250.02C26.9004 249.766 26.9844 249.557 27.1523 249.393C27.3242 249.229 27.5566 249.146 27.8496 249.146C28.1387 249.146 28.3691 249.229 28.541 249.393C28.7129 249.557 28.7988 249.766 28.7988 250.02C28.7988 250.277 28.7109 250.488 28.5352 250.652C28.3633 250.816 28.1348 250.898 27.8496 250.898C27.5645 250.898 27.334 250.816 27.1582 250.652C26.9863 250.488 26.9004 250.277 26.9004 250.02ZM32.7363 256.752C33.0488 256.752 33.3027 256.666 33.498 256.494C33.6934 256.322 33.7949 256.094 33.8027 255.809H35.3906C35.3867 256.238 35.2695 256.633 35.0391 256.992C34.8086 257.348 34.4922 257.625 34.0898 257.824C33.6914 258.02 33.25 258.117 32.7656 258.117C31.8594 258.117 31.1445 257.83 30.6211 257.256C30.0977 256.678 29.8359 255.881 29.8359 254.865V254.754C29.8359 253.777 30.0957 252.998 30.6152 252.416C31.1348 251.834 31.8477 251.543 32.7539 251.543C33.5469 251.543 34.1816 251.77 34.6582 252.223C35.1387 252.672 35.3828 253.271 35.3906 254.021H33.8027C33.7949 253.693 33.6934 253.428 33.498 253.225C33.3027 253.018 33.0449 252.914 32.7246 252.914C32.3301 252.914 32.0312 253.059 31.8281 253.348C31.6289 253.633 31.5293 254.098 31.5293 254.742V254.918C31.5293 255.57 31.6289 256.039 31.8281 256.324C32.0273 256.609 32.3301 256.752 32.7363 256.752ZM39.2754 258.117C38.3457 258.117 37.5879 257.832 37.002 257.262C36.4199 256.691 36.1289 255.932 36.1289 254.982V254.818C36.1289 254.182 36.252 253.613 36.498 253.113C36.7441 252.609 37.0918 252.223 37.541 251.953C37.9941 251.68 38.5098 251.543 39.0879 251.543C39.9551 251.543 40.6367 251.816 41.1328 252.363C41.6328 252.91 41.8828 253.686 41.8828 254.689V255.381H37.8457C37.9004 255.795 38.0645 256.127 38.3379 256.377C38.6152 256.627 38.9648 256.752 39.3867 256.752C40.0391 256.752 40.5488 256.516 40.916 256.043L41.748 256.975C41.4941 257.334 41.1504 257.615 40.7168 257.818C40.2832 258.018 39.8027 258.117 39.2754 258.117ZM39.082 252.914C38.7461 252.914 38.4727 253.027 38.2617 253.254C38.0547 253.48 37.9219 253.805 37.8633 254.227H40.2188V254.092C40.2109 253.717 40.1094 253.428 39.9141 253.225C39.7188 253.018 39.4414 252.914 39.082 252.914Z" fill="black"/>
<path d="M145.5 100C145.5 97.5147 147.515 95.5 150 95.5H231C233.485 95.5 235.5 97.5147 235.5 100V137C235.5 139.485 233.485 141.5 231 141.5H150C147.515 141.5 145.5 139.485 145.5 137V100Z" stroke="black"/>
<path d="M176.357 108.889C176.357 109.865 176.135 110.648 175.689 111.238C175.248 111.824 174.65 112.117 173.896 112.117C173.256 112.117 172.738 111.895 172.344 111.449V114.438H170.65V105.66H172.221L172.279 106.281C172.689 105.789 173.225 105.543 173.885 105.543C174.666 105.543 175.273 105.832 175.707 106.41C176.141 106.988 176.357 107.785 176.357 108.801V108.889ZM174.664 108.766C174.664 108.176 174.559 107.721 174.348 107.4C174.141 107.08 173.838 106.92 173.439 106.92C172.908 106.92 172.543 107.123 172.344 107.529V110.125C172.551 110.543 172.92 110.752 173.451 110.752C174.26 110.752 174.664 110.09 174.664 108.766ZM179.715 109.457L179.105 110.066V112H177.412V103H179.105V107.986L179.434 107.564L181.057 105.66H183.09L180.799 108.303L183.289 112H181.344L179.715 109.457ZM183.898 108.531C183.898 107.637 184.018 106.785 184.256 105.977C184.494 105.168 184.846 104.453 185.311 103.832C185.775 103.207 186.279 102.773 186.822 102.531L187.15 103.445C186.58 103.867 186.135 104.52 185.814 105.402C185.494 106.285 185.334 107.316 185.334 108.496V108.678C185.334 109.861 185.492 110.896 185.809 111.783C186.125 112.67 186.572 113.332 187.15 113.77L186.822 114.666C186.291 114.428 185.795 114.006 185.334 113.4C184.877 112.799 184.527 112.104 184.285 111.314C184.043 110.525 183.914 109.701 183.898 108.842V108.531ZM188.152 112V103.469H191.141C192.176 103.469 192.961 103.668 193.496 104.066C194.031 104.461 194.299 105.041 194.299 105.807C194.299 106.225 194.191 106.594 193.977 106.914C193.762 107.23 193.463 107.463 193.08 107.611C193.518 107.721 193.861 107.941 194.111 108.273C194.365 108.605 194.492 109.012 194.492 109.492C194.492 110.312 194.23 110.934 193.707 111.355C193.184 111.777 192.438 111.992 191.469 112H188.152ZM189.91 108.285V110.588H191.416C191.83 110.588 192.152 110.49 192.383 110.295C192.617 110.096 192.734 109.822 192.734 109.475C192.734 108.693 192.33 108.297 191.521 108.285H189.91ZM189.91 107.043H191.211C192.098 107.027 192.541 106.674 192.541 105.982C192.541 105.596 192.428 105.318 192.201 105.15C191.979 104.979 191.625 104.893 191.141 104.893H189.91V107.043ZM195.441 108.771C195.441 108.143 195.562 107.582 195.805 107.09C196.047 106.598 196.395 106.217 196.848 105.947C197.305 105.678 197.834 105.543 198.436 105.543C199.291 105.543 199.988 105.805 200.527 106.328C201.07 106.852 201.373 107.562 201.436 108.461L201.447 108.895C201.447 109.867 201.176 110.648 200.633 111.238C200.09 111.824 199.361 112.117 198.447 112.117C197.533 112.117 196.803 111.824 196.256 111.238C195.713 110.652 195.441 109.855 195.441 108.848V108.771ZM197.135 108.895C197.135 109.496 197.248 109.957 197.475 110.277C197.701 110.594 198.025 110.752 198.447 110.752C198.857 110.752 199.178 110.596 199.408 110.283C199.639 109.967 199.754 109.463 199.754 108.771C199.754 108.182 199.639 107.725 199.408 107.4C199.178 107.076 198.854 106.914 198.436 106.914C198.021 106.914 197.701 107.076 197.475 107.4C197.248 107.721 197.135 108.219 197.135 108.895ZM208.203 108.889C208.203 109.904 207.986 110.697 207.553 111.268C207.119 111.834 206.514 112.117 205.736 112.117C205.049 112.117 204.5 111.854 204.09 111.326L204.014 112H202.49V103H204.184V106.229C204.574 105.771 205.088 105.543 205.725 105.543C206.498 105.543 207.104 105.828 207.541 106.398C207.982 106.965 208.203 107.764 208.203 108.795V108.889ZM206.51 108.766C206.51 108.125 206.408 107.658 206.205 107.365C206.002 107.068 205.699 106.92 205.297 106.92C204.758 106.92 204.387 107.141 204.184 107.582V110.084C204.391 110.529 204.766 110.752 205.309 110.752C205.855 110.752 206.215 110.482 206.387 109.943C206.469 109.686 206.51 109.293 206.51 108.766ZM212.17 108.666C212.17 109.549 212.043 110.398 211.789 111.215C211.535 112.031 211.17 112.752 210.693 113.377C210.217 114.002 209.707 114.432 209.164 114.666L208.836 113.77C209.391 113.352 209.828 112.707 210.148 111.836C210.469 110.965 210.635 109.963 210.646 108.83V108.52C210.646 107.352 210.486 106.322 210.166 105.432C209.85 104.541 209.406 103.873 208.836 103.428L209.164 102.531C209.695 102.762 210.195 103.18 210.664 103.785C211.137 104.391 211.502 105.096 211.76 105.9C212.021 106.705 212.158 107.539 212.17 108.402V108.666Z" fill="black"/>
<path d="M167.324 135C167.246 134.848 167.189 134.658 167.154 134.432C166.744 134.889 166.211 135.117 165.555 135.117C164.934 135.117 164.418 134.938 164.008 134.578C163.602 134.219 163.398 133.766 163.398 133.219C163.398 132.547 163.646 132.031 164.143 131.672C164.643 131.312 165.363 131.131 166.305 131.127H167.084V130.764C167.084 130.471 167.008 130.236 166.855 130.061C166.707 129.885 166.471 129.797 166.146 129.797C165.861 129.797 165.637 129.865 165.473 130.002C165.312 130.139 165.232 130.326 165.232 130.564H163.539C163.539 130.197 163.652 129.857 163.879 129.545C164.105 129.232 164.426 128.988 164.84 128.812C165.254 128.633 165.719 128.543 166.234 128.543C167.016 128.543 167.635 128.74 168.092 129.135C168.553 129.525 168.783 130.076 168.783 130.787V133.535C168.787 134.137 168.871 134.592 169.035 134.9V135H167.324ZM165.924 133.822C166.174 133.822 166.404 133.768 166.615 133.658C166.826 133.545 166.982 133.395 167.084 133.207V132.117H166.451C165.604 132.117 165.152 132.41 165.098 132.996L165.092 133.096C165.092 133.307 165.166 133.48 165.314 133.617C165.463 133.754 165.666 133.822 165.924 133.822ZM170.547 135V129.902H169.604V128.66H170.547V128.121C170.547 127.41 170.75 126.859 171.156 126.469C171.566 126.074 172.139 125.877 172.873 125.877C173.107 125.877 173.395 125.916 173.734 125.994L173.717 127.307C173.576 127.271 173.404 127.254 173.201 127.254C172.564 127.254 172.246 127.553 172.246 128.15V128.66H173.506V129.902H172.246V135H170.547ZM176.412 127.102V128.66H177.496V129.902H176.412V133.066C176.412 133.301 176.457 133.469 176.547 133.57C176.637 133.672 176.809 133.723 177.062 133.723C177.25 133.723 177.416 133.709 177.561 133.682V134.965C177.229 135.066 176.887 135.117 176.535 135.117C175.348 135.117 174.742 134.518 174.719 133.318V129.902H173.793V128.66H174.719V127.102H176.412ZM181.357 135.117C180.428 135.117 179.67 134.832 179.084 134.262C178.502 133.691 178.211 132.932 178.211 131.982V131.818C178.211 131.182 178.334 130.613 178.58 130.113C178.826 129.609 179.174 129.223 179.623 128.953C180.076 128.68 180.592 128.543 181.17 128.543C182.037 128.543 182.719 128.816 183.215 129.363C183.715 129.91 183.965 130.686 183.965 131.689V132.381H179.928C179.982 132.795 180.146 133.127 180.42 133.377C180.697 133.627 181.047 133.752 181.469 133.752C182.121 133.752 182.631 133.516 182.998 133.043L183.83 133.975C183.576 134.334 183.232 134.615 182.799 134.818C182.365 135.018 181.885 135.117 181.357 135.117ZM181.164 129.914C180.828 129.914 180.555 130.027 180.344 130.254C180.137 130.48 180.004 130.805 179.945 131.227H182.301V131.092C182.293 130.717 182.191 130.428 181.996 130.225C181.801 130.018 181.523 129.914 181.164 129.914ZM188.494 130.248C188.264 130.217 188.061 130.201 187.885 130.201C187.244 130.201 186.824 130.418 186.625 130.852V135H184.932V128.66H186.531L186.578 129.416C186.918 128.834 187.389 128.543 187.99 128.543C188.178 128.543 188.354 128.568 188.518 128.619L188.494 130.248ZM189.391 131.531C189.391 130.637 189.51 129.785 189.748 128.977C189.986 128.168 190.338 127.453 190.803 126.832C191.268 126.207 191.771 125.773 192.314 125.531L192.643 126.445C192.072 126.867 191.627 127.52 191.307 128.402C190.986 129.285 190.826 130.316 190.826 131.496V131.678C190.826 132.861 190.984 133.896 191.301 134.783C191.617 135.67 192.064 136.332 192.643 136.77L192.314 137.666C191.783 137.428 191.287 137.006 190.826 136.4C190.369 135.799 190.02 135.104 189.777 134.314C189.535 133.525 189.406 132.701 189.391 131.842V131.531ZM197.576 135H195.883V128.473L193.861 129.1V127.723L197.395 126.457H197.576V135ZM206.201 135H200.354V133.84L203.113 130.898C203.492 130.484 203.771 130.123 203.951 129.814C204.135 129.506 204.227 129.213 204.227 128.936C204.227 128.557 204.131 128.26 203.939 128.045C203.748 127.826 203.475 127.717 203.119 127.717C202.736 127.717 202.434 127.85 202.211 128.115C201.992 128.377 201.883 128.723 201.883 129.152H200.184C200.184 128.633 200.307 128.158 200.553 127.729C200.803 127.299 201.154 126.963 201.607 126.721C202.061 126.475 202.574 126.352 203.148 126.352C204.027 126.352 204.709 126.562 205.193 126.984C205.682 127.406 205.926 128.002 205.926 128.771C205.926 129.193 205.816 129.623 205.598 130.061C205.379 130.498 205.004 131.008 204.473 131.59L202.533 133.635H206.201V135ZM212.805 128.736C212.805 129.15 212.701 129.518 212.494 129.838C212.287 130.158 212.002 130.414 211.639 130.605C212.053 130.805 212.381 131.08 212.623 131.432C212.865 131.779 212.986 132.189 212.986 132.662C212.986 133.42 212.729 134.02 212.213 134.461C211.697 134.898 210.996 135.117 210.109 135.117C209.223 135.117 208.52 134.896 208 134.455C207.48 134.014 207.221 133.416 207.221 132.662C207.221 132.189 207.342 131.777 207.584 131.426C207.826 131.074 208.152 130.801 208.562 130.605C208.199 130.414 207.914 130.158 207.707 129.838C207.504 129.518 207.402 129.15 207.402 128.736C207.402 128.01 207.645 127.432 208.129 127.002C208.613 126.568 209.271 126.352 210.104 126.352C210.932 126.352 211.588 126.566 212.072 126.996C212.561 127.422 212.805 128.002 212.805 128.736ZM211.287 132.539C211.287 132.168 211.18 131.871 210.965 131.648C210.75 131.426 210.461 131.314 210.098 131.314C209.738 131.314 209.451 131.426 209.236 131.648C209.021 131.867 208.914 132.164 208.914 132.539C208.914 132.902 209.02 133.195 209.23 133.418C209.441 133.641 209.734 133.752 210.109 133.752C210.477 133.752 210.764 133.645 210.971 133.43C211.182 133.215 211.287 132.918 211.287 132.539ZM211.111 128.818C211.111 128.486 211.023 128.221 210.848 128.021C210.672 127.818 210.424 127.717 210.104 127.717C209.787 127.717 209.541 127.814 209.365 128.01C209.189 128.205 209.102 128.475 209.102 128.818C209.102 129.158 209.189 129.432 209.365 129.639C209.541 129.846 209.789 129.949 210.109 129.949C210.43 129.949 210.676 129.846 210.848 129.639C211.023 129.432 211.111 129.158 211.111 128.818ZM217.123 131.666C217.123 132.549 216.996 133.398 216.742 134.215C216.488 135.031 216.123 135.752 215.646 136.377C215.17 137.002 214.66 137.432 214.117 137.666L213.789 136.77C214.344 136.352 214.781 135.707 215.102 134.836C215.422 133.965 215.588 132.963 215.6 131.83V131.52C215.6 130.352 215.439 129.322 215.119 128.432C214.803 127.541 214.359 126.873 213.789 126.428L214.117 125.531C214.648 125.762 215.148 126.18 215.617 126.785C216.09 127.391 216.455 128.096 216.713 128.9C216.975 129.705 217.111 130.539 217.123 131.402V131.666Z" fill="black"/>
<path d="M39.5 100C39.5 97.5147 41.5147 95.5 44 95.5H122C124.485 95.5 126.5 97.5147 126.5 100V137C126.5 139.485 124.485 141.5 122 141.5H44C41.5147 141.5 39.5 139.485 39.5 137V100Z" stroke="black"/>
<path d="M65.3574 108.889C65.3574 109.865 65.1348 110.648 64.6895 111.238C64.248 111.824 63.6504 112.117 62.8965 112.117C62.2559 112.117 61.7383 111.895 61.3438 111.449V114.438H59.6504V105.66H61.2207L61.2793 106.281C61.6895 105.789 62.2246 105.543 62.8848 105.543C63.666 105.543 64.2734 105.832 64.707 106.41C65.1406 106.988 65.3574 107.785 65.3574 108.801V108.889ZM63.6641 108.766C63.6641 108.176 63.5586 107.721 63.3477 107.4C63.1406 107.08 62.8379 106.92 62.4395 106.92C61.9082 106.92 61.543 107.123 61.3438 107.529V110.125C61.5508 110.543 61.9199 110.752 62.4512 110.752C63.2598 110.752 63.6641 110.09 63.6641 108.766ZM68.7148 109.457L68.1055 110.066V112H66.4121V103H68.1055V107.986L68.4336 107.564L70.0566 105.66H72.0898L69.7988 108.303L72.2891 112H70.3438L68.7148 109.457ZM72.8984 108.531C72.8984 107.637 73.0176 106.785 73.2559 105.977C73.4941 105.168 73.8457 104.453 74.3105 103.832C74.7754 103.207 75.2793 102.773 75.8223 102.531L76.1504 103.445C75.5801 103.867 75.1348 104.52 74.8145 105.402C74.4941 106.285 74.334 107.316 74.334 108.496V108.678C74.334 109.861 74.4922 110.896 74.8086 111.783C75.125 112.67 75.5723 113.332 76.1504 113.77L75.8223 114.666C75.291 114.428 74.7949 114.006 74.334 113.4C73.877 112.799 73.5273 112.104 73.2852 111.314C73.043 110.525 72.9141 109.701 72.8984 108.842V108.531ZM81.9688 110.242H78.8867L78.3008 112H76.4316L79.6074 103.469H81.2363L84.4297 112H82.5605L81.9688 110.242ZM79.3613 108.818H81.4941L80.4219 105.625L79.3613 108.818ZM86.9023 112H85.2031V103H86.9023V112ZM90.0898 112H88.3906V105.66H90.0898V112ZM88.291 104.02C88.291 103.766 88.375 103.557 88.543 103.393C88.7148 103.229 88.9473 103.146 89.2402 103.146C89.5293 103.146 89.7598 103.229 89.9316 103.393C90.1035 103.557 90.1895 103.766 90.1895 104.02C90.1895 104.277 90.1016 104.488 89.9258 104.652C89.7539 104.816 89.5254 104.898 89.2402 104.898C88.9551 104.898 88.7246 104.816 88.5488 104.652C88.377 104.488 88.291 104.277 88.291 104.02ZM94.127 110.752C94.4395 110.752 94.6934 110.666 94.8887 110.494C95.084 110.322 95.1855 110.094 95.1934 109.809H96.7812C96.7773 110.238 96.6602 110.633 96.4297 110.992C96.1992 111.348 95.8828 111.625 95.4805 111.824C95.082 112.02 94.6406 112.117 94.1562 112.117C93.25 112.117 92.5352 111.83 92.0117 111.256C91.4883 110.678 91.2266 109.881 91.2266 108.865V108.754C91.2266 107.777 91.4863 106.998 92.0059 106.416C92.5254 105.834 93.2383 105.543 94.1445 105.543C94.9375 105.543 95.5723 105.77 96.0488 106.223C96.5293 106.672 96.7734 107.271 96.7812 108.021H95.1934C95.1855 107.693 95.084 107.428 94.8887 107.225C94.6934 107.018 94.4355 106.914 94.1152 106.914C93.7207 106.914 93.4219 107.059 93.2188 107.348C93.0195 107.633 92.9199 108.098 92.9199 108.742V108.918C92.9199 109.57 93.0195 110.039 93.2188 110.324C93.418 110.609 93.7207 110.752 94.127 110.752ZM100.666 112.117C99.7363 112.117 98.9785 111.832 98.3926 111.262C97.8105 110.691 97.5195 109.932 97.5195 108.982V108.818C97.5195 108.182 97.6426 107.613 97.8887 107.113C98.1348 106.609 98.4824 106.223 98.9316 105.953C99.3848 105.68 99.9004 105.543 100.479 105.543C101.346 105.543 102.027 105.816 102.523 106.363C103.023 106.91 103.273 107.686 103.273 108.689V109.381H99.2363C99.291 109.795 99.4551 110.127 99.7285 110.377C100.006 110.627 100.355 110.752 100.777 110.752C101.43 110.752 101.939 110.516 102.307 110.043L103.139 110.975C102.885 111.334 102.541 111.615 102.107 111.818C101.674 112.018 101.193 112.117 100.666 112.117ZM100.473 106.914C100.137 106.914 99.8633 107.027 99.6523 107.254C99.4453 107.48 99.3125 107.805 99.2539 108.227H101.609V108.092C101.602 107.717 101.5 107.428 101.305 107.225C101.109 107.018 100.832 106.914 100.473 106.914ZM107.158 108.666C107.158 109.549 107.031 110.398 106.777 111.215C106.523 112.031 106.158 112.752 105.682 113.377C105.205 114.002 104.695 114.432 104.152 114.666L103.824 113.77C104.379 113.352 104.816 112.707 105.137 111.836C105.457 110.965 105.623 109.963 105.635 108.83V108.52C105.635 107.352 105.475 106.322 105.154 105.432C104.838 104.541 104.395 103.873 103.824 103.428L104.152 102.531C104.684 102.762 105.184 103.18 105.652 103.785C106.125 104.391 106.49 105.096 106.748 105.9C107.01 106.705 107.146 107.539 107.158 108.402V108.666Z" fill="black"/>
<path d="M47.084 134.248C47.084 134.041 46.9805 133.879 46.7734 133.762C46.5703 133.641 46.2422 133.533 45.7891 133.439C44.2812 133.123 43.5273 132.482 43.5273 131.518C43.5273 130.955 43.7598 130.486 44.2246 130.111C44.6934 129.732 45.3047 129.543 46.0586 129.543C46.8633 129.543 47.5059 129.732 47.9863 130.111C48.4707 130.49 48.7129 130.982 48.7129 131.588H47.0195C47.0195 131.346 46.9414 131.146 46.7852 130.99C46.6289 130.83 46.3848 130.75 46.0527 130.75C45.7676 130.75 45.5469 130.814 45.3906 130.943C45.2344 131.072 45.1562 131.236 45.1562 131.436C45.1562 131.623 45.2441 131.775 45.4199 131.893C45.5996 132.006 45.9004 132.105 46.3223 132.191C46.7441 132.273 47.0996 132.367 47.3887 132.473C48.2832 132.801 48.7305 133.369 48.7305 134.178C48.7305 134.756 48.4824 135.225 47.9863 135.584C47.4902 135.939 46.8496 136.117 46.0645 136.117C45.5332 136.117 45.0605 136.023 44.6465 135.836C44.2363 135.645 43.9141 135.385 43.6797 135.057C43.4453 134.725 43.3281 134.367 43.3281 133.984H44.9336C44.9492 134.285 45.0605 134.516 45.2676 134.676C45.4746 134.836 45.752 134.916 46.0996 134.916C46.4238 134.916 46.668 134.855 46.832 134.734C47 134.609 47.084 134.447 47.084 134.248ZM51.4785 130.352C51.9277 129.812 52.4922 129.543 53.1719 129.543C54.5469 129.543 55.2441 130.342 55.2637 131.939V136H53.5703V131.986C53.5703 131.623 53.4922 131.355 53.3359 131.184C53.1797 131.008 52.9199 130.92 52.5566 130.92C52.0605 130.92 51.7012 131.111 51.4785 131.494V136H49.7852V127H51.4785V130.352ZM60.2148 136C60.1367 135.848 60.0801 135.658 60.0449 135.432C59.6348 135.889 59.1016 136.117 58.4453 136.117C57.8242 136.117 57.3086 135.938 56.8984 135.578C56.4922 135.219 56.2891 134.766 56.2891 134.219C56.2891 133.547 56.5371 133.031 57.0332 132.672C57.5332 132.312 58.2539 132.131 59.1953 132.127H59.9746V131.764C59.9746 131.471 59.8984 131.236 59.7461 131.061C59.5977 130.885 59.3613 130.797 59.0371 130.797C58.752 130.797 58.5273 130.865 58.3633 131.002C58.2031 131.139 58.123 131.326 58.123 131.564H56.4297C56.4297 131.197 56.543 130.857 56.7695 130.545C56.9961 130.232 57.3164 129.988 57.7305 129.812C58.1445 129.633 58.6094 129.543 59.125 129.543C59.9062 129.543 60.5254 129.74 60.9824 130.135C61.4434 130.525 61.6738 131.076 61.6738 131.787V134.535C61.6777 135.137 61.7617 135.592 61.9258 135.9V136H60.2148ZM58.8145 134.822C59.0645 134.822 59.2949 134.768 59.5059 134.658C59.7168 134.545 59.873 134.395 59.9746 134.207V133.117H59.3418C58.4941 133.117 58.043 133.41 57.9883 133.996L57.9824 134.096C57.9824 134.307 58.0566 134.48 58.2051 134.617C58.3535 134.754 58.5566 134.822 58.8145 134.822ZM68.752 136H62.9043V134.84L65.6641 131.898C66.043 131.484 66.3223 131.123 66.502 130.814C66.6855 130.506 66.7773 130.213 66.7773 129.936C66.7773 129.557 66.6816 129.26 66.4902 129.045C66.2988 128.826 66.0254 128.717 65.6699 128.717C65.2871 128.717 64.9844 128.85 64.7617 129.115C64.543 129.377 64.4336 129.723 64.4336 130.152H62.7344C62.7344 129.633 62.8574 129.158 63.1035 128.729C63.3535 128.299 63.7051 127.963 64.1582 127.721C64.6113 127.475 65.125 127.352 65.6992 127.352C66.5781 127.352 67.2598 127.562 67.7441 127.984C68.2324 128.406 68.4766 129.002 68.4766 129.771C68.4766 130.193 68.3672 130.623 68.1484 131.061C67.9297 131.498 67.5547 132.008 67.0234 132.59L65.084 134.635H68.752V136ZM70.0469 131.805L70.5391 127.469H75.3203V128.881H71.9277L71.7168 130.715C72.1191 130.5 72.5469 130.393 73 130.393C73.8125 130.393 74.4492 130.645 74.9102 131.148C75.3711 131.652 75.6016 132.357 75.6016 133.264C75.6016 133.814 75.4844 134.309 75.25 134.746C75.0195 135.18 74.6875 135.518 74.2539 135.76C73.8203 135.998 73.3086 136.117 72.7188 136.117C72.2031 136.117 71.7246 136.014 71.2832 135.807C70.8418 135.596 70.4922 135.301 70.2344 134.922C69.9805 134.543 69.8457 134.111 69.8301 133.627H71.5059C71.541 133.982 71.6641 134.26 71.875 134.459C72.0898 134.654 72.3691 134.752 72.7129 134.752C73.0957 134.752 73.3906 134.615 73.5977 134.342C73.8047 134.064 73.9082 133.674 73.9082 133.17C73.9082 132.686 73.7891 132.314 73.5508 132.057C73.3125 131.799 72.9746 131.67 72.5371 131.67C72.1348 131.67 71.8086 131.775 71.5586 131.986L71.3945 132.139L70.0469 131.805ZM81.2793 127.381V128.775H81.1152C80.3496 128.787 79.7324 128.986 79.2637 129.373C78.7988 129.76 78.5195 130.297 78.4258 130.984C78.8789 130.523 79.4512 130.293 80.1426 130.293C80.8848 130.293 81.4746 130.559 81.9121 131.09C82.3496 131.621 82.5684 132.32 82.5684 133.188C82.5684 133.742 82.4473 134.244 82.2051 134.693C81.9668 135.143 81.627 135.492 81.1855 135.742C80.748 135.992 80.252 136.117 79.6973 136.117C78.7988 136.117 78.0723 135.805 77.5176 135.18C76.9668 134.555 76.6914 133.721 76.6914 132.678V132.068C76.6914 131.143 76.8652 130.326 77.2129 129.619C77.5645 128.908 78.0664 128.359 78.7188 127.973C79.375 127.582 80.1348 127.385 80.998 127.381H81.2793ZM79.627 131.652C79.3535 131.652 79.1055 131.725 78.8828 131.869C78.6602 132.01 78.4961 132.197 78.3906 132.432V132.947C78.3906 133.514 78.502 133.957 78.7246 134.277C78.9473 134.594 79.2598 134.752 79.6621 134.752C80.0254 134.752 80.3184 134.609 80.541 134.324C80.7676 134.035 80.8809 133.662 80.8809 133.205C80.8809 132.74 80.7676 132.365 80.541 132.08C80.3145 131.795 80.0098 131.652 79.627 131.652ZM83.7227 132.531C83.7227 131.637 83.8418 130.785 84.0801 129.977C84.3184 129.168 84.6699 128.453 85.1348 127.832C85.5996 127.207 86.1035 126.773 86.6465 126.531L86.9746 127.445C86.4043 127.867 85.959 128.52 85.6387 129.402C85.3184 130.285 85.1582 131.316 85.1582 132.496V132.678C85.1582 133.861 85.3164 134.896 85.6328 135.783C85.9492 136.67 86.3965 137.332 86.9746 137.77L86.6465 138.666C86.1152 138.428 85.6191 138.006 85.1582 137.4C84.7012 136.799 84.3516 136.104 84.1094 135.314C83.8672 134.525 83.7383 133.701 83.7227 132.842V132.531ZM91.2988 134.248C91.2988 134.041 91.1953 133.879 90.9883 133.762C90.7852 133.641 90.457 133.533 90.0039 133.439C88.4961 133.123 87.7422 132.482 87.7422 131.518C87.7422 130.955 87.9746 130.486 88.4395 130.111C88.9082 129.732 89.5195 129.543 90.2734 129.543C91.0781 129.543 91.7207 129.732 92.2012 130.111C92.6855 130.49 92.9277 130.982 92.9277 131.588H91.2344C91.2344 131.346 91.1562 131.146 91 130.99C90.8438 130.83 90.5996 130.75 90.2676 130.75C89.9824 130.75 89.7617 130.814 89.6055 130.943C89.4492 131.072 89.3711 131.236 89.3711 131.436C89.3711 131.623 89.459 131.775 89.6348 131.893C89.8145 132.006 90.1152 132.105 90.5371 132.191C90.959 132.273 91.3145 132.367 91.6035 132.473C92.498 132.801 92.9453 133.369 92.9453 134.178C92.9453 134.756 92.6973 135.225 92.2012 135.584C91.7051 135.939 91.0645 136.117 90.2793 136.117C89.748 136.117 89.2754 136.023 88.8613 135.836C88.4512 135.645 88.1289 135.385 87.8945 135.057C87.6602 134.725 87.543 134.367 87.543 133.984H89.1484C89.1641 134.285 89.2754 134.516 89.4824 134.676C89.6895 134.836 89.9668 134.916 90.3145 134.916C90.6387 134.916 90.8828 134.855 91.0469 134.734C91.2148 134.609 91.2988 134.447 91.2988 134.248ZM96.959 136.117C96.0293 136.117 95.2715 135.832 94.6855 135.262C94.1035 134.691 93.8125 133.932 93.8125 132.982V132.818C93.8125 132.182 93.9355 131.613 94.1816 131.113C94.4277 130.609 94.7754 130.223 95.2246 129.953C95.6777 129.68 96.1934 129.543 96.7715 129.543C97.6387 129.543 98.3203 129.816 98.8164 130.363C99.3164 130.91 99.5664 131.686 99.5664 132.689V133.381H95.5293C95.584 133.795 95.748 134.127 96.0215 134.377C96.2988 134.627 96.6484 134.752 97.0703 134.752C97.7227 134.752 98.2324 134.516 98.5996 134.043L99.4316 134.975C99.1777 135.334 98.834 135.615 98.4004 135.818C97.9668 136.018 97.4863 136.117 96.959 136.117ZM96.7656 130.914C96.4297 130.914 96.1562 131.027 95.9453 131.254C95.7383 131.48 95.6055 131.805 95.5469 132.227H97.9023V132.092C97.8945 131.717 97.793 131.428 97.5977 131.225C97.4023 131.018 97.125 130.914 96.7656 130.914ZM103.17 134.752C103.482 134.752 103.736 134.666 103.932 134.494C104.127 134.322 104.229 134.094 104.236 133.809H105.824C105.82 134.238 105.703 134.633 105.473 134.992C105.242 135.348 104.926 135.625 104.523 135.824C104.125 136.02 103.684 136.117 103.199 136.117C102.293 136.117 101.578 135.83 101.055 135.256C100.531 134.678 100.27 133.881 100.27 132.865V132.754C100.27 131.777 100.529 130.998 101.049 130.416C101.568 129.834 102.281 129.543 103.188 129.543C103.98 129.543 104.615 129.77 105.092 130.223C105.572 130.672 105.816 131.271 105.824 132.021H104.236C104.229 131.693 104.127 131.428 103.932 131.225C103.736 131.018 103.479 130.914 103.158 130.914C102.764 130.914 102.465 131.059 102.262 131.348C102.062 131.633 101.963 132.098 101.963 132.742V132.918C101.963 133.57 102.062 134.039 102.262 134.324C102.461 134.609 102.764 134.752 103.17 134.752ZM110.354 131.248C110.123 131.217 109.92 131.201 109.744 131.201C109.104 131.201 108.684 131.418 108.484 131.852V136H106.791V129.66H108.391L108.438 130.416C108.777 129.834 109.248 129.543 109.85 129.543C110.037 129.543 110.213 129.568 110.377 129.619L110.354 131.248ZM113.975 136.117C113.045 136.117 112.287 135.832 111.701 135.262C111.119 134.691 110.828 133.932 110.828 132.982V132.818C110.828 132.182 110.951 131.613 111.197 131.113C111.443 130.609 111.791 130.223 112.24 129.953C112.693 129.68 113.209 129.543 113.787 129.543C114.654 129.543 115.336 129.816 115.832 130.363C116.332 130.91 116.582 131.686 116.582 132.689V133.381H112.545C112.6 133.795 112.764 134.127 113.037 134.377C113.314 134.627 113.664 134.752 114.086 134.752C114.738 134.752 115.248 134.516 115.615 134.043L116.447 134.975C116.193 135.334 115.85 135.615 115.416 135.818C114.982 136.018 114.502 136.117 113.975 136.117ZM113.781 130.914C113.445 130.914 113.172 131.027 112.961 131.254C112.754 131.48 112.621 131.805 112.562 132.227H114.918V132.092C114.91 131.717 114.809 131.428 114.613 131.225C114.418 131.018 114.141 130.914 113.781 130.914ZM119.576 128.102V129.66H120.66V130.902H119.576V134.066C119.576 134.301 119.621 134.469 119.711 134.57C119.801 134.672 119.973 134.723 120.227 134.723C120.414 134.723 120.58 134.709 120.725 134.682V135.965C120.393 136.066 120.051 136.117 119.699 136.117C118.512 136.117 117.906 135.518 117.883 134.318V130.902H116.957V129.66H117.883V128.102H119.576ZM124.521 132.666C124.521 133.549 124.395 134.398 124.141 135.215C123.887 136.031 123.521 136.752 123.045 137.377C122.568 138.002 122.059 138.432 121.516 138.666L121.188 137.77C121.742 137.352 122.18 136.707 122.5 135.836C122.82 134.965 122.986 133.963 122.998 132.83V132.52C122.998 131.352 122.838 130.322 122.518 129.432C122.201 128.541 121.758 127.873 121.188 127.428L121.516 126.531C122.047 126.762 122.547 127.18 123.016 127.785C123.488 128.391 123.854 129.096 124.111 129.9C124.373 130.705 124.51 131.539 124.521 132.402V132.666Z" fill="black"/>
<line x1="127" y1="68.5" x2="84" y2="68.5" stroke="black"/>
<path d="M83.6464 95.3536C83.8417 95.5488 84.1583 95.5488 84.3536 95.3536L87.5355 92.1716C87.7308 91.9763 87.7308 91.6597 87.5355 91.4645C87.3403 91.2692 87.0237 91.2692 86.8284 91.4645L84 94.2929L81.1716 91.4645C80.9763 91.2692 80.6597 91.2692 80.4645 91.4645C80.2692 91.6597 80.2692 91.9763 80.4645 92.1716L83.6464 95.3536ZM83.5 69L83.5 95L84.5 95L84.5 69L83.5 69Z" fill="black"/>
<path d="M58.6464 219.646C58.4512 219.842 58.4512 220.158 58.6464 220.354L61.8284 223.536C62.0237 223.731 62.3403 223.731 62.5355 223.536C62.7308 223.34 62.7308 223.024 62.5355 222.828L59.7071 220L62.5355 217.172C62.7308 216.976 62.7308 216.66 62.5355 216.464C62.3403 216.269 62.0237 216.269 61.8284 216.464L58.6464 219.646ZM83 219.5L59 219.5L59 220.5L83 220.5L83 219.5Z" fill="black"/>
<path d="M210.354 221.354C210.549 221.158 210.549 220.842 210.354 220.646L207.172 217.464C206.976 217.269 206.66 217.269 206.464 217.464C206.269 217.66 206.269 217.976 206.464 218.172L209.293 221L206.464 223.828C206.269 224.024 206.269 224.34 206.464 224.536C206.66 224.731 206.976 224.731 207.172 224.536L210.354 221.354ZM210 220.5L186 220.5L186 221.5L210 221.5L210 220.5Z" fill="black"/>
<line x1="185" y1="68.5" x2="142" y2="68.5" stroke="black"/>
<path d="M185.646 95.3536C185.842 95.5488 186.158 95.5488 186.354 95.3536L189.536 92.1716C189.731 91.9763 189.731 91.6597 189.536 91.4645C189.34 91.2692 189.024 91.2692 188.828 91.4645L186 94.2929L183.172 91.4645C182.976 91.2692 182.66 91.2692 182.464 91.4645C182.269 91.6597 182.269 91.9763 182.464 92.1716L185.646 95.3536ZM185.5 69L185.5 95L186.5 95L186.5 69L185.5 69Z" fill="black"/>
<path d="M209.779 73.2214C207.7 71.1449 204.939 70 202 70C199.061 70 196.3 71.1449 194.221 73.2214C192.145 75.3002 191 78.0614 191 81C191 83.9386 192.145 86.6998 194.221 88.7786C196.3 90.8551 199.061 92 202 92C204.939 92 207.7 90.8551 209.779 88.7786C211.857 86.702 213 83.9386 213 81C213 78.0614 211.855 75.3002 209.779 73.2214ZM209.291 88.2914C207.345 90.24 204.754 91.3131 202 91.3131C199.246 91.3131 196.655 90.24 194.709 88.2937C192.76 86.3451 191.687 83.7545 191.687 81C191.687 78.2455 192.76 75.6549 194.706 73.7086C196.655 71.76 199.246 70.6869 202 70.6869C204.754 70.6869 207.345 71.76 209.291 73.7063C211.24 75.6549 212.311 78.2433 212.311 80.9978C212.311 83.7522 211.24 86.3451 209.291 88.2914Z" fill="black"/>
<path d="M193.063 81C193.063 76.0725 197.072 72.0631 202 72.0631C203.778 72.0631 205.495 72.5839 206.966 73.5672C207.123 73.6727 207.336 73.63 207.442 73.4729C207.547 73.3158 207.504 73.1025 207.347 72.997C205.762 71.9351 203.915 71.3762 202 71.3762C199.43 71.3762 197.012 72.3774 195.193 74.1958C193.375 76.0141 192.374 78.4296 192.374 81.0023C192.374 83.3751 193.245 85.6537 194.825 87.4182C194.893 87.4945 194.987 87.5327 195.081 87.5327C195.162 87.5327 195.245 87.5035 195.31 87.4451C195.452 87.3194 195.463 87.1017 195.337 86.9602C193.871 85.3192 193.063 83.2023 193.063 81Z" fill="black"/>
<path d="M210.003 75.6527C209.898 75.4955 209.684 75.4529 209.527 75.5584C209.37 75.6639 209.327 75.8772 209.433 76.0343C210.418 77.5047 210.937 79.2221 210.937 81C210.937 85.9276 206.928 89.937 202 89.937C199.955 89.937 197.957 89.2298 196.372 87.9435C196.224 87.8245 196.008 87.847 195.889 87.9929C195.77 88.1411 195.793 88.3566 195.939 88.4755C197.645 89.8606 199.798 90.6239 202 90.6239C204.57 90.6239 206.988 89.6227 208.807 87.8043C210.625 85.986 211.626 83.5704 211.626 80.9978C211.626 79.0851 211.065 77.2376 210.003 75.6527Z" fill="black"/>
<path d="M207.958 74.3372C208.189 74.5437 208.411 74.7659 208.62 74.9949C208.688 75.069 208.782 75.1072 208.874 75.1072C208.957 75.1072 209.04 75.078 209.105 75.0174C209.247 74.8894 209.256 74.6716 209.128 74.5325C208.903 74.2855 208.663 74.0476 208.414 73.8253C208.272 73.6996 208.054 73.7108 207.929 73.8523C207.805 73.9937 207.817 74.2114 207.958 74.3372Z" fill="black"/>
<path d="M202 74.4696C202.191 74.4696 202.343 74.3147 202.343 74.1261V73.0957C202.343 72.9049 202.189 72.7523 202 72.7523C201.809 72.7523 201.657 72.9072 201.657 73.0957V74.1261C201.657 74.3147 201.809 74.4696 202 74.4696Z" fill="black"/>
<path d="M201.657 87.8761V88.9066C201.657 89.0974 201.811 89.25 202 89.25C202.191 89.25 202.343 89.0951 202.343 88.9066V87.8761C202.343 87.6853 202.189 87.5327 202 87.5327C201.809 87.5304 201.657 87.6853 201.657 87.8761Z" fill="black"/>
<path d="M195.47 81C195.47 80.8092 195.315 80.6566 195.126 80.6566H194.096C193.905 80.6566 193.752 80.8115 193.752 81C193.752 81.1908 193.907 81.3435 194.096 81.3435H195.126C195.315 81.3435 195.47 81.1908 195.47 81Z" fill="black"/>
<path d="M208.53 81C208.53 81.1908 208.685 81.3435 208.874 81.3435H209.904C210.095 81.3435 210.248 81.1886 210.248 81C210.248 80.8092 210.093 80.6566 209.904 80.6566H208.874C208.685 80.6566 208.53 80.8092 208.53 81Z" fill="black"/>
<path d="M198.859 74.8737L198.343 73.9802C198.249 73.8164 198.038 73.7602 197.874 73.8545C197.71 73.9488 197.654 74.1598 197.748 74.3237L198.264 75.2172C198.327 75.3272 198.444 75.39 198.563 75.39C198.621 75.39 198.68 75.3743 198.734 75.3429C198.9 75.2486 198.956 75.0376 198.859 74.8737Z" fill="black"/>
<path d="M205.736 86.7828C205.641 86.619 205.43 86.5628 205.266 86.6571C205.102 86.7514 205.046 86.9624 205.141 87.1263L205.657 88.0198C205.72 88.1298 205.837 88.1926 205.956 88.1926C206.014 88.1926 206.072 88.1769 206.126 88.1455C206.29 88.0512 206.346 87.8402 206.252 87.6763L205.736 86.7828Z" fill="black"/>
<path d="M195.153 85.2968C195.211 85.2968 195.27 85.281 195.324 85.2496L196.217 84.7333C196.381 84.639 196.437 84.428 196.343 84.2641C196.249 84.1002 196.038 84.0441 195.874 84.1384L194.98 84.6547C194.816 84.749 194.76 84.96 194.854 85.1239C194.92 85.2361 195.034 85.2968 195.153 85.2968Z" fill="black"/>
<path d="M207.953 77.9066C208.012 77.9066 208.07 77.8908 208.124 77.8594L209.018 77.3431C209.181 77.2488 209.238 77.0378 209.143 76.8739C209.049 76.71 208.838 76.6539 208.674 76.7482L207.781 77.2645C207.617 77.3588 207.561 77.5698 207.655 77.7337C207.72 77.8437 207.834 77.9066 207.953 77.9066Z" fill="black"/>
<path d="M206.126 73.8545C205.962 73.7602 205.751 73.8164 205.657 73.9802L205.141 74.8737C205.046 75.0376 205.102 75.2486 205.266 75.3429C205.32 75.3743 205.379 75.39 205.437 75.39C205.556 75.39 205.67 75.3294 205.736 75.2172L206.252 74.3237C206.346 74.1598 206.29 73.951 206.126 73.8545Z" fill="black"/>
<path d="M198.734 86.6571C198.57 86.5628 198.359 86.619 198.264 86.7828L197.748 87.6763C197.654 87.8402 197.71 88.0512 197.874 88.1455C197.928 88.1769 197.986 88.1926 198.044 88.1926C198.163 88.1926 198.278 88.132 198.343 88.0198L198.859 87.1263C198.956 86.9624 198.9 86.7514 198.734 86.6571Z" fill="black"/>
<path d="M207.783 84.7355L208.676 85.2519C208.73 85.2833 208.789 85.299 208.847 85.299C208.966 85.299 209.08 85.2384 209.146 85.1262C209.24 84.9623 209.184 84.7513 209.02 84.657L208.126 84.1406C207.962 84.0464 207.751 84.1025 207.657 84.2664C207.561 84.4302 207.617 84.6413 207.783 84.7355Z" fill="black"/>
<path d="M196.217 77.2645L195.324 76.7482C195.16 76.6539 194.949 76.71 194.854 76.8739C194.76 77.0378 194.816 77.2488 194.98 77.3431L195.874 77.8594C195.928 77.8908 195.986 77.9066 196.044 77.9066C196.163 77.9066 196.278 77.8459 196.343 77.7337C196.439 77.5698 196.383 77.3588 196.217 77.2645Z" fill="black"/>
<path d="M204.393 85.4876C204.451 85.4876 204.51 85.4719 204.564 85.4404C204.728 85.3461 204.784 85.1351 204.689 84.9712L202.783 81.669C202.938 81.4894 203.03 81.2559 203.03 81C203.03 80.551 202.743 80.1694 202.343 80.028V75.5C202.343 75.3092 202.189 75.1566 202 75.1566C201.809 75.1566 201.657 75.3115 201.657 75.5V80.028C201.257 80.1694 200.97 80.551 200.97 81C200.97 81.568 201.432 82.0304 202 82.0304C202.065 82.0304 202.128 82.0237 202.189 82.0125L204.094 85.3147C204.16 85.427 204.274 85.4876 204.393 85.4876ZM201.657 81C201.657 80.8115 201.811 80.6566 202 80.6566C202.189 80.6566 202.343 80.8115 202.343 81C202.343 81.1886 202.189 81.3435 202 81.3435C201.811 81.3435 201.657 81.1886 201.657 81Z" fill="black"/>
<path d="M77.6273 78.5544H75.5704V75.6207C75.5704 72.0808 74.0445 70 70.9989 70C67.9534 70 66.4275 72.0808 66.4275 75.6207V78.5544H64.1418C63.51 78.5544 63 79.3446 63 80.0202V89.5533C63 90.2245 63.489 90.945 64.0872 91.1515L65.4557 91.6251C66.0539 91.8294 67.0572 92 67.6869 92H74.3152C74.9428 92 75.9461 91.8294 76.5443 91.6251L77.9107 91.1515C78.5089 90.9473 79 90.2267 79 89.5556V80.0202C78.9979 79.3446 78.257 78.5544 77.6273 78.5544ZM73.2847 78.5544H68.7132V75.1313C68.7132 73.3648 69.6242 72.4444 70.9989 72.4444C72.3737 72.4444 73.2847 73.367 73.2847 75.1313V78.5544Z" fill="black"/>
<line x1="83.5" y1="141" x2="83.5" y2="220" stroke="black"/>
<line x1="185.5" y1="142" x2="185.5" y2="221" stroke="black"/>
<path d="M268.393 213.848V201C268.393 198.23 266.164 196 263.394 196H217C214.23 196 212 198.23 212 201V231.892C212 234.662 214.23 236.892 217 236.892H229.3" stroke="black" stroke-width="2" stroke-linecap="round" stroke-linejoin="round"/>
<path d="M230.662 213.506V212.729C230.662 209.959 228.432 207.729 225.662 207.729H212V224.549H223.793" stroke="black" stroke-width="2" stroke-linecap="round" stroke-linejoin="round"/>
<path d="M221.331 220.182C223.564 220.182 225.374 218.372 225.374 216.139C225.374 213.907 223.564 212.097 221.331 212.097C219.099 212.097 217.289 213.907 217.289 216.139C217.289 218.372 219.099 220.182 221.331 220.182Z" stroke="black" stroke-width="2" stroke-linecap="round" stroke-linejoin="round"/>
<path fill-rule="evenodd" clip-rule="evenodd" d="M240.434 237.956L251.238 242.293L261.944 237.72L266.283 226.916L261.71 216.21L250.906 211.872L240.197 216.446L235.86 227.249L240.434 237.956ZM251.248 244.297C251.127 244.297 251.004 244.274 250.89 244.228L239.345 239.593C239.108 239.498 238.918 239.313 238.819 239.077L233.933 227.636C233.832 227.401 233.829 227.137 233.925 226.899L238.56 215.354C238.654 215.117 238.84 214.927 239.075 214.827L250.516 209.942C250.752 209.84 251.017 209.839 251.255 209.934L262.799 214.569C263.036 214.663 263.226 214.849 263.325 215.084L268.211 226.523C268.312 226.759 268.315 227.023 268.219 227.261L263.584 238.807C263.49 239.043 263.305 239.233 263.069 239.332L251.629 244.218C251.506 244.272 251.378 244.297 251.248 244.297Z" fill="black" stroke="black" stroke-width="0.589302"/>
<path d="M225.762 257V248.469H228.75C229.785 248.469 230.57 248.668 231.105 249.066C231.641 249.461 231.908 250.041 231.908 250.807C231.908 251.225 231.801 251.594 231.586 251.914C231.371 252.23 231.072 252.463 230.689 252.611C231.127 252.721 231.471 252.941 231.721 253.273C231.975 253.605 232.102 254.012 232.102 254.492C232.102 255.312 231.84 255.934 231.316 256.355C230.793 256.777 230.047 256.992 229.078 257H225.762ZM227.52 253.285V255.588H229.025C229.439 255.588 229.762 255.49 229.992 255.295C230.227 255.096 230.344 254.822 230.344 254.475C230.344 253.693 229.939 253.297 229.131 253.285H227.52ZM227.52 252.043H228.82C229.707 252.027 230.15 251.674 230.15 250.982C230.15 250.596 230.037 250.318 229.811 250.15C229.588 249.979 229.234 249.893 228.75 249.893H227.52V252.043ZM233.051 253.771C233.051 253.143 233.172 252.582 233.414 252.09C233.656 251.598 234.004 251.217 234.457 250.947C234.914 250.678 235.443 250.543 236.045 250.543C236.9 250.543 237.598 250.805 238.137 251.328C238.68 251.852 238.982 252.562 239.045 253.461L239.057 253.895C239.057 254.867 238.785 255.648 238.242 256.238C237.699 256.824 236.971 257.117 236.057 257.117C235.143 257.117 234.412 256.824 233.865 256.238C233.322 255.652 233.051 254.855 233.051 253.848V253.771ZM234.744 253.895C234.744 254.496 234.857 254.957 235.084 255.277C235.311 255.594 235.635 255.752 236.057 255.752C236.467 255.752 236.787 255.596 237.018 255.283C237.248 254.967 237.363 254.463 237.363 253.771C237.363 253.182 237.248 252.725 237.018 252.4C236.787 252.076 236.463 251.914 236.045 251.914C235.631 251.914 235.311 252.076 235.084 252.4C234.857 252.721 234.744 253.219 234.744 253.895ZM245.812 253.889C245.812 254.904 245.596 255.697 245.162 256.268C244.729 256.834 244.123 257.117 243.346 257.117C242.658 257.117 242.109 256.854 241.699 256.326L241.623 257H240.1V248H241.793V251.229C242.184 250.771 242.697 250.543 243.334 250.543C244.107 250.543 244.713 250.828 245.15 251.398C245.592 251.965 245.812 252.764 245.812 253.795V253.889ZM244.119 253.766C244.119 253.125 244.018 252.658 243.814 252.365C243.611 252.068 243.309 251.92 242.906 251.92C242.367 251.92 241.996 252.141 241.793 252.582V255.084C242 255.529 242.375 255.752 242.918 255.752C243.465 255.752 243.824 255.482 243.996 254.943C244.078 254.686 244.119 254.293 244.119 253.766Z" fill="black"/>
<path d="M128.205 0.0423965C126.18 0.343483 124.448 1.84249 123.75 3.89581C123.367 5.00444 123.38 4.67621 123.38 15.8936V26.2555H121.649C119.993 26.2555 119.903 26.2623 119.616 26.4063C119.24 26.5977 119 27.0152 119 27.4874C119 28.8492 119.459 30.4715 120.184 31.6965C120.567 32.3605 121.519 33.387 122.101 33.7773C123.004 34.3863 124.14 34.8038 125.297 34.9478C125.769 35.0024 128.26 35.0163 134.365 35.0024C142.243 34.982 142.811 34.9681 143.194 34.8517C145.145 34.2631 146.534 32.8462 147.178 30.7933L147.369 30.1911L147.404 19.4455L147.438 8.70034L150.394 8.66606C153.242 8.63177 153.358 8.62498 153.536 8.48819C153.96 8.17317 154.008 8.03638 154.001 7.20848C153.974 5.29195 153.337 3.35507 152.304 2.04786C151.763 1.37032 151.181 0.891373 150.449 0.528496C149.32 -0.0326042 150.333 0.0152512 138.814 0.0013237C133.168 -0.00546265 128.39 0.0148964 128.205 0.0423965ZM149.799 2.6911C150.955 3.26614 151.77 4.53227 151.804 5.79841C151.818 6.17485 151.797 6.2295 151.626 6.38022L151.435 6.54452H149.415H147.403V5.49732C147.403 3.84116 147.547 3.28649 148.081 2.84182C148.635 2.3693 149.087 2.32823 149.799 2.6911ZM131.566 11.0683C132.107 11.3283 132.332 12.0127 132.059 12.533C131.997 12.6427 131.115 13.5667 130.088 14.5796L128.226 16.4207L130.15 18.3441C132.237 20.4317 132.292 20.5067 132.141 21.0474C132.004 21.5746 131.6 21.8892 131.08 21.8892C130.916 21.8892 130.711 21.8482 130.615 21.7935C130.348 21.6499 125.804 17.1465 125.68 16.9C125.544 16.6333 125.537 16.2636 125.667 15.9693C125.797 15.6682 130.328 11.1648 130.636 11.0347C130.963 10.8905 131.224 10.8972 131.566 11.0683ZM140.203 11.0408C140.32 11.1094 141.483 12.2248 142.783 13.5252C144.768 15.51 145.158 15.9275 145.22 16.1604C145.377 16.7283 145.343 16.7693 142.797 19.3291C141.51 20.6227 140.368 21.7314 140.251 21.786C139.799 22.0325 139.142 21.8749 138.827 21.4506C138.636 21.1906 138.595 20.6567 138.745 20.342C138.821 20.1913 139.615 19.3562 140.737 18.2612L142.612 16.4268L140.723 14.5517C139.69 13.5181 138.793 12.5873 138.739 12.4848C138.615 12.252 138.615 11.7937 138.739 11.5541C139.026 10.9997 139.69 10.7672 140.203 11.0408ZM138.718 28.6442C138.896 28.8221 138.917 28.8975 138.917 29.2532C138.917 29.9307 139.252 30.5057 140.155 31.4022C140.641 31.8812 140.901 32.1823 140.901 32.2783C140.901 32.3605 140.813 32.518 140.703 32.6273L140.504 32.8259H132.688C123.969 32.8259 124.29 32.8394 123.277 32.3469C122.093 31.7719 121.293 30.5947 121.217 29.3353C121.183 28.8014 121.224 28.6853 121.498 28.5278C121.6 28.4731 123.859 28.4524 130.074 28.4456H138.52L138.718 28.6442Z" fill="black"/>
<path d="M131.084 44.248C131.084 44.041 130.98 43.8789 130.773 43.7617C130.57 43.6406 130.242 43.5332 129.789 43.4395C128.281 43.123 127.527 42.4824 127.527 41.5176C127.527 40.9551 127.76 40.4863 128.225 40.1113C128.693 39.7324 129.305 39.543 130.059 39.543C130.863 39.543 131.506 39.7324 131.986 40.1113C132.471 40.4902 132.713 40.9824 132.713 41.5879H131.02C131.02 41.3457 130.941 41.1465 130.785 40.9902C130.629 40.8301 130.385 40.75 130.053 40.75C129.768 40.75 129.547 40.8145 129.391 40.9434C129.234 41.0723 129.156 41.2363 129.156 41.4355C129.156 41.623 129.244 41.7754 129.42 41.8926C129.6 42.0059 129.9 42.1055 130.322 42.1914C130.744 42.2734 131.1 42.3672 131.389 42.4727C132.283 42.8008 132.73 43.3691 132.73 44.1777C132.73 44.7559 132.482 45.2246 131.986 45.584C131.49 45.9395 130.85 46.1172 130.064 46.1172C129.533 46.1172 129.061 46.0234 128.646 45.8359C128.236 45.6445 127.914 45.3848 127.68 45.0566C127.445 44.7246 127.328 44.3672 127.328 43.9844H128.934C128.949 44.2852 129.061 44.5156 129.268 44.6758C129.475 44.8359 129.752 44.916 130.1 44.916C130.424 44.916 130.668 44.8555 130.832 44.7344C131 44.6094 131.084 44.4473 131.084 44.248ZM136.463 44.752C136.775 44.752 137.029 44.666 137.225 44.4941C137.42 44.3223 137.521 44.0938 137.529 43.8086H139.117C139.113 44.2383 138.996 44.6328 138.766 44.9922C138.535 45.3477 138.219 45.625 137.816 45.8242C137.418 46.0195 136.977 46.1172 136.492 46.1172C135.586 46.1172 134.871 45.8301 134.348 45.2559C133.824 44.6777 133.562 43.8809 133.562 42.8652V42.7539C133.562 41.7773 133.822 40.998 134.342 40.416C134.861 39.834 135.574 39.543 136.48 39.543C137.273 39.543 137.908 39.7695 138.385 40.2227C138.865 40.6719 139.109 41.2715 139.117 42.0215H137.529C137.521 41.6934 137.42 41.4277 137.225 41.2246C137.029 41.0176 136.771 40.9141 136.451 40.9141C136.057 40.9141 135.758 41.0586 135.555 41.3477C135.355 41.6328 135.256 42.0977 135.256 42.7422V42.918C135.256 43.5703 135.355 44.0391 135.555 44.3242C135.754 44.6094 136.057 44.752 136.463 44.752ZM145.861 46H140.014V44.8398L142.773 41.8984C143.152 41.4844 143.432 41.123 143.611 40.8145C143.795 40.5059 143.887 40.2129 143.887 39.9355C143.887 39.5566 143.791 39.2598 143.6 39.0449C143.408 38.8262 143.135 38.7168 142.779 38.7168C142.396 38.7168 142.094 38.8496 141.871 39.1152C141.652 39.377 141.543 39.7227 141.543 40.1523H139.844C139.844 39.6328 139.967 39.1582 140.213 38.7285C140.463 38.2988 140.814 37.9629 141.268 37.7207C141.721 37.4746 142.234 37.3516 142.809 37.3516C143.688 37.3516 144.369 37.5625 144.854 37.9844C145.342 38.4062 145.586 39.002 145.586 39.7715C145.586 40.1934 145.477 40.623 145.258 41.0605C145.039 41.498 144.664 42.0078 144.133 42.5898L142.193 44.6348H145.861V46Z" fill="black"/>
</svg>
