<svg width="512" height="229" viewBox="0 0 512 229" fill="none" xmlns="http://www.w3.org/2000/svg">
<path fill-rule="evenodd" clip-rule="evenodd" d="M438.298 53V55.1957H431.112L435.633 59.9295L431.006 65.0253H438.298V67.221H428V65.0253L432.584 59.9507L428.021 55.1957V53H438.298Z" fill="black" stroke="black" stroke-width="0.589302"/>
<line x1="396" y1="78" x2="245" y2="78" stroke="black" stroke-width="2"/>
<path d="M491.393 182.848V170C491.393 167.23 489.164 165 486.394 165H440C437.23 165 435 167.23 435 170V200.892C435 203.662 437.23 205.892 440 205.892H452.3" stroke="black" stroke-width="2" stroke-linecap="round" stroke-linejoin="round"/>
<path d="M453.662 182.506V181.729C453.662 178.959 451.432 176.729 448.662 176.729H435V193.549H446.793" stroke="black" stroke-width="2" stroke-linecap="round" stroke-linejoin="round"/>
<path d="M444.331 189.182C446.564 189.182 448.374 187.372 448.374 185.139C448.374 182.907 446.564 181.097 444.331 181.097C442.099 181.097 440.289 182.907 440.289 185.139C440.289 187.372 442.099 189.182 444.331 189.182Z" stroke="black" stroke-width="2" stroke-linecap="round" stroke-linejoin="round"/>
<path fill-rule="evenodd" clip-rule="evenodd" d="M463.434 206.956L474.238 211.293L484.944 206.72L489.283 195.916L484.71 185.21L473.906 180.872L463.197 185.446L458.86 196.249L463.434 206.956ZM474.248 213.297C474.127 213.297 474.004 213.274 473.89 213.228L462.345 208.593C462.108 208.498 461.918 208.313 461.819 208.077L456.933 196.636C456.832 196.401 456.829 196.137 456.925 195.899L461.56 184.354C461.654 184.117 461.84 183.927 462.075 183.827L473.516 178.942C473.752 178.841 474.017 178.839 474.255 178.934L485.799 183.569C486.036 183.663 486.226 183.849 486.325 184.084L491.211 195.523C491.312 195.759 491.315 196.023 491.219 196.261L486.584 207.807C486.49 208.044 486.305 208.233 486.069 208.332L474.629 213.219C474.506 213.272 474.378 213.297 474.248 213.297Z" fill="black" stroke="black" stroke-width="0.589302"/>
<path fill-rule="evenodd" clip-rule="evenodd" d="M479.222 188.97V191.166H472.035L476.556 195.9L471.929 200.995H479.222V203.191H468.923V200.995L473.507 195.921L468.944 191.166V188.97H479.222Z" fill="black" stroke="black" stroke-width="0.589302"/>
<path d="M448.762 226V217.469H451.75C452.785 217.469 453.57 217.668 454.105 218.066C454.641 218.461 454.908 219.041 454.908 219.807C454.908 220.225 454.801 220.594 454.586 220.914C454.371 221.23 454.072 221.463 453.689 221.611C454.127 221.721 454.471 221.941 454.721 222.273C454.975 222.605 455.102 223.012 455.102 223.492C455.102 224.312 454.84 224.934 454.316 225.355C453.793 225.777 453.047 225.992 452.078 226H448.762ZM450.52 222.285V224.588H452.025C452.439 224.588 452.762 224.49 452.992 224.295C453.227 224.096 453.344 223.822 453.344 223.475C453.344 222.693 452.939 222.297 452.131 222.285H450.52ZM450.52 221.043H451.82C452.707 221.027 453.15 220.674 453.15 219.982C453.15 219.596 453.037 219.318 452.811 219.15C452.588 218.979 452.234 218.893 451.75 218.893H450.52V221.043ZM456.051 222.771C456.051 222.143 456.172 221.582 456.414 221.09C456.656 220.598 457.004 220.217 457.457 219.947C457.914 219.678 458.443 219.543 459.045 219.543C459.9 219.543 460.598 219.805 461.137 220.328C461.68 220.852 461.982 221.562 462.045 222.461L462.057 222.895C462.057 223.867 461.785 224.648 461.242 225.238C460.699 225.824 459.971 226.117 459.057 226.117C458.143 226.117 457.412 225.824 456.865 225.238C456.322 224.652 456.051 223.855 456.051 222.848V222.771ZM457.744 222.895C457.744 223.496 457.857 223.957 458.084 224.277C458.311 224.594 458.635 224.752 459.057 224.752C459.467 224.752 459.787 224.596 460.018 224.283C460.248 223.967 460.363 223.463 460.363 222.771C460.363 222.182 460.248 221.725 460.018 221.4C459.787 221.076 459.463 220.914 459.045 220.914C458.631 220.914 458.311 221.076 458.084 221.4C457.857 221.721 457.744 222.219 457.744 222.895ZM468.812 222.889C468.812 223.904 468.596 224.697 468.162 225.268C467.729 225.834 467.123 226.117 466.346 226.117C465.658 226.117 465.109 225.854 464.699 225.326L464.623 226H463.1V217H464.793V220.229C465.184 219.771 465.697 219.543 466.334 219.543C467.107 219.543 467.713 219.828 468.15 220.398C468.592 220.965 468.812 221.764 468.812 222.795V222.889ZM467.119 222.766C467.119 222.125 467.018 221.658 466.814 221.365C466.611 221.068 466.309 220.92 465.906 220.92C465.367 220.92 464.996 221.141 464.793 221.582V224.084C465 224.529 465.375 224.752 465.918 224.752C466.465 224.752 466.824 224.482 466.996 223.943C467.078 223.686 467.119 223.293 467.119 222.766Z" fill="black"/>
<path d="M57.3935 182.848V170C57.3935 167.23 55.1638 165 52.3938 165H5.99969C3.2297 165 1 167.23 1 170V200.892C1 203.662 3.2297 205.892 5.99969 205.892H18.3002" stroke="black" stroke-width="2" stroke-linecap="round" stroke-linejoin="round"/>
<path d="M19.6624 182.777V182C19.6624 179.23 17.4322 177 14.6622 177H1V193.82H12.7926" stroke="black" stroke-width="2" stroke-linecap="round" stroke-linejoin="round"/>
<path d="M10.3313 189.182C12.5639 189.182 14.3737 187.372 14.3737 185.139C14.3737 182.907 12.5639 181.097 10.3313 181.097C8.09868 181.097 6.28882 182.907 6.28882 185.139C6.28882 187.372 8.09868 189.182 10.3313 189.182Z" stroke="black" stroke-width="2" stroke-linecap="round" stroke-linejoin="round"/>
<path fill-rule="evenodd" clip-rule="evenodd" d="M29.4337 206.956L40.2377 211.293L50.9441 206.72L55.2826 195.916L50.7101 185.21L39.906 180.872L29.1968 185.446L24.8597 196.249L29.4337 206.956ZM40.2483 213.297C40.1267 213.297 40.0036 213.274 39.8898 213.228L28.3446 208.593C28.1077 208.498 27.9175 208.313 27.8192 208.077L22.9327 196.636C22.8316 196.401 22.8288 196.137 22.9249 195.899L27.5597 184.354C27.6545 184.117 27.8397 183.927 28.0752 183.827L39.5164 178.942C39.7519 178.841 40.0171 178.839 40.2547 178.934L51.7991 183.569C52.036 183.663 52.2255 183.849 52.3252 184.084L57.211 195.523C57.3121 195.759 57.315 196.023 57.2188 196.261L52.5841 207.807C52.49 208.044 52.3047 208.233 52.0685 208.332L40.6288 213.219C40.5057 213.272 40.3777 213.297 40.2483 213.297Z" fill="black" stroke="black" stroke-width="0.589302"/>
<path d="M44.4097 194.73C45.4458 194.158 46.094 193.149 45.9426 191.469C45.7387 189.174 43.9114 188.404 41.6047 188.184L41.6042 185H39.817L39.8165 188.101C39.3462 188.101 38.8669 188.111 38.3897 188.121L38.3893 185L36.6036 185L36.6033 188.184C36.2163 188.192 35.8363 188.201 35.4652 188.201V188.191L33 188.19L33.0003 190.26C33.0003 190.26 34.3202 190.233 34.2984 190.259C35.0221 190.26 35.2584 190.716 35.3263 191.109L35.3269 194.737V199.833C35.295 200.08 35.161 200.474 34.655 200.475C34.678 200.497 33.3548 200.475 33.3548 200.475L33.0003 202.789H35.3258C35.7591 202.79 36.1848 202.797 36.6025 202.801L36.6041 206.021L38.3893 206.022L38.3888 202.835C38.8799 202.846 39.354 202.851 39.8171 202.85L39.8166 206.022H41.6038L41.6048 202.807C44.6089 202.62 46.7121 201.799 46.9736 198.738C47.1844 196.274 46.1153 195.174 44.4097 194.73ZM38.4324 190.4C39.4404 190.4 42.6105 190.052 42.6109 192.336C42.6105 194.526 39.4414 194.27 38.4324 194.27V190.4ZM38.4316 200.491L38.4324 196.224C39.6435 196.223 43.442 195.846 43.4425 198.356C43.443 200.764 39.6435 200.49 38.4316 200.491Z" fill="black"/>
<path d="M20.5781 222.242H17.4961L16.9102 224H15.041L18.2168 215.469H19.8457L23.0391 224H21.1699L20.5781 222.242ZM17.9707 220.818H20.1035L19.0312 217.625L17.9707 220.818ZM25.5117 224H23.8125V215H25.5117V224ZM28.6992 224H27V217.66H28.6992V224ZM26.9004 216.02C26.9004 215.766 26.9844 215.557 27.1523 215.393C27.3242 215.229 27.5566 215.146 27.8496 215.146C28.1387 215.146 28.3691 215.229 28.541 215.393C28.7129 215.557 28.7988 215.766 28.7988 216.02C28.7988 216.277 28.7109 216.488 28.5352 216.652C28.3633 216.816 28.1348 216.898 27.8496 216.898C27.5645 216.898 27.334 216.816 27.1582 216.652C26.9863 216.488 26.9004 216.277 26.9004 216.02ZM32.7363 222.752C33.0488 222.752 33.3027 222.666 33.498 222.494C33.6934 222.322 33.7949 222.094 33.8027 221.809H35.3906C35.3867 222.238 35.2695 222.633 35.0391 222.992C34.8086 223.348 34.4922 223.625 34.0898 223.824C33.6914 224.02 33.25 224.117 32.7656 224.117C31.8594 224.117 31.1445 223.83 30.6211 223.256C30.0977 222.678 29.8359 221.881 29.8359 220.865V220.754C29.8359 219.777 30.0957 218.998 30.6152 218.416C31.1348 217.834 31.8477 217.543 32.7539 217.543C33.5469 217.543 34.1816 217.77 34.6582 218.223C35.1387 218.672 35.3828 219.271 35.3906 220.021H33.8027C33.7949 219.693 33.6934 219.428 33.498 219.225C33.3027 219.018 33.0449 218.914 32.7246 218.914C32.3301 218.914 32.0312 219.059 31.8281 219.348C31.6289 219.633 31.5293 220.098 31.5293 220.742V220.918C31.5293 221.57 31.6289 222.039 31.8281 222.324C32.0273 222.609 32.3301 222.752 32.7363 222.752ZM39.2754 224.117C38.3457 224.117 37.5879 223.832 37.002 223.262C36.4199 222.691 36.1289 221.932 36.1289 220.982V220.818C36.1289 220.182 36.252 219.613 36.498 219.113C36.7441 218.609 37.0918 218.223 37.541 217.953C37.9941 217.68 38.5098 217.543 39.0879 217.543C39.9551 217.543 40.6367 217.816 41.1328 218.363C41.6328 218.91 41.8828 219.686 41.8828 220.689V221.381H37.8457C37.9004 221.795 38.0645 222.127 38.3379 222.377C38.6152 222.627 38.9648 222.752 39.3867 222.752C40.0391 222.752 40.5488 222.516 40.916 222.043L41.748 222.975C41.4941 223.334 41.1504 223.615 40.7168 223.818C40.2832 224.018 39.8027 224.117 39.2754 224.117ZM39.082 218.914C38.7461 218.914 38.4727 219.027 38.2617 219.254C38.0547 219.48 37.9219 219.805 37.8633 220.227H40.2188V220.092C40.2109 219.717 40.1094 219.428 39.9141 219.225C39.7188 219.018 39.4414 218.914 39.082 218.914Z" fill="black"/>
<path d="M228.631 219H226.873V210.469H228.631V219ZM231.713 212.66L231.766 213.393C232.219 212.826 232.826 212.543 233.588 212.543C234.26 212.543 234.76 212.74 235.088 213.135C235.416 213.529 235.584 214.119 235.592 214.904V219H233.898V214.945C233.898 214.586 233.82 214.326 233.664 214.166C233.508 214.002 233.248 213.92 232.885 213.92C232.408 213.92 232.051 214.123 231.812 214.529V219H230.119V212.66H231.713ZM236.617 215.783C236.617 214.795 236.838 214.008 237.279 213.422C237.725 212.836 238.332 212.543 239.102 212.543C239.719 212.543 240.229 212.773 240.631 213.234V210H242.33V219H240.801L240.719 218.326C240.297 218.854 239.754 219.117 239.09 219.117C238.344 219.117 237.744 218.824 237.291 218.238C236.842 217.648 236.617 216.83 236.617 215.783ZM238.311 215.906C238.311 216.5 238.414 216.955 238.621 217.271C238.828 217.588 239.129 217.746 239.523 217.746C240.047 217.746 240.416 217.525 240.631 217.084V214.582C240.42 214.141 240.055 213.92 239.535 213.92C238.719 213.92 238.311 214.582 238.311 215.906ZM246.561 219.117C245.631 219.117 244.873 218.832 244.287 218.262C243.705 217.691 243.414 216.932 243.414 215.982V215.818C243.414 215.182 243.537 214.613 243.783 214.113C244.029 213.609 244.377 213.223 244.826 212.953C245.279 212.68 245.795 212.543 246.373 212.543C247.24 212.543 247.922 212.816 248.418 213.363C248.918 213.91 249.168 214.686 249.168 215.689V216.381H245.131C245.186 216.795 245.35 217.127 245.623 217.377C245.9 217.627 246.25 217.752 246.672 217.752C247.324 217.752 247.834 217.516 248.201 217.043L249.033 217.975C248.779 218.334 248.436 218.615 248.002 218.818C247.568 219.018 247.088 219.117 246.561 219.117ZM246.367 213.914C246.031 213.914 245.758 214.027 245.547 214.254C245.34 214.48 245.207 214.805 245.148 215.227H247.504V215.092C247.496 214.717 247.395 214.428 247.199 214.225C247.004 214.018 246.727 213.914 246.367 213.914ZM252.549 214.553L253.615 212.66H255.426L253.621 215.766L255.502 219H253.686L252.555 217.008L251.43 219H249.607L251.488 215.766L249.689 212.66H251.506L252.549 214.553ZM259.041 219.117C258.111 219.117 257.354 218.832 256.768 218.262C256.186 217.691 255.895 216.932 255.895 215.982V215.818C255.895 215.182 256.018 214.613 256.264 214.113C256.51 213.609 256.857 213.223 257.307 212.953C257.76 212.68 258.275 212.543 258.854 212.543C259.721 212.543 260.402 212.816 260.898 213.363C261.398 213.91 261.648 214.686 261.648 215.689V216.381H257.611C257.666 216.795 257.83 217.127 258.104 217.377C258.381 217.627 258.73 217.752 259.152 217.752C259.805 217.752 260.314 217.516 260.682 217.043L261.514 217.975C261.26 218.334 260.916 218.615 260.482 218.818C260.049 219.018 259.568 219.117 259.041 219.117ZM258.848 213.914C258.512 213.914 258.238 214.027 258.027 214.254C257.82 214.48 257.688 214.805 257.629 215.227H259.984V215.092C259.977 214.717 259.875 214.428 259.68 214.225C259.484 214.018 259.207 213.914 258.848 213.914ZM266.178 214.248C265.947 214.217 265.744 214.201 265.568 214.201C264.928 214.201 264.508 214.418 264.309 214.852V219H262.615V212.66H264.215L264.262 213.416C264.602 212.834 265.072 212.543 265.674 212.543C265.861 212.543 266.037 212.568 266.201 212.619L266.178 214.248Z" fill="black"/>
<path d="M267.307 165H224C222.895 165 222 165.895 222 167V175.829C222 176.934 222.895 177.829 224 177.829H267.307C268.411 177.829 269.307 176.934 269.307 175.829V167C269.307 165.895 268.411 165 267.307 165Z" stroke="black" stroke-width="2" stroke-linecap="round" stroke-linejoin="round"/>
<path d="M267.307 177.829H224C222.895 177.829 222 178.724 222 179.829V188.658C222 189.762 222.895 190.658 224 190.658H267.307C268.411 190.658 269.307 189.762 269.307 188.658V179.829C269.307 178.724 268.411 177.829 267.307 177.829Z" stroke="black" stroke-width="2" stroke-linecap="round" stroke-linejoin="round"/>
<path d="M267.307 190.658H224C222.895 190.658 222 191.553 222 192.658V201.487C222 202.591 222.895 203.487 224 203.487H267.307C268.411 203.487 269.307 202.591 269.307 201.487V192.658C269.307 191.553 268.411 190.658 267.307 190.658Z" stroke="black" stroke-width="2" stroke-linecap="round" stroke-linejoin="round"/>
<path d="M229.425 170.015H226.592V172.814H229.425V170.015Z" fill="black" stroke="black" stroke-width="0.49296" stroke-linecap="round" stroke-linejoin="round"/>
<path d="M229.425 182.844H226.592V185.643H229.425V182.844Z" fill="black" stroke="black" stroke-width="0.49296" stroke-linecap="round" stroke-linejoin="round"/>
<path d="M229.425 195.672H226.592V198.472H229.425V195.672Z" fill="black" stroke="black" stroke-width="0.49296" stroke-linecap="round" stroke-linejoin="round"/>
<path d="M236.78 170.015H233.947V172.814H236.78V170.015Z" fill="black" stroke="black" stroke-width="0.49296" stroke-linecap="round" stroke-linejoin="round"/>
<path d="M236.78 182.844H233.947V185.643H236.78V182.844Z" fill="black" stroke="black" stroke-width="0.49296" stroke-linecap="round" stroke-linejoin="round"/>
<path d="M236.78 195.672H233.947V198.472H236.78V195.672Z" fill="black" stroke="black" stroke-width="0.49296" stroke-linecap="round" stroke-linejoin="round"/>
<path d="M257.893 137H233.934C232.313 137 231 138.204 231 139.689V154.235C231 155.72 232.313 156.924 233.934 156.924H257.893C259.513 156.924 260.827 155.72 260.827 154.235V139.689C260.827 138.204 259.513 137 257.893 137Z" fill="white" stroke="black" stroke-width="2" stroke-linecap="round" stroke-linejoin="round"/>
<path d="M232.109 137.581L245.83 149.923" stroke="black" stroke-width="2" stroke-linecap="round"/>
<path d="M259.674 137.549L245.83 149.923" stroke="black" stroke-width="2" stroke-linecap="round"/>
<path d="M231.782 156.067L242.143 146.708" stroke="black" stroke-width="2"/>
<path d="M259.811 156.273L249.351 146.708" stroke="black" stroke-width="2"/>
<path d="M59.2929 190.293C58.9024 190.683 58.9024 191.317 59.2929 191.707L65.6569 198.071C66.0474 198.462 66.6805 198.462 67.0711 198.071C67.4616 197.681 67.4616 197.047 67.0711 196.657L61.4142 191L67.0711 185.343C67.4616 184.953 67.4616 184.319 67.0711 183.929C66.6805 183.538 66.0474 183.538 65.6569 183.929L59.2929 190.293ZM60 192H221.5V190H60V192Z" fill="black"/>
<line x1="397" y1="0.5" x2="443" y2="0.5" stroke="black"/>
<line x1="397" y1="150.5" x2="443" y2="150.5" stroke="black"/>
<line x1="396.5" y1="150" x2="396.5" y2="1" stroke="black"/>
<path d="M245.293 130.707C245.683 131.098 246.317 131.098 246.707 130.707L253.071 124.343C253.462 123.953 253.462 123.319 253.071 122.929C252.681 122.538 252.047 122.538 251.657 122.929L246 128.586L240.343 122.929C239.953 122.538 239.319 122.538 238.929 122.929C238.538 123.319 238.538 123.953 238.929 124.343L245.293 130.707ZM247 130V79H245V130H247Z" fill="black"/>
<rect x="414.5" y="13.5" width="97" height="70" rx="4.5" stroke="black"/>
<path d="M447.5 53C447.5 50.5147 449.515 48.5 452 48.5H497C499.485 48.5 501.5 50.5147 501.5 53V67C501.5 69.4853 499.485 71.5 497 71.5H452C449.515 71.5 447.5 69.4853 447.5 67V53Z" stroke="black"/>
<path d="M463.354 85.6464C463.158 85.4512 462.842 85.4512 462.646 85.6464L459.464 88.8284C459.269 89.0237 459.269 89.3403 459.464 89.5355C459.66 89.7308 459.976 89.7308 460.172 89.5355L463 86.7071L465.828 89.5355C466.024 89.7308 466.34 89.7308 466.536 89.5355C466.731 89.3403 466.731 89.0237 466.536 88.8284L463.354 85.6464ZM463.5 165V86H462.5V165H463.5Z" fill="black"/>
<path d="M475.205 97.0424C473.18 97.3435 471.448 98.8425 470.75 100.896C470.367 102.004 470.38 101.676 470.38 112.894V123.256H468.649C466.993 123.256 466.903 123.262 466.616 123.406C466.24 123.598 466 124.015 466 124.487C466 125.849 466.459 127.471 467.184 128.697C467.567 129.36 468.519 130.387 469.101 130.777C470.004 131.386 471.14 131.804 472.297 131.948C472.769 132.002 475.26 132.016 481.365 132.002C489.243 131.982 489.811 131.968 490.194 131.852C492.145 131.263 493.534 129.846 494.178 127.793L494.369 127.191L494.404 116.446L494.438 105.7L497.394 105.666C500.242 105.632 500.358 105.625 500.536 105.488C500.96 105.173 501.008 105.036 501.001 104.208C500.974 102.292 500.337 100.355 499.304 99.0479C498.763 98.3703 498.181 97.8914 497.449 97.5285C496.32 96.9674 497.333 97.0153 485.814 97.0013C480.168 96.9945 475.39 97.0149 475.205 97.0424ZM496.799 99.6911C497.955 100.266 498.77 101.532 498.804 102.798C498.818 103.175 498.797 103.23 498.626 103.38L498.435 103.545H496.415H494.403V102.497C494.403 100.841 494.547 100.286 495.081 99.8418C495.635 99.3693 496.087 99.3282 496.799 99.6911ZM478.566 108.068C479.107 108.328 479.332 109.013 479.059 109.533C478.997 109.643 478.115 110.567 477.088 111.58L475.226 113.421L477.15 115.344C479.237 117.432 479.292 117.507 479.141 118.047C479.004 118.575 478.6 118.889 478.08 118.889C477.916 118.889 477.711 118.848 477.615 118.794C477.348 118.65 472.804 114.146 472.68 113.9C472.544 113.633 472.537 113.264 472.667 112.969C472.797 112.668 477.328 108.165 477.636 108.035C477.963 107.89 478.224 107.897 478.566 108.068ZM487.203 108.041C487.32 108.109 488.483 109.225 489.783 110.525C491.768 112.51 492.158 112.927 492.22 113.16C492.377 113.728 492.343 113.769 489.797 116.329C488.51 117.623 487.368 118.731 487.251 118.786C486.799 119.032 486.142 118.875 485.827 118.451C485.636 118.191 485.595 117.657 485.745 117.342C485.821 117.191 486.615 116.356 487.737 115.261L489.612 113.427L487.723 111.552C486.69 110.518 485.793 109.587 485.739 109.485C485.615 109.252 485.615 108.794 485.739 108.554C486.026 108 486.69 107.767 487.203 108.041ZM485.718 125.644C485.896 125.822 485.917 125.897 485.917 126.253C485.917 126.931 486.252 127.506 487.155 128.402C487.641 128.881 487.901 129.182 487.901 129.278C487.901 129.36 487.813 129.518 487.703 129.627L487.504 129.826H479.688C470.969 129.826 471.29 129.839 470.277 129.347C469.093 128.772 468.293 127.595 468.217 126.335C468.183 125.801 468.224 125.685 468.498 125.528C468.6 125.473 470.859 125.452 477.074 125.446H485.52L485.718 125.644Z" fill="black"/>
<path d="M478.084 141.248C478.084 141.041 477.98 140.879 477.773 140.762C477.57 140.641 477.242 140.533 476.789 140.439C475.281 140.123 474.527 139.482 474.527 138.518C474.527 137.955 474.76 137.486 475.225 137.111C475.693 136.732 476.305 136.543 477.059 136.543C477.863 136.543 478.506 136.732 478.986 137.111C479.471 137.49 479.713 137.982 479.713 138.588H478.02C478.02 138.346 477.941 138.146 477.785 137.99C477.629 137.83 477.385 137.75 477.053 137.75C476.768 137.75 476.547 137.814 476.391 137.943C476.234 138.072 476.156 138.236 476.156 138.436C476.156 138.623 476.244 138.775 476.42 138.893C476.6 139.006 476.9 139.105 477.322 139.191C477.744 139.273 478.1 139.367 478.389 139.473C479.283 139.801 479.73 140.369 479.73 141.178C479.73 141.756 479.482 142.225 478.986 142.584C478.49 142.939 477.85 143.117 477.064 143.117C476.533 143.117 476.061 143.023 475.646 142.836C475.236 142.645 474.914 142.385 474.68 142.057C474.445 141.725 474.328 141.367 474.328 140.984H475.934C475.949 141.285 476.061 141.516 476.268 141.676C476.475 141.836 476.752 141.916 477.1 141.916C477.424 141.916 477.668 141.855 477.832 141.734C478 141.609 478.084 141.447 478.084 141.248ZM483.463 141.752C483.775 141.752 484.029 141.666 484.225 141.494C484.42 141.322 484.521 141.094 484.529 140.809H486.117C486.113 141.238 485.996 141.633 485.766 141.992C485.535 142.348 485.219 142.625 484.816 142.824C484.418 143.02 483.977 143.117 483.492 143.117C482.586 143.117 481.871 142.83 481.348 142.256C480.824 141.678 480.562 140.881 480.562 139.865V139.754C480.562 138.777 480.822 137.998 481.342 137.416C481.861 136.834 482.574 136.543 483.48 136.543C484.273 136.543 484.908 136.77 485.385 137.223C485.865 137.672 486.109 138.271 486.117 139.021H484.529C484.521 138.693 484.42 138.428 484.225 138.225C484.029 138.018 483.771 137.914 483.451 137.914C483.057 137.914 482.758 138.059 482.555 138.348C482.355 138.633 482.256 139.098 482.256 139.742V139.918C482.256 140.57 482.355 141.039 482.555 141.324C482.754 141.609 483.057 141.752 483.463 141.752ZM492.861 143H487.014V141.84L489.773 138.898C490.152 138.484 490.432 138.123 490.611 137.814C490.795 137.506 490.887 137.213 490.887 136.936C490.887 136.557 490.791 136.26 490.6 136.045C490.408 135.826 490.135 135.717 489.779 135.717C489.396 135.717 489.094 135.85 488.871 136.115C488.652 136.377 488.543 136.723 488.543 137.152H486.844C486.844 136.633 486.967 136.158 487.213 135.729C487.463 135.299 487.814 134.963 488.268 134.721C488.721 134.475 489.234 134.352 489.809 134.352C490.688 134.352 491.369 134.562 491.854 134.984C492.342 135.406 492.586 136.002 492.586 136.771C492.586 137.193 492.477 137.623 492.258 138.061C492.039 138.498 491.664 139.008 491.133 139.59L489.193 141.635H492.861V143Z" fill="black"/>
<path d="M426.52 22.9941V26H424.762V17.4688H428.09C428.73 17.4688 429.293 17.5859 429.777 17.8203C430.266 18.0547 430.641 18.3887 430.902 18.8223C431.164 19.252 431.295 19.7422 431.295 20.293C431.295 21.1289 431.008 21.7891 430.434 22.2734C429.863 22.7539 429.072 22.9941 428.061 22.9941H426.52ZM426.52 21.5703H428.09C428.555 21.5703 428.908 21.4609 429.15 21.2422C429.396 21.0234 429.52 20.7109 429.52 20.3047C429.52 19.8867 429.396 19.5488 429.15 19.291C428.904 19.0332 428.564 18.9004 428.131 18.8926H426.52V21.5703ZM438.174 26H432.326V24.8398L435.086 21.8984C435.465 21.4844 435.744 21.123 435.924 20.8145C436.107 20.5059 436.199 20.2129 436.199 19.9355C436.199 19.5566 436.104 19.2598 435.912 19.0449C435.721 18.8262 435.447 18.7168 435.092 18.7168C434.709 18.7168 434.406 18.8496 434.184 19.1152C433.965 19.377 433.855 19.7227 433.855 20.1523H432.156C432.156 19.6328 432.279 19.1582 432.525 18.7285C432.775 18.2988 433.127 17.9629 433.58 17.7207C434.033 17.4746 434.547 17.3516 435.121 17.3516C436 17.3516 436.682 17.5625 437.166 17.9844C437.654 18.4062 437.898 19.002 437.898 19.7715C437.898 20.1934 437.789 20.623 437.57 21.0605C437.352 21.498 436.977 22.0078 436.445 22.5898L434.506 24.6348H438.174V26ZM443.822 23.7617C443.822 23.4297 443.705 23.1758 443.471 23C443.236 22.8203 442.814 22.6328 442.205 22.4375C441.596 22.2383 441.113 22.043 440.758 21.8516C439.789 21.3281 439.305 20.623 439.305 19.7363C439.305 19.2754 439.434 18.8652 439.691 18.5059C439.953 18.1426 440.326 17.8594 440.811 17.6562C441.299 17.4531 441.846 17.3516 442.451 17.3516C443.061 17.3516 443.604 17.4629 444.08 17.6855C444.557 17.9043 444.926 18.2148 445.188 18.6172C445.453 19.0195 445.586 19.4766 445.586 19.9883H443.828C443.828 19.5977 443.705 19.2949 443.459 19.0801C443.213 18.8613 442.867 18.752 442.422 18.752C441.992 18.752 441.658 18.8438 441.42 19.0273C441.182 19.207 441.062 19.4453 441.062 19.7422C441.062 20.0195 441.201 20.252 441.479 20.4395C441.76 20.627 442.172 20.8027 442.715 20.9668C443.715 21.2676 444.443 21.6406 444.9 22.0859C445.357 22.5312 445.586 23.0859 445.586 23.75C445.586 24.4883 445.307 25.0684 444.748 25.4902C444.189 25.9082 443.438 26.1172 442.492 26.1172C441.836 26.1172 441.238 25.998 440.699 25.7598C440.16 25.5176 439.748 25.1875 439.463 24.7695C439.182 24.3516 439.041 23.8672 439.041 23.3164H440.805C440.805 24.2578 441.367 24.7285 442.492 24.7285C442.91 24.7285 443.236 24.6445 443.471 24.4766C443.705 24.3047 443.822 24.0664 443.822 23.7617ZM453.725 26H451.967V22.3438H448.539V26H446.781V17.4688H448.539V20.9258H451.967V17.4688H453.725V26ZM461.816 26C461.738 25.8477 461.682 25.6582 461.646 25.4316C461.236 25.8887 460.703 26.1172 460.047 26.1172C459.426 26.1172 458.91 25.9375 458.5 25.5781C458.094 25.2188 457.891 24.7656 457.891 24.2188C457.891 23.5469 458.139 23.0312 458.635 22.6719C459.135 22.3125 459.855 22.1309 460.797 22.127H461.576V21.7637C461.576 21.4707 461.5 21.2363 461.348 21.0605C461.199 20.8848 460.963 20.7969 460.639 20.7969C460.354 20.7969 460.129 20.8652 459.965 21.002C459.805 21.1387 459.725 21.3262 459.725 21.5645H458.031C458.031 21.1973 458.145 20.8574 458.371 20.5449C458.598 20.2324 458.918 19.9883 459.332 19.8125C459.746 19.6328 460.211 19.543 460.727 19.543C461.508 19.543 462.127 19.7402 462.584 20.1348C463.045 20.5254 463.275 21.0762 463.275 21.7871V24.5352C463.279 25.1367 463.363 25.5918 463.527 25.9004V26H461.816ZM460.416 24.8223C460.666 24.8223 460.896 24.7676 461.107 24.6582C461.318 24.5449 461.475 24.3945 461.576 24.207V23.1172H460.943C460.096 23.1172 459.645 23.4102 459.59 23.9961L459.584 24.0957C459.584 24.3066 459.658 24.4805 459.807 24.6172C459.955 24.7539 460.158 24.8223 460.416 24.8223ZM464.312 22.7832C464.312 21.7949 464.533 21.0078 464.975 20.4219C465.42 19.8359 466.027 19.543 466.797 19.543C467.414 19.543 467.924 19.7734 468.326 20.2344V17H470.025V26H468.496L468.414 25.3262C467.992 25.8535 467.449 26.1172 466.785 26.1172C466.039 26.1172 465.439 25.8242 464.986 25.2383C464.537 24.6484 464.312 23.8301 464.312 22.7832ZM466.006 22.9062C466.006 23.5 466.109 23.9551 466.316 24.2715C466.523 24.5879 466.824 24.7461 467.219 24.7461C467.742 24.7461 468.111 24.5254 468.326 24.084V21.582C468.115 21.1406 467.75 20.9199 467.23 20.9199C466.414 20.9199 466.006 21.582 466.006 22.9062ZM471.074 22.7832C471.074 21.7949 471.295 21.0078 471.736 20.4219C472.182 19.8359 472.789 19.543 473.559 19.543C474.176 19.543 474.686 19.7734 475.088 20.2344V17H476.787V26H475.258L475.176 25.3262C474.754 25.8535 474.211 26.1172 473.547 26.1172C472.801 26.1172 472.201 25.8242 471.748 25.2383C471.299 24.6484 471.074 23.8301 471.074 22.7832ZM472.768 22.9062C472.768 23.5 472.871 23.9551 473.078 24.2715C473.285 24.5879 473.586 24.7461 473.98 24.7461C474.504 24.7461 474.873 24.5254 475.088 24.084V21.582C474.877 21.1406 474.512 20.9199 473.992 20.9199C473.176 20.9199 472.768 21.582 472.768 22.9062ZM481.662 21.248C481.432 21.2168 481.229 21.2012 481.053 21.2012C480.412 21.2012 479.992 21.418 479.793 21.8516V26H478.1V19.6602H479.699L479.746 20.416C480.086 19.834 480.557 19.543 481.158 19.543C481.346 19.543 481.521 19.5684 481.686 19.6191L481.662 21.248ZM485.283 26.1172C484.354 26.1172 483.596 25.832 483.01 25.2617C482.428 24.6914 482.137 23.9316 482.137 22.9824V22.8184C482.137 22.1816 482.26 21.6133 482.506 21.1133C482.752 20.6094 483.1 20.2227 483.549 19.9531C484.002 19.6797 484.518 19.543 485.096 19.543C485.963 19.543 486.645 19.8164 487.141 20.3633C487.641 20.9102 487.891 21.6855 487.891 22.6895V23.3809H483.854C483.908 23.7949 484.072 24.127 484.346 24.377C484.623 24.627 484.973 24.752 485.395 24.752C486.047 24.752 486.557 24.5156 486.924 24.043L487.756 24.9746C487.502 25.334 487.158 25.6152 486.725 25.8184C486.291 26.0176 485.811 26.1172 485.283 26.1172ZM485.09 20.9141C484.754 20.9141 484.48 21.0273 484.27 21.2539C484.062 21.4805 483.93 21.8047 483.871 22.2266H486.227V22.0918C486.219 21.7168 486.117 21.4277 485.922 21.2246C485.727 21.0176 485.449 20.9141 485.09 20.9141ZM492.291 24.248C492.291 24.041 492.188 23.8789 491.98 23.7617C491.777 23.6406 491.449 23.5332 490.996 23.4395C489.488 23.123 488.734 22.4824 488.734 21.5176C488.734 20.9551 488.967 20.4863 489.432 20.1113C489.9 19.7324 490.512 19.543 491.266 19.543C492.07 19.543 492.713 19.7324 493.193 20.1113C493.678 20.4902 493.92 20.9824 493.92 21.5879H492.227C492.227 21.3457 492.148 21.1465 491.992 20.9902C491.836 20.8301 491.592 20.75 491.26 20.75C490.975 20.75 490.754 20.8145 490.598 20.9434C490.441 21.0723 490.363 21.2363 490.363 21.4355C490.363 21.623 490.451 21.7754 490.627 21.8926C490.807 22.0059 491.107 22.1055 491.529 22.1914C491.951 22.2734 492.307 22.3672 492.596 22.4727C493.49 22.8008 493.938 23.3691 493.938 24.1777C493.938 24.7559 493.689 25.2246 493.193 25.584C492.697 25.9395 492.057 26.1172 491.271 26.1172C490.74 26.1172 490.268 26.0234 489.854 25.8359C489.443 25.6445 489.121 25.3848 488.887 25.0566C488.652 24.7246 488.535 24.3672 488.535 23.9844H490.141C490.156 24.2852 490.268 24.5156 490.475 24.6758C490.682 24.8359 490.959 24.916 491.307 24.916C491.631 24.916 491.875 24.8555 492.039 24.7344C492.207 24.6094 492.291 24.4473 492.291 24.248ZM498.467 24.248C498.467 24.041 498.363 23.8789 498.156 23.7617C497.953 23.6406 497.625 23.5332 497.172 23.4395C495.664 23.123 494.91 22.4824 494.91 21.5176C494.91 20.9551 495.143 20.4863 495.607 20.1113C496.076 19.7324 496.688 19.543 497.441 19.543C498.246 19.543 498.889 19.7324 499.369 20.1113C499.854 20.4902 500.096 20.9824 500.096 21.5879H498.402C498.402 21.3457 498.324 21.1465 498.168 20.9902C498.012 20.8301 497.768 20.75 497.436 20.75C497.15 20.75 496.93 20.8145 496.773 20.9434C496.617 21.0723 496.539 21.2363 496.539 21.4355C496.539 21.623 496.627 21.7754 496.803 21.8926C496.982 22.0059 497.283 22.1055 497.705 22.1914C498.127 22.2734 498.482 22.3672 498.771 22.4727C499.666 22.8008 500.113 23.3691 500.113 24.1777C500.113 24.7559 499.865 25.2246 499.369 25.584C498.873 25.9395 498.232 26.1172 497.447 26.1172C496.916 26.1172 496.443 26.0234 496.029 25.8359C495.619 25.6445 495.297 25.3848 495.062 25.0566C494.828 24.7246 494.711 24.3672 494.711 23.9844H496.316C496.332 24.2852 496.443 24.5156 496.65 24.6758C496.857 24.8359 497.135 24.916 497.482 24.916C497.807 24.916 498.051 24.8555 498.215 24.7344C498.383 24.6094 498.467 24.4473 498.467 24.248Z" fill="black"/>
<path d="M456.387 60.7715C456.387 60.1426 456.508 59.582 456.75 59.0898C456.992 58.5977 457.34 58.2168 457.793 57.9473C458.25 57.6777 458.779 57.543 459.381 57.543C460.236 57.543 460.934 57.8047 461.473 58.3281C462.016 58.8516 462.318 59.5625 462.381 60.4609L462.393 60.8945C462.393 61.8672 462.121 62.6484 461.578 63.2383C461.035 63.8242 460.307 64.1172 459.393 64.1172C458.479 64.1172 457.748 63.8242 457.201 63.2383C456.658 62.6523 456.387 61.8555 456.387 60.8477V60.7715ZM458.08 60.8945C458.08 61.4961 458.193 61.957 458.42 62.2773C458.646 62.5938 458.971 62.752 459.393 62.752C459.803 62.752 460.123 62.5957 460.354 62.2832C460.584 61.9668 460.699 61.4629 460.699 60.7715C460.699 60.1816 460.584 59.7246 460.354 59.4004C460.123 59.0762 459.799 58.9141 459.381 58.9141C458.967 58.9141 458.646 59.0762 458.42 59.4004C458.193 59.7207 458.08 60.2188 458.08 60.8945ZM467.232 63.3555C466.814 63.8633 466.236 64.1172 465.498 64.1172C464.818 64.1172 464.299 63.9219 463.939 63.5312C463.584 63.1406 463.402 62.5684 463.395 61.8145V57.6602H465.088V61.7559C465.088 62.416 465.389 62.7461 465.99 62.7461C466.564 62.7461 466.959 62.5469 467.174 62.1484V57.6602H468.873V64H467.279L467.232 63.3555ZM472.178 56.1016V57.6602H473.262V58.9023H472.178V62.0664C472.178 62.3008 472.223 62.4688 472.312 62.5703C472.402 62.6719 472.574 62.7227 472.828 62.7227C473.016 62.7227 473.182 62.709 473.326 62.6816V63.9648C472.994 64.0664 472.652 64.1172 472.301 64.1172C471.113 64.1172 470.508 63.5176 470.484 62.3184V58.9023H469.559V57.6602H470.484V56.1016H472.178ZM479.912 60.8887C479.912 61.8652 479.689 62.6484 479.244 63.2383C478.803 63.8242 478.205 64.1172 477.451 64.1172C476.811 64.1172 476.293 63.8945 475.898 63.4492V66.4375H474.205V57.6602H475.775L475.834 58.2812C476.244 57.7891 476.779 57.543 477.439 57.543C478.221 57.543 478.828 57.832 479.262 58.4102C479.695 58.9883 479.912 59.7852 479.912 60.8008V60.8887ZM478.219 60.7656C478.219 60.1758 478.113 59.7207 477.902 59.4004C477.695 59.0801 477.393 58.9199 476.994 58.9199C476.463 58.9199 476.098 59.123 475.898 59.5293V62.125C476.105 62.543 476.475 62.752 477.006 62.752C477.814 62.752 478.219 62.0898 478.219 60.7656ZM484.764 63.3555C484.346 63.8633 483.768 64.1172 483.029 64.1172C482.35 64.1172 481.83 63.9219 481.471 63.5312C481.115 63.1406 480.934 62.5684 480.926 61.8145V57.6602H482.619V61.7559C482.619 62.416 482.92 62.7461 483.521 62.7461C484.096 62.7461 484.49 62.5469 484.705 62.1484V57.6602H486.404V64H484.811L484.764 63.3555ZM489.709 56.1016V57.6602H490.793V58.9023H489.709V62.0664C489.709 62.3008 489.754 62.4688 489.844 62.5703C489.934 62.6719 490.105 62.7227 490.359 62.7227C490.547 62.7227 490.713 62.709 490.857 62.6816V63.9648C490.525 64.0664 490.184 64.1172 489.832 64.1172C488.645 64.1172 488.039 63.5176 488.016 62.3184V58.9023H487.09V57.6602H488.016V56.1016H489.709Z" fill="black"/>
<path d="M456.387 60.7715C456.387 60.1426 456.508 59.582 456.75 59.0898C456.992 58.5977 457.34 58.2168 457.793 57.9473C458.25 57.6777 458.779 57.543 459.381 57.543C460.236 57.543 460.934 57.8047 461.473 58.3281C462.016 58.8516 462.318 59.5625 462.381 60.4609L462.393 60.8945C462.393 61.8672 462.121 62.6484 461.578 63.2383C461.035 63.8242 460.307 64.1172 459.393 64.1172C458.479 64.1172 457.748 63.8242 457.201 63.2383C456.658 62.6523 456.387 61.8555 456.387 60.8477V60.7715ZM458.08 60.8945C458.08 61.4961 458.193 61.957 458.42 62.2773C458.646 62.5938 458.971 62.752 459.393 62.752C459.803 62.752 460.123 62.5957 460.354 62.2832C460.584 61.9668 460.699 61.4629 460.699 60.7715C460.699 60.1816 460.584 59.7246 460.354 59.4004C460.123 59.0762 459.799 58.9141 459.381 58.9141C458.967 58.9141 458.646 59.0762 458.42 59.4004C458.193 59.7207 458.08 60.2188 458.08 60.8945ZM467.232 63.3555C466.814 63.8633 466.236 64.1172 465.498 64.1172C464.818 64.1172 464.299 63.9219 463.939 63.5312C463.584 63.1406 463.402 62.5684 463.395 61.8145V57.6602H465.088V61.7559C465.088 62.416 465.389 62.7461 465.99 62.7461C466.564 62.7461 466.959 62.5469 467.174 62.1484V57.6602H468.873V64H467.279L467.232 63.3555ZM472.178 56.1016V57.6602H473.262V58.9023H472.178V62.0664C472.178 62.3008 472.223 62.4688 472.312 62.5703C472.402 62.6719 472.574 62.7227 472.828 62.7227C473.016 62.7227 473.182 62.709 473.326 62.6816V63.9648C472.994 64.0664 472.652 64.1172 472.301 64.1172C471.113 64.1172 470.508 63.5176 470.484 62.3184V58.9023H469.559V57.6602H470.484V56.1016H472.178ZM479.912 60.8887C479.912 61.8652 479.689 62.6484 479.244 63.2383C478.803 63.8242 478.205 64.1172 477.451 64.1172C476.811 64.1172 476.293 63.8945 475.898 63.4492V66.4375H474.205V57.6602H475.775L475.834 58.2812C476.244 57.7891 476.779 57.543 477.439 57.543C478.221 57.543 478.828 57.832 479.262 58.4102C479.695 58.9883 479.912 59.7852 479.912 60.8008V60.8887ZM478.219 60.7656C478.219 60.1758 478.113 59.7207 477.902 59.4004C477.695 59.0801 477.393 58.9199 476.994 58.9199C476.463 58.9199 476.098 59.123 475.898 59.5293V62.125C476.105 62.543 476.475 62.752 477.006 62.752C477.814 62.752 478.219 62.0898 478.219 60.7656ZM484.764 63.3555C484.346 63.8633 483.768 64.1172 483.029 64.1172C482.35 64.1172 481.83 63.9219 481.471 63.5312C481.115 63.1406 480.934 62.5684 480.926 61.8145V57.6602H482.619V61.7559C482.619 62.416 482.92 62.7461 483.521 62.7461C484.096 62.7461 484.49 62.5469 484.705 62.1484V57.6602H486.404V64H484.811L484.764 63.3555ZM489.709 56.1016V57.6602H490.793V58.9023H489.709V62.0664C489.709 62.3008 489.754 62.4688 489.844 62.5703C489.934 62.6719 490.105 62.7227 490.359 62.7227C490.547 62.7227 490.713 62.709 490.857 62.6816V63.9648C490.525 64.0664 490.184 64.1172 489.832 64.1172C488.645 64.1172 488.039 63.5176 488.016 62.3184V58.9023H487.09V57.6602H488.016V56.1016H489.709Z" fill="black"/>
</svg>
