<svg width="513" height="311" viewBox="0 0 513 311" fill="none" xmlns="http://www.w3.org/2000/svg">
<rect x="0.5" y="93.5" width="97" height="70" rx="4.5" stroke="black"/>
<path d="M33.5 133C33.5 130.515 35.5147 128.5 38 128.5H83C85.4853 128.5 87.5 130.515 87.5 133V147C87.5 149.485 85.4853 151.5 83 151.5H38C35.5147 151.5 33.5 149.485 33.5 147V133Z" stroke="black"/>
<path d="M22.5 59C22.5 56.5147 24.5147 54.5 27 54.5H72C74.4853 54.5 76.5 56.5147 76.5 59V73C76.5 75.4853 74.4853 77.5 72 77.5H27C24.5147 77.5 22.5 75.4853 22.5 73V59Z" stroke="black"/>
<path d="M22.5 59C22.5 56.5147 24.5147 54.5 27 54.5H72C74.4853 54.5 76.5 56.5147 76.5 59V73C76.5 75.4853 74.4853 77.5 72 77.5H27C24.5147 77.5 22.5 75.4853 22.5 73V59Z" stroke="black"/>
<path d="M511.393 264.848V252C511.393 249.23 509.164 247 506.394 247H460C457.23 247 455 249.23 455 252V282.892C455 285.662 457.23 287.892 460 287.892H472.3" stroke="black" stroke-width="2" stroke-linecap="round" stroke-linejoin="round"/>
<path d="M473.662 264.506V263.729C473.662 260.959 471.432 258.729 468.662 258.729H455V275.549H466.793" stroke="black" stroke-width="2" stroke-linecap="round" stroke-linejoin="round"/>
<path d="M464.331 271.182C466.564 271.182 468.374 269.372 468.374 267.139C468.374 264.907 466.564 263.097 464.331 263.097C462.099 263.097 460.289 264.907 460.289 267.139C460.289 269.372 462.099 271.182 464.331 271.182Z" stroke="black" stroke-width="2" stroke-linecap="round" stroke-linejoin="round"/>
<path fill-rule="evenodd" clip-rule="evenodd" d="M483.434 288.956L494.238 293.293L504.944 288.72L509.283 277.916L504.71 267.21L493.906 262.872L483.197 267.446L478.86 278.249L483.434 288.956ZM494.248 295.297C494.127 295.297 494.004 295.274 493.89 295.228L482.345 290.593C482.108 290.498 481.918 290.313 481.819 290.077L476.933 278.636C476.832 278.401 476.829 278.137 476.925 277.899L481.56 266.354C481.654 266.117 481.84 265.927 482.075 265.827L493.516 260.942C493.752 260.84 494.017 260.839 494.255 260.934L505.799 265.569C506.036 265.663 506.226 265.849 506.325 266.084L511.211 277.523C511.312 277.759 511.315 278.023 511.219 278.261L506.584 289.807C506.49 290.043 506.305 290.233 506.069 290.332L494.629 295.218C494.506 295.272 494.378 295.297 494.248 295.297Z" fill="black" stroke="black" stroke-width="0.589302"/>
<path fill-rule="evenodd" clip-rule="evenodd" d="M499.222 270.97V273.166H492.035L496.556 277.9L491.929 282.995H499.222V285.191H488.923V282.995L493.507 277.921L488.944 273.166V270.97H499.222Z" fill="black" stroke="black" stroke-width="0.589302"/>
<path d="M468.762 308V299.469H471.75C472.785 299.469 473.57 299.668 474.105 300.066C474.641 300.461 474.908 301.041 474.908 301.807C474.908 302.225 474.801 302.594 474.586 302.914C474.371 303.23 474.072 303.463 473.689 303.611C474.127 303.721 474.471 303.941 474.721 304.273C474.975 304.605 475.102 305.012 475.102 305.492C475.102 306.312 474.84 306.934 474.316 307.355C473.793 307.777 473.047 307.992 472.078 308H468.762ZM470.52 304.285V306.588H472.025C472.439 306.588 472.762 306.49 472.992 306.295C473.227 306.096 473.344 305.822 473.344 305.475C473.344 304.693 472.939 304.297 472.131 304.285H470.52ZM470.52 303.043H471.82C472.707 303.027 473.15 302.674 473.15 301.982C473.15 301.596 473.037 301.318 472.811 301.15C472.588 300.979 472.234 300.893 471.75 300.893H470.52V303.043ZM476.051 304.771C476.051 304.143 476.172 303.582 476.414 303.09C476.656 302.598 477.004 302.217 477.457 301.947C477.914 301.678 478.443 301.543 479.045 301.543C479.9 301.543 480.598 301.805 481.137 302.328C481.68 302.852 481.982 303.562 482.045 304.461L482.057 304.895C482.057 305.867 481.785 306.648 481.242 307.238C480.699 307.824 479.971 308.117 479.057 308.117C478.143 308.117 477.412 307.824 476.865 307.238C476.322 306.652 476.051 305.855 476.051 304.848V304.771ZM477.744 304.895C477.744 305.496 477.857 305.957 478.084 306.277C478.311 306.594 478.635 306.752 479.057 306.752C479.467 306.752 479.787 306.596 480.018 306.283C480.248 305.967 480.363 305.463 480.363 304.771C480.363 304.182 480.248 303.725 480.018 303.4C479.787 303.076 479.463 302.914 479.045 302.914C478.631 302.914 478.311 303.076 478.084 303.4C477.857 303.721 477.744 304.219 477.744 304.895ZM488.812 304.889C488.812 305.904 488.596 306.697 488.162 307.268C487.729 307.834 487.123 308.117 486.346 308.117C485.658 308.117 485.109 307.854 484.699 307.326L484.623 308H483.1V299H484.793V302.229C485.184 301.771 485.697 301.543 486.334 301.543C487.107 301.543 487.713 301.828 488.15 302.398C488.592 302.965 488.812 303.764 488.812 304.795V304.889ZM487.119 304.766C487.119 304.125 487.018 303.658 486.814 303.365C486.611 303.068 486.309 302.92 485.906 302.92C485.367 302.92 484.996 303.141 484.793 303.582V306.084C485 306.529 485.375 306.752 485.918 306.752C486.465 306.752 486.824 306.482 486.996 305.943C487.078 305.686 487.119 305.293 487.119 304.766Z" fill="black"/>
<path d="M77.3935 264.848V252C77.3935 249.23 75.1638 247 72.3938 247H25.9997C23.2297 247 21 249.23 21 252V282.892C21 285.662 23.2297 287.892 25.9997 287.892H38.3002" stroke="black" stroke-width="2" stroke-linecap="round" stroke-linejoin="round"/>
<path d="M39.6624 264.777V264C39.6624 261.23 37.4322 259 34.6622 259H21V275.82H32.7926" stroke="black" stroke-width="2" stroke-linecap="round" stroke-linejoin="round"/>
<path d="M30.3313 271.182C32.5639 271.182 34.3737 269.372 34.3737 267.139C34.3737 264.907 32.5639 263.097 30.3313 263.097C28.0987 263.097 26.2888 264.907 26.2888 267.139C26.2888 269.372 28.0987 271.182 30.3313 271.182Z" stroke="black" stroke-width="2" stroke-linecap="round" stroke-linejoin="round"/>
<path fill-rule="evenodd" clip-rule="evenodd" d="M49.4337 288.956L60.2377 293.293L70.9441 288.72L75.2826 277.916L70.7101 267.21L59.906 262.872L49.1968 267.446L44.8597 278.249L49.4337 288.956ZM60.2483 295.297C60.1267 295.297 60.0036 295.274 59.8898 295.228L48.3446 290.593C48.1077 290.498 47.9175 290.313 47.8192 290.077L42.9327 278.636C42.8316 278.401 42.8288 278.137 42.9249 277.899L47.5597 266.354C47.6545 266.117 47.8397 265.927 48.0752 265.827L59.5164 260.942C59.7519 260.84 60.0171 260.839 60.2547 260.934L71.7991 265.569C72.036 265.663 72.2255 265.849 72.3252 266.084L77.211 277.523C77.3121 277.759 77.315 278.023 77.2188 278.261L72.5841 289.807C72.49 290.043 72.3047 290.233 72.0685 290.332L60.6288 295.218C60.5057 295.272 60.3777 295.297 60.2483 295.297Z" fill="black" stroke="black" stroke-width="0.589302"/>
<path d="M64.4097 276.73C65.4458 276.158 66.094 275.149 65.9426 273.469C65.7387 271.174 63.9114 270.404 61.6047 270.184L61.6042 267H59.817L59.8165 270.101C59.3462 270.101 58.8669 270.111 58.3897 270.121L58.3893 267L56.6036 267L56.6033 270.184C56.2163 270.192 55.8363 270.201 55.4652 270.201V270.191L53 270.19L53.0003 272.26C53.0003 272.26 54.3202 272.233 54.2984 272.259C55.0221 272.26 55.2584 272.716 55.3263 273.109L55.3269 276.737V281.833C55.295 282.08 55.161 282.474 54.655 282.475C54.678 282.497 53.3548 282.475 53.3548 282.475L53.0003 284.789H55.3258C55.7591 284.79 56.1848 284.797 56.6025 284.801L56.6041 288.021L58.3893 288.022L58.3888 284.835C58.8799 284.846 59.354 284.851 59.8171 284.85L59.8166 288.022H61.6038L61.6048 284.807C64.6089 284.62 66.7121 283.799 66.9736 280.738C67.1844 278.274 66.1153 277.174 64.4097 276.73ZM58.4324 272.4C59.4404 272.4 62.6105 272.052 62.6109 274.336C62.6105 276.526 59.4414 276.27 58.4324 276.27V272.4ZM58.4316 282.491L58.4324 278.224C59.6435 278.223 63.442 277.846 63.4425 280.356C63.443 282.764 59.6435 282.49 58.4316 282.491Z" fill="black"/>
<path d="M40.5781 304.242H37.4961L36.9102 306H35.041L38.2168 297.469H39.8457L43.0391 306H41.1699L40.5781 304.242ZM37.9707 302.818H40.1035L39.0312 299.625L37.9707 302.818ZM45.5117 306H43.8125V297H45.5117V306ZM48.6992 306H47V299.66H48.6992V306ZM46.9004 298.02C46.9004 297.766 46.9844 297.557 47.1523 297.393C47.3242 297.229 47.5566 297.146 47.8496 297.146C48.1387 297.146 48.3691 297.229 48.541 297.393C48.7129 297.557 48.7988 297.766 48.7988 298.02C48.7988 298.277 48.7109 298.488 48.5352 298.652C48.3633 298.816 48.1348 298.898 47.8496 298.898C47.5645 298.898 47.334 298.816 47.1582 298.652C46.9863 298.488 46.9004 298.277 46.9004 298.02ZM52.7363 304.752C53.0488 304.752 53.3027 304.666 53.498 304.494C53.6934 304.322 53.7949 304.094 53.8027 303.809H55.3906C55.3867 304.238 55.2695 304.633 55.0391 304.992C54.8086 305.348 54.4922 305.625 54.0898 305.824C53.6914 306.02 53.25 306.117 52.7656 306.117C51.8594 306.117 51.1445 305.83 50.6211 305.256C50.0977 304.678 49.8359 303.881 49.8359 302.865V302.754C49.8359 301.777 50.0957 300.998 50.6152 300.416C51.1348 299.834 51.8477 299.543 52.7539 299.543C53.5469 299.543 54.1816 299.77 54.6582 300.223C55.1387 300.672 55.3828 301.271 55.3906 302.021H53.8027C53.7949 301.693 53.6934 301.428 53.498 301.225C53.3027 301.018 53.0449 300.914 52.7246 300.914C52.3301 300.914 52.0312 301.059 51.8281 301.348C51.6289 301.633 51.5293 302.098 51.5293 302.742V302.918C51.5293 303.57 51.6289 304.039 51.8281 304.324C52.0273 304.609 52.3301 304.752 52.7363 304.752ZM59.2754 306.117C58.3457 306.117 57.5879 305.832 57.002 305.262C56.4199 304.691 56.1289 303.932 56.1289 302.982V302.818C56.1289 302.182 56.252 301.613 56.498 301.113C56.7441 300.609 57.0918 300.223 57.541 299.953C57.9941 299.68 58.5098 299.543 59.0879 299.543C59.9551 299.543 60.6367 299.816 61.1328 300.363C61.6328 300.91 61.8828 301.686 61.8828 302.689V303.381H57.8457C57.9004 303.795 58.0645 304.127 58.3379 304.377C58.6152 304.627 58.9648 304.752 59.3867 304.752C60.0391 304.752 60.5488 304.516 60.916 304.043L61.748 304.975C61.4941 305.334 61.1504 305.615 60.7168 305.818C60.2832 306.018 59.8027 306.117 59.2754 306.117ZM59.082 300.914C58.7461 300.914 58.4727 301.027 58.2617 301.254C58.0547 301.48 57.9219 301.805 57.8633 302.227H60.2188V302.092C60.2109 301.717 60.1094 301.428 59.9141 301.225C59.7188 301.018 59.4414 300.914 59.082 300.914Z" fill="black"/>
<path d="M23.4097 138.73C24.4458 138.158 25.094 137.149 24.9426 135.469C24.7387 133.174 22.9114 132.404 20.6047 132.184L20.6042 129H18.817L18.8165 132.101C18.3462 132.101 17.8669 132.111 17.3897 132.121L17.3893 129L15.6036 129L15.6033 132.184C15.2163 132.192 14.8363 132.201 14.4652 132.201V132.191L12 132.19L12.0003 134.26C12.0003 134.26 13.3202 134.233 13.2984 134.259C14.0221 134.26 14.2584 134.716 14.3263 135.109L14.3269 138.737V143.833C14.295 144.08 14.161 144.474 13.655 144.475C13.678 144.497 12.3548 144.475 12.3548 144.475L12.0003 146.789H14.3258C14.7591 146.79 15.1848 146.797 15.6025 146.801L15.6041 150.021L17.3893 150.022L17.3888 146.835C17.8799 146.846 18.354 146.851 18.8171 146.85L18.8166 150.022H20.6038L20.6048 146.807C23.6089 146.62 25.7121 145.799 25.9736 142.738C26.1844 140.274 25.1153 139.174 23.4097 138.73ZM17.4324 134.4C18.4404 134.4 21.6105 134.052 21.6109 136.336C21.6105 138.526 18.4414 138.27 17.4324 138.27V134.4ZM17.4316 144.491L17.4324 140.224C18.6435 140.223 22.442 139.846 22.4425 142.356C22.443 144.764 18.6435 144.49 17.4316 144.491Z" fill="black"/>
<path d="M248.631 301H246.873V292.469H248.631V301ZM251.713 294.66L251.766 295.393C252.219 294.826 252.826 294.543 253.588 294.543C254.26 294.543 254.76 294.74 255.088 295.135C255.416 295.529 255.584 296.119 255.592 296.904V301H253.898V296.945C253.898 296.586 253.82 296.326 253.664 296.166C253.508 296.002 253.248 295.92 252.885 295.92C252.408 295.92 252.051 296.123 251.812 296.529V301H250.119V294.66H251.713ZM256.617 297.783C256.617 296.795 256.838 296.008 257.279 295.422C257.725 294.836 258.332 294.543 259.102 294.543C259.719 294.543 260.229 294.773 260.631 295.234V292H262.33V301H260.801L260.719 300.326C260.297 300.854 259.754 301.117 259.09 301.117C258.344 301.117 257.744 300.824 257.291 300.238C256.842 299.648 256.617 298.83 256.617 297.783ZM258.311 297.906C258.311 298.5 258.414 298.955 258.621 299.271C258.828 299.588 259.129 299.746 259.523 299.746C260.047 299.746 260.416 299.525 260.631 299.084V296.582C260.42 296.141 260.055 295.92 259.535 295.92C258.719 295.92 258.311 296.582 258.311 297.906ZM266.561 301.117C265.631 301.117 264.873 300.832 264.287 300.262C263.705 299.691 263.414 298.932 263.414 297.982V297.818C263.414 297.182 263.537 296.613 263.783 296.113C264.029 295.609 264.377 295.223 264.826 294.953C265.279 294.68 265.795 294.543 266.373 294.543C267.24 294.543 267.922 294.816 268.418 295.363C268.918 295.91 269.168 296.686 269.168 297.689V298.381H265.131C265.186 298.795 265.35 299.127 265.623 299.377C265.9 299.627 266.25 299.752 266.672 299.752C267.324 299.752 267.834 299.516 268.201 299.043L269.033 299.975C268.779 300.334 268.436 300.615 268.002 300.818C267.568 301.018 267.088 301.117 266.561 301.117ZM266.367 295.914C266.031 295.914 265.758 296.027 265.547 296.254C265.34 296.48 265.207 296.805 265.148 297.227H267.504V297.092C267.496 296.717 267.395 296.428 267.199 296.225C267.004 296.018 266.727 295.914 266.367 295.914ZM272.549 296.553L273.615 294.66H275.426L273.621 297.766L275.502 301H273.686L272.555 299.008L271.43 301H269.607L271.488 297.766L269.689 294.66H271.506L272.549 296.553ZM279.041 301.117C278.111 301.117 277.354 300.832 276.768 300.262C276.186 299.691 275.895 298.932 275.895 297.982V297.818C275.895 297.182 276.018 296.613 276.264 296.113C276.51 295.609 276.857 295.223 277.307 294.953C277.76 294.68 278.275 294.543 278.854 294.543C279.721 294.543 280.402 294.816 280.898 295.363C281.398 295.91 281.648 296.686 281.648 297.689V298.381H277.611C277.666 298.795 277.83 299.127 278.104 299.377C278.381 299.627 278.73 299.752 279.152 299.752C279.805 299.752 280.314 299.516 280.682 299.043L281.514 299.975C281.26 300.334 280.916 300.615 280.482 300.818C280.049 301.018 279.568 301.117 279.041 301.117ZM278.848 295.914C278.512 295.914 278.238 296.027 278.027 296.254C277.82 296.48 277.688 296.805 277.629 297.227H279.984V297.092C279.977 296.717 279.875 296.428 279.68 296.225C279.484 296.018 279.207 295.914 278.848 295.914ZM286.178 296.248C285.947 296.217 285.744 296.201 285.568 296.201C284.928 296.201 284.508 296.418 284.309 296.852V301H282.615V294.66H284.215L284.262 295.416C284.602 294.834 285.072 294.543 285.674 294.543C285.861 294.543 286.037 294.568 286.201 294.619L286.178 296.248Z" fill="black"/>
<path d="M287.307 247H244C242.895 247 242 247.895 242 249V257.829C242 258.934 242.895 259.829 244 259.829H287.307C288.411 259.829 289.307 258.934 289.307 257.829V249C289.307 247.895 288.411 247 287.307 247Z" stroke="black" stroke-width="2" stroke-linecap="round" stroke-linejoin="round"/>
<path d="M287.307 259.829H244C242.895 259.829 242 260.724 242 261.829V270.658C242 271.762 242.895 272.658 244 272.658H287.307C288.411 272.658 289.307 271.762 289.307 270.658V261.829C289.307 260.724 288.411 259.829 287.307 259.829Z" stroke="black" stroke-width="2" stroke-linecap="round" stroke-linejoin="round"/>
<path d="M287.307 272.658H244C242.895 272.658 242 273.553 242 274.658V283.487C242 284.591 242.895 285.487 244 285.487H287.307C288.411 285.487 289.307 284.591 289.307 283.487V274.658C289.307 273.553 288.411 272.658 287.307 272.658Z" stroke="black" stroke-width="2" stroke-linecap="round" stroke-linejoin="round"/>
<path d="M249.425 252.015H246.592V254.814H249.425V252.015Z" fill="black" stroke="black" stroke-width="0.49296" stroke-linecap="round" stroke-linejoin="round"/>
<path d="M249.425 264.844H246.592V267.643H249.425V264.844Z" fill="black" stroke="black" stroke-width="0.49296" stroke-linecap="round" stroke-linejoin="round"/>
<path d="M249.425 277.672H246.592V280.472H249.425V277.672Z" fill="black" stroke="black" stroke-width="0.49296" stroke-linecap="round" stroke-linejoin="round"/>
<path d="M256.78 252.015H253.947V254.814H256.78V252.015Z" fill="black" stroke="black" stroke-width="0.49296" stroke-linecap="round" stroke-linejoin="round"/>
<path d="M256.78 264.844H253.947V267.643H256.78V264.844Z" fill="black" stroke="black" stroke-width="0.49296" stroke-linecap="round" stroke-linejoin="round"/>
<path d="M256.78 277.672H253.947V280.472H256.78V277.672Z" fill="black" stroke="black" stroke-width="0.49296" stroke-linecap="round" stroke-linejoin="round"/>
<path d="M277.893 219H253.934C252.313 219 251 220.204 251 221.689V236.235C251 237.72 252.313 238.924 253.934 238.924H277.893C279.513 238.924 280.827 237.72 280.827 236.235V221.689C280.827 220.204 279.513 219 277.893 219Z" fill="white" stroke="black" stroke-width="2" stroke-linecap="round" stroke-linejoin="round"/>
<path d="M252.109 219.581L265.83 231.923" stroke="black" stroke-width="2" stroke-linecap="round"/>
<path d="M279.674 219.549L265.83 231.923" stroke="black" stroke-width="2" stroke-linecap="round"/>
<path d="M251.782 238.067L262.143 228.708" stroke="black" stroke-width="2"/>
<path d="M279.811 238.273L269.351 228.708" stroke="black" stroke-width="2"/>
<path d="M32.3574 66.8887C32.3574 67.8652 32.1348 68.6484 31.6895 69.2383C31.248 69.8242 30.6504 70.1172 29.8965 70.1172C29.2559 70.1172 28.7383 69.8945 28.3438 69.4492V72.4375H26.6504V63.6602H28.2207L28.2793 64.2812C28.6895 63.7891 29.2246 63.543 29.8848 63.543C30.666 63.543 31.2734 63.832 31.707 64.4102C32.1406 64.9883 32.3574 65.7852 32.3574 66.8008V66.8887ZM30.6641 66.7656C30.6641 66.1758 30.5586 65.7207 30.3477 65.4004C30.1406 65.0801 29.8379 64.9199 29.4395 64.9199C28.9082 64.9199 28.543 65.123 28.3438 65.5293V68.125C28.5508 68.543 28.9199 68.752 29.4512 68.752C30.2598 68.752 30.6641 68.0898 30.6641 66.7656ZM35.7148 67.457L35.1055 68.0664V70H33.4121V61H35.1055V65.9863L35.4336 65.5645L37.0566 63.6602H39.0898L36.7988 66.3027L39.2891 70H37.3438L35.7148 67.457ZM39.8984 66.5312C39.8984 65.6367 40.0176 64.7852 40.2559 63.9766C40.4941 63.168 40.8457 62.4531 41.3105 61.832C41.7754 61.207 42.2793 60.7734 42.8223 60.5312L43.1504 61.4453C42.5801 61.8672 42.1348 62.5195 41.8145 63.4023C41.4941 64.2852 41.334 65.3164 41.334 66.4961V66.6777C41.334 67.8613 41.4922 68.8965 41.8086 69.7832C42.125 70.6699 42.5723 71.332 43.1504 71.7695L42.8223 72.666C42.291 72.4277 41.7949 72.0059 41.334 71.4004C40.877 70.7988 40.5273 70.1035 40.2852 69.3145C40.043 68.5254 39.9141 67.7012 39.8984 66.8418V66.5312ZM48.9688 68.2422H45.8867L45.3008 70H43.4316L46.6074 61.4688H48.2363L51.4297 70H49.5605L48.9688 68.2422ZM46.3613 66.8184H48.4941L47.4219 63.625L46.3613 66.8184ZM53.9023 70H52.2031V61H53.9023V70ZM57.0898 70H55.3906V63.6602H57.0898V70ZM55.291 62.0195C55.291 61.7656 55.375 61.5566 55.543 61.3926C55.7148 61.2285 55.9473 61.1465 56.2402 61.1465C56.5293 61.1465 56.7598 61.2285 56.9316 61.3926C57.1035 61.5566 57.1895 61.7656 57.1895 62.0195C57.1895 62.2773 57.1016 62.4883 56.9258 62.6523C56.7539 62.8164 56.5254 62.8984 56.2402 62.8984C55.9551 62.8984 55.7246 62.8164 55.5488 62.6523C55.377 62.4883 55.291 62.2773 55.291 62.0195ZM61.127 68.752C61.4395 68.752 61.6934 68.666 61.8887 68.4941C62.084 68.3223 62.1855 68.0938 62.1934 67.8086H63.7812C63.7773 68.2383 63.6602 68.6328 63.4297 68.9922C63.1992 69.3477 62.8828 69.625 62.4805 69.8242C62.082 70.0195 61.6406 70.1172 61.1562 70.1172C60.25 70.1172 59.5352 69.8301 59.0117 69.2559C58.4883 68.6777 58.2266 67.8809 58.2266 66.8652V66.7539C58.2266 65.7773 58.4863 64.998 59.0059 64.416C59.5254 63.834 60.2383 63.543 61.1445 63.543C61.9375 63.543 62.5723 63.7695 63.0488 64.2227C63.5293 64.6719 63.7734 65.2715 63.7812 66.0215H62.1934C62.1855 65.6934 62.084 65.4277 61.8887 65.2246C61.6934 65.0176 61.4355 64.9141 61.1152 64.9141C60.7207 64.9141 60.4219 65.0586 60.2188 65.3477C60.0195 65.6328 59.9199 66.0977 59.9199 66.7422V66.918C59.9199 67.5703 60.0195 68.0391 60.2188 68.3242C60.418 68.6094 60.7207 68.752 61.127 68.752ZM67.666 70.1172C66.7363 70.1172 65.9785 69.832 65.3926 69.2617C64.8105 68.6914 64.5195 67.9316 64.5195 66.9824V66.8184C64.5195 66.1816 64.6426 65.6133 64.8887 65.1133C65.1348 64.6094 65.4824 64.2227 65.9316 63.9531C66.3848 63.6797 66.9004 63.543 67.4785 63.543C68.3457 63.543 69.0273 63.8164 69.5234 64.3633C70.0234 64.9102 70.2734 65.6855 70.2734 66.6895V67.3809H66.2363C66.291 67.7949 66.4551 68.127 66.7285 68.377C67.0059 68.627 67.3555 68.752 67.7773 68.752C68.4297 68.752 68.9395 68.5156 69.3066 68.043L70.1387 68.9746C69.8848 69.334 69.541 69.6152 69.1074 69.8184C68.6738 70.0176 68.1934 70.1172 67.666 70.1172ZM67.4727 64.9141C67.1367 64.9141 66.8633 65.0273 66.6523 65.2539C66.4453 65.4805 66.3125 65.8047 66.2539 66.2266H68.6094V66.0918C68.6016 65.7168 68.5 65.4277 68.3047 65.2246C68.1094 65.0176 67.832 64.9141 67.4727 64.9141ZM74.1582 66.666C74.1582 67.5488 74.0312 68.3984 73.7773 69.2148C73.5234 70.0312 73.1582 70.752 72.6816 71.377C72.2051 72.002 71.6953 72.4316 71.1523 72.666L70.8242 71.7695C71.3789 71.3516 71.8164 70.707 72.1367 69.8359C72.457 68.9648 72.623 67.9629 72.6348 66.8301V66.5195C72.6348 65.3516 72.4746 64.3223 72.1543 63.4316C71.8379 62.541 71.3945 61.873 70.8242 61.4277L71.1523 60.5312C71.6836 60.7617 72.1836 61.1797 72.6523 61.7852C73.125 62.3906 73.4902 63.0957 73.748 63.9004C74.0098 64.7051 74.1465 65.5391 74.1582 66.4023V66.666Z" fill="black"/>
<path d="M3.5 20C3.5 17.5147 5.51472 15.5 8 15.5H91C93.4853 15.5 95.5 17.5147 95.5 20V34C95.5 36.4853 93.4853 38.5 91 38.5H8C5.51472 38.5 3.5 36.4853 3.5 34V20Z" stroke="black"/>
<path d="M12.3681 29.248C12.3681 29.041 12.2646 28.8789 12.0575 28.7617C11.8544 28.6406 11.5263 28.5332 11.0732 28.4395C9.56534 28.123 8.81143 27.4824 8.81143 26.5176C8.81143 25.9551 9.04385 25.4863 9.5087 25.1113C9.97745 24.7324 10.5888 24.543 11.3427 24.543C12.1474 24.543 12.7899 24.7324 13.2704 25.1113C13.7548 25.4902 13.997 25.9824 13.997 26.5879H12.3036C12.3036 26.3457 12.2255 26.1465 12.0692 25.9902C11.913 25.8301 11.6689 25.75 11.3368 25.75C11.0517 25.75 10.831 25.8145 10.6747 25.9434C10.5185 26.0723 10.4403 26.2363 10.4403 26.4355C10.4403 26.623 10.5282 26.7754 10.704 26.8926C10.8837 27.0059 11.1845 27.1055 11.6064 27.1914C12.0282 27.2734 12.3837 27.3672 12.6728 27.4727C13.5673 27.8008 14.0146 28.3691 14.0146 29.1777C14.0146 29.7559 13.7665 30.2246 13.2704 30.584C12.7743 30.9395 12.1337 31.1172 11.3485 31.1172C10.8173 31.1172 10.3446 31.0234 9.93057 30.8359C9.52042 30.6445 9.19815 30.3848 8.96378 30.0566C8.7294 29.7246 8.61221 29.3672 8.61221 28.9844H10.2177C10.2333 29.2852 10.3446 29.5156 10.5517 29.6758C10.7587 29.8359 11.036 29.916 11.3837 29.916C11.7079 29.916 11.9521 29.8555 12.1161 29.7344C12.2841 29.6094 12.3681 29.4473 12.3681 29.248ZM16.7626 25.3516C17.2118 24.8125 17.7763 24.543 18.456 24.543C19.831 24.543 20.5282 25.3418 20.5478 26.9395V31H18.8544V26.9863C18.8544 26.623 18.7763 26.3555 18.62 26.1836C18.4638 26.0078 18.204 25.9199 17.8407 25.9199C17.3446 25.9199 16.9853 26.1113 16.7626 26.4941V31H15.0692V22H16.7626V25.3516ZM25.4989 31C25.4208 30.8477 25.3642 30.6582 25.329 30.4316C24.9189 30.8887 24.3857 31.1172 23.7294 31.1172C23.1083 31.1172 22.5927 30.9375 22.1825 30.5781C21.7763 30.2188 21.5732 29.7656 21.5732 29.2188C21.5732 28.5469 21.8212 28.0312 22.3173 27.6719C22.8173 27.3125 23.538 27.1309 24.4794 27.127H25.2587V26.7637C25.2587 26.4707 25.1825 26.2363 25.0302 26.0605C24.8817 25.8848 24.6454 25.7969 24.3212 25.7969C24.036 25.7969 23.8114 25.8652 23.6474 26.002C23.4872 26.1387 23.4071 26.3262 23.4071 26.5645H21.7138C21.7138 26.1973 21.8271 25.8574 22.0536 25.5449C22.2802 25.2324 22.6005 24.9883 23.0146 24.8125C23.4286 24.6328 23.8935 24.543 24.4091 24.543C25.1903 24.543 25.8095 24.7402 26.2665 25.1348C26.7274 25.5254 26.9579 26.0762 26.9579 26.7871V29.5352C26.9618 30.1367 27.0458 30.5918 27.2099 30.9004V31H25.4989ZM24.0985 29.8223C24.3485 29.8223 24.579 29.7676 24.7899 29.6582C25.0009 29.5449 25.1571 29.3945 25.2587 29.207V28.1172H24.6259C23.7782 28.1172 23.3271 28.4102 23.2724 28.9961L23.2665 29.0957C23.2665 29.3066 23.3407 29.4805 23.4892 29.6172C23.6376 29.7539 23.8407 29.8223 24.0985 29.8223ZM34.036 31H28.1884V29.8398L30.9482 26.8984C31.3271 26.4844 31.6064 26.123 31.786 25.8145C31.9696 25.5059 32.0614 25.2129 32.0614 24.9355C32.0614 24.5566 31.9657 24.2598 31.7743 24.0449C31.5829 23.8262 31.3095 23.7168 30.954 23.7168C30.5712 23.7168 30.2685 23.8496 30.0458 24.1152C29.8271 24.377 29.7177 24.7227 29.7177 25.1523H28.0185C28.0185 24.6328 28.1415 24.1582 28.3876 23.7285C28.6376 23.2988 28.9892 22.9629 29.4423 22.7207C29.8954 22.4746 30.4091 22.3516 30.9833 22.3516C31.8622 22.3516 32.5439 22.5625 33.0282 22.9844C33.5165 23.4062 33.7607 24.002 33.7607 24.7715C33.7607 25.1934 33.6513 25.623 33.4325 26.0605C33.2138 26.498 32.8388 27.0078 32.3075 27.5898L30.3681 29.6348H34.036V31ZM35.331 26.8047L35.8232 22.4688H40.6044V23.8809H37.2118L37.0009 25.7148C37.4032 25.5 37.831 25.3926 38.2841 25.3926C39.0966 25.3926 39.7333 25.6445 40.1942 26.1484C40.6552 26.6523 40.8857 27.3574 40.8857 28.2637C40.8857 28.8145 40.7685 29.3086 40.5341 29.7461C40.3036 30.1797 39.9716 30.5176 39.538 30.7598C39.1044 30.998 38.5927 31.1172 38.0028 31.1172C37.4872 31.1172 37.0087 31.0137 36.5673 30.8066C36.1259 30.5957 35.7763 30.3008 35.5185 29.9219C35.2646 29.543 35.1298 29.1113 35.1142 28.627H36.7899C36.8251 28.9824 36.9482 29.2598 37.1591 29.459C37.3739 29.6543 37.6532 29.752 37.997 29.752C38.3798 29.752 38.6747 29.6152 38.8817 29.3418C39.0888 29.0645 39.1923 28.6738 39.1923 28.1699C39.1923 27.6855 39.0732 27.3145 38.8349 27.0566C38.5966 26.7988 38.2587 26.6699 37.8212 26.6699C37.4189 26.6699 37.0927 26.7754 36.8427 26.9863L36.6786 27.1387L35.331 26.8047ZM46.5634 22.3809V23.7754H46.3993C45.6337 23.7871 45.0165 23.9863 44.5478 24.373C44.0829 24.7598 43.8036 25.2969 43.7099 25.9844C44.163 25.5234 44.7353 25.293 45.4267 25.293C46.1689 25.293 46.7587 25.5586 47.1962 26.0898C47.6337 26.6211 47.8524 27.3203 47.8524 28.1875C47.8524 28.7422 47.7314 29.2441 47.4892 29.6934C47.2509 30.1426 46.911 30.4922 46.4696 30.7422C46.0321 30.9922 45.536 31.1172 44.9814 31.1172C44.0829 31.1172 43.3564 30.8047 42.8017 30.1797C42.2509 29.5547 41.9755 28.7207 41.9755 27.6777V27.0684C41.9755 26.1426 42.1493 25.3262 42.497 24.6191C42.8485 23.9082 43.3505 23.3594 44.0028 22.9727C44.6591 22.582 45.4189 22.3848 46.2821 22.3809H46.5634ZM44.911 26.6523C44.6376 26.6523 44.3896 26.7246 44.1669 26.8691C43.9442 27.0098 43.7802 27.1973 43.6747 27.4316V27.9473C43.6747 28.5137 43.786 28.957 44.0087 29.2773C44.2314 29.5938 44.5439 29.752 44.9462 29.752C45.3095 29.752 45.6024 29.6094 45.8251 29.3242C46.0517 29.0352 46.1649 28.6621 46.1649 28.2051C46.1649 27.7402 46.0517 27.3652 45.8251 27.0801C45.5985 26.7949 45.2939 26.6523 44.911 26.6523ZM49.0067 27.5312C49.0067 26.6367 49.1259 25.7852 49.3642 24.9766C49.6024 24.168 49.954 23.4531 50.4189 22.832C50.8837 22.207 51.3876 21.7734 51.9306 21.5312L52.2587 22.4453C51.6884 22.8672 51.2431 23.5195 50.9228 24.4023C50.6024 25.2852 50.4423 26.3164 50.4423 27.4961V27.6777C50.4423 28.8613 50.6005 29.8965 50.9169 30.7832C51.2333 31.6699 51.6806 32.332 52.2587 32.7695L51.9306 33.666C51.3993 33.4277 50.9032 33.0059 50.4423 32.4004C49.9853 31.7988 49.6357 31.1035 49.3935 30.3145C49.1513 29.5254 49.0224 28.7012 49.0067 27.8418V27.5312ZM56.5829 29.248C56.5829 29.041 56.4794 28.8789 56.2724 28.7617C56.0692 28.6406 55.7411 28.5332 55.288 28.4395C53.7802 28.123 53.0263 27.4824 53.0263 26.5176C53.0263 25.9551 53.2587 25.4863 53.7235 25.1113C54.1923 24.7324 54.8036 24.543 55.5575 24.543C56.3622 24.543 57.0048 24.7324 57.4853 25.1113C57.9696 25.4902 58.2118 25.9824 58.2118 26.5879H56.5185C56.5185 26.3457 56.4403 26.1465 56.2841 25.9902C56.1278 25.8301 55.8837 25.75 55.5517 25.75C55.2665 25.75 55.0458 25.8145 54.8896 25.9434C54.7333 26.0723 54.6552 26.2363 54.6552 26.4355C54.6552 26.623 54.7431 26.7754 54.9189 26.8926C55.0985 27.0059 55.3993 27.1055 55.8212 27.1914C56.2431 27.2734 56.5985 27.3672 56.8876 27.4727C57.7821 27.8008 58.2294 28.3691 58.2294 29.1777C58.2294 29.7559 57.9814 30.2246 57.4853 30.584C56.9892 30.9395 56.3485 31.1172 55.5634 31.1172C55.0321 31.1172 54.5595 31.0234 54.1454 30.8359C53.7353 30.6445 53.413 30.3848 53.1786 30.0566C52.9442 29.7246 52.8271 29.3672 52.8271 28.9844H54.4325C54.4482 29.2852 54.5595 29.5156 54.7665 29.6758C54.9735 29.8359 55.2509 29.916 55.5985 29.916C55.9228 29.916 56.1669 29.8555 56.331 29.7344C56.4989 29.6094 56.5829 29.4473 56.5829 29.248ZM62.2431 31.1172C61.3134 31.1172 60.5556 30.832 59.9696 30.2617C59.3876 29.6914 59.0966 28.9316 59.0966 27.9824V27.8184C59.0966 27.1816 59.2196 26.6133 59.4657 26.1133C59.7118 25.6094 60.0595 25.2227 60.5087 24.9531C60.9618 24.6797 61.4774 24.543 62.0556 24.543C62.9228 24.543 63.6044 24.8164 64.1005 25.3633C64.6005 25.9102 64.8505 26.6855 64.8505 27.6895V28.3809H60.8134C60.8681 28.7949 61.0321 29.127 61.3056 29.377C61.5829 29.627 61.9325 29.752 62.3544 29.752C63.0067 29.752 63.5165 29.5156 63.8837 29.043L64.7157 29.9746C64.4618 30.334 64.1181 30.6152 63.6845 30.8184C63.2509 31.0176 62.7704 31.1172 62.2431 31.1172ZM62.0497 25.9141C61.7138 25.9141 61.4403 26.0273 61.2294 26.2539C61.0224 26.4805 60.8896 26.8047 60.831 27.2266H63.1864V27.0918C63.1786 26.7168 63.0771 26.4277 62.8817 26.2246C62.6864 26.0176 62.4091 25.9141 62.0497 25.9141ZM68.454 29.752C68.7665 29.752 69.0204 29.666 69.2157 29.4941C69.411 29.3223 69.5126 29.0938 69.5204 28.8086H71.1083C71.1044 29.2383 70.9872 29.6328 70.7567 29.9922C70.5263 30.3477 70.2099 30.625 69.8075 30.8242C69.4091 31.0195 68.9677 31.1172 68.4833 31.1172C67.5771 31.1172 66.8622 30.8301 66.3388 30.2559C65.8153 29.6777 65.5536 28.8809 65.5536 27.8652V27.7539C65.5536 26.7773 65.8134 25.998 66.3329 25.416C66.8524 24.834 67.5653 24.543 68.4716 24.543C69.2646 24.543 69.8993 24.7695 70.3759 25.2227C70.8564 25.6719 71.1005 26.2715 71.1083 27.0215H69.5204C69.5126 26.6934 69.411 26.4277 69.2157 26.2246C69.0204 26.0176 68.7626 25.9141 68.4423 25.9141C68.0478 25.9141 67.7489 26.0586 67.5458 26.3477C67.3466 26.6328 67.247 27.0977 67.247 27.7422V27.918C67.247 28.5703 67.3466 29.0391 67.5458 29.3242C67.745 29.6094 68.0478 29.752 68.454 29.752ZM75.6376 26.248C75.4071 26.2168 75.204 26.2012 75.0282 26.2012C74.3876 26.2012 73.9677 26.418 73.7685 26.8516V31H72.0751V24.6602H73.6747L73.7216 25.416C74.0614 24.834 74.5321 24.543 75.1337 24.543C75.3212 24.543 75.497 24.5684 75.661 24.6191L75.6376 26.248ZM79.2587 31.1172C78.329 31.1172 77.5712 30.832 76.9853 30.2617C76.4032 29.6914 76.1122 28.9316 76.1122 27.9824V27.8184C76.1122 27.1816 76.2353 26.6133 76.4814 26.1133C76.7274 25.6094 77.0751 25.2227 77.5243 24.9531C77.9774 24.6797 78.4931 24.543 79.0712 24.543C79.9384 24.543 80.62 24.8164 81.1161 25.3633C81.6161 25.9102 81.8661 26.6855 81.8661 27.6895V28.3809H77.829C77.8837 28.7949 78.0478 29.127 78.3212 29.377C78.5985 29.627 78.9482 29.752 79.37 29.752C80.0224 29.752 80.5321 29.5156 80.8993 29.043L81.7314 29.9746C81.4774 30.334 81.1337 30.6152 80.7001 30.8184C80.2665 31.0176 79.786 31.1172 79.2587 31.1172ZM79.0653 25.9141C78.7294 25.9141 78.456 26.0273 78.245 26.2539C78.038 26.4805 77.9052 26.8047 77.8466 27.2266H80.2021V27.0918C80.1942 26.7168 80.0927 26.4277 79.8974 26.2246C79.7021 26.0176 79.4247 25.9141 79.0653 25.9141ZM84.8603 23.1016V24.6602H85.9442V25.9023H84.8603V29.0664C84.8603 29.3008 84.9052 29.4688 84.995 29.5703C85.0849 29.6719 85.2567 29.7227 85.5107 29.7227C85.6982 29.7227 85.8642 29.709 86.0087 29.6816V30.9648C85.6767 31.0664 85.3349 31.1172 84.9833 31.1172C83.7958 31.1172 83.1903 30.5176 83.1669 29.3184V25.9023H82.2411V24.6602H83.1669V23.1016H84.8603ZM89.8056 27.666C89.8056 28.5488 89.6786 29.3984 89.4247 30.2148C89.1708 31.0312 88.8056 31.752 88.329 32.377C87.8524 33.002 87.3427 33.4316 86.7997 33.666L86.4716 32.7695C87.0263 32.3516 87.4638 31.707 87.7841 30.8359C88.1044 29.9648 88.2704 28.9629 88.2821 27.8301V27.5195C88.2821 26.3516 88.122 25.3223 87.8017 24.4316C87.4853 23.541 87.0419 22.873 86.4716 22.4277L86.7997 21.5312C87.331 21.7617 87.831 22.1797 88.2997 22.7852C88.7724 23.3906 89.1376 24.0957 89.3954 24.9004C89.6571 25.7051 89.7939 26.5391 89.8056 27.4023V27.666Z" fill="black"/>
<path d="M454.707 271.207C455.098 270.817 455.098 270.183 454.707 269.793L448.343 263.429C447.953 263.038 447.319 263.038 446.929 263.429C446.538 263.819 446.538 264.453 446.929 264.843L452.586 270.5L446.929 276.157C446.538 276.547 446.538 277.181 446.929 277.571C447.319 277.962 447.953 277.962 448.343 277.571L454.707 271.207ZM292.5 271.5H454V269.5H292.5V271.5Z" fill="black"/>
<path d="M49.3536 165.646C49.1583 165.451 48.8417 165.451 48.6464 165.646L45.4645 168.828C45.2692 169.024 45.2692 169.34 45.4645 169.536C45.6597 169.731 45.9763 169.731 46.1716 169.536L49 166.707L51.8284 169.536C52.0237 169.731 52.3403 169.731 52.5355 169.536C52.7308 169.34 52.7308 169.024 52.5355 168.828L49.3536 165.646ZM49.5 245L49.5 166H48.5L48.5 245H49.5Z" fill="black"/>
<path d="M61.2055 177.042C59.1797 177.343 57.4481 178.842 56.7499 180.896C56.3667 182.004 56.3802 181.676 56.3802 192.894V203.256H54.6487C52.9926 203.256 52.9033 203.262 52.6161 203.406C52.2397 203.598 52 204.015 52 204.487C52 205.849 52.4586 207.471 53.184 208.697C53.5672 209.36 54.5187 210.387 55.1005 210.777C56.0041 211.386 57.1403 211.804 58.2968 211.948C58.7689 212.002 61.2601 212.016 67.3654 212.002C75.243 211.982 75.8112 211.968 76.1945 211.852C78.1449 211.263 79.5343 209.846 80.1779 207.793L80.3693 207.191L80.4036 196.446L80.4379 185.7L83.3945 185.666C86.2418 185.632 86.3578 185.625 86.5361 185.488C86.9604 185.173 87.0082 185.036 87.0014 184.208C86.9739 182.292 86.3375 180.355 85.3039 179.048C84.7631 178.37 84.1813 177.891 83.4491 177.528C82.3198 176.967 83.3327 177.015 71.8139 177.001C66.1675 176.995 61.3901 177.015 61.2055 177.042ZM82.7987 179.691C83.9552 180.266 84.7699 181.532 84.8042 182.798C84.8178 183.175 84.7974 183.229 84.6263 183.38L84.4345 183.545H82.4155H80.4032V182.497C80.4032 180.841 80.5468 180.286 81.0808 179.842C81.6355 179.369 82.0869 179.328 82.7987 179.691ZM64.566 188.068C65.1067 188.328 65.3325 189.013 65.0589 189.533C64.9975 189.643 64.1146 190.567 63.0877 191.58L61.2262 193.421L63.1495 195.344C65.2371 197.432 65.2918 197.507 65.141 198.047C65.0042 198.575 64.6003 198.889 64.0803 198.889C63.916 198.889 63.7106 198.848 63.6149 198.793C63.3481 198.65 58.8036 194.146 58.6803 193.9C58.5436 193.633 58.5368 193.264 58.6668 192.969C58.7968 192.668 63.3277 188.165 63.6356 188.035C63.9635 187.89 64.2238 187.897 64.566 188.068ZM73.2032 188.041C73.3197 188.109 74.4829 189.225 75.7834 190.525C77.7681 192.51 78.1585 192.927 78.2199 193.16C78.3774 193.728 78.3431 193.769 75.7973 196.329C74.5104 197.623 73.3675 198.731 73.2511 198.786C72.7993 199.032 72.1425 198.875 71.8274 198.451C71.6357 198.191 71.5946 197.657 71.7453 197.342C71.8207 197.191 72.6146 196.356 73.7368 195.261L75.6123 193.427L73.7233 191.552C72.6896 190.518 71.7932 189.587 71.7385 189.485C71.6153 189.252 71.6153 188.794 71.7385 188.554C72.026 188 72.69 187.767 73.2032 188.041ZM71.7182 205.644C71.896 205.822 71.9167 205.897 71.9167 206.253C71.9167 206.931 72.2521 207.506 73.1554 208.402C73.6415 208.881 73.9015 209.182 73.9015 209.278C73.9015 209.36 73.8125 209.518 73.7029 209.627L73.5043 209.826H65.6882C56.9688 209.826 57.2903 209.839 56.2774 209.347C55.0934 208.772 54.2926 207.595 54.2173 206.335C54.183 205.801 54.224 205.685 54.498 205.528C54.6005 205.473 56.8592 205.452 63.0738 205.446H71.5196L71.7182 205.644Z" fill="black"/>
<path d="M64.084 221.248C64.084 221.041 63.9805 220.879 63.7734 220.762C63.5703 220.641 63.2422 220.533 62.7891 220.439C61.2812 220.123 60.5273 219.482 60.5273 218.518C60.5273 217.955 60.7598 217.486 61.2246 217.111C61.6934 216.732 62.3047 216.543 63.0586 216.543C63.8633 216.543 64.5059 216.732 64.9863 217.111C65.4707 217.49 65.7129 217.982 65.7129 218.588H64.0195C64.0195 218.346 63.9414 218.146 63.7852 217.99C63.6289 217.83 63.3848 217.75 63.0527 217.75C62.7676 217.75 62.5469 217.814 62.3906 217.943C62.2344 218.072 62.1562 218.236 62.1562 218.436C62.1562 218.623 62.2441 218.775 62.4199 218.893C62.5996 219.006 62.9004 219.105 63.3223 219.191C63.7441 219.273 64.0996 219.367 64.3887 219.473C65.2832 219.801 65.7305 220.369 65.7305 221.178C65.7305 221.756 65.4824 222.225 64.9863 222.584C64.4902 222.939 63.8496 223.117 63.0645 223.117C62.5332 223.117 62.0605 223.023 61.6465 222.836C61.2363 222.645 60.9141 222.385 60.6797 222.057C60.4453 221.725 60.3281 221.367 60.3281 220.984H61.9336C61.9492 221.285 62.0605 221.516 62.2676 221.676C62.4746 221.836 62.752 221.916 63.0996 221.916C63.4238 221.916 63.668 221.855 63.832 221.734C64 221.609 64.084 221.447 64.084 221.248ZM69.4629 221.752C69.7754 221.752 70.0293 221.666 70.2246 221.494C70.4199 221.322 70.5215 221.094 70.5293 220.809H72.1172C72.1133 221.238 71.9961 221.633 71.7656 221.992C71.5352 222.348 71.2188 222.625 70.8164 222.824C70.418 223.02 69.9766 223.117 69.4922 223.117C68.5859 223.117 67.8711 222.83 67.3477 222.256C66.8242 221.678 66.5625 220.881 66.5625 219.865V219.754C66.5625 218.777 66.8223 217.998 67.3418 217.416C67.8613 216.834 68.5742 216.543 69.4805 216.543C70.2734 216.543 70.9082 216.77 71.3848 217.223C71.8652 217.672 72.1094 218.271 72.1172 219.021H70.5293C70.5215 218.693 70.4199 218.428 70.2246 218.225C70.0293 218.018 69.7715 217.914 69.4512 217.914C69.0566 217.914 68.7578 218.059 68.5547 218.348C68.3555 218.633 68.2559 219.098 68.2559 219.742V219.918C68.2559 220.57 68.3555 221.039 68.5547 221.324C68.7539 221.609 69.0566 221.752 69.4629 221.752ZM77.127 223H75.4336V216.473L73.4121 217.1V215.723L76.9453 214.457H77.127V223Z" fill="black"/>
<line x1="75" y1="0.5" x2="121" y2="0.5" stroke="black"/>
<line x1="75" y1="232.5" x2="121" y2="232.5" stroke="black"/>
<line x1="120.5" y1="233" x2="120.5" y2="1" stroke="black"/>
<line x1="121" y1="109" x2="266" y2="109" stroke="black" stroke-width="2"/>
<path d="M265.293 212.707C265.683 213.098 266.317 213.098 266.707 212.707L273.071 206.343C273.462 205.953 273.462 205.319 273.071 204.929C272.681 204.538 272.047 204.538 271.657 204.929L266 210.586L260.343 204.929C259.953 204.538 259.319 204.538 258.929 204.929C258.538 205.319 258.538 205.953 258.929 206.343L265.293 212.707ZM267 212V110H265V212H267Z" fill="black"/>
<path d="M7.51953 103.994V107H5.76172V98.4688H9.08984C9.73047 98.4688 10.293 98.5859 10.7773 98.8203C11.2656 99.0547 11.6406 99.3887 11.9023 99.8223C12.1641 100.252 12.2949 100.742 12.2949 101.293C12.2949 102.129 12.0078 102.789 11.4336 103.273C10.8633 103.754 10.0723 103.994 9.06055 103.994H7.51953ZM7.51953 102.57H9.08984C9.55469 102.57 9.9082 102.461 10.1504 102.242C10.3965 102.023 10.5195 101.711 10.5195 101.305C10.5195 100.887 10.3965 100.549 10.1504 100.291C9.9043 100.033 9.56445 99.9004 9.13086 99.8926H7.51953V102.57ZM19.1738 107H13.3262V105.84L16.0859 102.898C16.4648 102.484 16.7441 102.123 16.9238 101.814C17.1074 101.506 17.1992 101.213 17.1992 100.936C17.1992 100.557 17.1035 100.26 16.9121 100.045C16.7207 99.8262 16.4473 99.7168 16.0918 99.7168C15.709 99.7168 15.4062 99.8496 15.1836 100.115C14.9648 100.377 14.8555 100.723 14.8555 101.152H13.1562C13.1562 100.633 13.2793 100.158 13.5254 99.7285C13.7754 99.2988 14.127 98.9629 14.5801 98.7207C15.0332 98.4746 15.5469 98.3516 16.1211 98.3516C17 98.3516 17.6816 98.5625 18.166 98.9844C18.6543 99.4062 18.8984 100.002 18.8984 100.771C18.8984 101.193 18.7891 101.623 18.5703 102.061C18.3516 102.498 17.9766 103.008 17.4453 103.59L15.5059 105.635H19.1738V107ZM27.043 104.539L28.1914 98.4688H29.9434L28.0508 107H26.2812L24.8926 101.293L23.5039 107H21.7344L19.8418 98.4688H21.5938L22.748 104.527L24.1543 98.4688H25.6426L27.043 104.539ZM35.3223 104.762C35.3223 104.43 35.2051 104.176 34.9707 104C34.7363 103.82 34.3145 103.633 33.7051 103.438C33.0957 103.238 32.6133 103.043 32.2578 102.852C31.2891 102.328 30.8047 101.623 30.8047 100.736C30.8047 100.275 30.9336 99.8652 31.1914 99.5059C31.4531 99.1426 31.8262 98.8594 32.3105 98.6562C32.7988 98.4531 33.3457 98.3516 33.9512 98.3516C34.5605 98.3516 35.1035 98.4629 35.5801 98.6855C36.0566 98.9043 36.4258 99.2148 36.6875 99.6172C36.9531 100.02 37.0859 100.477 37.0859 100.988H35.3281C35.3281 100.598 35.2051 100.295 34.959 100.08C34.7129 99.8613 34.3672 99.752 33.9219 99.752C33.4922 99.752 33.1582 99.8438 32.9199 100.027C32.6816 100.207 32.5625 100.445 32.5625 100.742C32.5625 101.02 32.7012 101.252 32.9785 101.439C33.2598 101.627 33.6719 101.803 34.2148 101.967C35.2148 102.268 35.9434 102.641 36.4004 103.086C36.8574 103.531 37.0859 104.086 37.0859 104.75C37.0859 105.488 36.8066 106.068 36.248 106.49C35.6895 106.908 34.9375 107.117 33.9922 107.117C33.3359 107.117 32.7383 106.998 32.1992 106.76C31.6602 106.518 31.248 106.188 30.9629 105.77C30.6816 105.352 30.541 104.867 30.541 104.316H32.3047C32.3047 105.258 32.8672 105.729 33.9922 105.729C34.4102 105.729 34.7363 105.645 34.9707 105.477C35.2051 105.305 35.3223 105.066 35.3223 104.762ZM45.2246 107H43.4668V103.344H40.0391V107H38.2812V98.4688H40.0391V101.926H43.4668V98.4688H45.2246V107ZM53.3164 107C53.2383 106.848 53.1816 106.658 53.1465 106.432C52.7363 106.889 52.2031 107.117 51.5469 107.117C50.9258 107.117 50.4102 106.938 50 106.578C49.5938 106.219 49.3906 105.766 49.3906 105.219C49.3906 104.547 49.6387 104.031 50.1348 103.672C50.6348 103.312 51.3555 103.131 52.2969 103.127H53.0762V102.764C53.0762 102.471 53 102.236 52.8477 102.061C52.6992 101.885 52.4629 101.797 52.1387 101.797C51.8535 101.797 51.6289 101.865 51.4648 102.002C51.3047 102.139 51.2246 102.326 51.2246 102.564H49.5312C49.5312 102.197 49.6445 101.857 49.8711 101.545C50.0977 101.232 50.418 100.988 50.832 100.812C51.2461 100.633 51.7109 100.543 52.2266 100.543C53.0078 100.543 53.627 100.74 54.084 101.135C54.5449 101.525 54.7754 102.076 54.7754 102.787V105.535C54.7793 106.137 54.8633 106.592 55.0273 106.9V107H53.3164ZM51.916 105.822C52.166 105.822 52.3965 105.768 52.6074 105.658C52.8184 105.545 52.9746 105.395 53.0762 105.207V104.117H52.4434C51.5957 104.117 51.1445 104.41 51.0898 104.996L51.084 105.096C51.084 105.307 51.1582 105.48 51.3066 105.617C51.4551 105.754 51.6582 105.822 51.916 105.822ZM55.8125 103.783C55.8125 102.795 56.0332 102.008 56.4746 101.422C56.9199 100.836 57.5273 100.543 58.2969 100.543C58.9141 100.543 59.4238 100.773 59.8262 101.234V98H61.5254V107H59.9961L59.9141 106.326C59.4922 106.854 58.9492 107.117 58.2852 107.117C57.5391 107.117 56.9395 106.824 56.4863 106.238C56.0371 105.648 55.8125 104.83 55.8125 103.783ZM57.5059 103.906C57.5059 104.5 57.6094 104.955 57.8164 105.271C58.0234 105.588 58.3242 105.746 58.7188 105.746C59.2422 105.746 59.6113 105.525 59.8262 105.084V102.582C59.6152 102.141 59.25 101.92 58.7305 101.92C57.9141 101.92 57.5059 102.582 57.5059 103.906ZM62.5742 103.783C62.5742 102.795 62.7949 102.008 63.2363 101.422C63.6816 100.836 64.2891 100.543 65.0586 100.543C65.6758 100.543 66.1855 100.773 66.5879 101.234V98H68.2871V107H66.7578L66.6758 106.326C66.2539 106.854 65.7109 107.117 65.0469 107.117C64.3008 107.117 63.7012 106.824 63.248 106.238C62.7988 105.648 62.5742 104.83 62.5742 103.783ZM64.2676 103.906C64.2676 104.5 64.3711 104.955 64.5781 105.271C64.7852 105.588 65.0859 105.746 65.4805 105.746C66.0039 105.746 66.373 105.525 66.5879 105.084V102.582C66.377 102.141 66.0117 101.92 65.4922 101.92C64.6758 101.92 64.2676 102.582 64.2676 103.906ZM73.1621 102.248C72.9316 102.217 72.7285 102.201 72.5527 102.201C71.9121 102.201 71.4922 102.418 71.293 102.852V107H69.5996V100.66H71.1992L71.2461 101.416C71.5859 100.834 72.0566 100.543 72.6582 100.543C72.8457 100.543 73.0215 100.568 73.1855 100.619L73.1621 102.248ZM76.7832 107.117C75.8535 107.117 75.0957 106.832 74.5098 106.262C73.9277 105.691 73.6367 104.932 73.6367 103.982V103.818C73.6367 103.182 73.7598 102.613 74.0059 102.113C74.252 101.609 74.5996 101.223 75.0488 100.953C75.502 100.68 76.0176 100.543 76.5957 100.543C77.4629 100.543 78.1445 100.816 78.6406 101.363C79.1406 101.91 79.3906 102.686 79.3906 103.689V104.381H75.3535C75.4082 104.795 75.5723 105.127 75.8457 105.377C76.123 105.627 76.4727 105.752 76.8945 105.752C77.5469 105.752 78.0566 105.516 78.4238 105.043L79.2559 105.975C79.002 106.334 78.6582 106.615 78.2246 106.818C77.791 107.018 77.3105 107.117 76.7832 107.117ZM76.5898 101.914C76.2539 101.914 75.9805 102.027 75.7695 102.254C75.5625 102.48 75.4297 102.805 75.3711 103.227H77.7266V103.092C77.7188 102.717 77.6172 102.428 77.4219 102.225C77.2266 102.018 76.9492 101.914 76.5898 101.914ZM83.791 105.248C83.791 105.041 83.6875 104.879 83.4805 104.762C83.2773 104.641 82.9492 104.533 82.4961 104.439C80.9883 104.123 80.2344 103.482 80.2344 102.518C80.2344 101.955 80.4668 101.486 80.9316 101.111C81.4004 100.732 82.0117 100.543 82.7656 100.543C83.5703 100.543 84.2129 100.732 84.6934 101.111C85.1777 101.49 85.4199 101.982 85.4199 102.588H83.7266C83.7266 102.346 83.6484 102.146 83.4922 101.99C83.3359 101.83 83.0918 101.75 82.7598 101.75C82.4746 101.75 82.2539 101.814 82.0977 101.943C81.9414 102.072 81.8633 102.236 81.8633 102.436C81.8633 102.623 81.9512 102.775 82.127 102.893C82.3066 103.006 82.6074 103.105 83.0293 103.191C83.4512 103.273 83.8066 103.367 84.0957 103.473C84.9902 103.801 85.4375 104.369 85.4375 105.178C85.4375 105.756 85.1895 106.225 84.6934 106.584C84.1973 106.939 83.5566 107.117 82.7715 107.117C82.2402 107.117 81.7676 107.023 81.3535 106.836C80.9434 106.645 80.6211 106.385 80.3867 106.057C80.1523 105.725 80.0352 105.367 80.0352 104.984H81.6406C81.6562 105.285 81.7676 105.516 81.9746 105.676C82.1816 105.836 82.459 105.916 82.8066 105.916C83.1309 105.916 83.375 105.855 83.5391 105.734C83.707 105.609 83.791 105.447 83.791 105.248ZM89.9668 105.248C89.9668 105.041 89.8633 104.879 89.6562 104.762C89.4531 104.641 89.125 104.533 88.6719 104.439C87.1641 104.123 86.4102 103.482 86.4102 102.518C86.4102 101.955 86.6426 101.486 87.1074 101.111C87.5762 100.732 88.1875 100.543 88.9414 100.543C89.7461 100.543 90.3887 100.732 90.8691 101.111C91.3535 101.49 91.5957 101.982 91.5957 102.588H89.9023C89.9023 102.346 89.8242 102.146 89.668 101.99C89.5117 101.83 89.2676 101.75 88.9355 101.75C88.6504 101.75 88.4297 101.814 88.2734 101.943C88.1172 102.072 88.0391 102.236 88.0391 102.436C88.0391 102.623 88.127 102.775 88.3027 102.893C88.4824 103.006 88.7832 103.105 89.2051 103.191C89.627 103.273 89.9824 103.367 90.2715 103.473C91.166 103.801 91.6133 104.369 91.6133 105.178C91.6133 105.756 91.3652 106.225 90.8691 106.584C90.373 106.939 89.7324 107.117 88.9473 107.117C88.416 107.117 87.9434 107.023 87.5293 106.836C87.1191 106.645 86.7969 106.385 86.5625 106.057C86.3281 105.725 86.2109 105.367 86.2109 104.984H87.8164C87.832 105.285 87.9434 105.516 88.1504 105.676C88.3574 105.836 88.6348 105.916 88.9824 105.916C89.3066 105.916 89.5508 105.855 89.7148 105.734C89.8828 105.609 89.9668 105.447 89.9668 105.248Z" fill="black"/>
<path d="M42.3867 140.771C42.3867 140.143 42.5078 139.582 42.75 139.09C42.9922 138.598 43.3398 138.217 43.793 137.947C44.25 137.678 44.7793 137.543 45.3809 137.543C46.2363 137.543 46.9336 137.805 47.4727 138.328C48.0156 138.852 48.3184 139.562 48.3809 140.461L48.3926 140.895C48.3926 141.867 48.1211 142.648 47.5781 143.238C47.0352 143.824 46.3066 144.117 45.3926 144.117C44.4785 144.117 43.748 143.824 43.2012 143.238C42.6582 142.652 42.3867 141.855 42.3867 140.848V140.771ZM44.0801 140.895C44.0801 141.496 44.1934 141.957 44.4199 142.277C44.6465 142.594 44.9707 142.752 45.3926 142.752C45.8027 142.752 46.123 142.596 46.3535 142.283C46.584 141.967 46.6992 141.463 46.6992 140.771C46.6992 140.182 46.584 139.725 46.3535 139.4C46.123 139.076 45.7988 138.914 45.3809 138.914C44.9668 138.914 44.6465 139.076 44.4199 139.4C44.1934 139.721 44.0801 140.219 44.0801 140.895ZM53.2324 143.355C52.8145 143.863 52.2363 144.117 51.498 144.117C50.8184 144.117 50.2988 143.922 49.9395 143.531C49.584 143.141 49.4023 142.568 49.3945 141.814V137.66H51.0879V141.756C51.0879 142.416 51.3887 142.746 51.9902 142.746C52.5645 142.746 52.959 142.547 53.1738 142.148V137.66H54.873V144H53.2793L53.2324 143.355ZM58.1777 136.102V137.66H59.2617V138.902H58.1777V142.066C58.1777 142.301 58.2227 142.469 58.3125 142.57C58.4023 142.672 58.5742 142.723 58.8281 142.723C59.0156 142.723 59.1816 142.709 59.3262 142.682V143.965C58.9941 144.066 58.6523 144.117 58.3008 144.117C57.1133 144.117 56.5078 143.518 56.4844 142.318V138.902H55.5586V137.66H56.4844V136.102H58.1777ZM65.9121 140.889C65.9121 141.865 65.6895 142.648 65.2441 143.238C64.8027 143.824 64.2051 144.117 63.4512 144.117C62.8105 144.117 62.293 143.895 61.8984 143.449V146.438H60.2051V137.66H61.7754L61.834 138.281C62.2441 137.789 62.7793 137.543 63.4395 137.543C64.2207 137.543 64.8281 137.832 65.2617 138.41C65.6953 138.988 65.9121 139.785 65.9121 140.801V140.889ZM64.2188 140.766C64.2188 140.176 64.1133 139.721 63.9023 139.4C63.6953 139.08 63.3926 138.92 62.9941 138.92C62.4629 138.92 62.0977 139.123 61.8984 139.529V142.125C62.1055 142.543 62.4746 142.752 63.0059 142.752C63.8145 142.752 64.2188 142.09 64.2188 140.766ZM70.7637 143.355C70.3457 143.863 69.7676 144.117 69.0293 144.117C68.3496 144.117 67.8301 143.922 67.4707 143.531C67.1152 143.141 66.9336 142.568 66.9258 141.814V137.66H68.6191V141.756C68.6191 142.416 68.9199 142.746 69.5215 142.746C70.0957 142.746 70.4902 142.547 70.7051 142.148V137.66H72.4043V144H70.8105L70.7637 143.355ZM75.709 136.102V137.66H76.793V138.902H75.709V142.066C75.709 142.301 75.7539 142.469 75.8438 142.57C75.9336 142.672 76.1055 142.723 76.3594 142.723C76.5469 142.723 76.7129 142.709 76.8574 142.682V143.965C76.5254 144.066 76.1836 144.117 75.832 144.117C74.6445 144.117 74.0391 143.518 74.0156 142.318V138.902H73.0898V137.66H74.0156V136.102H75.709Z" fill="black"/>
<path d="M42.3867 140.771C42.3867 140.143 42.5078 139.582 42.75 139.09C42.9922 138.598 43.3398 138.217 43.793 137.947C44.25 137.678 44.7793 137.543 45.3809 137.543C46.2363 137.543 46.9336 137.805 47.4727 138.328C48.0156 138.852 48.3184 139.562 48.3809 140.461L48.3926 140.895C48.3926 141.867 48.1211 142.648 47.5781 143.238C47.0352 143.824 46.3066 144.117 45.3926 144.117C44.4785 144.117 43.748 143.824 43.2012 143.238C42.6582 142.652 42.3867 141.855 42.3867 140.848V140.771ZM44.0801 140.895C44.0801 141.496 44.1934 141.957 44.4199 142.277C44.6465 142.594 44.9707 142.752 45.3926 142.752C45.8027 142.752 46.123 142.596 46.3535 142.283C46.584 141.967 46.6992 141.463 46.6992 140.771C46.6992 140.182 46.584 139.725 46.3535 139.4C46.123 139.076 45.7988 138.914 45.3809 138.914C44.9668 138.914 44.6465 139.076 44.4199 139.4C44.1934 139.721 44.0801 140.219 44.0801 140.895ZM53.2324 143.355C52.8145 143.863 52.2363 144.117 51.498 144.117C50.8184 144.117 50.2988 143.922 49.9395 143.531C49.584 143.141 49.4023 142.568 49.3945 141.814V137.66H51.0879V141.756C51.0879 142.416 51.3887 142.746 51.9902 142.746C52.5645 142.746 52.959 142.547 53.1738 142.148V137.66H54.873V144H53.2793L53.2324 143.355ZM58.1777 136.102V137.66H59.2617V138.902H58.1777V142.066C58.1777 142.301 58.2227 142.469 58.3125 142.57C58.4023 142.672 58.5742 142.723 58.8281 142.723C59.0156 142.723 59.1816 142.709 59.3262 142.682V143.965C58.9941 144.066 58.6523 144.117 58.3008 144.117C57.1133 144.117 56.5078 143.518 56.4844 142.318V138.902H55.5586V137.66H56.4844V136.102H58.1777ZM65.9121 140.889C65.9121 141.865 65.6895 142.648 65.2441 143.238C64.8027 143.824 64.2051 144.117 63.4512 144.117C62.8105 144.117 62.293 143.895 61.8984 143.449V146.438H60.2051V137.66H61.7754L61.834 138.281C62.2441 137.789 62.7793 137.543 63.4395 137.543C64.2207 137.543 64.8281 137.832 65.2617 138.41C65.6953 138.988 65.9121 139.785 65.9121 140.801V140.889ZM64.2188 140.766C64.2188 140.176 64.1133 139.721 63.9023 139.4C63.6953 139.08 63.3926 138.92 62.9941 138.92C62.4629 138.92 62.0977 139.123 61.8984 139.529V142.125C62.1055 142.543 62.4746 142.752 63.0059 142.752C63.8145 142.752 64.2188 142.09 64.2188 140.766ZM70.7637 143.355C70.3457 143.863 69.7676 144.117 69.0293 144.117C68.3496 144.117 67.8301 143.922 67.4707 143.531C67.1152 143.141 66.9336 142.568 66.9258 141.814V137.66H68.6191V141.756C68.6191 142.416 68.9199 142.746 69.5215 142.746C70.0957 142.746 70.4902 142.547 70.7051 142.148V137.66H72.4043V144H70.8105L70.7637 143.355ZM75.709 136.102V137.66H76.793V138.902H75.709V142.066C75.709 142.301 75.7539 142.469 75.8438 142.57C75.9336 142.672 76.1055 142.723 76.3594 142.723C76.5469 142.723 76.7129 142.709 76.8574 142.682V143.965C76.5254 144.066 76.1836 144.117 75.832 144.117C74.6445 144.117 74.0391 143.518 74.0156 142.318V138.902H73.0898V137.66H74.0156V136.102H75.709Z" fill="black"/>
</svg>
