<svg width="462" height="445" viewBox="0 0 462 445" fill="none" xmlns="http://www.w3.org/2000/svg">
<rect width="462" height="445" fill="white"/>
<g clip-path="url(#clip0)">
<path d="M272.393 201.848V189C272.393 186.23 270.164 184 267.394 184H221C218.23 184 216 186.23 216 189V219.892C216 222.662 218.23 224.892 221 224.892H233.3" stroke="black" stroke-width="2" stroke-linecap="round" stroke-linejoin="round"/>
<path d="M234.662 201.506V200.729C234.662 197.959 232.432 195.729 229.662 195.729H216V212.549H227.793" stroke="black" stroke-width="2" stroke-linecap="round" stroke-linejoin="round"/>
<path d="M225.331 208.182C227.564 208.182 229.374 206.372 229.374 204.139C229.374 201.907 227.564 200.097 225.331 200.097C223.099 200.097 221.289 201.907 221.289 204.139C221.289 206.372 223.099 208.182 225.331 208.182Z" stroke="black" stroke-width="2" stroke-linecap="round" stroke-linejoin="round"/>
<path fill-rule="evenodd" clip-rule="evenodd" d="M244.434 225.956L255.238 230.293L265.944 225.72L270.283 214.916L265.71 204.21L254.906 199.872L244.197 204.446L239.86 215.249L244.434 225.956ZM255.248 232.297C255.127 232.297 255.004 232.274 254.89 232.228L243.345 227.593C243.108 227.498 242.918 227.313 242.819 227.077L237.933 215.636C237.832 215.401 237.829 215.137 237.925 214.899L242.56 203.354C242.654 203.117 242.84 202.927 243.075 202.827L254.516 197.942C254.752 197.841 255.017 197.839 255.255 197.934L266.799 202.569C267.036 202.663 267.226 202.849 267.325 203.084L272.211 214.523C272.312 214.759 272.315 215.023 272.219 215.261L267.584 226.807C267.49 227.044 267.305 227.233 267.069 227.332L255.629 232.219C255.506 232.272 255.378 232.297 255.248 232.297V232.297Z" fill="black" stroke="black" stroke-width="0.589302"/>
<path fill-rule="evenodd" clip-rule="evenodd" d="M260.222 207.97V210.166H253.035L257.556 214.9L252.929 219.995H260.222V222.191H249.923V219.995L254.507 214.921L249.944 210.166V207.97H260.222Z" fill="black" stroke="black" stroke-width="0.589302"/>
</g>
<path d="M238.997 245.432L236.813 254H234.749L233.585 249.5C233.561 249.412 233.529 249.28 233.489 249.104C233.457 248.928 233.417 248.736 233.369 248.528C233.329 248.32 233.293 248.124 233.261 247.94C233.229 247.748 233.205 247.6 233.189 247.496C233.181 247.6 233.157 247.748 233.117 247.94C233.085 248.124 233.049 248.32 233.009 248.528C232.969 248.728 232.929 248.92 232.889 249.104C232.849 249.28 232.817 249.416 232.793 249.512L231.641 254H229.577L227.393 245.432H229.181L230.273 250.112C230.321 250.296 230.373 250.528 230.429 250.808C230.485 251.088 230.537 251.368 230.585 251.648C230.633 251.928 230.669 252.164 230.693 252.356C230.717 252.156 230.753 251.92 230.801 251.648C230.849 251.368 230.897 251.1 230.945 250.844C231.001 250.58 231.049 250.376 231.089 250.232L232.337 245.432H234.053L235.301 250.232C235.341 250.368 235.385 250.568 235.433 250.832C235.489 251.096 235.541 251.368 235.589 251.648C235.637 251.928 235.673 252.164 235.697 252.356C235.721 252.156 235.757 251.92 235.805 251.648C235.853 251.368 235.905 251.088 235.961 250.808C236.025 250.528 236.077 250.296 236.117 250.112L237.209 245.432H238.997ZM242.384 247.316C243.264 247.316 243.936 247.508 244.4 247.892C244.872 248.268 245.108 248.848 245.108 249.632V254H243.86L243.512 253.112H243.464C243.184 253.464 242.888 253.72 242.576 253.88C242.264 254.04 241.836 254.12 241.292 254.12C240.708 254.12 240.224 253.952 239.84 253.616C239.456 253.272 239.264 252.748 239.264 252.044C239.264 251.348 239.508 250.836 239.996 250.508C240.484 250.172 241.216 249.988 242.192 249.956L243.332 249.92V249.632C243.332 249.288 243.24 249.036 243.056 248.876C242.88 248.716 242.632 248.636 242.312 248.636C241.992 248.636 241.68 248.684 241.376 248.78C241.072 248.868 240.768 248.98 240.464 249.116L239.876 247.904C240.228 247.72 240.616 247.576 241.04 247.472C241.472 247.368 241.92 247.316 242.384 247.316ZM242.636 250.988C242.06 251.004 241.66 251.108 241.436 251.3C241.212 251.492 241.1 251.744 241.1 252.056C241.1 252.328 241.18 252.524 241.34 252.644C241.5 252.756 241.708 252.812 241.964 252.812C242.348 252.812 242.672 252.7 242.936 252.476C243.2 252.244 243.332 251.92 243.332 251.504V250.964L242.636 250.988ZM248.726 254H246.938V244.88H248.726V254ZM252.382 254H250.594V244.88H252.382V254ZM256.95 247.328C257.854 247.328 258.57 247.588 259.098 248.108C259.626 248.62 259.89 249.352 259.89 250.304V251.168H255.666C255.682 251.672 255.83 252.068 256.11 252.356C256.398 252.644 256.794 252.788 257.298 252.788C257.722 252.788 258.106 252.748 258.45 252.668C258.794 252.58 259.15 252.448 259.518 252.272V253.652C259.198 253.812 258.858 253.928 258.498 254C258.146 254.08 257.718 254.12 257.214 254.12C256.558 254.12 255.978 254 255.474 253.76C254.97 253.512 254.574 253.14 254.286 252.644C253.998 252.148 253.854 251.524 253.854 250.772C253.854 250.004 253.982 249.368 254.238 248.864C254.502 248.352 254.866 247.968 255.33 247.712C255.794 247.456 256.334 247.328 256.95 247.328ZM256.962 248.6C256.618 248.6 256.33 248.712 256.098 248.936C255.874 249.16 255.742 249.508 255.702 249.98H258.21C258.202 249.58 258.098 249.252 257.898 248.996C257.698 248.732 257.386 248.6 256.962 248.6ZM264.1 252.692C264.3 252.692 264.492 252.672 264.676 252.632C264.86 252.592 265.044 252.544 265.228 252.488V253.82C265.036 253.9 264.796 253.968 264.508 254.024C264.228 254.088 263.92 254.12 263.584 254.12C263.192 254.12 262.84 254.056 262.528 253.928C262.224 253.8 261.98 253.58 261.796 253.268C261.62 252.948 261.532 252.508 261.532 251.948V248.792H260.68V248.036L261.664 247.436L262.18 246.056H263.32V247.448H265.156V248.792H263.32V251.948C263.32 252.196 263.392 252.384 263.536 252.512C263.68 252.632 263.868 252.692 264.1 252.692Z" fill="black"/>
<path d="M57 345.535V366.606L75.2475 377.141L93.495 366.606V345.535L75.2475 335L57 345.535ZM57 345.535L75.2475 356.07L93.495 345.535" stroke="black" stroke-width="2" stroke-linejoin="round"/>
<path d="M75.2475 356.07V377.141" stroke="black" stroke-width="2" stroke-linecap="round" stroke-dasharray="16 4 2 4"/>
<path d="M57.8749 387.432C59.0189 387.432 59.8829 387.592 60.4669 387.912C61.0509 388.232 61.3429 388.796 61.3429 389.604C61.3429 390.092 61.2269 390.504 60.9949 390.84C60.7709 391.176 60.4469 391.38 60.0229 391.452V391.512C60.3109 391.568 60.5709 391.668 60.8029 391.812C61.0349 391.956 61.2189 392.164 61.3549 392.436C61.4909 392.708 61.5589 393.068 61.5589 393.516C61.5589 394.292 61.2789 394.9 60.7189 395.34C60.1589 395.78 59.3909 396 58.4149 396H55.2109V387.432H57.8749ZM58.0789 390.828C58.6069 390.828 58.9709 390.744 59.1709 390.576C59.3789 390.408 59.4829 390.164 59.4829 389.844C59.4829 389.516 59.3629 389.28 59.1229 389.136C58.8829 388.992 58.5029 388.92 57.9829 388.92H57.0229V390.828H58.0789ZM57.0229 392.268V394.5H58.2109C58.7549 394.5 59.1349 394.396 59.3509 394.188C59.5669 393.972 59.6749 393.688 59.6749 393.336C59.6749 393.016 59.5629 392.76 59.3389 392.568C59.1229 392.368 58.7269 392.268 58.1509 392.268H57.0229ZM64.9174 396H63.1294V386.88H64.9174V396ZM72.7376 392.712C72.7376 393.8 72.4496 394.64 71.8736 395.232C71.3056 395.824 70.5296 396.12 69.5456 396.12C68.9376 396.12 68.3936 395.988 67.9136 395.724C67.4416 395.46 67.0696 395.076 66.7976 394.572C66.5256 394.06 66.3896 393.44 66.3896 392.712C66.3896 391.624 66.6736 390.788 67.2416 390.204C67.8096 389.62 68.5896 389.328 69.5816 389.328C70.1976 389.328 70.7416 389.46 71.2136 389.724C71.6856 389.988 72.0576 390.372 72.3296 390.876C72.6016 391.372 72.7376 391.984 72.7376 392.712ZM68.2136 392.712C68.2136 393.36 68.3176 393.852 68.5256 394.188C68.7416 394.516 69.0896 394.68 69.5696 394.68C70.0416 394.68 70.3816 394.516 70.5896 394.188C70.8056 393.852 70.9136 393.36 70.9136 392.712C70.9136 392.064 70.8056 391.58 70.5896 391.26C70.3816 390.932 70.0376 390.768 69.5576 390.768C69.0856 390.768 68.7416 390.932 68.5256 391.26C68.3176 391.58 68.2136 392.064 68.2136 392.712ZM76.8793 396.12C75.9033 396.12 75.1473 395.852 74.6113 395.316C74.0833 394.772 73.8193 393.92 73.8193 392.76C73.8193 391.96 73.9553 391.308 74.2273 390.804C74.4993 390.3 74.8753 389.928 75.3553 389.688C75.8433 389.448 76.4033 389.328 77.0353 389.328C77.4833 389.328 77.8713 389.372 78.1993 389.46C78.5353 389.548 78.8273 389.652 79.0753 389.772L78.5473 391.152C78.2673 391.04 78.0033 390.948 77.7553 390.876C77.5153 390.804 77.2753 390.768 77.0353 390.768C76.1073 390.768 75.6433 391.428 75.6433 392.748C75.6433 393.404 75.7633 393.888 76.0033 394.2C76.2513 394.512 76.5953 394.668 77.0353 394.668C77.4113 394.668 77.7433 394.62 78.0313 394.524C78.3193 394.42 78.5993 394.28 78.8713 394.104V395.628C78.5993 395.804 78.3113 395.928 78.0073 396C77.7113 396.08 77.3353 396.12 76.8793 396.12ZM82.1674 390.96C82.1674 391.208 82.1554 391.456 82.1314 391.704C82.1154 391.944 82.0954 392.188 82.0714 392.436H82.0954C82.2154 392.268 82.3394 392.1 82.4674 391.932C82.5954 391.756 82.7314 391.592 82.8754 391.44L84.7114 389.448H86.7274L84.1234 392.292L86.8834 396H84.8194L82.9354 393.348L82.1674 393.96V396H80.3794V386.88H82.1674V390.96ZM94.958 396H93.146V391.044C93.146 390.836 93.15 390.564 93.158 390.228C93.174 389.892 93.186 389.596 93.194 389.34C93.154 389.388 93.066 389.476 92.93 389.604C92.802 389.724 92.682 389.832 92.57 389.928L91.586 390.72L90.71 389.628L93.47 387.432H94.958V396Z" fill="black"/>
<path d="M57 246.535V267.606L75.2475 278.141L93.495 267.606V246.535L75.2475 236L57 246.535ZM57 246.535L75.2475 257.07L93.495 246.535" stroke="black" stroke-width="2" stroke-linejoin="round"/>
<path d="M75.2475 257.07V278.141" stroke="black" stroke-width="2" stroke-linecap="round" stroke-dasharray="16 4 2 4"/>
<path d="M57.8749 288.432C59.0189 288.432 59.8829 288.592 60.4669 288.912C61.0509 289.232 61.3429 289.796 61.3429 290.604C61.3429 291.092 61.2269 291.504 60.9949 291.84C60.7709 292.176 60.4469 292.38 60.0229 292.452V292.512C60.3109 292.568 60.5709 292.668 60.8029 292.812C61.0349 292.956 61.2189 293.164 61.3549 293.436C61.4909 293.708 61.5589 294.068 61.5589 294.516C61.5589 295.292 61.2789 295.9 60.7189 296.34C60.1589 296.78 59.3909 297 58.4149 297H55.2109V288.432H57.8749ZM58.0789 291.828C58.6069 291.828 58.9709 291.744 59.1709 291.576C59.3789 291.408 59.4829 291.164 59.4829 290.844C59.4829 290.516 59.3629 290.28 59.1229 290.136C58.8829 289.992 58.5029 289.92 57.9829 289.92H57.0229V291.828H58.0789ZM57.0229 293.268V295.5H58.2109C58.7549 295.5 59.1349 295.396 59.3509 295.188C59.5669 294.972 59.6749 294.688 59.6749 294.336C59.6749 294.016 59.5629 293.76 59.3389 293.568C59.1229 293.368 58.7269 293.268 58.1509 293.268H57.0229ZM64.9174 297H63.1294V287.88H64.9174V297ZM72.7376 293.712C72.7376 294.8 72.4496 295.64 71.8736 296.232C71.3056 296.824 70.5296 297.12 69.5456 297.12C68.9376 297.12 68.3936 296.988 67.9136 296.724C67.4416 296.46 67.0696 296.076 66.7976 295.572C66.5256 295.06 66.3896 294.44 66.3896 293.712C66.3896 292.624 66.6736 291.788 67.2416 291.204C67.8096 290.62 68.5896 290.328 69.5816 290.328C70.1976 290.328 70.7416 290.46 71.2136 290.724C71.6856 290.988 72.0576 291.372 72.3296 291.876C72.6016 292.372 72.7376 292.984 72.7376 293.712ZM68.2136 293.712C68.2136 294.36 68.3176 294.852 68.5256 295.188C68.7416 295.516 69.0896 295.68 69.5696 295.68C70.0416 295.68 70.3816 295.516 70.5896 295.188C70.8056 294.852 70.9136 294.36 70.9136 293.712C70.9136 293.064 70.8056 292.58 70.5896 292.26C70.3816 291.932 70.0376 291.768 69.5576 291.768C69.0856 291.768 68.7416 291.932 68.5256 292.26C68.3176 292.58 68.2136 293.064 68.2136 293.712ZM76.8793 297.12C75.9033 297.12 75.1473 296.852 74.6113 296.316C74.0833 295.772 73.8193 294.92 73.8193 293.76C73.8193 292.96 73.9553 292.308 74.2273 291.804C74.4993 291.3 74.8753 290.928 75.3553 290.688C75.8433 290.448 76.4033 290.328 77.0353 290.328C77.4833 290.328 77.8713 290.372 78.1993 290.46C78.5353 290.548 78.8273 290.652 79.0753 290.772L78.5473 292.152C78.2673 292.04 78.0033 291.948 77.7553 291.876C77.5153 291.804 77.2753 291.768 77.0353 291.768C76.1073 291.768 75.6433 292.428 75.6433 293.748C75.6433 294.404 75.7633 294.888 76.0033 295.2C76.2513 295.512 76.5953 295.668 77.0353 295.668C77.4113 295.668 77.7433 295.62 78.0313 295.524C78.3193 295.42 78.5993 295.28 78.8713 295.104V296.628C78.5993 296.804 78.3113 296.928 78.0073 297C77.7113 297.08 77.3353 297.12 76.8793 297.12ZM82.1674 291.96C82.1674 292.208 82.1554 292.456 82.1314 292.704C82.1154 292.944 82.0954 293.188 82.0714 293.436H82.0954C82.2154 293.268 82.3394 293.1 82.4674 292.932C82.5954 292.756 82.7314 292.592 82.8754 292.44L84.7114 290.448H86.7274L84.1234 293.292L86.8834 297H84.8194L82.9354 294.348L82.1674 294.96V297H80.3794V287.88H82.1674V291.96ZM96.47 297H90.482V295.74L92.63 293.568C93.062 293.12 93.41 292.748 93.674 292.452C93.938 292.148 94.13 291.876 94.25 291.636C94.37 291.388 94.43 291.124 94.43 290.844C94.43 290.5 94.334 290.244 94.142 290.076C93.958 289.908 93.706 289.824 93.386 289.824C93.058 289.824 92.738 289.9 92.426 290.052C92.114 290.204 91.786 290.42 91.442 290.7L90.458 289.536C90.706 289.32 90.966 289.12 91.238 288.936C91.518 288.752 91.838 288.604 92.198 288.492C92.566 288.372 93.006 288.312 93.518 288.312C94.078 288.312 94.558 288.416 94.958 288.624C95.366 288.824 95.678 289.1 95.894 289.452C96.118 289.796 96.23 290.188 96.23 290.628C96.23 291.1 96.134 291.532 95.942 291.924C95.758 292.316 95.486 292.704 95.126 293.088C94.774 293.472 94.346 293.896 93.842 294.36L92.738 295.392V295.476H96.47V297Z" fill="black"/>
<path d="M57 151.535V172.606L75.2475 183.141L93.495 172.606V151.535L75.2475 141L57 151.535ZM57 151.535L75.2475 162.07L93.495 151.535" stroke="black" stroke-width="2" stroke-linejoin="round"/>
<path d="M75.2475 162.07V183.141" stroke="black" stroke-width="2" stroke-linecap="round" stroke-dasharray="16 4 2 4"/>
<path d="M57.8749 193.432C59.0189 193.432 59.8829 193.592 60.4669 193.912C61.0509 194.232 61.3429 194.796 61.3429 195.604C61.3429 196.092 61.2269 196.504 60.9949 196.84C60.7709 197.176 60.4469 197.38 60.0229 197.452V197.512C60.3109 197.568 60.5709 197.668 60.8029 197.812C61.0349 197.956 61.2189 198.164 61.3549 198.436C61.4909 198.708 61.5589 199.068 61.5589 199.516C61.5589 200.292 61.2789 200.9 60.7189 201.34C60.1589 201.78 59.3909 202 58.4149 202H55.2109V193.432H57.8749ZM58.0789 196.828C58.6069 196.828 58.9709 196.744 59.1709 196.576C59.3789 196.408 59.4829 196.164 59.4829 195.844C59.4829 195.516 59.3629 195.28 59.1229 195.136C58.8829 194.992 58.5029 194.92 57.9829 194.92H57.0229V196.828H58.0789ZM57.0229 198.268V200.5H58.2109C58.7549 200.5 59.1349 200.396 59.3509 200.188C59.5669 199.972 59.6749 199.688 59.6749 199.336C59.6749 199.016 59.5629 198.76 59.3389 198.568C59.1229 198.368 58.7269 198.268 58.1509 198.268H57.0229ZM64.9174 202H63.1294V192.88H64.9174V202ZM72.7376 198.712C72.7376 199.8 72.4496 200.64 71.8736 201.232C71.3056 201.824 70.5296 202.12 69.5456 202.12C68.9376 202.12 68.3936 201.988 67.9136 201.724C67.4416 201.46 67.0696 201.076 66.7976 200.572C66.5256 200.06 66.3896 199.44 66.3896 198.712C66.3896 197.624 66.6736 196.788 67.2416 196.204C67.8096 195.62 68.5896 195.328 69.5816 195.328C70.1976 195.328 70.7416 195.46 71.2136 195.724C71.6856 195.988 72.0576 196.372 72.3296 196.876C72.6016 197.372 72.7376 197.984 72.7376 198.712ZM68.2136 198.712C68.2136 199.36 68.3176 199.852 68.5256 200.188C68.7416 200.516 69.0896 200.68 69.5696 200.68C70.0416 200.68 70.3816 200.516 70.5896 200.188C70.8056 199.852 70.9136 199.36 70.9136 198.712C70.9136 198.064 70.8056 197.58 70.5896 197.26C70.3816 196.932 70.0376 196.768 69.5576 196.768C69.0856 196.768 68.7416 196.932 68.5256 197.26C68.3176 197.58 68.2136 198.064 68.2136 198.712ZM76.8793 202.12C75.9033 202.12 75.1473 201.852 74.6113 201.316C74.0833 200.772 73.8193 199.92 73.8193 198.76C73.8193 197.96 73.9553 197.308 74.2273 196.804C74.4993 196.3 74.8753 195.928 75.3553 195.688C75.8433 195.448 76.4033 195.328 77.0353 195.328C77.4833 195.328 77.8713 195.372 78.1993 195.46C78.5353 195.548 78.8273 195.652 79.0753 195.772L78.5473 197.152C78.2673 197.04 78.0033 196.948 77.7553 196.876C77.5153 196.804 77.2753 196.768 77.0353 196.768C76.1073 196.768 75.6433 197.428 75.6433 198.748C75.6433 199.404 75.7633 199.888 76.0033 200.2C76.2513 200.512 76.5953 200.668 77.0353 200.668C77.4113 200.668 77.7433 200.62 78.0313 200.524C78.3193 200.42 78.5993 200.28 78.8713 200.104V201.628C78.5993 201.804 78.3113 201.928 78.0073 202C77.7113 202.08 77.3353 202.12 76.8793 202.12ZM82.1674 196.96C82.1674 197.208 82.1554 197.456 82.1314 197.704C82.1154 197.944 82.0954 198.188 82.0714 198.436H82.0954C82.2154 198.268 82.3394 198.1 82.4674 197.932C82.5954 197.756 82.7314 197.592 82.8754 197.44L84.7114 195.448H86.7274L84.1234 198.292L86.8834 202H84.8194L82.9354 199.348L82.1674 199.96V202H80.3794V192.88H82.1674V196.96ZM96.134 195.352C96.134 195.944 95.954 196.416 95.594 196.768C95.242 197.12 94.806 197.36 94.286 197.488V197.524C94.974 197.604 95.494 197.812 95.846 198.148C96.206 198.484 96.386 198.936 96.386 199.504C96.386 200 96.262 200.448 96.014 200.848C95.774 201.24 95.398 201.552 94.886 201.784C94.382 202.008 93.73 202.12 92.93 202.12C92.002 202.12 91.178 201.964 90.458 201.652V200.116C90.826 200.3 91.21 200.44 91.61 200.536C92.018 200.632 92.394 200.68 92.738 200.68C93.386 200.68 93.838 200.568 94.094 200.344C94.358 200.12 94.49 199.804 94.49 199.396C94.49 199.156 94.43 198.956 94.31 198.796C94.19 198.628 93.978 198.504 93.674 198.424C93.378 198.336 92.962 198.292 92.426 198.292H91.778V196.9H92.438C92.966 196.9 93.366 196.852 93.638 196.756C93.918 196.652 94.106 196.516 94.202 196.348C94.306 196.172 94.358 195.972 94.358 195.748C94.358 195.444 94.262 195.208 94.07 195.04C93.886 194.864 93.574 194.776 93.134 194.776C92.726 194.776 92.37 194.848 92.066 194.992C91.77 195.128 91.518 195.264 91.31 195.4L90.47 194.152C90.806 193.912 91.198 193.712 91.646 193.552C92.102 193.392 92.642 193.312 93.266 193.312C94.146 193.312 94.842 193.492 95.354 193.852C95.874 194.204 96.134 194.704 96.134 195.352Z" fill="black"/>
<path d="M57 56.5352V77.6056L75.2475 88.1408L93.495 77.6056V56.5352L75.2475 46L57 56.5352ZM57 56.5352L75.2475 67.0704L93.495 56.5352" stroke="black" stroke-width="2" stroke-linejoin="round"/>
<path d="M75.2475 67.0704V88.1409" stroke="black" stroke-width="2" stroke-linecap="round" stroke-dasharray="16 4 2 4"/>
<path d="M57.8749 98.432C59.0189 98.432 59.8829 98.592 60.4669 98.912C61.0509 99.232 61.3429 99.796 61.3429 100.604C61.3429 101.092 61.2269 101.504 60.9949 101.84C60.7709 102.176 60.4469 102.38 60.0229 102.452V102.512C60.3109 102.568 60.5709 102.668 60.8029 102.812C61.0349 102.956 61.2189 103.164 61.3549 103.436C61.4909 103.708 61.5589 104.068 61.5589 104.516C61.5589 105.292 61.2789 105.9 60.7189 106.34C60.1589 106.78 59.3909 107 58.4149 107H55.2109V98.432H57.8749ZM58.0789 101.828C58.6069 101.828 58.9709 101.744 59.1709 101.576C59.3789 101.408 59.4829 101.164 59.4829 100.844C59.4829 100.516 59.3629 100.28 59.1229 100.136C58.8829 99.992 58.5029 99.92 57.9829 99.92H57.0229V101.828H58.0789ZM57.0229 103.268V105.5H58.2109C58.7549 105.5 59.1349 105.396 59.3509 105.188C59.5669 104.972 59.6749 104.688 59.6749 104.336C59.6749 104.016 59.5629 103.76 59.3389 103.568C59.1229 103.368 58.7269 103.268 58.1509 103.268H57.0229ZM64.9174 107H63.1294V97.88H64.9174V107ZM72.7376 103.712C72.7376 104.8 72.4496 105.64 71.8736 106.232C71.3056 106.824 70.5296 107.12 69.5456 107.12C68.9376 107.12 68.3936 106.988 67.9136 106.724C67.4416 106.46 67.0696 106.076 66.7976 105.572C66.5256 105.06 66.3896 104.44 66.3896 103.712C66.3896 102.624 66.6736 101.788 67.2416 101.204C67.8096 100.62 68.5896 100.328 69.5816 100.328C70.1976 100.328 70.7416 100.46 71.2136 100.724C71.6856 100.988 72.0576 101.372 72.3296 101.876C72.6016 102.372 72.7376 102.984 72.7376 103.712ZM68.2136 103.712C68.2136 104.36 68.3176 104.852 68.5256 105.188C68.7416 105.516 69.0896 105.68 69.5696 105.68C70.0416 105.68 70.3816 105.516 70.5896 105.188C70.8056 104.852 70.9136 104.36 70.9136 103.712C70.9136 103.064 70.8056 102.58 70.5896 102.26C70.3816 101.932 70.0376 101.768 69.5576 101.768C69.0856 101.768 68.7416 101.932 68.5256 102.26C68.3176 102.58 68.2136 103.064 68.2136 103.712ZM76.8793 107.12C75.9033 107.12 75.1473 106.852 74.6113 106.316C74.0833 105.772 73.8193 104.92 73.8193 103.76C73.8193 102.96 73.9553 102.308 74.2273 101.804C74.4993 101.3 74.8753 100.928 75.3553 100.688C75.8433 100.448 76.4033 100.328 77.0353 100.328C77.4833 100.328 77.8713 100.372 78.1993 100.46C78.5353 100.548 78.8273 100.652 79.0753 100.772L78.5473 102.152C78.2673 102.04 78.0033 101.948 77.7553 101.876C77.5153 101.804 77.2753 101.768 77.0353 101.768C76.1073 101.768 75.6433 102.428 75.6433 103.748C75.6433 104.404 75.7633 104.888 76.0033 105.2C76.2513 105.512 76.5953 105.668 77.0353 105.668C77.4113 105.668 77.7433 105.62 78.0313 105.524C78.3193 105.42 78.5993 105.28 78.8713 105.104V106.628C78.5993 106.804 78.3113 106.928 78.0073 107C77.7113 107.08 77.3353 107.12 76.8793 107.12ZM82.1674 101.96C82.1674 102.208 82.1554 102.456 82.1314 102.704C82.1154 102.944 82.0954 103.188 82.0714 103.436H82.0954C82.2154 103.268 82.3394 103.1 82.4674 102.932C82.5954 102.756 82.7314 102.592 82.8754 102.44L84.7114 100.448H86.7274L84.1234 103.292L86.8834 107H84.8194L82.9354 104.348L82.1674 104.96V107H80.3794V97.88H82.1674V101.96ZM96.662 105.224H95.63V107H93.866V105.224H90.206V103.964L93.962 98.432H95.63V103.82H96.662V105.224ZM93.866 102.368C93.866 102.184 93.87 101.96 93.878 101.696C93.886 101.432 93.894 101.188 93.902 100.964C93.918 100.732 93.93 100.58 93.938 100.508H93.89C93.818 100.668 93.742 100.824 93.662 100.976C93.582 101.128 93.486 101.284 93.374 101.444L91.802 103.82H93.866V102.368Z" fill="black"/>
<line x1="74.5" y1="332" x2="74.5" y2="300" stroke="black"/>
<line x1="391.5" y1="335" x2="391.5" y2="294" stroke="black"/>
<line x1="391.5" y1="235" x2="391.5" y2="201" stroke="black"/>
<line x1="392.5" y1="142" x2="392.5" y2="106" stroke="black"/>
<line x1="74.5" y1="234" x2="74.5" y2="205" stroke="black"/>
<line x1="74.5" y1="139" x2="74.5" y2="110" stroke="black"/>
<path d="M33.3577 28H28.4257V19.432H33.3577V20.92H30.2377V22.804H33.1417V24.292H30.2377V26.5H33.3577V28ZM38.6565 21.328C38.7445 21.328 38.8485 21.332 38.9685 21.34C39.0885 21.348 39.1845 21.36 39.2565 21.376L39.1245 23.056C39.0685 23.04 38.9845 23.028 38.8725 23.02C38.7685 23.004 38.6765 22.996 38.5965 22.996C38.2925 22.996 38.0005 23.052 37.7205 23.164C37.4405 23.268 37.2125 23.44 37.0365 23.68C36.8685 23.92 36.7845 24.248 36.7845 24.664V28H34.9965V21.448H36.3525L36.6165 22.552H36.7005C36.8925 22.216 37.1565 21.928 37.4925 21.688C37.8285 21.448 38.2165 21.328 38.6565 21.328ZM42.4526 21.328C43.2606 21.328 43.8926 21.648 44.3486 22.288H44.3966L44.5406 21.448H46.0526V28.012C46.0526 28.948 45.7766 29.66 45.2246 30.148C44.6726 30.636 43.8566 30.88 42.7766 30.88C42.3126 30.88 41.8806 30.852 41.4806 30.796C41.0886 30.74 40.7046 30.64 40.3286 30.496V29.068C41.1366 29.404 41.9886 29.572 42.8846 29.572C43.8046 29.572 44.2646 29.076 44.2646 28.084V27.952C44.2646 27.816 44.2686 27.676 44.2766 27.532C44.2926 27.388 44.3046 27.26 44.3126 27.148H44.2646C44.0406 27.492 43.7726 27.74 43.4606 27.892C43.1486 28.044 42.7966 28.12 42.4046 28.12C41.6286 28.12 41.0206 27.824 40.5806 27.232C40.1486 26.632 39.9326 25.8 39.9326 24.736C39.9326 23.664 40.1566 22.828 40.6046 22.228C41.0526 21.628 41.6686 21.328 42.4526 21.328ZM43.0166 22.78C42.1766 22.78 41.7566 23.44 41.7566 24.76C41.7566 26.064 42.1846 26.716 43.0406 26.716C43.4966 26.716 43.8326 26.588 44.0486 26.332C44.2726 26.068 44.3846 25.612 44.3846 24.964V24.748C44.3846 24.044 44.2766 23.54 44.0606 23.236C43.8446 22.932 43.4966 22.78 43.0166 22.78ZM53.8743 24.712C53.8743 25.8 53.5863 26.64 53.0103 27.232C52.4423 27.824 51.6663 28.12 50.6823 28.12C50.0743 28.12 49.5303 27.988 49.0503 27.724C48.5783 27.46 48.2063 27.076 47.9343 26.572C47.6623 26.06 47.5263 25.44 47.5263 24.712C47.5263 23.624 47.8103 22.788 48.3783 22.204C48.9463 21.62 49.7263 21.328 50.7183 21.328C51.3343 21.328 51.8783 21.46 52.3503 21.724C52.8223 21.988 53.1943 22.372 53.4663 22.876C53.7383 23.372 53.8743 23.984 53.8743 24.712ZM49.3503 24.712C49.3503 25.36 49.4543 25.852 49.6623 26.188C49.8783 26.516 50.2263 26.68 50.7063 26.68C51.1783 26.68 51.5183 26.516 51.7263 26.188C51.9423 25.852 52.0503 25.36 52.0503 24.712C52.0503 24.064 51.9423 23.58 51.7263 23.26C51.5183 22.932 51.1743 22.768 50.6943 22.768C50.2223 22.768 49.8783 22.932 49.6623 23.26C49.4543 23.58 49.3503 24.064 49.3503 24.712ZM60.2572 21.004C60.2572 21.252 60.2492 21.496 60.2332 21.736C60.2172 21.976 60.2012 22.164 60.1852 22.3H60.2572C60.4332 22.028 60.6692 21.8 60.9652 21.616C61.2612 21.424 61.6452 21.328 62.1172 21.328C62.8532 21.328 63.4492 21.616 63.9052 22.192C64.3612 22.76 64.5892 23.6 64.5892 24.712C64.5892 25.832 64.3572 26.68 63.8932 27.256C63.4292 27.832 62.8212 28.12 62.0692 28.12C61.5892 28.12 61.2092 28.036 60.9292 27.868C60.6572 27.692 60.4332 27.496 60.2572 27.28H60.1372L59.8372 28H58.4692V18.88H60.2572V21.004ZM61.5412 22.756C61.0772 22.756 60.7492 22.9 60.5572 23.188C60.3732 23.476 60.2732 23.916 60.2572 24.508V24.7C60.2572 25.332 60.3492 25.82 60.5332 26.164C60.7252 26.5 61.0692 26.668 61.5652 26.668C61.9332 26.668 62.2252 26.5 62.4412 26.164C62.6572 25.82 62.7652 25.328 62.7652 24.688C62.7652 24.048 62.6532 23.568 62.4292 23.248C62.2132 22.92 61.9172 22.756 61.5412 22.756ZM67.851 28H66.063V18.88H67.851V28ZM75.6712 24.712C75.6712 25.8 75.3832 26.64 74.8072 27.232C74.2392 27.824 73.4632 28.12 72.4792 28.12C71.8712 28.12 71.3272 27.988 70.8472 27.724C70.3752 27.46 70.0032 27.076 69.7312 26.572C69.4592 26.06 69.3232 25.44 69.3232 24.712C69.3232 23.624 69.6072 22.788 70.1752 22.204C70.7432 21.62 71.5232 21.328 72.5152 21.328C73.1312 21.328 73.6752 21.46 74.1472 21.724C74.6192 21.988 74.9912 22.372 75.2632 22.876C75.5352 23.372 75.6712 23.984 75.6712 24.712ZM71.1472 24.712C71.1472 25.36 71.2512 25.852 71.4592 26.188C71.6752 26.516 72.0232 26.68 72.5032 26.68C72.9752 26.68 73.3152 26.516 73.5232 26.188C73.7392 25.852 73.8472 25.36 73.8472 24.712C73.8472 24.064 73.7392 23.58 73.5232 23.26C73.3152 22.932 72.9712 22.768 72.4912 22.768C72.0192 22.768 71.6752 22.932 71.4592 23.26C71.2512 23.58 71.1472 24.064 71.1472 24.712ZM79.8129 28.12C78.8369 28.12 78.0809 27.852 77.5449 27.316C77.0169 26.772 76.7529 25.92 76.7529 24.76C76.7529 23.96 76.8889 23.308 77.1609 22.804C77.4329 22.3 77.8089 21.928 78.2889 21.688C78.7769 21.448 79.3369 21.328 79.9689 21.328C80.4169 21.328 80.8049 21.372 81.1329 21.46C81.4689 21.548 81.7609 21.652 82.0089 21.772L81.4809 23.152C81.2009 23.04 80.9369 22.948 80.6889 22.876C80.4489 22.804 80.2089 22.768 79.9689 22.768C79.0409 22.768 78.5769 23.428 78.5769 24.748C78.5769 25.404 78.6969 25.888 78.9369 26.2C79.1849 26.512 79.5289 26.668 79.9689 26.668C80.3449 26.668 80.6769 26.62 80.9649 26.524C81.2529 26.42 81.5329 26.28 81.8049 26.104V27.628C81.5329 27.804 81.2449 27.928 80.9409 28C80.6449 28.08 80.2689 28.12 79.8129 28.12ZM85.101 22.96C85.101 23.208 85.089 23.456 85.065 23.704C85.049 23.944 85.029 24.188 85.005 24.436H85.029C85.149 24.268 85.273 24.1 85.401 23.932C85.529 23.756 85.665 23.592 85.809 23.44L87.645 21.448H89.661L87.057 24.292L89.817 28H87.753L85.869 25.348L85.101 25.96V28H83.313V18.88H85.101V22.96ZM93.4184 28.12C92.4424 28.12 91.6864 27.852 91.1504 27.316C90.6224 26.772 90.3584 25.92 90.3584 24.76C90.3584 23.96 90.4944 23.308 90.7664 22.804C91.0384 22.3 91.4144 21.928 91.8944 21.688C92.3824 21.448 92.9424 21.328 93.5744 21.328C94.0224 21.328 94.4104 21.372 94.7384 21.46C95.0744 21.548 95.3664 21.652 95.6144 21.772L95.0864 23.152C94.8064 23.04 94.5424 22.948 94.2944 22.876C94.0544 22.804 93.8144 22.768 93.5744 22.768C92.6464 22.768 92.1824 23.428 92.1824 24.748C92.1824 25.404 92.3024 25.888 92.5424 26.2C92.7904 26.512 93.1344 26.668 93.5744 26.668C93.9504 26.668 94.2824 26.62 94.5704 26.524C94.8584 26.42 95.1384 26.28 95.4104 26.104V27.628C95.1384 27.804 94.8504 27.928 94.5464 28C94.2504 28.08 93.8744 28.12 93.4184 28.12ZM98.7064 20.74C98.7064 21.06 98.6944 21.368 98.6704 21.664C98.6544 21.96 98.6384 22.168 98.6224 22.288H98.7184C98.9264 21.952 99.1944 21.708 99.5224 21.556C99.8504 21.404 100.214 21.328 100.614 21.328C101.326 21.328 101.894 21.52 102.318 21.904C102.75 22.28 102.966 22.888 102.966 23.728V28H101.178V24.172C101.178 23.228 100.826 22.756 100.122 22.756C99.5864 22.756 99.2144 22.944 99.0064 23.32C98.8064 23.688 98.7064 24.22 98.7064 24.916V28H96.9184V18.88H98.7064V20.74ZM107.493 21.316C108.373 21.316 109.045 21.508 109.509 21.892C109.981 22.268 110.217 22.848 110.217 23.632V28H108.969L108.621 27.112H108.573C108.293 27.464 107.997 27.72 107.685 27.88C107.373 28.04 106.945 28.12 106.401 28.12C105.817 28.12 105.333 27.952 104.949 27.616C104.565 27.272 104.373 26.748 104.373 26.044C104.373 25.348 104.617 24.836 105.105 24.508C105.593 24.172 106.325 23.988 107.301 23.956L108.441 23.92V23.632C108.441 23.288 108.349 23.036 108.165 22.876C107.989 22.716 107.741 22.636 107.421 22.636C107.101 22.636 106.789 22.684 106.485 22.78C106.181 22.868 105.877 22.98 105.573 23.116L104.985 21.904C105.337 21.72 105.725 21.576 106.149 21.472C106.581 21.368 107.029 21.316 107.493 21.316ZM107.745 24.988C107.169 25.004 106.769 25.108 106.545 25.3C106.321 25.492 106.209 25.744 106.209 26.056C106.209 26.328 106.289 26.524 106.449 26.644C106.609 26.756 106.817 26.812 107.073 26.812C107.457 26.812 107.781 26.7 108.045 26.476C108.309 26.244 108.441 25.92 108.441 25.504V24.964L107.745 24.988ZM112.947 18.88C113.211 18.88 113.439 18.944 113.631 19.072C113.823 19.192 113.919 19.42 113.919 19.756C113.919 20.084 113.823 20.312 113.631 20.44C113.439 20.568 113.211 20.632 112.947 20.632C112.675 20.632 112.443 20.568 112.251 20.44C112.067 20.312 111.975 20.084 111.975 19.756C111.975 19.42 112.067 19.192 112.251 19.072C112.443 18.944 112.675 18.88 112.947 18.88ZM113.835 21.448V28H112.047V21.448H113.835ZM119.424 21.328C120.128 21.328 120.692 21.52 121.116 21.904C121.54 22.28 121.752 22.888 121.752 23.728V28H119.964V24.172C119.964 23.7 119.88 23.348 119.712 23.116C119.544 22.876 119.276 22.756 118.908 22.756C118.364 22.756 117.992 22.944 117.792 23.32C117.592 23.688 117.492 24.22 117.492 24.916V28H115.704V21.448H117.072L117.312 22.288H117.408C117.616 21.952 117.9 21.708 118.26 21.556C118.628 21.404 119.016 21.328 119.424 21.328Z" fill="black"/>
<g clip-path="url(#clip1)">
<path d="M401.621 335.649H381.379C376.005 335.649 371.649 340.005 371.649 345.379V365.621C371.649 370.995 376.005 375.351 381.379 375.351H401.621C406.995 375.351 411.351 370.995 411.351 365.621V345.379C411.351 340.005 406.995 335.649 401.621 335.649Z" stroke="black" stroke-width="2" stroke-linejoin="round"/>
<path d="M376.763 355.5H406.757" stroke="black" stroke-width="2" stroke-linecap="round"/>
<path d="M376.503 345.791H406.497" stroke="black" stroke-width="2" stroke-linecap="round"/>
<path d="M376.503 365.642H406.497" stroke="black" stroke-width="2" stroke-linecap="round"/>
<path d="M383.611 348.652C385.191 348.652 386.472 347.371 386.472 345.791C386.472 344.211 385.191 342.93 383.611 342.93C382.032 342.93 380.751 344.211 380.751 345.791C380.751 347.371 382.032 348.652 383.611 348.652Z" fill="white" stroke="black" stroke-width="2" stroke-linecap="round" stroke-linejoin="round"/>
<path d="M401.036 358.361C402.616 358.361 403.896 357.08 403.896 355.5C403.896 353.92 402.616 352.639 401.036 352.639C399.456 352.639 398.175 353.92 398.175 355.5C398.175 357.08 399.456 358.361 401.036 358.361Z" fill="white" stroke="black" stroke-width="2" stroke-linecap="round" stroke-linejoin="round"/>
<path d="M391.5 368.503C393.08 368.503 394.361 367.222 394.361 365.642C394.361 364.062 393.08 362.782 391.5 362.782C389.92 362.782 388.639 364.062 388.639 365.642C388.639 367.222 389.92 368.503 391.5 368.503Z" fill="white" stroke="black" stroke-width="2" stroke-linecap="round" stroke-linejoin="round"/>
</g>
<path d="M374.056 392H372.268V383.432H377.176V384.92H374.056V387.128H376.96V388.616H374.056V392ZM379.609 382.88C379.873 382.88 380.101 382.944 380.293 383.072C380.485 383.192 380.581 383.42 380.581 383.756C380.581 384.084 380.485 384.312 380.293 384.44C380.101 384.568 379.873 384.632 379.609 384.632C379.337 384.632 379.105 384.568 378.913 384.44C378.729 384.312 378.637 384.084 378.637 383.756C378.637 383.42 378.729 383.192 378.913 383.072C379.105 382.944 379.337 382.88 379.609 382.88ZM380.497 385.448V392H378.709V385.448H380.497ZM384.154 392H382.366V382.88H384.154V392ZM388.782 390.692C388.982 390.692 389.174 390.672 389.358 390.632C389.542 390.592 389.726 390.544 389.91 390.488V391.82C389.718 391.9 389.478 391.968 389.19 392.024C388.91 392.088 388.602 392.12 388.266 392.12C387.874 392.12 387.522 392.056 387.21 391.928C386.906 391.8 386.662 391.58 386.478 391.268C386.302 390.948 386.214 390.508 386.214 389.948V386.792H385.362V386.036L386.346 385.436L386.862 384.056H388.002V385.448H389.838V386.792H388.002V389.948C388.002 390.196 388.074 390.384 388.218 390.512C388.362 390.632 388.55 390.692 388.782 390.692ZM393.925 385.328C394.829 385.328 395.545 385.588 396.073 386.108C396.601 386.62 396.865 387.352 396.865 388.304V389.168H392.641C392.657 389.672 392.805 390.068 393.085 390.356C393.373 390.644 393.769 390.788 394.273 390.788C394.697 390.788 395.081 390.748 395.425 390.668C395.769 390.58 396.125 390.448 396.493 390.272V391.652C396.173 391.812 395.833 391.928 395.473 392C395.121 392.08 394.693 392.12 394.189 392.12C393.533 392.12 392.953 392 392.449 391.76C391.945 391.512 391.549 391.14 391.261 390.644C390.973 390.148 390.829 389.524 390.829 388.772C390.829 388.004 390.957 387.368 391.213 386.864C391.477 386.352 391.841 385.968 392.305 385.712C392.769 385.456 393.309 385.328 393.925 385.328ZM393.937 386.6C393.593 386.6 393.305 386.712 393.073 386.936C392.849 387.16 392.717 387.508 392.677 387.98H395.185C395.177 387.58 395.073 387.252 394.873 386.996C394.673 386.732 394.361 386.6 393.937 386.6ZM401.975 385.328C402.063 385.328 402.167 385.332 402.287 385.34C402.407 385.348 402.503 385.36 402.575 385.376L402.443 387.056C402.387 387.04 402.303 387.028 402.191 387.02C402.087 387.004 401.995 386.996 401.915 386.996C401.611 386.996 401.319 387.052 401.039 387.164C400.759 387.268 400.531 387.44 400.355 387.68C400.187 387.92 400.103 388.248 400.103 388.664V392H398.315V385.448H399.671L399.935 386.552H400.019C400.211 386.216 400.475 385.928 400.811 385.688C401.147 385.448 401.535 385.328 401.975 385.328ZM410.901 392H409.089V387.044C409.089 386.836 409.093 386.564 409.101 386.228C409.117 385.892 409.129 385.596 409.137 385.34C409.097 385.388 409.009 385.476 408.873 385.604C408.745 385.724 408.625 385.832 408.513 385.928L407.529 386.72L406.653 385.628L409.413 383.432H410.901V392Z" fill="black"/>
<g clip-path="url(#clip2)">
<path d="M401.621 234.649H381.379C376.005 234.649 371.649 239.005 371.649 244.379V264.621C371.649 269.995 376.005 274.351 381.379 274.351H401.621C406.995 274.351 411.351 269.995 411.351 264.621V244.379C411.351 239.005 406.995 234.649 401.621 234.649Z" stroke="black" stroke-width="2" stroke-linejoin="round"/>
<path d="M376.763 254.5H406.757" stroke="black" stroke-width="2" stroke-linecap="round"/>
<path d="M376.503 244.791H406.497" stroke="black" stroke-width="2" stroke-linecap="round"/>
<path d="M376.503 264.642H406.497" stroke="black" stroke-width="2" stroke-linecap="round"/>
<path d="M383.611 247.652C385.191 247.652 386.472 246.371 386.472 244.791C386.472 243.211 385.191 241.93 383.611 241.93C382.032 241.93 380.751 243.211 380.751 244.791C380.751 246.371 382.032 247.652 383.611 247.652Z" fill="white" stroke="black" stroke-width="2" stroke-linecap="round" stroke-linejoin="round"/>
<path d="M401.036 257.361C402.616 257.361 403.896 256.08 403.896 254.5C403.896 252.92 402.616 251.639 401.036 251.639C399.456 251.639 398.175 252.92 398.175 254.5C398.175 256.08 399.456 257.361 401.036 257.361Z" fill="white" stroke="black" stroke-width="2" stroke-linecap="round" stroke-linejoin="round"/>
<path d="M391.5 267.503C393.08 267.503 394.361 266.222 394.361 264.642C394.361 263.062 393.08 261.782 391.5 261.782C389.92 261.782 388.639 263.062 388.639 264.642C388.639 266.222 389.92 267.503 391.5 267.503Z" fill="white" stroke="black" stroke-width="2" stroke-linecap="round" stroke-linejoin="round"/>
</g>
<path d="M374.056 291H372.268V282.432H377.176V283.92H374.056V286.128H376.96V287.616H374.056V291ZM379.609 281.88C379.873 281.88 380.101 281.944 380.293 282.072C380.485 282.192 380.581 282.42 380.581 282.756C380.581 283.084 380.485 283.312 380.293 283.44C380.101 283.568 379.873 283.632 379.609 283.632C379.337 283.632 379.105 283.568 378.913 283.44C378.729 283.312 378.637 283.084 378.637 282.756C378.637 282.42 378.729 282.192 378.913 282.072C379.105 281.944 379.337 281.88 379.609 281.88ZM380.497 284.448V291H378.709V284.448H380.497ZM384.154 291H382.366V281.88H384.154V291ZM388.782 289.692C388.982 289.692 389.174 289.672 389.358 289.632C389.542 289.592 389.726 289.544 389.91 289.488V290.82C389.718 290.9 389.478 290.968 389.19 291.024C388.91 291.088 388.602 291.12 388.266 291.12C387.874 291.12 387.522 291.056 387.21 290.928C386.906 290.8 386.662 290.58 386.478 290.268C386.302 289.948 386.214 289.508 386.214 288.948V285.792H385.362V285.036L386.346 284.436L386.862 283.056H388.002V284.448H389.838V285.792H388.002V288.948C388.002 289.196 388.074 289.384 388.218 289.512C388.362 289.632 388.55 289.692 388.782 289.692ZM393.925 284.328C394.829 284.328 395.545 284.588 396.073 285.108C396.601 285.62 396.865 286.352 396.865 287.304V288.168H392.641C392.657 288.672 392.805 289.068 393.085 289.356C393.373 289.644 393.769 289.788 394.273 289.788C394.697 289.788 395.081 289.748 395.425 289.668C395.769 289.58 396.125 289.448 396.493 289.272V290.652C396.173 290.812 395.833 290.928 395.473 291C395.121 291.08 394.693 291.12 394.189 291.12C393.533 291.12 392.953 291 392.449 290.76C391.945 290.512 391.549 290.14 391.261 289.644C390.973 289.148 390.829 288.524 390.829 287.772C390.829 287.004 390.957 286.368 391.213 285.864C391.477 285.352 391.841 284.968 392.305 284.712C392.769 284.456 393.309 284.328 393.925 284.328ZM393.937 285.6C393.593 285.6 393.305 285.712 393.073 285.936C392.849 286.16 392.717 286.508 392.677 286.98H395.185C395.177 286.58 395.073 286.252 394.873 285.996C394.673 285.732 394.361 285.6 393.937 285.6ZM401.975 284.328C402.063 284.328 402.167 284.332 402.287 284.34C402.407 284.348 402.503 284.36 402.575 284.376L402.443 286.056C402.387 286.04 402.303 286.028 402.191 286.02C402.087 286.004 401.995 285.996 401.915 285.996C401.611 285.996 401.319 286.052 401.039 286.164C400.759 286.268 400.531 286.44 400.355 286.68C400.187 286.92 400.103 287.248 400.103 287.664V291H398.315V284.448H399.671L399.935 285.552H400.019C400.211 285.216 400.475 284.928 400.811 284.688C401.147 284.448 401.535 284.328 401.975 284.328ZM412.413 291H406.425V289.74L408.573 287.568C409.005 287.12 409.353 286.748 409.617 286.452C409.881 286.148 410.073 285.876 410.193 285.636C410.313 285.388 410.373 285.124 410.373 284.844C410.373 284.5 410.277 284.244 410.085 284.076C409.901 283.908 409.649 283.824 409.329 283.824C409.001 283.824 408.681 283.9 408.369 284.052C408.057 284.204 407.729 284.42 407.385 284.7L406.401 283.536C406.649 283.32 406.909 283.12 407.181 282.936C407.461 282.752 407.781 282.604 408.141 282.492C408.509 282.372 408.949 282.312 409.461 282.312C410.021 282.312 410.501 282.416 410.901 282.624C411.309 282.824 411.621 283.1 411.837 283.452C412.061 283.796 412.173 284.188 412.173 284.628C412.173 285.1 412.077 285.532 411.885 285.924C411.701 286.316 411.429 286.704 411.069 287.088C410.717 287.472 410.289 287.896 409.785 288.36L408.681 289.392V289.476H412.413V291Z" fill="black"/>
<g clip-path="url(#clip3)">
<path d="M402.621 141.649H382.379C377.005 141.649 372.649 146.005 372.649 151.379V171.621C372.649 176.995 377.005 181.351 382.379 181.351H402.621C407.995 181.351 412.351 176.995 412.351 171.621V151.379C412.351 146.005 407.995 141.649 402.621 141.649Z" stroke="black" stroke-width="2" stroke-linejoin="round"/>
<path d="M377.763 161.5H407.757" stroke="black" stroke-width="2" stroke-linecap="round"/>
<path d="M377.503 151.791H407.497" stroke="black" stroke-width="2" stroke-linecap="round"/>
<path d="M377.503 171.642H407.497" stroke="black" stroke-width="2" stroke-linecap="round"/>
<path d="M384.611 154.652C386.191 154.652 387.472 153.371 387.472 151.791C387.472 150.211 386.191 148.93 384.611 148.93C383.032 148.93 381.751 150.211 381.751 151.791C381.751 153.371 383.032 154.652 384.611 154.652Z" fill="white" stroke="black" stroke-width="2" stroke-linecap="round" stroke-linejoin="round"/>
<path d="M402.036 164.361C403.616 164.361 404.896 163.08 404.896 161.5C404.896 159.92 403.616 158.639 402.036 158.639C400.456 158.639 399.175 159.92 399.175 161.5C399.175 163.08 400.456 164.361 402.036 164.361Z" fill="white" stroke="black" stroke-width="2" stroke-linecap="round" stroke-linejoin="round"/>
<path d="M392.5 174.503C394.08 174.503 395.361 173.222 395.361 171.642C395.361 170.062 394.08 168.782 392.5 168.782C390.92 168.782 389.639 170.062 389.639 171.642C389.639 173.222 390.92 174.503 392.5 174.503Z" fill="white" stroke="black" stroke-width="2" stroke-linecap="round" stroke-linejoin="round"/>
</g>
<path d="M375.056 198H373.268V189.432H378.176V190.92H375.056V193.128H377.96V194.616H375.056V198ZM380.609 188.88C380.873 188.88 381.101 188.944 381.293 189.072C381.485 189.192 381.581 189.42 381.581 189.756C381.581 190.084 381.485 190.312 381.293 190.44C381.101 190.568 380.873 190.632 380.609 190.632C380.337 190.632 380.105 190.568 379.913 190.44C379.729 190.312 379.637 190.084 379.637 189.756C379.637 189.42 379.729 189.192 379.913 189.072C380.105 188.944 380.337 188.88 380.609 188.88ZM381.497 191.448V198H379.709V191.448H381.497ZM385.154 198H383.366V188.88H385.154V198ZM389.782 196.692C389.982 196.692 390.174 196.672 390.358 196.632C390.542 196.592 390.726 196.544 390.91 196.488V197.82C390.718 197.9 390.478 197.968 390.19 198.024C389.91 198.088 389.602 198.12 389.266 198.12C388.874 198.12 388.522 198.056 388.21 197.928C387.906 197.8 387.662 197.58 387.478 197.268C387.302 196.948 387.214 196.508 387.214 195.948V192.792H386.362V192.036L387.346 191.436L387.862 190.056H389.002V191.448H390.838V192.792H389.002V195.948C389.002 196.196 389.074 196.384 389.218 196.512C389.362 196.632 389.55 196.692 389.782 196.692ZM394.925 191.328C395.829 191.328 396.545 191.588 397.073 192.108C397.601 192.62 397.865 193.352 397.865 194.304V195.168H393.641C393.657 195.672 393.805 196.068 394.085 196.356C394.373 196.644 394.769 196.788 395.273 196.788C395.697 196.788 396.081 196.748 396.425 196.668C396.769 196.58 397.125 196.448 397.493 196.272V197.652C397.173 197.812 396.833 197.928 396.473 198C396.121 198.08 395.693 198.12 395.189 198.12C394.533 198.12 393.953 198 393.449 197.76C392.945 197.512 392.549 197.14 392.261 196.644C391.973 196.148 391.829 195.524 391.829 194.772C391.829 194.004 391.957 193.368 392.213 192.864C392.477 192.352 392.841 191.968 393.305 191.712C393.769 191.456 394.309 191.328 394.925 191.328ZM394.937 192.6C394.593 192.6 394.305 192.712 394.073 192.936C393.849 193.16 393.717 193.508 393.677 193.98H396.185C396.177 193.58 396.073 193.252 395.873 192.996C395.673 192.732 395.361 192.6 394.937 192.6ZM402.975 191.328C403.063 191.328 403.167 191.332 403.287 191.34C403.407 191.348 403.503 191.36 403.575 191.376L403.443 193.056C403.387 193.04 403.303 193.028 403.191 193.02C403.087 193.004 402.995 192.996 402.915 192.996C402.611 192.996 402.319 193.052 402.039 193.164C401.759 193.268 401.531 193.44 401.355 193.68C401.187 193.92 401.103 194.248 401.103 194.664V198H399.315V191.448H400.671L400.935 192.552H401.019C401.211 192.216 401.475 191.928 401.811 191.688C402.147 191.448 402.535 191.328 402.975 191.328ZM413.077 191.352C413.077 191.944 412.897 192.416 412.537 192.768C412.185 193.12 411.749 193.36 411.229 193.488V193.524C411.917 193.604 412.437 193.812 412.789 194.148C413.149 194.484 413.329 194.936 413.329 195.504C413.329 196 413.205 196.448 412.957 196.848C412.717 197.24 412.341 197.552 411.829 197.784C411.325 198.008 410.673 198.12 409.873 198.12C408.945 198.12 408.121 197.964 407.401 197.652V196.116C407.769 196.3 408.153 196.44 408.553 196.536C408.961 196.632 409.337 196.68 409.681 196.68C410.329 196.68 410.781 196.568 411.037 196.344C411.301 196.12 411.433 195.804 411.433 195.396C411.433 195.156 411.373 194.956 411.253 194.796C411.133 194.628 410.921 194.504 410.617 194.424C410.321 194.336 409.905 194.292 409.369 194.292H408.721V192.9H409.381C409.909 192.9 410.309 192.852 410.581 192.756C410.861 192.652 411.049 192.516 411.145 192.348C411.249 192.172 411.301 191.972 411.301 191.748C411.301 191.444 411.205 191.208 411.013 191.04C410.829 190.864 410.517 190.776 410.077 190.776C409.669 190.776 409.313 190.848 409.009 190.992C408.713 191.128 408.461 191.264 408.253 191.4L407.413 190.152C407.749 189.912 408.141 189.712 408.589 189.552C409.045 189.392 409.585 189.312 410.209 189.312C411.089 189.312 411.785 189.492 412.297 189.852C412.817 190.204 413.077 190.704 413.077 191.352Z" fill="black"/>
<g clip-path="url(#clip4)">
<path d="M401.621 46.6487H381.379C376.005 46.6487 371.649 51.0051 371.649 56.379V76.621C371.649 81.9949 376.005 86.3513 381.379 86.3513H401.621C406.995 86.3513 411.351 81.9949 411.351 76.621V56.379C411.351 51.0051 406.995 46.6487 401.621 46.6487Z" stroke="black" stroke-width="2" stroke-linejoin="round"/>
<path d="M376.763 66.5H406.757" stroke="black" stroke-width="2" stroke-linecap="round"/>
<path d="M376.503 56.791H406.497" stroke="black" stroke-width="2" stroke-linecap="round"/>
<path d="M376.503 76.6424H406.497" stroke="black" stroke-width="2" stroke-linecap="round"/>
<path d="M383.611 59.6517C385.191 59.6517 386.472 58.371 386.472 56.7911C386.472 55.2112 385.191 53.9304 383.611 53.9304C382.032 53.9304 380.751 55.2112 380.751 56.7911C380.751 58.371 382.032 59.6517 383.611 59.6517Z" fill="white" stroke="black" stroke-width="2" stroke-linecap="round" stroke-linejoin="round"/>
<path d="M401.036 69.3607C402.616 69.3607 403.896 68.0799 403.896 66.5C403.896 64.9201 402.616 63.6393 401.036 63.6393C399.456 63.6393 398.175 64.9201 398.175 66.5C398.175 68.0799 399.456 69.3607 401.036 69.3607Z" fill="white" stroke="black" stroke-width="2" stroke-linecap="round" stroke-linejoin="round"/>
<path d="M391.5 79.503C393.08 79.503 394.361 78.2223 394.361 76.6424C394.361 75.0625 393.08 73.7817 391.5 73.7817C389.92 73.7817 388.639 75.0625 388.639 76.6424C388.639 78.2223 389.92 79.503 391.5 79.503Z" fill="white" stroke="black" stroke-width="2" stroke-linecap="round" stroke-linejoin="round"/>
<line x1="372" y1="66.5" x2="244" y2="66.5" stroke="black"/>
</g>
<path d="M374.056 103H372.268V94.432H377.176V95.92H374.056V98.128H376.96V99.616H374.056V103ZM379.609 93.88C379.873 93.88 380.101 93.944 380.293 94.072C380.485 94.192 380.581 94.42 380.581 94.756C380.581 95.084 380.485 95.312 380.293 95.44C380.101 95.568 379.873 95.632 379.609 95.632C379.337 95.632 379.105 95.568 378.913 95.44C378.729 95.312 378.637 95.084 378.637 94.756C378.637 94.42 378.729 94.192 378.913 94.072C379.105 93.944 379.337 93.88 379.609 93.88ZM380.497 96.448V103H378.709V96.448H380.497ZM384.154 103H382.366V93.88H384.154V103ZM388.782 101.692C388.982 101.692 389.174 101.672 389.358 101.632C389.542 101.592 389.726 101.544 389.91 101.488V102.82C389.718 102.9 389.478 102.968 389.19 103.024C388.91 103.088 388.602 103.12 388.266 103.12C387.874 103.12 387.522 103.056 387.21 102.928C386.906 102.8 386.662 102.58 386.478 102.268C386.302 101.948 386.214 101.508 386.214 100.948V97.792H385.362V97.036L386.346 96.436L386.862 95.056H388.002V96.448H389.838V97.792H388.002V100.948C388.002 101.196 388.074 101.384 388.218 101.512C388.362 101.632 388.55 101.692 388.782 101.692ZM393.925 96.328C394.829 96.328 395.545 96.588 396.073 97.108C396.601 97.62 396.865 98.352 396.865 99.304V100.168H392.641C392.657 100.672 392.805 101.068 393.085 101.356C393.373 101.644 393.769 101.788 394.273 101.788C394.697 101.788 395.081 101.748 395.425 101.668C395.769 101.58 396.125 101.448 396.493 101.272V102.652C396.173 102.812 395.833 102.928 395.473 103C395.121 103.08 394.693 103.12 394.189 103.12C393.533 103.12 392.953 103 392.449 102.76C391.945 102.512 391.549 102.14 391.261 101.644C390.973 101.148 390.829 100.524 390.829 99.772C390.829 99.004 390.957 98.368 391.213 97.864C391.477 97.352 391.841 96.968 392.305 96.712C392.769 96.456 393.309 96.328 393.925 96.328ZM393.937 97.6C393.593 97.6 393.305 97.712 393.073 97.936C392.849 98.16 392.717 98.508 392.677 98.98H395.185C395.177 98.58 395.073 98.252 394.873 97.996C394.673 97.732 394.361 97.6 393.937 97.6ZM401.975 96.328C402.063 96.328 402.167 96.332 402.287 96.34C402.407 96.348 402.503 96.36 402.575 96.376L402.443 98.056C402.387 98.04 402.303 98.028 402.191 98.02C402.087 98.004 401.995 97.996 401.915 97.996C401.611 97.996 401.319 98.052 401.039 98.164C400.759 98.268 400.531 98.44 400.355 98.68C400.187 98.92 400.103 99.248 400.103 99.664V103H398.315V96.448H399.671L399.935 97.552H400.019C400.211 97.216 400.475 96.928 400.811 96.688C401.147 96.448 401.535 96.328 401.975 96.328ZM412.605 101.224H411.573V103H409.809V101.224H406.149V99.964L409.905 94.432H411.573V99.82H412.605V101.224ZM409.809 98.368C409.809 98.184 409.813 97.96 409.821 97.696C409.829 97.432 409.837 97.188 409.845 96.964C409.861 96.732 409.873 96.58 409.881 96.508H409.833C409.761 96.668 409.685 96.824 409.605 96.976C409.525 97.128 409.429 97.284 409.317 97.444L407.745 99.82H409.809V98.368Z" fill="black"/>
<path d="M359.089 28H357.301V19.432H362.209V20.92H359.089V23.128H361.993V24.616H359.089V28ZM364.643 18.88C364.907 18.88 365.135 18.944 365.327 19.072C365.519 19.192 365.615 19.42 365.615 19.756C365.615 20.084 365.519 20.312 365.327 20.44C365.135 20.568 364.907 20.632 364.643 20.632C364.371 20.632 364.139 20.568 363.947 20.44C363.763 20.312 363.671 20.084 363.671 19.756C363.671 19.42 363.763 19.192 363.947 19.072C364.139 18.944 364.371 18.88 364.643 18.88ZM365.531 21.448V28H363.743V21.448H365.531ZM369.187 28H367.399V18.88H369.187V28ZM373.815 26.692C374.015 26.692 374.207 26.672 374.391 26.632C374.575 26.592 374.759 26.544 374.943 26.488V27.82C374.751 27.9 374.511 27.968 374.223 28.024C373.943 28.088 373.635 28.12 373.299 28.12C372.907 28.12 372.555 28.056 372.243 27.928C371.939 27.8 371.695 27.58 371.511 27.268C371.335 26.948 371.247 26.508 371.247 25.948V22.792H370.395V22.036L371.379 21.436L371.895 20.056H373.035V21.448H374.871V22.792H373.035V25.948C373.035 26.196 373.107 26.384 373.251 26.512C373.395 26.632 373.583 26.692 373.815 26.692ZM378.958 21.328C379.862 21.328 380.578 21.588 381.106 22.108C381.634 22.62 381.898 23.352 381.898 24.304V25.168H377.674C377.69 25.672 377.838 26.068 378.118 26.356C378.406 26.644 378.802 26.788 379.306 26.788C379.73 26.788 380.114 26.748 380.458 26.668C380.802 26.58 381.158 26.448 381.526 26.272V27.652C381.206 27.812 380.866 27.928 380.506 28C380.154 28.08 379.726 28.12 379.222 28.12C378.566 28.12 377.986 28 377.482 27.76C376.978 27.512 376.582 27.14 376.294 26.644C376.006 26.148 375.862 25.524 375.862 24.772C375.862 24.004 375.99 23.368 376.246 22.864C376.51 22.352 376.874 21.968 377.338 21.712C377.802 21.456 378.342 21.328 378.958 21.328ZM378.97 22.6C378.626 22.6 378.338 22.712 378.106 22.936C377.882 23.16 377.75 23.508 377.71 23.98H380.218C380.21 23.58 380.106 23.252 379.906 22.996C379.706 22.732 379.394 22.6 378.97 22.6ZM387.008 21.328C387.096 21.328 387.2 21.332 387.32 21.34C387.44 21.348 387.536 21.36 387.608 21.376L387.476 23.056C387.42 23.04 387.336 23.028 387.224 23.02C387.12 23.004 387.028 22.996 386.948 22.996C386.644 22.996 386.352 23.052 386.072 23.164C385.792 23.268 385.564 23.44 385.388 23.68C385.22 23.92 385.136 24.248 385.136 24.664V28H383.348V21.448H384.704L384.968 22.552H385.052C385.244 22.216 385.508 21.928 385.844 21.688C386.18 21.448 386.568 21.328 387.008 21.328ZM393.369 26.056C393.369 26.72 393.133 27.232 392.661 27.592C392.197 27.944 391.501 28.12 390.573 28.12C390.117 28.12 389.725 28.088 389.397 28.024C389.069 27.968 388.741 27.872 388.413 27.736V26.26C388.765 26.42 389.145 26.552 389.553 26.656C389.961 26.76 390.321 26.812 390.633 26.812C390.985 26.812 391.233 26.76 391.377 26.656C391.529 26.552 391.605 26.416 391.605 26.248C391.605 26.136 391.573 26.036 391.509 25.948C391.453 25.86 391.325 25.76 391.125 25.648C390.925 25.536 390.613 25.392 390.189 25.216C389.781 25.04 389.445 24.868 389.181 24.7C388.917 24.524 388.721 24.316 388.593 24.076C388.465 23.828 388.401 23.52 388.401 23.152C388.401 22.544 388.637 22.088 389.109 21.784C389.581 21.48 390.209 21.328 390.993 21.328C391.401 21.328 391.789 21.368 392.157 21.448C392.525 21.528 392.905 21.66 393.297 21.844L392.757 23.128C392.437 22.992 392.133 22.88 391.845 22.792C391.557 22.696 391.265 22.648 390.969 22.648C390.441 22.648 390.177 22.792 390.177 23.08C390.177 23.184 390.209 23.28 390.273 23.368C390.345 23.448 390.477 23.536 390.669 23.632C390.869 23.728 391.161 23.856 391.545 24.016C391.921 24.168 392.245 24.328 392.517 24.496C392.789 24.656 392.997 24.86 393.141 25.108C393.293 25.348 393.369 25.664 393.369 26.056ZM400.543 28.12C399.567 28.12 398.811 27.852 398.275 27.316C397.747 26.772 397.483 25.92 397.483 24.76C397.483 23.96 397.619 23.308 397.891 22.804C398.163 22.3 398.539 21.928 399.019 21.688C399.507 21.448 400.067 21.328 400.699 21.328C401.147 21.328 401.535 21.372 401.863 21.46C402.199 21.548 402.491 21.652 402.739 21.772L402.211 23.152C401.931 23.04 401.667 22.948 401.419 22.876C401.179 22.804 400.939 22.768 400.699 22.768C399.771 22.768 399.307 23.428 399.307 24.748C399.307 25.404 399.427 25.888 399.667 26.2C399.915 26.512 400.259 26.668 400.699 26.668C401.075 26.668 401.407 26.62 401.695 26.524C401.983 26.42 402.263 26.28 402.535 26.104V27.628C402.263 27.804 401.975 27.928 401.671 28C401.375 28.08 400.999 28.12 400.543 28.12ZM405.831 20.74C405.831 21.06 405.819 21.368 405.795 21.664C405.779 21.96 405.763 22.168 405.747 22.288H405.843C406.051 21.952 406.319 21.708 406.647 21.556C406.975 21.404 407.339 21.328 407.739 21.328C408.451 21.328 409.019 21.52 409.443 21.904C409.875 22.28 410.091 22.888 410.091 23.728V28H408.303V24.172C408.303 23.228 407.951 22.756 407.247 22.756C406.711 22.756 406.339 22.944 406.131 23.32C405.931 23.688 405.831 24.22 405.831 24.916V28H404.043V18.88H405.831V20.74ZM414.618 21.316C415.498 21.316 416.17 21.508 416.634 21.892C417.106 22.268 417.342 22.848 417.342 23.632V28H416.094L415.746 27.112H415.698C415.418 27.464 415.122 27.72 414.81 27.88C414.498 28.04 414.07 28.12 413.526 28.12C412.942 28.12 412.458 27.952 412.074 27.616C411.69 27.272 411.498 26.748 411.498 26.044C411.498 25.348 411.742 24.836 412.23 24.508C412.718 24.172 413.45 23.988 414.426 23.956L415.566 23.92V23.632C415.566 23.288 415.474 23.036 415.29 22.876C415.114 22.716 414.866 22.636 414.546 22.636C414.226 22.636 413.914 22.684 413.61 22.78C413.306 22.868 413.002 22.98 412.698 23.116L412.11 21.904C412.462 21.72 412.85 21.576 413.274 21.472C413.706 21.368 414.154 21.316 414.618 21.316ZM414.87 24.988C414.294 25.004 413.894 25.108 413.67 25.3C413.446 25.492 413.334 25.744 413.334 26.056C413.334 26.328 413.414 26.524 413.574 26.644C413.734 26.756 413.942 26.812 414.198 26.812C414.582 26.812 414.906 26.7 415.17 26.476C415.434 26.244 415.566 25.92 415.566 25.504V24.964L414.87 24.988ZM420.072 18.88C420.336 18.88 420.564 18.944 420.756 19.072C420.948 19.192 421.044 19.42 421.044 19.756C421.044 20.084 420.948 20.312 420.756 20.44C420.564 20.568 420.336 20.632 420.072 20.632C419.8 20.632 419.568 20.568 419.376 20.44C419.192 20.312 419.1 20.084 419.1 19.756C419.1 19.42 419.192 19.192 419.376 19.072C419.568 18.944 419.8 18.88 420.072 18.88ZM420.96 21.448V28H419.172V21.448H420.96ZM426.549 21.328C427.253 21.328 427.817 21.52 428.241 21.904C428.665 22.28 428.877 22.888 428.877 23.728V28H427.089V24.172C427.089 23.7 427.005 23.348 426.837 23.116C426.669 22.876 426.401 22.756 426.033 22.756C425.489 22.756 425.117 22.944 424.917 23.32C424.717 23.688 424.617 24.22 424.617 24.916V28H422.829V21.448H424.197L424.437 22.288H424.533C424.741 21.952 425.025 21.708 425.385 21.556C425.753 21.404 426.141 21.328 426.549 21.328Z" fill="black"/>
<path d="M245.852 263.639C245.655 263.445 245.339 263.447 245.145 263.643L241.98 266.842C241.786 267.039 241.787 267.355 241.984 267.549C242.18 267.744 242.497 267.742 242.691 267.546L245.504 264.702L248.348 267.515C248.544 267.709 248.86 267.707 249.055 267.511C249.249 267.315 249.247 266.998 249.051 266.804L245.852 263.639ZM245 263.997L245.5 356.003L246.5 355.997L246 263.992L245 263.997Z" fill="black"/>
<path d="M290.796 352L288.732 345.28H288.684C288.692 345.44 288.704 345.68 288.72 346C288.736 346.32 288.752 346.664 288.768 347.032C288.784 347.392 288.792 347.72 288.792 348.016V352H287.172V343.432H289.644L291.672 349.984H291.708L293.856 343.432H296.328V352H294.636V347.944C294.636 347.672 294.64 347.36 294.648 347.008C294.664 346.656 294.676 346.324 294.684 346.012C294.7 345.692 294.712 345.452 294.72 345.292H294.672L292.464 352H290.796ZM301.036 345.316C301.916 345.316 302.588 345.508 303.052 345.892C303.524 346.268 303.76 346.848 303.76 347.632V352H302.512L302.164 351.112H302.116C301.836 351.464 301.54 351.72 301.228 351.88C300.916 352.04 300.488 352.12 299.944 352.12C299.36 352.12 298.876 351.952 298.492 351.616C298.108 351.272 297.916 350.748 297.916 350.044C297.916 349.348 298.16 348.836 298.648 348.508C299.136 348.172 299.868 347.988 300.844 347.956L301.984 347.92V347.632C301.984 347.288 301.892 347.036 301.708 346.876C301.532 346.716 301.284 346.636 300.964 346.636C300.644 346.636 300.332 346.684 300.028 346.78C299.724 346.868 299.42 346.98 299.116 347.116L298.528 345.904C298.88 345.72 299.268 345.576 299.692 345.472C300.124 345.368 300.572 345.316 301.036 345.316ZM301.288 348.988C300.712 349.004 300.312 349.108 300.088 349.3C299.864 349.492 299.752 349.744 299.752 350.056C299.752 350.328 299.832 350.524 299.992 350.644C300.152 350.756 300.36 350.812 300.616 350.812C301 350.812 301.324 350.7 301.588 350.476C301.852 350.244 301.984 349.92 301.984 349.504V348.964L301.288 348.988ZM308.35 350.692C308.55 350.692 308.742 350.672 308.926 350.632C309.11 350.592 309.294 350.544 309.478 350.488V351.82C309.286 351.9 309.046 351.968 308.758 352.024C308.478 352.088 308.17 352.12 307.834 352.12C307.442 352.12 307.09 352.056 306.778 351.928C306.474 351.8 306.23 351.58 306.046 351.268C305.87 350.948 305.782 350.508 305.782 349.948V346.792H304.93V346.036L305.914 345.436L306.43 344.056H307.57V345.448H309.406V346.792H307.57V349.948C307.57 350.196 307.642 350.384 307.786 350.512C307.93 350.632 308.118 350.692 308.35 350.692ZM313.457 352.12C312.481 352.12 311.725 351.852 311.189 351.316C310.661 350.772 310.397 349.92 310.397 348.76C310.397 347.96 310.533 347.308 310.805 346.804C311.077 346.3 311.453 345.928 311.933 345.688C312.421 345.448 312.981 345.328 313.613 345.328C314.061 345.328 314.449 345.372 314.777 345.46C315.113 345.548 315.405 345.652 315.653 345.772L315.125 347.152C314.845 347.04 314.581 346.948 314.333 346.876C314.093 346.804 313.853 346.768 313.613 346.768C312.685 346.768 312.221 347.428 312.221 348.748C312.221 349.404 312.341 349.888 312.581 350.2C312.829 350.512 313.173 350.668 313.613 350.668C313.989 350.668 314.321 350.62 314.609 350.524C314.897 350.42 315.177 350.28 315.449 350.104V351.628C315.177 351.804 314.889 351.928 314.585 352C314.289 352.08 313.913 352.12 313.457 352.12ZM318.745 344.74C318.745 345.06 318.733 345.368 318.709 345.664C318.693 345.96 318.677 346.168 318.661 346.288H318.757C318.965 345.952 319.233 345.708 319.561 345.556C319.889 345.404 320.253 345.328 320.653 345.328C321.365 345.328 321.933 345.52 322.357 345.904C322.789 346.28 323.005 346.888 323.005 347.728V352H321.217V348.172C321.217 347.228 320.865 346.756 320.161 346.756C319.625 346.756 319.253 346.944 319.045 347.32C318.845 347.688 318.745 348.22 318.745 348.916V352H316.957V342.88H318.745V344.74Z" fill="black"/>
<path d="M329.796 156L327.732 149.28H327.684C327.692 149.44 327.704 149.68 327.72 150C327.736 150.32 327.752 150.664 327.768 151.032C327.784 151.392 327.792 151.72 327.792 152.016V156H326.172V147.432H328.644L330.672 153.984H330.708L332.856 147.432H335.328V156H333.636V151.944C333.636 151.672 333.64 151.36 333.648 151.008C333.664 150.656 333.676 150.324 333.684 150.012C333.7 149.692 333.712 149.452 333.72 149.292H333.672L331.464 156H329.796ZM340.036 149.316C340.916 149.316 341.588 149.508 342.052 149.892C342.524 150.268 342.76 150.848 342.76 151.632V156H341.512L341.164 155.112H341.116C340.836 155.464 340.54 155.72 340.228 155.88C339.916 156.04 339.488 156.12 338.944 156.12C338.36 156.12 337.876 155.952 337.492 155.616C337.108 155.272 336.916 154.748 336.916 154.044C336.916 153.348 337.16 152.836 337.648 152.508C338.136 152.172 338.868 151.988 339.844 151.956L340.984 151.92V151.632C340.984 151.288 340.892 151.036 340.708 150.876C340.532 150.716 340.284 150.636 339.964 150.636C339.644 150.636 339.332 150.684 339.028 150.78C338.724 150.868 338.42 150.98 338.116 151.116L337.528 149.904C337.88 149.72 338.268 149.576 338.692 149.472C339.124 149.368 339.572 149.316 340.036 149.316ZM340.288 152.988C339.712 153.004 339.312 153.108 339.088 153.3C338.864 153.492 338.752 153.744 338.752 154.056C338.752 154.328 338.832 154.524 338.992 154.644C339.152 154.756 339.36 154.812 339.616 154.812C340 154.812 340.324 154.7 340.588 154.476C340.852 154.244 340.984 153.92 340.984 153.504V152.964L340.288 152.988ZM347.35 154.692C347.55 154.692 347.742 154.672 347.926 154.632C348.11 154.592 348.294 154.544 348.478 154.488V155.82C348.286 155.9 348.046 155.968 347.758 156.024C347.478 156.088 347.17 156.12 346.834 156.12C346.442 156.12 346.09 156.056 345.778 155.928C345.474 155.8 345.23 155.58 345.046 155.268C344.87 154.948 344.782 154.508 344.782 153.948V150.792H343.93V150.036L344.914 149.436L345.43 148.056H346.57V149.448H348.406V150.792H346.57V153.948C346.57 154.196 346.642 154.384 346.786 154.512C346.93 154.632 347.118 154.692 347.35 154.692ZM352.457 156.12C351.481 156.12 350.725 155.852 350.189 155.316C349.661 154.772 349.397 153.92 349.397 152.76C349.397 151.96 349.533 151.308 349.805 150.804C350.077 150.3 350.453 149.928 350.933 149.688C351.421 149.448 351.981 149.328 352.613 149.328C353.061 149.328 353.449 149.372 353.777 149.46C354.113 149.548 354.405 149.652 354.653 149.772L354.125 151.152C353.845 151.04 353.581 150.948 353.333 150.876C353.093 150.804 352.853 150.768 352.613 150.768C351.685 150.768 351.221 151.428 351.221 152.748C351.221 153.404 351.341 153.888 351.581 154.2C351.829 154.512 352.173 154.668 352.613 154.668C352.989 154.668 353.321 154.62 353.609 154.524C353.897 154.42 354.177 154.28 354.449 154.104V155.628C354.177 155.804 353.889 155.928 353.585 156C353.289 156.08 352.913 156.12 352.457 156.12ZM357.745 148.74C357.745 149.06 357.733 149.368 357.709 149.664C357.693 149.96 357.677 150.168 357.661 150.288H357.757C357.965 149.952 358.233 149.708 358.561 149.556C358.889 149.404 359.253 149.328 359.653 149.328C360.365 149.328 360.933 149.52 361.357 149.904C361.789 150.28 362.005 150.888 362.005 151.728V156H360.217V152.172C360.217 151.228 359.865 150.756 359.161 150.756C358.625 150.756 358.253 150.944 358.045 151.32C357.845 151.688 357.745 152.22 357.745 152.916V156H355.957V146.88H357.745V148.74Z" fill="black"/>
<path d="M335.751 251L333.687 244.28H333.639C333.647 244.44 333.659 244.68 333.675 245C333.691 245.32 333.707 245.664 333.723 246.032C333.739 246.392 333.747 246.72 333.747 247.016V251H332.127V242.432H334.599L336.627 248.984H336.663L338.811 242.432H341.283V251H339.591V246.944C339.591 246.672 339.595 246.36 339.603 246.008C339.619 245.656 339.631 245.324 339.639 245.012C339.655 244.692 339.667 244.452 339.675 244.292H339.627L337.419 251H335.751ZM344.203 241.88C344.467 241.88 344.695 241.944 344.887 242.072C345.079 242.192 345.175 242.42 345.175 242.756C345.175 243.084 345.079 243.312 344.887 243.44C344.695 243.568 344.467 243.632 344.203 243.632C343.931 243.632 343.699 243.568 343.507 243.44C343.323 243.312 343.231 243.084 343.231 242.756C343.231 242.42 343.323 242.192 343.507 242.072C343.699 241.944 343.931 241.88 344.203 241.88ZM345.091 244.448V251H343.303V244.448H345.091ZM351.531 249.056C351.531 249.72 351.295 250.232 350.823 250.592C350.359 250.944 349.663 251.12 348.735 251.12C348.279 251.12 347.887 251.088 347.559 251.024C347.231 250.968 346.903 250.872 346.575 250.736V249.26C346.927 249.42 347.307 249.552 347.715 249.656C348.123 249.76 348.483 249.812 348.795 249.812C349.147 249.812 349.395 249.76 349.539 249.656C349.691 249.552 349.767 249.416 349.767 249.248C349.767 249.136 349.735 249.036 349.671 248.948C349.615 248.86 349.487 248.76 349.287 248.648C349.087 248.536 348.775 248.392 348.351 248.216C347.943 248.04 347.607 247.868 347.343 247.7C347.079 247.524 346.883 247.316 346.755 247.076C346.627 246.828 346.563 246.52 346.563 246.152C346.563 245.544 346.799 245.088 347.271 244.784C347.743 244.48 348.371 244.328 349.155 244.328C349.563 244.328 349.951 244.368 350.319 244.448C350.687 244.528 351.067 244.66 351.459 244.844L350.919 246.128C350.599 245.992 350.295 245.88 350.007 245.792C349.719 245.696 349.427 245.648 349.131 245.648C348.603 245.648 348.339 245.792 348.339 246.08C348.339 246.184 348.371 246.28 348.435 246.368C348.507 246.448 348.639 246.536 348.831 246.632C349.031 246.728 349.323 246.856 349.707 247.016C350.083 247.168 350.407 247.328 350.679 247.496C350.951 247.656 351.159 247.86 351.303 248.108C351.455 248.348 351.531 248.664 351.531 249.056ZM357.496 249.056C357.496 249.72 357.26 250.232 356.788 250.592C356.324 250.944 355.628 251.12 354.7 251.12C354.244 251.12 353.852 251.088 353.524 251.024C353.196 250.968 352.868 250.872 352.54 250.736V249.26C352.892 249.42 353.272 249.552 353.68 249.656C354.088 249.76 354.448 249.812 354.76 249.812C355.112 249.812 355.36 249.76 355.504 249.656C355.656 249.552 355.732 249.416 355.732 249.248C355.732 249.136 355.7 249.036 355.636 248.948C355.58 248.86 355.452 248.76 355.252 248.648C355.052 248.536 354.74 248.392 354.316 248.216C353.908 248.04 353.572 247.868 353.308 247.7C353.044 247.524 352.848 247.316 352.72 247.076C352.592 246.828 352.528 246.52 352.528 246.152C352.528 245.544 352.764 245.088 353.236 244.784C353.708 244.48 354.336 244.328 355.12 244.328C355.528 244.328 355.916 244.368 356.284 244.448C356.652 244.528 357.032 244.66 357.424 244.844L356.884 246.128C356.564 245.992 356.26 245.88 355.972 245.792C355.684 245.696 355.392 245.648 355.096 245.648C354.568 245.648 354.304 245.792 354.304 246.08C354.304 246.184 354.336 246.28 354.4 246.368C354.472 246.448 354.604 246.536 354.796 246.632C354.996 246.728 355.288 246.856 355.672 247.016C356.048 247.168 356.372 247.328 356.644 247.496C356.916 247.656 357.124 247.86 357.268 248.108C357.42 248.348 357.496 248.664 357.496 249.056Z" fill="black"/>
<path d="M336.751 63L334.687 56.28H334.639C334.647 56.44 334.659 56.68 334.675 57C334.691 57.32 334.707 57.664 334.723 58.032C334.739 58.392 334.747 58.72 334.747 59.016V63H333.127V54.432H335.599L337.627 60.984H337.663L339.811 54.432H342.283V63H340.591V58.944C340.591 58.672 340.595 58.36 340.603 58.008C340.619 57.656 340.631 57.324 340.639 57.012C340.655 56.692 340.667 56.452 340.675 56.292H340.627L338.419 63H336.751ZM345.203 53.88C345.467 53.88 345.695 53.944 345.887 54.072C346.079 54.192 346.175 54.42 346.175 54.756C346.175 55.084 346.079 55.312 345.887 55.44C345.695 55.568 345.467 55.632 345.203 55.632C344.931 55.632 344.699 55.568 344.507 55.44C344.323 55.312 344.231 55.084 344.231 54.756C344.231 54.42 344.323 54.192 344.507 54.072C344.699 53.944 344.931 53.88 345.203 53.88ZM346.091 56.448V63H344.303V56.448H346.091ZM352.531 61.056C352.531 61.72 352.295 62.232 351.823 62.592C351.359 62.944 350.663 63.12 349.735 63.12C349.279 63.12 348.887 63.088 348.559 63.024C348.231 62.968 347.903 62.872 347.575 62.736V61.26C347.927 61.42 348.307 61.552 348.715 61.656C349.123 61.76 349.483 61.812 349.795 61.812C350.147 61.812 350.395 61.76 350.539 61.656C350.691 61.552 350.767 61.416 350.767 61.248C350.767 61.136 350.735 61.036 350.671 60.948C350.615 60.86 350.487 60.76 350.287 60.648C350.087 60.536 349.775 60.392 349.351 60.216C348.943 60.04 348.607 59.868 348.343 59.7C348.079 59.524 347.883 59.316 347.755 59.076C347.627 58.828 347.563 58.52 347.563 58.152C347.563 57.544 347.799 57.088 348.271 56.784C348.743 56.48 349.371 56.328 350.155 56.328C350.563 56.328 350.951 56.368 351.319 56.448C351.687 56.528 352.067 56.66 352.459 56.844L351.919 58.128C351.599 57.992 351.295 57.88 351.007 57.792C350.719 57.696 350.427 57.648 350.131 57.648C349.603 57.648 349.339 57.792 349.339 58.08C349.339 58.184 349.371 58.28 349.435 58.368C349.507 58.448 349.639 58.536 349.831 58.632C350.031 58.728 350.323 58.856 350.707 59.016C351.083 59.168 351.407 59.328 351.679 59.496C351.951 59.656 352.159 59.86 352.303 60.108C352.455 60.348 352.531 60.664 352.531 61.056ZM358.496 61.056C358.496 61.72 358.26 62.232 357.788 62.592C357.324 62.944 356.628 63.12 355.7 63.12C355.244 63.12 354.852 63.088 354.524 63.024C354.196 62.968 353.868 62.872 353.54 62.736V61.26C353.892 61.42 354.272 61.552 354.68 61.656C355.088 61.76 355.448 61.812 355.76 61.812C356.112 61.812 356.36 61.76 356.504 61.656C356.656 61.552 356.732 61.416 356.732 61.248C356.732 61.136 356.7 61.036 356.636 60.948C356.58 60.86 356.452 60.76 356.252 60.648C356.052 60.536 355.74 60.392 355.316 60.216C354.908 60.04 354.572 59.868 354.308 59.7C354.044 59.524 353.848 59.316 353.72 59.076C353.592 58.828 353.528 58.52 353.528 58.152C353.528 57.544 353.764 57.088 354.236 56.784C354.708 56.48 355.336 56.328 356.12 56.328C356.528 56.328 356.916 56.368 357.284 56.448C357.652 56.528 358.032 56.66 358.424 56.844L357.884 58.128C357.564 57.992 357.26 57.88 356.972 57.792C356.684 57.696 356.392 57.648 356.096 57.648C355.568 57.648 355.304 57.792 355.304 58.08C355.304 58.184 355.336 58.28 355.4 58.368C355.472 58.448 355.604 58.536 355.796 58.632C355.996 58.728 356.288 58.856 356.672 59.016C357.048 59.168 357.372 59.328 357.644 59.496C357.916 59.656 358.124 59.86 358.268 60.108C358.42 60.348 358.496 60.664 358.496 61.056Z" fill="black"/>
<line x1="246" y1="355.5" x2="371" y2="355.5" stroke="black"/>
<path d="M232.35 263.643C232.152 263.45 231.836 263.453 231.643 263.65L228.495 266.866C228.302 267.063 228.305 267.38 228.502 267.573C228.7 267.766 229.016 267.763 229.209 267.565L232.008 264.707L234.866 267.505C235.063 267.698 235.38 267.695 235.573 267.498C235.766 267.3 235.763 266.984 235.565 266.791L232.35 263.643ZM231.5 264.005L232.479 356.006L233.479 355.995L232.5 263.995L231.5 264.005Z" fill="black"/>
<line x1="93" y1="355.5" x2="233" y2="355.5" stroke="black"/>
<path d="M275.646 214.146C275.451 214.342 275.451 214.658 275.646 214.854L278.828 218.036C279.024 218.231 279.34 218.231 279.536 218.036C279.731 217.84 279.731 217.524 279.536 217.328L276.707 214.5L279.536 211.672C279.731 211.476 279.731 211.16 279.536 210.964C279.34 210.769 279.024 210.769 278.828 210.964L275.646 214.146ZM276 215H317V214H276V215Z" fill="black"/>
<path d="M275.646 195.646C275.451 195.842 275.451 196.158 275.646 196.354L278.828 199.536C279.024 199.731 279.34 199.731 279.536 199.536C279.731 199.34 279.731 199.024 279.536 198.828L276.707 196L279.536 193.172C279.731 192.976 279.731 192.66 279.536 192.464C279.34 192.269 279.024 192.269 278.828 192.464L275.646 195.646ZM276 196.5H317V195.5H276V196.5Z" fill="black"/>
<line x1="317.5" y1="214" x2="317.5" y2="255" stroke="black"/>
<line x1="317.5" y1="161" x2="317.5" y2="196" stroke="black"/>
<line x1="317" y1="254.5" x2="372" y2="254.5" stroke="black"/>
<line x1="317" y1="160.5" x2="373" y2="160.5" stroke="black"/>
<path d="M244.147 183.354C244.342 183.549 244.658 183.549 244.854 183.354L248.035 180.171C248.23 179.976 248.23 179.659 248.035 179.464C247.839 179.269 247.523 179.269 247.328 179.464L244.5 182.293L241.671 179.465C241.475 179.27 241.159 179.27 240.964 179.465C240.768 179.661 240.769 179.977 240.964 180.172L244.147 183.354ZM245 183L244.974 66.9998L243.974 67L244 183L245 183Z" fill="black"/>
<line x1="371" y1="67.5" x2="244" y2="67.5" stroke="black"/>
<path d="M112.026 352H110.238V343.432H115.146V344.92H112.026V347.128H114.93V348.616H112.026V352ZM119.38 345.328C120.284 345.328 121 345.588 121.528 346.108C122.056 346.62 122.32 347.352 122.32 348.304V349.168H118.096C118.112 349.672 118.26 350.068 118.54 350.356C118.828 350.644 119.224 350.788 119.728 350.788C120.152 350.788 120.536 350.748 120.88 350.668C121.224 350.58 121.58 350.448 121.948 350.272V351.652C121.628 351.812 121.288 351.928 120.928 352C120.576 352.08 120.148 352.12 119.644 352.12C118.988 352.12 118.408 352 117.904 351.76C117.4 351.512 117.004 351.14 116.716 350.644C116.428 350.148 116.284 349.524 116.284 348.772C116.284 348.004 116.412 347.368 116.668 346.864C116.932 346.352 117.296 345.968 117.76 345.712C118.224 345.456 118.764 345.328 119.38 345.328ZM119.392 346.6C119.048 346.6 118.76 346.712 118.528 346.936C118.304 347.16 118.172 347.508 118.132 347.98H120.64C120.632 347.58 120.528 347.252 120.328 346.996C120.128 346.732 119.816 346.6 119.392 346.6ZM126.53 350.692C126.73 350.692 126.922 350.672 127.106 350.632C127.29 350.592 127.474 350.544 127.658 350.488V351.82C127.466 351.9 127.226 351.968 126.938 352.024C126.658 352.088 126.35 352.12 126.014 352.12C125.622 352.12 125.27 352.056 124.958 351.928C124.654 351.8 124.41 351.58 124.226 351.268C124.05 350.948 123.962 350.508 123.962 349.948V346.792H123.11V346.036L124.094 345.436L124.61 344.056H125.75V345.448H127.586V346.792H125.75V349.948C125.75 350.196 125.822 350.384 125.966 350.512C126.11 350.632 126.298 350.692 126.53 350.692ZM131.637 352.12C130.661 352.12 129.905 351.852 129.369 351.316C128.841 350.772 128.577 349.92 128.577 348.76C128.577 347.96 128.713 347.308 128.985 346.804C129.257 346.3 129.633 345.928 130.113 345.688C130.601 345.448 131.161 345.328 131.793 345.328C132.241 345.328 132.629 345.372 132.957 345.46C133.293 345.548 133.585 345.652 133.833 345.772L133.305 347.152C133.025 347.04 132.761 346.948 132.513 346.876C132.273 346.804 132.033 346.768 131.793 346.768C130.865 346.768 130.401 347.428 130.401 348.748C130.401 349.404 130.521 349.888 130.761 350.2C131.009 350.512 131.353 350.668 131.793 350.668C132.169 350.668 132.501 350.62 132.789 350.524C133.077 350.42 133.357 350.28 133.629 350.104V351.628C133.357 351.804 133.069 351.928 132.765 352C132.469 352.08 132.093 352.12 131.637 352.12ZM136.925 344.74C136.925 345.06 136.913 345.368 136.889 345.664C136.873 345.96 136.857 346.168 136.841 346.288H136.937C137.145 345.952 137.413 345.708 137.741 345.556C138.069 345.404 138.433 345.328 138.833 345.328C139.545 345.328 140.113 345.52 140.537 345.904C140.969 346.28 141.185 346.888 141.185 347.728V352H139.397V348.172C139.397 347.228 139.045 346.756 138.341 346.756C137.805 346.756 137.433 346.944 137.225 347.32C137.025 347.688 136.925 348.22 136.925 348.916V352H135.137V342.88H136.925V344.74ZM151.625 347.716C151.625 348.636 151.525 349.424 151.325 350.08C151.133 350.736 150.817 351.24 150.377 351.592C149.945 351.944 149.361 352.12 148.625 352.12C147.593 352.12 146.837 351.732 146.357 350.956C145.877 350.172 145.637 349.092 145.637 347.716C145.637 346.788 145.733 345.996 145.925 345.34C146.117 344.684 146.433 344.18 146.873 343.828C147.313 343.476 147.897 343.3 148.625 343.3C149.649 343.3 150.405 343.688 150.893 344.464C151.381 345.24 151.625 346.324 151.625 347.716ZM147.437 347.716C147.437 348.692 147.521 349.428 147.689 349.924C147.857 350.412 148.169 350.656 148.625 350.656C149.073 350.656 149.385 350.412 149.561 349.924C149.737 349.436 149.825 348.7 149.825 347.716C149.825 346.74 149.737 346.004 149.561 345.508C149.385 345.012 149.073 344.764 148.625 344.764C148.169 344.764 147.857 345.012 147.689 345.508C147.521 346.004 147.437 346.74 147.437 347.716ZM159.569 352H157.757V344.944H155.429V343.432H161.897V344.944H159.569V352ZM164.184 348.652L162.072 345.448H164.1L165.372 347.536L166.656 345.448H168.684L166.548 348.652L168.78 352H166.752L165.372 349.756L163.992 352H161.964L164.184 348.652Z" fill="black"/>
<path d="M112.044 157H110.256V148.432H115.164V149.92H112.044V152.128H114.948V153.616H112.044V157ZM119.398 150.328C120.302 150.328 121.018 150.588 121.546 151.108C122.074 151.62 122.338 152.352 122.338 153.304V154.168H118.114C118.13 154.672 118.278 155.068 118.558 155.356C118.846 155.644 119.242 155.788 119.746 155.788C120.17 155.788 120.554 155.748 120.898 155.668C121.242 155.58 121.598 155.448 121.966 155.272V156.652C121.646 156.812 121.306 156.928 120.946 157C120.594 157.08 120.166 157.12 119.662 157.12C119.006 157.12 118.426 157 117.922 156.76C117.418 156.512 117.022 156.14 116.734 155.644C116.446 155.148 116.302 154.524 116.302 153.772C116.302 153.004 116.43 152.368 116.686 151.864C116.95 151.352 117.314 150.968 117.778 150.712C118.242 150.456 118.782 150.328 119.398 150.328ZM119.41 151.6C119.066 151.6 118.778 151.712 118.546 151.936C118.322 152.16 118.19 152.508 118.15 152.98H120.658C120.65 152.58 120.546 152.252 120.346 151.996C120.146 151.732 119.834 151.6 119.41 151.6ZM126.548 155.692C126.748 155.692 126.94 155.672 127.124 155.632C127.308 155.592 127.492 155.544 127.676 155.488V156.82C127.484 156.9 127.244 156.968 126.956 157.024C126.676 157.088 126.368 157.12 126.032 157.12C125.64 157.12 125.288 157.056 124.976 156.928C124.672 156.8 124.428 156.58 124.244 156.268C124.068 155.948 123.98 155.508 123.98 154.948V151.792H123.128V151.036L124.112 150.436L124.628 149.056H125.768V150.448H127.604V151.792H125.768V154.948C125.768 155.196 125.84 155.384 125.984 155.512C126.128 155.632 126.316 155.692 126.548 155.692ZM131.655 157.12C130.679 157.12 129.923 156.852 129.387 156.316C128.859 155.772 128.595 154.92 128.595 153.76C128.595 152.96 128.731 152.308 129.003 151.804C129.275 151.3 129.651 150.928 130.131 150.688C130.619 150.448 131.179 150.328 131.811 150.328C132.259 150.328 132.647 150.372 132.975 150.46C133.311 150.548 133.603 150.652 133.851 150.772L133.323 152.152C133.043 152.04 132.779 151.948 132.531 151.876C132.291 151.804 132.051 151.768 131.811 151.768C130.883 151.768 130.419 152.428 130.419 153.748C130.419 154.404 130.539 154.888 130.779 155.2C131.027 155.512 131.371 155.668 131.811 155.668C132.187 155.668 132.519 155.62 132.807 155.524C133.095 155.42 133.375 155.28 133.647 155.104V156.628C133.375 156.804 133.087 156.928 132.783 157C132.487 157.08 132.111 157.12 131.655 157.12ZM136.943 149.74C136.943 150.06 136.931 150.368 136.907 150.664C136.891 150.96 136.875 151.168 136.859 151.288H136.955C137.163 150.952 137.431 150.708 137.759 150.556C138.087 150.404 138.451 150.328 138.851 150.328C139.563 150.328 140.131 150.52 140.555 150.904C140.987 151.28 141.203 151.888 141.203 152.728V157H139.415V153.172C139.415 152.228 139.063 151.756 138.359 151.756C137.823 151.756 137.451 151.944 137.243 152.32C137.043 152.688 136.943 153.22 136.943 153.916V157H135.155V147.88H136.943V149.74ZM151.691 157H145.703V155.74L147.851 153.568C148.283 153.12 148.631 152.748 148.895 152.452C149.159 152.148 149.351 151.876 149.471 151.636C149.591 151.388 149.651 151.124 149.651 150.844C149.651 150.5 149.555 150.244 149.363 150.076C149.179 149.908 148.927 149.824 148.607 149.824C148.279 149.824 147.959 149.9 147.647 150.052C147.335 150.204 147.007 150.42 146.663 150.7L145.679 149.536C145.927 149.32 146.187 149.12 146.459 148.936C146.739 148.752 147.059 148.604 147.419 148.492C147.787 148.372 148.227 148.312 148.739 148.312C149.299 148.312 149.779 148.416 150.179 148.624C150.587 148.824 150.899 149.1 151.115 149.452C151.339 149.796 151.451 150.188 151.451 150.628C151.451 151.1 151.355 151.532 151.163 151.924C150.979 152.316 150.707 152.704 150.347 153.088C149.995 153.472 149.567 153.896 149.063 154.36L147.959 155.392V155.476H151.691V157ZM159.587 157H157.775V149.944H155.447V148.432H161.915V149.944H159.587V157ZM164.202 153.652L162.09 150.448H164.118L165.39 152.536L166.674 150.448H168.702L166.566 153.652L168.798 157H166.77L165.39 154.756L164.01 157H161.982L164.202 153.652ZM174.367 155.056C174.367 155.72 174.131 156.232 173.659 156.592C173.195 156.944 172.499 157.12 171.571 157.12C171.115 157.12 170.723 157.088 170.395 157.024C170.067 156.968 169.739 156.872 169.411 156.736V155.26C169.763 155.42 170.143 155.552 170.551 155.656C170.959 155.76 171.319 155.812 171.631 155.812C171.983 155.812 172.231 155.76 172.375 155.656C172.527 155.552 172.603 155.416 172.603 155.248C172.603 155.136 172.571 155.036 172.507 154.948C172.451 154.86 172.323 154.76 172.123 154.648C171.923 154.536 171.611 154.392 171.187 154.216C170.779 154.04 170.443 153.868 170.179 153.7C169.915 153.524 169.719 153.316 169.591 153.076C169.463 152.828 169.399 152.52 169.399 152.152C169.399 151.544 169.635 151.088 170.107 150.784C170.579 150.48 171.207 150.328 171.991 150.328C172.399 150.328 172.787 150.368 173.155 150.448C173.523 150.528 173.903 150.66 174.295 150.844L173.755 152.128C173.435 151.992 173.131 151.88 172.843 151.792C172.555 151.696 172.263 151.648 171.967 151.648C171.439 151.648 171.175 151.792 171.175 152.08C171.175 152.184 171.207 152.28 171.271 152.368C171.343 152.448 171.475 152.536 171.667 152.632C171.867 152.728 172.159 152.856 172.543 153.016C172.919 153.168 173.243 153.328 173.515 153.496C173.787 153.656 173.995 153.86 174.139 154.108C174.291 154.348 174.367 154.664 174.367 155.056Z" fill="black"/>
<line x1="97.0001" y1="161.5" x2="232" y2="161.523" stroke="black"/>
<path d="M232.146 183.354C232.342 183.549 232.658 183.549 232.854 183.354L236.036 180.172C236.231 179.976 236.231 179.66 236.036 179.464C235.84 179.269 235.524 179.269 235.328 179.464L232.5 182.293L229.672 179.464C229.476 179.269 229.16 179.269 228.964 179.464C228.769 179.66 228.769 179.976 228.964 180.172L232.146 183.354ZM232 161V183H233V161H232Z" fill="black"/>
<defs>
<clipPath id="clip0">
<rect width="58.3936" height="49.5916" fill="white" transform="translate(215 183)"/>
</clipPath>
<clipPath id="clip1">
<rect width="41" height="41" fill="white" transform="translate(371 335)"/>
</clipPath>
<clipPath id="clip2">
<rect width="41" height="41" fill="white" transform="translate(371 234)"/>
</clipPath>
<clipPath id="clip3">
<rect width="41" height="41" fill="white" transform="translate(372 141)"/>
</clipPath>
<clipPath id="clip4">
<rect width="41" height="41" fill="white" transform="translate(371 46)"/>
</clipPath>
</defs>
</svg>
