<svg width="618" height="363" viewBox="0 0 618 363" fill="none" xmlns="http://www.w3.org/2000/svg">
<rect width="618" height="363" fill="white"/>
<g clip-path="url(#clip0)">
<path d="M292.307 43H249C247.895 43 247 43.8954 247 45V53.8289C247 54.9335 247.895 55.8289 249 55.8289H292.307C293.411 55.8289 294.307 54.9335 294.307 53.8289V45C294.307 43.8954 293.411 43 292.307 43Z" stroke="black" stroke-width="2" stroke-linecap="round" stroke-linejoin="round"/>
<path d="M292.307 55.8289H249C247.895 55.8289 247 56.7244 247 57.8289V66.6579C247 67.7624 247.895 68.6579 249 68.6579H292.307C293.411 68.6579 294.307 67.7624 294.307 66.6579V57.8289C294.307 56.7244 293.411 55.8289 292.307 55.8289Z" stroke="black" stroke-width="2" stroke-linecap="round" stroke-linejoin="round"/>
<path d="M292.307 68.6579H249C247.895 68.6579 247 69.5533 247 70.6579V79.4868C247 80.5914 247.895 81.4868 249 81.4868H292.307C293.411 81.4868 294.307 80.5914 294.307 79.4868V70.6579C294.307 69.5533 293.411 68.6579 292.307 68.6579Z" stroke="black" stroke-width="2" stroke-linecap="round" stroke-linejoin="round"/>
<path d="M254.425 48.0146H251.592V50.8143H254.425V48.0146Z" fill="black" stroke="black" stroke-width="0.49296" stroke-linecap="round" stroke-linejoin="round"/>
<path d="M254.425 60.8435H251.592V63.6433H254.425V60.8435Z" fill="black" stroke="black" stroke-width="0.49296" stroke-linecap="round" stroke-linejoin="round"/>
<path d="M254.425 73.6725H251.592V76.4722H254.425V73.6725Z" fill="black" stroke="black" stroke-width="0.49296" stroke-linecap="round" stroke-linejoin="round"/>
<path d="M261.78 48.0146H258.947V50.8143H261.78V48.0146Z" fill="black" stroke="black" stroke-width="0.49296" stroke-linecap="round" stroke-linejoin="round"/>
<path d="M261.78 60.8435H258.947V63.6433H261.78V60.8435Z" fill="black" stroke="black" stroke-width="0.49296" stroke-linecap="round" stroke-linejoin="round"/>
<path d="M261.78 73.6725H258.947V76.4722H261.78V73.6725Z" fill="black" stroke="black" stroke-width="0.49296" stroke-linecap="round" stroke-linejoin="round"/>
</g>
<path d="M252.663 97H248.763V95.968L249.807 95.488V89.944L248.763 89.464V88.432H252.663V89.464L251.619 89.944V95.488L252.663 95.968V97ZM257.699 90.328C258.403 90.328 258.967 90.52 259.391 90.904C259.815 91.28 260.027 91.888 260.027 92.728V97H258.239V93.172C258.239 92.7 258.155 92.348 257.987 92.116C257.819 91.876 257.551 91.756 257.183 91.756C256.639 91.756 256.267 91.944 256.067 92.32C255.867 92.688 255.767 93.22 255.767 93.916V97H253.979V90.448H255.347L255.587 91.288H255.683C255.891 90.952 256.175 90.708 256.535 90.556C256.903 90.404 257.291 90.328 257.699 90.328ZM263.942 97.12C263.214 97.12 262.618 96.836 262.154 96.268C261.698 95.692 261.47 94.848 261.47 93.736C261.47 92.616 261.702 91.768 262.166 91.192C262.63 90.616 263.238 90.328 263.99 90.328C264.462 90.328 264.85 90.42 265.154 90.604C265.458 90.788 265.698 91.016 265.874 91.288H265.934C265.91 91.16 265.882 90.976 265.85 90.736C265.818 90.488 265.802 90.236 265.802 89.98V87.88H267.59V97H266.222L265.874 96.148H265.802C265.626 96.42 265.39 96.652 265.094 96.844C264.798 97.028 264.414 97.12 263.942 97.12ZM264.566 95.692C265.062 95.692 265.41 95.548 265.61 95.26C265.81 94.964 265.914 94.524 265.922 93.94V93.748C265.922 93.108 265.822 92.62 265.622 92.284C265.43 91.948 265.07 91.78 264.542 91.78C264.15 91.78 263.842 91.952 263.618 92.296C263.394 92.632 263.282 93.12 263.282 93.76C263.282 94.4 263.394 94.884 263.618 95.212C263.842 95.532 264.158 95.692 264.566 95.692ZM272.159 90.328C273.063 90.328 273.779 90.588 274.307 91.108C274.835 91.62 275.099 92.352 275.099 93.304V94.168H270.875C270.891 94.672 271.039 95.068 271.319 95.356C271.607 95.644 272.003 95.788 272.507 95.788C272.931 95.788 273.315 95.748 273.659 95.668C274.003 95.58 274.359 95.448 274.727 95.272V96.652C274.407 96.812 274.067 96.928 273.707 97C273.355 97.08 272.927 97.12 272.423 97.12C271.767 97.12 271.187 97 270.683 96.76C270.179 96.512 269.783 96.14 269.495 95.644C269.207 95.148 269.063 94.524 269.063 93.772C269.063 93.004 269.191 92.368 269.447 91.864C269.711 91.352 270.075 90.968 270.539 90.712C271.003 90.456 271.543 90.328 272.159 90.328ZM272.171 91.6C271.827 91.6 271.539 91.712 271.307 91.936C271.083 92.16 270.951 92.508 270.911 92.98H273.419C273.411 92.58 273.307 92.252 273.107 91.996C272.907 91.732 272.595 91.6 272.171 91.6ZM277.659 93.652L275.547 90.448H277.575L278.847 92.536L280.131 90.448H282.159L280.023 93.652L282.255 97H280.227L278.847 94.756L277.467 97H275.439L277.659 93.652ZM285.718 90.328C286.622 90.328 287.338 90.588 287.866 91.108C288.394 91.62 288.658 92.352 288.658 93.304V94.168H284.434C284.45 94.672 284.598 95.068 284.878 95.356C285.166 95.644 285.562 95.788 286.066 95.788C286.49 95.788 286.874 95.748 287.218 95.668C287.562 95.58 287.918 95.448 288.286 95.272V96.652C287.966 96.812 287.626 96.928 287.266 97C286.914 97.08 286.486 97.12 285.982 97.12C285.326 97.12 284.746 97 284.242 96.76C283.738 96.512 283.342 96.14 283.054 95.644C282.766 95.148 282.622 94.524 282.622 93.772C282.622 93.004 282.75 92.368 283.006 91.864C283.27 91.352 283.634 90.968 284.098 90.712C284.562 90.456 285.102 90.328 285.718 90.328ZM285.73 91.6C285.386 91.6 285.098 91.712 284.866 91.936C284.642 92.16 284.51 92.508 284.47 92.98H286.978C286.97 92.58 286.866 92.252 286.666 91.996C286.466 91.732 286.154 91.6 285.73 91.6ZM293.768 90.328C293.856 90.328 293.96 90.332 294.08 90.34C294.2 90.348 294.296 90.36 294.368 90.376L294.236 92.056C294.18 92.04 294.096 92.028 293.984 92.02C293.88 92.004 293.788 91.996 293.708 91.996C293.404 91.996 293.112 92.052 292.832 92.164C292.552 92.268 292.324 92.44 292.148 92.68C291.98 92.92 291.896 93.248 291.896 93.664V97H290.108V90.448H291.464L291.728 91.552H291.812C292.004 91.216 292.268 90.928 292.604 90.688C292.94 90.448 293.328 90.328 293.768 90.328Z" fill="black"/>
<g clip-path="url(#clip1)">
<path d="M229.307 174H186C184.895 174 184 174.895 184 176V184.829C184 185.934 184.895 186.829 186 186.829H229.307C230.411 186.829 231.307 185.934 231.307 184.829V176C231.307 174.895 230.411 174 229.307 174Z" stroke="black" stroke-width="2" stroke-linecap="round" stroke-linejoin="round"/>
<path d="M229.307 186.829H186C184.895 186.829 184 187.724 184 188.829V197.658C184 198.762 184.895 199.658 186 199.658H229.307C230.411 199.658 231.307 198.762 231.307 197.658V188.829C231.307 187.724 230.411 186.829 229.307 186.829Z" stroke="black" stroke-width="2" stroke-linecap="round" stroke-linejoin="round"/>
<path d="M229.307 199.658H186C184.895 199.658 184 200.553 184 201.658V210.487C184 211.591 184.895 212.487 186 212.487H229.307C230.411 212.487 231.307 211.591 231.307 210.487V201.658C231.307 200.553 230.411 199.658 229.307 199.658Z" stroke="black" stroke-width="2" stroke-linecap="round" stroke-linejoin="round"/>
<path d="M191.425 179.015H188.592V181.814H191.425V179.015Z" fill="black" stroke="black" stroke-width="0.49296" stroke-linecap="round" stroke-linejoin="round"/>
<path d="M191.425 191.844H188.592V194.643H191.425V191.844Z" fill="black" stroke="black" stroke-width="0.49296" stroke-linecap="round" stroke-linejoin="round"/>
<path d="M191.425 204.672H188.592V207.472H191.425V204.672Z" fill="black" stroke="black" stroke-width="0.49296" stroke-linecap="round" stroke-linejoin="round"/>
<path d="M198.78 179.015H195.947V181.814H198.78V179.015Z" fill="black" stroke="black" stroke-width="0.49296" stroke-linecap="round" stroke-linejoin="round"/>
<path d="M198.78 191.844H195.947V194.643H198.78V191.844Z" fill="black" stroke="black" stroke-width="0.49296" stroke-linecap="round" stroke-linejoin="round"/>
<path d="M198.78 204.672H195.947V207.472H198.78V204.672Z" fill="black" stroke="black" stroke-width="0.49296" stroke-linecap="round" stroke-linejoin="round"/>
</g>
<path d="M189.663 228H185.763V226.968L186.807 226.488V220.944L185.763 220.464V219.432H189.663V220.464L188.619 220.944V226.488L189.663 226.968V228ZM194.699 221.328C195.403 221.328 195.967 221.52 196.391 221.904C196.815 222.28 197.027 222.888 197.027 223.728V228H195.239V224.172C195.239 223.7 195.155 223.348 194.987 223.116C194.819 222.876 194.551 222.756 194.183 222.756C193.639 222.756 193.267 222.944 193.067 223.32C192.867 223.688 192.767 224.22 192.767 224.916V228H190.979V221.448H192.347L192.587 222.288H192.683C192.891 221.952 193.175 221.708 193.535 221.556C193.903 221.404 194.291 221.328 194.699 221.328ZM200.942 228.12C200.214 228.12 199.618 227.836 199.154 227.268C198.698 226.692 198.47 225.848 198.47 224.736C198.47 223.616 198.702 222.768 199.166 222.192C199.63 221.616 200.238 221.328 200.99 221.328C201.462 221.328 201.85 221.42 202.154 221.604C202.458 221.788 202.698 222.016 202.874 222.288H202.934C202.91 222.16 202.882 221.976 202.85 221.736C202.818 221.488 202.802 221.236 202.802 220.98V218.88H204.59V228H203.222L202.874 227.148H202.802C202.626 227.42 202.39 227.652 202.094 227.844C201.798 228.028 201.414 228.12 200.942 228.12ZM201.566 226.692C202.062 226.692 202.41 226.548 202.61 226.26C202.81 225.964 202.914 225.524 202.922 224.94V224.748C202.922 224.108 202.822 223.62 202.622 223.284C202.43 222.948 202.07 222.78 201.542 222.78C201.15 222.78 200.842 222.952 200.618 223.296C200.394 223.632 200.282 224.12 200.282 224.76C200.282 225.4 200.394 225.884 200.618 226.212C200.842 226.532 201.158 226.692 201.566 226.692ZM209.159 221.328C210.063 221.328 210.779 221.588 211.307 222.108C211.835 222.62 212.099 223.352 212.099 224.304V225.168H207.875C207.891 225.672 208.039 226.068 208.319 226.356C208.607 226.644 209.003 226.788 209.507 226.788C209.931 226.788 210.315 226.748 210.659 226.668C211.003 226.58 211.359 226.448 211.727 226.272V227.652C211.407 227.812 211.067 227.928 210.707 228C210.355 228.08 209.927 228.12 209.423 228.12C208.767 228.12 208.187 228 207.683 227.76C207.179 227.512 206.783 227.14 206.495 226.644C206.207 226.148 206.063 225.524 206.063 224.772C206.063 224.004 206.191 223.368 206.447 222.864C206.711 222.352 207.075 221.968 207.539 221.712C208.003 221.456 208.543 221.328 209.159 221.328ZM209.171 222.6C208.827 222.6 208.539 222.712 208.307 222.936C208.083 223.16 207.951 223.508 207.911 223.98H210.419C210.411 223.58 210.307 223.252 210.107 222.996C209.907 222.732 209.595 222.6 209.171 222.6ZM214.659 224.652L212.547 221.448H214.575L215.847 223.536L217.131 221.448H219.159L217.023 224.652L219.255 228H217.227L215.847 225.756L214.467 228H212.439L214.659 224.652ZM222.718 221.328C223.622 221.328 224.338 221.588 224.866 222.108C225.394 222.62 225.658 223.352 225.658 224.304V225.168H221.434C221.45 225.672 221.598 226.068 221.878 226.356C222.166 226.644 222.562 226.788 223.066 226.788C223.49 226.788 223.874 226.748 224.218 226.668C224.562 226.58 224.918 226.448 225.286 226.272V227.652C224.966 227.812 224.626 227.928 224.266 228C223.914 228.08 223.486 228.12 222.982 228.12C222.326 228.12 221.746 228 221.242 227.76C220.738 227.512 220.342 227.14 220.054 226.644C219.766 226.148 219.622 225.524 219.622 224.772C219.622 224.004 219.75 223.368 220.006 222.864C220.27 222.352 220.634 221.968 221.098 221.712C221.562 221.456 222.102 221.328 222.718 221.328ZM222.73 222.6C222.386 222.6 222.098 222.712 221.866 222.936C221.642 223.16 221.51 223.508 221.47 223.98H223.978C223.97 223.58 223.866 223.252 223.666 222.996C223.466 222.732 223.154 222.6 222.73 222.6ZM230.768 221.328C230.856 221.328 230.96 221.332 231.08 221.34C231.2 221.348 231.296 221.36 231.368 221.376L231.236 223.056C231.18 223.04 231.096 223.028 230.984 223.02C230.88 223.004 230.788 222.996 230.708 222.996C230.404 222.996 230.112 223.052 229.832 223.164C229.552 223.268 229.324 223.44 229.148 223.68C228.98 223.92 228.896 224.248 228.896 224.664V228H227.108V221.448H228.464L228.728 222.552H228.812C229.004 222.216 229.268 221.928 229.604 221.688C229.94 221.448 230.328 221.328 230.768 221.328Z" fill="black"/>
<g clip-path="url(#clip2)">
<path d="M418.307 114H375C373.895 114 373 114.895 373 116V124.829C373 125.934 373.895 126.829 375 126.829H418.307C419.411 126.829 420.307 125.934 420.307 124.829V116C420.307 114.895 419.411 114 418.307 114Z" stroke="black" stroke-width="2" stroke-linecap="round" stroke-linejoin="round"/>
<path d="M418.307 126.829H375C373.895 126.829 373 127.724 373 128.829V137.658C373 138.762 373.895 139.658 375 139.658H418.307C419.411 139.658 420.307 138.762 420.307 137.658V128.829C420.307 127.724 419.411 126.829 418.307 126.829Z" stroke="black" stroke-width="2" stroke-linecap="round" stroke-linejoin="round"/>
<path d="M418.307 139.658H375C373.895 139.658 373 140.553 373 141.658V150.487C373 151.591 373.895 152.487 375 152.487H418.307C419.411 152.487 420.307 151.591 420.307 150.487V141.658C420.307 140.553 419.411 139.658 418.307 139.658Z" stroke="black" stroke-width="2" stroke-linecap="round" stroke-linejoin="round"/>
<path d="M380.425 119.015H377.592V121.814H380.425V119.015Z" fill="black" stroke="black" stroke-width="0.49296" stroke-linecap="round" stroke-linejoin="round"/>
<path d="M380.425 131.844H377.592V134.643H380.425V131.844Z" fill="black" stroke="black" stroke-width="0.49296" stroke-linecap="round" stroke-linejoin="round"/>
<path d="M380.425 144.672H377.592V147.472H380.425V144.672Z" fill="black" stroke="black" stroke-width="0.49296" stroke-linecap="round" stroke-linejoin="round"/>
<path d="M387.78 119.015H384.947V121.814H387.78V119.015Z" fill="black" stroke="black" stroke-width="0.49296" stroke-linecap="round" stroke-linejoin="round"/>
<path d="M387.78 131.844H384.947V134.643H387.78V131.844Z" fill="black" stroke="black" stroke-width="0.49296" stroke-linecap="round" stroke-linejoin="round"/>
<path d="M387.78 144.672H384.947V147.472H387.78V144.672Z" fill="black" stroke="black" stroke-width="0.49296" stroke-linecap="round" stroke-linejoin="round"/>
<line x1="421.195" y1="133.54" x2="499.195" y2="166.54" stroke="black"/>
</g>
<path d="M378.663 168H374.763V166.968L375.807 166.488V160.944L374.763 160.464V159.432H378.663V160.464L377.619 160.944V166.488L378.663 166.968V168ZM383.699 161.328C384.403 161.328 384.967 161.52 385.391 161.904C385.815 162.28 386.027 162.888 386.027 163.728V168H384.239V164.172C384.239 163.7 384.155 163.348 383.987 163.116C383.819 162.876 383.551 162.756 383.183 162.756C382.639 162.756 382.267 162.944 382.067 163.32C381.867 163.688 381.767 164.22 381.767 164.916V168H379.979V161.448H381.347L381.587 162.288H381.683C381.891 161.952 382.175 161.708 382.535 161.556C382.903 161.404 383.291 161.328 383.699 161.328ZM389.942 168.12C389.214 168.12 388.618 167.836 388.154 167.268C387.698 166.692 387.47 165.848 387.47 164.736C387.47 163.616 387.702 162.768 388.166 162.192C388.63 161.616 389.238 161.328 389.99 161.328C390.462 161.328 390.85 161.42 391.154 161.604C391.458 161.788 391.698 162.016 391.874 162.288H391.934C391.91 162.16 391.882 161.976 391.85 161.736C391.818 161.488 391.802 161.236 391.802 160.98V158.88H393.59V168H392.222L391.874 167.148H391.802C391.626 167.42 391.39 167.652 391.094 167.844C390.798 168.028 390.414 168.12 389.942 168.12ZM390.566 166.692C391.062 166.692 391.41 166.548 391.61 166.26C391.81 165.964 391.914 165.524 391.922 164.94V164.748C391.922 164.108 391.822 163.62 391.622 163.284C391.43 162.948 391.07 162.78 390.542 162.78C390.15 162.78 389.842 162.952 389.618 163.296C389.394 163.632 389.282 164.12 389.282 164.76C389.282 165.4 389.394 165.884 389.618 166.212C389.842 166.532 390.158 166.692 390.566 166.692ZM398.159 161.328C399.063 161.328 399.779 161.588 400.307 162.108C400.835 162.62 401.099 163.352 401.099 164.304V165.168H396.875C396.891 165.672 397.039 166.068 397.319 166.356C397.607 166.644 398.003 166.788 398.507 166.788C398.931 166.788 399.315 166.748 399.659 166.668C400.003 166.58 400.359 166.448 400.727 166.272V167.652C400.407 167.812 400.067 167.928 399.707 168C399.355 168.08 398.927 168.12 398.423 168.12C397.767 168.12 397.187 168 396.683 167.76C396.179 167.512 395.783 167.14 395.495 166.644C395.207 166.148 395.063 165.524 395.063 164.772C395.063 164.004 395.191 163.368 395.447 162.864C395.711 162.352 396.075 161.968 396.539 161.712C397.003 161.456 397.543 161.328 398.159 161.328ZM398.171 162.6C397.827 162.6 397.539 162.712 397.307 162.936C397.083 163.16 396.951 163.508 396.911 163.98H399.419C399.411 163.58 399.307 163.252 399.107 162.996C398.907 162.732 398.595 162.6 398.171 162.6ZM403.659 164.652L401.547 161.448H403.575L404.847 163.536L406.131 161.448H408.159L406.023 164.652L408.255 168H406.227L404.847 165.756L403.467 168H401.439L403.659 164.652ZM411.718 161.328C412.622 161.328 413.338 161.588 413.866 162.108C414.394 162.62 414.658 163.352 414.658 164.304V165.168H410.434C410.45 165.672 410.598 166.068 410.878 166.356C411.166 166.644 411.562 166.788 412.066 166.788C412.49 166.788 412.874 166.748 413.218 166.668C413.562 166.58 413.918 166.448 414.286 166.272V167.652C413.966 167.812 413.626 167.928 413.266 168C412.914 168.08 412.486 168.12 411.982 168.12C411.326 168.12 410.746 168 410.242 167.76C409.738 167.512 409.342 167.14 409.054 166.644C408.766 166.148 408.622 165.524 408.622 164.772C408.622 164.004 408.75 163.368 409.006 162.864C409.27 162.352 409.634 161.968 410.098 161.712C410.562 161.456 411.102 161.328 411.718 161.328ZM411.73 162.6C411.386 162.6 411.098 162.712 410.866 162.936C410.642 163.16 410.51 163.508 410.47 163.98H412.978C412.97 163.58 412.866 163.252 412.666 162.996C412.466 162.732 412.154 162.6 411.73 162.6ZM419.768 161.328C419.856 161.328 419.96 161.332 420.08 161.34C420.2 161.348 420.296 161.36 420.368 161.376L420.236 163.056C420.18 163.04 420.096 163.028 419.984 163.02C419.88 163.004 419.788 162.996 419.708 162.996C419.404 162.996 419.112 163.052 418.832 163.164C418.552 163.268 418.324 163.44 418.148 163.68C417.98 163.92 417.896 164.248 417.896 164.664V168H416.108V161.448H417.464L417.728 162.552H417.812C418.004 162.216 418.268 161.928 418.604 161.688C418.94 161.448 419.328 161.328 419.768 161.328Z" fill="black"/>
<g clip-path="url(#clip3)">
<path d="M545.307 146H502C500.895 146 500 146.895 500 148V156.829C500 157.934 500.895 158.829 502 158.829H545.307C546.411 158.829 547.307 157.934 547.307 156.829V148C547.307 146.895 546.411 146 545.307 146Z" stroke="black" stroke-width="2" stroke-linecap="round" stroke-linejoin="round"/>
<path d="M545.307 158.829H502C500.895 158.829 500 159.724 500 160.829V169.658C500 170.762 500.895 171.658 502 171.658H545.307C546.411 171.658 547.307 170.762 547.307 169.658V160.829C547.307 159.724 546.411 158.829 545.307 158.829Z" stroke="black" stroke-width="2" stroke-linecap="round" stroke-linejoin="round"/>
<path d="M545.307 171.658H502C500.895 171.658 500 172.553 500 173.658V182.487C500 183.591 500.895 184.487 502 184.487H545.307C546.411 184.487 547.307 183.591 547.307 182.487V173.658C547.307 172.553 546.411 171.658 545.307 171.658Z" stroke="black" stroke-width="2" stroke-linecap="round" stroke-linejoin="round"/>
<path d="M507.425 151.015H504.592V153.814H507.425V151.015Z" fill="black" stroke="black" stroke-width="0.49296" stroke-linecap="round" stroke-linejoin="round"/>
<path d="M507.425 163.844H504.592V166.643H507.425V163.844Z" fill="black" stroke="black" stroke-width="0.49296" stroke-linecap="round" stroke-linejoin="round"/>
<path d="M507.425 176.672H504.592V179.472H507.425V176.672Z" fill="black" stroke="black" stroke-width="0.49296" stroke-linecap="round" stroke-linejoin="round"/>
<path d="M514.78 151.015H511.947V153.814H514.78V151.015Z" fill="black" stroke="black" stroke-width="0.49296" stroke-linecap="round" stroke-linejoin="round"/>
<path d="M514.78 163.844H511.947V166.643H514.78V163.844Z" fill="black" stroke="black" stroke-width="0.49296" stroke-linecap="round" stroke-linejoin="round"/>
<path d="M514.78 176.672H511.947V179.472H514.78V176.672Z" fill="black" stroke="black" stroke-width="0.49296" stroke-linecap="round" stroke-linejoin="round"/>
</g>
<path d="M505.663 200H501.763V198.968L502.807 198.488V192.944L501.763 192.464V191.432H505.663V192.464L504.619 192.944V198.488L505.663 198.968V200ZM510.699 193.328C511.403 193.328 511.967 193.52 512.391 193.904C512.815 194.28 513.027 194.888 513.027 195.728V200H511.239V196.172C511.239 195.7 511.155 195.348 510.987 195.116C510.819 194.876 510.551 194.756 510.183 194.756C509.639 194.756 509.267 194.944 509.067 195.32C508.867 195.688 508.767 196.22 508.767 196.916V200H506.979V193.448H508.347L508.587 194.288H508.683C508.891 193.952 509.175 193.708 509.535 193.556C509.903 193.404 510.291 193.328 510.699 193.328ZM516.942 200.12C516.214 200.12 515.618 199.836 515.154 199.268C514.698 198.692 514.47 197.848 514.47 196.736C514.47 195.616 514.702 194.768 515.166 194.192C515.63 193.616 516.238 193.328 516.99 193.328C517.462 193.328 517.85 193.42 518.154 193.604C518.458 193.788 518.698 194.016 518.874 194.288H518.934C518.91 194.16 518.882 193.976 518.85 193.736C518.818 193.488 518.802 193.236 518.802 192.98V190.88H520.59V200H519.222L518.874 199.148H518.802C518.626 199.42 518.39 199.652 518.094 199.844C517.798 200.028 517.414 200.12 516.942 200.12ZM517.566 198.692C518.062 198.692 518.41 198.548 518.61 198.26C518.81 197.964 518.914 197.524 518.922 196.94V196.748C518.922 196.108 518.822 195.62 518.622 195.284C518.43 194.948 518.07 194.78 517.542 194.78C517.15 194.78 516.842 194.952 516.618 195.296C516.394 195.632 516.282 196.12 516.282 196.76C516.282 197.4 516.394 197.884 516.618 198.212C516.842 198.532 517.158 198.692 517.566 198.692ZM525.159 193.328C526.063 193.328 526.779 193.588 527.307 194.108C527.835 194.62 528.099 195.352 528.099 196.304V197.168H523.875C523.891 197.672 524.039 198.068 524.319 198.356C524.607 198.644 525.003 198.788 525.507 198.788C525.931 198.788 526.315 198.748 526.659 198.668C527.003 198.58 527.359 198.448 527.727 198.272V199.652C527.407 199.812 527.067 199.928 526.707 200C526.355 200.08 525.927 200.12 525.423 200.12C524.767 200.12 524.187 200 523.683 199.76C523.179 199.512 522.783 199.14 522.495 198.644C522.207 198.148 522.063 197.524 522.063 196.772C522.063 196.004 522.191 195.368 522.447 194.864C522.711 194.352 523.075 193.968 523.539 193.712C524.003 193.456 524.543 193.328 525.159 193.328ZM525.171 194.6C524.827 194.6 524.539 194.712 524.307 194.936C524.083 195.16 523.951 195.508 523.911 195.98H526.419C526.411 195.58 526.307 195.252 526.107 194.996C525.907 194.732 525.595 194.6 525.171 194.6ZM530.659 196.652L528.547 193.448H530.575L531.847 195.536L533.131 193.448H535.159L533.023 196.652L535.255 200H533.227L531.847 197.756L530.467 200H528.439L530.659 196.652ZM538.718 193.328C539.622 193.328 540.338 193.588 540.866 194.108C541.394 194.62 541.658 195.352 541.658 196.304V197.168H537.434C537.45 197.672 537.598 198.068 537.878 198.356C538.166 198.644 538.562 198.788 539.066 198.788C539.49 198.788 539.874 198.748 540.218 198.668C540.562 198.58 540.918 198.448 541.286 198.272V199.652C540.966 199.812 540.626 199.928 540.266 200C539.914 200.08 539.486 200.12 538.982 200.12C538.326 200.12 537.746 200 537.242 199.76C536.738 199.512 536.342 199.14 536.054 198.644C535.766 198.148 535.622 197.524 535.622 196.772C535.622 196.004 535.75 195.368 536.006 194.864C536.27 194.352 536.634 193.968 537.098 193.712C537.562 193.456 538.102 193.328 538.718 193.328ZM538.73 194.6C538.386 194.6 538.098 194.712 537.866 194.936C537.642 195.16 537.51 195.508 537.47 195.98H539.978C539.97 195.58 539.866 195.252 539.666 194.996C539.466 194.732 539.154 194.6 538.73 194.6ZM546.768 193.328C546.856 193.328 546.96 193.332 547.08 193.34C547.2 193.348 547.296 193.36 547.368 193.376L547.236 195.056C547.18 195.04 547.096 195.028 546.984 195.02C546.88 195.004 546.788 194.996 546.708 194.996C546.404 194.996 546.112 195.052 545.832 195.164C545.552 195.268 545.324 195.44 545.148 195.68C544.98 195.92 544.896 196.248 544.896 196.664V200H543.108V193.448H544.464L544.728 194.552H544.812C545.004 194.216 545.268 193.928 545.604 193.688C545.94 193.448 546.328 193.328 546.768 193.328Z" fill="black"/>
<g clip-path="url(#clip4)">
<path d="M104.393 60.848V47.9997C104.393 45.2297 102.164 43 99.3938 43H52.9997C50.2297 43 48 45.2297 48 47.9997V78.8919C48 81.6619 50.2297 83.8921 52.9997 83.8921H65.3002" stroke="black" stroke-width="2" stroke-linecap="round" stroke-linejoin="round"/>
<path d="M66.6624 60.5059V59.7292C66.6624 56.9592 64.4322 54.729 61.6622 54.729H48V71.5492H59.7926" stroke="black" stroke-width="2" stroke-linecap="round" stroke-linejoin="round"/>
<path d="M57.3313 67.1816C59.5639 67.1816 61.3737 65.3717 61.3737 63.1391C61.3737 60.9065 59.5639 59.0967 57.3313 59.0967C55.0987 59.0967 53.2888 60.9065 53.2888 63.1391C53.2888 65.3717 55.0987 67.1816 57.3313 67.1816Z" stroke="black" stroke-width="2" stroke-linecap="round" stroke-linejoin="round"/>
<path fill-rule="evenodd" clip-rule="evenodd" d="M76.4337 84.9559L87.2377 89.2929L97.9441 84.7204L102.283 73.9163L97.7101 63.2099L86.906 58.8722L76.1968 63.4461L71.8597 74.2494L76.4337 84.9559ZM87.2483 91.297C87.1267 91.297 87.0036 91.2736 86.8898 91.2277L75.3446 86.5929C75.1077 86.4982 74.9175 86.3129 74.8192 86.0774L69.9327 74.6362C69.8316 74.4007 69.8288 74.137 69.9249 73.8987L74.5597 62.3535C74.6545 62.1166 74.8397 61.9271 75.0752 61.8274L86.5164 56.9416C86.7519 56.8405 87.0171 56.8391 87.2547 56.9338L98.7991 61.5686C99.036 61.6633 99.2255 61.8486 99.3252 62.0841L104.211 73.5232C104.312 73.7594 104.315 74.0231 104.219 74.2614L99.5841 85.8066C99.49 86.0435 99.3047 86.233 99.0685 86.332L87.6288 91.2185C87.5057 91.2722 87.3777 91.297 87.2483 91.297V91.297Z" fill="black" stroke="black" stroke-width="0.589302"/>
<path fill-rule="evenodd" clip-rule="evenodd" d="M92.2215 66.9701V69.1658H85.0353L89.5562 73.8996L84.9292 78.9954H92.2215V81.1911H81.9231V78.9954L86.5069 73.9208L81.9436 69.1658V66.9701H92.2215Z" fill="black" stroke="black" stroke-width="0.589302"/>
</g>
<path d="M70.3982 113L69.7742 110.96H66.6542L66.0302 113H64.0742L67.0982 104.396H69.3182L72.3542 113H70.3982ZM68.7182 107.444C68.6782 107.308 68.6262 107.136 68.5622 106.928C68.4982 106.72 68.4342 106.508 68.3702 106.292C68.3062 106.076 68.2542 105.888 68.2142 105.728C68.1742 105.888 68.1182 106.088 68.0462 106.328C67.9822 106.56 67.9182 106.784 67.8542 107C67.7982 107.208 67.7542 107.356 67.7222 107.444L67.1102 109.436H69.3422L68.7182 107.444ZM75.0834 113H73.2954V103.88H75.0834V113ZM77.8516 103.88C78.1156 103.88 78.3436 103.944 78.5356 104.072C78.7276 104.192 78.8236 104.42 78.8236 104.756C78.8236 105.084 78.7276 105.312 78.5356 105.44C78.3436 105.568 78.1156 105.632 77.8516 105.632C77.5796 105.632 77.3476 105.568 77.1556 105.44C76.9716 105.312 76.8796 105.084 76.8796 104.756C76.8796 104.42 76.9716 104.192 77.1556 104.072C77.3476 103.944 77.5796 103.88 77.8516 103.88ZM78.7396 106.448V113H76.9516V106.448H78.7396ZM83.2719 113.12C82.2959 113.12 81.5399 112.852 81.0039 112.316C80.4759 111.772 80.2119 110.92 80.2119 109.76C80.2119 108.96 80.3479 108.308 80.6199 107.804C80.8919 107.3 81.2679 106.928 81.7479 106.688C82.2359 106.448 82.7959 106.328 83.4279 106.328C83.8759 106.328 84.2639 106.372 84.5919 106.46C84.9279 106.548 85.2199 106.652 85.4679 106.772L84.9399 108.152C84.6599 108.04 84.3959 107.948 84.1479 107.876C83.9079 107.804 83.6679 107.768 83.4279 107.768C82.4999 107.768 82.0359 108.428 82.0359 109.748C82.0359 110.404 82.1559 110.888 82.3959 111.2C82.6439 111.512 82.9879 111.668 83.4279 111.668C83.8039 111.668 84.1359 111.62 84.4239 111.524C84.7119 111.42 84.9919 111.28 85.2639 111.104V112.628C84.9919 112.804 84.7039 112.928 84.3999 113C84.1039 113.08 83.7279 113.12 83.2719 113.12ZM89.4719 106.328C90.3759 106.328 91.0919 106.588 91.6199 107.108C92.1479 107.62 92.4119 108.352 92.4119 109.304V110.168H88.1879C88.2039 110.672 88.3519 111.068 88.6319 111.356C88.9199 111.644 89.3159 111.788 89.8199 111.788C90.2439 111.788 90.6279 111.748 90.9719 111.668C91.3159 111.58 91.6719 111.448 92.0399 111.272V112.652C91.7199 112.812 91.3799 112.928 91.0199 113C90.6679 113.08 90.2399 113.12 89.7359 113.12C89.0799 113.12 88.4999 113 87.9959 112.76C87.4919 112.512 87.0959 112.14 86.8079 111.644C86.5199 111.148 86.3759 110.524 86.3759 109.772C86.3759 109.004 86.5039 108.368 86.7599 107.864C87.0239 107.352 87.3879 106.968 87.8519 106.712C88.3159 106.456 88.8559 106.328 89.4719 106.328ZM89.4839 107.6C89.1399 107.6 88.8519 107.712 88.6199 107.936C88.3959 108.16 88.2639 108.508 88.2239 108.98H90.7319C90.7239 108.58 90.6199 108.252 90.4199 107.996C90.2199 107.732 89.9079 107.6 89.4839 107.6Z" fill="black"/>
<g clip-path="url(#clip5)">
<path d="M550.393 274.848V262C550.393 259.23 548.164 257 545.394 257H499C496.23 257 494 259.23 494 262V292.892C494 295.662 496.23 297.892 499 297.892H511.3" stroke="black" stroke-width="2" stroke-linecap="round" stroke-linejoin="round"/>
<path d="M512.662 274.506V273.729C512.662 270.959 510.432 268.729 507.662 268.729H494V285.549H505.793" stroke="black" stroke-width="2" stroke-linecap="round" stroke-linejoin="round"/>
<path d="M503.331 281.182C505.564 281.182 507.374 279.372 507.374 277.139C507.374 274.907 505.564 273.097 503.331 273.097C501.099 273.097 499.289 274.907 499.289 277.139C499.289 279.372 501.099 281.182 503.331 281.182Z" stroke="black" stroke-width="2" stroke-linecap="round" stroke-linejoin="round"/>
<path fill-rule="evenodd" clip-rule="evenodd" d="M522.434 298.956L533.238 303.293L543.944 298.72L548.283 287.916L543.71 277.21L532.906 272.872L522.197 277.446L517.86 288.249L522.434 298.956ZM533.248 305.297C533.127 305.297 533.004 305.274 532.89 305.228L521.345 300.593C521.108 300.498 520.918 300.313 520.819 300.077L515.933 288.636C515.832 288.401 515.829 288.137 515.925 287.899L520.56 276.354C520.654 276.117 520.84 275.927 521.075 275.827L532.516 270.942C532.752 270.84 533.017 270.839 533.255 270.934L544.799 275.569C545.036 275.663 545.226 275.849 545.325 276.084L550.211 287.523C550.312 287.759 550.315 288.023 550.219 288.261L545.584 299.807C545.49 300.043 545.305 300.233 545.069 300.332L533.629 305.218C533.506 305.272 533.378 305.297 533.248 305.297V305.297Z" fill="black" stroke="black" stroke-width="0.589302"/>
<path fill-rule="evenodd" clip-rule="evenodd" d="M538.222 280.97V283.166H531.035L535.556 287.9L530.929 292.995H538.222V295.191H527.923V292.995L532.507 287.921L527.944 283.166V280.97H538.222Z" fill="black" stroke="black" stroke-width="0.589302"/>
</g>
<path d="M516.201 318.432C517.345 318.432 518.209 318.592 518.793 318.912C519.377 319.232 519.669 319.796 519.669 320.604C519.669 321.092 519.553 321.504 519.321 321.84C519.097 322.176 518.773 322.38 518.349 322.452V322.512C518.637 322.568 518.897 322.668 519.129 322.812C519.361 322.956 519.545 323.164 519.681 323.436C519.817 323.708 519.885 324.068 519.885 324.516C519.885 325.292 519.605 325.9 519.045 326.34C518.485 326.78 517.717 327 516.741 327H513.537V318.432H516.201ZM516.405 321.828C516.933 321.828 517.297 321.744 517.497 321.576C517.705 321.408 517.809 321.164 517.809 320.844C517.809 320.516 517.689 320.28 517.449 320.136C517.209 319.992 516.829 319.92 516.309 319.92H515.349V321.828H516.405ZM515.349 323.268V325.5H516.537C517.081 325.5 517.461 325.396 517.677 325.188C517.893 324.972 518.001 324.688 518.001 324.336C518.001 324.016 517.889 323.76 517.665 323.568C517.449 323.368 517.053 323.268 516.477 323.268H515.349ZM527.408 323.712C527.408 324.8 527.12 325.64 526.544 326.232C525.976 326.824 525.2 327.12 524.216 327.12C523.608 327.12 523.064 326.988 522.584 326.724C522.112 326.46 521.74 326.076 521.468 325.572C521.196 325.06 521.06 324.44 521.06 323.712C521.06 322.624 521.344 321.788 521.912 321.204C522.48 320.62 523.26 320.328 524.252 320.328C524.868 320.328 525.412 320.46 525.884 320.724C526.356 320.988 526.728 321.372 527 321.876C527.272 322.372 527.408 322.984 527.408 323.712ZM522.884 323.712C522.884 324.36 522.988 324.852 523.196 325.188C523.412 325.516 523.76 325.68 524.24 325.68C524.712 325.68 525.052 325.516 525.26 325.188C525.476 324.852 525.584 324.36 525.584 323.712C525.584 323.064 525.476 322.58 525.26 322.26C525.052 321.932 524.708 321.768 524.228 321.768C523.756 321.768 523.412 321.932 523.196 322.26C522.988 322.58 522.884 323.064 522.884 323.712ZM530.673 320.004C530.673 320.252 530.665 320.496 530.649 320.736C530.633 320.976 530.617 321.164 530.601 321.3H530.673C530.849 321.028 531.085 320.8 531.381 320.616C531.677 320.424 532.061 320.328 532.533 320.328C533.269 320.328 533.865 320.616 534.321 321.192C534.777 321.76 535.005 322.6 535.005 323.712C535.005 324.832 534.773 325.68 534.309 326.256C533.845 326.832 533.237 327.12 532.485 327.12C532.005 327.12 531.625 327.036 531.345 326.868C531.073 326.692 530.849 326.496 530.673 326.28H530.553L530.253 327H528.885V317.88H530.673V320.004ZM531.957 321.756C531.493 321.756 531.165 321.9 530.973 322.188C530.789 322.476 530.689 322.916 530.673 323.508V323.7C530.673 324.332 530.765 324.82 530.949 325.164C531.141 325.5 531.485 325.668 531.981 325.668C532.349 325.668 532.641 325.5 532.857 325.164C533.073 324.82 533.181 324.328 533.181 323.688C533.181 323.048 533.069 322.568 532.845 322.248C532.629 321.92 532.333 321.756 531.957 321.756Z" fill="black"/>
<g clip-path="url(#clip6)">
<path d="M236.393 287.848V275C236.393 272.23 234.164 270 231.394 270H185C182.23 270 180 272.23 180 275V305.892C180 308.662 182.23 310.892 185 310.892H197.3" stroke="black" stroke-width="2" stroke-linecap="round" stroke-linejoin="round"/>
<path d="M198.662 287.506V286.729C198.662 283.959 196.432 281.729 193.662 281.729H180V298.549H191.793" stroke="black" stroke-width="2" stroke-linecap="round" stroke-linejoin="round"/>
<path d="M189.331 294.182C191.564 294.182 193.374 292.372 193.374 290.139C193.374 287.907 191.564 286.097 189.331 286.097C187.099 286.097 185.289 287.907 185.289 290.139C185.289 292.372 187.099 294.182 189.331 294.182Z" stroke="black" stroke-width="2" stroke-linecap="round" stroke-linejoin="round"/>
<path fill-rule="evenodd" clip-rule="evenodd" d="M208.434 311.956L219.238 316.293L229.944 311.72L234.283 300.916L229.71 290.21L218.906 285.872L208.197 290.446L203.86 301.249L208.434 311.956ZM219.248 318.297C219.127 318.297 219.004 318.274 218.89 318.228L207.345 313.593C207.108 313.498 206.918 313.313 206.819 313.077L201.933 301.636C201.832 301.401 201.829 301.137 201.925 300.899L206.56 289.354C206.654 289.117 206.84 288.927 207.075 288.827L218.516 283.942C218.752 283.84 219.017 283.839 219.255 283.934L230.799 288.569C231.036 288.663 231.226 288.849 231.325 289.084L236.211 300.523C236.312 300.759 236.315 301.023 236.219 301.261L231.584 312.807C231.49 313.043 231.305 313.233 231.069 313.332L219.629 318.218C219.506 318.272 219.378 318.297 219.248 318.297V318.297Z" fill="black" stroke="black" stroke-width="0.589302"/>
<path fill-rule="evenodd" clip-rule="evenodd" d="M224.222 293.97V296.166H217.035L221.556 300.9L216.929 305.995H224.222V308.191H213.923V305.995L218.507 300.921L213.944 296.166V293.97H224.222Z" fill="black" stroke="black" stroke-width="0.589302"/>
</g>
<path d="M195.181 332.824C194.485 332.824 193.953 333.084 193.585 333.604C193.217 334.124 193.033 334.836 193.033 335.74C193.033 336.652 193.201 337.36 193.537 337.864C193.881 338.36 194.429 338.608 195.181 338.608C195.533 338.608 195.881 338.568 196.225 338.488C196.577 338.408 196.957 338.296 197.365 338.152V339.676C196.989 339.828 196.617 339.94 196.249 340.012C195.881 340.084 195.469 340.12 195.013 340.12C194.133 340.12 193.405 339.94 192.829 339.58C192.261 339.212 191.841 338.7 191.569 338.044C191.297 337.38 191.161 336.608 191.161 335.728C191.161 334.864 191.317 334.1 191.629 333.436C191.941 332.772 192.393 332.252 192.985 331.876C193.585 331.5 194.317 331.312 195.181 331.312C195.605 331.312 196.029 331.368 196.453 331.48C196.885 331.584 197.297 331.728 197.689 331.912L197.101 333.388C196.781 333.236 196.457 333.104 196.129 332.992C195.809 332.88 195.493 332.824 195.181 332.824ZM200.829 332.74C200.829 333.06 200.817 333.368 200.793 333.664C200.777 333.96 200.761 334.168 200.745 334.288H200.841C201.049 333.952 201.317 333.708 201.645 333.556C201.973 333.404 202.337 333.328 202.737 333.328C203.449 333.328 204.017 333.52 204.441 333.904C204.873 334.28 205.089 334.888 205.089 335.728V340H203.301V336.172C203.301 335.228 202.949 334.756 202.245 334.756C201.709 334.756 201.337 334.944 201.129 335.32C200.929 335.688 200.829 336.22 200.829 336.916V340H199.041V330.88H200.829V332.74ZM209.616 333.316C210.496 333.316 211.168 333.508 211.632 333.892C212.104 334.268 212.34 334.848 212.34 335.632V340H211.092L210.744 339.112H210.696C210.416 339.464 210.12 339.72 209.808 339.88C209.496 340.04 209.068 340.12 208.524 340.12C207.94 340.12 207.456 339.952 207.072 339.616C206.688 339.272 206.496 338.748 206.496 338.044C206.496 337.348 206.74 336.836 207.228 336.508C207.716 336.172 208.448 335.988 209.424 335.956L210.564 335.92V335.632C210.564 335.288 210.472 335.036 210.288 334.876C210.112 334.716 209.864 334.636 209.544 334.636C209.224 334.636 208.912 334.684 208.608 334.78C208.304 334.868 208 334.98 207.696 335.116L207.108 333.904C207.46 333.72 207.848 333.576 208.272 333.472C208.704 333.368 209.152 333.316 209.616 333.316ZM209.868 336.988C209.292 337.004 208.892 337.108 208.668 337.3C208.444 337.492 208.332 337.744 208.332 338.056C208.332 338.328 208.412 338.524 208.572 338.644C208.732 338.756 208.94 338.812 209.196 338.812C209.58 338.812 209.904 338.7 210.168 338.476C210.432 338.244 210.564 337.92 210.564 337.504V336.964L209.868 336.988ZM217.83 333.328C217.918 333.328 218.022 333.332 218.142 333.34C218.262 333.348 218.358 333.36 218.43 333.376L218.298 335.056C218.242 335.04 218.158 335.028 218.046 335.02C217.942 335.004 217.85 334.996 217.77 334.996C217.466 334.996 217.174 335.052 216.894 335.164C216.614 335.268 216.386 335.44 216.21 335.68C216.042 335.92 215.958 336.248 215.958 336.664V340H214.17V333.448H215.526L215.79 334.552H215.874C216.066 334.216 216.33 333.928 216.666 333.688C217.002 333.448 217.39 333.328 217.83 333.328ZM225.337 336.712C225.337 337.8 225.049 338.64 224.473 339.232C223.905 339.824 223.129 340.12 222.145 340.12C221.537 340.12 220.993 339.988 220.513 339.724C220.041 339.46 219.669 339.076 219.397 338.572C219.125 338.06 218.989 337.44 218.989 336.712C218.989 335.624 219.273 334.788 219.841 334.204C220.409 333.62 221.189 333.328 222.181 333.328C222.797 333.328 223.341 333.46 223.813 333.724C224.285 333.988 224.657 334.372 224.929 334.876C225.201 335.372 225.337 335.984 225.337 336.712ZM220.813 336.712C220.813 337.36 220.917 337.852 221.125 338.188C221.341 338.516 221.689 338.68 222.169 338.68C222.641 338.68 222.981 338.516 223.189 338.188C223.405 337.852 223.513 337.36 223.513 336.712C223.513 336.064 223.405 335.58 223.189 335.26C222.981 334.932 222.637 334.768 222.157 334.768C221.685 334.768 221.341 334.932 221.125 335.26C220.917 335.58 220.813 336.064 220.813 336.712ZM228.603 340H226.815V330.88H228.603V340Z" fill="black"/>
<line x1="205.5" y1="270" x2="205.5" y2="230" stroke="black"/>
<line x1="107" y1="66.5" x2="246" y2="66.5" stroke="black"/>
<line x1="262.4" y1="101.3" x2="208.4" y2="173.3" stroke="black"/>
<line x1="523.5" y1="201.991" x2="524.5" y2="255.991" stroke="black"/>
<line x1="294.298" y1="61.5988" x2="372.298" y2="119.599" stroke="black"/>
<line x1="230.842" y1="192.526" x2="371.842" y2="145.526" stroke="black"/>
<line x1="420.181" y1="133.534" x2="500.181" y2="164.534" stroke="black"/>
<path d="M180.127 26H151.504C149.569 26 148 27.7526 148 29.9145V51.0855C148 53.2474 149.569 55 151.504 55H180.127C182.063 55 183.632 53.2474 183.632 51.0855V29.9145C183.632 27.7526 182.063 26 180.127 26Z" fill="white" stroke="black" stroke-linecap="round" stroke-linejoin="round"/>
<path d="M149.324 26.8451L165.716 44.8093" stroke="black" stroke-linecap="round"/>
<path d="M182.254 26.7991L165.716 44.8094" stroke="black" stroke-linecap="round"/>
<path d="M148.934 53.7516L161.312 40.1301" stroke="black"/>
<path d="M182.419 54.0518L169.922 40.1301" stroke="black"/>
<path d="M177.717 28H153.914C152.305 28 151 29.4793 151 31.3042V49.1741C151 50.999 152.305 52.4783 153.914 52.4783H177.717C179.327 52.4783 180.632 50.999 180.632 49.1741V31.3042C180.632 29.4793 179.327 28 177.717 28Z" fill="white" stroke="black" stroke-linecap="round" stroke-linejoin="round"/>
<path d="M152.101 28.7133L165.733 43.8766" stroke="black" stroke-linecap="round"/>
<path d="M179.486 28.6745L165.733 43.8766" stroke="black" stroke-linecap="round"/>
<path d="M151.777 51.4246L162.071 39.9269" stroke="black"/>
<path d="M179.623 51.6779L169.23 39.9269" stroke="black"/>
<path d="M174.738 31H156.262C155.013 31 154 32.1482 154 33.5647V47.4353C154 48.8518 155.013 50 156.262 50H174.738C175.987 50 177 48.8518 177 47.4353V33.5647C177 32.1482 175.987 31 174.738 31Z" fill="white" stroke="black" stroke-linecap="round" stroke-linejoin="round"/>
<path d="M154.855 31.5537L165.436 43.3233" stroke="black" stroke-linecap="round"/>
<path d="M176.111 31.5235L165.436 43.3234" stroke="black" stroke-linecap="round"/>
<path d="M154.603 49.1821L162.593 40.2576" stroke="black"/>
<path d="M176.217 49.3788L168.151 40.2576" stroke="black"/>
<path d="M172.615 34H158.703C157.763 34 157 34.8027 157 35.793V45.4899C157 46.4801 157.763 47.2828 158.703 47.2828H172.615C173.556 47.2828 174.319 46.4801 174.319 45.4899V35.793C174.319 34.8027 173.556 34 172.615 34Z" fill="white" stroke="black" stroke-linecap="round" stroke-linejoin="round"/>
<path d="M157.644 34.3871L165.611 42.6152" stroke="black" stroke-linecap="round"/>
<path d="M173.649 34.366L165.611 42.6152" stroke="black" stroke-linecap="round"/>
<path d="M157.454 46.711L163.47 40.472" stroke="black"/>
<path d="M173.729 46.8485L167.655 40.472" stroke="black"/>
<path d="M214 41L209 38.1132V43.8868L214 41ZM189 41.5H209.5V40.5H189V41.5Z" fill="black"/>
<path d="M348.717 53H324.914C323.305 53 322 54.4793 322 56.3042V74.1741C322 75.999 323.305 77.4783 324.914 77.4783H348.717C350.327 77.4783 351.632 75.999 351.632 74.1741V56.3042C351.632 54.4793 350.327 53 348.717 53Z" fill="white" stroke="black" stroke-linecap="round" stroke-linejoin="round"/>
<path d="M323.101 53.7133L336.733 68.8766" stroke="black" stroke-linecap="round"/>
<path d="M350.486 53.6745L336.733 68.8766" stroke="black" stroke-linecap="round"/>
<path d="M322.777 76.4246L333.071 64.9269" stroke="black"/>
<path d="M350.623 76.6779L340.23 64.9269" stroke="black"/>
<path d="M345.738 56H327.262C326.013 56 325 57.1482 325 58.5647V72.4353C325 73.8518 326.013 75 327.262 75H345.738C346.987 75 348 73.8518 348 72.4353V58.5647C348 57.1482 346.987 56 345.738 56Z" fill="white" stroke="black" stroke-linecap="round" stroke-linejoin="round"/>
<path d="M325.855 56.5537L336.436 68.3233" stroke="black" stroke-linecap="round"/>
<path d="M347.111 56.5235L336.436 68.3234" stroke="black" stroke-linecap="round"/>
<path d="M325.603 74.1821L333.593 65.2576" stroke="black"/>
<path d="M347.217 74.3788L339.151 65.2576" stroke="black"/>
<path d="M343.615 59H329.703C328.763 59 328 59.8027 328 60.793V70.4899C328 71.4801 328.763 72.2828 329.703 72.2828H343.615C344.556 72.2828 345.319 71.4801 345.319 70.4899V60.793C345.319 59.8027 344.556 59 343.615 59Z" fill="white" stroke="black" stroke-linecap="round" stroke-linejoin="round"/>
<path d="M328.644 59.3871L336.611 67.6152" stroke="black" stroke-linecap="round"/>
<path d="M344.649 59.366L336.611 67.6152" stroke="black" stroke-linecap="round"/>
<path d="M328.454 71.711L334.47 65.472" stroke="black"/>
<path d="M344.729 71.8485L338.655 65.472" stroke="black"/>
<path d="M375 86L373.229 80.5048L369.356 84.7861L375 86ZM353.665 67.3708L371.328 83.3517L371.999 82.6101L354.335 66.6292L353.665 67.3708Z" fill="black"/>
<path d="M461.738 119H443.262C442.013 119 441 120.148 441 121.565V135.435C441 136.852 442.013 138 443.262 138H461.738C462.987 138 464 136.852 464 135.435V121.565C464 120.148 462.987 119 461.738 119Z" fill="white" stroke="black" stroke-linecap="round" stroke-linejoin="round"/>
<path d="M441.855 119.554L452.436 131.323" stroke="black" stroke-linecap="round"/>
<path d="M463.111 119.524L452.436 131.323" stroke="black" stroke-linecap="round"/>
<path d="M441.603 137.182L449.593 128.258" stroke="black"/>
<path d="M463.217 137.379L455.151 128.258" stroke="black"/>
<path d="M459.615 122H445.703C444.763 122 444 122.803 444 123.793V133.49C444 134.48 444.763 135.283 445.703 135.283H459.615C460.556 135.283 461.319 134.48 461.319 133.49V123.793C461.319 122.803 460.556 122 459.615 122Z" fill="white" stroke="black" stroke-linecap="round" stroke-linejoin="round"/>
<path d="M444.644 122.387L452.611 130.615" stroke="black" stroke-linecap="round"/>
<path d="M460.649 122.366L452.611 130.615" stroke="black" stroke-linecap="round"/>
<path d="M444.454 134.711L450.47 128.472" stroke="black"/>
<path d="M460.729 134.849L454.655 128.472" stroke="black"/>
<path d="M489 139L485.566 134.359L483.264 139.654L489 139ZM465.801 129.459L484.674 137.664L485.073 136.747L466.199 128.541L465.801 129.459Z" fill="black"/>
<path d="M551.615 213H537.703C536.763 213 536 213.803 536 214.793V224.49C536 225.48 536.763 226.283 537.703 226.283H551.615C552.556 226.283 553.319 225.48 553.319 224.49V214.793C553.319 213.803 552.556 213 551.615 213Z" fill="white" stroke="black" stroke-linecap="round" stroke-linejoin="round"/>
<path d="M536.644 213.387L544.611 221.615" stroke="black" stroke-linecap="round"/>
<path d="M552.649 213.366L544.611 221.615" stroke="black" stroke-linecap="round"/>
<path d="M536.454 225.711L542.47 219.472" stroke="black"/>
<path d="M552.729 225.849L546.655 219.472" stroke="black"/>
<path d="M545 250L547.887 245H542.113L545 250ZM544.5 233V245.5H545.5V233H544.5Z" fill="black"/>
<defs>
<clipPath id="clip0">
<rect width="49.3067" height="40.4868" fill="white" transform="translate(246 42)"/>
</clipPath>
<clipPath id="clip1">
<rect width="49.3067" height="40.4868" fill="white" transform="translate(183 173)"/>
</clipPath>
<clipPath id="clip2">
<rect width="49.3067" height="40.4868" fill="white" transform="translate(372 113)"/>
</clipPath>
<clipPath id="clip3">
<rect width="49.3067" height="40.4868" fill="white" transform="translate(499 145)"/>
</clipPath>
<clipPath id="clip4">
<rect width="58.3936" height="49.5916" fill="white" transform="translate(47 42)"/>
</clipPath>
<clipPath id="clip5">
<rect width="58.3936" height="49.5916" fill="white" transform="translate(493 256)"/>
</clipPath>
<clipPath id="clip6">
<rect width="58.3936" height="49.5916" fill="white" transform="translate(179 269)"/>
</clipPath>
</defs>
</svg>
