<svg width="447" height="228" viewBox="0 0 447 228" fill="none" xmlns="http://www.w3.org/2000/svg">
<rect width="447" height="228" fill="white"/>
<g clip-path="url(#clip0)">
<path d="M111.393 32.848V19.9997C111.393 17.2297 109.164 15 106.394 15H59.9997C57.2297 15 55 17.2297 55 19.9997V50.8919C55 53.6619 57.2297 55.8921 59.9997 55.8921H72.3002" stroke="black" stroke-width="2" stroke-linecap="round" stroke-linejoin="round"/>
<path d="M73.6624 32.5059V31.7292C73.6624 28.9592 71.4322 26.729 68.6622 26.729H55V43.5492H66.7926" stroke="black" stroke-width="2" stroke-linecap="round" stroke-linejoin="round"/>
<path d="M64.3313 39.1816C66.5639 39.1816 68.3737 37.3717 68.3737 35.1391C68.3737 32.9065 66.5639 31.0967 64.3313 31.0967C62.0987 31.0967 60.2888 32.9065 60.2888 35.1391C60.2888 37.3717 62.0987 39.1816 64.3313 39.1816Z" stroke="black" stroke-width="2" stroke-linecap="round" stroke-linejoin="round"/>
<path fill-rule="evenodd" clip-rule="evenodd" d="M83.4337 56.9559L94.2377 61.2929L104.944 56.7204L109.283 45.9163L104.71 35.2099L93.906 30.8722L83.1968 35.4461L78.8597 46.2494L83.4337 56.9559ZM94.2483 63.297C94.1267 63.297 94.0036 63.2736 93.8898 63.2277L82.3446 58.5929C82.1077 58.4982 81.9175 58.3129 81.8192 58.0774L76.9327 46.6362C76.8316 46.4007 76.8288 46.137 76.9249 45.8987L81.5597 34.3535C81.6545 34.1166 81.8397 33.9271 82.0752 33.8274L93.5164 28.9416C93.7519 28.8405 94.0171 28.8391 94.2547 28.9338L105.799 33.5686C106.036 33.6633 106.226 33.8486 106.325 34.0841L111.211 45.5232C111.312 45.7594 111.315 46.0231 111.219 46.2614L106.584 57.8066C106.49 58.0435 106.305 58.233 106.069 58.332L94.6288 63.2185C94.5057 63.2722 94.3777 63.297 94.2483 63.297V63.297Z" fill="black" stroke="black" stroke-width="0.589302"/>
<path fill-rule="evenodd" clip-rule="evenodd" d="M99.2215 38.9701V41.1658H92.0353L96.5562 45.8996L91.9292 50.9954H99.2215V53.1911H88.9231V50.9954L93.5069 45.9208L88.9436 41.1658V38.9701H99.2215Z" fill="black" stroke="black" stroke-width="0.589302"/>
</g>
<path d="M75.3982 85L74.7742 82.96H71.6542L71.0302 85H69.0742L72.0982 76.396H74.3182L77.3542 85H75.3982ZM73.7182 79.444C73.6782 79.308 73.6262 79.136 73.5622 78.928C73.4982 78.72 73.4342 78.508 73.3702 78.292C73.3062 78.076 73.2542 77.888 73.2142 77.728C73.1742 77.888 73.1182 78.088 73.0462 78.328C72.9822 78.56 72.9182 78.784 72.8542 79C72.7982 79.208 72.7542 79.356 72.7222 79.444L72.1102 81.436H74.3422L73.7182 79.444ZM80.0834 85H78.2954V75.88H80.0834V85ZM82.8516 75.88C83.1156 75.88 83.3436 75.944 83.5356 76.072C83.7276 76.192 83.8236 76.42 83.8236 76.756C83.8236 77.084 83.7276 77.312 83.5356 77.44C83.3436 77.568 83.1156 77.632 82.8516 77.632C82.5796 77.632 82.3476 77.568 82.1556 77.44C81.9716 77.312 81.8796 77.084 81.8796 76.756C81.8796 76.42 81.9716 76.192 82.1556 76.072C82.3476 75.944 82.5796 75.88 82.8516 75.88ZM83.7396 78.448V85H81.9516V78.448H83.7396ZM88.2719 85.12C87.2959 85.12 86.5399 84.852 86.0039 84.316C85.4759 83.772 85.2119 82.92 85.2119 81.76C85.2119 80.96 85.3479 80.308 85.6199 79.804C85.8919 79.3 86.2679 78.928 86.7479 78.688C87.2359 78.448 87.7959 78.328 88.4279 78.328C88.8759 78.328 89.2639 78.372 89.5919 78.46C89.9279 78.548 90.2199 78.652 90.4679 78.772L89.9399 80.152C89.6599 80.04 89.3959 79.948 89.1479 79.876C88.9079 79.804 88.6679 79.768 88.4279 79.768C87.4999 79.768 87.0359 80.428 87.0359 81.748C87.0359 82.404 87.1559 82.888 87.3959 83.2C87.6439 83.512 87.9879 83.668 88.4279 83.668C88.8039 83.668 89.1359 83.62 89.4239 83.524C89.7119 83.42 89.9919 83.28 90.2639 83.104V84.628C89.9919 84.804 89.7039 84.928 89.3999 85C89.1039 85.08 88.7279 85.12 88.2719 85.12ZM94.4719 78.328C95.3759 78.328 96.0919 78.588 96.6199 79.108C97.1479 79.62 97.4119 80.352 97.4119 81.304V82.168H93.1879C93.2039 82.672 93.3519 83.068 93.6319 83.356C93.9199 83.644 94.3159 83.788 94.8199 83.788C95.2439 83.788 95.6279 83.748 95.9719 83.668C96.3159 83.58 96.6719 83.448 97.0399 83.272V84.652C96.7199 84.812 96.3799 84.928 96.0199 85C95.6679 85.08 95.2399 85.12 94.7359 85.12C94.0799 85.12 93.4999 85 92.9959 84.76C92.4919 84.512 92.0959 84.14 91.8079 83.644C91.5199 83.148 91.3759 82.524 91.3759 81.772C91.3759 81.004 91.5039 80.368 91.7599 79.864C92.0239 79.352 92.3879 78.968 92.8519 78.712C93.3159 78.456 93.8559 78.328 94.4719 78.328ZM94.4839 79.6C94.1399 79.6 93.8519 79.712 93.6199 79.936C93.3959 80.16 93.2639 80.508 93.2239 80.98H95.7319C95.7239 80.58 95.6199 80.252 95.4199 79.996C95.2199 79.732 94.9079 79.6 94.4839 79.6Z" fill="black"/>
<g clip-path="url(#clip1)">
<path d="M405.307 23H362C360.895 23 360 23.8954 360 25V33.8289C360 34.9335 360.895 35.8289 362 35.8289H405.307C406.411 35.8289 407.307 34.9335 407.307 33.8289V25C407.307 23.8954 406.411 23 405.307 23Z" stroke="black" stroke-width="2" stroke-linecap="round" stroke-linejoin="round"/>
<path d="M405.307 35.8289H362C360.895 35.8289 360 36.7244 360 37.8289V46.6579C360 47.7625 360.895 48.6579 362 48.6579H405.307C406.411 48.6579 407.307 47.7625 407.307 46.6579V37.8289C407.307 36.7244 406.411 35.8289 405.307 35.8289Z" stroke="black" stroke-width="2" stroke-linecap="round" stroke-linejoin="round"/>
<path d="M405.307 48.6579H362C360.895 48.6579 360 49.5533 360 50.6579V59.4868C360 60.5914 360.895 61.4868 362 61.4868H405.307C406.411 61.4868 407.307 60.5914 407.307 59.4868V50.6579C407.307 49.5533 406.411 48.6579 405.307 48.6579Z" stroke="black" stroke-width="2" stroke-linecap="round" stroke-linejoin="round"/>
<path d="M367.425 28.0146H364.592V30.8143H367.425V28.0146Z" fill="black" stroke="black" stroke-width="0.49296" stroke-linecap="round" stroke-linejoin="round"/>
<path d="M367.425 40.8435H364.592V43.6433H367.425V40.8435Z" fill="black" stroke="black" stroke-width="0.49296" stroke-linecap="round" stroke-linejoin="round"/>
<path d="M367.425 53.6725H364.592V56.4722H367.425V53.6725Z" fill="black" stroke="black" stroke-width="0.49296" stroke-linecap="round" stroke-linejoin="round"/>
<path d="M374.78 28.0146H371.947V30.8143H374.78V28.0146Z" fill="black" stroke="black" stroke-width="0.49296" stroke-linecap="round" stroke-linejoin="round"/>
<path d="M374.78 40.8435H371.947V43.6433H374.78V40.8435Z" fill="black" stroke="black" stroke-width="0.49296" stroke-linecap="round" stroke-linejoin="round"/>
<path d="M374.78 53.6725H371.947V56.4722H374.78V53.6725Z" fill="black" stroke="black" stroke-width="0.49296" stroke-linecap="round" stroke-linejoin="round"/>
</g>
<path d="M365.663 85H361.763V83.968L362.807 83.488V77.944L361.763 77.464V76.432H365.663V77.464L364.619 77.944V83.488L365.663 83.968V85ZM370.699 78.328C371.403 78.328 371.967 78.52 372.391 78.904C372.815 79.28 373.027 79.888 373.027 80.728V85H371.239V81.172C371.239 80.7 371.155 80.348 370.987 80.116C370.819 79.876 370.551 79.756 370.183 79.756C369.639 79.756 369.267 79.944 369.067 80.32C368.867 80.688 368.767 81.22 368.767 81.916V85H366.979V78.448H368.347L368.587 79.288H368.683C368.891 78.952 369.175 78.708 369.535 78.556C369.903 78.404 370.291 78.328 370.699 78.328ZM376.942 85.12C376.214 85.12 375.618 84.836 375.154 84.268C374.698 83.692 374.47 82.848 374.47 81.736C374.47 80.616 374.702 79.768 375.166 79.192C375.63 78.616 376.238 78.328 376.99 78.328C377.462 78.328 377.85 78.42 378.154 78.604C378.458 78.788 378.698 79.016 378.874 79.288H378.934C378.91 79.16 378.882 78.976 378.85 78.736C378.818 78.488 378.802 78.236 378.802 77.98V75.88H380.59V85H379.222L378.874 84.148H378.802C378.626 84.42 378.39 84.652 378.094 84.844C377.798 85.028 377.414 85.12 376.942 85.12ZM377.566 83.692C378.062 83.692 378.41 83.548 378.61 83.26C378.81 82.964 378.914 82.524 378.922 81.94V81.748C378.922 81.108 378.822 80.62 378.622 80.284C378.43 79.948 378.07 79.78 377.542 79.78C377.15 79.78 376.842 79.952 376.618 80.296C376.394 80.632 376.282 81.12 376.282 81.76C376.282 82.4 376.394 82.884 376.618 83.212C376.842 83.532 377.158 83.692 377.566 83.692ZM385.159 78.328C386.063 78.328 386.779 78.588 387.307 79.108C387.835 79.62 388.099 80.352 388.099 81.304V82.168H383.875C383.891 82.672 384.039 83.068 384.319 83.356C384.607 83.644 385.003 83.788 385.507 83.788C385.931 83.788 386.315 83.748 386.659 83.668C387.003 83.58 387.359 83.448 387.727 83.272V84.652C387.407 84.812 387.067 84.928 386.707 85C386.355 85.08 385.927 85.12 385.423 85.12C384.767 85.12 384.187 85 383.683 84.76C383.179 84.512 382.783 84.14 382.495 83.644C382.207 83.148 382.063 82.524 382.063 81.772C382.063 81.004 382.191 80.368 382.447 79.864C382.711 79.352 383.075 78.968 383.539 78.712C384.003 78.456 384.543 78.328 385.159 78.328ZM385.171 79.6C384.827 79.6 384.539 79.712 384.307 79.936C384.083 80.16 383.951 80.508 383.911 80.98H386.419C386.411 80.58 386.307 80.252 386.107 79.996C385.907 79.732 385.595 79.6 385.171 79.6ZM390.659 81.652L388.547 78.448H390.575L391.847 80.536L393.131 78.448H395.159L393.023 81.652L395.255 85H393.227L391.847 82.756L390.467 85H388.439L390.659 81.652ZM398.718 78.328C399.622 78.328 400.338 78.588 400.866 79.108C401.394 79.62 401.658 80.352 401.658 81.304V82.168H397.434C397.45 82.672 397.598 83.068 397.878 83.356C398.166 83.644 398.562 83.788 399.066 83.788C399.49 83.788 399.874 83.748 400.218 83.668C400.562 83.58 400.918 83.448 401.286 83.272V84.652C400.966 84.812 400.626 84.928 400.266 85C399.914 85.08 399.486 85.12 398.982 85.12C398.326 85.12 397.746 85 397.242 84.76C396.738 84.512 396.342 84.14 396.054 83.644C395.766 83.148 395.622 82.524 395.622 81.772C395.622 81.004 395.75 80.368 396.006 79.864C396.27 79.352 396.634 78.968 397.098 78.712C397.562 78.456 398.102 78.328 398.718 78.328ZM398.73 79.6C398.386 79.6 398.098 79.712 397.866 79.936C397.642 80.16 397.51 80.508 397.47 80.98H399.978C399.97 80.58 399.866 80.252 399.666 79.996C399.466 79.732 399.154 79.6 398.73 79.6ZM406.768 78.328C406.856 78.328 406.96 78.332 407.08 78.34C407.2 78.348 407.296 78.36 407.368 78.376L407.236 80.056C407.18 80.04 407.096 80.028 406.984 80.02C406.88 80.004 406.788 79.996 406.708 79.996C406.404 79.996 406.112 80.052 405.832 80.164C405.552 80.268 405.324 80.44 405.148 80.68C404.98 80.92 404.896 81.248 404.896 81.664V85H403.108V78.448H404.464L404.728 79.552H404.812C405.004 79.216 405.268 78.928 405.604 78.688C405.94 78.448 406.328 78.328 406.768 78.328Z" fill="black"/>
<line x1="83.5" y1="96" x2="83.5" y2="203" stroke="black"/>
<line x1="384.5" y1="96" x2="384.5" y2="203" stroke="black"/>
<path d="M375.37 138.903C375.59 138.735 375.633 138.422 375.466 138.202L372.742 134.62C372.575 134.4 372.261 134.357 372.041 134.524C371.822 134.691 371.779 135.005 371.946 135.225L374.367 138.409L371.183 140.83C370.963 140.997 370.92 141.311 371.087 141.531C371.254 141.75 371.568 141.793 371.788 141.626L375.37 138.903ZM96 101L375 139L375.135 138.009L96.135 100.009L96 101Z" fill="black"/>
<path d="M188.163 101.704C188.163 102.592 188.015 103.368 187.719 104.032C187.431 104.688 186.987 105.2 186.387 105.568C185.787 105.936 185.019 106.12 184.083 106.12C183.155 106.12 182.387 105.936 181.779 105.568C181.179 105.2 180.731 104.684 180.435 104.02C180.147 103.356 180.003 102.58 180.003 101.692C180.003 100.804 180.147 100.032 180.435 99.376C180.731 98.72 181.179 98.212 181.779 97.852C182.387 97.484 183.159 97.3 184.095 97.3C185.023 97.3 185.787 97.484 186.387 97.852C186.987 98.212 187.431 98.724 187.719 99.388C188.015 100.044 188.163 100.816 188.163 101.704ZM181.911 101.704C181.911 102.6 182.083 103.308 182.427 103.828C182.771 104.34 183.323 104.596 184.083 104.596C184.859 104.596 185.415 104.34 185.751 103.828C186.087 103.308 186.255 102.6 186.255 101.704C186.255 100.8 186.087 100.092 185.751 99.58C185.415 99.068 184.863 98.812 184.095 98.812C183.327 98.812 182.771 99.068 182.427 99.58C182.083 100.092 181.911 100.8 181.911 101.704ZM193.453 99.328C193.541 99.328 193.645 99.332 193.765 99.34C193.885 99.348 193.981 99.36 194.053 99.376L193.921 101.056C193.865 101.04 193.781 101.028 193.669 101.02C193.565 101.004 193.473 100.996 193.393 100.996C193.089 100.996 192.797 101.052 192.517 101.164C192.237 101.268 192.009 101.44 191.833 101.68C191.665 101.92 191.581 102.248 191.581 102.664V106H189.793V99.448H191.149L191.413 100.552H191.497C191.689 100.216 191.953 99.928 192.289 99.688C192.625 99.448 193.013 99.328 193.453 99.328ZM197.084 106.12C196.356 106.12 195.76 105.836 195.296 105.268C194.84 104.692 194.612 103.848 194.612 102.736C194.612 101.616 194.844 100.768 195.308 100.192C195.772 99.616 196.38 99.328 197.132 99.328C197.604 99.328 197.992 99.42 198.296 99.604C198.6 99.788 198.84 100.016 199.016 100.288H199.076C199.052 100.16 199.024 99.976 198.992 99.736C198.96 99.488 198.944 99.236 198.944 98.98V96.88H200.732V106H199.364L199.016 105.148H198.944C198.768 105.42 198.532 105.652 198.236 105.844C197.94 106.028 197.556 106.12 197.084 106.12ZM197.708 104.692C198.204 104.692 198.552 104.548 198.752 104.26C198.952 103.964 199.056 103.524 199.064 102.94V102.748C199.064 102.108 198.964 101.62 198.764 101.284C198.572 100.948 198.212 100.78 197.684 100.78C197.292 100.78 196.984 100.952 196.76 101.296C196.536 101.632 196.424 102.12 196.424 102.76C196.424 103.4 196.536 103.884 196.76 104.212C196.984 104.532 197.3 104.692 197.708 104.692ZM205.302 99.328C206.206 99.328 206.922 99.588 207.45 100.108C207.978 100.62 208.242 101.352 208.242 102.304V103.168H204.018C204.034 103.672 204.182 104.068 204.462 104.356C204.75 104.644 205.146 104.788 205.65 104.788C206.074 104.788 206.458 104.748 206.802 104.668C207.146 104.58 207.502 104.448 207.87 104.272V105.652C207.55 105.812 207.21 105.928 206.85 106C206.498 106.08 206.07 106.12 205.566 106.12C204.91 106.12 204.33 106 203.826 105.76C203.322 105.512 202.926 105.14 202.638 104.644C202.35 104.148 202.206 103.524 202.206 102.772C202.206 102.004 202.334 101.368 202.59 100.864C202.854 100.352 203.218 99.968 203.682 99.712C204.146 99.456 204.686 99.328 205.302 99.328ZM205.314 100.6C204.97 100.6 204.682 100.712 204.45 100.936C204.226 101.16 204.094 101.508 204.054 101.98H206.562C206.554 101.58 206.45 101.252 206.25 100.996C206.05 100.732 205.738 100.6 205.314 100.6ZM213.352 99.328C213.44 99.328 213.544 99.332 213.664 99.34C213.784 99.348 213.88 99.36 213.952 99.376L213.82 101.056C213.764 101.04 213.68 101.028 213.568 101.02C213.464 101.004 213.372 100.996 213.292 100.996C212.988 100.996 212.696 101.052 212.416 101.164C212.136 101.268 211.908 101.44 211.732 101.68C211.564 101.92 211.48 102.248 211.48 102.664V106H209.692V99.448H211.048L211.312 100.552H211.396C211.588 100.216 211.852 99.928 212.188 99.688C212.524 99.448 212.912 99.328 213.352 99.328ZM219.158 96.88C219.422 96.88 219.65 96.944 219.842 97.072C220.034 97.192 220.13 97.42 220.13 97.756C220.13 98.084 220.034 98.312 219.842 98.44C219.65 98.568 219.422 98.632 219.158 98.632C218.886 98.632 218.654 98.568 218.462 98.44C218.278 98.312 218.186 98.084 218.186 97.756C218.186 97.42 218.278 97.192 218.462 97.072C218.654 96.944 218.886 96.88 219.158 96.88ZM220.046 99.448V106H218.258V99.448H220.046ZM223.991 106.12C223.263 106.12 222.667 105.836 222.203 105.268C221.747 104.692 221.519 103.848 221.519 102.736C221.519 101.616 221.751 100.768 222.215 100.192C222.679 99.616 223.287 99.328 224.039 99.328C224.511 99.328 224.899 99.42 225.203 99.604C225.507 99.788 225.747 100.016 225.923 100.288H225.983C225.959 100.16 225.931 99.976 225.899 99.736C225.867 99.488 225.851 99.236 225.851 98.98V96.88H227.639V106H226.271L225.923 105.148H225.851C225.675 105.42 225.439 105.652 225.143 105.844C224.847 106.028 224.463 106.12 223.991 106.12ZM224.615 104.692C225.111 104.692 225.459 104.548 225.659 104.26C225.859 103.964 225.963 103.524 225.971 102.94V102.748C225.971 102.108 225.871 101.62 225.671 101.284C225.479 100.948 225.119 100.78 224.591 100.78C224.199 100.78 223.891 100.952 223.667 101.296C223.443 101.632 223.331 102.12 223.331 102.76C223.331 103.4 223.443 103.884 223.667 104.212C223.891 104.532 224.207 104.692 224.615 104.692ZM235.757 101.128H238.025V102.412H235.757V104.668H234.473V102.412H232.205V101.128H234.473V98.848H235.757V101.128ZM246.258 99.328C246.994 99.328 247.59 99.616 248.046 100.192C248.502 100.76 248.73 101.6 248.73 102.712C248.73 103.824 248.494 104.672 248.022 105.256C247.55 105.832 246.946 106.12 246.21 106.12C245.738 106.12 245.362 106.036 245.082 105.868C244.802 105.692 244.574 105.496 244.398 105.28H244.302C244.366 105.616 244.398 105.936 244.398 106.24V108.88H242.61V99.448H244.062L244.314 100.3H244.398C244.574 100.036 244.81 99.808 245.106 99.616C245.402 99.424 245.786 99.328 246.258 99.328ZM245.682 100.756C245.218 100.756 244.89 100.9 244.698 101.188C244.514 101.476 244.414 101.916 244.398 102.508V102.7C244.398 103.332 244.49 103.82 244.674 104.164C244.866 104.5 245.21 104.668 245.706 104.668C246.114 104.668 246.414 104.5 246.606 104.164C246.806 103.82 246.906 103.328 246.906 102.688C246.906 101.4 246.498 100.756 245.682 100.756ZM251.992 100.96C251.992 101.208 251.98 101.456 251.956 101.704C251.94 101.944 251.92 102.188 251.896 102.436H251.92C252.04 102.268 252.164 102.1 252.292 101.932C252.42 101.756 252.556 101.592 252.7 101.44L254.536 99.448H256.552L253.948 102.292L256.708 106H254.644L252.76 103.348L251.992 103.96V106H250.204V96.88H251.992V100.96ZM257.189 102.712C257.189 101.736 257.329 100.796 257.609 99.892C257.897 98.98 258.345 98.16 258.953 97.432H260.417C259.873 98.184 259.457 99.012 259.169 99.916C258.889 100.82 258.749 101.748 258.749 102.7C258.749 103.628 258.889 104.544 259.169 105.448C259.457 106.344 259.869 107.16 260.405 107.896H258.953C258.345 107.192 257.897 106.396 257.609 105.508C257.329 104.612 257.189 103.68 257.189 102.712ZM267.099 106L266.475 103.96H263.355L262.731 106H260.775L263.799 97.396H266.019L269.055 106H267.099ZM265.419 100.444C265.379 100.308 265.327 100.136 265.263 99.928C265.199 99.72 265.135 99.508 265.071 99.292C265.007 99.076 264.955 98.888 264.915 98.728C264.875 98.888 264.819 99.088 264.747 99.328C264.683 99.56 264.619 99.784 264.555 100C264.499 100.208 264.455 100.356 264.423 100.444L263.811 102.436H266.043L265.419 100.444ZM271.785 106H269.997V96.88H271.785V106ZM274.553 96.88C274.817 96.88 275.045 96.944 275.237 97.072C275.429 97.192 275.525 97.42 275.525 97.756C275.525 98.084 275.429 98.312 275.237 98.44C275.045 98.568 274.817 98.632 274.553 98.632C274.281 98.632 274.049 98.568 273.857 98.44C273.673 98.312 273.581 98.084 273.581 97.756C273.581 97.42 273.673 97.192 273.857 97.072C274.049 96.944 274.281 96.88 274.553 96.88ZM275.441 99.448V106H273.653V99.448H275.441ZM279.973 106.12C278.997 106.12 278.241 105.852 277.705 105.316C277.177 104.772 276.913 103.92 276.913 102.76C276.913 101.96 277.049 101.308 277.321 100.804C277.593 100.3 277.969 99.928 278.449 99.688C278.937 99.448 279.497 99.328 280.129 99.328C280.577 99.328 280.965 99.372 281.293 99.46C281.629 99.548 281.921 99.652 282.169 99.772L281.641 101.152C281.361 101.04 281.097 100.948 280.849 100.876C280.609 100.804 280.369 100.768 280.129 100.768C279.201 100.768 278.737 101.428 278.737 102.748C278.737 103.404 278.857 103.888 279.097 104.2C279.345 104.512 279.689 104.668 280.129 104.668C280.505 104.668 280.837 104.62 281.125 104.524C281.413 104.42 281.693 104.28 281.965 104.104V105.628C281.693 105.804 281.405 105.928 281.101 106C280.805 106.08 280.429 106.12 279.973 106.12ZM286.173 99.328C287.077 99.328 287.793 99.588 288.321 100.108C288.849 100.62 289.113 101.352 289.113 102.304V103.168H284.889C284.905 103.672 285.053 104.068 285.333 104.356C285.621 104.644 286.017 104.788 286.521 104.788C286.945 104.788 287.329 104.748 287.673 104.668C288.017 104.58 288.373 104.448 288.741 104.272V105.652C288.421 105.812 288.081 105.928 287.721 106C287.369 106.08 286.941 106.12 286.437 106.12C285.781 106.12 285.201 106 284.697 105.76C284.193 105.512 283.797 105.14 283.509 104.644C283.221 104.148 283.077 103.524 283.077 102.772C283.077 102.004 283.205 101.368 283.461 100.864C283.725 100.352 284.089 99.968 284.553 99.712C285.017 99.456 285.557 99.328 286.173 99.328ZM286.185 100.6C285.841 100.6 285.553 100.712 285.321 100.936C285.097 101.16 284.965 101.508 284.925 101.98H287.433C287.425 101.58 287.321 101.252 287.121 100.996C286.921 100.732 286.609 100.6 286.185 100.6ZM293.215 102.712C293.215 103.68 293.071 104.612 292.783 105.508C292.503 106.396 292.059 107.192 291.451 107.896H289.999C290.543 107.16 290.955 106.344 291.235 105.448C291.515 104.544 291.655 103.628 291.655 102.7C291.655 101.748 291.511 100.82 291.223 99.916C290.943 99.012 290.531 98.184 289.987 97.432H291.451C292.059 98.16 292.503 98.98 292.783 99.892C293.071 100.796 293.215 101.736 293.215 102.712Z" fill="black"/>
<path d="M95.6661 187.187C95.4951 187.404 95.5323 187.718 95.7492 187.889L99.2829 190.675C99.4997 190.846 99.8141 190.809 99.9851 190.592C100.156 190.375 100.119 190.061 99.902 189.89L96.7609 187.413L99.2376 184.272C99.4085 184.056 99.3713 183.741 99.1545 183.57C98.9377 183.399 98.6233 183.436 98.4523 183.653L95.6661 187.187ZM375 154L96 187L96.1175 187.993L375.117 154.993L375 154Z" fill="black"/>
<path d="M190.256 146H185.324V137.432H190.256V138.92H187.136V140.804H190.04V142.292H187.136V144.5H190.256V146ZM195.615 139.328C196.319 139.328 196.883 139.52 197.307 139.904C197.731 140.28 197.943 140.888 197.943 141.728V146H196.155V142.172C196.155 141.7 196.071 141.348 195.903 141.116C195.735 140.876 195.467 140.756 195.099 140.756C194.555 140.756 194.183 140.944 193.983 141.32C193.783 141.688 193.683 142.22 193.683 142.916V146H191.895V139.448H193.263L193.503 140.288H193.599C193.807 139.952 194.091 139.708 194.451 139.556C194.819 139.404 195.207 139.328 195.615 139.328ZM202.446 146.12C201.47 146.12 200.714 145.852 200.178 145.316C199.65 144.772 199.386 143.92 199.386 142.76C199.386 141.96 199.522 141.308 199.794 140.804C200.066 140.3 200.442 139.928 200.922 139.688C201.41 139.448 201.97 139.328 202.602 139.328C203.05 139.328 203.438 139.372 203.766 139.46C204.102 139.548 204.394 139.652 204.642 139.772L204.114 141.152C203.834 141.04 203.57 140.948 203.322 140.876C203.082 140.804 202.842 140.768 202.602 140.768C201.674 140.768 201.21 141.428 201.21 142.748C201.21 143.404 201.33 143.888 201.57 144.2C201.818 144.512 202.162 144.668 202.602 144.668C202.978 144.668 203.31 144.62 203.598 144.524C203.886 144.42 204.166 144.28 204.438 144.104V145.628C204.166 145.804 203.878 145.928 203.574 146C203.278 146.08 202.902 146.12 202.446 146.12ZM209.606 139.328C209.694 139.328 209.798 139.332 209.918 139.34C210.038 139.348 210.134 139.36 210.206 139.376L210.074 141.056C210.018 141.04 209.934 141.028 209.822 141.02C209.718 141.004 209.626 140.996 209.546 140.996C209.242 140.996 208.95 141.052 208.67 141.164C208.39 141.268 208.162 141.44 207.986 141.68C207.818 141.92 207.734 142.248 207.734 142.664V146H205.946V139.448H207.302L207.566 140.552H207.65C207.842 140.216 208.106 139.928 208.442 139.688C208.778 139.448 209.166 139.328 209.606 139.328ZM210.459 139.448H212.415L213.651 143.132C213.715 143.308 213.763 143.492 213.795 143.684C213.827 143.868 213.851 144.064 213.867 144.272H213.903C213.927 144.064 213.959 143.868 213.999 143.684C214.047 143.492 214.099 143.308 214.155 143.132L215.367 139.448H217.287L214.515 146.84C214.267 147.52 213.903 148.028 213.423 148.364C212.951 148.708 212.403 148.88 211.779 148.88C211.579 148.88 211.403 148.868 211.251 148.844C211.107 148.828 210.979 148.808 210.867 148.784V147.368C210.955 147.384 211.059 147.4 211.179 147.416C211.307 147.432 211.439 147.44 211.575 147.44C211.951 147.44 212.247 147.324 212.463 147.092C212.687 146.868 212.851 146.596 212.955 146.276L213.063 145.952L210.459 139.448ZM221.875 139.328C222.611 139.328 223.207 139.616 223.663 140.192C224.119 140.76 224.347 141.6 224.347 142.712C224.347 143.824 224.111 144.672 223.639 145.256C223.167 145.832 222.563 146.12 221.827 146.12C221.355 146.12 220.979 146.036 220.699 145.868C220.419 145.692 220.191 145.496 220.015 145.28H219.919C219.983 145.616 220.015 145.936 220.015 146.24V148.88H218.227V139.448H219.679L219.931 140.3H220.015C220.191 140.036 220.427 139.808 220.723 139.616C221.019 139.424 221.403 139.328 221.875 139.328ZM221.299 140.756C220.835 140.756 220.507 140.9 220.315 141.188C220.131 141.476 220.031 141.916 220.015 142.508V142.7C220.015 143.332 220.107 143.82 220.291 144.164C220.483 144.5 220.827 144.668 221.323 144.668C221.731 144.668 222.031 144.5 222.223 144.164C222.423 143.82 222.523 143.328 222.523 142.688C222.523 141.4 222.115 140.756 221.299 140.756ZM228.581 144.692C228.781 144.692 228.973 144.672 229.157 144.632C229.341 144.592 229.525 144.544 229.709 144.488V145.82C229.517 145.9 229.277 145.968 228.989 146.024C228.709 146.088 228.401 146.12 228.065 146.12C227.673 146.12 227.321 146.056 227.009 145.928C226.705 145.8 226.461 145.58 226.277 145.268C226.101 144.948 226.013 144.508 226.013 143.948V140.792H225.161V140.036L226.145 139.436L226.661 138.056H227.801V139.448H229.637V140.792H227.801V143.948C227.801 144.196 227.873 144.384 228.017 144.512C228.161 144.632 228.349 144.692 228.581 144.692ZM233.724 139.328C234.628 139.328 235.344 139.588 235.872 140.108C236.4 140.62 236.664 141.352 236.664 142.304V143.168H232.44C232.456 143.672 232.604 144.068 232.884 144.356C233.172 144.644 233.568 144.788 234.072 144.788C234.496 144.788 234.88 144.748 235.224 144.668C235.568 144.58 235.924 144.448 236.292 144.272V145.652C235.972 145.812 235.632 145.928 235.272 146C234.92 146.08 234.492 146.12 233.988 146.12C233.332 146.12 232.752 146 232.248 145.76C231.744 145.512 231.348 145.14 231.06 144.644C230.772 144.148 230.628 143.524 230.628 142.772C230.628 142.004 230.756 141.368 231.012 140.864C231.276 140.352 231.64 139.968 232.104 139.712C232.568 139.456 233.108 139.328 233.724 139.328ZM233.736 140.6C233.392 140.6 233.104 140.712 232.872 140.936C232.648 141.16 232.516 141.508 232.476 141.98H234.984C234.976 141.58 234.872 141.252 234.672 140.996C234.472 140.732 234.16 140.6 233.736 140.6ZM240.19 146.12C239.462 146.12 238.866 145.836 238.402 145.268C237.946 144.692 237.718 143.848 237.718 142.736C237.718 141.616 237.95 140.768 238.414 140.192C238.878 139.616 239.486 139.328 240.238 139.328C240.71 139.328 241.098 139.42 241.402 139.604C241.706 139.788 241.946 140.016 242.122 140.288H242.182C242.158 140.16 242.13 139.976 242.098 139.736C242.066 139.488 242.05 139.236 242.05 138.98V136.88H243.838V146H242.47L242.122 145.148H242.05C241.874 145.42 241.638 145.652 241.342 145.844C241.046 146.028 240.662 146.12 240.19 146.12ZM240.814 144.692C241.31 144.692 241.658 144.548 241.858 144.26C242.058 143.964 242.162 143.524 242.17 142.94V142.748C242.17 142.108 242.07 141.62 241.87 141.284C241.678 140.948 241.318 140.78 240.79 140.78C240.398 140.78 240.09 140.952 239.866 141.296C239.642 141.632 239.53 142.12 239.53 142.76C239.53 143.4 239.642 143.884 239.866 144.212C240.09 144.532 240.406 144.692 240.814 144.692ZM252.485 139.328C252.573 139.328 252.677 139.332 252.797 139.34C252.917 139.348 253.013 139.36 253.085 139.376L252.953 141.056C252.897 141.04 252.813 141.028 252.701 141.02C252.597 141.004 252.505 140.996 252.425 140.996C252.121 140.996 251.829 141.052 251.549 141.164C251.269 141.268 251.041 141.44 250.865 141.68C250.697 141.92 250.613 142.248 250.613 142.664V146H248.825V139.448H250.181L250.445 140.552H250.529C250.721 140.216 250.985 139.928 251.321 139.688C251.657 139.448 252.045 139.328 252.485 139.328ZM256.74 139.328C257.644 139.328 258.36 139.588 258.888 140.108C259.416 140.62 259.68 141.352 259.68 142.304V143.168H255.456C255.472 143.672 255.62 144.068 255.9 144.356C256.188 144.644 256.584 144.788 257.088 144.788C257.512 144.788 257.896 144.748 258.24 144.668C258.584 144.58 258.94 144.448 259.308 144.272V145.652C258.988 145.812 258.648 145.928 258.288 146C257.936 146.08 257.508 146.12 257.004 146.12C256.348 146.12 255.768 146 255.264 145.76C254.76 145.512 254.364 145.14 254.076 144.644C253.788 144.148 253.644 143.524 253.644 142.772C253.644 142.004 253.772 141.368 254.028 140.864C254.292 140.352 254.656 139.968 255.12 139.712C255.584 139.456 256.124 139.328 256.74 139.328ZM256.752 140.6C256.408 140.6 256.12 140.712 255.888 140.936C255.664 141.16 255.532 141.508 255.492 141.98H258C257.992 141.58 257.888 141.252 257.688 140.996C257.488 140.732 257.176 140.6 256.752 140.6ZM263.205 146.12C262.477 146.12 261.881 145.836 261.417 145.268C260.961 144.692 260.733 143.848 260.733 142.736C260.733 141.616 260.965 140.768 261.429 140.192C261.893 139.616 262.501 139.328 263.253 139.328C263.725 139.328 264.113 139.42 264.417 139.604C264.721 139.788 264.961 140.016 265.137 140.288H265.197C265.173 140.16 265.145 139.976 265.113 139.736C265.081 139.488 265.065 139.236 265.065 138.98V136.88H266.853V146H265.485L265.137 145.148H265.065C264.889 145.42 264.653 145.652 264.357 145.844C264.061 146.028 263.677 146.12 263.205 146.12ZM263.829 144.692C264.325 144.692 264.673 144.548 264.873 144.26C265.073 143.964 265.177 143.524 265.185 142.94V142.748C265.185 142.108 265.085 141.62 264.885 141.284C264.693 140.948 264.333 140.78 263.805 140.78C263.413 140.78 263.105 140.952 262.881 141.296C262.657 141.632 262.545 142.12 262.545 142.76C262.545 143.4 262.657 143.884 262.881 144.212C263.105 144.532 263.421 144.692 263.829 144.692ZM271.423 139.328C272.327 139.328 273.043 139.588 273.571 140.108C274.099 140.62 274.363 141.352 274.363 142.304V143.168H270.139C270.155 143.672 270.303 144.068 270.583 144.356C270.871 144.644 271.267 144.788 271.771 144.788C272.195 144.788 272.579 144.748 272.923 144.668C273.267 144.58 273.623 144.448 273.991 144.272V145.652C273.671 145.812 273.331 145.928 272.971 146C272.619 146.08 272.191 146.12 271.687 146.12C271.031 146.12 270.451 146 269.947 145.76C269.443 145.512 269.047 145.14 268.759 144.644C268.471 144.148 268.327 143.524 268.327 142.772C268.327 142.004 268.455 141.368 268.711 140.864C268.975 140.352 269.339 139.968 269.803 139.712C270.267 139.456 270.807 139.328 271.423 139.328ZM271.435 140.6C271.091 140.6 270.803 140.712 270.571 140.936C270.347 141.16 270.215 141.508 270.175 141.98H272.683C272.675 141.58 272.571 141.252 272.371 140.996C272.171 140.732 271.859 140.6 271.435 140.6ZM278.513 139.328C279.417 139.328 280.133 139.588 280.661 140.108C281.189 140.62 281.453 141.352 281.453 142.304V143.168H277.229C277.245 143.672 277.393 144.068 277.673 144.356C277.961 144.644 278.357 144.788 278.861 144.788C279.285 144.788 279.669 144.748 280.013 144.668C280.357 144.58 280.713 144.448 281.081 144.272V145.652C280.761 145.812 280.421 145.928 280.061 146C279.709 146.08 279.281 146.12 278.777 146.12C278.121 146.12 277.541 146 277.037 145.76C276.533 145.512 276.137 145.14 275.849 144.644C275.561 144.148 275.417 143.524 275.417 142.772C275.417 142.004 275.545 141.368 275.801 140.864C276.065 140.352 276.429 139.968 276.893 139.712C277.357 139.456 277.897 139.328 278.513 139.328ZM278.525 140.6C278.181 140.6 277.893 140.712 277.661 140.936C277.437 141.16 277.305 141.508 277.265 141.98H279.773C279.765 141.58 279.661 141.252 279.461 140.996C279.261 140.732 278.949 140.6 278.525 140.6ZM290.595 139.328C291.339 139.328 291.899 139.52 292.275 139.904C292.659 140.28 292.851 140.888 292.851 141.728V146H291.063V142.172C291.063 141.228 290.735 140.756 290.079 140.756C289.607 140.756 289.271 140.924 289.071 141.26C288.871 141.596 288.771 142.08 288.771 142.712V146H286.983V142.172C286.983 141.228 286.655 140.756 285.999 140.756C285.503 140.756 285.159 140.944 284.967 141.32C284.783 141.688 284.691 142.22 284.691 142.916V146H282.903V139.448H284.271L284.511 140.288H284.607C284.807 139.952 285.079 139.708 285.423 139.556C285.775 139.404 286.139 139.328 286.515 139.328C286.995 139.328 287.403 139.408 287.739 139.568C288.075 139.72 288.331 139.96 288.507 140.288H288.663C288.863 139.952 289.139 139.708 289.491 139.556C289.851 139.404 290.219 139.328 290.595 139.328ZM224.51 160.056C224.51 160.72 224.274 161.232 223.802 161.592C223.338 161.944 222.642 162.12 221.714 162.12C221.258 162.12 220.866 162.088 220.538 162.024C220.21 161.968 219.882 161.872 219.554 161.736V160.26C219.906 160.42 220.286 160.552 220.694 160.656C221.102 160.76 221.462 160.812 221.774 160.812C222.126 160.812 222.374 160.76 222.518 160.656C222.67 160.552 222.746 160.416 222.746 160.248C222.746 160.136 222.714 160.036 222.65 159.948C222.594 159.86 222.466 159.76 222.266 159.648C222.066 159.536 221.754 159.392 221.33 159.216C220.922 159.04 220.586 158.868 220.322 158.7C220.058 158.524 219.862 158.316 219.734 158.076C219.606 157.828 219.542 157.52 219.542 157.152C219.542 156.544 219.778 156.088 220.25 155.784C220.722 155.48 221.35 155.328 222.134 155.328C222.542 155.328 222.93 155.368 223.298 155.448C223.666 155.528 224.046 155.66 224.438 155.844L223.898 157.128C223.578 156.992 223.274 156.88 222.986 156.792C222.698 156.696 222.406 156.648 222.11 156.648C221.582 156.648 221.318 156.792 221.318 157.08C221.318 157.184 221.35 157.28 221.414 157.368C221.486 157.448 221.618 157.536 221.81 157.632C222.01 157.728 222.302 157.856 222.686 158.016C223.062 158.168 223.386 158.328 223.658 158.496C223.93 158.656 224.138 158.86 224.282 159.108C224.434 159.348 224.51 159.664 224.51 160.056ZM228.567 162.12C227.591 162.12 226.835 161.852 226.299 161.316C225.771 160.772 225.507 159.92 225.507 158.76C225.507 157.96 225.643 157.308 225.915 156.804C226.187 156.3 226.563 155.928 227.043 155.688C227.531 155.448 228.091 155.328 228.723 155.328C229.171 155.328 229.559 155.372 229.887 155.46C230.223 155.548 230.515 155.652 230.763 155.772L230.235 157.152C229.955 157.04 229.691 156.948 229.443 156.876C229.203 156.804 228.963 156.768 228.723 156.768C227.795 156.768 227.331 157.428 227.331 158.748C227.331 159.404 227.451 159.888 227.691 160.2C227.939 160.512 228.283 160.668 228.723 160.668C229.099 160.668 229.431 160.62 229.719 160.524C230.007 160.42 230.287 160.28 230.559 160.104V161.628C230.287 161.804 229.999 161.928 229.695 162C229.399 162.08 229.023 162.12 228.567 162.12ZM235.727 155.328C235.815 155.328 235.919 155.332 236.039 155.34C236.159 155.348 236.255 155.36 236.327 155.376L236.195 157.056C236.139 157.04 236.055 157.028 235.943 157.02C235.839 157.004 235.747 156.996 235.667 156.996C235.363 156.996 235.071 157.052 234.791 157.164C234.511 157.268 234.283 157.44 234.107 157.68C233.939 157.92 233.855 158.248 233.855 158.664V162H232.067V155.448H233.423L233.687 156.552H233.771C233.963 156.216 234.227 155.928 234.563 155.688C234.899 155.448 235.287 155.328 235.727 155.328ZM238.416 152.88C238.68 152.88 238.908 152.944 239.1 153.072C239.292 153.192 239.388 153.42 239.388 153.756C239.388 154.084 239.292 154.312 239.1 154.44C238.908 154.568 238.68 154.632 238.416 154.632C238.144 154.632 237.912 154.568 237.72 154.44C237.536 154.312 237.444 154.084 237.444 153.756C237.444 153.42 237.536 153.192 237.72 153.072C237.912 152.944 238.144 152.88 238.416 152.88ZM239.304 155.448V162H237.516V155.448H239.304ZM244.82 155.328C245.556 155.328 246.152 155.616 246.608 156.192C247.064 156.76 247.292 157.6 247.292 158.712C247.292 159.824 247.056 160.672 246.584 161.256C246.112 161.832 245.508 162.12 244.772 162.12C244.3 162.12 243.924 162.036 243.644 161.868C243.364 161.692 243.136 161.496 242.96 161.28H242.864C242.928 161.616 242.96 161.936 242.96 162.24V164.88H241.172V155.448H242.624L242.876 156.3H242.96C243.136 156.036 243.372 155.808 243.668 155.616C243.964 155.424 244.348 155.328 244.82 155.328ZM244.244 156.756C243.78 156.756 243.452 156.9 243.26 157.188C243.076 157.476 242.976 157.916 242.96 158.508V158.7C242.96 159.332 243.052 159.82 243.236 160.164C243.428 160.5 243.772 160.668 244.268 160.668C244.676 160.668 244.976 160.5 245.168 160.164C245.368 159.82 245.468 159.328 245.468 158.688C245.468 157.4 245.06 156.756 244.244 156.756ZM251.526 160.692C251.726 160.692 251.918 160.672 252.102 160.632C252.286 160.592 252.47 160.544 252.654 160.488V161.82C252.462 161.9 252.222 161.968 251.934 162.024C251.654 162.088 251.346 162.12 251.01 162.12C250.618 162.12 250.266 162.056 249.954 161.928C249.65 161.8 249.406 161.58 249.222 161.268C249.046 160.948 248.958 160.508 248.958 159.948V156.792H248.106V156.036L249.09 155.436L249.606 154.056H250.746V155.448H252.582V156.792H250.746V159.948C250.746 160.196 250.818 160.384 250.962 160.512C251.106 160.632 251.294 160.692 251.526 160.692ZM258.541 160.056C258.541 160.72 258.305 161.232 257.833 161.592C257.369 161.944 256.673 162.12 255.745 162.12C255.289 162.12 254.897 162.088 254.569 162.024C254.241 161.968 253.913 161.872 253.585 161.736V160.26C253.937 160.42 254.317 160.552 254.725 160.656C255.133 160.76 255.493 160.812 255.805 160.812C256.157 160.812 256.405 160.76 256.549 160.656C256.701 160.552 256.777 160.416 256.777 160.248C256.777 160.136 256.745 160.036 256.681 159.948C256.625 159.86 256.497 159.76 256.297 159.648C256.097 159.536 255.785 159.392 255.361 159.216C254.953 159.04 254.617 158.868 254.353 158.7C254.089 158.524 253.893 158.316 253.765 158.076C253.637 157.828 253.573 157.52 253.573 157.152C253.573 156.544 253.809 156.088 254.281 155.784C254.753 155.48 255.381 155.328 256.165 155.328C256.573 155.328 256.961 155.368 257.329 155.448C257.697 155.528 258.077 155.66 258.469 155.844L257.929 157.128C257.609 156.992 257.305 156.88 257.017 156.792C256.729 156.696 256.437 156.648 256.141 156.648C255.613 156.648 255.349 156.792 255.349 157.08C255.349 157.184 255.381 157.28 255.445 157.368C255.517 157.448 255.649 157.536 255.841 157.632C256.041 157.728 256.333 157.856 256.717 158.016C257.093 158.168 257.417 158.328 257.689 158.496C257.961 158.656 258.169 158.86 258.313 159.108C258.465 159.348 258.541 159.664 258.541 160.056Z" fill="black"/>
<defs>
<clipPath id="clip0">
<rect width="58.3936" height="49.5916" fill="white" transform="translate(54 14)"/>
</clipPath>
<clipPath id="clip1">
<rect width="49.3067" height="40.4868" fill="white" transform="translate(359 22)"/>
</clipPath>
</defs>
</svg>
