<svg width="455" height="164" viewBox="0 0 455 164" fill="none" xmlns="http://www.w3.org/2000/svg">
<path d="M453.393 20.848V7.9997C453.393 5.2297 451.164 3 448.394 3H402C399.23 3 397 5.2297 397 7.9997V38.8919C397 41.6619 399.23 43.8921 402 43.8921H414.3" stroke="black" stroke-width="2" stroke-linecap="round" stroke-linejoin="round"/>
<path d="M415.662 20.5059V19.7292C415.662 16.9592 413.432 14.729 410.662 14.729H397V31.5492H408.793" stroke="black" stroke-width="2" stroke-linecap="round" stroke-linejoin="round"/>
<path d="M406.331 27.1816C408.564 27.1816 410.374 25.3717 410.374 23.1391C410.374 20.9065 408.564 19.0967 406.331 19.0967C404.099 19.0967 402.289 20.9065 402.289 23.1391C402.289 25.3717 404.099 27.1816 406.331 27.1816Z" stroke="black" stroke-width="2" stroke-linecap="round" stroke-linejoin="round"/>
<path fill-rule="evenodd" clip-rule="evenodd" d="M425.434 44.9559L436.238 49.2929L446.944 44.7204L451.283 33.9163L446.71 23.2099L435.906 18.8722L425.197 23.4461L420.86 34.2494L425.434 44.9559ZM436.248 51.297C436.127 51.297 436.004 51.2736 435.89 51.2277L424.345 46.5929C424.108 46.4982 423.918 46.3129 423.819 46.0774L418.933 34.6362C418.832 34.4007 418.829 34.137 418.925 33.8987L423.56 22.3535C423.654 22.1166 423.84 21.9271 424.075 21.8274L435.516 16.9416C435.752 16.8405 436.017 16.8391 436.255 16.9338L447.799 21.5686C448.036 21.6633 448.226 21.8486 448.325 22.0841L453.211 33.5232C453.312 33.7594 453.315 34.0231 453.219 34.2614L448.584 45.8066C448.49 46.0435 448.305 46.233 448.069 46.332L436.629 51.2185C436.506 51.2722 436.378 51.297 436.248 51.297Z" fill="black" stroke="black" stroke-width="0.589302"/>
<path fill-rule="evenodd" clip-rule="evenodd" d="M441.222 26.9701V29.1658H434.035L438.556 33.8996L433.929 38.9954H441.222V41.1911H430.923V38.9954L435.507 33.9208L430.944 29.1658V26.9701H441.222Z" fill="black" stroke="black" stroke-width="0.589302"/>
<path d="M410.762 64V55.4688H413.75C414.785 55.4688 415.57 55.668 416.105 56.0664C416.641 56.4609 416.908 57.041 416.908 57.8066C416.908 58.2246 416.801 58.5938 416.586 58.9141C416.371 59.2305 416.072 59.4629 415.689 59.6113C416.127 59.7207 416.471 59.9414 416.721 60.2734C416.975 60.6055 417.102 61.0117 417.102 61.4922C417.102 62.3125 416.84 62.9336 416.316 63.3555C415.793 63.7773 415.047 63.9922 414.078 64H410.762ZM412.52 60.2852V62.5879H414.025C414.439 62.5879 414.762 62.4902 414.992 62.2949C415.227 62.0957 415.344 61.8223 415.344 61.4746C415.344 60.6934 414.939 60.2969 414.131 60.2852H412.52ZM412.52 59.043H413.82C414.707 59.0273 415.15 58.6738 415.15 57.9824C415.15 57.5957 415.037 57.3184 414.811 57.1504C414.588 56.9785 414.234 56.8926 413.75 56.8926H412.52V59.043ZM418.051 60.7715C418.051 60.1426 418.172 59.582 418.414 59.0898C418.656 58.5977 419.004 58.2168 419.457 57.9473C419.914 57.6777 420.443 57.543 421.045 57.543C421.9 57.543 422.598 57.8047 423.137 58.3281C423.68 58.8516 423.982 59.5625 424.045 60.4609L424.057 60.8945C424.057 61.8672 423.785 62.6484 423.242 63.2383C422.699 63.8242 421.971 64.1172 421.057 64.1172C420.143 64.1172 419.412 63.8242 418.865 63.2383C418.322 62.6523 418.051 61.8555 418.051 60.8477V60.7715ZM419.744 60.8945C419.744 61.4961 419.857 61.957 420.084 62.2773C420.311 62.5938 420.635 62.752 421.057 62.752C421.467 62.752 421.787 62.5957 422.018 62.2832C422.248 61.9668 422.363 61.4629 422.363 60.7715C422.363 60.1816 422.248 59.7246 422.018 59.4004C421.787 59.0762 421.463 58.9141 421.045 58.9141C420.631 58.9141 420.311 59.0762 420.084 59.4004C419.857 59.7207 419.744 60.2188 419.744 60.8945ZM430.812 60.8887C430.812 61.9043 430.596 62.6973 430.162 63.2676C429.729 63.834 429.123 64.1172 428.346 64.1172C427.658 64.1172 427.109 63.8535 426.699 63.3262L426.623 64H425.1V55H426.793V58.2285C427.184 57.7715 427.697 57.543 428.334 57.543C429.107 57.543 429.713 57.8281 430.15 58.3984C430.592 58.9648 430.812 59.7637 430.812 60.7949V60.8887ZM429.119 60.7656C429.119 60.125 429.018 59.6582 428.814 59.3652C428.611 59.0684 428.309 58.9199 427.906 58.9199C427.367 58.9199 426.996 59.1406 426.793 59.582V62.084C427 62.5293 427.375 62.752 427.918 62.752C428.465 62.752 428.824 62.4824 428.996 61.9434C429.078 61.6855 429.119 61.293 429.119 60.7656Z" fill="black"/>
<path d="M7.63086 58H5.87305V49.4688H7.63086V58ZM10.7129 51.6602L10.7656 52.3926C11.2188 51.8262 11.8262 51.543 12.5879 51.543C13.2598 51.543 13.7598 51.7402 14.0879 52.1348C14.416 52.5293 14.584 53.1191 14.5918 53.9043V58H12.8984V53.9453C12.8984 53.5859 12.8203 53.3262 12.6641 53.166C12.5078 53.002 12.248 52.9199 11.8848 52.9199C11.4082 52.9199 11.0508 53.123 10.8125 53.5293V58H9.11914V51.6602H10.7129ZM15.6172 54.7832C15.6172 53.7949 15.8379 53.0078 16.2793 52.4219C16.7246 51.8359 17.332 51.543 18.1016 51.543C18.7188 51.543 19.2285 51.7734 19.6309 52.2344V49H21.3301V58H19.8008L19.7188 57.3262C19.2969 57.8535 18.7539 58.1172 18.0898 58.1172C17.3438 58.1172 16.7441 57.8242 16.291 57.2383C15.8418 56.6484 15.6172 55.8301 15.6172 54.7832ZM17.3105 54.9062C17.3105 55.5 17.4141 55.9551 17.6211 56.2715C17.8281 56.5879 18.1289 56.7461 18.5234 56.7461C19.0469 56.7461 19.416 56.5254 19.6309 56.084V53.582C19.4199 53.1406 19.0547 52.9199 18.5352 52.9199C17.7188 52.9199 17.3105 53.582 17.3105 54.9062ZM25.5605 58.1172C24.6309 58.1172 23.873 57.832 23.2871 57.2617C22.7051 56.6914 22.4141 55.9316 22.4141 54.9824V54.8184C22.4141 54.1816 22.5371 53.6133 22.7832 53.1133C23.0293 52.6094 23.377 52.2227 23.8262 51.9531C24.2793 51.6797 24.7949 51.543 25.373 51.543C26.2402 51.543 26.9219 51.8164 27.418 52.3633C27.918 52.9102 28.168 53.6855 28.168 54.6895V55.3809H24.1309C24.1855 55.7949 24.3496 56.127 24.623 56.377C24.9004 56.627 25.25 56.752 25.6719 56.752C26.3242 56.752 26.834 56.5156 27.2012 56.043L28.0332 56.9746C27.7793 57.334 27.4355 57.6152 27.002 57.8184C26.5684 58.0176 26.0879 58.1172 25.5605 58.1172ZM25.3672 52.9141C25.0312 52.9141 24.7578 53.0273 24.5469 53.2539C24.3398 53.4805 24.207 53.8047 24.1484 54.2266H26.5039V54.0918C26.4961 53.7168 26.3945 53.4277 26.1992 53.2246C26.0039 53.0176 25.7266 52.9141 25.3672 52.9141ZM31.5488 53.5527L32.6152 51.6602H34.4258L32.6211 54.7656L34.502 58H32.6855L31.5547 56.0078L30.4297 58H28.6074L30.4883 54.7656L28.6895 51.6602H30.5059L31.5488 53.5527ZM38.041 58.1172C37.1113 58.1172 36.3535 57.832 35.7676 57.2617C35.1855 56.6914 34.8945 55.9316 34.8945 54.9824V54.8184C34.8945 54.1816 35.0176 53.6133 35.2637 53.1133C35.5098 52.6094 35.8574 52.2227 36.3066 51.9531C36.7598 51.6797 37.2754 51.543 37.8535 51.543C38.7207 51.543 39.4023 51.8164 39.8984 52.3633C40.3984 52.9102 40.6484 53.6855 40.6484 54.6895V55.3809H36.6113C36.666 55.7949 36.8301 56.127 37.1035 56.377C37.3809 56.627 37.7305 56.752 38.1523 56.752C38.8047 56.752 39.3145 56.5156 39.6816 56.043L40.5137 56.9746C40.2598 57.334 39.916 57.6152 39.4824 57.8184C39.0488 58.0176 38.5684 58.1172 38.041 58.1172ZM37.8477 52.9141C37.5117 52.9141 37.2383 53.0273 37.0273 53.2539C36.8203 53.4805 36.6875 53.8047 36.6289 54.2266H38.9844V54.0918C38.9766 53.7168 38.875 53.4277 38.6797 53.2246C38.4844 53.0176 38.207 52.9141 37.8477 52.9141ZM45.1777 53.248C44.9473 53.2168 44.7441 53.2012 44.5684 53.2012C43.9277 53.2012 43.5078 53.418 43.3086 53.8516V58H41.6152V51.6602H43.2148L43.2617 52.416C43.6016 51.834 44.0723 51.543 44.6738 51.543C44.8613 51.543 45.0371 51.5684 45.2012 51.6191L45.1777 53.248Z" fill="black"/>
<path d="M46.3067 4H3C1.89543 4 1 4.89543 1 6V14.8289C1 15.9335 1.89543 16.8289 3 16.8289H46.3067C47.4113 16.8289 48.3067 15.9335 48.3067 14.8289V6C48.3067 4.89543 47.4113 4 46.3067 4Z" stroke="black" stroke-width="2" stroke-linecap="round" stroke-linejoin="round"/>
<path d="M46.3067 16.8289H3C1.89543 16.8289 1 17.7244 1 18.8289V27.6579C1 28.7624 1.89543 29.6579 3 29.6579H46.3067C47.4113 29.6579 48.3067 28.7624 48.3067 27.6579V18.8289C48.3067 17.7244 47.4113 16.8289 46.3067 16.8289Z" stroke="black" stroke-width="2" stroke-linecap="round" stroke-linejoin="round"/>
<path d="M46.3067 29.6579H3C1.89543 29.6579 1 30.5533 1 31.6579V40.4868C1 41.5914 1.89543 42.4868 3 42.4868H46.3067C47.4113 42.4868 48.3067 41.5914 48.3067 40.4868V31.6579C48.3067 30.5533 47.4113 29.6579 46.3067 29.6579Z" stroke="black" stroke-width="2" stroke-linecap="round" stroke-linejoin="round"/>
<path d="M8.42455 9.01459H5.59186V11.8143H8.42455V9.01459Z" fill="black" stroke="black" stroke-width="0.49296" stroke-linecap="round" stroke-linejoin="round"/>
<path d="M8.42455 21.8435H5.59186V24.6433H8.42455V21.8435Z" fill="black" stroke="black" stroke-width="0.49296" stroke-linecap="round" stroke-linejoin="round"/>
<path d="M8.42455 34.6725H5.59186V37.4722H8.42455V34.6725Z" fill="black" stroke="black" stroke-width="0.49296" stroke-linecap="round" stroke-linejoin="round"/>
<path d="M15.7798 9.01459H12.9471V11.8143H15.7798V9.01459Z" fill="black" stroke="black" stroke-width="0.49296" stroke-linecap="round" stroke-linejoin="round"/>
<path d="M15.7798 21.8435H12.9471V24.6433H15.7798V21.8435Z" fill="black" stroke="black" stroke-width="0.49296" stroke-linecap="round" stroke-linejoin="round"/>
<path d="M15.7798 34.6725H12.9471V37.4722H15.7798V34.6725Z" fill="black" stroke="black" stroke-width="0.49296" stroke-linecap="round" stroke-linejoin="round"/>
<path d="M55.2929 34.2929C54.9024 34.6834 54.9024 35.3166 55.2929 35.7071L61.6569 42.0711C62.0474 42.4616 62.6805 42.4616 63.0711 42.0711C63.4616 41.6805 63.4616 41.0474 63.0711 40.6569L57.4142 35L63.0711 29.3431C63.4616 28.9526 63.4616 28.3195 63.0711 27.9289C62.6805 27.5384 62.0474 27.5384 61.6569 27.9289L55.2929 34.2929ZM56 36H390V34H56V36Z" fill="black"/>
<path d="M390.707 15.7071C391.098 15.3166 391.098 14.6834 390.707 14.2929L384.343 7.92893C383.953 7.53841 383.319 7.53841 382.929 7.92893C382.538 8.31946 382.538 8.95262 382.929 9.34315L388.586 15L382.929 20.6569C382.538 21.0474 382.538 21.6805 382.929 22.0711C383.319 22.4616 383.953 22.4616 384.343 22.0711L390.707 15.7071ZM56 16H390V14H56V16Z" fill="black"/>
<path d="M182.699 9H180.941L177.52 3.38672V9H175.762V0.46875H177.52L180.947 6.09375V0.46875H182.699V9ZM187.92 8.35547C187.502 8.86328 186.924 9.11719 186.186 9.11719C185.506 9.11719 184.986 8.92188 184.627 8.53125C184.271 8.14062 184.09 7.56836 184.082 6.81445V2.66016H185.775V6.75586C185.775 7.41602 186.076 7.74609 186.678 7.74609C187.252 7.74609 187.646 7.54688 187.861 7.14844V2.66016H189.561V9H187.967L187.92 8.35547ZM192.426 2.66016L192.479 3.36914C192.928 2.81836 193.535 2.54297 194.301 2.54297C195.117 2.54297 195.678 2.86523 195.982 3.50977C196.428 2.86523 197.062 2.54297 197.887 2.54297C198.574 2.54297 199.086 2.74414 199.422 3.14648C199.758 3.54492 199.926 4.14648 199.926 4.95117V9H198.227V4.95703C198.227 4.59766 198.156 4.33594 198.016 4.17188C197.875 4.00391 197.627 3.91992 197.271 3.91992C196.764 3.91992 196.412 4.16211 196.217 4.64648L196.223 9H194.529V4.96289C194.529 4.5957 194.457 4.33008 194.312 4.16602C194.168 4.00195 193.922 3.91992 193.574 3.91992C193.094 3.91992 192.746 4.11914 192.531 4.51758V9H190.838V2.66016H192.426ZM206.945 5.88867C206.945 6.9043 206.729 7.69727 206.295 8.26758C205.861 8.83398 205.256 9.11719 204.479 9.11719C203.791 9.11719 203.242 8.85352 202.832 8.32617L202.756 9H201.232V0H202.926V3.22852C203.316 2.77148 203.83 2.54297 204.467 2.54297C205.24 2.54297 205.846 2.82812 206.283 3.39844C206.725 3.96484 206.945 4.76367 206.945 5.79492V5.88867ZM205.252 5.76562C205.252 5.125 205.15 4.6582 204.947 4.36523C204.744 4.06836 204.441 3.91992 204.039 3.91992C203.5 3.91992 203.129 4.14062 202.926 4.58203V7.08398C203.133 7.5293 203.508 7.75195 204.051 7.75195C204.598 7.75195 204.957 7.48242 205.129 6.94336C205.211 6.68555 205.252 6.29297 205.252 5.76562ZM210.912 9.11719C209.982 9.11719 209.225 8.83203 208.639 8.26172C208.057 7.69141 207.766 6.93164 207.766 5.98242V5.81836C207.766 5.18164 207.889 4.61328 208.135 4.11328C208.381 3.60938 208.729 3.22266 209.178 2.95312C209.631 2.67969 210.146 2.54297 210.725 2.54297C211.592 2.54297 212.273 2.81641 212.77 3.36328C213.27 3.91016 213.52 4.68555 213.52 5.68945V6.38086H209.482C209.537 6.79492 209.701 7.12695 209.975 7.37695C210.252 7.62695 210.602 7.75195 211.023 7.75195C211.676 7.75195 212.186 7.51562 212.553 7.04297L213.385 7.97461C213.131 8.33398 212.787 8.61523 212.354 8.81836C211.92 9.01758 211.439 9.11719 210.912 9.11719ZM210.719 3.91406C210.383 3.91406 210.109 4.02734 209.898 4.25391C209.691 4.48047 209.559 4.80469 209.5 5.22656H211.855V5.0918C211.848 4.7168 211.746 4.42773 211.551 4.22461C211.355 4.01758 211.078 3.91406 210.719 3.91406ZM218.049 4.24805C217.818 4.2168 217.615 4.20117 217.439 4.20117C216.799 4.20117 216.379 4.41797 216.18 4.85156V9H214.486V2.66016H216.086L216.133 3.41602C216.473 2.83398 216.943 2.54297 217.545 2.54297C217.732 2.54297 217.908 2.56836 218.072 2.61914L218.049 4.24805ZM225.021 3.41016L226.621 0.46875H228.643L226.158 4.69922L228.707 9H226.662L225.021 6.01172L223.381 9H221.336L223.885 4.69922L221.4 0.46875H223.422L225.021 3.41016ZM234.502 1.10156V2.66016H235.586V3.90234H234.502V7.06641C234.502 7.30078 234.547 7.46875 234.637 7.57031C234.727 7.67188 234.898 7.72266 235.152 7.72266C235.34 7.72266 235.506 7.70898 235.65 7.68164V8.96484C235.318 9.06641 234.977 9.11719 234.625 9.11719C233.438 9.11719 232.832 8.51758 232.809 7.31836V3.90234H231.883V2.66016H232.809V1.10156H234.502ZM236.09 5.77148C236.09 5.14258 236.211 4.58203 236.453 4.08984C236.695 3.59766 237.043 3.2168 237.496 2.94727C237.953 2.67773 238.482 2.54297 239.084 2.54297C239.939 2.54297 240.637 2.80469 241.176 3.32812C241.719 3.85156 242.021 4.5625 242.084 5.46094L242.096 5.89453C242.096 6.86719 241.824 7.64844 241.281 8.23828C240.738 8.82422 240.01 9.11719 239.096 9.11719C238.182 9.11719 237.451 8.82422 236.904 8.23828C236.361 7.65234 236.09 6.85547 236.09 5.84766V5.77148ZM237.783 5.89453C237.783 6.49609 237.896 6.95703 238.123 7.27734C238.35 7.59375 238.674 7.75195 239.096 7.75195C239.506 7.75195 239.826 7.5957 240.057 7.2832C240.287 6.9668 240.402 6.46289 240.402 5.77148C240.402 5.18164 240.287 4.72461 240.057 4.40039C239.826 4.07617 239.502 3.91406 239.084 3.91406C238.67 3.91406 238.35 4.07617 238.123 4.40039C237.896 4.7207 237.783 5.21875 237.783 5.89453ZM249.561 7.24805C249.561 7.04102 249.457 6.87891 249.25 6.76172C249.047 6.64062 248.719 6.5332 248.266 6.43945C246.758 6.12305 246.004 5.48242 246.004 4.51758C246.004 3.95508 246.236 3.48633 246.701 3.11133C247.17 2.73242 247.781 2.54297 248.535 2.54297C249.34 2.54297 249.982 2.73242 250.463 3.11133C250.947 3.49023 251.189 3.98242 251.189 4.58789H249.496C249.496 4.3457 249.418 4.14648 249.262 3.99023C249.105 3.83008 248.861 3.75 248.529 3.75C248.244 3.75 248.023 3.81445 247.867 3.94336C247.711 4.07227 247.633 4.23633 247.633 4.43555C247.633 4.62305 247.721 4.77539 247.896 4.89258C248.076 5.00586 248.377 5.10547 248.799 5.19141C249.221 5.27344 249.576 5.36719 249.865 5.47266C250.76 5.80078 251.207 6.36914 251.207 7.17773C251.207 7.75586 250.959 8.22461 250.463 8.58398C249.967 8.93945 249.326 9.11719 248.541 9.11719C248.01 9.11719 247.537 9.02344 247.123 8.83594C246.713 8.64453 246.391 8.38477 246.156 8.05664C245.922 7.72461 245.805 7.36719 245.805 6.98438H247.41C247.426 7.28516 247.537 7.51562 247.744 7.67578C247.951 7.83594 248.229 7.91602 248.576 7.91602C248.9 7.91602 249.145 7.85547 249.309 7.73438C249.477 7.60938 249.561 7.44727 249.561 7.24805ZM254.09 9H252.391V2.66016H254.09V9ZM252.291 1.01953C252.291 0.765625 252.375 0.556641 252.543 0.392578C252.715 0.228516 252.947 0.146484 253.24 0.146484C253.529 0.146484 253.76 0.228516 253.932 0.392578C254.104 0.556641 254.189 0.765625 254.189 1.01953C254.189 1.27734 254.102 1.48828 253.926 1.65234C253.754 1.81641 253.525 1.89844 253.24 1.89844C252.955 1.89844 252.725 1.81641 252.549 1.65234C252.377 1.48828 252.291 1.27734 252.291 1.01953ZM255.244 5.7832C255.244 4.81055 255.475 4.02734 255.936 3.43359C256.4 2.83984 257.025 2.54297 257.811 2.54297C258.506 2.54297 259.047 2.78125 259.434 3.25781L259.504 2.66016H261.039V8.78906C261.039 9.34375 260.912 9.82617 260.658 10.2363C260.408 10.6465 260.055 10.959 259.598 11.1738C259.141 11.3887 258.605 11.4961 257.992 11.4961C257.527 11.4961 257.074 11.4023 256.633 11.2148C256.191 11.0312 255.857 10.793 255.631 10.5L256.381 9.46875C256.803 9.94141 257.314 10.1777 257.916 10.1777C258.365 10.1777 258.715 10.0566 258.965 9.81445C259.215 9.57617 259.34 9.23633 259.34 8.79492V8.45508C258.949 8.89648 258.436 9.11719 257.799 9.11719C257.037 9.11719 256.42 8.82031 255.947 8.22656C255.479 7.62891 255.244 6.83789 255.244 5.85352V5.7832ZM256.938 5.90625C256.938 6.48047 257.053 6.93164 257.283 7.25977C257.514 7.58398 257.83 7.74609 258.232 7.74609C258.748 7.74609 259.117 7.55273 259.34 7.16602V4.5C259.113 4.11328 258.748 3.91992 258.244 3.91992C257.838 3.91992 257.518 4.08594 257.283 4.41797C257.053 4.75 256.938 5.24609 256.938 5.90625ZM263.904 2.66016L263.957 3.39258C264.41 2.82617 265.018 2.54297 265.779 2.54297C266.451 2.54297 266.951 2.74023 267.279 3.13477C267.607 3.5293 267.775 4.11914 267.783 4.9043V9H266.09V4.94531C266.09 4.58594 266.012 4.32617 265.855 4.16602C265.699 4.00195 265.439 3.91992 265.076 3.91992C264.6 3.91992 264.242 4.12305 264.004 4.5293V9H262.311V2.66016H263.904Z" fill="black"/>
<path d="M190.059 41.4688L192.25 47.6562L194.43 41.4688H196.738V50H194.975V47.668L195.15 43.6426L192.848 50H191.641L189.344 43.6484L189.52 47.668V50H187.762V41.4688H190.059ZM197.898 46.7715C197.898 46.1426 198.02 45.582 198.262 45.0898C198.504 44.5977 198.852 44.2168 199.305 43.9473C199.762 43.6777 200.291 43.543 200.893 43.543C201.748 43.543 202.445 43.8047 202.984 44.3281C203.527 44.8516 203.83 45.5625 203.893 46.4609L203.904 46.8945C203.904 47.8672 203.633 48.6484 203.09 49.2383C202.547 49.8242 201.818 50.1172 200.904 50.1172C199.99 50.1172 199.26 49.8242 198.713 49.2383C198.17 48.6523 197.898 47.8555 197.898 46.8477V46.7715ZM199.592 46.8945C199.592 47.4961 199.705 47.957 199.932 48.2773C200.158 48.5938 200.482 48.752 200.904 48.752C201.314 48.752 201.635 48.5957 201.865 48.2832C202.096 47.9668 202.211 47.4629 202.211 46.7715C202.211 46.1816 202.096 45.7246 201.865 45.4004C201.635 45.0762 201.311 44.9141 200.893 44.9141C200.479 44.9141 200.158 45.0762 199.932 45.4004C199.705 45.7207 199.592 46.2188 199.592 46.8945ZM206.506 43.6602L206.559 44.3926C207.012 43.8262 207.619 43.543 208.381 43.543C209.053 43.543 209.553 43.7402 209.881 44.1348C210.209 44.5293 210.377 45.1191 210.385 45.9043V50H208.691V45.9453C208.691 45.5859 208.613 45.3262 208.457 45.166C208.301 45.002 208.041 44.9199 207.678 44.9199C207.201 44.9199 206.844 45.123 206.605 45.5293V50H204.912V43.6602H206.506ZM214.592 50.1172C213.662 50.1172 212.904 49.832 212.318 49.2617C211.736 48.6914 211.445 47.9316 211.445 46.9824V46.8184C211.445 46.1816 211.568 45.6133 211.814 45.1133C212.061 44.6094 212.408 44.2227 212.857 43.9531C213.311 43.6797 213.826 43.543 214.404 43.543C215.271 43.543 215.953 43.8164 216.449 44.3633C216.949 44.9102 217.199 45.6855 217.199 46.6895V47.3809H213.162C213.217 47.7949 213.381 48.127 213.654 48.377C213.932 48.627 214.281 48.752 214.703 48.752C215.355 48.752 215.865 48.5156 216.232 48.043L217.064 48.9746C216.811 49.334 216.467 49.6152 216.033 49.8184C215.6 50.0176 215.119 50.1172 214.592 50.1172ZM214.398 44.9141C214.062 44.9141 213.789 45.0273 213.578 45.2539C213.371 45.4805 213.238 45.8047 213.18 46.2266H215.535V46.0918C215.527 45.7168 215.426 45.4277 215.23 45.2246C215.035 45.0176 214.758 44.9141 214.398 44.9141ZM220.451 47.6035L221.623 43.6602H223.439L220.891 50.9844L220.75 51.3184C220.371 52.1465 219.746 52.5605 218.875 52.5605C218.629 52.5605 218.379 52.5234 218.125 52.4492V51.166L218.383 51.1719C218.703 51.1719 218.941 51.123 219.098 51.0254C219.258 50.9277 219.383 50.7656 219.473 50.5391L219.672 50.0176L217.451 43.6602H219.273L220.451 47.6035ZM232.803 46.8887C232.803 47.8652 232.58 48.6484 232.135 49.2383C231.693 49.8242 231.096 50.1172 230.342 50.1172C229.701 50.1172 229.184 49.8945 228.789 49.4492V52.4375H227.096V43.6602H228.666L228.725 44.2812C229.135 43.7891 229.67 43.543 230.33 43.543C231.111 43.543 231.719 43.832 232.152 44.4102C232.586 44.9883 232.803 45.7852 232.803 46.8008V46.8887ZM231.109 46.7656C231.109 46.1758 231.004 45.7207 230.793 45.4004C230.586 45.0801 230.283 44.9199 229.885 44.9199C229.354 44.9199 228.988 45.123 228.789 45.5293V48.125C228.996 48.543 229.365 48.752 229.896 48.752C230.705 48.752 231.109 48.0898 231.109 46.7656ZM237.42 45.248C237.189 45.2168 236.986 45.2012 236.811 45.2012C236.17 45.2012 235.75 45.418 235.551 45.8516V50H233.857V43.6602H235.457L235.504 44.416C235.844 43.834 236.314 43.543 236.916 43.543C237.104 43.543 237.279 43.5684 237.443 43.6191L237.42 45.248ZM237.766 46.7715C237.766 46.1426 237.887 45.582 238.129 45.0898C238.371 44.5977 238.719 44.2168 239.172 43.9473C239.629 43.6777 240.158 43.543 240.76 43.543C241.615 43.543 242.312 43.8047 242.852 44.3281C243.395 44.8516 243.697 45.5625 243.76 46.4609L243.771 46.8945C243.771 47.8672 243.5 48.6484 242.957 49.2383C242.414 49.8242 241.686 50.1172 240.771 50.1172C239.857 50.1172 239.127 49.8242 238.58 49.2383C238.037 48.6523 237.766 47.8555 237.766 46.8477V46.7715ZM239.459 46.8945C239.459 47.4961 239.572 47.957 239.799 48.2773C240.025 48.5938 240.35 48.752 240.771 48.752C241.182 48.752 241.502 48.5957 241.732 48.2832C241.963 47.9668 242.078 47.4629 242.078 46.7715C242.078 46.1816 241.963 45.7246 241.732 45.4004C241.502 45.0762 241.178 44.9141 240.76 44.9141C240.346 44.9141 240.025 45.0762 239.799 45.4004C239.572 45.7207 239.459 46.2188 239.459 46.8945ZM244.551 46.7715C244.551 46.1426 244.672 45.582 244.914 45.0898C245.156 44.5977 245.504 44.2168 245.957 43.9473C246.414 43.6777 246.943 43.543 247.545 43.543C248.4 43.543 249.098 43.8047 249.637 44.3281C250.18 44.8516 250.482 45.5625 250.545 46.4609L250.557 46.8945C250.557 47.8672 250.285 48.6484 249.742 49.2383C249.199 49.8242 248.471 50.1172 247.557 50.1172C246.643 50.1172 245.912 49.8242 245.365 49.2383C244.822 48.6523 244.551 47.8555 244.551 46.8477V46.7715ZM246.244 46.8945C246.244 47.4961 246.357 47.957 246.584 48.2773C246.811 48.5938 247.135 48.752 247.557 48.752C247.967 48.752 248.287 48.5957 248.518 48.2832C248.748 47.9668 248.863 47.4629 248.863 46.7715C248.863 46.1816 248.748 45.7246 248.518 45.4004C248.287 45.0762 247.963 44.9141 247.545 44.9141C247.131 44.9141 246.811 45.0762 246.584 45.4004C246.357 45.7207 246.244 46.2188 246.244 46.8945ZM252.062 50V44.9023H251.119V43.6602H252.062V43.1211C252.062 42.4102 252.266 41.8594 252.672 41.4688C253.082 41.0742 253.654 40.877 254.389 40.877C254.623 40.877 254.91 40.916 255.25 40.9941L255.232 42.3066C255.092 42.2715 254.92 42.2539 254.717 42.2539C254.08 42.2539 253.762 42.5527 253.762 43.1504V43.6602H255.021V44.9023H253.762V50H252.062Z" fill="black"/>
<path d="M179.982 88.7617C179.982 88.4297 179.864 88.1758 179.63 88C179.396 87.8203 178.974 87.6328 178.364 87.4375C177.755 87.2383 177.273 87.043 176.917 86.8516C175.948 86.3281 175.464 85.623 175.464 84.7363C175.464 84.2754 175.593 83.8652 175.851 83.5059C176.113 83.1426 176.486 82.8594 176.97 82.6562C177.458 82.4531 178.005 82.3516 178.611 82.3516C179.22 82.3516 179.763 82.4629 180.239 82.6855C180.716 82.9043 181.085 83.2148 181.347 83.6172C181.613 84.0195 181.745 84.4766 181.745 84.9883H179.988C179.988 84.5977 179.864 84.2949 179.618 84.0801C179.372 83.8613 179.027 83.752 178.581 83.752C178.152 83.752 177.818 83.8438 177.579 84.0273C177.341 84.207 177.222 84.4453 177.222 84.7422C177.222 85.0195 177.361 85.252 177.638 85.4395C177.919 85.627 178.331 85.8027 178.874 85.9668C179.874 86.2676 180.603 86.6406 181.06 87.0859C181.517 87.5312 181.745 88.0859 181.745 88.75C181.745 89.4883 181.466 90.0684 180.907 90.4902C180.349 90.9082 179.597 91.1172 178.652 91.1172C177.995 91.1172 177.398 90.998 176.859 90.7598C176.32 90.5176 175.907 90.1875 175.622 89.7695C175.341 89.3516 175.2 88.8672 175.2 88.3164H176.964C176.964 89.2578 177.527 89.7285 178.652 89.7285C179.07 89.7285 179.396 89.6445 179.63 89.4766C179.864 89.3047 179.982 89.0664 179.982 88.7617ZM184.616 91H182.917V84.6602H184.616V91ZM182.818 83.0195C182.818 82.7656 182.902 82.5566 183.07 82.3926C183.241 82.2285 183.474 82.1465 183.767 82.1465C184.056 82.1465 184.286 82.2285 184.458 82.3926C184.63 82.5566 184.716 82.7656 184.716 83.0195C184.716 83.2773 184.628 83.4883 184.452 83.6523C184.28 83.8164 184.052 83.8984 183.767 83.8984C183.482 83.8984 183.251 83.8164 183.075 83.6523C182.904 83.4883 182.818 83.2773 182.818 83.0195ZM185.771 87.7832C185.771 86.8105 186.001 86.0273 186.462 85.4336C186.927 84.8398 187.552 84.543 188.337 84.543C189.032 84.543 189.573 84.7812 189.96 85.2578L190.03 84.6602H191.566V90.7891C191.566 91.3438 191.439 91.8262 191.185 92.2363C190.935 92.6465 190.581 92.959 190.124 93.1738C189.667 93.3887 189.132 93.4961 188.519 93.4961C188.054 93.4961 187.601 93.4023 187.159 93.2148C186.718 93.0312 186.384 92.793 186.157 92.5L186.907 91.4688C187.329 91.9414 187.841 92.1777 188.443 92.1777C188.892 92.1777 189.241 92.0566 189.491 91.8145C189.741 91.5762 189.866 91.2363 189.866 90.7949V90.4551C189.476 90.8965 188.962 91.1172 188.325 91.1172C187.564 91.1172 186.946 90.8203 186.474 90.2266C186.005 89.6289 185.771 88.8379 185.771 87.8535V87.7832ZM187.464 87.9062C187.464 88.4805 187.579 88.9316 187.81 89.2598C188.04 89.584 188.357 89.7461 188.759 89.7461C189.275 89.7461 189.644 89.5527 189.866 89.166V86.5C189.64 86.1133 189.275 85.9199 188.771 85.9199C188.364 85.9199 188.044 86.0859 187.81 86.418C187.579 86.75 187.464 87.2461 187.464 87.9062ZM194.431 84.6602L194.484 85.3926C194.937 84.8262 195.544 84.543 196.306 84.543C196.978 84.543 197.478 84.7402 197.806 85.1348C198.134 85.5293 198.302 86.1191 198.31 86.9043V91H196.616V86.9453C196.616 86.5859 196.538 86.3262 196.382 86.166C196.226 86.002 195.966 85.9199 195.603 85.9199C195.126 85.9199 194.769 86.123 194.53 86.5293V91H192.837V84.6602H194.431ZM202.517 91.1172C201.587 91.1172 200.829 90.832 200.243 90.2617C199.661 89.6914 199.37 88.9316 199.37 87.9824V87.8184C199.37 87.1816 199.493 86.6133 199.739 86.1133C199.986 85.6094 200.333 85.2227 200.782 84.9531C201.236 84.6797 201.751 84.543 202.329 84.543C203.196 84.543 203.878 84.8164 204.374 85.3633C204.874 85.9102 205.124 86.6855 205.124 87.6895V88.3809H201.087C201.142 88.7949 201.306 89.127 201.579 89.377C201.857 89.627 202.206 89.752 202.628 89.752C203.28 89.752 203.79 89.5156 204.157 89.043L204.989 89.9746C204.736 90.334 204.392 90.6152 203.958 90.8184C203.525 91.0176 203.044 91.1172 202.517 91.1172ZM202.323 85.9141C201.988 85.9141 201.714 86.0273 201.503 86.2539C201.296 86.4805 201.163 86.8047 201.105 87.2266H203.46V87.0918C203.452 86.7168 203.351 86.4277 203.155 86.2246C202.96 86.0176 202.683 85.9141 202.323 85.9141ZM205.827 87.7832C205.827 86.7949 206.048 86.0078 206.489 85.4219C206.935 84.8359 207.542 84.543 208.312 84.543C208.929 84.543 209.439 84.7734 209.841 85.2344V82H211.54V91H210.011L209.929 90.3262C209.507 90.8535 208.964 91.1172 208.3 91.1172C207.554 91.1172 206.954 90.8242 206.501 90.2383C206.052 89.6484 205.827 88.8301 205.827 87.7832ZM207.521 87.9062C207.521 88.5 207.624 88.9551 207.831 89.2715C208.038 89.5879 208.339 89.7461 208.734 89.7461C209.257 89.7461 209.626 89.5254 209.841 89.084V86.582C209.63 86.1406 209.265 85.9199 208.745 85.9199C207.929 85.9199 207.521 86.582 207.521 87.9062ZM219.005 85.4102L220.605 82.4688H222.626L220.142 86.6992L222.691 91H220.646L219.005 88.0117L217.364 91H215.32L217.868 86.6992L215.384 82.4688H217.405L219.005 85.4102Z" fill="black"/>
<path d="M177.671 118.994V122H175.913V113.469H179.241C179.882 113.469 180.444 113.586 180.929 113.82C181.417 114.055 181.792 114.389 182.054 114.822C182.316 115.252 182.446 115.742 182.446 116.293C182.446 117.129 182.159 117.789 181.585 118.273C181.015 118.754 180.224 118.994 179.212 118.994H177.671ZM177.671 117.57H179.241C179.706 117.57 180.06 117.461 180.302 117.242C180.548 117.023 180.671 116.711 180.671 116.305C180.671 115.887 180.548 115.549 180.302 115.291C180.056 115.033 179.716 114.9 179.282 114.893H177.671V117.57ZM187.345 121.355C186.927 121.863 186.349 122.117 185.61 122.117C184.931 122.117 184.411 121.922 184.052 121.531C183.696 121.141 183.515 120.568 183.507 119.814V115.66H185.2V119.756C185.2 120.416 185.501 120.746 186.103 120.746C186.677 120.746 187.071 120.547 187.286 120.148V115.66H188.985V122H187.392L187.345 121.355ZM195.976 118.889C195.976 119.904 195.759 120.697 195.325 121.268C194.892 121.834 194.286 122.117 193.509 122.117C192.821 122.117 192.273 121.854 191.862 121.326L191.786 122H190.263V113H191.956V116.229C192.347 115.771 192.86 115.543 193.497 115.543C194.271 115.543 194.876 115.828 195.314 116.398C195.755 116.965 195.976 117.764 195.976 118.795V118.889ZM194.282 118.766C194.282 118.125 194.181 117.658 193.978 117.365C193.775 117.068 193.472 116.92 193.069 116.92C192.53 116.92 192.159 117.141 191.956 117.582V120.084C192.163 120.529 192.538 120.752 193.081 120.752C193.628 120.752 193.987 120.482 194.159 119.943C194.241 119.686 194.282 119.293 194.282 118.766ZM198.812 122H197.112V113H198.812V122ZM201.999 122H200.3V115.66H201.999V122ZM200.2 114.02C200.2 113.766 200.284 113.557 200.452 113.393C200.624 113.229 200.857 113.146 201.15 113.146C201.439 113.146 201.669 113.229 201.841 113.393C202.013 113.557 202.099 113.766 202.099 114.02C202.099 114.277 202.011 114.488 201.835 114.652C201.663 114.816 201.435 114.898 201.15 114.898C200.864 114.898 200.634 114.816 200.458 114.652C200.286 114.488 200.2 114.277 200.2 114.02ZM206.036 120.752C206.349 120.752 206.603 120.666 206.798 120.494C206.993 120.322 207.095 120.094 207.103 119.809H208.691C208.687 120.238 208.569 120.633 208.339 120.992C208.109 121.348 207.792 121.625 207.39 121.824C206.991 122.02 206.55 122.117 206.066 122.117C205.159 122.117 204.444 121.83 203.921 121.256C203.398 120.678 203.136 119.881 203.136 118.865V118.754C203.136 117.777 203.396 116.998 203.915 116.416C204.435 115.834 205.148 115.543 206.054 115.543C206.847 115.543 207.482 115.77 207.958 116.223C208.439 116.672 208.683 117.271 208.691 118.021H207.103C207.095 117.693 206.993 117.428 206.798 117.225C206.603 117.018 206.345 116.914 206.025 116.914C205.63 116.914 205.331 117.059 205.128 117.348C204.929 117.633 204.829 118.098 204.829 118.742V118.918C204.829 119.57 204.929 120.039 205.128 120.324C205.327 120.609 205.63 120.752 206.036 120.752ZM214.948 119.457L214.339 120.066V122H212.646V113H214.339V117.986L214.667 117.564L216.29 115.66H218.323L216.032 118.303L218.523 122H216.577L214.948 119.457ZM221.857 122.117C220.927 122.117 220.169 121.832 219.583 121.262C219.001 120.691 218.71 119.932 218.71 118.982V118.818C218.71 118.182 218.833 117.613 219.079 117.113C219.325 116.609 219.673 116.223 220.122 115.953C220.575 115.68 221.091 115.543 221.669 115.543C222.536 115.543 223.218 115.816 223.714 116.363C224.214 116.91 224.464 117.686 224.464 118.689V119.381H220.427C220.482 119.795 220.646 120.127 220.919 120.377C221.196 120.627 221.546 120.752 221.968 120.752C222.62 120.752 223.13 120.516 223.497 120.043L224.329 120.975C224.075 121.334 223.732 121.615 223.298 121.818C222.864 122.018 222.384 122.117 221.857 122.117ZM221.663 116.914C221.327 116.914 221.054 117.027 220.843 117.254C220.636 117.48 220.503 117.805 220.444 118.227H222.8V118.092C222.792 117.717 222.691 117.428 222.495 117.225C222.3 117.018 222.023 116.914 221.663 116.914ZM227.716 119.604L228.888 115.66H230.704L228.155 122.984L228.015 123.318C227.636 124.146 227.011 124.561 226.14 124.561C225.894 124.561 225.644 124.523 225.39 124.449V123.166L225.648 123.172C225.968 123.172 226.206 123.123 226.362 123.025C226.523 122.928 226.648 122.766 226.737 122.539L226.937 122.018L224.716 115.66H226.538L227.716 119.604Z" fill="black"/>
<path d="M182.37 143.469V149.088C182.37 150.021 182.077 150.76 181.491 151.303C180.909 151.846 180.112 152.117 179.101 152.117C178.105 152.117 177.314 151.854 176.728 151.326C176.142 150.799 175.843 150.074 175.831 149.152V143.469H177.589V149.1C177.589 149.658 177.722 150.066 177.987 150.324C178.257 150.578 178.628 150.705 179.101 150.705C180.089 150.705 180.591 150.186 180.607 149.146V143.469H182.37ZM190.234 144.893H187.62V152H185.862V144.893H183.284V143.469H190.234V144.893ZM194.294 146.41L195.894 143.469H197.915L195.431 147.699L197.98 152H195.935L194.294 149.012L192.653 152H190.609L193.157 147.699L190.673 143.469H192.694L194.294 146.41ZM205.726 147.928C205.726 148.768 205.577 149.504 205.28 150.137C204.984 150.77 204.558 151.258 204.003 151.602C203.452 151.945 202.819 152.117 202.105 152.117C201.398 152.117 200.767 151.947 200.212 151.607C199.657 151.268 199.228 150.783 198.923 150.154C198.618 149.521 198.464 148.795 198.46 147.975V147.553C198.46 146.713 198.61 145.975 198.911 145.338C199.216 144.697 199.644 144.207 200.194 143.867C200.749 143.523 201.382 143.352 202.093 143.352C202.804 143.352 203.435 143.523 203.985 143.867C204.54 144.207 204.968 144.697 205.269 145.338C205.573 145.975 205.726 146.711 205.726 147.547V147.928ZM203.944 147.541C203.944 146.646 203.784 145.967 203.464 145.502C203.144 145.037 202.687 144.805 202.093 144.805C201.503 144.805 201.048 145.035 200.728 145.496C200.407 145.953 200.245 146.625 200.241 147.512V147.928C200.241 148.799 200.402 149.475 200.722 149.955C201.042 150.436 201.503 150.676 202.105 150.676C202.694 150.676 203.148 150.445 203.464 149.984C203.78 149.52 203.941 148.844 203.944 147.957V147.541Z" fill="black"/>
<rect x="166.5" y="68.5" width="116" height="95" rx="4.5" stroke="black"/>
<line x1="166" y1="100.5" x2="283.282" y2="100.5" stroke="black"/>
<line x1="166" y1="134.5" x2="283.282" y2="134.5" stroke="black"/>
</svg>
