<svg width="493" height="107" viewBox="0 0 493 107" fill="none" xmlns="http://www.w3.org/2000/svg">
<path d="M491.393 60.848V47.9997C491.393 45.2297 489.164 43 486.394 43H440C437.23 43 435 45.2297 435 47.9997V78.8919C435 81.6619 437.23 83.8921 440 83.8921H452.3" stroke="black" stroke-width="2" stroke-linecap="round" stroke-linejoin="round"/>
<path d="M453.662 60.5059V59.7292C453.662 56.9592 451.432 54.729 448.662 54.729H435V71.5492H446.793" stroke="black" stroke-width="2" stroke-linecap="round" stroke-linejoin="round"/>
<path d="M444.331 67.1816C446.564 67.1816 448.374 65.3717 448.374 63.1391C448.374 60.9065 446.564 59.0967 444.331 59.0967C442.099 59.0967 440.289 60.9065 440.289 63.1391C440.289 65.3717 442.099 67.1816 444.331 67.1816Z" stroke="black" stroke-width="2" stroke-linecap="round" stroke-linejoin="round"/>
<path fill-rule="evenodd" clip-rule="evenodd" d="M463.434 84.9559L474.238 89.2929L484.944 84.7204L489.283 73.9163L484.71 63.2099L473.906 58.8722L463.197 63.4461L458.86 74.2494L463.434 84.9559ZM474.248 91.297C474.127 91.297 474.004 91.2736 473.89 91.2277L462.345 86.5929C462.108 86.4982 461.918 86.3129 461.819 86.0774L456.933 74.6362C456.832 74.4007 456.829 74.137 456.925 73.8987L461.56 62.3535C461.654 62.1166 461.84 61.9271 462.075 61.8274L473.516 56.9416C473.752 56.8405 474.017 56.8391 474.255 56.9338L485.799 61.5686C486.036 61.6633 486.226 61.8486 486.325 62.0841L491.211 73.5232C491.312 73.7594 491.315 74.0231 491.219 74.2614L486.584 85.8066C486.49 86.0435 486.305 86.233 486.069 86.332L474.629 91.2185C474.506 91.2722 474.378 91.297 474.248 91.297Z" fill="black" stroke="black" stroke-width="0.589302"/>
<path fill-rule="evenodd" clip-rule="evenodd" d="M479.222 66.9701V69.1658H472.035L476.556 73.8996L471.929 78.9954H479.222V81.1911H468.923V78.9954L473.507 73.9208L468.944 69.1658V66.9701H479.222Z" fill="black" stroke="black" stroke-width="0.589302"/>
<path d="M448.762 104V95.4688H451.75C452.785 95.4688 453.57 95.668 454.105 96.0664C454.641 96.4609 454.908 97.041 454.908 97.8066C454.908 98.2246 454.801 98.5938 454.586 98.9141C454.371 99.2305 454.072 99.4629 453.689 99.6113C454.127 99.7207 454.471 99.9414 454.721 100.273C454.975 100.605 455.102 101.012 455.102 101.492C455.102 102.312 454.84 102.934 454.316 103.355C453.793 103.777 453.047 103.992 452.078 104H448.762ZM450.52 100.285V102.588H452.025C452.439 102.588 452.762 102.49 452.992 102.295C453.227 102.096 453.344 101.822 453.344 101.475C453.344 100.693 452.939 100.297 452.131 100.285H450.52ZM450.52 99.043H451.82C452.707 99.0273 453.15 98.6738 453.15 97.9824C453.15 97.5957 453.037 97.3184 452.811 97.1504C452.588 96.9785 452.234 96.8926 451.75 96.8926H450.52V99.043ZM456.051 100.771C456.051 100.143 456.172 99.582 456.414 99.0898C456.656 98.5977 457.004 98.2168 457.457 97.9473C457.914 97.6777 458.443 97.543 459.045 97.543C459.9 97.543 460.598 97.8047 461.137 98.3281C461.68 98.8516 461.982 99.5625 462.045 100.461L462.057 100.895C462.057 101.867 461.785 102.648 461.242 103.238C460.699 103.824 459.971 104.117 459.057 104.117C458.143 104.117 457.412 103.824 456.865 103.238C456.322 102.652 456.051 101.855 456.051 100.848V100.771ZM457.744 100.895C457.744 101.496 457.857 101.957 458.084 102.277C458.311 102.594 458.635 102.752 459.057 102.752C459.467 102.752 459.787 102.596 460.018 102.283C460.248 101.967 460.363 101.463 460.363 100.771C460.363 100.182 460.248 99.7246 460.018 99.4004C459.787 99.0762 459.463 98.9141 459.045 98.9141C458.631 98.9141 458.311 99.0762 458.084 99.4004C457.857 99.7207 457.744 100.219 457.744 100.895ZM468.812 100.889C468.812 101.904 468.596 102.697 468.162 103.268C467.729 103.834 467.123 104.117 466.346 104.117C465.658 104.117 465.109 103.854 464.699 103.326L464.623 104H463.1V95H464.793V98.2285C465.184 97.7715 465.697 97.543 466.334 97.543C467.107 97.543 467.713 97.8281 468.15 98.3984C468.592 98.9648 468.812 99.7637 468.812 100.795V100.889ZM467.119 100.766C467.119 100.125 467.018 99.6582 466.814 99.3652C466.611 99.0684 466.309 98.9199 465.906 98.9199C465.367 98.9199 464.996 99.1406 464.793 99.582V102.084C465 102.529 465.375 102.752 465.918 102.752C466.465 102.752 466.824 102.482 466.996 101.943C467.078 101.686 467.119 101.293 467.119 100.766Z" fill="black"/>
<path d="M57.3935 60.848V47.9997C57.3935 45.2297 55.1638 43 52.3938 43H5.99969C3.2297 43 1 45.2297 1 47.9997V78.8919C1 81.6619 3.2297 83.8921 5.99969 83.8921H18.3002" stroke="black" stroke-width="2" stroke-linecap="round" stroke-linejoin="round"/>
<path d="M19.6624 60.7769V60.0002C19.6624 57.2302 17.4322 55 14.6622 55H1V71.8202H12.7926" stroke="black" stroke-width="2" stroke-linecap="round" stroke-linejoin="round"/>
<path d="M10.3313 67.1816C12.5639 67.1816 14.3737 65.3717 14.3737 63.1391C14.3737 60.9065 12.5639 59.0967 10.3313 59.0967C8.09868 59.0967 6.28882 60.9065 6.28882 63.1391C6.28882 65.3717 8.09868 67.1816 10.3313 67.1816Z" stroke="black" stroke-width="2" stroke-linecap="round" stroke-linejoin="round"/>
<path fill-rule="evenodd" clip-rule="evenodd" d="M29.4337 84.9559L40.2377 89.2929L50.9441 84.7204L55.2826 73.9163L50.7101 63.2099L39.906 58.8722L29.1968 63.4461L24.8597 74.2494L29.4337 84.9559ZM40.2483 91.297C40.1267 91.297 40.0036 91.2736 39.8898 91.2277L28.3446 86.5929C28.1077 86.4982 27.9175 86.3129 27.8192 86.0774L22.9327 74.6362C22.8316 74.4007 22.8288 74.137 22.9249 73.8987L27.5597 62.3535C27.6545 62.1166 27.8397 61.9271 28.0752 61.8274L39.5164 56.9416C39.7519 56.8405 40.0171 56.8391 40.2547 56.9338L51.7991 61.5686C52.036 61.6633 52.2255 61.8486 52.3252 62.0841L57.211 73.5232C57.3121 73.7594 57.315 74.0231 57.2188 74.2614L52.5841 85.8066C52.49 86.0435 52.3047 86.233 52.0685 86.332L40.6288 91.2185C40.5057 91.2722 40.3777 91.297 40.2483 91.297Z" fill="black" stroke="black" stroke-width="0.589302"/>
<path d="M44.4097 72.7302C45.4458 72.1576 46.094 71.1492 45.9426 69.4693C45.7387 67.1735 43.9114 66.4037 41.6047 66.1844L41.6042 63H39.817L39.8165 66.1007C39.3462 66.1007 38.8669 66.1107 38.3897 66.1211L38.3893 63.0004L36.6036 63.0002L36.6033 66.1839C36.2163 66.1925 35.8363 66.2006 35.4652 66.2006V66.1912L33 66.1901L33.0003 68.26C33.0003 68.26 34.3202 68.2331 34.2984 68.2592C35.0221 68.2598 35.2584 68.7156 35.3263 69.1091L35.3269 72.7369V77.8327C35.295 78.0796 35.161 78.4742 34.655 78.4749C34.678 78.4969 33.3548 78.4747 33.3548 78.4747L33.0003 80.7893H35.3258C35.7591 80.7899 36.1848 80.7972 36.6025 80.8008L36.6041 84.0213L38.3893 84.0218L38.3888 80.8351C38.8799 80.846 39.354 80.8507 39.8171 80.85L39.8166 84.0218H41.6038L41.6048 80.8067C44.6089 80.6195 46.7121 79.7986 46.9736 76.7381C47.1844 74.2741 46.1153 73.1742 44.4097 72.7302ZM38.4324 68.3997C39.4404 68.3997 42.6105 68.0515 42.6109 70.3357C42.6105 72.5256 39.4414 72.2698 38.4324 72.2698V68.3997ZM38.4316 78.4906L38.4324 74.2235C39.6435 74.2232 43.442 73.8455 43.4425 76.3561C43.443 78.7638 39.6435 78.4897 38.4316 78.4906Z" fill="black"/>
<path d="M20.5781 100.242H17.4961L16.9102 102H15.041L18.2168 93.4688H19.8457L23.0391 102H21.1699L20.5781 100.242ZM17.9707 98.8184H20.1035L19.0312 95.625L17.9707 98.8184ZM25.5117 102H23.8125V93H25.5117V102ZM28.6992 102H27V95.6602H28.6992V102ZM26.9004 94.0195C26.9004 93.7656 26.9844 93.5566 27.1523 93.3926C27.3242 93.2285 27.5566 93.1465 27.8496 93.1465C28.1387 93.1465 28.3691 93.2285 28.541 93.3926C28.7129 93.5566 28.7988 93.7656 28.7988 94.0195C28.7988 94.2773 28.7109 94.4883 28.5352 94.6523C28.3633 94.8164 28.1348 94.8984 27.8496 94.8984C27.5645 94.8984 27.334 94.8164 27.1582 94.6523C26.9863 94.4883 26.9004 94.2773 26.9004 94.0195ZM32.7363 100.752C33.0488 100.752 33.3027 100.666 33.498 100.494C33.6934 100.322 33.7949 100.094 33.8027 99.8086H35.3906C35.3867 100.238 35.2695 100.633 35.0391 100.992C34.8086 101.348 34.4922 101.625 34.0898 101.824C33.6914 102.02 33.25 102.117 32.7656 102.117C31.8594 102.117 31.1445 101.83 30.6211 101.256C30.0977 100.678 29.8359 99.8809 29.8359 98.8652V98.7539C29.8359 97.7773 30.0957 96.998 30.6152 96.416C31.1348 95.834 31.8477 95.543 32.7539 95.543C33.5469 95.543 34.1816 95.7695 34.6582 96.2227C35.1387 96.6719 35.3828 97.2715 35.3906 98.0215H33.8027C33.7949 97.6934 33.6934 97.4277 33.498 97.2246C33.3027 97.0176 33.0449 96.9141 32.7246 96.9141C32.3301 96.9141 32.0312 97.0586 31.8281 97.3477C31.6289 97.6328 31.5293 98.0977 31.5293 98.7422V98.918C31.5293 99.5703 31.6289 100.039 31.8281 100.324C32.0273 100.609 32.3301 100.752 32.7363 100.752ZM39.2754 102.117C38.3457 102.117 37.5879 101.832 37.002 101.262C36.4199 100.691 36.1289 99.9316 36.1289 98.9824V98.8184C36.1289 98.1816 36.252 97.6133 36.498 97.1133C36.7441 96.6094 37.0918 96.2227 37.541 95.9531C37.9941 95.6797 38.5098 95.543 39.0879 95.543C39.9551 95.543 40.6367 95.8164 41.1328 96.3633C41.6328 96.9102 41.8828 97.6855 41.8828 98.6895V99.3809H37.8457C37.9004 99.7949 38.0645 100.127 38.3379 100.377C38.6152 100.627 38.9648 100.752 39.3867 100.752C40.0391 100.752 40.5488 100.516 40.916 100.043L41.748 100.975C41.4941 101.334 41.1504 101.615 40.7168 101.818C40.2832 102.018 39.8027 102.117 39.2754 102.117ZM39.082 96.9141C38.7461 96.9141 38.4727 97.0273 38.2617 97.2539C38.0547 97.4805 37.9219 97.8047 37.8633 98.2266H40.2188V98.0918C40.2109 97.7168 40.1094 97.4277 39.9141 97.2246C39.7188 97.0176 39.4414 96.9141 39.082 96.9141Z" fill="black"/>
<path d="M228.631 97H226.873V88.4688H228.631V97ZM231.713 90.6602L231.766 91.3926C232.219 90.8262 232.826 90.543 233.588 90.543C234.26 90.543 234.76 90.7402 235.088 91.1348C235.416 91.5293 235.584 92.1191 235.592 92.9043V97H233.898V92.9453C233.898 92.5859 233.82 92.3262 233.664 92.166C233.508 92.002 233.248 91.9199 232.885 91.9199C232.408 91.9199 232.051 92.123 231.812 92.5293V97H230.119V90.6602H231.713ZM236.617 93.7832C236.617 92.7949 236.838 92.0078 237.279 91.4219C237.725 90.8359 238.332 90.543 239.102 90.543C239.719 90.543 240.229 90.7734 240.631 91.2344V88H242.33V97H240.801L240.719 96.3262C240.297 96.8535 239.754 97.1172 239.09 97.1172C238.344 97.1172 237.744 96.8242 237.291 96.2383C236.842 95.6484 236.617 94.8301 236.617 93.7832ZM238.311 93.9062C238.311 94.5 238.414 94.9551 238.621 95.2715C238.828 95.5879 239.129 95.7461 239.523 95.7461C240.047 95.7461 240.416 95.5254 240.631 95.084V92.582C240.42 92.1406 240.055 91.9199 239.535 91.9199C238.719 91.9199 238.311 92.582 238.311 93.9062ZM246.561 97.1172C245.631 97.1172 244.873 96.832 244.287 96.2617C243.705 95.6914 243.414 94.9316 243.414 93.9824V93.8184C243.414 93.1816 243.537 92.6133 243.783 92.1133C244.029 91.6094 244.377 91.2227 244.826 90.9531C245.279 90.6797 245.795 90.543 246.373 90.543C247.24 90.543 247.922 90.8164 248.418 91.3633C248.918 91.9102 249.168 92.6855 249.168 93.6895V94.3809H245.131C245.186 94.7949 245.35 95.127 245.623 95.377C245.9 95.627 246.25 95.752 246.672 95.752C247.324 95.752 247.834 95.5156 248.201 95.043L249.033 95.9746C248.779 96.334 248.436 96.6152 248.002 96.8184C247.568 97.0176 247.088 97.1172 246.561 97.1172ZM246.367 91.9141C246.031 91.9141 245.758 92.0273 245.547 92.2539C245.34 92.4805 245.207 92.8047 245.148 93.2266H247.504V93.0918C247.496 92.7168 247.395 92.4277 247.199 92.2246C247.004 92.0176 246.727 91.9141 246.367 91.9141ZM252.549 92.5527L253.615 90.6602H255.426L253.621 93.7656L255.502 97H253.686L252.555 95.0078L251.43 97H249.607L251.488 93.7656L249.689 90.6602H251.506L252.549 92.5527ZM259.041 97.1172C258.111 97.1172 257.354 96.832 256.768 96.2617C256.186 95.6914 255.895 94.9316 255.895 93.9824V93.8184C255.895 93.1816 256.018 92.6133 256.264 92.1133C256.51 91.6094 256.857 91.2227 257.307 90.9531C257.76 90.6797 258.275 90.543 258.854 90.543C259.721 90.543 260.402 90.8164 260.898 91.3633C261.398 91.9102 261.648 92.6855 261.648 93.6895V94.3809H257.611C257.666 94.7949 257.83 95.127 258.104 95.377C258.381 95.627 258.73 95.752 259.152 95.752C259.805 95.752 260.314 95.5156 260.682 95.043L261.514 95.9746C261.26 96.334 260.916 96.6152 260.482 96.8184C260.049 97.0176 259.568 97.1172 259.041 97.1172ZM258.848 91.9141C258.512 91.9141 258.238 92.0273 258.027 92.2539C257.82 92.4805 257.688 92.8047 257.629 93.2266H259.984V93.0918C259.977 92.7168 259.875 92.4277 259.68 92.2246C259.484 92.0176 259.207 91.9141 258.848 91.9141ZM266.178 92.248C265.947 92.2168 265.744 92.2012 265.568 92.2012C264.928 92.2012 264.508 92.418 264.309 92.8516V97H262.615V90.6602H264.215L264.262 91.416C264.602 90.834 265.072 90.543 265.674 90.543C265.861 90.543 266.037 90.5684 266.201 90.6191L266.178 92.248Z" fill="black"/>
<path d="M267.307 43H224C222.895 43 222 43.8954 222 45V53.8289C222 54.9335 222.895 55.8289 224 55.8289H267.307C268.411 55.8289 269.307 54.9335 269.307 53.8289V45C269.307 43.8954 268.411 43 267.307 43Z" stroke="black" stroke-width="2" stroke-linecap="round" stroke-linejoin="round"/>
<path d="M267.307 55.8289H224C222.895 55.8289 222 56.7244 222 57.8289V66.6579C222 67.7625 222.895 68.6579 224 68.6579H267.307C268.411 68.6579 269.307 67.7625 269.307 66.6579V57.8289C269.307 56.7244 268.411 55.8289 267.307 55.8289Z" stroke="black" stroke-width="2" stroke-linecap="round" stroke-linejoin="round"/>
<path d="M267.307 68.6579H224C222.895 68.6579 222 69.5533 222 70.6579V79.4868C222 80.5914 222.895 81.4868 224 81.4868H267.307C268.411 81.4868 269.307 80.5914 269.307 79.4868V70.6579C269.307 69.5533 268.411 68.6579 267.307 68.6579Z" stroke="black" stroke-width="2" stroke-linecap="round" stroke-linejoin="round"/>
<path d="M229.425 48.0146H226.592V50.8143H229.425V48.0146Z" fill="black" stroke="black" stroke-width="0.49296" stroke-linecap="round" stroke-linejoin="round"/>
<path d="M229.425 60.8435H226.592V63.6433H229.425V60.8435Z" fill="black" stroke="black" stroke-width="0.49296" stroke-linecap="round" stroke-linejoin="round"/>
<path d="M229.425 73.6725H226.592V76.4722H229.425V73.6725Z" fill="black" stroke="black" stroke-width="0.49296" stroke-linecap="round" stroke-linejoin="round"/>
<path d="M236.78 48.0146H233.947V50.8143H236.78V48.0146Z" fill="black" stroke="black" stroke-width="0.49296" stroke-linecap="round" stroke-linejoin="round"/>
<path d="M236.78 60.8435H233.947V63.6433H236.78V60.8435Z" fill="black" stroke="black" stroke-width="0.49296" stroke-linecap="round" stroke-linejoin="round"/>
<path d="M236.78 73.6725H233.947V76.4722H236.78V73.6725Z" fill="black" stroke="black" stroke-width="0.49296" stroke-linecap="round" stroke-linejoin="round"/>
<path d="M257.893 16H233.934C232.313 16 231 17.2041 231 18.6894V33.2348C231 34.7201 232.313 35.9242 233.934 35.9242H257.893C259.513 35.9242 260.827 34.7201 260.827 33.2348V18.6894C260.827 17.2041 259.513 16 257.893 16Z" fill="white" stroke="black" stroke-width="2" stroke-linecap="round" stroke-linejoin="round"/>
<path d="M232.109 16.5806L245.83 28.9228" stroke="black" stroke-width="2" stroke-linecap="round"/>
<path d="M259.674 16.549L245.83 28.9228" stroke="black" stroke-width="2" stroke-linecap="round"/>
<path d="M231.782 35.0666L242.143 25.708" stroke="black" stroke-width="2"/>
<path d="M259.811 35.2728L249.351 25.708" stroke="black" stroke-width="2"/>
<path d="M230.357 7.88867C230.357 8.86523 230.135 9.64844 229.689 10.2383C229.248 10.8242 228.65 11.1172 227.896 11.1172C227.256 11.1172 226.738 10.8945 226.344 10.4492V13.4375H224.65V4.66016H226.221L226.279 5.28125C226.689 4.78906 227.225 4.54297 227.885 4.54297C228.666 4.54297 229.273 4.83203 229.707 5.41016C230.141 5.98828 230.357 6.78516 230.357 7.80078V7.88867ZM228.664 7.76562C228.664 7.17578 228.559 6.7207 228.348 6.40039C228.141 6.08008 227.838 5.91992 227.439 5.91992C226.908 5.91992 226.543 6.12305 226.344 6.5293V9.125C226.551 9.54297 226.92 9.75195 227.451 9.75195C228.26 9.75195 228.664 9.08984 228.664 7.76562ZM233.715 8.45703L233.105 9.06641V11H231.412V2H233.105V6.98633L233.434 6.56445L235.057 4.66016H237.09L234.799 7.30273L237.289 11H235.344L233.715 8.45703ZM237.898 7.53125C237.898 6.63672 238.018 5.78516 238.256 4.97656C238.494 4.16797 238.846 3.45312 239.311 2.83203C239.775 2.20703 240.279 1.77344 240.822 1.53125L241.15 2.44531C240.58 2.86719 240.135 3.51953 239.814 4.40234C239.494 5.28516 239.334 6.31641 239.334 7.49609V7.67773C239.334 8.86133 239.492 9.89648 239.809 10.7832C240.125 11.6699 240.572 12.332 241.15 12.7695L240.822 13.666C240.291 13.4277 239.795 13.0059 239.334 12.4004C238.877 11.7988 238.527 11.1035 238.285 10.3145C238.043 9.52539 237.914 8.70117 237.898 7.8418V7.53125ZM242.152 11V2.46875H245.141C246.176 2.46875 246.961 2.66797 247.496 3.06641C248.031 3.46094 248.299 4.04102 248.299 4.80664C248.299 5.22461 248.191 5.59375 247.977 5.91406C247.762 6.23047 247.463 6.46289 247.08 6.61133C247.518 6.7207 247.861 6.94141 248.111 7.27344C248.365 7.60547 248.492 8.01172 248.492 8.49219C248.492 9.3125 248.23 9.93359 247.707 10.3555C247.184 10.7773 246.438 10.9922 245.469 11H242.152ZM243.91 7.28516V9.58789H245.416C245.83 9.58789 246.152 9.49023 246.383 9.29492C246.617 9.0957 246.734 8.82227 246.734 8.47461C246.734 7.69336 246.33 7.29688 245.521 7.28516H243.91ZM243.91 6.04297H245.211C246.098 6.02734 246.541 5.67383 246.541 4.98242C246.541 4.5957 246.428 4.31836 246.201 4.15039C245.979 3.97852 245.625 3.89258 245.141 3.89258H243.91V6.04297ZM249.441 7.77148C249.441 7.14258 249.562 6.58203 249.805 6.08984C250.047 5.59766 250.395 5.2168 250.848 4.94727C251.305 4.67773 251.834 4.54297 252.436 4.54297C253.291 4.54297 253.988 4.80469 254.527 5.32812C255.07 5.85156 255.373 6.5625 255.436 7.46094L255.447 7.89453C255.447 8.86719 255.176 9.64844 254.633 10.2383C254.09 10.8242 253.361 11.1172 252.447 11.1172C251.533 11.1172 250.803 10.8242 250.256 10.2383C249.713 9.65234 249.441 8.85547 249.441 7.84766V7.77148ZM251.135 7.89453C251.135 8.49609 251.248 8.95703 251.475 9.27734C251.701 9.59375 252.025 9.75195 252.447 9.75195C252.857 9.75195 253.178 9.5957 253.408 9.2832C253.639 8.9668 253.754 8.46289 253.754 7.77148C253.754 7.18164 253.639 6.72461 253.408 6.40039C253.178 6.07617 252.854 5.91406 252.436 5.91406C252.021 5.91406 251.701 6.07617 251.475 6.40039C251.248 6.7207 251.135 7.21875 251.135 7.89453ZM262.203 7.88867C262.203 8.9043 261.986 9.69727 261.553 10.2676C261.119 10.834 260.514 11.1172 259.736 11.1172C259.049 11.1172 258.5 10.8535 258.09 10.3262L258.014 11H256.49V2H258.184V5.22852C258.574 4.77148 259.088 4.54297 259.725 4.54297C260.498 4.54297 261.104 4.82812 261.541 5.39844C261.982 5.96484 262.203 6.76367 262.203 7.79492V7.88867ZM260.51 7.76562C260.51 7.125 260.408 6.6582 260.205 6.36523C260.002 6.06836 259.699 5.91992 259.297 5.91992C258.758 5.91992 258.387 6.14062 258.184 6.58203V9.08398C258.391 9.5293 258.766 9.75195 259.309 9.75195C259.855 9.75195 260.215 9.48242 260.387 8.94336C260.469 8.68555 260.51 8.29297 260.51 7.76562ZM266.17 7.66602C266.17 8.54883 266.043 9.39844 265.789 10.2148C265.535 11.0312 265.17 11.752 264.693 12.377C264.217 13.002 263.707 13.4316 263.164 13.666L262.836 12.7695C263.391 12.3516 263.828 11.707 264.148 10.8359C264.469 9.96484 264.635 8.96289 264.646 7.83008V7.51953C264.646 6.35156 264.486 5.32227 264.166 4.43164C263.85 3.54102 263.406 2.87305 262.836 2.42773L263.164 1.53125C263.695 1.76172 264.195 2.17969 264.664 2.78516C265.137 3.39062 265.502 4.0957 265.76 4.90039C266.021 5.70508 266.158 6.53906 266.17 7.40234V7.66602Z" fill="black"/>
<path d="M62.2907 66.2951C61.9014 66.6869 61.9034 67.32 62.2951 67.7093L68.6791 74.0532C69.0708 74.4425 69.704 74.4405 70.0933 74.0488C70.4826 73.657 70.4806 73.0239 70.0888 72.6346L64.4142 66.9956L70.0532 61.3209C70.4425 60.9292 70.4405 60.296 70.0488 59.9067C69.657 59.5174 69.0239 59.5194 68.6346 59.9112L62.2907 66.2951ZM63.0031 68L222.003 67.5L221.997 65.5L62.9969 66L63.0031 68Z" fill="black"/>
<path d="M271.793 65.7929C271.402 66.1834 271.402 66.8166 271.793 67.2071L278.157 73.5711C278.547 73.9616 279.181 73.9616 279.571 73.5711C279.962 73.1805 279.962 72.5474 279.571 72.1569L273.914 66.5L279.571 60.8431C279.962 60.4526 279.962 59.8195 279.571 59.4289C279.181 59.0384 278.547 59.0384 278.157 59.4289L271.793 65.7929ZM272.5 67.5H434V65.5H272.5V67.5Z" fill="black"/>
</svg>
