<?xml version="1.0" encoding="UTF-8" standalone="no"?>
<!-- Created with Inkscape (http://www.inkscape.org/) -->

<svg
   xmlns:dc="http://purl.org/dc/elements/1.1/"
   xmlns:cc="http://creativecommons.org/ns#"
   xmlns:rdf="http://www.w3.org/1999/02/22-rdf-syntax-ns#"
   xmlns:svg="http://www.w3.org/2000/svg"
   xmlns="http://www.w3.org/2000/svg"
   xmlns:sodipodi="http://sodipodi.sourceforge.net/DTD/sodipodi-0.dtd"
   xmlns:inkscape="http://www.inkscape.org/namespaces/inkscape"
   width="56.569984mm"
   height="28.929562mm"
   viewBox="0 0 56.569984 28.929562"
   version="1.1"
   id="svg1278"
   inkscape:version="0.92.4 (5da689c313, 2019-01-14)"
   sodipodi:docname="eye.svg">
  <defs
     id="defs1272" />
  <sodipodi:namedview
     id="base"
     pagecolor="#ffffff"
     bordercolor="#666666"
     borderopacity="1.0"
     inkscape:pageopacity="0.0"
     inkscape:pageshadow="2"
     inkscape:zoom="3.959798"
     inkscape:cx="69.118555"
     inkscape:cy="92.881265"
     inkscape:document-units="mm"
     inkscape:current-layer="layer1"
     showgrid="false"
     inkscape:snap-object-midpoints="true"
     inkscape:snap-center="true"
     inkscape:object-paths="true"
     showguides="true"
     inkscape:guide-bbox="true"
     inkscape:window-width="1716"
     inkscape:window-height="1386"
     inkscape:window-x="1720"
     inkscape:window-y="24"
     inkscape:window-maximized="0">
    <sodipodi:guide
       position="28.284991,14.46478"
       orientation="1,0"
       id="guide1842"
       inkscape:locked="false" />
    <sodipodi:guide
       position="28.284989,14.46478"
       orientation="0,1"
       id="guide1845"
       inkscape:locked="false" />
  </sodipodi:namedview>
  <metadata
     id="metadata1275">
    <rdf:RDF>
      <cc:Work
         rdf:about="">
        <dc:format>image/svg+xml</dc:format>
        <dc:type
           rdf:resource="http://purl.org/dc/dcmitype/StillImage" />
        <dc:title></dc:title>
      </cc:Work>
    </rdf:RDF>
  </metadata>
  <g
     inkscape:label="Layer 1"
     inkscape:groupmode="layer"
     id="layer1"
     transform="translate(-49.891345,-93.041129)">
    <path
       style="fill:none;stroke:#000000;stroke-width:1;stroke-linecap:square;stroke-linejoin:miter;stroke-miterlimit:4;stroke-dasharray:none"
       d="m 78.176336,93.54113 a 34.477766,34.477766 0 0 0 -27.66291,13.96711 34.477766,34.477766 0 0 0 27.66291,13.96245 A 34.477766,34.477766 0 0 0 105.83925,107.5041 34.477766,34.477766 0 0 0 78.176336,93.54113 Z"
       id="path1825"
       inkscape:connector-curvature="0" />
    <path
       style="fill:none;stroke:#000000;stroke-width:0.89121526;stroke-linecap:square;stroke-linejoin:miter;stroke-miterlimit:4;stroke-dasharray:none"
       d="m 78.176152,99.968694 a 7.5372006,7.5372006 0 0 0 -7.537032,7.537406 7.5372006,7.5372006 0 0 0 7.537032,7.53703 7.5372006,7.5372006 0 0 0 3.631997,-0.94218 2.8823926,2.8823926 0 0 1 -0.368468,0.0273 2.8823926,2.8823926 0 0 1 -2.882165,-2.88216 2.8823926,2.8823926 0 0 1 2.882165,-2.88253 2.8823926,2.8823926 0 0 1 2.882533,2.88253 2.8823926,2.8823926 0 0 1 -0.102435,0.74909 7.5372006,7.5372006 0 0 0 1.493774,-4.48905 7.5372006,7.5372006 0 0 0 -7.537401,-7.537402 z"
       id="path1847"
       inkscape:connector-curvature="0" />
    <circle
       style="fill:none;stroke:#000000;stroke-width:1;stroke-linecap:square;stroke-linejoin:miter;stroke-miterlimit:4;stroke-dasharray:none"
       id="path1871"
       cx="78.176338"
       cy="107.50591"
       r="12.331473" />
  </g>
</svg>
