<svg width="189" height="189" viewBox="0 0 189 189" fill="none" xmlns="http://www.w3.org/2000/svg">
<path d="M16.9639 16.7921C16.9639 16.7921 40.2907 27.1316 42.8095 42.675C45.3282 58.2183 16.9639 94.4407 16.9639 94.4407C16.9639 94.4407 29.1878 132.565 42.8095 146.207C56.4312 159.848 94.5002 172.09 94.5002 172.09C94.5002 172.09 132.569 159.849 146.191 146.207C159.813 132.565 172.036 94.4407 172.036 94.4407C172.036 94.4407 143.673 58.2182 146.191 42.675C148.71 27.1317 172.036 16.7921 172.036 16.7921L120.346 42.675C120.346 42.675 147.198 78.5788 146.191 94.4407C145.184 110.303 125.346 125.578 125.346 125.578L94.5002 146.207L61.2799 126.773C61.2799 126.773 43.2527 110.289 42.8095 94.4407C42.3666 78.5927 68.6549 42.675 68.6549 42.675L16.9639 16.7921Z" fill="black"/>
<path d="M16.9639 16.7921C16.9639 16.7921 40.2907 27.1316 42.8095 42.675C45.3282 58.2183 16.9639 94.4407 16.9639 94.4407C16.9639 94.4407 29.1878 132.565 42.8095 146.207C56.4312 159.848 94.5002 172.09 94.5002 172.09C94.5002 172.09 132.569 159.849 146.191 146.207C159.813 132.565 172.036 94.4407 172.036 94.4407C172.036 94.4407 143.673 58.2182 146.191 42.675C148.71 27.1317 172.036 16.7921 172.036 16.7921L120.346 42.675C120.346 42.675 147.198 78.5788 146.191 94.4407C145.184 110.303 125.346 125.578 125.346 125.578L94.5002 146.207L61.2799 126.773C61.2799 126.773 43.2527 110.289 42.8095 94.4407C42.3666 78.5927 68.6549 42.675 68.6549 42.675L16.9639 16.7921" stroke="black" stroke-width="0.1"/>
<path d="M94.5002 120.324C108.774 120.324 120.346 108.736 120.346 94.4407C120.346 80.1459 108.774 68.5577 94.5002 68.5577C80.2261 68.5577 68.6548 80.1459 68.6548 94.4407C68.6548 108.736 80.2261 120.324 94.5002 120.324Z" fill="black" stroke="black" stroke-width="0.1"/>
<g opacity="0.15">
<path d="M1.1604 0.953552C1.1604 0.953552 29.2418 13.4005 32.2739 32.1119C35.306 50.8233 1.1604 94.4286 1.1604 94.4286C1.1604 94.4286 15.8758 140.324 32.2739 156.746C48.6721 173.168 94.5003 187.905 94.5003 187.905C94.5003 187.905 140.329 173.168 156.727 156.746C173.125 140.324 187.84 94.4286 187.84 94.4286C187.84 94.4286 153.695 50.8232 156.727 32.1119C159.759 13.4006 187.84 0.953552 187.84 0.953552L125.614 32.1119C125.614 32.1119 157.939 75.3338 156.727 94.4286C155.515 113.523 131.634 131.912 131.634 131.912L94.5003 156.746L54.509 133.351C54.509 133.351 32.8075 113.507 32.2739 94.4286C31.7408 75.3504 63.3871 32.1119 63.3871 32.1119L1.1604 0.953552Z" fill="black"/>
<path d="M1.1604 0.953552C1.1604 0.953552 29.2418 13.4005 32.2739 32.1119C35.3061 50.8233 1.1604 94.4285 1.1604 94.4285C1.1604 94.4285 15.8758 140.324 32.2739 156.746C48.6721 173.168 94.5003 187.905 94.5003 187.905C94.5003 187.905 140.329 173.168 156.727 156.746C173.125 140.324 187.84 94.4286 187.84 94.4286C187.84 94.4286 153.695 50.8232 156.727 32.1119C159.759 13.4006 187.84 0.953552 187.84 0.953552L125.614 32.1119C125.614 32.1119 157.939 75.3338 156.727 94.4286C155.515 113.524 131.634 131.912 131.634 131.912L94.5003 156.746L54.509 133.351C54.509 133.351 32.8075 113.507 32.2739 94.4286C31.7408 75.3504 63.3871 32.1119 63.3871 32.1119L1.1604 0.953552" stroke="black" stroke-width="0.1"/>
<path d="M94.5004 125.587C111.684 125.587 125.614 111.637 125.614 94.4286C125.614 77.2202 111.684 63.2701 94.5004 63.2701C77.317 63.2701 63.3872 77.2202 63.3872 94.4286C63.3872 111.637 77.317 125.587 94.5004 125.587Z" fill="black" stroke="black" stroke-width="0.1"/>
</g>
</svg>
