<?xml version="1.0" encoding="UTF-8" standalone="no"?>
<svg
   xmlns:dc="http://purl.org/dc/elements/1.1/"
   xmlns:cc="http://creativecommons.org/ns#"
   xmlns:rdf="http://www.w3.org/1999/02/22-rdf-syntax-ns#"
   xmlns:svg="http://www.w3.org/2000/svg"
   xmlns="http://www.w3.org/2000/svg"
   xmlns:sodipodi="http://sodipodi.sourceforge.net/DTD/sodipodi-0.dtd"
   xmlns:inkscape="http://www.inkscape.org/namespaces/inkscape"
   width="259.10416"
   height="259.10416"
   viewBox="0 0 259.10416 259.10416"
   version="1.1"
   id="svg1150"
   sodipodi:docname="logo_shadowed_circle.svg"
   style="fill:none"
   inkscape:version="0.92.4 (5da689c313, 2019-01-14)"
   inkscape:export-filename="/home/user/dev/kalita/assets/logo_shadowed_circle.png"
   inkscape:export-xdpi="189.69977"
   inkscape:export-ydpi="189.69977">
  <metadata
     id="metadata1156">
    <rdf:RDF>
      <cc:Work
         rdf:about="">
        <dc:format>image/svg+xml</dc:format>
        <dc:type
           rdf:resource="http://purl.org/dc/dcmitype/StillImage" />
        <dc:title></dc:title>
      </cc:Work>
    </rdf:RDF>
  </metadata>
  <defs
     id="defs1154" />
  <sodipodi:namedview
     pagecolor="#ffffff"
     bordercolor="#666666"
     borderopacity="1"
     objecttolerance="10"
     gridtolerance="10"
     guidetolerance="10"
     inkscape:pageopacity="0"
     inkscape:pageshadow="2"
     inkscape:window-width="1143"
     inkscape:window-height="1386"
     id="namedview1152"
     showgrid="false"
     inkscape:snap-object-midpoints="true"
     inkscape:snap-center="true"
     inkscape:zoom="2.1998878"
     inkscape:cx="180.27048"
     inkscape:cy="87.645241"
     inkscape:window-x="1146"
     inkscape:window-y="24"
     inkscape:window-maximized="0"
     inkscape:current-layer="svg1150" />
  <circle
     style="fill:#cb1f00;fill-opacity:1;stroke:none;stroke-width:8.14491749;stroke-linecap:butt;stroke-linejoin:round;stroke-miterlimit:4;stroke-dasharray:none"
     id="path1158"
     cx="129.55208"
     cy="129.55208"
     r="129.55208" />
  <path
     d="m 52.016032,51.89972 c 0,0 23.3268,10.3395 25.8456,25.8829 2.5187,15.5433 -25.8456,51.7657 -25.8456,51.7657 0,0 12.2239,38.1243 25.8456,51.7663 13.6217,13.641 51.690698,25.883 51.690698,25.883 0,0 38.0688,-12.241 51.6908,-25.883 13.622,-13.642 25.845,-51.7663 25.845,-51.7663 0,0 -28.363,-36.2225 -25.845,-51.7657 2.519,-15.5433 25.845,-25.8829 25.845,-25.8829 l -51.69,25.8829 c 0,0 26.852,35.9038 25.845,51.7657 -1.007,15.8623 -20.845,31.1373 -20.845,31.1373 l -30.8458,20.629 -33.220298,-19.434 c 0,0 -18.0272,-16.484 -18.4704,-32.3323 -0.4429,-15.848 25.845398,-51.7657 25.845398,-51.7657 z"
     id="path1136"
     inkscape:connector-curvature="0"
     style="fill:#000000" />
  <path
     d="m 52.016032,51.89972 c 0,0 23.3268,10.3395 25.8456,25.8829 2.5187,15.5433 -25.8456,51.7657 -25.8456,51.7657 0,0 12.2239,38.1243 25.8456,51.7663 13.6217,13.641 51.690698,25.883 51.690698,25.883 0,0 38.0688,-12.241 51.6908,-25.883 13.622,-13.642 25.845,-51.7663 25.845,-51.7663 0,0 -28.363,-36.2225 -25.845,-51.7657 2.519,-15.5433 25.845,-25.8829 25.845,-25.8829 l -51.69,25.8829 c 0,0 26.852,35.9038 25.845,51.7657 -1.007,15.8623 -20.845,31.1373 -20.845,31.1373 l -30.8458,20.629 -33.220298,-19.434 c 0,0 -18.0272,-16.484 -18.4704,-32.3323 -0.4429,-15.848 25.845398,-51.7657 25.845398,-51.7657 L 52.016032,51.89972"
     id="path1138"
     inkscape:connector-curvature="0"
     style="stroke:#000000;stroke-width:0.1" />
  <path
     d="m 129.55233,155.43162 c 14.2738,0 25.8458,-11.588 25.8458,-25.8833 0,-14.2948 -11.572,-25.883 -25.8458,-25.883 -14.2741,0 -25.8454,11.5882 -25.8454,25.883 0,14.2953 11.5713,25.8833 25.8454,25.8833 z"
     id="path1140"
     inkscape:connector-curvature="0"
     style="fill:#000000;stroke:#000000;stroke-width:0.1" />
  <g
     id="g1148"
     style="opacity:0.15"
     transform="translate(35.052132,35.10762)">
    <path
       d="m 1.1604,0.953552 c 0,0 28.0814,12.446948 31.1135,31.158348 3.0321,18.7114 -31.1135,62.3167 -31.1135,62.3167 0,0 14.7154,45.8954 31.1135,62.3174 16.3982,16.422 62.2264,31.159 62.2264,31.159 0,0 45.8287,-14.737 62.2267,-31.159 16.398,-16.422 31.113,-62.3174 31.113,-62.3174 0,0 -34.145,-43.6054 -31.113,-62.3167 C 159.759,13.4006 187.84,0.953552 187.84,0.953552 L 125.614,32.1119 c 0,0 32.325,43.2219 31.113,62.3167 -1.212,19.0944 -25.093,37.4834 -25.093,37.4834 L 94.5003,156.746 54.509,133.351 c 0,0 -21.7015,-19.844 -22.2351,-38.9224 C 31.7408,75.3504 63.3871,32.1119 63.3871,32.1119 Z"
       id="path1142"
       inkscape:connector-curvature="0"
       style="fill:#000000" />
    <path
       d="m 1.1604,0.953552 c 0,0 28.0814,12.446948 31.1135,31.158348 3.0322,18.7114 -31.1135,62.3166 -31.1135,62.3166 0,0 14.7154,45.8955 31.1135,62.3175 16.3982,16.422 62.2264,31.159 62.2264,31.159 0,0 45.8287,-14.737 62.2267,-31.159 16.398,-16.422 31.113,-62.3174 31.113,-62.3174 0,0 -34.145,-43.6054 -31.113,-62.3167 C 159.759,13.4006 187.84,0.953552 187.84,0.953552 L 125.614,32.1119 c 0,0 32.325,43.2219 31.113,62.3167 -1.212,19.0954 -25.093,37.4834 -25.093,37.4834 L 94.5003,156.746 54.509,133.351 c 0,0 -21.7015,-19.844 -22.2351,-38.9224 C 31.7408,75.3504 63.3871,32.1119 63.3871,32.1119 L 1.1604,0.953552"
       id="path1144"
       inkscape:connector-curvature="0"
       style="stroke:#000000;stroke-width:0.1" />
    <path
       d="m 94.5004,125.587 c 17.1836,0 31.1136,-13.95 31.1136,-31.1584 0,-17.2084 -13.93,-31.1585 -31.1136,-31.1585 -17.1834,0 -31.1132,13.9501 -31.1132,31.1585 0,17.2084 13.9298,31.1584 31.1132,31.1584 z"
       id="path1146"
       inkscape:connector-curvature="0"
       style="fill:#000000;stroke:#000000;stroke-width:0.1" />
  </g>
</svg>
