<?xml version="1.0" encoding="UTF-8" standalone="no"?>
<!-- Created with Inkscape (http://www.inkscape.org/) -->

<svg
   xmlns:dc="http://purl.org/dc/elements/1.1/"
   xmlns:cc="http://creativecommons.org/ns#"
   xmlns:rdf="http://www.w3.org/1999/02/22-rdf-syntax-ns#"
   xmlns:svg="http://www.w3.org/2000/svg"
   xmlns="http://www.w3.org/2000/svg"
   xmlns:sodipodi="http://sodipodi.sourceforge.net/DTD/sodipodi-0.dtd"
   xmlns:inkscape="http://www.inkscape.org/namespaces/inkscape"
   width="33.70583mm"
   height="45.057705mm"
   viewBox="0 0 33.70583 45.057705"
   version="1.1"
   id="svg8"
   sodipodi:docname="secret_document.svg"
   inkscape:version="0.92.4 (5da689c313, 2019-01-14)">
  <defs
     id="defs2" />
  <sodipodi:namedview
     id="base"
     pagecolor="#ffffff"
     bordercolor="#666666"
     borderopacity="1.0"
     inkscape:pageopacity="0.0"
     inkscape:pageshadow="2"
     inkscape:zoom="1.4"
     inkscape:cx="-149.2552"
     inkscape:cy="80.676294"
     inkscape:document-units="mm"
     inkscape:current-layer="layer1"
     showgrid="false"
     inkscape:snap-object-midpoints="false"
     inkscape:snap-center="true"
     inkscape:object-paths="true"
     showguides="true"
     inkscape:guide-bbox="true"
     inkscape:snap-intersection-paths="true"
     inkscape:snap-smooth-nodes="true"
     inkscape:window-width="3436"
     inkscape:window-height="1386"
     inkscape:window-x="0"
     inkscape:window-y="24"
     inkscape:window-maximized="0">
    <sodipodi:guide
       position="88.081268,-83.111693"
       orientation="0,1"
       id="guide887"
       inkscape:locked="false" />
  </sodipodi:namedview>
  <metadata
     id="metadata5">
    <rdf:RDF>
      <cc:Work
         rdf:about="">
        <dc:format>image/svg+xml</dc:format>
        <dc:type
           rdf:resource="http://purl.org/dc/dcmitype/StillImage" />
        <dc:title></dc:title>
      </cc:Work>
    </rdf:RDF>
  </metadata>
  <g
     inkscape:label="Layer 1"
     inkscape:groupmode="layer"
     id="layer1"
     transform="translate(-31.52184,17.990801)">
    <path
       style="fill:#ffffff;stroke:#000000;stroke-width:0.74515665;stroke-linecap:butt;stroke-linejoin:round;stroke-miterlimit:4;stroke-dasharray:none"
       d="m 60.089077,-17.618223 v 8.2549465 h 4.766015 z"
       id="path2028"
       inkscape:connector-curvature="0" />
    <path
       style="fill:#ffffff;stroke:#000000;stroke-width:0.74515665;stroke-linecap:butt;stroke-linejoin:round;stroke-miterlimit:4;stroke-dasharray:none"
       d="m 33.757388,-17.618223 c -1.03204,0 -1.86297,0.830739 -1.86297,1.862779 v 40.5868 c 0,1.032039 0.83093,1.86297 1.86297,1.86297 h 29.234734 c 1.03204,0 1.86297,-0.830931 1.86297,-1.86297 V -9.3632765 h -4.766015 v -8.2549465 z"
       id="rect1988"
       inkscape:connector-curvature="0" />
    <g
       id="g2014"
       transform="matrix(0.51953705,0,0,0.51953705,-36.24985,18.951983)">
      <path
         inkscape:connector-curvature="0"
         id="path836-3"
         d="m 162.88464,-54.860298 a 11.433779,11.433779 0 0 0 -11.43393,11.43341 11.433779,11.433779 0 0 0 0.0946,1.378212 v 17.898649 h 5.66994 v -9.363769 -9.913092 a 5.669643,5.669643 0 0 1 5.66942,-5.66942 5.669643,5.669643 0 0 1 5.66994,5.66942 v 19.276861 h 5.66941 v -17.896067 a 11.433779,11.433779 0 0 0 0.0946,-1.380794 11.433779,11.433779 0 0 0 -11.43392,-11.43341 z"
         style="fill:#ffffff;stroke:#000000;stroke-width:2;stroke-linecap:butt;stroke-linejoin:round;stroke-miterlimit:4;stroke-dasharray:none" />
      <rect
         rx="4.99999"
         y="-31.14221"
         x="145.30875"
         height="30.514912"
         width="35.151787"
         id="rect817-6"
         style="fill:#ffffff;stroke:#000000;stroke-width:2;stroke-linecap:butt;stroke-linejoin:round;stroke-miterlimit:4;stroke-dasharray:none" />
      <path
         inkscape:connector-curvature="0"
         id="path889-7"
         d="m 162.88464,-22.924636 a 3.4254091,3.4254091 0 0 0 -3.42563,3.425634 3.4254091,3.4254091 0 0 0 1.03973,2.452563 v 8.2015705 h 4.7718 v -8.1964035 a 3.4254091,3.4254091 0 0 0 1.03973,-2.45773 3.4254091,3.4254091 0 0 0 -3.42563,-3.425634 z"
         style="fill:#ffffff;stroke:#000000;stroke-width:2;stroke-linecap:butt;stroke-linejoin:round;stroke-miterlimit:4;stroke-dasharray:none" />
    </g>
  </g>
</svg>
