<svg width="562" height="532" viewBox="0 0 562 532" fill="none" xmlns="http://www.w3.org/2000/svg">
<rect width="562" height="532" fill="white"/>
<rect x="43.5" y="110.5" width="457" height="392" rx="9.5" fill="white" stroke="black"/>
<path d="M222.928 23.0126H197.072C191.516 23.0126 187.012 27.5178 187.012 33.0753V72.9248C187.012 78.4823 191.516 82.9875 197.072 82.9875H222.928C228.484 82.9875 232.988 78.4823 232.988 72.9248V33.0753C232.988 27.5178 228.484 23.0126 222.928 23.0126Z" fill="white" stroke="black" stroke-width="2" stroke-linejoin="round"/>
<path d="M195.361 33.6976H224.639" stroke="black" stroke-width="2"/>
<path d="M195.361 73.4439H224.639" stroke="black" stroke-width="2"/>
<path d="M211.328 62.4139H224.639M195.361 62.4139H205.496H195.361Z" stroke="black" stroke-width="2"/>
<path d="M210.067 42.9211H224.639M195.361 42.9211H204.152H195.361Z" stroke="black" stroke-width="2"/>
<path d="M217.159 53H224.639M195.361 53H210H195.361Z" stroke="black" stroke-width="2"/>
<path d="M184.443 90.4688L187.232 97.4297L190.021 90.4688H191.48V99H190.355V95.6777L190.461 92.0918L187.66 99H186.799L184.004 92.1094L184.115 95.6777V99H182.99V90.4688H184.443ZM194.322 92.6602L194.357 93.457C194.842 92.8477 195.475 92.543 196.256 92.543C197.596 92.543 198.271 93.2988 198.283 94.8105V99H197.199V94.8047C197.195 94.3477 197.09 94.0098 196.883 93.791C196.68 93.5723 196.361 93.4629 195.928 93.4629C195.576 93.4629 195.268 93.5566 195.002 93.7441C194.736 93.9316 194.529 94.1777 194.381 94.4824V99H193.297V92.6602H194.322ZM202.549 99.1172C201.689 99.1172 200.99 98.8359 200.451 98.2734C199.912 97.707 199.643 96.9512 199.643 96.0059V95.8066C199.643 95.1777 199.762 94.6172 200 94.125C200.242 93.6289 200.578 93.2422 201.008 92.9648C201.441 92.6836 201.91 92.543 202.414 92.543C203.238 92.543 203.879 92.8145 204.336 93.3574C204.793 93.9004 205.021 94.6777 205.021 95.6895V96.1406H200.727C200.742 96.7656 200.924 97.2715 201.271 97.6582C201.623 98.041 202.068 98.2324 202.607 98.2324C202.99 98.2324 203.314 98.1543 203.58 97.998C203.846 97.8418 204.078 97.6348 204.277 97.377L204.939 97.8926C204.408 98.709 203.611 99.1172 202.549 99.1172ZM202.414 93.4336C201.977 93.4336 201.609 93.5938 201.312 93.9141C201.016 94.2305 200.832 94.6758 200.762 95.25H203.938V95.168C203.906 94.6172 203.758 94.1914 203.492 93.8906C203.227 93.5859 202.867 93.4336 202.414 93.4336ZM207.301 92.6602L207.33 93.3633C207.795 92.8164 208.422 92.543 209.211 92.543C210.098 92.543 210.701 92.8828 211.021 93.5625C211.232 93.2578 211.506 93.0117 211.842 92.8242C212.182 92.6367 212.582 92.543 213.043 92.543C214.434 92.543 215.141 93.2793 215.164 94.752V99H214.08V94.8164C214.08 94.3633 213.977 94.0254 213.77 93.8027C213.562 93.5762 213.215 93.4629 212.727 93.4629C212.324 93.4629 211.99 93.584 211.725 93.8262C211.459 94.0645 211.305 94.3867 211.262 94.793V99H210.172V94.8457C210.172 93.9238 209.721 93.4629 208.818 93.4629C208.107 93.4629 207.621 93.7656 207.359 94.3711V99H206.275V92.6602H207.301ZM216.518 95.7715C216.518 95.1504 216.639 94.5918 216.881 94.0957C217.127 93.5996 217.467 93.2168 217.9 92.9473C218.338 92.6777 218.836 92.543 219.395 92.543C220.258 92.543 220.955 92.8418 221.486 93.4395C222.021 94.0371 222.289 94.832 222.289 95.8242V95.9004C222.289 96.5176 222.17 97.0723 221.932 97.5645C221.697 98.0527 221.359 98.4336 220.918 98.707C220.48 98.9805 219.977 99.1172 219.406 99.1172C218.547 99.1172 217.85 98.8184 217.314 98.2207C216.783 97.623 216.518 96.832 216.518 95.8477V95.7715ZM217.607 95.9004C217.607 96.6035 217.77 97.168 218.094 97.5938C218.422 98.0195 218.859 98.2324 219.406 98.2324C219.957 98.2324 220.395 98.0176 220.719 97.5879C221.043 97.1543 221.205 96.5488 221.205 95.7715C221.205 95.0762 221.039 94.5137 220.707 94.084C220.379 93.6504 219.941 93.4336 219.395 93.4336C218.859 93.4336 218.428 93.6465 218.1 94.0723C217.771 94.498 217.607 95.1074 217.607 95.9004ZM224.674 92.6602L224.709 93.457C225.193 92.8477 225.826 92.543 226.607 92.543C227.947 92.543 228.623 93.2988 228.635 94.8105V99H227.551V94.8047C227.547 94.3477 227.441 94.0098 227.234 93.791C227.031 93.5723 226.713 93.4629 226.279 93.4629C225.928 93.4629 225.619 93.5566 225.354 93.7441C225.088 93.9316 224.881 94.1777 224.732 94.4824V99H223.648V92.6602H224.674ZM231.447 99H230.363V92.6602H231.447V99ZM230.275 90.9785C230.275 90.8027 230.328 90.6543 230.434 90.5332C230.543 90.4121 230.703 90.3516 230.914 90.3516C231.125 90.3516 231.285 90.4121 231.395 90.5332C231.504 90.6543 231.559 90.8027 231.559 90.9785C231.559 91.1543 231.504 91.3008 231.395 91.418C231.285 91.5352 231.125 91.5938 230.914 91.5938C230.703 91.5938 230.543 91.5352 230.434 91.418C230.328 91.3008 230.275 91.1543 230.275 90.9785ZM235.73 98.2324C236.117 98.2324 236.455 98.1152 236.744 97.8809C237.033 97.6465 237.193 97.3535 237.225 97.002H238.25C238.23 97.3652 238.105 97.7109 237.875 98.0391C237.645 98.3672 237.336 98.6289 236.949 98.8242C236.566 99.0195 236.16 99.1172 235.73 99.1172C234.867 99.1172 234.18 98.8301 233.668 98.2559C233.16 97.6777 232.906 96.8887 232.906 95.8887V95.707C232.906 95.0898 233.02 94.541 233.246 94.0605C233.473 93.5801 233.797 93.207 234.219 92.9414C234.645 92.6758 235.146 92.543 235.725 92.543C236.436 92.543 237.025 92.7559 237.494 93.1816C237.967 93.6074 238.219 94.1602 238.25 94.8398H237.225C237.193 94.4297 237.037 94.0938 236.756 93.832C236.479 93.5664 236.135 93.4336 235.725 93.4336C235.174 93.4336 234.746 93.6328 234.441 94.0312C234.141 94.4258 233.99 94.998 233.99 95.748V95.9531C233.99 96.6836 234.141 97.2461 234.441 97.6406C234.742 98.0352 235.172 98.2324 235.73 98.2324Z" fill="black"/>
<g clip-path="url(#clip0)">
<path d="M221.104 136.004L199.733 157.017C197.351 156.029 194.724 155.768 192.181 156.268C189.638 156.768 187.291 158.006 185.435 159.826C184.199 161.042 183.211 162.488 182.529 164.08C181.847 165.673 181.485 167.381 181.462 169.107C181.439 170.833 181.756 172.544 182.395 174.141C183.034 175.738 183.983 177.191 185.188 178.416C187.62 180.89 190.944 182.287 194.43 182.3C197.916 182.313 201.277 180.941 203.775 178.485C205.63 176.661 206.91 174.334 207.455 171.798C207.999 169.261 207.784 166.628 206.836 164.227L212.047 159.103L212.072 153.994L216.782 153.972L216.805 149.157L221.116 149.136L221.135 145.13L226.284 145.105L229.164 142.274L229.194 135.965L221.104 136.004Z" fill="white" stroke="black" stroke-width="2" stroke-linejoin="round"/>
<path d="M190.808 171.839C191.958 170.69 191.966 168.834 190.828 167.696C189.689 166.557 187.834 166.566 186.684 167.716C185.535 168.865 185.526 170.72 186.664 171.859C187.803 172.998 189.658 172.989 190.808 171.839Z" fill="white" stroke="black" stroke-width="1.23037" stroke-linejoin="round"/>
<path d="M218.236 143.135L218.906 142.465M202.396 158.975L217.303 144.068L202.396 158.975Z" stroke="black"/>
</g>
<g clip-path="url(#clip1)">
<path d="M230.88 153.021C228.922 153.021 227.043 153.792 225.658 155.165C224.272 156.537 223.494 158.399 223.494 160.34C223.497 160.635 223.517 160.93 223.555 161.223V172.681H227.218V166.687V160.34C227.218 159.378 227.604 158.455 228.291 157.774C228.978 157.093 229.909 156.711 230.88 156.711C231.361 156.711 231.838 156.805 232.282 156.987C232.727 157.169 233.13 157.437 233.47 157.774C233.811 158.111 234.08 158.511 234.264 158.951C234.448 159.392 234.543 159.864 234.543 160.34V172.681H238.206V161.224C238.244 160.931 238.264 160.636 238.267 160.34C238.267 158.399 237.489 156.537 236.103 155.165C234.718 153.792 232.839 153.021 230.881 153.021H230.88Z" fill="white" stroke="black" stroke-width="2" stroke-linejoin="round"/>
<path d="M239.005 168.205H222.756C220.973 168.205 219.526 169.638 219.526 171.406V184.539C219.526 186.307 220.973 187.74 222.756 187.74H239.005C240.788 187.74 242.234 186.307 242.234 184.539V171.406C242.234 169.638 240.788 168.205 239.005 168.205Z" fill="white" stroke="black" stroke-width="2" stroke-linejoin="round"/>
<path d="M230.88 173.466C230.59 173.466 230.302 173.522 230.034 173.633C229.765 173.743 229.521 173.904 229.316 174.108C229.11 174.312 228.947 174.553 228.836 174.819C228.725 175.086 228.668 175.371 228.668 175.659C228.668 175.952 228.728 176.242 228.843 176.511C228.958 176.781 229.127 177.025 229.339 177.229V182.479H232.422V177.232C232.634 177.028 232.803 176.783 232.919 176.513C233.034 176.243 233.093 175.952 233.093 175.659C233.093 175.371 233.036 175.086 232.925 174.819C232.814 174.553 232.651 174.312 232.445 174.108C232.24 173.904 231.996 173.743 231.727 173.633C231.459 173.522 231.171 173.466 230.88 173.466Z" fill="white" stroke="black" stroke-width="2" stroke-linejoin="round"/>
</g>
<path d="M180.736 200.197C179.771 199.92 179.068 199.58 178.627 199.178C178.189 198.771 177.971 198.271 177.971 197.678C177.971 197.006 178.238 196.451 178.773 196.014C179.312 195.572 180.012 195.352 180.871 195.352C181.457 195.352 181.979 195.465 182.436 195.691C182.896 195.918 183.252 196.23 183.502 196.629C183.756 197.027 183.883 197.463 183.883 197.936H182.752C182.752 197.42 182.588 197.016 182.26 196.723C181.932 196.426 181.469 196.277 180.871 196.277C180.316 196.277 179.883 196.4 179.57 196.646C179.262 196.889 179.107 197.227 179.107 197.66C179.107 198.008 179.254 198.303 179.547 198.545C179.844 198.783 180.346 199.002 181.053 199.201C181.764 199.4 182.318 199.621 182.717 199.863C183.119 200.102 183.416 200.381 183.607 200.701C183.803 201.021 183.9 201.398 183.9 201.832C183.9 202.523 183.631 203.078 183.092 203.496C182.553 203.91 181.832 204.117 180.93 204.117C180.344 204.117 179.797 204.006 179.289 203.783C178.781 203.557 178.389 203.248 178.111 202.857C177.838 202.467 177.701 202.023 177.701 201.527H178.832C178.832 202.043 179.021 202.451 179.4 202.752C179.783 203.049 180.293 203.197 180.93 203.197C181.523 203.197 181.979 203.076 182.295 202.834C182.611 202.592 182.77 202.262 182.77 201.844C182.77 201.426 182.623 201.104 182.33 200.877C182.037 200.646 181.506 200.42 180.736 200.197ZM190.791 202.506L192.01 197.66H193.094L191.248 204H190.369L188.828 199.195L187.328 204H186.449L184.609 197.66H185.688L186.936 202.406L188.412 197.66H189.285L190.791 202.506ZM198.115 204C198.053 203.875 198.002 203.652 197.963 203.332C197.459 203.855 196.857 204.117 196.158 204.117C195.533 204.117 195.02 203.941 194.617 203.59C194.219 203.234 194.02 202.785 194.02 202.242C194.02 201.582 194.27 201.07 194.77 200.707C195.273 200.34 195.98 200.156 196.891 200.156H197.945V199.658C197.945 199.279 197.832 198.979 197.605 198.756C197.379 198.529 197.045 198.416 196.604 198.416C196.217 198.416 195.893 198.514 195.631 198.709C195.369 198.904 195.238 199.141 195.238 199.418H194.148C194.148 199.102 194.26 198.797 194.482 198.504C194.709 198.207 195.014 197.973 195.396 197.801C195.783 197.629 196.207 197.543 196.668 197.543C197.398 197.543 197.971 197.727 198.385 198.094C198.799 198.457 199.014 198.959 199.029 199.6V202.518C199.029 203.1 199.104 203.562 199.252 203.906V204H198.115ZM196.316 203.174C196.656 203.174 196.979 203.086 197.283 202.91C197.588 202.734 197.809 202.506 197.945 202.225V200.924H197.096C195.768 200.924 195.104 201.312 195.104 202.09C195.104 202.43 195.217 202.695 195.443 202.887C195.67 203.078 195.961 203.174 196.316 203.174ZM206.084 200.9C206.084 201.865 205.863 202.643 205.422 203.232C204.98 203.822 204.383 204.117 203.629 204.117C202.859 204.117 202.254 203.873 201.812 203.385V206.438H200.729V197.66H201.719L201.771 198.363C202.213 197.816 202.826 197.543 203.611 197.543C204.373 197.543 204.975 197.83 205.416 198.404C205.861 198.979 206.084 199.777 206.084 200.801V200.9ZM205 200.777C205 200.062 204.848 199.498 204.543 199.084C204.238 198.67 203.82 198.463 203.289 198.463C202.633 198.463 202.141 198.754 201.812 199.336V202.365C202.137 202.943 202.633 203.232 203.301 203.232C203.82 203.232 204.232 203.027 204.537 202.617C204.846 202.203 205 201.59 205 200.777ZM211.158 202.318C211.158 202.025 211.047 201.799 210.824 201.639C210.605 201.475 210.221 201.334 209.67 201.217C209.123 201.1 208.688 200.959 208.363 200.795C208.043 200.631 207.805 200.436 207.648 200.209C207.496 199.982 207.42 199.713 207.42 199.4C207.42 198.881 207.639 198.441 208.076 198.082C208.518 197.723 209.08 197.543 209.764 197.543C210.482 197.543 211.064 197.729 211.51 198.1C211.959 198.471 212.184 198.945 212.184 199.523H211.094C211.094 199.227 210.967 198.971 210.713 198.756C210.463 198.541 210.146 198.434 209.764 198.434C209.369 198.434 209.061 198.52 208.838 198.691C208.615 198.863 208.504 199.088 208.504 199.365C208.504 199.627 208.607 199.824 208.814 199.957C209.021 200.09 209.395 200.217 209.934 200.338C210.477 200.459 210.916 200.604 211.252 200.771C211.588 200.939 211.836 201.143 211.996 201.381C212.16 201.615 212.242 201.902 212.242 202.242C212.242 202.809 212.016 203.264 211.562 203.607C211.109 203.947 210.521 204.117 209.799 204.117C209.291 204.117 208.842 204.027 208.451 203.848C208.061 203.668 207.754 203.418 207.531 203.098C207.312 202.773 207.203 202.424 207.203 202.049H208.287C208.307 202.412 208.451 202.701 208.721 202.916C208.994 203.127 209.354 203.232 209.799 203.232C210.209 203.232 210.537 203.15 210.783 202.986C211.033 202.818 211.158 202.596 211.158 202.318ZM219.174 203.232C219.561 203.232 219.898 203.115 220.188 202.881C220.477 202.646 220.637 202.354 220.668 202.002H221.693C221.674 202.365 221.549 202.711 221.318 203.039C221.088 203.367 220.779 203.629 220.393 203.824C220.01 204.02 219.604 204.117 219.174 204.117C218.311 204.117 217.623 203.83 217.111 203.256C216.604 202.678 216.35 201.889 216.35 200.889V200.707C216.35 200.09 216.463 199.541 216.689 199.061C216.916 198.58 217.24 198.207 217.662 197.941C218.088 197.676 218.59 197.543 219.168 197.543C219.879 197.543 220.469 197.756 220.938 198.182C221.41 198.607 221.662 199.16 221.693 199.84H220.668C220.637 199.43 220.48 199.094 220.199 198.832C219.922 198.566 219.578 198.434 219.168 198.434C218.617 198.434 218.189 198.633 217.885 199.031C217.584 199.426 217.434 199.998 217.434 200.748V200.953C217.434 201.684 217.584 202.246 217.885 202.641C218.186 203.035 218.615 203.232 219.174 203.232ZM223.996 198.428C224.477 197.838 225.102 197.543 225.871 197.543C227.211 197.543 227.887 198.299 227.898 199.811V204H226.814V199.805C226.811 199.348 226.705 199.01 226.498 198.791C226.295 198.572 225.977 198.463 225.543 198.463C225.191 198.463 224.883 198.557 224.617 198.744C224.352 198.932 224.145 199.178 223.996 199.482V204H222.912V195H223.996V198.428ZM233.436 204C233.373 203.875 233.322 203.652 233.283 203.332C232.779 203.855 232.178 204.117 231.479 204.117C230.854 204.117 230.34 203.941 229.938 203.59C229.539 203.234 229.34 202.785 229.34 202.242C229.34 201.582 229.59 201.07 230.09 200.707C230.594 200.34 231.301 200.156 232.211 200.156H233.266V199.658C233.266 199.279 233.152 198.979 232.926 198.756C232.699 198.529 232.365 198.416 231.924 198.416C231.537 198.416 231.213 198.514 230.951 198.709C230.689 198.904 230.559 199.141 230.559 199.418H229.469C229.469 199.102 229.58 198.797 229.803 198.504C230.029 198.207 230.334 197.973 230.717 197.801C231.104 197.629 231.527 197.543 231.988 197.543C232.719 197.543 233.291 197.727 233.705 198.094C234.119 198.457 234.334 198.959 234.35 199.6V202.518C234.35 203.1 234.424 203.562 234.572 203.906V204H233.436ZM231.637 203.174C231.977 203.174 232.299 203.086 232.604 202.91C232.908 202.734 233.129 202.506 233.266 202.225V200.924H232.416C231.088 200.924 230.424 201.312 230.424 202.09C230.424 202.43 230.537 202.695 230.764 202.887C230.99 203.078 231.281 203.174 231.637 203.174ZM237.227 204H236.143V197.66H237.227V204ZM236.055 195.979C236.055 195.803 236.107 195.654 236.213 195.533C236.322 195.412 236.482 195.352 236.693 195.352C236.904 195.352 237.064 195.412 237.174 195.533C237.283 195.654 237.338 195.803 237.338 195.979C237.338 196.154 237.283 196.301 237.174 196.418C237.064 196.535 236.904 196.594 236.693 196.594C236.482 196.594 236.322 196.535 236.213 196.418C236.107 196.301 236.055 196.154 236.055 195.979ZM239.992 197.66L240.027 198.457C240.512 197.848 241.145 197.543 241.926 197.543C243.266 197.543 243.941 198.299 243.953 199.811V204H242.869V199.805C242.865 199.348 242.76 199.01 242.553 198.791C242.35 198.572 242.031 198.463 241.598 198.463C241.246 198.463 240.938 198.557 240.672 198.744C240.406 198.932 240.199 199.178 240.051 199.482V204H238.967V197.66H239.992Z" fill="black"/>
<path d="M287.395 355.854H286.308L290.464 345.047H291.544L287.395 355.854ZM296.938 355H295.666V346.571L293.116 347.508V346.359L296.739 344.999H296.938V355Z" fill="black"/>
<g clip-path="url(#clip2)">
<path d="M303.104 271.004L281.733 292.017C279.351 291.029 276.724 290.768 274.181 291.268C271.638 291.768 269.291 293.006 267.435 294.826C266.199 296.042 265.211 297.488 264.529 299.08C263.847 300.673 263.485 302.381 263.462 304.107C263.439 305.833 263.756 307.544 264.395 309.141C265.034 310.738 265.983 312.191 267.188 313.416C269.62 315.89 272.944 317.287 276.43 317.3C279.916 317.313 283.277 315.941 285.775 313.485C287.63 311.661 288.91 309.334 289.455 306.798C289.999 304.261 289.784 301.628 288.836 299.227L294.047 294.103L294.072 288.994L298.782 288.972L298.805 284.157L303.116 284.136L303.135 280.13L308.284 280.105L311.164 277.274L311.194 270.965L303.104 271.004Z" fill="white" stroke="black" stroke-width="2" stroke-linejoin="round"/>
<path d="M272.808 306.839C273.958 305.69 273.966 303.834 272.828 302.696C271.689 301.557 269.834 301.566 268.684 302.716C267.535 303.865 267.526 305.72 268.664 306.859C269.803 307.998 271.658 307.989 272.808 306.839Z" fill="white" stroke="black" stroke-width="1.23037" stroke-linejoin="round"/>
<path d="M300.236 278.135L300.906 277.465M284.396 293.975L299.303 279.068L284.396 293.975Z" stroke="black"/>
</g>
<g clip-path="url(#clip3)">
<path d="M312.88 288.021C310.922 288.021 309.043 288.792 307.658 290.164C306.272 291.537 305.494 293.399 305.494 295.34C305.497 295.635 305.517 295.93 305.555 296.223V307.681H309.218V301.687V295.34C309.218 294.378 309.604 293.454 310.291 292.774C310.978 292.093 311.909 291.711 312.88 291.711C313.361 291.711 313.838 291.805 314.282 291.987C314.727 292.169 315.13 292.437 315.47 292.774C315.811 293.111 316.08 293.511 316.264 293.951C316.448 294.392 316.543 294.864 316.543 295.34V307.681H320.206V296.224C320.244 295.931 320.264 295.636 320.267 295.34C320.267 293.399 319.489 291.537 318.103 290.164C316.718 288.792 314.839 288.021 312.881 288.021H312.88Z" fill="white" stroke="black" stroke-width="2" stroke-linejoin="round"/>
<path d="M321.005 303.205H304.756C302.973 303.205 301.526 304.638 301.526 306.406V319.539C301.526 321.307 302.973 322.74 304.756 322.74H321.005C322.788 322.74 324.234 321.307 324.234 319.539V306.406C324.234 304.638 322.788 303.205 321.005 303.205Z" fill="white" stroke="black" stroke-width="2" stroke-linejoin="round"/>
<path d="M312.88 308.466C312.59 308.466 312.302 308.522 312.034 308.633C311.765 308.743 311.521 308.904 311.316 309.108C311.11 309.312 310.947 309.553 310.836 309.819C310.725 310.086 310.668 310.371 310.668 310.659C310.668 310.952 310.728 311.241 310.843 311.511C310.958 311.781 311.127 312.025 311.339 312.229V317.479H314.422V312.232C314.634 312.028 314.803 311.783 314.919 311.513C315.034 311.243 315.093 310.952 315.093 310.659C315.093 310.371 315.036 310.086 314.925 309.819C314.814 309.553 314.651 309.312 314.445 309.108C314.24 308.904 313.996 308.743 313.727 308.633C313.459 308.522 313.171 308.466 312.88 308.466Z" fill="white" stroke="black" stroke-width="2" stroke-linejoin="round"/>
</g>
<path d="M260.939 335.197C259.975 334.92 259.271 334.58 258.83 334.178C258.393 333.771 258.174 333.271 258.174 332.678C258.174 332.006 258.441 331.451 258.977 331.014C259.516 330.572 260.215 330.352 261.074 330.352C261.66 330.352 262.182 330.465 262.639 330.691C263.1 330.918 263.455 331.23 263.705 331.629C263.959 332.027 264.086 332.463 264.086 332.936H262.955C262.955 332.42 262.791 332.016 262.463 331.723C262.135 331.426 261.672 331.277 261.074 331.277C260.52 331.277 260.086 331.4 259.773 331.646C259.465 331.889 259.311 332.227 259.311 332.66C259.311 333.008 259.457 333.303 259.75 333.545C260.047 333.783 260.549 334.002 261.256 334.201C261.967 334.4 262.521 334.621 262.92 334.863C263.322 335.102 263.619 335.381 263.811 335.701C264.006 336.021 264.104 336.398 264.104 336.832C264.104 337.523 263.834 338.078 263.295 338.496C262.756 338.91 262.035 339.117 261.133 339.117C260.547 339.117 260 339.006 259.492 338.783C258.984 338.557 258.592 338.248 258.314 337.857C258.041 337.467 257.904 337.023 257.904 336.527H259.035C259.035 337.043 259.225 337.451 259.604 337.752C259.986 338.049 260.496 338.197 261.133 338.197C261.727 338.197 262.182 338.076 262.498 337.834C262.814 337.592 262.973 337.262 262.973 336.844C262.973 336.426 262.826 336.104 262.533 335.877C262.24 335.646 261.709 335.42 260.939 335.197ZM268.012 339.117C267.152 339.117 266.453 338.836 265.914 338.273C265.375 337.707 265.105 336.951 265.105 336.006V335.807C265.105 335.178 265.225 334.617 265.463 334.125C265.705 333.629 266.041 333.242 266.471 332.965C266.904 332.684 267.373 332.543 267.877 332.543C268.701 332.543 269.342 332.814 269.799 333.357C270.256 333.9 270.484 334.678 270.484 335.689V336.141H266.189C266.205 336.766 266.387 337.271 266.734 337.658C267.086 338.041 267.531 338.232 268.07 338.232C268.453 338.232 268.777 338.154 269.043 337.998C269.309 337.842 269.541 337.635 269.74 337.377L270.402 337.893C269.871 338.709 269.074 339.117 268.012 339.117ZM267.877 333.434C267.439 333.434 267.072 333.594 266.775 333.914C266.479 334.23 266.295 334.676 266.225 335.25H269.4V335.168C269.369 334.617 269.221 334.191 268.955 333.891C268.689 333.586 268.33 333.434 267.877 333.434ZM274.287 338.232C274.674 338.232 275.012 338.115 275.301 337.881C275.59 337.646 275.75 337.354 275.781 337.002H276.807C276.787 337.365 276.662 337.711 276.432 338.039C276.201 338.367 275.893 338.629 275.506 338.824C275.123 339.02 274.717 339.117 274.287 339.117C273.424 339.117 272.736 338.83 272.225 338.256C271.717 337.678 271.463 336.889 271.463 335.889V335.707C271.463 335.09 271.576 334.541 271.803 334.061C272.029 333.58 272.354 333.207 272.775 332.941C273.201 332.676 273.703 332.543 274.281 332.543C274.992 332.543 275.582 332.756 276.051 333.182C276.523 333.607 276.775 334.16 276.807 334.84H275.781C275.75 334.43 275.594 334.094 275.312 333.832C275.035 333.566 274.691 333.434 274.281 333.434C273.73 333.434 273.303 333.633 272.998 334.031C272.697 334.426 272.547 334.998 272.547 335.748V335.953C272.547 336.684 272.697 337.246 272.998 337.641C273.299 338.035 273.729 338.232 274.287 338.232ZM281.09 333.633C280.926 333.605 280.748 333.592 280.557 333.592C279.846 333.592 279.363 333.895 279.109 334.5V339H278.025V332.66H279.08L279.098 333.393C279.453 332.826 279.957 332.543 280.609 332.543C280.82 332.543 280.98 332.57 281.09 332.625V333.633ZM284.605 339.117C283.746 339.117 283.047 338.836 282.508 338.273C281.969 337.707 281.699 336.951 281.699 336.006V335.807C281.699 335.178 281.818 334.617 282.057 334.125C282.299 333.629 282.635 333.242 283.064 332.965C283.498 332.684 283.967 332.543 284.471 332.543C285.295 332.543 285.936 332.814 286.393 333.357C286.85 333.9 287.078 334.678 287.078 335.689V336.141H282.783C282.799 336.766 282.98 337.271 283.328 337.658C283.68 338.041 284.125 338.232 284.664 338.232C285.047 338.232 285.371 338.154 285.637 337.998C285.902 337.842 286.135 337.635 286.334 337.377L286.996 337.893C286.465 338.709 285.668 339.117 284.605 339.117ZM284.471 333.434C284.033 333.434 283.666 333.594 283.369 333.914C283.072 334.23 282.889 334.676 282.818 335.25H285.994V335.168C285.963 334.617 285.814 334.191 285.549 333.891C285.283 333.586 284.924 333.434 284.471 333.434ZM289.809 331.125V332.66H290.992V333.498H289.809V337.43C289.809 337.684 289.861 337.875 289.967 338.004C290.072 338.129 290.252 338.191 290.506 338.191C290.631 338.191 290.803 338.168 291.021 338.121V339C290.736 339.078 290.459 339.117 290.189 339.117C289.705 339.117 289.34 338.971 289.094 338.678C288.848 338.385 288.725 337.969 288.725 337.43V333.498H287.57V332.66H288.725V331.125H289.809ZM295.955 337.318C295.955 337.025 295.844 336.799 295.621 336.639C295.402 336.475 295.018 336.334 294.467 336.217C293.92 336.1 293.484 335.959 293.16 335.795C292.84 335.631 292.602 335.436 292.445 335.209C292.293 334.982 292.217 334.713 292.217 334.4C292.217 333.881 292.436 333.441 292.873 333.082C293.314 332.723 293.877 332.543 294.561 332.543C295.279 332.543 295.861 332.729 296.307 333.1C296.756 333.471 296.98 333.945 296.98 334.523H295.891C295.891 334.227 295.764 333.971 295.51 333.756C295.26 333.541 294.943 333.434 294.561 333.434C294.166 333.434 293.857 333.52 293.635 333.691C293.412 333.863 293.301 334.088 293.301 334.365C293.301 334.627 293.404 334.824 293.611 334.957C293.818 335.09 294.191 335.217 294.73 335.338C295.273 335.459 295.713 335.604 296.049 335.771C296.385 335.939 296.633 336.143 296.793 336.381C296.957 336.615 297.039 336.902 297.039 337.242C297.039 337.809 296.812 338.264 296.359 338.607C295.906 338.947 295.318 339.117 294.596 339.117C294.088 339.117 293.639 339.027 293.248 338.848C292.857 338.668 292.551 338.418 292.328 338.098C292.109 337.773 292 337.424 292 337.049H293.084C293.104 337.412 293.248 337.701 293.518 337.916C293.791 338.127 294.15 338.232 294.596 338.232C295.006 338.232 295.334 338.15 295.58 337.986C295.83 337.818 295.955 337.596 295.955 337.318ZM303.971 338.232C304.357 338.232 304.695 338.115 304.984 337.881C305.273 337.646 305.434 337.354 305.465 337.002H306.49C306.471 337.365 306.346 337.711 306.115 338.039C305.885 338.367 305.576 338.629 305.189 338.824C304.807 339.02 304.4 339.117 303.971 339.117C303.107 339.117 302.42 338.83 301.908 338.256C301.4 337.678 301.146 336.889 301.146 335.889V335.707C301.146 335.09 301.26 334.541 301.486 334.061C301.713 333.58 302.037 333.207 302.459 332.941C302.885 332.676 303.387 332.543 303.965 332.543C304.676 332.543 305.266 332.756 305.734 333.182C306.207 333.607 306.459 334.16 306.49 334.84H305.465C305.434 334.43 305.277 334.094 304.996 333.832C304.719 333.566 304.375 333.434 303.965 333.434C303.414 333.434 302.986 333.633 302.682 334.031C302.381 334.426 302.23 334.998 302.23 335.748V335.953C302.23 336.684 302.381 337.246 302.682 337.641C302.982 338.035 303.412 338.232 303.971 338.232ZM308.793 333.428C309.273 332.838 309.898 332.543 310.668 332.543C312.008 332.543 312.684 333.299 312.695 334.811V339H311.611V334.805C311.607 334.348 311.502 334.01 311.295 333.791C311.092 333.572 310.773 333.463 310.34 333.463C309.988 333.463 309.68 333.557 309.414 333.744C309.148 333.932 308.941 334.178 308.793 334.482V339H307.709V330H308.793V333.428ZM318.232 339C318.17 338.875 318.119 338.652 318.08 338.332C317.576 338.855 316.975 339.117 316.275 339.117C315.65 339.117 315.137 338.941 314.734 338.59C314.336 338.234 314.137 337.785 314.137 337.242C314.137 336.582 314.387 336.07 314.887 335.707C315.391 335.34 316.098 335.156 317.008 335.156H318.062V334.658C318.062 334.279 317.949 333.979 317.723 333.756C317.496 333.529 317.162 333.416 316.721 333.416C316.334 333.416 316.01 333.514 315.748 333.709C315.486 333.904 315.355 334.141 315.355 334.418H314.266C314.266 334.102 314.377 333.797 314.6 333.504C314.826 333.207 315.131 332.973 315.514 332.801C315.9 332.629 316.324 332.543 316.785 332.543C317.516 332.543 318.088 332.727 318.502 333.094C318.916 333.457 319.131 333.959 319.146 334.6V337.518C319.146 338.1 319.221 338.562 319.369 338.906V339H318.232ZM316.434 338.174C316.773 338.174 317.096 338.086 317.4 337.91C317.705 337.734 317.926 337.506 318.062 337.225V335.924H317.213C315.885 335.924 315.221 336.312 315.221 337.09C315.221 337.43 315.334 337.695 315.561 337.887C315.787 338.078 316.078 338.174 316.434 338.174ZM322.023 339H320.939V332.66H322.023V339ZM320.852 330.979C320.852 330.803 320.904 330.654 321.01 330.533C321.119 330.412 321.279 330.352 321.49 330.352C321.701 330.352 321.861 330.412 321.971 330.533C322.08 330.654 322.135 330.803 322.135 330.979C322.135 331.154 322.08 331.301 321.971 331.418C321.861 331.535 321.701 331.594 321.49 331.594C321.279 331.594 321.119 331.535 321.01 331.418C320.904 331.301 320.852 331.154 320.852 330.979ZM324.789 332.66L324.824 333.457C325.309 332.848 325.941 332.543 326.723 332.543C328.062 332.543 328.738 333.299 328.75 334.811V339H327.666V334.805C327.662 334.348 327.557 334.01 327.35 333.791C327.146 333.572 326.828 333.463 326.395 333.463C326.043 333.463 325.734 333.557 325.469 333.744C325.203 333.932 324.996 334.178 324.848 334.482V339H323.764V332.66H324.789Z" fill="black"/>
<line x1="440.875" y1="399.484" x2="293.875" y2="361.484" stroke="black"/>
<path d="M136.395 358.854H135.308L139.464 348.047H140.544L136.395 358.854ZM148.022 353.755C148.022 355.236 147.77 356.337 147.264 357.057C146.758 357.777 145.967 358.137 144.892 358.137C143.83 358.137 143.044 357.786 142.533 357.084C142.023 356.378 141.758 355.325 141.74 353.926V352.237C141.74 350.774 141.993 349.688 142.499 348.977C143.005 348.266 143.798 347.91 144.878 347.91C145.949 347.91 146.737 348.254 147.243 348.942C147.749 349.626 148.009 350.683 148.022 352.114V353.755ZM146.758 352.025C146.758 350.954 146.607 350.175 146.307 349.688C146.006 349.195 145.53 348.949 144.878 348.949C144.231 348.949 143.759 349.193 143.463 349.681C143.167 350.168 143.014 350.918 143.005 351.93V353.953C143.005 355.029 143.16 355.824 143.47 356.339C143.784 356.849 144.258 357.104 144.892 357.104C145.516 357.104 145.979 356.863 146.279 356.38C146.585 355.897 146.744 355.136 146.758 354.097V352.025Z" fill="black"/>
<g clip-path="url(#clip4)">
<path d="M152.104 274.004L130.733 295.017C128.351 294.029 125.724 293.768 123.181 294.268C120.638 294.768 118.291 296.006 116.435 297.826C115.199 299.042 114.211 300.488 113.529 302.08C112.847 303.673 112.485 305.381 112.462 307.107C112.439 308.833 112.756 310.544 113.395 312.141C114.034 313.738 114.983 315.191 116.188 316.416C118.62 318.89 121.944 320.287 125.43 320.3C128.916 320.313 132.277 318.941 134.775 316.485C136.63 314.661 137.91 312.334 138.455 309.798C138.999 307.261 138.784 304.628 137.836 302.227L143.047 297.103L143.072 291.994L147.782 291.972L147.805 287.157L152.116 287.136L152.136 283.13L157.284 283.105L160.164 280.274L160.194 273.965L152.104 274.004Z" fill="white" stroke="black" stroke-width="2" stroke-linejoin="round"/>
<path d="M121.808 309.839C122.958 308.69 122.966 306.834 121.828 305.696C120.689 304.557 118.834 304.566 117.684 305.716C116.535 306.865 116.526 308.72 117.664 309.859C118.803 310.998 120.658 310.989 121.808 309.839Z" fill="white" stroke="black" stroke-width="1.23037" stroke-linejoin="round"/>
<path d="M149.236 281.135L149.906 280.465M133.396 296.975L148.303 282.068L133.396 296.975Z" stroke="black"/>
</g>
<g clip-path="url(#clip5)">
<path d="M161.88 291.021C159.922 291.021 158.043 291.792 156.658 293.164C155.272 294.537 154.494 296.399 154.494 298.34C154.497 298.635 154.517 298.93 154.555 299.223V310.681H158.218V304.687V298.34C158.218 297.378 158.604 296.454 159.291 295.774C159.978 295.093 160.909 294.711 161.88 294.711C162.361 294.711 162.838 294.805 163.282 294.987C163.726 295.169 164.13 295.437 164.47 295.774C164.811 296.111 165.08 296.511 165.264 296.951C165.448 297.392 165.543 297.864 165.543 298.34V310.681H169.206V299.224C169.244 298.931 169.264 298.636 169.267 298.34C169.267 296.399 168.488 294.537 167.103 293.164C165.718 291.792 163.839 291.021 161.88 291.021H161.88Z" fill="white" stroke="black" stroke-width="2" stroke-linejoin="round"/>
<path d="M170.005 306.205H153.756C151.973 306.205 150.526 307.638 150.526 309.406V322.539C150.526 324.307 151.973 325.74 153.756 325.74H170.005C171.788 325.74 173.234 324.307 173.234 322.539V309.406C173.234 307.638 171.788 306.205 170.005 306.205Z" fill="white" stroke="black" stroke-width="2" stroke-linejoin="round"/>
<path d="M161.88 311.466C161.59 311.466 161.302 311.522 161.034 311.633C160.765 311.743 160.521 311.904 160.316 312.108C160.11 312.312 159.947 312.553 159.836 312.819C159.725 313.086 159.668 313.371 159.668 313.659C159.668 313.952 159.728 314.241 159.843 314.511C159.958 314.781 160.127 315.025 160.339 315.229V320.479H163.422V315.232C163.634 315.028 163.803 314.783 163.919 314.513C164.034 314.243 164.093 313.952 164.093 313.659C164.093 313.371 164.036 313.086 163.925 312.819C163.814 312.553 163.651 312.312 163.445 312.108C163.24 311.904 162.996 311.743 162.727 311.633C162.459 311.522 162.171 311.466 161.88 311.466Z" fill="white" stroke="black" stroke-width="2" stroke-linejoin="round"/>
</g>
<path d="M112.293 338.057H108.596V341.08H112.891V342H107.471V333.469H112.832V334.395H108.596V337.137H112.293V338.057ZM117.812 340.318C117.812 340.025 117.701 339.799 117.479 339.639C117.26 339.475 116.875 339.334 116.324 339.217C115.777 339.1 115.342 338.959 115.018 338.795C114.697 338.631 114.459 338.436 114.303 338.209C114.15 337.982 114.074 337.713 114.074 337.4C114.074 336.881 114.293 336.441 114.73 336.082C115.172 335.723 115.734 335.543 116.418 335.543C117.137 335.543 117.719 335.729 118.164 336.1C118.613 336.471 118.838 336.945 118.838 337.523H117.748C117.748 337.227 117.621 336.971 117.367 336.756C117.117 336.541 116.801 336.434 116.418 336.434C116.023 336.434 115.715 336.52 115.492 336.691C115.27 336.863 115.158 337.088 115.158 337.365C115.158 337.627 115.262 337.824 115.469 337.957C115.676 338.09 116.049 338.217 116.588 338.338C117.131 338.459 117.57 338.604 117.906 338.771C118.242 338.939 118.49 339.143 118.65 339.381C118.814 339.615 118.896 339.902 118.896 340.242C118.896 340.809 118.67 341.264 118.217 341.607C117.764 341.947 117.176 342.117 116.453 342.117C115.945 342.117 115.496 342.027 115.105 341.848C114.715 341.668 114.408 341.418 114.186 341.098C113.967 340.773 113.857 340.424 113.857 340.049H114.941C114.961 340.412 115.105 340.701 115.375 340.916C115.648 341.127 116.008 341.232 116.453 341.232C116.863 341.232 117.191 341.15 117.438 340.986C117.688 340.818 117.812 340.596 117.812 340.318ZM122.852 341.232C123.238 341.232 123.576 341.115 123.865 340.881C124.154 340.646 124.314 340.354 124.346 340.002H125.371C125.352 340.365 125.227 340.711 124.996 341.039C124.766 341.367 124.457 341.629 124.07 341.824C123.688 342.02 123.281 342.117 122.852 342.117C121.988 342.117 121.301 341.83 120.789 341.256C120.281 340.678 120.027 339.889 120.027 338.889V338.707C120.027 338.09 120.141 337.541 120.367 337.061C120.594 336.58 120.918 336.207 121.34 335.941C121.766 335.676 122.268 335.543 122.846 335.543C123.557 335.543 124.146 335.756 124.615 336.182C125.088 336.607 125.34 337.16 125.371 337.84H124.346C124.314 337.43 124.158 337.094 123.877 336.832C123.6 336.566 123.256 336.434 122.846 336.434C122.295 336.434 121.867 336.633 121.562 337.031C121.262 337.426 121.111 337.998 121.111 338.748V338.953C121.111 339.684 121.262 340.246 121.562 340.641C121.863 341.035 122.293 341.232 122.852 341.232ZM129.654 336.633C129.49 336.605 129.312 336.592 129.121 336.592C128.41 336.592 127.928 336.895 127.674 337.5V342H126.59V335.66H127.645L127.662 336.393C128.018 335.826 128.521 335.543 129.174 335.543C129.385 335.543 129.545 335.57 129.654 335.625V336.633ZM130.252 338.771C130.252 338.15 130.373 337.592 130.615 337.096C130.861 336.6 131.201 336.217 131.635 335.947C132.072 335.678 132.57 335.543 133.129 335.543C133.992 335.543 134.689 335.842 135.221 336.439C135.756 337.037 136.023 337.832 136.023 338.824V338.9C136.023 339.518 135.904 340.072 135.666 340.564C135.432 341.053 135.094 341.434 134.652 341.707C134.215 341.98 133.711 342.117 133.141 342.117C132.281 342.117 131.584 341.818 131.049 341.221C130.518 340.623 130.252 339.832 130.252 338.848V338.771ZM131.342 338.9C131.342 339.604 131.504 340.168 131.828 340.594C132.156 341.02 132.594 341.232 133.141 341.232C133.691 341.232 134.129 341.018 134.453 340.588C134.777 340.154 134.939 339.549 134.939 338.771C134.939 338.076 134.773 337.514 134.441 337.084C134.113 336.65 133.676 336.434 133.129 336.434C132.594 336.434 132.162 336.646 131.834 337.072C131.506 337.498 131.342 338.107 131.342 338.9ZM142.996 340.506L144.215 335.66H145.299L143.453 342H142.574L141.033 337.195L139.533 342H138.654L136.814 335.66H137.893L139.141 340.406L140.617 335.66H141.49L142.996 340.506ZM151.926 341.232C152.312 341.232 152.65 341.115 152.939 340.881C153.229 340.646 153.389 340.354 153.42 340.002H154.445C154.426 340.365 154.301 340.711 154.07 341.039C153.84 341.367 153.531 341.629 153.145 341.824C152.762 342.02 152.355 342.117 151.926 342.117C151.062 342.117 150.375 341.83 149.863 341.256C149.355 340.678 149.102 339.889 149.102 338.889V338.707C149.102 338.09 149.215 337.541 149.441 337.061C149.668 336.58 149.992 336.207 150.414 335.941C150.84 335.676 151.342 335.543 151.92 335.543C152.631 335.543 153.221 335.756 153.689 336.182C154.162 336.607 154.414 337.16 154.445 337.84H153.42C153.389 337.43 153.232 337.094 152.951 336.832C152.674 336.566 152.33 336.434 151.92 336.434C151.369 336.434 150.941 336.633 150.637 337.031C150.336 337.426 150.186 337.998 150.186 338.748V338.953C150.186 339.684 150.336 340.246 150.637 340.641C150.938 341.035 151.367 341.232 151.926 341.232ZM156.748 336.428C157.229 335.838 157.854 335.543 158.623 335.543C159.963 335.543 160.639 336.299 160.65 337.811V342H159.566V337.805C159.562 337.348 159.457 337.01 159.25 336.791C159.047 336.572 158.729 336.463 158.295 336.463C157.943 336.463 157.635 336.557 157.369 336.744C157.104 336.932 156.896 337.178 156.748 337.482V342H155.664V333H156.748V336.428ZM166.188 342C166.125 341.875 166.074 341.652 166.035 341.332C165.531 341.855 164.93 342.117 164.23 342.117C163.605 342.117 163.092 341.941 162.689 341.59C162.291 341.234 162.092 340.785 162.092 340.242C162.092 339.582 162.342 339.07 162.842 338.707C163.346 338.34 164.053 338.156 164.963 338.156H166.018V337.658C166.018 337.279 165.904 336.979 165.678 336.756C165.451 336.529 165.117 336.416 164.676 336.416C164.289 336.416 163.965 336.514 163.703 336.709C163.441 336.904 163.311 337.141 163.311 337.418H162.221C162.221 337.102 162.332 336.797 162.555 336.504C162.781 336.207 163.086 335.973 163.469 335.801C163.855 335.629 164.279 335.543 164.74 335.543C165.471 335.543 166.043 335.727 166.457 336.094C166.871 336.457 167.086 336.959 167.102 337.6V340.518C167.102 341.1 167.176 341.562 167.324 341.906V342H166.188ZM164.389 341.174C164.729 341.174 165.051 341.086 165.355 340.91C165.66 340.734 165.881 340.506 166.018 340.225V338.924H165.168C163.84 338.924 163.176 339.312 163.176 340.09C163.176 340.43 163.289 340.695 163.516 340.887C163.742 341.078 164.033 341.174 164.389 341.174ZM169.979 342H168.895V335.66H169.979V342ZM168.807 333.979C168.807 333.803 168.859 333.654 168.965 333.533C169.074 333.412 169.234 333.352 169.445 333.352C169.656 333.352 169.816 333.412 169.926 333.533C170.035 333.654 170.09 333.803 170.09 333.979C170.09 334.154 170.035 334.301 169.926 334.418C169.816 334.535 169.656 334.594 169.445 334.594C169.234 334.594 169.074 334.535 168.965 334.418C168.859 334.301 168.807 334.154 168.807 333.979ZM172.744 335.66L172.779 336.457C173.264 335.848 173.896 335.543 174.678 335.543C176.018 335.543 176.693 336.299 176.705 337.811V342H175.621V337.805C175.617 337.348 175.512 337.01 175.305 336.791C175.102 336.572 174.783 336.463 174.35 336.463C173.998 336.463 173.689 336.557 173.424 336.744C173.158 336.932 172.951 337.178 172.803 337.482V342H171.719V335.66H172.744Z" fill="black"/>
<line x1="211.5" y1="104" x2="211.5" y2="130" stroke="black"/>
<line x1="210.333" y1="211.373" x2="144.333" y2="270.373" stroke="black"/>
<line x1="292.302" y1="270.114" x2="211.114" y2="211.698" stroke="black" stroke-linecap="square"/>
<path d="M57.5869 130.104V134H56.2744V124.047H59.9453C61.0345 124.047 61.8867 124.325 62.502 124.881C63.1217 125.437 63.4316 126.173 63.4316 127.089C63.4316 128.055 63.1286 128.8 62.5225 129.324C61.9209 129.844 61.0573 130.104 59.9316 130.104H57.5869ZM57.5869 129.03H59.9453C60.6471 129.03 61.1849 128.866 61.5586 128.538C61.9323 128.205 62.1191 127.727 62.1191 127.103C62.1191 126.51 61.9323 126.036 61.5586 125.681C61.1849 125.325 60.6722 125.141 60.0205 125.127H57.5869V129.03ZM68.4834 127.738C68.292 127.706 68.0846 127.69 67.8613 127.69C67.0319 127.69 66.4691 128.044 66.1729 128.75V134H64.9082V126.604H66.1387L66.1592 127.458C66.5739 126.797 67.1618 126.467 67.9229 126.467C68.1689 126.467 68.3558 126.499 68.4834 126.562V127.738ZM71.0264 134H69.7617V126.604H71.0264V134ZM69.6592 124.642C69.6592 124.437 69.7207 124.263 69.8438 124.122C69.9714 123.981 70.1582 123.91 70.4043 123.91C70.6504 123.91 70.8372 123.981 70.9648 124.122C71.0924 124.263 71.1562 124.437 71.1562 124.642C71.1562 124.847 71.0924 125.018 70.9648 125.154C70.8372 125.291 70.6504 125.359 70.4043 125.359C70.1582 125.359 69.9714 125.291 69.8438 125.154C69.7207 125.018 69.6592 124.847 69.6592 124.642ZM75.4971 132.284L77.3291 126.604H78.6211L75.9688 134H75.0049L72.3252 126.604H73.6172L75.4971 132.284ZM84.2949 134C84.222 133.854 84.1628 133.594 84.1172 133.221C83.5293 133.831 82.8275 134.137 82.0117 134.137C81.2826 134.137 80.6833 133.932 80.2139 133.521C79.749 133.107 79.5166 132.583 79.5166 131.949C79.5166 131.179 79.8083 130.582 80.3916 130.158C80.9795 129.73 81.8044 129.516 82.8662 129.516H84.0967V128.935C84.0967 128.493 83.9645 128.142 83.7002 127.882C83.4359 127.618 83.0462 127.485 82.5312 127.485C82.0801 127.485 81.7018 127.599 81.3965 127.827C81.0911 128.055 80.9385 128.331 80.9385 128.654H79.667C79.667 128.285 79.7969 127.93 80.0566 127.588C80.321 127.242 80.6764 126.968 81.123 126.768C81.5742 126.567 82.0687 126.467 82.6064 126.467C83.4587 126.467 84.1263 126.681 84.6094 127.109C85.0924 127.533 85.3431 128.119 85.3613 128.866V132.271C85.3613 132.95 85.4479 133.49 85.6211 133.891V134H84.2949ZM82.1963 133.036C82.5928 133.036 82.9688 132.934 83.3242 132.729C83.6797 132.523 83.9372 132.257 84.0967 131.929V130.411H83.1055C81.556 130.411 80.7812 130.865 80.7812 131.771C80.7812 132.168 80.9134 132.478 81.1777 132.701C81.4421 132.924 81.7816 133.036 82.1963 133.036ZM89.0596 124.812V126.604H90.4404V127.581H89.0596V132.168C89.0596 132.464 89.1211 132.688 89.2441 132.838C89.3672 132.984 89.5768 133.057 89.873 133.057C90.0189 133.057 90.2194 133.029 90.4746 132.975V134C90.1419 134.091 89.8184 134.137 89.5039 134.137C88.9388 134.137 88.5127 133.966 88.2256 133.624C87.9385 133.282 87.7949 132.797 87.7949 132.168V127.581H86.4482V126.604H87.7949V124.812H89.0596ZM94.9932 134.137C93.9906 134.137 93.1748 133.809 92.5459 133.152C91.917 132.492 91.6025 131.61 91.6025 130.507V130.274C91.6025 129.541 91.7415 128.887 92.0195 128.312C92.3021 127.734 92.694 127.283 93.1953 126.959C93.7012 126.631 94.248 126.467 94.8359 126.467C95.7975 126.467 96.5449 126.784 97.0781 127.417C97.6113 128.05 97.8779 128.957 97.8779 130.138V130.664H92.8672C92.8854 131.393 93.0973 131.983 93.5029 132.435C93.9131 132.881 94.4326 133.104 95.0615 133.104C95.5081 133.104 95.8864 133.013 96.1963 132.831C96.5062 132.649 96.7773 132.407 97.0098 132.106L97.7822 132.708C97.1624 133.66 96.2327 134.137 94.9932 134.137ZM94.8359 127.506C94.3255 127.506 93.8971 127.693 93.5508 128.066C93.2044 128.436 92.9902 128.955 92.9082 129.625H96.6133V129.529C96.5768 128.887 96.4036 128.39 96.0938 128.039C95.7839 127.684 95.3646 127.506 94.8359 127.506ZM107.127 132.038C107.127 131.696 106.997 131.432 106.737 131.245C106.482 131.054 106.033 130.89 105.391 130.753C104.753 130.616 104.244 130.452 103.866 130.261C103.493 130.069 103.215 129.841 103.032 129.577C102.854 129.313 102.766 128.998 102.766 128.634C102.766 128.028 103.021 127.515 103.531 127.096C104.046 126.676 104.702 126.467 105.5 126.467C106.339 126.467 107.018 126.683 107.537 127.116C108.061 127.549 108.323 128.103 108.323 128.777H107.052C107.052 128.431 106.904 128.132 106.607 127.882C106.316 127.631 105.947 127.506 105.5 127.506C105.04 127.506 104.68 127.606 104.42 127.807C104.16 128.007 104.03 128.269 104.03 128.593C104.03 128.898 104.151 129.128 104.393 129.283C104.634 129.438 105.069 129.586 105.698 129.728C106.332 129.869 106.844 130.037 107.236 130.233C107.628 130.429 107.918 130.666 108.104 130.944C108.296 131.218 108.392 131.553 108.392 131.949C108.392 132.61 108.127 133.141 107.599 133.542C107.07 133.938 106.384 134.137 105.541 134.137C104.949 134.137 104.424 134.032 103.969 133.822C103.513 133.613 103.155 133.321 102.896 132.947C102.64 132.569 102.513 132.161 102.513 131.724H103.777C103.8 132.147 103.969 132.485 104.283 132.735C104.602 132.981 105.021 133.104 105.541 133.104C106.02 133.104 106.402 133.009 106.689 132.817C106.981 132.621 107.127 132.362 107.127 132.038ZM111.755 124.812V126.604H113.136V127.581H111.755V132.168C111.755 132.464 111.816 132.688 111.939 132.838C112.062 132.984 112.272 133.057 112.568 133.057C112.714 133.057 112.915 133.029 113.17 132.975V134C112.837 134.091 112.514 134.137 112.199 134.137C111.634 134.137 111.208 133.966 110.921 133.624C110.634 133.282 110.49 132.797 110.49 132.168V127.581H109.144V126.604H110.49V124.812H111.755ZM114.147 130.233C114.147 129.509 114.289 128.857 114.571 128.278C114.858 127.7 115.255 127.253 115.761 126.938C116.271 126.624 116.852 126.467 117.504 126.467C118.511 126.467 119.325 126.815 119.944 127.513C120.569 128.21 120.881 129.137 120.881 130.295V130.384C120.881 131.104 120.742 131.751 120.464 132.325C120.19 132.895 119.796 133.339 119.281 133.658C118.771 133.977 118.183 134.137 117.518 134.137C116.515 134.137 115.701 133.788 115.077 133.091C114.457 132.394 114.147 131.471 114.147 130.322V130.233ZM115.419 130.384C115.419 131.204 115.608 131.863 115.986 132.359C116.369 132.856 116.88 133.104 117.518 133.104C118.16 133.104 118.671 132.854 119.049 132.353C119.427 131.847 119.616 131.14 119.616 130.233C119.616 129.422 119.423 128.766 119.035 128.265C118.652 127.759 118.142 127.506 117.504 127.506C116.88 127.506 116.376 127.754 115.993 128.251C115.61 128.748 115.419 129.459 115.419 130.384ZM126.042 127.738C125.851 127.706 125.643 127.69 125.42 127.69C124.59 127.69 124.028 128.044 123.731 128.75V134H122.467V126.604H123.697L123.718 127.458C124.132 126.797 124.72 126.467 125.481 126.467C125.728 126.467 125.914 126.499 126.042 126.562V127.738ZM131.504 134C131.431 133.854 131.372 133.594 131.326 133.221C130.738 133.831 130.036 134.137 129.221 134.137C128.492 134.137 127.892 133.932 127.423 133.521C126.958 133.107 126.726 132.583 126.726 131.949C126.726 131.179 127.017 130.582 127.601 130.158C128.188 129.73 129.013 129.516 130.075 129.516H131.306V128.935C131.306 128.493 131.174 128.142 130.909 127.882C130.645 127.618 130.255 127.485 129.74 127.485C129.289 127.485 128.911 127.599 128.605 127.827C128.3 128.055 128.147 128.331 128.147 128.654H126.876C126.876 128.285 127.006 127.93 127.266 127.588C127.53 127.242 127.885 126.968 128.332 126.768C128.783 126.567 129.278 126.467 129.815 126.467C130.668 126.467 131.335 126.681 131.818 127.109C132.301 127.533 132.552 128.119 132.57 128.866V132.271C132.57 132.95 132.657 133.49 132.83 133.891V134H131.504ZM129.405 133.036C129.802 133.036 130.178 132.934 130.533 132.729C130.889 132.523 131.146 132.257 131.306 131.929V130.411H130.314C128.765 130.411 127.99 130.865 127.99 131.771C127.99 132.168 128.122 132.478 128.387 132.701C128.651 132.924 128.991 133.036 129.405 133.036ZM134.252 130.24C134.252 129.087 134.519 128.171 135.052 127.492C135.585 126.809 136.291 126.467 137.171 126.467C138.073 126.467 138.777 126.786 139.283 127.424L139.345 126.604H140.5V133.822C140.5 134.779 140.215 135.534 139.646 136.085C139.08 136.636 138.319 136.912 137.362 136.912C136.829 136.912 136.307 136.798 135.797 136.57C135.286 136.342 134.897 136.03 134.628 135.634L135.284 134.875C135.826 135.545 136.49 135.88 137.273 135.88C137.889 135.88 138.367 135.707 138.709 135.36C139.055 135.014 139.229 134.526 139.229 133.897V133.262C138.723 133.845 138.032 134.137 137.157 134.137C136.291 134.137 135.59 133.788 135.052 133.091C134.519 132.394 134.252 131.443 134.252 130.24ZM135.523 130.384C135.523 131.218 135.694 131.874 136.036 132.353C136.378 132.826 136.856 133.063 137.472 133.063C138.269 133.063 138.855 132.701 139.229 131.977V128.6C138.841 127.893 138.26 127.54 137.485 127.54C136.87 127.54 136.389 127.779 136.043 128.258C135.697 128.736 135.523 129.445 135.523 130.384ZM145.483 134.137C144.481 134.137 143.665 133.809 143.036 133.152C142.407 132.492 142.093 131.61 142.093 130.507V130.274C142.093 129.541 142.232 128.887 142.51 128.312C142.792 127.734 143.184 127.283 143.686 126.959C144.191 126.631 144.738 126.467 145.326 126.467C146.288 126.467 147.035 126.784 147.568 127.417C148.102 128.05 148.368 128.957 148.368 130.138V130.664H143.357C143.376 131.393 143.588 131.983 143.993 132.435C144.403 132.881 144.923 133.104 145.552 133.104C145.998 133.104 146.377 133.013 146.687 132.831C146.996 132.649 147.268 132.407 147.5 132.106L148.272 132.708C147.653 133.66 146.723 134.137 145.483 134.137ZM145.326 127.506C144.816 127.506 144.387 127.693 144.041 128.066C143.695 128.436 143.48 128.955 143.398 129.625H147.104V129.529C147.067 128.887 146.894 128.39 146.584 128.039C146.274 127.684 145.855 127.506 145.326 127.506Z" fill="black"/>
<path d="M256.25 165.604L256.284 166.424C256.826 165.786 257.558 165.467 258.479 165.467C259.513 165.467 260.217 165.863 260.591 166.656C260.837 166.301 261.156 166.014 261.548 165.795C261.944 165.576 262.411 165.467 262.949 165.467C264.572 165.467 265.396 166.326 265.424 168.044V173H264.159V168.119C264.159 167.59 264.038 167.196 263.797 166.937C263.555 166.672 263.15 166.54 262.58 166.54C262.111 166.54 261.721 166.681 261.411 166.964C261.101 167.242 260.921 167.618 260.871 168.092V173H259.6V168.153C259.6 167.078 259.073 166.54 258.021 166.54C257.191 166.54 256.624 166.893 256.318 167.6V173H255.054V165.604H256.25ZM267.591 173.854H266.504L270.66 163.047H271.74L267.591 173.854ZM278.316 169.657H279.697V170.689H278.316V173H277.045V170.689H272.513V169.944L276.97 163.047H278.316V169.657ZM273.948 169.657H277.045V164.776L276.895 165.05L273.948 169.657ZM286.178 169.657H287.559V170.689H286.178V173H284.906V170.689H280.374V169.944L284.831 163.047H286.178V169.657ZM281.81 169.657H284.906V164.776L284.756 165.05L281.81 169.657ZM288.919 165.85L288.201 165.357C288.625 164.765 288.844 164.141 288.857 163.484V162.5H290.108V163.389C290.104 163.844 289.99 164.3 289.767 164.756C289.548 165.207 289.265 165.572 288.919 165.85ZM291.886 173.854H290.799L294.955 163.047H296.035L291.886 173.854ZM302.611 169.657H303.992V170.689H302.611V173H301.34V170.689H296.808V169.944L301.265 163.047H302.611V169.657ZM298.243 169.657H301.34V164.776L301.189 165.05L298.243 169.657ZM311.655 173H305.134V172.091L308.579 168.263C309.09 167.684 309.44 167.215 309.632 166.854C309.828 166.49 309.926 166.114 309.926 165.727C309.926 165.207 309.769 164.781 309.454 164.448C309.14 164.116 308.72 163.949 308.196 163.949C307.567 163.949 307.077 164.129 306.727 164.489C306.38 164.845 306.207 165.341 306.207 165.979H304.942C304.942 165.063 305.236 164.323 305.824 163.758C306.417 163.193 307.207 162.91 308.196 162.91C309.121 162.91 309.853 163.154 310.391 163.642C310.928 164.125 311.197 164.77 311.197 165.576C311.197 166.556 310.573 167.723 309.324 169.076L306.658 171.968H311.655V173ZM317.842 168.625C317.577 168.939 317.261 169.192 316.892 169.384C316.527 169.575 316.126 169.671 315.688 169.671C315.114 169.671 314.613 169.53 314.185 169.247C313.761 168.965 313.433 168.568 313.2 168.058C312.968 167.543 312.852 166.975 312.852 166.355C312.852 165.69 312.977 165.091 313.228 164.558C313.483 164.024 313.843 163.617 314.308 163.334C314.772 163.051 315.315 162.91 315.935 162.91C316.919 162.91 317.694 163.279 318.259 164.018C318.828 164.751 319.113 165.754 319.113 167.025V167.395C319.113 169.331 318.73 170.746 317.965 171.64C317.199 172.528 316.044 172.984 314.499 173.007H314.253V171.94H314.52C315.563 171.922 316.365 171.651 316.926 171.127C317.486 170.598 317.792 169.764 317.842 168.625ZM315.894 168.625C316.317 168.625 316.707 168.495 317.062 168.235C317.423 167.976 317.685 167.654 317.849 167.271V166.766C317.849 165.936 317.669 165.262 317.309 164.742C316.949 164.223 316.493 163.963 315.941 163.963C315.385 163.963 314.939 164.177 314.602 164.605C314.264 165.029 314.096 165.59 314.096 166.287C314.096 166.966 314.257 167.527 314.581 167.969C314.909 168.406 315.347 168.625 315.894 168.625ZM321.075 165.85L320.357 165.357C320.781 164.765 321 164.141 321.014 163.484V162.5H322.265V163.389C322.26 163.844 322.146 164.3 321.923 164.756C321.704 165.207 321.422 165.572 321.075 165.85ZM324.042 173.854H322.955L327.111 163.047H328.191L324.042 173.854ZM335.67 168.755C335.67 170.236 335.417 171.337 334.911 172.057C334.405 172.777 333.615 173.137 332.539 173.137C331.477 173.137 330.691 172.786 330.181 172.084C329.67 171.378 329.406 170.325 329.388 168.926V167.237C329.388 165.774 329.641 164.688 330.146 163.977C330.652 163.266 331.445 162.91 332.525 162.91C333.596 162.91 334.385 163.254 334.891 163.942C335.396 164.626 335.656 165.683 335.67 167.114V168.755ZM334.405 167.025C334.405 165.954 334.255 165.175 333.954 164.688C333.653 164.195 333.177 163.949 332.525 163.949C331.878 163.949 331.407 164.193 331.11 164.681C330.814 165.168 330.661 165.918 330.652 166.93V168.953C330.652 170.029 330.807 170.824 331.117 171.339C331.432 171.849 331.906 172.104 332.539 172.104C333.163 172.104 333.626 171.863 333.927 171.38C334.232 170.897 334.392 170.136 334.405 169.097V167.025ZM337.509 165.85L336.791 165.357C337.215 164.765 337.434 164.141 337.447 163.484V162.5H338.698V163.389C338.694 163.844 338.58 164.3 338.356 164.756C338.138 165.207 337.855 165.572 337.509 165.85ZM340.476 173.854H339.389L343.545 163.047H344.625L340.476 173.854ZM352.384 173H345.862V172.091L349.308 168.263C349.818 167.684 350.169 167.215 350.36 166.854C350.556 166.49 350.654 166.114 350.654 165.727C350.654 165.207 350.497 164.781 350.183 164.448C349.868 164.116 349.449 163.949 348.925 163.949C348.296 163.949 347.806 164.129 347.455 164.489C347.109 164.845 346.936 165.341 346.936 165.979H345.671C345.671 165.063 345.965 164.323 346.553 163.758C347.145 163.193 347.936 162.91 348.925 162.91C349.85 162.91 350.581 163.154 351.119 163.642C351.657 164.125 351.926 164.77 351.926 165.576C351.926 166.556 351.301 167.723 350.053 169.076L347.387 171.968H352.384V173Z" fill="black"/>
<circle cx="344" cy="435" r="3.5" fill="white" stroke="black"/>
<circle cx="360" cy="435" r="3.5" fill="white" stroke="black"/>
<circle cx="376" cy="435" r="3.5" fill="white" stroke="black"/>
<path d="M211.518 375.318C211.518 375.025 211.406 374.799 211.184 374.639C210.965 374.475 210.58 374.334 210.029 374.217C209.482 374.1 209.047 373.959 208.723 373.795C208.402 373.631 208.164 373.436 208.008 373.209C207.855 372.982 207.779 372.713 207.779 372.4C207.779 371.881 207.998 371.441 208.436 371.082C208.877 370.723 209.439 370.543 210.123 370.543C210.842 370.543 211.424 370.729 211.869 371.1C212.318 371.471 212.543 371.945 212.543 372.523H211.453C211.453 372.227 211.326 371.971 211.072 371.756C210.822 371.541 210.506 371.434 210.123 371.434C209.729 371.434 209.42 371.52 209.197 371.691C208.975 371.863 208.863 372.088 208.863 372.365C208.863 372.627 208.967 372.824 209.174 372.957C209.381 373.09 209.754 373.217 210.293 373.338C210.836 373.459 211.275 373.604 211.611 373.771C211.947 373.939 212.195 374.143 212.355 374.381C212.52 374.615 212.602 374.902 212.602 375.242C212.602 375.809 212.375 376.264 211.922 376.607C211.469 376.947 210.881 377.117 210.158 377.117C209.65 377.117 209.201 377.027 208.811 376.848C208.42 376.668 208.113 376.418 207.891 376.098C207.672 375.773 207.562 375.424 207.562 375.049H208.646C208.666 375.412 208.811 375.701 209.08 375.916C209.354 376.127 209.713 376.232 210.158 376.232C210.568 376.232 210.896 376.15 211.143 375.986C211.393 375.818 211.518 375.596 211.518 375.318ZM216.557 376.232C216.943 376.232 217.281 376.115 217.57 375.881C217.859 375.646 218.02 375.354 218.051 375.002H219.076C219.057 375.365 218.932 375.711 218.701 376.039C218.471 376.367 218.162 376.629 217.775 376.824C217.393 377.02 216.986 377.117 216.557 377.117C215.693 377.117 215.006 376.83 214.494 376.256C213.986 375.678 213.732 374.889 213.732 373.889V373.707C213.732 373.09 213.846 372.541 214.072 372.061C214.299 371.58 214.623 371.207 215.045 370.941C215.471 370.676 215.973 370.543 216.551 370.543C217.262 370.543 217.852 370.756 218.32 371.182C218.793 371.607 219.045 372.16 219.076 372.84H218.051C218.02 372.43 217.863 372.094 217.582 371.832C217.305 371.566 216.961 371.434 216.551 371.434C216 371.434 215.572 371.633 215.268 372.031C214.967 372.426 214.816 372.998 214.816 373.748V373.953C214.816 374.684 214.967 375.246 215.268 375.641C215.568 376.035 215.998 376.232 216.557 376.232ZM223.359 371.633C223.195 371.605 223.018 371.592 222.826 371.592C222.115 371.592 221.633 371.895 221.379 372.5V377H220.295V370.66H221.35L221.367 371.393C221.723 370.826 222.227 370.543 222.879 370.543C223.09 370.543 223.25 370.57 223.359 370.625V371.633ZM226.541 375.412L228.018 370.66H229.178L226.629 377.979C226.234 379.033 225.607 379.561 224.748 379.561L224.543 379.543L224.139 379.467V378.588L224.432 378.611C224.799 378.611 225.084 378.537 225.287 378.389C225.494 378.24 225.664 377.969 225.797 377.574L226.037 376.93L223.775 370.66H224.959L226.541 375.412ZM235.506 373.9C235.506 374.865 235.285 375.643 234.844 376.232C234.402 376.822 233.805 377.117 233.051 377.117C232.281 377.117 231.676 376.873 231.234 376.385V379.438H230.15V370.66H231.141L231.193 371.363C231.635 370.816 232.248 370.543 233.033 370.543C233.795 370.543 234.396 370.83 234.838 371.404C235.283 371.979 235.506 372.777 235.506 373.801V373.9ZM234.422 373.777C234.422 373.062 234.27 372.498 233.965 372.084C233.66 371.67 233.242 371.463 232.711 371.463C232.055 371.463 231.562 371.754 231.234 372.336V375.365C231.559 375.943 232.055 376.232 232.723 376.232C233.242 376.232 233.654 376.027 233.959 375.617C234.268 375.203 234.422 374.59 234.422 373.777ZM238.359 369.125V370.66H239.543V371.498H238.359V375.43C238.359 375.684 238.412 375.875 238.518 376.004C238.623 376.129 238.803 376.191 239.057 376.191C239.182 376.191 239.354 376.168 239.572 376.121V377C239.287 377.078 239.01 377.117 238.74 377.117C238.256 377.117 237.891 376.971 237.645 376.678C237.398 376.385 237.275 375.969 237.275 375.43V371.498H236.121V370.66H237.275V369.125H238.359Z" fill="black"/>
<path d="M260.518 391.318C260.518 391.025 260.406 390.799 260.184 390.639C259.965 390.475 259.58 390.334 259.029 390.217C258.482 390.1 258.047 389.959 257.723 389.795C257.402 389.631 257.164 389.436 257.008 389.209C256.855 388.982 256.779 388.713 256.779 388.4C256.779 387.881 256.998 387.441 257.436 387.082C257.877 386.723 258.439 386.543 259.123 386.543C259.842 386.543 260.424 386.729 260.869 387.1C261.318 387.471 261.543 387.945 261.543 388.523H260.453C260.453 388.227 260.326 387.971 260.072 387.756C259.822 387.541 259.506 387.434 259.123 387.434C258.729 387.434 258.42 387.52 258.197 387.691C257.975 387.863 257.863 388.088 257.863 388.365C257.863 388.627 257.967 388.824 258.174 388.957C258.381 389.09 258.754 389.217 259.293 389.338C259.836 389.459 260.275 389.604 260.611 389.771C260.947 389.939 261.195 390.143 261.355 390.381C261.52 390.615 261.602 390.902 261.602 391.242C261.602 391.809 261.375 392.264 260.922 392.607C260.469 392.947 259.881 393.117 259.158 393.117C258.65 393.117 258.201 393.027 257.811 392.848C257.42 392.668 257.113 392.418 256.891 392.098C256.672 391.773 256.562 391.424 256.562 391.049H257.646C257.666 391.412 257.811 391.701 258.08 391.916C258.354 392.127 258.713 392.232 259.158 392.232C259.568 392.232 259.896 392.15 260.143 391.986C260.393 391.818 260.518 391.596 260.518 391.318ZM265.557 392.232C265.943 392.232 266.281 392.115 266.57 391.881C266.859 391.646 267.02 391.354 267.051 391.002H268.076C268.057 391.365 267.932 391.711 267.701 392.039C267.471 392.367 267.162 392.629 266.775 392.824C266.393 393.02 265.986 393.117 265.557 393.117C264.693 393.117 264.006 392.83 263.494 392.256C262.986 391.678 262.732 390.889 262.732 389.889V389.707C262.732 389.09 262.846 388.541 263.072 388.061C263.299 387.58 263.623 387.207 264.045 386.941C264.471 386.676 264.973 386.543 265.551 386.543C266.262 386.543 266.852 386.756 267.32 387.182C267.793 387.607 268.045 388.16 268.076 388.84H267.051C267.02 388.43 266.863 388.094 266.582 387.832C266.305 387.566 265.961 387.434 265.551 387.434C265 387.434 264.572 387.633 264.268 388.031C263.967 388.426 263.816 388.998 263.816 389.748V389.953C263.816 390.684 263.967 391.246 264.268 391.641C264.568 392.035 264.998 392.232 265.557 392.232ZM272.359 387.633C272.195 387.605 272.018 387.592 271.826 387.592C271.115 387.592 270.633 387.895 270.379 388.5V393H269.295V386.66H270.35L270.367 387.393C270.723 386.826 271.227 386.543 271.879 386.543C272.09 386.543 272.25 386.57 272.359 386.625V387.633ZM275.541 391.412L277.018 386.66H278.178L275.629 393.979C275.234 395.033 274.607 395.561 273.748 395.561L273.543 395.543L273.139 395.467V394.588L273.432 394.611C273.799 394.611 274.084 394.537 274.287 394.389C274.494 394.24 274.664 393.969 274.797 393.574L275.037 392.93L272.775 386.66H273.959L275.541 391.412ZM284.506 389.9C284.506 390.865 284.285 391.643 283.844 392.232C283.402 392.822 282.805 393.117 282.051 393.117C281.281 393.117 280.676 392.873 280.234 392.385V395.438H279.15V386.66H280.141L280.193 387.363C280.635 386.816 281.248 386.543 282.033 386.543C282.795 386.543 283.396 386.83 283.838 387.404C284.283 387.979 284.506 388.777 284.506 389.801V389.9ZM283.422 389.777C283.422 389.062 283.27 388.498 282.965 388.084C282.66 387.67 282.242 387.463 281.711 387.463C281.055 387.463 280.562 387.754 280.234 388.336V391.365C280.559 391.943 281.055 392.232 281.723 392.232C282.242 392.232 282.654 392.027 282.959 391.617C283.268 391.203 283.422 390.59 283.422 389.777ZM287.359 385.125V386.66H288.543V387.498H287.359V391.43C287.359 391.684 287.412 391.875 287.518 392.004C287.623 392.129 287.803 392.191 288.057 392.191C288.182 392.191 288.354 392.168 288.572 392.121V393C288.287 393.078 288.01 393.117 287.74 393.117C287.256 393.117 286.891 392.971 286.645 392.678C286.398 392.385 286.275 391.969 286.275 391.43V387.498H285.121V386.66H286.275V385.125H287.359Z" fill="black"/>
<path d="M364.518 371.318C364.518 371.025 364.406 370.799 364.184 370.639C363.965 370.475 363.58 370.334 363.029 370.217C362.482 370.1 362.047 369.959 361.723 369.795C361.402 369.631 361.164 369.436 361.008 369.209C360.855 368.982 360.779 368.713 360.779 368.4C360.779 367.881 360.998 367.441 361.436 367.082C361.877 366.723 362.439 366.543 363.123 366.543C363.842 366.543 364.424 366.729 364.869 367.1C365.318 367.471 365.543 367.945 365.543 368.523H364.453C364.453 368.227 364.326 367.971 364.072 367.756C363.822 367.541 363.506 367.434 363.123 367.434C362.729 367.434 362.42 367.52 362.197 367.691C361.975 367.863 361.863 368.088 361.863 368.365C361.863 368.627 361.967 368.824 362.174 368.957C362.381 369.09 362.754 369.217 363.293 369.338C363.836 369.459 364.275 369.604 364.611 369.771C364.947 369.939 365.195 370.143 365.355 370.381C365.52 370.615 365.602 370.902 365.602 371.242C365.602 371.809 365.375 372.264 364.922 372.607C364.469 372.947 363.881 373.117 363.158 373.117C362.65 373.117 362.201 373.027 361.811 372.848C361.42 372.668 361.113 372.418 360.891 372.098C360.672 371.773 360.562 371.424 360.562 371.049H361.646C361.666 371.412 361.811 371.701 362.08 371.916C362.354 372.127 362.713 372.232 363.158 372.232C363.568 372.232 363.896 372.15 364.143 371.986C364.393 371.818 364.518 371.596 364.518 371.318ZM369.557 372.232C369.943 372.232 370.281 372.115 370.57 371.881C370.859 371.646 371.02 371.354 371.051 371.002H372.076C372.057 371.365 371.932 371.711 371.701 372.039C371.471 372.367 371.162 372.629 370.775 372.824C370.393 373.02 369.986 373.117 369.557 373.117C368.693 373.117 368.006 372.83 367.494 372.256C366.986 371.678 366.732 370.889 366.732 369.889V369.707C366.732 369.09 366.846 368.541 367.072 368.061C367.299 367.58 367.623 367.207 368.045 366.941C368.471 366.676 368.973 366.543 369.551 366.543C370.262 366.543 370.852 366.756 371.32 367.182C371.793 367.607 372.045 368.16 372.076 368.84H371.051C371.02 368.43 370.863 368.094 370.582 367.832C370.305 367.566 369.961 367.434 369.551 367.434C369 367.434 368.572 367.633 368.268 368.031C367.967 368.426 367.816 368.998 367.816 369.748V369.953C367.816 370.684 367.967 371.246 368.268 371.641C368.568 372.035 368.998 372.232 369.557 372.232ZM376.359 367.633C376.195 367.605 376.018 367.592 375.826 367.592C375.115 367.592 374.633 367.895 374.379 368.5V373H373.295V366.66H374.35L374.367 367.393C374.723 366.826 375.227 366.543 375.879 366.543C376.09 366.543 376.25 366.57 376.359 366.625V367.633ZM379.541 371.412L381.018 366.66H382.178L379.629 373.979C379.234 375.033 378.607 375.561 377.748 375.561L377.543 375.543L377.139 375.467V374.588L377.432 374.611C377.799 374.611 378.084 374.537 378.287 374.389C378.494 374.24 378.664 373.969 378.797 373.574L379.037 372.93L376.775 366.66H377.959L379.541 371.412ZM388.506 369.9C388.506 370.865 388.285 371.643 387.844 372.232C387.402 372.822 386.805 373.117 386.051 373.117C385.281 373.117 384.676 372.873 384.234 372.385V375.438H383.15V366.66H384.141L384.193 367.363C384.635 366.816 385.248 366.543 386.033 366.543C386.795 366.543 387.396 366.83 387.838 367.404C388.283 367.979 388.506 368.777 388.506 369.801V369.9ZM387.422 369.777C387.422 369.062 387.27 368.498 386.965 368.084C386.66 367.67 386.242 367.463 385.711 367.463C385.055 367.463 384.562 367.754 384.234 368.336V371.365C384.559 371.943 385.055 372.232 385.723 372.232C386.242 372.232 386.654 372.027 386.959 371.617C387.268 371.203 387.422 370.59 387.422 369.777ZM391.359 365.125V366.66H392.543V367.498H391.359V371.43C391.359 371.684 391.412 371.875 391.518 372.004C391.623 372.129 391.803 372.191 392.057 372.191C392.182 372.191 392.354 372.168 392.572 372.121V373C392.287 373.078 392.01 373.117 391.74 373.117C391.256 373.117 390.891 372.971 390.645 372.678C390.398 372.385 390.275 371.969 390.275 371.43V367.498H389.121V366.66H390.275V365.125H391.359Z" fill="black"/>
<line x1="293.5" y1="361" x2="293.5" y2="399" stroke="black"/>
<line x1="293.2" y1="361.458" x2="192.2" y2="405.458" stroke="black"/>
<path d="M173.643 469.197C172.678 468.92 171.975 468.58 171.533 468.178C171.096 467.771 170.877 467.271 170.877 466.678C170.877 466.006 171.145 465.451 171.68 465.014C172.219 464.572 172.918 464.352 173.777 464.352C174.363 464.352 174.885 464.465 175.342 464.691C175.803 464.918 176.158 465.23 176.408 465.629C176.662 466.027 176.789 466.463 176.789 466.936H175.658C175.658 466.42 175.494 466.016 175.166 465.723C174.838 465.426 174.375 465.277 173.777 465.277C173.223 465.277 172.789 465.4 172.477 465.646C172.168 465.889 172.014 466.227 172.014 466.66C172.014 467.008 172.16 467.303 172.453 467.545C172.75 467.783 173.252 468.002 173.959 468.201C174.67 468.4 175.225 468.621 175.623 468.863C176.025 469.102 176.322 469.381 176.514 469.701C176.709 470.021 176.807 470.398 176.807 470.832C176.807 471.523 176.537 472.078 175.998 472.496C175.459 472.91 174.738 473.117 173.836 473.117C173.25 473.117 172.703 473.006 172.195 472.783C171.688 472.557 171.295 472.248 171.018 471.857C170.744 471.467 170.607 471.023 170.607 470.527H171.738C171.738 471.043 171.928 471.451 172.307 471.752C172.689 472.049 173.199 472.197 173.836 472.197C174.43 472.197 174.885 472.076 175.201 471.834C175.518 471.592 175.676 471.262 175.676 470.844C175.676 470.426 175.529 470.104 175.236 469.877C174.943 469.646 174.412 469.42 173.643 469.197ZM180.715 473.117C179.855 473.117 179.156 472.836 178.617 472.273C178.078 471.707 177.809 470.951 177.809 470.006V469.807C177.809 469.178 177.928 468.617 178.166 468.125C178.408 467.629 178.744 467.242 179.174 466.965C179.607 466.684 180.076 466.543 180.58 466.543C181.404 466.543 182.045 466.814 182.502 467.357C182.959 467.9 183.188 468.678 183.188 469.689V470.141H178.893C178.908 470.766 179.09 471.271 179.438 471.658C179.789 472.041 180.234 472.232 180.773 472.232C181.156 472.232 181.48 472.154 181.746 471.998C182.012 471.842 182.244 471.635 182.443 471.377L183.105 471.893C182.574 472.709 181.777 473.117 180.715 473.117ZM180.58 467.434C180.143 467.434 179.775 467.594 179.479 467.914C179.182 468.23 178.998 468.676 178.928 469.25H182.104V469.168C182.072 468.617 181.924 468.191 181.658 467.891C181.393 467.586 181.033 467.434 180.58 467.434ZM186.99 472.232C187.377 472.232 187.715 472.115 188.004 471.881C188.293 471.646 188.453 471.354 188.484 471.002H189.51C189.49 471.365 189.365 471.711 189.135 472.039C188.904 472.367 188.596 472.629 188.209 472.824C187.826 473.02 187.42 473.117 186.99 473.117C186.127 473.117 185.439 472.83 184.928 472.256C184.42 471.678 184.166 470.889 184.166 469.889V469.707C184.166 469.09 184.279 468.541 184.506 468.061C184.732 467.58 185.057 467.207 185.479 466.941C185.904 466.676 186.406 466.543 186.984 466.543C187.695 466.543 188.285 466.756 188.754 467.182C189.227 467.607 189.479 468.16 189.51 468.84H188.484C188.453 468.43 188.297 468.094 188.016 467.832C187.738 467.566 187.395 467.434 186.984 467.434C186.434 467.434 186.006 467.633 185.701 468.031C185.4 468.426 185.25 468.998 185.25 469.748V469.953C185.25 470.684 185.4 471.246 185.701 471.641C186.002 472.035 186.432 472.232 186.99 472.232ZM193.793 467.633C193.629 467.605 193.451 467.592 193.26 467.592C192.549 467.592 192.066 467.895 191.812 468.5V473H190.729V466.66H191.783L191.801 467.393C192.156 466.826 192.66 466.543 193.312 466.543C193.523 466.543 193.684 466.57 193.793 466.625V467.633ZM197.309 473.117C196.449 473.117 195.75 472.836 195.211 472.273C194.672 471.707 194.402 470.951 194.402 470.006V469.807C194.402 469.178 194.521 468.617 194.76 468.125C195.002 467.629 195.338 467.242 195.768 466.965C196.201 466.684 196.67 466.543 197.174 466.543C197.998 466.543 198.639 466.814 199.096 467.357C199.553 467.9 199.781 468.678 199.781 469.689V470.141H195.486C195.502 470.766 195.684 471.271 196.031 471.658C196.383 472.041 196.828 472.232 197.367 472.232C197.75 472.232 198.074 472.154 198.34 471.998C198.605 471.842 198.838 471.635 199.037 471.377L199.699 471.893C199.168 472.709 198.371 473.117 197.309 473.117ZM197.174 467.434C196.736 467.434 196.369 467.594 196.072 467.914C195.775 468.23 195.592 468.676 195.521 469.25H198.697V469.168C198.666 468.617 198.518 468.191 198.252 467.891C197.986 467.586 197.627 467.434 197.174 467.434ZM202.512 465.125V466.66H203.695V467.498H202.512V471.43C202.512 471.684 202.564 471.875 202.67 472.004C202.775 472.129 202.955 472.191 203.209 472.191C203.334 472.191 203.506 472.168 203.725 472.121V473C203.439 473.078 203.162 473.117 202.893 473.117C202.408 473.117 202.043 472.971 201.797 472.678C201.551 472.385 201.428 471.969 201.428 471.43V467.498H200.273V466.66H201.428V465.125H202.512ZM213.182 469.361C213.182 470.631 212.965 471.574 212.531 472.191C212.098 472.809 211.42 473.117 210.498 473.117C209.588 473.117 208.914 472.816 208.477 472.215C208.039 471.609 207.812 470.707 207.797 469.508V468.061C207.797 466.807 208.014 465.875 208.447 465.266C208.881 464.656 209.561 464.352 210.486 464.352C211.404 464.352 212.08 464.646 212.514 465.236C212.947 465.822 213.17 466.729 213.182 467.955V469.361ZM212.098 467.879C212.098 466.961 211.969 466.293 211.711 465.875C211.453 465.453 211.045 465.242 210.486 465.242C209.932 465.242 209.527 465.451 209.273 465.869C209.02 466.287 208.889 466.93 208.881 467.797V469.531C208.881 470.453 209.014 471.135 209.279 471.576C209.549 472.014 209.955 472.232 210.498 472.232C211.033 472.232 211.43 472.025 211.688 471.611C211.949 471.197 212.086 470.545 212.098 469.654V467.879Z" fill="black"/>
<g clip-path="url(#clip6)">
<path d="M203.567 412.373V420.628H208.333L203.567 412.373Z" fill="white" stroke="black" stroke-width="1.75" stroke-linejoin="round"/>
<path d="M177.236 412.373C176.204 412.373 175.373 413.203 175.373 414.235V454.822C175.373 455.854 176.204 456.685 177.236 456.685H206.47C207.502 456.685 208.333 455.854 208.333 454.822V420.628H203.567V412.373H177.236Z" fill="white" stroke="black" stroke-width="1.75" stroke-linejoin="round"/>
<path d="M191.853 420.441C190.277 420.441 188.767 421.067 187.653 422.181C186.538 423.295 185.913 424.805 185.913 426.381C185.915 426.62 185.931 426.859 185.962 427.097V436.396H188.907V431.531V426.381C188.907 425.6 189.218 424.851 189.77 424.298C190.323 423.746 191.072 423.435 191.853 423.435C192.24 423.435 192.623 423.512 192.98 423.66C193.338 423.808 193.662 424.025 193.936 424.298C194.209 424.572 194.426 424.896 194.574 425.254C194.722 425.611 194.799 425.994 194.799 426.381V436.396H197.744V427.098C197.775 426.86 197.791 426.621 197.793 426.381C197.793 424.805 197.167 423.295 196.053 422.181C194.939 421.067 193.428 420.441 191.853 420.441H191.853Z" fill="white" stroke="black" stroke-width="1.75" stroke-linejoin="round"/>
<path d="M198.387 432.763H185.319C183.885 432.763 182.722 433.926 182.722 435.361V446.019C182.722 447.454 183.885 448.617 185.319 448.617H198.387C199.821 448.617 200.984 447.454 200.984 446.019V435.361C200.984 433.926 199.821 432.763 198.387 432.763Z" fill="white" stroke="black" stroke-width="1.75" stroke-linejoin="round"/>
<path d="M191.853 437.033C191.619 437.033 191.388 437.079 191.172 437.168C190.956 437.257 190.76 437.389 190.594 437.554C190.429 437.719 190.298 437.915 190.209 438.131C190.119 438.347 190.073 438.579 190.073 438.812C190.074 439.05 190.122 439.285 190.214 439.504C190.307 439.723 190.443 439.921 190.613 440.087V444.348H193.092V440.089C193.263 439.923 193.399 439.725 193.492 439.506C193.585 439.286 193.633 439.05 193.633 438.812C193.633 438.579 193.587 438.347 193.497 438.131C193.408 437.915 193.277 437.719 193.111 437.554C192.946 437.389 192.75 437.257 192.534 437.168C192.318 437.079 192.087 437.033 191.853 437.033V437.033Z" fill="white" stroke="black" stroke-width="1.75" stroke-linejoin="round"/>
</g>
<path d="M274.643 469.197C273.678 468.92 272.975 468.58 272.533 468.178C272.096 467.771 271.877 467.271 271.877 466.678C271.877 466.006 272.145 465.451 272.68 465.014C273.219 464.572 273.918 464.352 274.777 464.352C275.363 464.352 275.885 464.465 276.342 464.691C276.803 464.918 277.158 465.23 277.408 465.629C277.662 466.027 277.789 466.463 277.789 466.936H276.658C276.658 466.42 276.494 466.016 276.166 465.723C275.838 465.426 275.375 465.277 274.777 465.277C274.223 465.277 273.789 465.4 273.477 465.646C273.168 465.889 273.014 466.227 273.014 466.66C273.014 467.008 273.16 467.303 273.453 467.545C273.75 467.783 274.252 468.002 274.959 468.201C275.67 468.4 276.225 468.621 276.623 468.863C277.025 469.102 277.322 469.381 277.514 469.701C277.709 470.021 277.807 470.398 277.807 470.832C277.807 471.523 277.537 472.078 276.998 472.496C276.459 472.91 275.738 473.117 274.836 473.117C274.25 473.117 273.703 473.006 273.195 472.783C272.688 472.557 272.295 472.248 272.018 471.857C271.744 471.467 271.607 471.023 271.607 470.527H272.738C272.738 471.043 272.928 471.451 273.307 471.752C273.689 472.049 274.199 472.197 274.836 472.197C275.43 472.197 275.885 472.076 276.201 471.834C276.518 471.592 276.676 471.262 276.676 470.844C276.676 470.426 276.529 470.104 276.236 469.877C275.943 469.646 275.412 469.42 274.643 469.197ZM281.715 473.117C280.855 473.117 280.156 472.836 279.617 472.273C279.078 471.707 278.809 470.951 278.809 470.006V469.807C278.809 469.178 278.928 468.617 279.166 468.125C279.408 467.629 279.744 467.242 280.174 466.965C280.607 466.684 281.076 466.543 281.58 466.543C282.404 466.543 283.045 466.814 283.502 467.357C283.959 467.9 284.188 468.678 284.188 469.689V470.141H279.893C279.908 470.766 280.09 471.271 280.438 471.658C280.789 472.041 281.234 472.232 281.773 472.232C282.156 472.232 282.48 472.154 282.746 471.998C283.012 471.842 283.244 471.635 283.443 471.377L284.105 471.893C283.574 472.709 282.777 473.117 281.715 473.117ZM281.58 467.434C281.143 467.434 280.775 467.594 280.479 467.914C280.182 468.23 279.998 468.676 279.928 469.25H283.104V469.168C283.072 468.617 282.924 468.191 282.658 467.891C282.393 467.586 282.033 467.434 281.58 467.434ZM287.99 472.232C288.377 472.232 288.715 472.115 289.004 471.881C289.293 471.646 289.453 471.354 289.484 471.002H290.51C290.49 471.365 290.365 471.711 290.135 472.039C289.904 472.367 289.596 472.629 289.209 472.824C288.826 473.02 288.42 473.117 287.99 473.117C287.127 473.117 286.439 472.83 285.928 472.256C285.42 471.678 285.166 470.889 285.166 469.889V469.707C285.166 469.09 285.279 468.541 285.506 468.061C285.732 467.58 286.057 467.207 286.479 466.941C286.904 466.676 287.406 466.543 287.984 466.543C288.695 466.543 289.285 466.756 289.754 467.182C290.227 467.607 290.479 468.16 290.51 468.84H289.484C289.453 468.43 289.297 468.094 289.016 467.832C288.738 467.566 288.395 467.434 287.984 467.434C287.434 467.434 287.006 467.633 286.701 468.031C286.4 468.426 286.25 468.998 286.25 469.748V469.953C286.25 470.684 286.4 471.246 286.701 471.641C287.002 472.035 287.432 472.232 287.99 472.232ZM294.793 467.633C294.629 467.605 294.451 467.592 294.26 467.592C293.549 467.592 293.066 467.895 292.812 468.5V473H291.729V466.66H292.783L292.801 467.393C293.156 466.826 293.66 466.543 294.312 466.543C294.523 466.543 294.684 466.57 294.793 466.625V467.633ZM298.309 473.117C297.449 473.117 296.75 472.836 296.211 472.273C295.672 471.707 295.402 470.951 295.402 470.006V469.807C295.402 469.178 295.521 468.617 295.76 468.125C296.002 467.629 296.338 467.242 296.768 466.965C297.201 466.684 297.67 466.543 298.174 466.543C298.998 466.543 299.639 466.814 300.096 467.357C300.553 467.9 300.781 468.678 300.781 469.689V470.141H296.486C296.502 470.766 296.684 471.271 297.031 471.658C297.383 472.041 297.828 472.232 298.367 472.232C298.75 472.232 299.074 472.154 299.34 471.998C299.605 471.842 299.838 471.635 300.037 471.377L300.699 471.893C300.168 472.709 299.371 473.117 298.309 473.117ZM298.174 467.434C297.736 467.434 297.369 467.594 297.072 467.914C296.775 468.23 296.592 468.676 296.521 469.25H299.697V469.168C299.666 468.617 299.518 468.191 299.252 467.891C298.986 467.586 298.627 467.434 298.174 467.434ZM303.512 465.125V466.66H304.695V467.498H303.512V471.43C303.512 471.684 303.564 471.875 303.67 472.004C303.775 472.129 303.955 472.191 304.209 472.191C304.334 472.191 304.506 472.168 304.725 472.121V473C304.439 473.078 304.162 473.117 303.893 473.117C303.408 473.117 303.043 472.971 302.797 472.678C302.551 472.385 302.428 471.969 302.428 471.43V467.498H301.273V466.66H302.428V465.125H303.512ZM312.395 473H311.305V465.775L309.119 466.578V465.594L312.225 464.428H312.395V473Z" fill="black"/>
<g clip-path="url(#clip7)">
<path d="M304.567 412.373V420.628H309.333L304.567 412.373Z" fill="white" stroke="black" stroke-width="1.75" stroke-linejoin="round"/>
<path d="M278.236 412.373C277.204 412.373 276.373 413.203 276.373 414.235V454.822C276.373 455.854 277.204 456.685 278.236 456.685H307.47C308.502 456.685 309.333 455.854 309.333 454.822V420.628H304.567V412.373H278.236Z" fill="white" stroke="black" stroke-width="1.75" stroke-linejoin="round"/>
<path d="M292.853 420.441C291.277 420.441 289.767 421.067 288.653 422.181C287.538 423.295 286.913 424.805 286.913 426.381C286.915 426.62 286.931 426.859 286.962 427.097V436.396H289.907V431.531V426.381C289.907 425.6 290.218 424.851 290.77 424.298C291.323 423.746 292.072 423.435 292.853 423.435C293.24 423.435 293.623 423.512 293.98 423.66C294.338 423.808 294.662 424.025 294.936 424.298C295.209 424.572 295.426 424.896 295.574 425.254C295.722 425.611 295.799 425.994 295.799 426.381V436.396H298.744V427.098C298.775 426.86 298.791 426.621 298.793 426.381C298.793 424.805 298.167 423.295 297.053 422.181C295.939 421.067 294.428 420.441 292.853 420.441H292.853Z" fill="white" stroke="black" stroke-width="1.75" stroke-linejoin="round"/>
<path d="M299.387 432.763H286.319C284.885 432.763 283.722 433.926 283.722 435.361V446.019C283.722 447.454 284.885 448.617 286.319 448.617H299.387C300.821 448.617 301.984 447.454 301.984 446.019V435.361C301.984 433.926 300.821 432.763 299.387 432.763Z" fill="white" stroke="black" stroke-width="1.75" stroke-linejoin="round"/>
<path d="M292.853 437.033C292.619 437.033 292.388 437.079 292.172 437.168C291.956 437.257 291.76 437.389 291.594 437.554C291.429 437.719 291.298 437.915 291.209 438.131C291.119 438.347 291.073 438.579 291.073 438.812C291.074 439.05 291.122 439.285 291.214 439.504C291.307 439.723 291.443 439.921 291.613 440.087V444.348H294.092V440.089C294.263 439.923 294.399 439.725 294.492 439.506C294.585 439.286 294.633 439.05 294.633 438.812C294.633 438.579 294.587 438.347 294.497 438.131C294.408 437.915 294.277 437.719 294.111 437.554C293.946 437.389 293.75 437.257 293.534 437.168C293.318 437.079 293.087 437.033 292.853 437.033V437.033Z" fill="white" stroke="black" stroke-width="1.75" stroke-linejoin="round"/>
</g>
<path d="M421.734 469.197C420.77 468.92 420.066 468.58 419.625 468.178C419.188 467.771 418.969 467.271 418.969 466.678C418.969 466.006 419.236 465.451 419.771 465.014C420.311 464.572 421.01 464.352 421.869 464.352C422.455 464.352 422.977 464.465 423.434 464.691C423.895 464.918 424.25 465.23 424.5 465.629C424.754 466.027 424.881 466.463 424.881 466.936H423.75C423.75 466.42 423.586 466.016 423.258 465.723C422.93 465.426 422.467 465.277 421.869 465.277C421.314 465.277 420.881 465.4 420.568 465.646C420.26 465.889 420.105 466.227 420.105 466.66C420.105 467.008 420.252 467.303 420.545 467.545C420.842 467.783 421.344 468.002 422.051 468.201C422.762 468.4 423.316 468.621 423.715 468.863C424.117 469.102 424.414 469.381 424.605 469.701C424.801 470.021 424.898 470.398 424.898 470.832C424.898 471.523 424.629 472.078 424.09 472.496C423.551 472.91 422.83 473.117 421.928 473.117C421.342 473.117 420.795 473.006 420.287 472.783C419.779 472.557 419.387 472.248 419.109 471.857C418.836 471.467 418.699 471.023 418.699 470.527H419.83C419.83 471.043 420.02 471.451 420.398 471.752C420.781 472.049 421.291 472.197 421.928 472.197C422.521 472.197 422.977 472.076 423.293 471.834C423.609 471.592 423.768 471.262 423.768 470.844C423.768 470.426 423.621 470.104 423.328 469.877C423.035 469.646 422.504 469.42 421.734 469.197ZM428.807 473.117C427.947 473.117 427.248 472.836 426.709 472.273C426.17 471.707 425.9 470.951 425.9 470.006V469.807C425.9 469.178 426.02 468.617 426.258 468.125C426.5 467.629 426.836 467.242 427.266 466.965C427.699 466.684 428.168 466.543 428.672 466.543C429.496 466.543 430.137 466.814 430.594 467.357C431.051 467.9 431.279 468.678 431.279 469.689V470.141H426.984C427 470.766 427.182 471.271 427.529 471.658C427.881 472.041 428.326 472.232 428.865 472.232C429.248 472.232 429.572 472.154 429.838 471.998C430.104 471.842 430.336 471.635 430.535 471.377L431.197 471.893C430.666 472.709 429.869 473.117 428.807 473.117ZM428.672 467.434C428.234 467.434 427.867 467.594 427.57 467.914C427.273 468.23 427.09 468.676 427.02 469.25H430.195V469.168C430.164 468.617 430.016 468.191 429.75 467.891C429.484 467.586 429.125 467.434 428.672 467.434ZM435.082 472.232C435.469 472.232 435.807 472.115 436.096 471.881C436.385 471.646 436.545 471.354 436.576 471.002H437.602C437.582 471.365 437.457 471.711 437.227 472.039C436.996 472.367 436.688 472.629 436.301 472.824C435.918 473.02 435.512 473.117 435.082 473.117C434.219 473.117 433.531 472.83 433.02 472.256C432.512 471.678 432.258 470.889 432.258 469.889V469.707C432.258 469.09 432.371 468.541 432.598 468.061C432.824 467.58 433.148 467.207 433.57 466.941C433.996 466.676 434.498 466.543 435.076 466.543C435.787 466.543 436.377 466.756 436.846 467.182C437.318 467.607 437.57 468.16 437.602 468.84H436.576C436.545 468.43 436.389 468.094 436.107 467.832C435.83 467.566 435.486 467.434 435.076 467.434C434.525 467.434 434.098 467.633 433.793 468.031C433.492 468.426 433.342 468.998 433.342 469.748V469.953C433.342 470.684 433.492 471.246 433.793 471.641C434.094 472.035 434.523 472.232 435.082 472.232ZM441.885 467.633C441.721 467.605 441.543 467.592 441.352 467.592C440.641 467.592 440.158 467.895 439.904 468.5V473H438.82V466.66H439.875L439.893 467.393C440.248 466.826 440.752 466.543 441.404 466.543C441.615 466.543 441.775 466.57 441.885 466.625V467.633ZM445.4 473.117C444.541 473.117 443.842 472.836 443.303 472.273C442.764 471.707 442.494 470.951 442.494 470.006V469.807C442.494 469.178 442.613 468.617 442.852 468.125C443.094 467.629 443.43 467.242 443.859 466.965C444.293 466.684 444.762 466.543 445.266 466.543C446.09 466.543 446.73 466.814 447.188 467.357C447.645 467.9 447.873 468.678 447.873 469.689V470.141H443.578C443.594 470.766 443.775 471.271 444.123 471.658C444.475 472.041 444.92 472.232 445.459 472.232C445.842 472.232 446.166 472.154 446.432 471.998C446.697 471.842 446.93 471.635 447.129 471.377L447.791 471.893C447.26 472.709 446.463 473.117 445.4 473.117ZM445.266 467.434C444.828 467.434 444.461 467.594 444.164 467.914C443.867 468.23 443.684 468.676 443.613 469.25H446.789V469.168C446.758 468.617 446.609 468.191 446.344 467.891C446.078 467.586 445.719 467.434 445.266 467.434ZM450.604 465.125V466.66H451.787V467.498H450.604V471.43C450.604 471.684 450.656 471.875 450.762 472.004C450.867 472.129 451.047 472.191 451.301 472.191C451.426 472.191 451.598 472.168 451.816 472.121V473C451.531 473.078 451.254 473.117 450.984 473.117C450.5 473.117 450.135 472.971 449.889 472.678C449.643 472.385 449.52 471.969 449.52 471.43V467.498H448.365V466.66H449.52V465.125H450.604ZM462.762 473H461.631L457.336 466.426V473H456.205V464.469H457.336L461.643 471.072V464.469H462.762V473Z" fill="black"/>
<g clip-path="url(#clip8)">
<path d="M452.567 412.373V420.628H457.333L452.567 412.373Z" fill="white" stroke="black" stroke-width="1.75" stroke-linejoin="round"/>
<path d="M426.236 412.373C425.204 412.373 424.373 413.203 424.373 414.235V454.822C424.373 455.854 425.204 456.685 426.236 456.685H455.47C456.502 456.685 457.333 455.854 457.333 454.822V420.628H452.567V412.373H426.236Z" fill="white" stroke="black" stroke-width="1.75" stroke-linejoin="round"/>
<path d="M440.853 420.441C439.277 420.441 437.767 421.067 436.653 422.181C435.538 423.295 434.913 424.805 434.913 426.381C434.915 426.62 434.931 426.859 434.962 427.097V436.396H437.907V431.531V426.381C437.907 425.6 438.218 424.851 438.77 424.298C439.323 423.746 440.072 423.435 440.853 423.435C441.24 423.435 441.623 423.512 441.98 423.66C442.338 423.808 442.662 424.025 442.936 424.298C443.209 424.572 443.426 424.896 443.574 425.254C443.722 425.611 443.799 425.994 443.799 426.381V436.396H446.744V427.098C446.775 426.86 446.791 426.621 446.793 426.381C446.793 424.805 446.167 423.295 445.053 422.181C443.939 421.067 442.428 420.441 440.853 420.441H440.853Z" fill="white" stroke="black" stroke-width="1.75" stroke-linejoin="round"/>
<path d="M447.387 432.763H434.319C432.885 432.763 431.722 433.926 431.722 435.361V446.019C431.722 447.454 432.885 448.617 434.319 448.617H447.387C448.821 448.617 449.984 447.454 449.984 446.019V435.361C449.984 433.926 448.821 432.763 447.387 432.763Z" fill="white" stroke="black" stroke-width="1.75" stroke-linejoin="round"/>
<path d="M440.853 437.033C440.619 437.033 440.388 437.079 440.172 437.168C439.956 437.257 439.76 437.389 439.594 437.554C439.429 437.719 439.298 437.915 439.209 438.131C439.119 438.347 439.073 438.579 439.073 438.812C439.074 439.05 439.122 439.285 439.214 439.504C439.307 439.723 439.443 439.921 439.613 440.087V444.348H442.092V440.089C442.263 439.923 442.399 439.725 442.492 439.506C442.585 439.286 442.633 439.05 442.633 438.812C442.633 438.579 442.587 438.347 442.497 438.131C442.408 437.915 442.277 437.719 442.111 437.554C441.946 437.389 441.75 437.257 441.534 437.168C441.318 437.079 441.087 437.033 440.853 437.033V437.033Z" fill="white" stroke="black" stroke-width="1.75" stroke-linejoin="round"/>
</g>
<defs>
<clipPath id="clip0">
<rect width="64" height="29" fill="white" transform="translate(174 169.255) rotate(-45)"/>
</clipPath>
<clipPath id="clip1">
<rect width="24" height="36" fill="white" transform="translate(218.88 152.38)"/>
</clipPath>
<clipPath id="clip2">
<rect width="64" height="29" fill="white" transform="translate(256 304.255) rotate(-45)"/>
</clipPath>
<clipPath id="clip3">
<rect width="24" height="36" fill="white" transform="translate(300.88 287.38)"/>
</clipPath>
<clipPath id="clip4">
<rect width="64" height="29" fill="white" transform="translate(105 307.255) rotate(-45)"/>
</clipPath>
<clipPath id="clip5">
<rect width="24" height="36" fill="white" transform="translate(149.88 290.38)"/>
</clipPath>
<clipPath id="clip6">
<rect width="33.7058" height="45.0577" fill="white" transform="translate(175 412)"/>
</clipPath>
<clipPath id="clip7">
<rect width="33.7058" height="45.0577" fill="white" transform="translate(276 412)"/>
</clipPath>
<clipPath id="clip8">
<rect width="33.7058" height="45.0577" fill="white" transform="translate(424 412)"/>
</clipPath>
</defs>
</svg>
