<svg width="562" height="532" viewBox="0 0 562 532" fill="none" xmlns="http://www.w3.org/2000/svg">
<rect width="562" height="532" fill="white"/>
<rect x="43.5" y="110.5" width="457" height="408" rx="9.5" fill="white" stroke="black"/>
<path d="M222.928 23.0126H197.072C191.516 23.0126 187.012 27.5178 187.012 33.0753V72.9248C187.012 78.4823 191.516 82.9875 197.072 82.9875H222.928C228.484 82.9875 232.988 78.4823 232.988 72.9248V33.0753C232.988 27.5178 228.484 23.0126 222.928 23.0126Z" fill="white" stroke="black" stroke-width="2" stroke-linejoin="round"/>
<path d="M195.361 33.6976H224.639" stroke="black" stroke-width="2"/>
<path d="M195.361 73.4439H224.639" stroke="black" stroke-width="2"/>
<path d="M211.328 62.4139H224.639M195.361 62.4139H205.496H195.361Z" stroke="black" stroke-width="2"/>
<path d="M210.067 42.9211H224.639M195.361 42.9211H204.152H195.361Z" stroke="black" stroke-width="2"/>
<path d="M217.159 53H224.639M195.361 53H210H195.361Z" stroke="black" stroke-width="2"/>
<path d="M184.443 90.4688L187.232 97.4297L190.021 90.4688H191.48V99H190.355V95.6777L190.461 92.0918L187.66 99H186.799L184.004 92.1094L184.115 95.6777V99H182.99V90.4688H184.443ZM194.322 92.6602L194.357 93.457C194.842 92.8477 195.475 92.543 196.256 92.543C197.596 92.543 198.271 93.2988 198.283 94.8105V99H197.199V94.8047C197.195 94.3477 197.09 94.0098 196.883 93.791C196.68 93.5723 196.361 93.4629 195.928 93.4629C195.576 93.4629 195.268 93.5566 195.002 93.7441C194.736 93.9316 194.529 94.1777 194.381 94.4824V99H193.297V92.6602H194.322ZM202.549 99.1172C201.689 99.1172 200.99 98.8359 200.451 98.2734C199.912 97.707 199.643 96.9512 199.643 96.0059V95.8066C199.643 95.1777 199.762 94.6172 200 94.125C200.242 93.6289 200.578 93.2422 201.008 92.9648C201.441 92.6836 201.91 92.543 202.414 92.543C203.238 92.543 203.879 92.8145 204.336 93.3574C204.793 93.9004 205.021 94.6777 205.021 95.6895V96.1406H200.727C200.742 96.7656 200.924 97.2715 201.271 97.6582C201.623 98.041 202.068 98.2324 202.607 98.2324C202.99 98.2324 203.314 98.1543 203.58 97.998C203.846 97.8418 204.078 97.6348 204.277 97.377L204.939 97.8926C204.408 98.709 203.611 99.1172 202.549 99.1172ZM202.414 93.4336C201.977 93.4336 201.609 93.5938 201.312 93.9141C201.016 94.2305 200.832 94.6758 200.762 95.25H203.938V95.168C203.906 94.6172 203.758 94.1914 203.492 93.8906C203.227 93.5859 202.867 93.4336 202.414 93.4336ZM207.301 92.6602L207.33 93.3633C207.795 92.8164 208.422 92.543 209.211 92.543C210.098 92.543 210.701 92.8828 211.021 93.5625C211.232 93.2578 211.506 93.0117 211.842 92.8242C212.182 92.6367 212.582 92.543 213.043 92.543C214.434 92.543 215.141 93.2793 215.164 94.752V99H214.08V94.8164C214.08 94.3633 213.977 94.0254 213.77 93.8027C213.562 93.5762 213.215 93.4629 212.727 93.4629C212.324 93.4629 211.99 93.584 211.725 93.8262C211.459 94.0645 211.305 94.3867 211.262 94.793V99H210.172V94.8457C210.172 93.9238 209.721 93.4629 208.818 93.4629C208.107 93.4629 207.621 93.7656 207.359 94.3711V99H206.275V92.6602H207.301ZM216.518 95.7715C216.518 95.1504 216.639 94.5918 216.881 94.0957C217.127 93.5996 217.467 93.2168 217.9 92.9473C218.338 92.6777 218.836 92.543 219.395 92.543C220.258 92.543 220.955 92.8418 221.486 93.4395C222.021 94.0371 222.289 94.832 222.289 95.8242V95.9004C222.289 96.5176 222.17 97.0723 221.932 97.5645C221.697 98.0527 221.359 98.4336 220.918 98.707C220.48 98.9805 219.977 99.1172 219.406 99.1172C218.547 99.1172 217.85 98.8184 217.314 98.2207C216.783 97.623 216.518 96.832 216.518 95.8477V95.7715ZM217.607 95.9004C217.607 96.6035 217.77 97.168 218.094 97.5938C218.422 98.0195 218.859 98.2324 219.406 98.2324C219.957 98.2324 220.395 98.0176 220.719 97.5879C221.043 97.1543 221.205 96.5488 221.205 95.7715C221.205 95.0762 221.039 94.5137 220.707 94.084C220.379 93.6504 219.941 93.4336 219.395 93.4336C218.859 93.4336 218.428 93.6465 218.1 94.0723C217.771 94.498 217.607 95.1074 217.607 95.9004ZM224.674 92.6602L224.709 93.457C225.193 92.8477 225.826 92.543 226.607 92.543C227.947 92.543 228.623 93.2988 228.635 94.8105V99H227.551V94.8047C227.547 94.3477 227.441 94.0098 227.234 93.791C227.031 93.5723 226.713 93.4629 226.279 93.4629C225.928 93.4629 225.619 93.5566 225.354 93.7441C225.088 93.9316 224.881 94.1777 224.732 94.4824V99H223.648V92.6602H224.674ZM231.447 99H230.363V92.6602H231.447V99ZM230.275 90.9785C230.275 90.8027 230.328 90.6543 230.434 90.5332C230.543 90.4121 230.703 90.3516 230.914 90.3516C231.125 90.3516 231.285 90.4121 231.395 90.5332C231.504 90.6543 231.559 90.8027 231.559 90.9785C231.559 91.1543 231.504 91.3008 231.395 91.418C231.285 91.5352 231.125 91.5938 230.914 91.5938C230.703 91.5938 230.543 91.5352 230.434 91.418C230.328 91.3008 230.275 91.1543 230.275 90.9785ZM235.73 98.2324C236.117 98.2324 236.455 98.1152 236.744 97.8809C237.033 97.6465 237.193 97.3535 237.225 97.002H238.25C238.23 97.3652 238.105 97.7109 237.875 98.0391C237.645 98.3672 237.336 98.6289 236.949 98.8242C236.566 99.0195 236.16 99.1172 235.73 99.1172C234.867 99.1172 234.18 98.8301 233.668 98.2559C233.16 97.6777 232.906 96.8887 232.906 95.8887V95.707C232.906 95.0898 233.02 94.541 233.246 94.0605C233.473 93.5801 233.797 93.207 234.219 92.9414C234.645 92.6758 235.146 92.543 235.725 92.543C236.436 92.543 237.025 92.7559 237.494 93.1816C237.967 93.6074 238.219 94.1602 238.25 94.8398H237.225C237.193 94.4297 237.037 94.0938 236.756 93.832C236.479 93.5664 236.135 93.4336 235.725 93.4336C235.174 93.4336 234.746 93.6328 234.441 94.0312C234.141 94.4258 233.99 94.998 233.99 95.748V95.9531C233.99 96.6836 234.141 97.2461 234.441 97.6406C234.742 98.0352 235.172 98.2324 235.73 98.2324Z" fill="black"/>
<g clip-path="url(#clip0)">
<path d="M221.104 136.004L199.733 157.017C197.351 156.029 194.724 155.768 192.181 156.268C189.638 156.768 187.291 158.006 185.435 159.826C184.199 161.042 183.211 162.488 182.529 164.08C181.847 165.673 181.485 167.381 181.462 169.107C181.439 170.833 181.756 172.544 182.395 174.141C183.034 175.738 183.983 177.191 185.188 178.416C187.62 180.89 190.944 182.287 194.43 182.3C197.916 182.313 201.277 180.941 203.775 178.485C205.63 176.661 206.91 174.334 207.455 171.798C207.999 169.261 207.784 166.628 206.836 164.227L212.047 159.103L212.072 153.994L216.782 153.972L216.805 149.157L221.116 149.136L221.136 145.13L226.284 145.105L229.164 142.274L229.194 135.965L221.104 136.004Z" fill="white" stroke="black" stroke-width="2" stroke-linejoin="round"/>
<path d="M190.808 171.839C191.958 170.69 191.966 168.834 190.828 167.696C189.689 166.557 187.834 166.566 186.684 167.716C185.535 168.865 185.526 170.72 186.664 171.859C187.803 172.998 189.658 172.989 190.808 171.839Z" fill="white" stroke="black" stroke-width="1.23037" stroke-linejoin="round"/>
<path d="M218.236 143.135L218.906 142.465M202.396 158.975L217.303 144.068L202.396 158.975Z" stroke="black"/>
</g>
<g clip-path="url(#clip1)">
<path d="M230.88 153.021C228.922 153.021 227.043 153.792 225.658 155.165C224.272 156.537 223.494 158.399 223.494 160.34C223.497 160.635 223.517 160.93 223.555 161.223V172.681H227.218V166.687V160.34C227.218 159.378 227.604 158.455 228.291 157.774C228.978 157.093 229.909 156.711 230.88 156.711C231.361 156.711 231.838 156.805 232.282 156.987C232.726 157.169 233.13 157.437 233.47 157.774C233.811 158.111 234.08 158.511 234.264 158.951C234.448 159.392 234.543 159.864 234.543 160.34V172.681H238.206V161.224C238.244 160.931 238.264 160.636 238.267 160.34C238.267 158.399 237.488 156.537 236.103 155.165C234.718 153.792 232.839 153.021 230.88 153.021H230.88Z" fill="white" stroke="black" stroke-width="2" stroke-linejoin="round"/>
<path d="M239.005 168.205H222.756C220.973 168.205 219.526 169.638 219.526 171.406V184.539C219.526 186.307 220.973 187.74 222.756 187.74H239.005C240.788 187.74 242.234 186.307 242.234 184.539V171.406C242.234 169.638 240.788 168.205 239.005 168.205Z" fill="white" stroke="black" stroke-width="2" stroke-linejoin="round"/>
<path d="M230.88 173.466C230.59 173.466 230.302 173.522 230.034 173.633C229.765 173.743 229.521 173.904 229.316 174.108C229.11 174.312 228.947 174.553 228.836 174.819C228.725 175.086 228.668 175.371 228.668 175.659C228.668 175.952 228.728 176.242 228.843 176.511C228.958 176.781 229.127 177.025 229.339 177.229V182.479H232.422V177.232C232.634 177.028 232.803 176.783 232.919 176.513C233.034 176.243 233.093 175.952 233.093 175.659C233.093 175.371 233.036 175.086 232.925 174.819C232.814 174.553 232.651 174.312 232.445 174.108C232.24 173.904 231.996 173.743 231.727 173.633C231.459 173.522 231.171 173.466 230.88 173.466Z" fill="white" stroke="black" stroke-width="2" stroke-linejoin="round"/>
</g>
<path d="M183.141 196.395H180.398V204H179.279V196.395H176.543V195.469H183.141V196.395ZM183.363 200.771C183.363 200.15 183.484 199.592 183.727 199.096C183.973 198.6 184.312 198.217 184.746 197.947C185.184 197.678 185.682 197.543 186.24 197.543C187.104 197.543 187.801 197.842 188.332 198.439C188.867 199.037 189.135 199.832 189.135 200.824V200.9C189.135 201.518 189.016 202.072 188.777 202.564C188.543 203.053 188.205 203.434 187.764 203.707C187.326 203.98 186.822 204.117 186.252 204.117C185.393 204.117 184.695 203.818 184.16 203.221C183.629 202.623 183.363 201.832 183.363 200.848V200.771ZM184.453 200.9C184.453 201.604 184.615 202.168 184.939 202.594C185.268 203.02 185.705 203.232 186.252 203.232C186.803 203.232 187.24 203.018 187.564 202.588C187.889 202.154 188.051 201.549 188.051 200.771C188.051 200.076 187.885 199.514 187.553 199.084C187.225 198.65 186.787 198.434 186.24 198.434C185.705 198.434 185.273 198.646 184.945 199.072C184.617 199.498 184.453 200.107 184.453 200.9ZM192.264 201.064L191.584 201.773V204H190.5V195H191.584V200.443L192.164 199.746L194.139 197.66H195.457L192.99 200.309L195.744 204H194.473L192.264 201.064ZM199.09 204.117C198.23 204.117 197.531 203.836 196.992 203.273C196.453 202.707 196.184 201.951 196.184 201.006V200.807C196.184 200.178 196.303 199.617 196.541 199.125C196.783 198.629 197.119 198.242 197.549 197.965C197.982 197.684 198.451 197.543 198.955 197.543C199.779 197.543 200.42 197.814 200.877 198.357C201.334 198.9 201.562 199.678 201.562 200.689V201.141H197.268C197.283 201.766 197.465 202.271 197.812 202.658C198.164 203.041 198.609 203.232 199.148 203.232C199.531 203.232 199.855 203.154 200.121 202.998C200.387 202.842 200.619 202.635 200.818 202.377L201.48 202.893C200.949 203.709 200.152 204.117 199.09 204.117ZM198.955 198.434C198.518 198.434 198.15 198.594 197.854 198.914C197.557 199.23 197.373 199.676 197.303 200.25H200.479V200.168C200.447 199.617 200.299 199.191 200.033 198.891C199.768 198.586 199.408 198.434 198.955 198.434ZM203.848 197.66L203.883 198.457C204.367 197.848 205 197.543 205.781 197.543C207.121 197.543 207.797 198.299 207.809 199.811V204H206.725V199.805C206.721 199.348 206.615 199.01 206.408 198.791C206.205 198.572 205.887 198.463 205.453 198.463C205.102 198.463 204.793 198.557 204.527 198.744C204.262 198.932 204.055 199.178 203.906 199.482V204H202.822V197.66H203.848ZM213.135 202.318C213.135 202.025 213.023 201.799 212.801 201.639C212.582 201.475 212.197 201.334 211.646 201.217C211.1 201.1 210.664 200.959 210.34 200.795C210.02 200.631 209.781 200.436 209.625 200.209C209.473 199.982 209.396 199.713 209.396 199.4C209.396 198.881 209.615 198.441 210.053 198.082C210.494 197.723 211.057 197.543 211.74 197.543C212.459 197.543 213.041 197.729 213.486 198.1C213.936 198.471 214.16 198.945 214.16 199.523H213.07C213.07 199.227 212.943 198.971 212.689 198.756C212.439 198.541 212.123 198.434 211.74 198.434C211.346 198.434 211.037 198.52 210.814 198.691C210.592 198.863 210.48 199.088 210.48 199.365C210.48 199.627 210.584 199.824 210.791 199.957C210.998 200.09 211.371 200.217 211.91 200.338C212.453 200.459 212.893 200.604 213.229 200.771C213.564 200.939 213.812 201.143 213.973 201.381C214.137 201.615 214.219 201.902 214.219 202.242C214.219 202.809 213.992 203.264 213.539 203.607C213.086 203.947 212.498 204.117 211.775 204.117C211.268 204.117 210.818 204.027 210.428 203.848C210.037 203.668 209.73 203.418 209.508 203.098C209.289 202.773 209.18 202.424 209.18 202.049H210.264C210.283 202.412 210.428 202.701 210.697 202.916C210.971 203.127 211.33 203.232 211.775 203.232C212.186 203.232 212.514 203.15 212.76 202.986C213.01 202.818 213.135 202.596 213.135 202.318ZM221.15 203.232C221.537 203.232 221.875 203.115 222.164 202.881C222.453 202.646 222.613 202.354 222.645 202.002H223.67C223.65 202.365 223.525 202.711 223.295 203.039C223.064 203.367 222.756 203.629 222.369 203.824C221.986 204.02 221.58 204.117 221.15 204.117C220.287 204.117 219.6 203.83 219.088 203.256C218.58 202.678 218.326 201.889 218.326 200.889V200.707C218.326 200.09 218.439 199.541 218.666 199.061C218.893 198.58 219.217 198.207 219.639 197.941C220.064 197.676 220.566 197.543 221.145 197.543C221.855 197.543 222.445 197.756 222.914 198.182C223.387 198.607 223.639 199.16 223.67 199.84H222.645C222.613 199.43 222.457 199.094 222.176 198.832C221.898 198.566 221.555 198.434 221.145 198.434C220.594 198.434 220.166 198.633 219.861 199.031C219.561 199.426 219.41 199.998 219.41 200.748V200.953C219.41 201.684 219.561 202.246 219.861 202.641C220.162 203.035 220.592 203.232 221.15 203.232ZM225.973 198.428C226.453 197.838 227.078 197.543 227.848 197.543C229.188 197.543 229.863 198.299 229.875 199.811V204H228.791V199.805C228.787 199.348 228.682 199.01 228.475 198.791C228.271 198.572 227.953 198.463 227.52 198.463C227.168 198.463 226.859 198.557 226.594 198.744C226.328 198.932 226.121 199.178 225.973 199.482V204H224.889V195H225.973V198.428ZM235.412 204C235.35 203.875 235.299 203.652 235.26 203.332C234.756 203.855 234.154 204.117 233.455 204.117C232.83 204.117 232.316 203.941 231.914 203.59C231.516 203.234 231.316 202.785 231.316 202.242C231.316 201.582 231.566 201.07 232.066 200.707C232.57 200.34 233.277 200.156 234.188 200.156H235.242V199.658C235.242 199.279 235.129 198.979 234.902 198.756C234.676 198.529 234.342 198.416 233.9 198.416C233.514 198.416 233.189 198.514 232.928 198.709C232.666 198.904 232.535 199.141 232.535 199.418H231.445C231.445 199.102 231.557 198.797 231.779 198.504C232.006 198.207 232.311 197.973 232.693 197.801C233.08 197.629 233.504 197.543 233.965 197.543C234.695 197.543 235.268 197.727 235.682 198.094C236.096 198.457 236.311 198.959 236.326 199.6V202.518C236.326 203.1 236.4 203.562 236.549 203.906V204H235.412ZM233.613 203.174C233.953 203.174 234.275 203.086 234.58 202.91C234.885 202.734 235.105 202.506 235.242 202.225V200.924H234.393C233.064 200.924 232.4 201.312 232.4 202.09C232.4 202.43 232.514 202.695 232.74 202.887C232.967 203.078 233.258 203.174 233.613 203.174ZM239.203 204H238.119V197.66H239.203V204ZM238.031 195.979C238.031 195.803 238.084 195.654 238.189 195.533C238.299 195.412 238.459 195.352 238.67 195.352C238.881 195.352 239.041 195.412 239.15 195.533C239.26 195.654 239.314 195.803 239.314 195.979C239.314 196.154 239.26 196.301 239.15 196.418C239.041 196.535 238.881 196.594 238.67 196.594C238.459 196.594 238.299 196.535 238.189 196.418C238.084 196.301 238.031 196.154 238.031 195.979ZM241.969 197.66L242.004 198.457C242.488 197.848 243.121 197.543 243.902 197.543C245.242 197.543 245.918 198.299 245.93 199.811V204H244.846V199.805C244.842 199.348 244.736 199.01 244.529 198.791C244.326 198.572 244.008 198.463 243.574 198.463C243.223 198.463 242.914 198.557 242.648 198.744C242.383 198.932 242.176 199.178 242.027 199.482V204H240.943V197.66H241.969Z" fill="black"/>
<path d="M287.395 355.854H286.308L290.464 345.047H291.544L287.395 355.854ZM296.938 355H295.666V346.571L293.116 347.508V346.359L296.739 344.999H296.938V355Z" fill="black"/>
<g clip-path="url(#clip2)">
<path d="M303.104 271.004L281.733 292.017C279.351 291.029 276.724 290.768 274.181 291.268C271.638 291.768 269.291 293.006 267.435 294.826C266.199 296.042 265.211 297.488 264.529 299.08C263.847 300.673 263.485 302.381 263.462 304.107C263.439 305.833 263.756 307.544 264.395 309.141C265.034 310.738 265.983 312.191 267.188 313.416C269.62 315.89 272.944 317.287 276.43 317.3C279.916 317.313 283.277 315.941 285.775 313.485C287.63 311.661 288.91 309.334 289.455 306.798C289.999 304.261 289.784 301.628 288.836 299.227L294.047 294.103L294.072 288.994L298.782 288.972L298.805 284.157L303.116 284.136L303.136 280.13L308.284 280.105L311.164 277.274L311.194 270.965L303.104 271.004Z" fill="white" stroke="black" stroke-width="2" stroke-linejoin="round"/>
<path d="M272.808 306.839C273.958 305.69 273.966 303.834 272.828 302.696C271.689 301.557 269.834 301.566 268.684 302.716C267.535 303.865 267.526 305.72 268.664 306.859C269.803 307.998 271.658 307.989 272.808 306.839Z" fill="white" stroke="black" stroke-width="1.23037" stroke-linejoin="round"/>
<path d="M300.236 278.135L300.906 277.465M284.396 293.975L299.303 279.068L284.396 293.975Z" stroke="black"/>
</g>
<g clip-path="url(#clip3)">
<path d="M312.88 288.021C310.922 288.021 309.043 288.792 307.658 290.164C306.272 291.537 305.494 293.399 305.494 295.34C305.497 295.635 305.517 295.93 305.555 296.223V307.681H309.218V301.687V295.34C309.218 294.378 309.604 293.454 310.291 292.774C310.978 292.093 311.909 291.711 312.88 291.711C313.361 291.711 313.838 291.805 314.282 291.987C314.726 292.169 315.13 292.437 315.47 292.774C315.811 293.111 316.08 293.511 316.264 293.951C316.448 294.392 316.543 294.864 316.543 295.34V307.681H320.206V296.224C320.244 295.931 320.264 295.636 320.267 295.34C320.267 293.399 319.488 291.537 318.103 290.164C316.718 288.792 314.839 288.021 312.88 288.021H312.88Z" fill="white" stroke="black" stroke-width="2" stroke-linejoin="round"/>
<path d="M321.005 303.205H304.756C302.973 303.205 301.526 304.638 301.526 306.406V319.539C301.526 321.307 302.973 322.74 304.756 322.74H321.005C322.788 322.74 324.234 321.307 324.234 319.539V306.406C324.234 304.638 322.788 303.205 321.005 303.205Z" fill="white" stroke="black" stroke-width="2" stroke-linejoin="round"/>
<path d="M312.88 308.466C312.59 308.466 312.302 308.522 312.034 308.633C311.765 308.743 311.521 308.904 311.316 309.108C311.11 309.312 310.947 309.553 310.836 309.819C310.725 310.086 310.668 310.371 310.668 310.659C310.668 310.952 310.728 311.241 310.843 311.511C310.958 311.781 311.127 312.025 311.339 312.229V317.479H314.422V312.232C314.634 312.028 314.803 311.783 314.919 311.513C315.034 311.243 315.093 310.952 315.093 310.659C315.093 310.371 315.036 310.086 314.925 309.819C314.814 309.553 314.651 309.312 314.445 309.108C314.24 308.904 313.996 308.743 313.727 308.633C313.459 308.522 313.171 308.466 312.88 308.466Z" fill="white" stroke="black" stroke-width="2" stroke-linejoin="round"/>
</g>
<path d="M241.135 335.232H237.555V339H236.43V330.469H241.715V331.395H237.555V334.312H241.135V335.232ZM246.678 338.373C246.256 338.869 245.637 339.117 244.82 339.117C244.145 339.117 243.629 338.922 243.273 338.531C242.922 338.137 242.744 337.555 242.74 336.785V332.66H243.824V336.756C243.824 337.717 244.215 338.197 244.996 338.197C245.824 338.197 246.375 337.889 246.648 337.271V332.66H247.732V339H246.701L246.678 338.373ZM250.41 332.66L250.445 333.457C250.93 332.848 251.562 332.543 252.344 332.543C253.684 332.543 254.359 333.299 254.371 334.811V339H253.287V334.805C253.283 334.348 253.178 334.01 252.971 333.791C252.768 333.572 252.449 333.463 252.016 333.463C251.664 333.463 251.355 333.557 251.09 333.744C250.824 333.932 250.617 334.178 250.469 334.482V339H249.385V332.66H250.41ZM255.748 335.777C255.748 334.789 255.977 334.004 256.434 333.422C256.891 332.836 257.496 332.543 258.25 332.543C259.023 332.543 259.627 332.816 260.061 333.363L260.113 332.66H261.104V338.848C261.104 339.668 260.859 340.314 260.371 340.787C259.887 341.26 259.234 341.496 258.414 341.496C257.957 341.496 257.51 341.398 257.072 341.203C256.635 341.008 256.301 340.74 256.07 340.4L256.633 339.75C257.098 340.324 257.666 340.611 258.338 340.611C258.865 340.611 259.275 340.463 259.568 340.166C259.865 339.869 260.014 339.451 260.014 338.912V338.367C259.58 338.867 258.988 339.117 258.238 339.117C257.496 339.117 256.895 338.818 256.434 338.221C255.977 337.623 255.748 336.809 255.748 335.777ZM256.838 335.9C256.838 336.615 256.984 337.178 257.277 337.588C257.57 337.994 257.98 338.197 258.508 338.197C259.191 338.197 259.693 337.887 260.014 337.266V334.371C259.682 333.766 259.184 333.463 258.52 333.463C257.992 333.463 257.58 333.668 257.283 334.078C256.986 334.488 256.838 335.096 256.838 335.9ZM263.922 339H262.838V332.66H263.922V339ZM262.75 330.979C262.75 330.803 262.803 330.654 262.908 330.533C263.018 330.412 263.178 330.352 263.389 330.352C263.6 330.352 263.76 330.412 263.869 330.533C263.979 330.654 264.033 330.803 264.033 330.979C264.033 331.154 263.979 331.301 263.869 331.418C263.76 331.535 263.6 331.594 263.389 331.594C263.178 331.594 263.018 331.535 262.908 331.418C262.803 331.301 262.75 331.154 262.75 330.979ZM271.029 335.9C271.029 336.869 270.807 337.648 270.361 338.238C269.916 338.824 269.318 339.117 268.568 339.117C267.768 339.117 267.148 338.834 266.711 338.268L266.658 339H265.662V330H266.746V333.357C267.184 332.814 267.787 332.543 268.557 332.543C269.326 332.543 269.93 332.834 270.367 333.416C270.809 333.998 271.029 334.795 271.029 335.807V335.9ZM269.945 335.777C269.945 335.039 269.803 334.469 269.518 334.066C269.232 333.664 268.822 333.463 268.287 333.463C267.572 333.463 267.059 333.795 266.746 334.459V337.201C267.078 337.865 267.596 338.197 268.299 338.197C268.818 338.197 269.223 337.996 269.512 337.594C269.801 337.191 269.945 336.586 269.945 335.777ZM273.578 339H272.494V330H273.578V339ZM277.949 339.117C277.09 339.117 276.391 338.836 275.852 338.273C275.312 337.707 275.043 336.951 275.043 336.006V335.807C275.043 335.178 275.162 334.617 275.4 334.125C275.643 333.629 275.979 333.242 276.408 332.965C276.842 332.684 277.311 332.543 277.814 332.543C278.639 332.543 279.279 332.814 279.736 333.357C280.193 333.9 280.422 334.678 280.422 335.689V336.141H276.127C276.143 336.766 276.324 337.271 276.672 337.658C277.023 338.041 277.469 338.232 278.008 338.232C278.391 338.232 278.715 338.154 278.98 337.998C279.246 337.842 279.479 337.635 279.678 337.377L280.34 337.893C279.809 338.709 279.012 339.117 277.949 339.117ZM277.814 333.434C277.377 333.434 277.01 333.594 276.713 333.914C276.416 334.23 276.232 334.676 276.162 335.25H279.338V335.168C279.307 334.617 279.158 334.191 278.893 333.891C278.627 333.586 278.268 333.434 277.814 333.434ZM286.129 331.125V332.66H287.312V333.498H286.129V337.43C286.129 337.684 286.182 337.875 286.287 338.004C286.393 338.129 286.572 338.191 286.826 338.191C286.951 338.191 287.123 338.168 287.342 338.121V339C287.057 339.078 286.779 339.117 286.51 339.117C286.025 339.117 285.66 338.971 285.414 338.678C285.168 338.385 285.045 337.969 285.045 337.43V333.498H283.891V332.66H285.045V331.125H286.129ZM288.18 335.771C288.18 335.15 288.301 334.592 288.543 334.096C288.789 333.6 289.129 333.217 289.562 332.947C290 332.678 290.498 332.543 291.057 332.543C291.92 332.543 292.617 332.842 293.148 333.439C293.684 334.037 293.951 334.832 293.951 335.824V335.9C293.951 336.518 293.832 337.072 293.594 337.564C293.359 338.053 293.021 338.434 292.58 338.707C292.143 338.98 291.639 339.117 291.068 339.117C290.209 339.117 289.512 338.818 288.977 338.221C288.445 337.623 288.18 336.832 288.18 335.848V335.771ZM289.27 335.9C289.27 336.604 289.432 337.168 289.756 337.594C290.084 338.02 290.521 338.232 291.068 338.232C291.619 338.232 292.057 338.018 292.381 337.588C292.705 337.154 292.867 336.549 292.867 335.771C292.867 335.076 292.701 334.514 292.369 334.084C292.041 333.65 291.604 333.434 291.057 333.434C290.521 333.434 290.09 333.646 289.762 334.072C289.434 334.498 289.27 335.107 289.27 335.9ZM297.08 336.064L296.4 336.773V339H295.316V330H296.4V335.443L296.98 334.746L298.955 332.66H300.273L297.807 335.309L300.561 339H299.289L297.08 336.064ZM303.906 339.117C303.047 339.117 302.348 338.836 301.809 338.273C301.27 337.707 301 336.951 301 336.006V335.807C301 335.178 301.119 334.617 301.357 334.125C301.6 333.629 301.936 333.242 302.365 332.965C302.799 332.684 303.268 332.543 303.771 332.543C304.596 332.543 305.236 332.814 305.693 333.357C306.15 333.9 306.379 334.678 306.379 335.689V336.141H302.084C302.1 336.766 302.281 337.271 302.629 337.658C302.98 338.041 303.426 338.232 303.965 338.232C304.348 338.232 304.672 338.154 304.938 337.998C305.203 337.842 305.436 337.635 305.635 337.377L306.297 337.893C305.766 338.709 304.969 339.117 303.906 339.117ZM303.771 333.434C303.334 333.434 302.967 333.594 302.67 333.914C302.373 334.23 302.189 334.676 302.119 335.25H305.295V335.168C305.264 334.617 305.115 334.191 304.85 333.891C304.584 333.586 304.225 333.434 303.771 333.434ZM308.664 332.66L308.699 333.457C309.184 332.848 309.816 332.543 310.598 332.543C311.938 332.543 312.613 333.299 312.625 334.811V339H311.541V334.805C311.537 334.348 311.432 334.01 311.225 333.791C311.021 333.572 310.703 333.463 310.27 333.463C309.918 333.463 309.609 333.557 309.344 333.744C309.078 333.932 308.871 334.178 308.723 334.482V339H307.639V332.66H308.664ZM317.951 337.318C317.951 337.025 317.84 336.799 317.617 336.639C317.398 336.475 317.014 336.334 316.463 336.217C315.916 336.1 315.48 335.959 315.156 335.795C314.836 335.631 314.598 335.436 314.441 335.209C314.289 334.982 314.213 334.713 314.213 334.4C314.213 333.881 314.432 333.441 314.869 333.082C315.311 332.723 315.873 332.543 316.557 332.543C317.275 332.543 317.857 332.729 318.303 333.1C318.752 333.471 318.977 333.945 318.977 334.523H317.887C317.887 334.227 317.76 333.971 317.506 333.756C317.256 333.541 316.939 333.434 316.557 333.434C316.162 333.434 315.854 333.52 315.631 333.691C315.408 333.863 315.297 334.088 315.297 334.365C315.297 334.627 315.4 334.824 315.607 334.957C315.814 335.09 316.188 335.217 316.727 335.338C317.27 335.459 317.709 335.604 318.045 335.771C318.381 335.939 318.629 336.143 318.789 336.381C318.953 336.615 319.035 336.902 319.035 337.242C319.035 337.809 318.809 338.264 318.355 338.607C317.902 338.947 317.314 339.117 316.592 339.117C316.084 339.117 315.635 339.027 315.244 338.848C314.854 338.668 314.547 338.418 314.324 338.098C314.105 337.773 313.996 337.424 313.996 337.049H315.08C315.1 337.412 315.244 337.701 315.514 337.916C315.787 338.127 316.146 338.232 316.592 338.232C317.002 338.232 317.33 338.15 317.576 337.986C317.826 337.818 317.951 337.596 317.951 337.318ZM325.967 338.232C326.354 338.232 326.691 338.115 326.98 337.881C327.27 337.646 327.43 337.354 327.461 337.002H328.486C328.467 337.365 328.342 337.711 328.111 338.039C327.881 338.367 327.572 338.629 327.186 338.824C326.803 339.02 326.396 339.117 325.967 339.117C325.104 339.117 324.416 338.83 323.904 338.256C323.396 337.678 323.143 336.889 323.143 335.889V335.707C323.143 335.09 323.256 334.541 323.482 334.061C323.709 333.58 324.033 333.207 324.455 332.941C324.881 332.676 325.383 332.543 325.961 332.543C326.672 332.543 327.262 332.756 327.73 333.182C328.203 333.607 328.455 334.16 328.486 334.84H327.461C327.43 334.43 327.273 334.094 326.992 333.832C326.715 333.566 326.371 333.434 325.961 333.434C325.41 333.434 324.982 333.633 324.678 334.031C324.377 334.426 324.227 334.998 324.227 335.748V335.953C324.227 336.684 324.377 337.246 324.678 337.641C324.979 338.035 325.408 338.232 325.967 338.232ZM330.789 333.428C331.27 332.838 331.895 332.543 332.664 332.543C334.004 332.543 334.68 333.299 334.691 334.811V339H333.607V334.805C333.604 334.348 333.498 334.01 333.291 333.791C333.088 333.572 332.77 333.463 332.336 333.463C331.984 333.463 331.676 333.557 331.41 333.744C331.145 333.932 330.938 334.178 330.789 334.482V339H329.705V330H330.789V333.428ZM340.229 339C340.166 338.875 340.115 338.652 340.076 338.332C339.572 338.855 338.971 339.117 338.271 339.117C337.646 339.117 337.133 338.941 336.73 338.59C336.332 338.234 336.133 337.785 336.133 337.242C336.133 336.582 336.383 336.07 336.883 335.707C337.387 335.34 338.094 335.156 339.004 335.156H340.059V334.658C340.059 334.279 339.945 333.979 339.719 333.756C339.492 333.529 339.158 333.416 338.717 333.416C338.33 333.416 338.006 333.514 337.744 333.709C337.482 333.904 337.352 334.141 337.352 334.418H336.262C336.262 334.102 336.373 333.797 336.596 333.504C336.822 333.207 337.127 332.973 337.51 332.801C337.896 332.629 338.32 332.543 338.781 332.543C339.512 332.543 340.084 332.727 340.498 333.094C340.912 333.457 341.127 333.959 341.143 334.6V337.518C341.143 338.1 341.217 338.562 341.365 338.906V339H340.229ZM338.43 338.174C338.77 338.174 339.092 338.086 339.396 337.91C339.701 337.734 339.922 337.506 340.059 337.225V335.924H339.209C337.881 335.924 337.217 336.312 337.217 337.09C337.217 337.43 337.33 337.695 337.557 337.887C337.783 338.078 338.074 338.174 338.43 338.174ZM344.02 339H342.936V332.66H344.02V339ZM342.848 330.979C342.848 330.803 342.9 330.654 343.006 330.533C343.115 330.412 343.275 330.352 343.486 330.352C343.697 330.352 343.857 330.412 343.967 330.533C344.076 330.654 344.131 330.803 344.131 330.979C344.131 331.154 344.076 331.301 343.967 331.418C343.857 331.535 343.697 331.594 343.486 331.594C343.275 331.594 343.115 331.535 343.006 331.418C342.9 331.301 342.848 331.154 342.848 330.979ZM346.785 332.66L346.82 333.457C347.305 332.848 347.938 332.543 348.719 332.543C350.059 332.543 350.734 333.299 350.746 334.811V339H349.662V334.805C349.658 334.348 349.553 334.01 349.346 333.791C349.143 333.572 348.824 333.463 348.391 333.463C348.039 333.463 347.73 333.557 347.465 333.744C347.199 333.932 346.992 334.178 346.844 334.482V339H345.76V332.66H346.785Z" fill="black"/>
<line x1="440.875" y1="399.484" x2="293.875" y2="361.484" stroke="black"/>
<path d="M136.395 358.854H135.308L139.464 348.047H140.544L136.395 358.854ZM148.022 353.755C148.022 355.236 147.77 356.337 147.264 357.057C146.758 357.777 145.967 358.137 144.892 358.137C143.83 358.137 143.044 357.786 142.533 357.084C142.023 356.378 141.758 355.325 141.74 353.926V352.237C141.74 350.774 141.993 349.688 142.499 348.977C143.005 348.266 143.798 347.91 144.878 347.91C145.949 347.91 146.737 348.254 147.243 348.942C147.749 349.626 148.009 350.683 148.022 352.114V353.755ZM146.758 352.025C146.758 350.954 146.607 350.175 146.307 349.688C146.006 349.195 145.53 348.949 144.878 348.949C144.231 348.949 143.759 349.193 143.463 349.681C143.167 350.168 143.014 350.918 143.005 351.93V353.953C143.005 355.029 143.16 355.824 143.47 356.339C143.784 356.849 144.258 357.104 144.892 357.104C145.516 357.104 145.979 356.863 146.279 356.38C146.585 355.897 146.744 355.136 146.758 354.097V352.025Z" fill="black"/>
<g clip-path="url(#clip4)">
<path d="M152.104 274.004L130.733 295.017C128.351 294.029 125.724 293.768 123.181 294.268C120.638 294.768 118.291 296.006 116.435 297.826C115.199 299.042 114.211 300.488 113.529 302.08C112.847 303.673 112.485 305.381 112.462 307.107C112.439 308.833 112.756 310.544 113.395 312.141C114.034 313.738 114.983 315.191 116.188 316.416C118.62 318.89 121.944 320.287 125.43 320.3C128.916 320.313 132.277 318.941 134.775 316.485C136.63 314.661 137.91 312.334 138.455 309.798C138.999 307.261 138.784 304.628 137.836 302.227L143.047 297.103L143.072 291.994L147.782 291.972L147.805 287.157L152.116 287.136L152.136 283.13L157.284 283.105L160.164 280.274L160.194 273.965L152.104 274.004Z" fill="white" stroke="black" stroke-width="2" stroke-linejoin="round"/>
<path d="M121.808 309.839C122.958 308.69 122.966 306.834 121.828 305.696C120.689 304.557 118.834 304.566 117.684 305.716C116.535 306.865 116.526 308.72 117.664 309.859C118.803 310.998 120.658 310.989 121.808 309.839Z" fill="white" stroke="black" stroke-width="1.23037" stroke-linejoin="round"/>
<path d="M149.236 281.135L149.906 280.465M133.396 296.975L148.303 282.068L133.396 296.975Z" stroke="black"/>
</g>
<g clip-path="url(#clip5)">
<path d="M161.88 291.021C159.922 291.021 158.043 291.792 156.658 293.164C155.272 294.537 154.494 296.399 154.494 298.34C154.497 298.635 154.517 298.93 154.555 299.223V310.681H158.218V304.687V298.34C158.218 297.378 158.604 296.454 159.291 295.774C159.978 295.093 160.909 294.711 161.88 294.711C162.361 294.711 162.838 294.805 163.282 294.987C163.726 295.169 164.13 295.437 164.47 295.774C164.811 296.111 165.08 296.511 165.264 296.951C165.448 297.392 165.543 297.864 165.543 298.34V310.681H169.206V299.224C169.244 298.931 169.264 298.636 169.267 298.34C169.267 296.399 168.488 294.537 167.103 293.164C165.718 291.792 163.839 291.021 161.88 291.021H161.88Z" fill="white" stroke="black" stroke-width="2" stroke-linejoin="round"/>
<path d="M170.005 306.205H153.756C151.973 306.205 150.526 307.638 150.526 309.406V322.539C150.526 324.307 151.973 325.74 153.756 325.74H170.005C171.788 325.74 173.234 324.307 173.234 322.539V309.406C173.234 307.638 171.788 306.205 170.005 306.205Z" fill="white" stroke="black" stroke-width="2" stroke-linejoin="round"/>
<path d="M161.88 311.466C161.59 311.466 161.302 311.522 161.034 311.633C160.765 311.743 160.521 311.904 160.316 312.108C160.11 312.312 159.947 312.553 159.836 312.819C159.725 313.086 159.668 313.371 159.668 313.659C159.668 313.952 159.728 314.241 159.843 314.511C159.958 314.781 160.127 315.025 160.339 315.229V320.479H163.422V315.232C163.634 315.028 163.803 314.783 163.919 314.513C164.034 314.243 164.093 313.952 164.093 313.659C164.093 313.371 164.036 313.086 163.925 312.819C163.814 312.553 163.651 312.312 163.445 312.108C163.24 311.904 162.996 311.743 162.727 311.633C162.459 311.522 162.171 311.466 161.88 311.466Z" fill="white" stroke="black" stroke-width="2" stroke-linejoin="round"/>
</g>
<path d="M122.965 342H121.834L117.539 335.426V342H116.408V333.469H117.539L121.846 340.072V333.469H122.965V342ZM129.668 338.232H126.088V342H124.963V333.469H130.248V334.395H126.088V337.312H129.668V338.232ZM137.607 334.395H134.865V342H133.746V334.395H131.01V333.469H137.607V334.395ZM143.988 341.232C144.375 341.232 144.713 341.115 145.002 340.881C145.291 340.646 145.451 340.354 145.482 340.002H146.508C146.488 340.365 146.363 340.711 146.133 341.039C145.902 341.367 145.594 341.629 145.207 341.824C144.824 342.02 144.418 342.117 143.988 342.117C143.125 342.117 142.438 341.83 141.926 341.256C141.418 340.678 141.164 339.889 141.164 338.889V338.707C141.164 338.09 141.277 337.541 141.504 337.061C141.73 336.58 142.055 336.207 142.477 335.941C142.902 335.676 143.404 335.543 143.982 335.543C144.693 335.543 145.283 335.756 145.752 336.182C146.225 336.607 146.477 337.16 146.508 337.84H145.482C145.451 337.43 145.295 337.094 145.014 336.832C144.736 336.566 144.393 336.434 143.982 336.434C143.432 336.434 143.004 336.633 142.699 337.031C142.398 337.426 142.248 337.998 142.248 338.748V338.953C142.248 339.684 142.398 340.246 142.699 340.641C143 341.035 143.43 341.232 143.988 341.232ZM148.811 336.428C149.291 335.838 149.916 335.543 150.686 335.543C152.025 335.543 152.701 336.299 152.713 337.811V342H151.629V337.805C151.625 337.348 151.52 337.01 151.312 336.791C151.109 336.572 150.791 336.463 150.357 336.463C150.006 336.463 149.697 336.557 149.432 336.744C149.166 336.932 148.959 337.178 148.811 337.482V342H147.727V333H148.811V336.428ZM158.25 342C158.188 341.875 158.137 341.652 158.098 341.332C157.594 341.855 156.992 342.117 156.293 342.117C155.668 342.117 155.154 341.941 154.752 341.59C154.354 341.234 154.154 340.785 154.154 340.242C154.154 339.582 154.404 339.07 154.904 338.707C155.408 338.34 156.115 338.156 157.025 338.156H158.08V337.658C158.08 337.279 157.967 336.979 157.74 336.756C157.514 336.529 157.18 336.416 156.738 336.416C156.352 336.416 156.027 336.514 155.766 336.709C155.504 336.904 155.373 337.141 155.373 337.418H154.283C154.283 337.102 154.395 336.797 154.617 336.504C154.844 336.207 155.148 335.973 155.531 335.801C155.918 335.629 156.342 335.543 156.803 335.543C157.533 335.543 158.105 335.727 158.52 336.094C158.934 336.457 159.148 336.959 159.164 337.6V340.518C159.164 341.1 159.238 341.562 159.387 341.906V342H158.25ZM156.451 341.174C156.791 341.174 157.113 341.086 157.418 340.91C157.723 340.734 157.943 340.506 158.08 340.225V338.924H157.23C155.902 338.924 155.238 339.312 155.238 340.09C155.238 340.43 155.352 340.695 155.578 340.887C155.805 341.078 156.096 341.174 156.451 341.174ZM162.041 342H160.957V335.66H162.041V342ZM160.869 333.979C160.869 333.803 160.922 333.654 161.027 333.533C161.137 333.412 161.297 333.352 161.508 333.352C161.719 333.352 161.879 333.412 161.988 333.533C162.098 333.654 162.152 333.803 162.152 333.979C162.152 334.154 162.098 334.301 161.988 334.418C161.879 334.535 161.719 334.594 161.508 334.594C161.297 334.594 161.137 334.535 161.027 334.418C160.922 334.301 160.869 334.154 160.869 333.979ZM164.807 335.66L164.842 336.457C165.326 335.848 165.959 335.543 166.74 335.543C168.08 335.543 168.756 336.299 168.768 337.811V342H167.684V337.805C167.68 337.348 167.574 337.01 167.367 336.791C167.164 336.572 166.846 336.463 166.412 336.463C166.061 336.463 165.752 336.557 165.486 336.744C165.221 336.932 165.014 337.178 164.865 337.482V342H163.781V335.66H164.807Z" fill="black"/>
<path d="M186.395 505.854H185.308L189.464 495.047H190.544L186.395 505.854ZM198.022 500.755C198.022 502.236 197.77 503.337 197.264 504.057C196.758 504.777 195.967 505.137 194.892 505.137C193.83 505.137 193.044 504.786 192.533 504.084C192.023 503.378 191.758 502.325 191.74 500.926V499.237C191.74 497.774 191.993 496.688 192.499 495.977C193.005 495.266 193.798 494.91 194.878 494.91C195.949 494.91 196.737 495.254 197.243 495.942C197.749 496.626 198.009 497.683 198.022 499.114V500.755ZM196.758 499.025C196.758 497.954 196.607 497.175 196.307 496.688C196.006 496.195 195.53 495.949 194.878 495.949C194.231 495.949 193.759 496.193 193.463 496.681C193.167 497.168 193.014 497.918 193.005 498.93V500.953C193.005 502.029 193.16 502.824 193.47 503.339C193.784 503.849 194.258 504.104 194.892 504.104C195.516 504.104 195.979 503.863 196.279 503.38C196.585 502.897 196.744 502.136 196.758 501.097V499.025Z" fill="black"/>
<g clip-path="url(#clip6)">
<path d="M202.104 421.004L180.733 442.017C178.351 441.029 175.724 440.768 173.181 441.268C170.638 441.768 168.291 443.006 166.435 444.826C165.199 446.042 164.211 447.488 163.529 449.08C162.847 450.673 162.485 452.381 162.462 454.107C162.439 455.833 162.756 457.544 163.395 459.141C164.034 460.738 164.983 462.191 166.188 463.416C168.62 465.89 171.944 467.287 175.43 467.3C178.916 467.313 182.277 465.941 184.775 463.485C186.63 461.661 187.91 459.334 188.455 456.798C188.999 454.261 188.784 451.628 187.836 449.227L193.047 444.103L193.072 438.994L197.782 438.972L197.805 434.157L202.116 434.136L202.136 430.13L207.284 430.105L210.164 427.274L210.194 420.965L202.104 421.004Z" fill="white" stroke="black" stroke-width="2" stroke-linejoin="round"/>
<path d="M171.808 456.839C172.958 455.69 172.966 453.834 171.828 452.696C170.689 451.557 168.834 451.566 167.684 452.716C166.535 453.865 166.526 455.72 167.664 456.859C168.803 457.998 170.658 457.989 171.808 456.839Z" fill="white" stroke="black" stroke-width="1.23037" stroke-linejoin="round"/>
<path d="M199.236 428.135L199.906 427.465M183.396 443.975L198.303 429.068L183.396 443.975Z" stroke="black"/>
</g>
<g clip-path="url(#clip7)">
<path d="M211.88 438.021C209.922 438.021 208.043 438.792 206.658 440.164C205.272 441.537 204.494 443.399 204.494 445.34C204.497 445.635 204.517 445.93 204.555 446.223V457.681H208.218V451.687V445.34C208.218 444.378 208.604 443.455 209.291 442.774C209.978 442.093 210.909 441.711 211.88 441.711C212.361 441.711 212.838 441.805 213.282 441.987C213.726 442.169 214.13 442.437 214.47 442.774C214.811 443.111 215.08 443.511 215.264 443.951C215.448 444.392 215.543 444.864 215.543 445.34V457.681H219.206V446.224C219.244 445.931 219.264 445.636 219.267 445.34C219.267 443.399 218.488 441.537 217.103 440.164C215.718 438.792 213.839 438.021 211.88 438.021H211.88Z" fill="white" stroke="black" stroke-width="2" stroke-linejoin="round"/>
<path d="M220.005 453.205H203.756C201.973 453.205 200.526 454.638 200.526 456.406V469.539C200.526 471.307 201.973 472.74 203.756 472.74H220.005C221.788 472.74 223.234 471.307 223.234 469.539V456.406C223.234 454.638 221.788 453.205 220.005 453.205Z" fill="white" stroke="black" stroke-width="2" stroke-linejoin="round"/>
<path d="M211.88 458.466C211.59 458.466 211.302 458.522 211.034 458.633C210.765 458.743 210.521 458.904 210.316 459.108C210.11 459.312 209.947 459.553 209.836 459.819C209.725 460.086 209.668 460.371 209.668 460.659C209.668 460.952 209.728 461.241 209.843 461.511C209.958 461.781 210.127 462.025 210.339 462.229V467.479H213.422V462.232C213.634 462.028 213.803 461.783 213.919 461.513C214.034 461.243 214.093 460.952 214.093 460.659C214.093 460.371 214.036 460.086 213.925 459.819C213.814 459.553 213.651 459.312 213.445 459.108C213.24 458.904 212.996 458.743 212.727 458.633C212.459 458.522 212.171 458.466 211.88 458.466Z" fill="white" stroke="black" stroke-width="2" stroke-linejoin="round"/>
</g>
<path d="M167.697 485.197C166.732 484.92 166.029 484.58 165.588 484.178C165.15 483.771 164.932 483.271 164.932 482.678C164.932 482.006 165.199 481.451 165.734 481.014C166.273 480.572 166.973 480.352 167.832 480.352C168.418 480.352 168.939 480.465 169.396 480.691C169.857 480.918 170.213 481.23 170.463 481.629C170.717 482.027 170.844 482.463 170.844 482.936H169.713C169.713 482.42 169.549 482.016 169.221 481.723C168.893 481.426 168.43 481.277 167.832 481.277C167.277 481.277 166.844 481.4 166.531 481.646C166.223 481.889 166.068 482.227 166.068 482.66C166.068 483.008 166.215 483.303 166.508 483.545C166.805 483.783 167.307 484.002 168.014 484.201C168.725 484.4 169.279 484.621 169.678 484.863C170.08 485.102 170.377 485.381 170.568 485.701C170.764 486.021 170.861 486.398 170.861 486.832C170.861 487.523 170.592 488.078 170.053 488.496C169.514 488.91 168.793 489.117 167.891 489.117C167.305 489.117 166.758 489.006 166.25 488.783C165.742 488.557 165.35 488.248 165.072 487.857C164.799 487.467 164.662 487.023 164.662 486.527H165.793C165.793 487.043 165.982 487.451 166.361 487.752C166.744 488.049 167.254 488.197 167.891 488.197C168.484 488.197 168.939 488.076 169.256 487.834C169.572 487.592 169.73 487.262 169.73 486.844C169.73 486.426 169.584 486.104 169.291 485.877C168.998 485.646 168.467 485.42 167.697 485.197ZM173.316 489H172.232V482.66H173.316V489ZM172.145 480.979C172.145 480.803 172.197 480.654 172.303 480.533C172.412 480.412 172.572 480.352 172.783 480.352C172.994 480.352 173.154 480.412 173.264 480.533C173.373 480.654 173.428 480.803 173.428 480.979C173.428 481.154 173.373 481.301 173.264 481.418C173.154 481.535 172.994 481.594 172.783 481.594C172.572 481.594 172.412 481.535 172.303 481.418C172.197 481.301 172.145 481.154 172.145 480.979ZM174.799 485.777C174.799 484.789 175.027 484.004 175.484 483.422C175.941 482.836 176.547 482.543 177.301 482.543C178.074 482.543 178.678 482.816 179.111 483.363L179.164 482.66H180.154V488.848C180.154 489.668 179.91 490.314 179.422 490.787C178.938 491.26 178.285 491.496 177.465 491.496C177.008 491.496 176.561 491.398 176.123 491.203C175.686 491.008 175.352 490.74 175.121 490.4L175.684 489.75C176.148 490.324 176.717 490.611 177.389 490.611C177.916 490.611 178.326 490.463 178.619 490.166C178.916 489.869 179.064 489.451 179.064 488.912V488.367C178.631 488.867 178.039 489.117 177.289 489.117C176.547 489.117 175.945 488.818 175.484 488.221C175.027 487.623 174.799 486.809 174.799 485.777ZM175.889 485.9C175.889 486.615 176.035 487.178 176.328 487.588C176.621 487.994 177.031 488.197 177.559 488.197C178.242 488.197 178.744 487.887 179.064 487.266V484.371C178.732 483.766 178.234 483.463 177.57 483.463C177.043 483.463 176.631 483.668 176.334 484.078C176.037 484.488 175.889 485.096 175.889 485.9ZM182.814 482.66L182.844 483.363C183.309 482.816 183.936 482.543 184.725 482.543C185.611 482.543 186.215 482.883 186.535 483.562C186.746 483.258 187.02 483.012 187.355 482.824C187.695 482.637 188.096 482.543 188.557 482.543C189.947 482.543 190.654 483.279 190.678 484.752V489H189.594V484.816C189.594 484.363 189.49 484.025 189.283 483.803C189.076 483.576 188.729 483.463 188.24 483.463C187.838 483.463 187.504 483.584 187.238 483.826C186.973 484.064 186.818 484.387 186.775 484.793V489H185.686V484.846C185.686 483.924 185.234 483.463 184.332 483.463C183.621 483.463 183.135 483.766 182.873 484.371V489H181.789V482.66H182.814ZM196.232 489C196.17 488.875 196.119 488.652 196.08 488.332C195.576 488.855 194.975 489.117 194.275 489.117C193.65 489.117 193.137 488.941 192.734 488.59C192.336 488.234 192.137 487.785 192.137 487.242C192.137 486.582 192.387 486.07 192.887 485.707C193.391 485.34 194.098 485.156 195.008 485.156H196.062V484.658C196.062 484.279 195.949 483.979 195.723 483.756C195.496 483.529 195.162 483.416 194.721 483.416C194.334 483.416 194.01 483.514 193.748 483.709C193.486 483.904 193.355 484.141 193.355 484.418H192.266C192.266 484.102 192.377 483.797 192.6 483.504C192.826 483.207 193.131 482.973 193.514 482.801C193.9 482.629 194.324 482.543 194.785 482.543C195.516 482.543 196.088 482.727 196.502 483.094C196.916 483.457 197.131 483.959 197.146 484.6V487.518C197.146 488.1 197.221 488.562 197.369 488.906V489H196.232ZM194.434 488.174C194.773 488.174 195.096 488.086 195.4 487.91C195.705 487.734 195.926 487.506 196.062 487.225V485.924H195.213C193.885 485.924 193.221 486.312 193.221 487.09C193.221 487.43 193.334 487.695 193.561 487.887C193.787 488.078 194.078 488.174 194.434 488.174ZM205.021 480.469V486.27C205.018 487.074 204.764 487.732 204.26 488.244C203.76 488.756 203.08 489.043 202.221 489.105L201.922 489.117C200.988 489.117 200.244 488.865 199.689 488.361C199.135 487.857 198.854 487.164 198.846 486.281V480.469H199.959V486.246C199.959 486.863 200.129 487.344 200.469 487.688C200.809 488.027 201.293 488.197 201.922 488.197C202.559 488.197 203.045 488.027 203.381 487.688C203.721 487.348 203.891 486.869 203.891 486.252V480.469H205.021ZM209.311 485.197C208.346 484.92 207.643 484.58 207.201 484.178C206.764 483.771 206.545 483.271 206.545 482.678C206.545 482.006 206.812 481.451 207.348 481.014C207.887 480.572 208.586 480.352 209.445 480.352C210.031 480.352 210.553 480.465 211.01 480.691C211.471 480.918 211.826 481.23 212.076 481.629C212.33 482.027 212.457 482.463 212.457 482.936H211.326C211.326 482.42 211.162 482.016 210.834 481.723C210.506 481.426 210.043 481.277 209.445 481.277C208.891 481.277 208.457 481.4 208.145 481.646C207.836 481.889 207.682 482.227 207.682 482.66C207.682 483.008 207.828 483.303 208.121 483.545C208.418 483.783 208.92 484.002 209.627 484.201C210.338 484.4 210.893 484.621 211.291 484.863C211.693 485.102 211.99 485.381 212.182 485.701C212.377 486.021 212.475 486.398 212.475 486.832C212.475 487.523 212.205 488.078 211.666 488.496C211.127 488.91 210.406 489.117 209.504 489.117C208.918 489.117 208.371 489.006 207.863 488.783C207.355 488.557 206.963 488.248 206.686 487.857C206.412 487.467 206.275 487.023 206.275 486.527H207.406C207.406 487.043 207.596 487.451 207.975 487.752C208.357 488.049 208.867 488.197 209.504 488.197C210.098 488.197 210.553 488.076 210.869 487.834C211.186 487.592 211.344 487.262 211.344 486.844C211.344 486.426 211.197 486.104 210.904 485.877C210.611 485.646 210.08 485.42 209.311 485.197ZM213.922 489V480.469H216.33C217.072 480.469 217.729 480.633 218.299 480.961C218.869 481.289 219.309 481.756 219.617 482.361C219.93 482.967 220.088 483.662 220.092 484.447V484.992C220.092 485.797 219.936 486.502 219.623 487.107C219.314 487.713 218.871 488.178 218.293 488.502C217.719 488.826 217.049 488.992 216.283 489H213.922ZM215.047 481.395V488.08H216.23C217.098 488.08 217.771 487.811 218.252 487.271C218.736 486.732 218.979 485.965 218.979 484.969V484.471C218.979 483.502 218.75 482.75 218.293 482.215C217.84 481.676 217.195 481.402 216.359 481.395H215.047Z" fill="black"/>
<path d="M287.395 505.854H286.308L290.464 495.047H291.544L287.395 505.854ZM296.938 505H295.666V496.571L293.116 497.508V496.359L296.739 494.999H296.938V505Z" fill="black"/>
<g clip-path="url(#clip8)">
<path d="M303.104 421.004L281.733 442.017C279.351 441.029 276.724 440.768 274.181 441.268C271.638 441.768 269.291 443.006 267.435 444.826C266.199 446.042 265.211 447.488 264.529 449.08C263.847 450.673 263.485 452.381 263.462 454.107C263.439 455.833 263.756 457.544 264.395 459.141C265.034 460.738 265.983 462.191 267.188 463.416C269.62 465.89 272.944 467.287 276.43 467.3C279.916 467.313 283.277 465.941 285.775 463.485C287.63 461.661 288.91 459.334 289.455 456.798C289.999 454.261 289.784 451.628 288.836 449.227L294.047 444.103L294.072 438.994L298.782 438.972L298.805 434.157L303.116 434.136L303.136 430.13L308.284 430.105L311.164 427.274L311.194 420.965L303.104 421.004Z" fill="white" stroke="black" stroke-width="2" stroke-linejoin="round"/>
<path d="M272.808 456.839C273.958 455.69 273.966 453.834 272.828 452.696C271.689 451.557 269.834 451.566 268.684 452.716C267.535 453.865 267.526 455.72 268.664 456.859C269.803 457.998 271.658 457.989 272.808 456.839Z" fill="white" stroke="black" stroke-width="1.23037" stroke-linejoin="round"/>
<path d="M300.236 428.135L300.906 427.465M284.396 443.975L299.303 429.068L284.396 443.975Z" stroke="black"/>
</g>
<g clip-path="url(#clip9)">
<path d="M312.88 438.021C310.922 438.021 309.043 438.792 307.658 440.164C306.272 441.537 305.494 443.399 305.494 445.34C305.497 445.635 305.517 445.93 305.555 446.223V457.681H309.218V451.687V445.34C309.218 444.378 309.604 443.455 310.291 442.774C310.978 442.093 311.909 441.711 312.88 441.711C313.361 441.711 313.838 441.805 314.282 441.987C314.726 442.169 315.13 442.437 315.47 442.774C315.811 443.111 316.08 443.511 316.264 443.951C316.448 444.392 316.543 444.864 316.543 445.34V457.681H320.206V446.224C320.244 445.931 320.264 445.636 320.267 445.34C320.267 443.399 319.488 441.537 318.103 440.164C316.718 438.792 314.839 438.021 312.88 438.021H312.88Z" fill="white" stroke="black" stroke-width="2" stroke-linejoin="round"/>
<path d="M321.005 453.205H304.756C302.973 453.205 301.526 454.638 301.526 456.406V469.539C301.526 471.307 302.973 472.74 304.756 472.74H321.005C322.788 472.74 324.234 471.307 324.234 469.539V456.406C324.234 454.638 322.788 453.205 321.005 453.205Z" fill="white" stroke="black" stroke-width="2" stroke-linejoin="round"/>
<path d="M312.88 458.466C312.59 458.466 312.302 458.522 312.034 458.633C311.765 458.743 311.521 458.904 311.316 459.108C311.11 459.312 310.947 459.553 310.836 459.819C310.725 460.086 310.668 460.371 310.668 460.659C310.668 460.952 310.728 461.241 310.843 461.511C310.958 461.781 311.127 462.025 311.339 462.229V467.479H314.422V462.232C314.634 462.028 314.803 461.783 314.919 461.513C315.034 461.243 315.093 460.952 315.093 460.659C315.093 460.371 315.036 460.086 314.925 459.819C314.814 459.553 314.651 459.312 314.445 459.108C314.24 458.904 313.996 458.743 313.727 458.633C313.459 458.522 313.171 458.466 312.88 458.466Z" fill="white" stroke="black" stroke-width="2" stroke-linejoin="round"/>
</g>
<path d="M268.508 485.197C267.543 484.92 266.84 484.58 266.398 484.178C265.961 483.771 265.742 483.271 265.742 482.678C265.742 482.006 266.01 481.451 266.545 481.014C267.084 480.572 267.783 480.352 268.643 480.352C269.229 480.352 269.75 480.465 270.207 480.691C270.668 480.918 271.023 481.23 271.273 481.629C271.527 482.027 271.654 482.463 271.654 482.936H270.523C270.523 482.42 270.359 482.016 270.031 481.723C269.703 481.426 269.24 481.277 268.643 481.277C268.088 481.277 267.654 481.4 267.342 481.646C267.033 481.889 266.879 482.227 266.879 482.66C266.879 483.008 267.025 483.303 267.318 483.545C267.615 483.783 268.117 484.002 268.824 484.201C269.535 484.4 270.09 484.621 270.488 484.863C270.891 485.102 271.188 485.381 271.379 485.701C271.574 486.021 271.672 486.398 271.672 486.832C271.672 487.523 271.402 488.078 270.863 488.496C270.324 488.91 269.604 489.117 268.701 489.117C268.115 489.117 267.568 489.006 267.061 488.783C266.553 488.557 266.16 488.248 265.883 487.857C265.609 487.467 265.473 487.023 265.473 486.527H266.604C266.604 487.043 266.793 487.451 267.172 487.752C267.555 488.049 268.064 488.197 268.701 488.197C269.295 488.197 269.75 488.076 270.066 487.834C270.383 487.592 270.541 487.262 270.541 486.844C270.541 486.426 270.395 486.104 270.102 485.877C269.809 485.646 269.277 485.42 268.508 485.197ZM274.127 489H273.043V482.66H274.127V489ZM272.955 480.979C272.955 480.803 273.008 480.654 273.113 480.533C273.223 480.412 273.383 480.352 273.594 480.352C273.805 480.352 273.965 480.412 274.074 480.533C274.184 480.654 274.238 480.803 274.238 480.979C274.238 481.154 274.184 481.301 274.074 481.418C273.965 481.535 273.805 481.594 273.594 481.594C273.383 481.594 273.223 481.535 273.113 481.418C273.008 481.301 272.955 481.154 272.955 480.979ZM275.609 485.777C275.609 484.789 275.838 484.004 276.295 483.422C276.752 482.836 277.357 482.543 278.111 482.543C278.885 482.543 279.488 482.816 279.922 483.363L279.975 482.66H280.965V488.848C280.965 489.668 280.721 490.314 280.232 490.787C279.748 491.26 279.096 491.496 278.275 491.496C277.818 491.496 277.371 491.398 276.934 491.203C276.496 491.008 276.162 490.74 275.932 490.4L276.494 489.75C276.959 490.324 277.527 490.611 278.199 490.611C278.727 490.611 279.137 490.463 279.43 490.166C279.727 489.869 279.875 489.451 279.875 488.912V488.367C279.441 488.867 278.85 489.117 278.1 489.117C277.357 489.117 276.756 488.818 276.295 488.221C275.838 487.623 275.609 486.809 275.609 485.777ZM276.699 485.9C276.699 486.615 276.846 487.178 277.139 487.588C277.432 487.994 277.842 488.197 278.369 488.197C279.053 488.197 279.555 487.887 279.875 487.266V484.371C279.543 483.766 279.045 483.463 278.381 483.463C277.854 483.463 277.441 483.668 277.145 484.078C276.848 484.488 276.699 485.096 276.699 485.9ZM283.625 482.66L283.654 483.363C284.119 482.816 284.746 482.543 285.535 482.543C286.422 482.543 287.025 482.883 287.346 483.562C287.557 483.258 287.83 483.012 288.166 482.824C288.506 482.637 288.906 482.543 289.367 482.543C290.758 482.543 291.465 483.279 291.488 484.752V489H290.404V484.816C290.404 484.363 290.301 484.025 290.094 483.803C289.887 483.576 289.539 483.463 289.051 483.463C288.648 483.463 288.314 483.584 288.049 483.826C287.783 484.064 287.629 484.387 287.586 484.793V489H286.496V484.846C286.496 483.924 286.045 483.463 285.143 483.463C284.432 483.463 283.945 483.766 283.684 484.371V489H282.6V482.66H283.625ZM297.043 489C296.98 488.875 296.93 488.652 296.891 488.332C296.387 488.855 295.785 489.117 295.086 489.117C294.461 489.117 293.947 488.941 293.545 488.59C293.146 488.234 292.947 487.785 292.947 487.242C292.947 486.582 293.197 486.07 293.697 485.707C294.201 485.34 294.908 485.156 295.818 485.156H296.873V484.658C296.873 484.279 296.76 483.979 296.533 483.756C296.307 483.529 295.973 483.416 295.531 483.416C295.145 483.416 294.82 483.514 294.559 483.709C294.297 483.904 294.166 484.141 294.166 484.418H293.076C293.076 484.102 293.188 483.797 293.41 483.504C293.637 483.207 293.941 482.973 294.324 482.801C294.711 482.629 295.135 482.543 295.596 482.543C296.326 482.543 296.898 482.727 297.312 483.094C297.727 483.457 297.941 483.959 297.957 484.6V487.518C297.957 488.1 298.031 488.562 298.18 488.906V489H297.043ZM295.244 488.174C295.584 488.174 295.906 488.086 296.211 487.91C296.516 487.734 296.736 487.506 296.873 487.225V485.924H296.023C294.695 485.924 294.031 486.312 294.031 487.09C294.031 487.43 294.145 487.695 294.371 487.887C294.598 488.078 294.889 488.174 295.244 488.174ZM302.955 485.549H300.951V489H299.82V480.469H302.645C303.605 480.469 304.344 480.688 304.859 481.125C305.379 481.562 305.639 482.199 305.639 483.035C305.639 483.566 305.494 484.029 305.205 484.424C304.92 484.818 304.521 485.113 304.01 485.309L306.014 488.93V489H304.807L302.955 485.549ZM300.951 484.629H302.68C303.238 484.629 303.682 484.484 304.01 484.195C304.342 483.906 304.508 483.52 304.508 483.035C304.508 482.508 304.35 482.104 304.033 481.822C303.721 481.541 303.268 481.398 302.674 481.395H300.951V484.629ZM309.734 485.197C308.77 484.92 308.066 484.58 307.625 484.178C307.188 483.771 306.969 483.271 306.969 482.678C306.969 482.006 307.236 481.451 307.771 481.014C308.311 480.572 309.01 480.352 309.869 480.352C310.455 480.352 310.977 480.465 311.434 480.691C311.895 480.918 312.25 481.23 312.5 481.629C312.754 482.027 312.881 482.463 312.881 482.936H311.75C311.75 482.42 311.586 482.016 311.258 481.723C310.93 481.426 310.467 481.277 309.869 481.277C309.314 481.277 308.881 481.4 308.568 481.646C308.26 481.889 308.105 482.227 308.105 482.66C308.105 483.008 308.252 483.303 308.545 483.545C308.842 483.783 309.344 484.002 310.051 484.201C310.762 484.4 311.316 484.621 311.715 484.863C312.117 485.102 312.414 485.381 312.605 485.701C312.801 486.021 312.898 486.398 312.898 486.832C312.898 487.523 312.629 488.078 312.09 488.496C311.551 488.91 310.83 489.117 309.928 489.117C309.342 489.117 308.795 489.006 308.287 488.783C307.779 488.557 307.387 488.248 307.109 487.857C306.836 487.467 306.699 487.023 306.699 486.527H307.83C307.83 487.043 308.02 487.451 308.398 487.752C308.781 488.049 309.291 488.197 309.928 488.197C310.521 488.197 310.977 488.076 311.293 487.834C311.609 487.592 311.768 487.262 311.768 486.844C311.768 486.426 311.621 486.104 311.328 485.877C311.035 485.646 310.504 485.42 309.734 485.197ZM317.17 487.506L319.607 480.469H320.838L317.674 489H316.678L313.52 480.469H314.744L317.17 487.506Z" fill="black"/>
<path d="M426.463 505.854H425.376L429.532 495.047H430.612L426.463 505.854ZM433.176 497.604L433.217 498.533C433.782 497.822 434.52 497.467 435.432 497.467C436.995 497.467 437.783 498.349 437.797 500.112V505H436.532V500.105C436.528 499.572 436.405 499.178 436.163 498.923C435.926 498.668 435.555 498.54 435.049 498.54C434.639 498.54 434.279 498.649 433.969 498.868C433.659 499.087 433.417 499.374 433.244 499.729V505H431.979V497.604H433.176Z" fill="black"/>
<g clip-path="url(#clip10)">
<path d="M442.104 421.004L420.733 442.017C418.351 441.029 415.724 440.768 413.181 441.268C410.638 441.768 408.291 443.006 406.435 444.826C405.199 446.042 404.211 447.488 403.529 449.08C402.847 450.673 402.485 452.381 402.462 454.107C402.439 455.833 402.756 457.544 403.395 459.141C404.034 460.738 404.983 462.191 406.188 463.416C408.62 465.89 411.944 467.287 415.43 467.3C418.916 467.313 422.277 465.941 424.775 463.485C426.63 461.661 427.91 459.334 428.455 456.798C428.999 454.261 428.784 451.628 427.836 449.227L433.047 444.103L433.072 438.994L437.782 438.972L437.805 434.157L442.116 434.136L442.135 430.13L447.284 430.105L450.164 427.274L450.194 420.965L442.104 421.004Z" fill="white" stroke="black" stroke-width="2" stroke-linejoin="round"/>
<path d="M411.808 456.839C412.958 455.69 412.966 453.834 411.828 452.696C410.689 451.557 408.834 451.566 407.684 452.716C406.535 453.865 406.526 455.72 407.664 456.859C408.803 457.998 410.658 457.989 411.808 456.839Z" fill="white" stroke="black" stroke-width="1.23037" stroke-linejoin="round"/>
<path d="M439.236 428.135L439.906 427.465M423.396 443.975L438.303 429.068L423.396 443.975Z" stroke="black"/>
</g>
<g clip-path="url(#clip11)">
<path d="M451.881 438.021C449.922 438.021 448.043 438.792 446.658 440.164C445.272 441.537 444.494 443.399 444.494 445.34C444.497 445.635 444.517 445.93 444.555 446.223V457.681H448.218V451.687V445.34C448.218 444.378 448.604 443.455 449.291 442.774C449.978 442.093 450.909 441.711 451.881 441.711C452.361 441.711 452.838 441.805 453.282 441.987C453.727 442.169 454.13 442.437 454.47 442.774C454.811 443.111 455.08 443.511 455.264 443.951C455.449 444.392 455.543 444.864 455.543 445.34V457.681H459.206V446.224C459.244 445.931 459.264 445.636 459.267 445.34C459.267 443.399 458.489 441.537 457.103 440.164C455.718 438.792 453.839 438.021 451.881 438.021H451.881Z" fill="white" stroke="black" stroke-width="2" stroke-linejoin="round"/>
<path d="M460.005 453.205H443.756C441.973 453.205 440.526 454.638 440.526 456.406V469.539C440.526 471.307 441.973 472.74 443.756 472.74H460.005C461.788 472.74 463.234 471.307 463.234 469.539V456.406C463.234 454.638 461.788 453.205 460.005 453.205Z" fill="white" stroke="black" stroke-width="2" stroke-linejoin="round"/>
<path d="M451.88 458.466C451.59 458.466 451.302 458.522 451.034 458.633C450.765 458.743 450.521 458.904 450.316 459.108C450.11 459.312 449.947 459.553 449.836 459.819C449.725 460.086 449.668 460.371 449.668 460.659C449.668 460.952 449.728 461.241 449.843 461.511C449.958 461.781 450.127 462.025 450.339 462.229V467.479H453.422V462.232C453.634 462.028 453.803 461.783 453.919 461.513C454.034 461.243 454.093 460.952 454.093 460.659C454.093 460.371 454.036 460.086 453.925 459.819C453.814 459.553 453.651 459.312 453.445 459.108C453.24 458.904 452.996 458.743 452.727 458.633C452.459 458.522 452.171 458.466 451.88 458.466Z" fill="white" stroke="black" stroke-width="2" stroke-linejoin="round"/>
</g>
<path d="M416.936 481.395H414.193V489H413.074V481.395H410.338V480.469H416.936V481.395ZM417.158 485.771C417.158 485.15 417.279 484.592 417.521 484.096C417.768 483.6 418.107 483.217 418.541 482.947C418.979 482.678 419.477 482.543 420.035 482.543C420.898 482.543 421.596 482.842 422.127 483.439C422.662 484.037 422.93 484.832 422.93 485.824V485.9C422.93 486.518 422.811 487.072 422.572 487.564C422.338 488.053 422 488.434 421.559 488.707C421.121 488.98 420.617 489.117 420.047 489.117C419.188 489.117 418.49 488.818 417.955 488.221C417.424 487.623 417.158 486.832 417.158 485.848V485.771ZM418.248 485.9C418.248 486.604 418.41 487.168 418.734 487.594C419.062 488.02 419.5 488.232 420.047 488.232C420.598 488.232 421.035 488.018 421.359 487.588C421.684 487.154 421.846 486.549 421.846 485.771C421.846 485.076 421.68 484.514 421.348 484.084C421.02 483.65 420.582 483.434 420.035 483.434C419.5 483.434 419.068 483.646 418.74 484.072C418.412 484.498 418.248 485.107 418.248 485.9ZM426.059 486.064L425.379 486.773V489H424.295V480H425.379V485.443L425.959 484.746L427.934 482.66H429.252L426.785 485.309L429.539 489H428.268L426.059 486.064ZM432.885 489.117C432.025 489.117 431.326 488.836 430.787 488.273C430.248 487.707 429.979 486.951 429.979 486.006V485.807C429.979 485.178 430.098 484.617 430.336 484.125C430.578 483.629 430.914 483.242 431.344 482.965C431.777 482.684 432.246 482.543 432.75 482.543C433.574 482.543 434.215 482.814 434.672 483.357C435.129 483.9 435.357 484.678 435.357 485.689V486.141H431.062C431.078 486.766 431.26 487.271 431.607 487.658C431.959 488.041 432.404 488.232 432.943 488.232C433.326 488.232 433.65 488.154 433.916 487.998C434.182 487.842 434.414 487.635 434.613 487.377L435.275 487.893C434.744 488.709 433.947 489.117 432.885 489.117ZM432.75 483.434C432.312 483.434 431.945 483.594 431.648 483.914C431.352 484.23 431.168 484.676 431.098 485.25H434.273V485.168C434.242 484.617 434.094 484.191 433.828 483.891C433.562 483.586 433.203 483.434 432.75 483.434ZM437.643 482.66L437.678 483.457C438.162 482.848 438.795 482.543 439.576 482.543C440.916 482.543 441.592 483.299 441.604 484.811V489H440.52V484.805C440.516 484.348 440.41 484.01 440.203 483.791C440 483.572 439.682 483.463 439.248 483.463C438.896 483.463 438.588 483.557 438.322 483.744C438.057 483.932 437.85 484.178 437.701 484.482V489H436.617V482.66H437.643ZM452.941 489H451.811L447.516 482.426V489H446.385V480.469H447.516L451.822 487.072V480.469H452.941V489Z" fill="black"/>
<line x1="211.5" y1="104" x2="211.5" y2="130" stroke="black"/>
<line x1="210.333" y1="211.373" x2="144.333" y2="270.373" stroke="black"/>
<line x1="292.302" y1="270.114" x2="211.114" y2="211.698" stroke="black" stroke-linecap="square"/>
<path d="M57.5869 130.104V134H56.2744V124.047H59.9453C61.0345 124.047 61.8867 124.325 62.502 124.881C63.1217 125.437 63.4316 126.173 63.4316 127.089C63.4316 128.055 63.1286 128.8 62.5225 129.324C61.9209 129.844 61.0573 130.104 59.9316 130.104H57.5869ZM57.5869 129.03H59.9453C60.6471 129.03 61.1849 128.866 61.5586 128.538C61.9323 128.205 62.1191 127.727 62.1191 127.103C62.1191 126.51 61.9323 126.036 61.5586 125.681C61.1849 125.325 60.6722 125.141 60.0205 125.127H57.5869V129.03ZM68.4834 127.738C68.292 127.706 68.0846 127.69 67.8613 127.69C67.0319 127.69 66.4691 128.044 66.1729 128.75V134H64.9082V126.604H66.1387L66.1592 127.458C66.5739 126.797 67.1618 126.467 67.9229 126.467C68.1689 126.467 68.3558 126.499 68.4834 126.562V127.738ZM71.0264 134H69.7617V126.604H71.0264V134ZM69.6592 124.642C69.6592 124.437 69.7207 124.263 69.8438 124.122C69.9714 123.981 70.1582 123.91 70.4043 123.91C70.6504 123.91 70.8372 123.981 70.9648 124.122C71.0924 124.263 71.1562 124.437 71.1562 124.642C71.1562 124.847 71.0924 125.018 70.9648 125.154C70.8372 125.291 70.6504 125.359 70.4043 125.359C70.1582 125.359 69.9714 125.291 69.8438 125.154C69.7207 125.018 69.6592 124.847 69.6592 124.642ZM75.4971 132.284L77.3291 126.604H78.6211L75.9688 134H75.0049L72.3252 126.604H73.6172L75.4971 132.284ZM84.2949 134C84.222 133.854 84.1628 133.594 84.1172 133.221C83.5293 133.831 82.8275 134.137 82.0117 134.137C81.2826 134.137 80.6833 133.932 80.2139 133.521C79.749 133.107 79.5166 132.583 79.5166 131.949C79.5166 131.179 79.8083 130.582 80.3916 130.158C80.9795 129.73 81.8044 129.516 82.8662 129.516H84.0967V128.935C84.0967 128.493 83.9645 128.142 83.7002 127.882C83.4359 127.618 83.0462 127.485 82.5312 127.485C82.0801 127.485 81.7018 127.599 81.3965 127.827C81.0911 128.055 80.9385 128.331 80.9385 128.654H79.667C79.667 128.285 79.7969 127.93 80.0566 127.588C80.321 127.242 80.6764 126.968 81.123 126.768C81.5742 126.567 82.0687 126.467 82.6064 126.467C83.4587 126.467 84.1263 126.681 84.6094 127.109C85.0924 127.533 85.3431 128.119 85.3613 128.866V132.271C85.3613 132.95 85.4479 133.49 85.6211 133.891V134H84.2949ZM82.1963 133.036C82.5928 133.036 82.9688 132.934 83.3242 132.729C83.6797 132.523 83.9372 132.257 84.0967 131.929V130.411H83.1055C81.556 130.411 80.7812 130.865 80.7812 131.771C80.7812 132.168 80.9134 132.478 81.1777 132.701C81.4421 132.924 81.7816 133.036 82.1963 133.036ZM89.0596 124.812V126.604H90.4404V127.581H89.0596V132.168C89.0596 132.464 89.1211 132.688 89.2441 132.838C89.3672 132.984 89.5768 133.057 89.873 133.057C90.0189 133.057 90.2194 133.029 90.4746 132.975V134C90.1419 134.091 89.8184 134.137 89.5039 134.137C88.9388 134.137 88.5127 133.966 88.2256 133.624C87.9385 133.282 87.7949 132.797 87.7949 132.168V127.581H86.4482V126.604H87.7949V124.812H89.0596ZM94.9932 134.137C93.9906 134.137 93.1748 133.809 92.5459 133.152C91.917 132.492 91.6025 131.61 91.6025 130.507V130.274C91.6025 129.541 91.7415 128.887 92.0195 128.312C92.3021 127.734 92.694 127.283 93.1953 126.959C93.7012 126.631 94.248 126.467 94.8359 126.467C95.7975 126.467 96.5449 126.784 97.0781 127.417C97.6113 128.05 97.8779 128.957 97.8779 130.138V130.664H92.8672C92.8854 131.393 93.0973 131.983 93.5029 132.435C93.9131 132.881 94.4326 133.104 95.0615 133.104C95.5081 133.104 95.8864 133.013 96.1963 132.831C96.5062 132.649 96.7773 132.407 97.0098 132.106L97.7822 132.708C97.1624 133.66 96.2327 134.137 94.9932 134.137ZM94.8359 127.506C94.3255 127.506 93.8971 127.693 93.5508 128.066C93.2044 128.436 92.9902 128.955 92.9082 129.625H96.6133V129.529C96.5768 128.887 96.4036 128.39 96.0938 128.039C95.7839 127.684 95.3646 127.506 94.8359 127.506ZM107.127 132.038C107.127 131.696 106.997 131.432 106.737 131.245C106.482 131.054 106.033 130.89 105.391 130.753C104.753 130.616 104.244 130.452 103.866 130.261C103.493 130.069 103.215 129.841 103.032 129.577C102.854 129.313 102.766 128.998 102.766 128.634C102.766 128.028 103.021 127.515 103.531 127.096C104.046 126.676 104.702 126.467 105.5 126.467C106.339 126.467 107.018 126.683 107.537 127.116C108.061 127.549 108.323 128.103 108.323 128.777H107.052C107.052 128.431 106.904 128.132 106.607 127.882C106.316 127.631 105.947 127.506 105.5 127.506C105.04 127.506 104.68 127.606 104.42 127.807C104.16 128.007 104.03 128.269 104.03 128.593C104.03 128.898 104.151 129.128 104.393 129.283C104.634 129.438 105.069 129.586 105.698 129.728C106.332 129.869 106.844 130.037 107.236 130.233C107.628 130.429 107.918 130.666 108.104 130.944C108.296 131.218 108.392 131.553 108.392 131.949C108.392 132.61 108.127 133.141 107.599 133.542C107.07 133.938 106.384 134.137 105.541 134.137C104.949 134.137 104.424 134.032 103.969 133.822C103.513 133.613 103.155 133.321 102.896 132.947C102.64 132.569 102.513 132.161 102.513 131.724H103.777C103.8 132.147 103.969 132.485 104.283 132.735C104.602 132.981 105.021 133.104 105.541 133.104C106.02 133.104 106.402 133.009 106.689 132.817C106.981 132.621 107.127 132.362 107.127 132.038ZM111.755 124.812V126.604H113.136V127.581H111.755V132.168C111.755 132.464 111.816 132.688 111.939 132.838C112.062 132.984 112.272 133.057 112.568 133.057C112.714 133.057 112.915 133.029 113.17 132.975V134C112.837 134.091 112.514 134.137 112.199 134.137C111.634 134.137 111.208 133.966 110.921 133.624C110.634 133.282 110.49 132.797 110.49 132.168V127.581H109.144V126.604H110.49V124.812H111.755ZM114.147 130.233C114.147 129.509 114.289 128.857 114.571 128.278C114.858 127.7 115.255 127.253 115.761 126.938C116.271 126.624 116.852 126.467 117.504 126.467C118.511 126.467 119.325 126.815 119.944 127.513C120.569 128.21 120.881 129.137 120.881 130.295V130.384C120.881 131.104 120.742 131.751 120.464 132.325C120.19 132.895 119.796 133.339 119.281 133.658C118.771 133.977 118.183 134.137 117.518 134.137C116.515 134.137 115.701 133.788 115.077 133.091C114.457 132.394 114.147 131.471 114.147 130.322V130.233ZM115.419 130.384C115.419 131.204 115.608 131.863 115.986 132.359C116.369 132.856 116.88 133.104 117.518 133.104C118.16 133.104 118.671 132.854 119.049 132.353C119.427 131.847 119.616 131.14 119.616 130.233C119.616 129.422 119.423 128.766 119.035 128.265C118.652 127.759 118.142 127.506 117.504 127.506C116.88 127.506 116.376 127.754 115.993 128.251C115.61 128.748 115.419 129.459 115.419 130.384ZM126.042 127.738C125.851 127.706 125.643 127.69 125.42 127.69C124.59 127.69 124.028 128.044 123.731 128.75V134H122.467V126.604H123.697L123.718 127.458C124.132 126.797 124.72 126.467 125.481 126.467C125.728 126.467 125.914 126.499 126.042 126.562V127.738ZM131.504 134C131.431 133.854 131.372 133.594 131.326 133.221C130.738 133.831 130.036 134.137 129.221 134.137C128.492 134.137 127.892 133.932 127.423 133.521C126.958 133.107 126.726 132.583 126.726 131.949C126.726 131.179 127.017 130.582 127.601 130.158C128.188 129.73 129.013 129.516 130.075 129.516H131.306V128.935C131.306 128.493 131.174 128.142 130.909 127.882C130.645 127.618 130.255 127.485 129.74 127.485C129.289 127.485 128.911 127.599 128.605 127.827C128.3 128.055 128.147 128.331 128.147 128.654H126.876C126.876 128.285 127.006 127.93 127.266 127.588C127.53 127.242 127.885 126.968 128.332 126.768C128.783 126.567 129.278 126.467 129.815 126.467C130.668 126.467 131.335 126.681 131.818 127.109C132.301 127.533 132.552 128.119 132.57 128.866V132.271C132.57 132.95 132.657 133.49 132.83 133.891V134H131.504ZM129.405 133.036C129.802 133.036 130.178 132.934 130.533 132.729C130.889 132.523 131.146 132.257 131.306 131.929V130.411H130.314C128.765 130.411 127.99 130.865 127.99 131.771C127.99 132.168 128.122 132.478 128.387 132.701C128.651 132.924 128.991 133.036 129.405 133.036ZM134.252 130.24C134.252 129.087 134.519 128.171 135.052 127.492C135.585 126.809 136.291 126.467 137.171 126.467C138.073 126.467 138.777 126.786 139.283 127.424L139.345 126.604H140.5V133.822C140.5 134.779 140.215 135.534 139.646 136.085C139.08 136.636 138.319 136.912 137.362 136.912C136.829 136.912 136.307 136.798 135.797 136.57C135.286 136.342 134.897 136.03 134.628 135.634L135.284 134.875C135.826 135.545 136.49 135.88 137.273 135.88C137.889 135.88 138.367 135.707 138.709 135.36C139.055 135.014 139.229 134.526 139.229 133.897V133.262C138.723 133.845 138.032 134.137 137.157 134.137C136.291 134.137 135.59 133.788 135.052 133.091C134.519 132.394 134.252 131.443 134.252 130.24ZM135.523 130.384C135.523 131.218 135.694 131.874 136.036 132.353C136.378 132.826 136.856 133.063 137.472 133.063C138.269 133.063 138.855 132.701 139.229 131.977V128.6C138.841 127.893 138.26 127.54 137.485 127.54C136.87 127.54 136.389 127.779 136.043 128.258C135.697 128.736 135.523 129.445 135.523 130.384ZM145.483 134.137C144.481 134.137 143.665 133.809 143.036 133.152C142.407 132.492 142.093 131.61 142.093 130.507V130.274C142.093 129.541 142.232 128.887 142.51 128.312C142.792 127.734 143.184 127.283 143.686 126.959C144.191 126.631 144.738 126.467 145.326 126.467C146.288 126.467 147.035 126.784 147.568 127.417C148.102 128.05 148.368 128.957 148.368 130.138V130.664H143.357C143.376 131.393 143.588 131.983 143.993 132.435C144.403 132.881 144.923 133.104 145.552 133.104C145.998 133.104 146.377 133.013 146.687 132.831C146.996 132.649 147.268 132.407 147.5 132.106L148.272 132.708C147.653 133.66 146.723 134.137 145.483 134.137ZM145.326 127.506C144.816 127.506 144.387 127.693 144.041 128.066C143.695 128.436 143.48 128.955 143.398 129.625H147.104V129.529C147.067 128.887 146.894 128.39 146.584 128.039C146.274 127.684 145.855 127.506 145.326 127.506Z" fill="black"/>
<path d="M256.25 165.604L256.284 166.424C256.826 165.786 257.558 165.467 258.479 165.467C259.513 165.467 260.217 165.863 260.591 166.656C260.837 166.301 261.156 166.014 261.548 165.795C261.944 165.576 262.411 165.467 262.949 165.467C264.572 165.467 265.396 166.326 265.424 168.044V173H264.159V168.119C264.159 167.59 264.038 167.196 263.797 166.937C263.555 166.672 263.15 166.54 262.58 166.54C262.111 166.54 261.721 166.681 261.411 166.964C261.101 167.242 260.921 167.618 260.871 168.092V173H259.6V168.153C259.6 167.078 259.073 166.54 258.021 166.54C257.191 166.54 256.624 166.893 256.318 167.6V173H255.054V165.604H256.25ZM267.591 173.854H266.504L270.66 163.047H271.74L267.591 173.854ZM278.316 169.657H279.697V170.689H278.316V173H277.045V170.689H272.513V169.944L276.97 163.047H278.316V169.657ZM273.948 169.657H277.045V164.776L276.895 165.05L273.948 169.657ZM286.178 169.657H287.559V170.689H286.178V173H284.906V170.689H280.374V169.944L284.831 163.047H286.178V169.657ZM281.81 169.657H284.906V164.776L284.756 165.05L281.81 169.657ZM288.919 165.85L288.201 165.357C288.625 164.765 288.844 164.141 288.857 163.484V162.5H290.108V163.389C290.104 163.844 289.99 164.3 289.767 164.756C289.548 165.207 289.265 165.572 288.919 165.85ZM291.886 173.854H290.799L294.955 163.047H296.035L291.886 173.854ZM302.611 169.657H303.992V170.689H302.611V173H301.34V170.689H296.808V169.944L301.265 163.047H302.611V169.657ZM298.243 169.657H301.34V164.776L301.189 165.05L298.243 169.657ZM311.655 173H305.134V172.091L308.579 168.263C309.09 167.684 309.44 167.215 309.632 166.854C309.828 166.49 309.926 166.114 309.926 165.727C309.926 165.207 309.769 164.781 309.454 164.448C309.14 164.116 308.72 163.949 308.196 163.949C307.567 163.949 307.077 164.129 306.727 164.489C306.38 164.845 306.207 165.341 306.207 165.979H304.942C304.942 165.063 305.236 164.323 305.824 163.758C306.417 163.193 307.207 162.91 308.196 162.91C309.121 162.91 309.853 163.154 310.391 163.642C310.928 164.125 311.197 164.77 311.197 165.576C311.197 166.556 310.573 167.723 309.324 169.076L306.658 171.968H311.655V173ZM317.842 168.625C317.577 168.939 317.261 169.192 316.892 169.384C316.527 169.575 316.126 169.671 315.688 169.671C315.114 169.671 314.613 169.53 314.185 169.247C313.761 168.965 313.433 168.568 313.2 168.058C312.968 167.543 312.852 166.975 312.852 166.355C312.852 165.69 312.977 165.091 313.228 164.558C313.483 164.024 313.843 163.617 314.308 163.334C314.772 163.051 315.315 162.91 315.935 162.91C316.919 162.91 317.694 163.279 318.259 164.018C318.828 164.751 319.113 165.754 319.113 167.025V167.395C319.113 169.331 318.73 170.746 317.965 171.64C317.199 172.528 316.044 172.984 314.499 173.007H314.253V171.94H314.52C315.563 171.922 316.365 171.651 316.926 171.127C317.486 170.598 317.792 169.764 317.842 168.625ZM315.894 168.625C316.317 168.625 316.707 168.495 317.062 168.235C317.423 167.976 317.685 167.654 317.849 167.271V166.766C317.849 165.936 317.669 165.262 317.309 164.742C316.949 164.223 316.493 163.963 315.941 163.963C315.385 163.963 314.939 164.177 314.602 164.605C314.264 165.029 314.096 165.59 314.096 166.287C314.096 166.966 314.257 167.527 314.581 167.969C314.909 168.406 315.347 168.625 315.894 168.625ZM321.075 165.85L320.357 165.357C320.781 164.765 321 164.141 321.014 163.484V162.5H322.265V163.389C322.26 163.844 322.146 164.3 321.923 164.756C321.704 165.207 321.422 165.572 321.075 165.85ZM324.042 173.854H322.955L327.111 163.047H328.191L324.042 173.854ZM335.67 168.755C335.67 170.236 335.417 171.337 334.911 172.057C334.405 172.777 333.615 173.137 332.539 173.137C331.477 173.137 330.691 172.786 330.181 172.084C329.67 171.378 329.406 170.325 329.388 168.926V167.237C329.388 165.774 329.641 164.688 330.146 163.977C330.652 163.266 331.445 162.91 332.525 162.91C333.596 162.91 334.385 163.254 334.891 163.942C335.396 164.626 335.656 165.683 335.67 167.114V168.755ZM334.405 167.025C334.405 165.954 334.255 165.175 333.954 164.688C333.653 164.195 333.177 163.949 332.525 163.949C331.878 163.949 331.407 164.193 331.11 164.681C330.814 165.168 330.661 165.918 330.652 166.93V168.953C330.652 170.029 330.807 170.824 331.117 171.339C331.432 171.849 331.906 172.104 332.539 172.104C333.163 172.104 333.626 171.863 333.927 171.38C334.232 170.897 334.392 170.136 334.405 169.097V167.025ZM337.509 165.85L336.791 165.357C337.215 164.765 337.434 164.141 337.447 163.484V162.5H338.698V163.389C338.694 163.844 338.58 164.3 338.356 164.756C338.138 165.207 337.855 165.572 337.509 165.85ZM340.476 173.854H339.389L343.545 163.047H344.625L340.476 173.854ZM347.701 167.408H348.651C349.248 167.399 349.718 167.242 350.06 166.937C350.401 166.631 350.572 166.219 350.572 165.699C350.572 164.533 349.991 163.949 348.829 163.949C348.282 163.949 347.845 164.106 347.517 164.421C347.193 164.731 347.031 165.143 347.031 165.658H345.767C345.767 164.87 346.054 164.216 346.628 163.696C347.207 163.172 347.94 162.91 348.829 162.91C349.768 162.91 350.504 163.159 351.037 163.655C351.57 164.152 351.837 164.842 351.837 165.727C351.837 166.16 351.696 166.579 351.413 166.984C351.135 167.39 350.755 167.693 350.271 167.894C350.818 168.067 351.24 168.354 351.536 168.755C351.837 169.156 351.987 169.646 351.987 170.225C351.987 171.118 351.696 171.826 351.112 172.351C350.529 172.875 349.77 173.137 348.836 173.137C347.902 173.137 347.141 172.884 346.553 172.378C345.969 171.872 345.678 171.204 345.678 170.375H346.949C346.949 170.899 347.12 171.318 347.462 171.633C347.804 171.947 348.262 172.104 348.836 172.104C349.447 172.104 349.914 171.945 350.237 171.626C350.561 171.307 350.723 170.849 350.723 170.252C350.723 169.673 350.545 169.229 350.189 168.919C349.834 168.609 349.321 168.45 348.651 168.44H347.701V167.408Z" fill="black"/>
<circle cx="344" cy="435" r="3.5" fill="white" stroke="black"/>
<circle cx="360" cy="435" r="3.5" fill="white" stroke="black"/>
<circle cx="376" cy="435" r="3.5" fill="white" stroke="black"/>
<line x1="293.5" y1="361" x2="293.5" y2="399" stroke="black"/>
<line x1="293.2" y1="361.458" x2="192.2" y2="405.458" stroke="black"/>
<defs>
<clipPath id="clip0">
<rect width="64" height="29" fill="white" transform="translate(174 169.255) rotate(-45)"/>
</clipPath>
<clipPath id="clip1">
<rect width="24" height="36" fill="white" transform="translate(218.88 152.38)"/>
</clipPath>
<clipPath id="clip2">
<rect width="64" height="29" fill="white" transform="translate(256 304.255) rotate(-45)"/>
</clipPath>
<clipPath id="clip3">
<rect width="24" height="36" fill="white" transform="translate(300.88 287.38)"/>
</clipPath>
<clipPath id="clip4">
<rect width="64" height="29" fill="white" transform="translate(105 307.255) rotate(-45)"/>
</clipPath>
<clipPath id="clip5">
<rect width="24" height="36" fill="white" transform="translate(149.88 290.38)"/>
</clipPath>
<clipPath id="clip6">
<rect width="64" height="29" fill="white" transform="translate(155 454.255) rotate(-45)"/>
</clipPath>
<clipPath id="clip7">
<rect width="24" height="36" fill="white" transform="translate(199.88 437.38)"/>
</clipPath>
<clipPath id="clip8">
<rect width="64" height="29" fill="white" transform="translate(256 454.255) rotate(-45)"/>
</clipPath>
<clipPath id="clip9">
<rect width="24" height="36" fill="white" transform="translate(300.88 437.38)"/>
</clipPath>
<clipPath id="clip10">
<rect width="64" height="29" fill="white" transform="translate(395 454.255) rotate(-45)"/>
</clipPath>
<clipPath id="clip11">
<rect width="24" height="36" fill="white" transform="translate(439.88 437.38)"/>
</clipPath>
</defs>
</svg>
