<?xml version="1.0" standalone="no"?>
<!DOCTYPE svg PUBLIC "-//W3C//DTD SVG 20010904//EN"
 "http://www.w3.org/TR/2001/REC-SVG-20010904/DTD/svg10.dtd">
<svg version="1.0" xmlns="http://www.w3.org/2000/svg"
 width="512.000000pt" height="512.000000pt" viewBox="0 0 512.000000 512.000000"
 preserveAspectRatio="xMidYMid meet">
<metadata>
Created by potrace 1.14, written by Peter Selinger 2001-2017
</metadata>
<g transform="translate(0.000000,512.000000) scale(0.100000,-0.100000)"
fill="#000000" stroke="none">
<path d="M2379 5116 c-2 -2 -40 -6 -83 -10 -44 -4 -82 -8 -85 -10 -3 -2 -31
-7 -61 -11 -30 -3 -75 -11 -100 -17 -25 -5 -56 -12 -70 -14 -48 -10 -197 -54
-286 -85 -389 -137 -794 -414 -1061 -725 -71 -83 -79 -92 -99 -119 -10 -15
-33 -46 -50 -69 -71 -96 -184 -283 -226 -376 -9 -19 -30 -64 -46 -100 -63
-140 -127 -342 -161 -510 -38 -190 -46 -274 -45 -520 0 -184 3 -241 19 -345 3
-16 7 -43 9 -60 33 -235 138 -545 267 -791 43 -81 186 -302 236 -363 165 -203
311 -345 497 -485 321 -240 732 -415 1112 -471 22 -4 50 -8 64 -11 103 -19
473 -26 600 -12 147 17 153 18 250 38 30 6 66 13 80 16 130 25 389 118 551
199 639 318 1106 868 1318 1551 17 55 34 111 36 125 3 13 7 35 10 49 3 14 7
35 10 48 2 13 6 31 9 40 9 27 19 101 33 227 10 91 10 409 1 505 -9 85 -22 172
-37 245 -6 28 -13 61 -15 75 -11 56 -50 190 -78 270 -188 530 -523 965 -990
1284 -53 36 -100 66 -104 66 -4 0 -15 6 -23 14 -21 17 -164 92 -267 138 -153
70 -416 151 -558 172 -21 4 -41 8 -45 10 -3 2 -35 7 -71 11 -36 4 -76 10 -90
12 -31 5 -446 13 -451 9z"/>
</g>
</svg>
