<svg width="816" height="358" viewBox="0 0 816 358" fill="none" xmlns="http://www.w3.org/2000/svg">
<path d="M57.3935 59.848V46.9997C57.3935 44.2297 55.1638 42 52.3938 42H5.99969C3.2297 42 1 44.2297 1 46.9997V77.8919C1 80.6619 3.2297 82.8921 5.99969 82.8921H18.3002" stroke="black" stroke-width="2" stroke-linecap="round" stroke-linejoin="round"/>
<path d="M19.6624 59.5059V58.7292C19.6624 55.9592 17.4322 53.729 14.6622 53.729H1V70.5492H12.7926" stroke="black" stroke-width="2" stroke-linecap="round" stroke-linejoin="round"/>
<path d="M10.3313 66.1816C12.5639 66.1816 14.3737 64.3717 14.3737 62.1391C14.3737 59.9065 12.5639 58.0967 10.3313 58.0967C8.09868 58.0967 6.28882 59.9065 6.28882 62.1391C6.28882 64.3717 8.09868 66.1816 10.3313 66.1816Z" stroke="black" stroke-width="2" stroke-linecap="round" stroke-linejoin="round"/>
<path fill-rule="evenodd" clip-rule="evenodd" d="M29.4337 83.9559L40.2377 88.2929L50.9441 83.7204L55.2826 72.9163L50.7101 62.2099L39.906 57.8722L29.1968 62.4461L24.8597 73.2494L29.4337 83.9559ZM40.2483 90.297C40.1267 90.297 40.0036 90.2736 39.8898 90.2277L28.3446 85.5929C28.1077 85.4982 27.9175 85.3129 27.8192 85.0774L22.9327 73.6362C22.8316 73.4007 22.8288 73.137 22.9249 72.8987L27.5597 61.3535C27.6545 61.1166 27.8397 60.9271 28.0752 60.8274L39.5164 55.9416C39.7519 55.8405 40.0171 55.8391 40.2547 55.9338L51.7991 60.5686C52.036 60.6633 52.2255 60.8486 52.3252 61.0841L57.211 72.5232C57.3121 72.7594 57.315 73.0231 57.2188 73.2614L52.5841 84.8066C52.49 85.0435 52.3047 85.233 52.0685 85.332L40.6288 90.2185C40.5057 90.2722 40.3777 90.297 40.2483 90.297V90.297Z" fill="black" stroke="black" stroke-width="0.589302"/>
<path fill-rule="evenodd" clip-rule="evenodd" d="M45.2215 65.9701V68.1658H38.0353L42.5562 72.8996L37.9292 77.9954H45.2215V80.1911H34.9231V77.9954L39.5069 72.9208L34.9436 68.1658V65.9701H45.2215Z" fill="black" stroke="black" stroke-width="0.589302"/>
<path d="M20.5781 101.242H17.4961L16.9102 103H15.041L18.2168 94.4688H19.8457L23.0391 103H21.1699L20.5781 101.242ZM17.9707 99.8184H20.1035L19.0312 96.625L17.9707 99.8184ZM25.5117 103H23.8125V94H25.5117V103ZM28.6992 103H27V96.6602H28.6992V103ZM26.9004 95.0195C26.9004 94.7656 26.9844 94.5566 27.1523 94.3926C27.3242 94.2285 27.5566 94.1465 27.8496 94.1465C28.1387 94.1465 28.3691 94.2285 28.541 94.3926C28.7129 94.5566 28.7988 94.7656 28.7988 95.0195C28.7988 95.2773 28.7109 95.4883 28.5352 95.6523C28.3633 95.8164 28.1348 95.8984 27.8496 95.8984C27.5645 95.8984 27.334 95.8164 27.1582 95.6523C26.9863 95.4883 26.9004 95.2773 26.9004 95.0195ZM32.7363 101.752C33.0488 101.752 33.3027 101.666 33.498 101.494C33.6934 101.322 33.7949 101.094 33.8027 100.809H35.3906C35.3867 101.238 35.2695 101.633 35.0391 101.992C34.8086 102.348 34.4922 102.625 34.0898 102.824C33.6914 103.02 33.25 103.117 32.7656 103.117C31.8594 103.117 31.1445 102.83 30.6211 102.256C30.0977 101.678 29.8359 100.881 29.8359 99.8652V99.7539C29.8359 98.7773 30.0957 97.998 30.6152 97.416C31.1348 96.834 31.8477 96.543 32.7539 96.543C33.5469 96.543 34.1816 96.7695 34.6582 97.2227C35.1387 97.6719 35.3828 98.2715 35.3906 99.0215H33.8027C33.7949 98.6934 33.6934 98.4277 33.498 98.2246C33.3027 98.0176 33.0449 97.9141 32.7246 97.9141C32.3301 97.9141 32.0312 98.0586 31.8281 98.3477C31.6289 98.6328 31.5293 99.0977 31.5293 99.7422V99.918C31.5293 100.57 31.6289 101.039 31.8281 101.324C32.0273 101.609 32.3301 101.752 32.7363 101.752ZM39.2754 103.117C38.3457 103.117 37.5879 102.832 37.002 102.262C36.4199 101.691 36.1289 100.932 36.1289 99.9824V99.8184C36.1289 99.1816 36.252 98.6133 36.498 98.1133C36.7441 97.6094 37.0918 97.2227 37.541 96.9531C37.9941 96.6797 38.5098 96.543 39.0879 96.543C39.9551 96.543 40.6367 96.8164 41.1328 97.3633C41.6328 97.9102 41.8828 98.6855 41.8828 99.6895V100.381H37.8457C37.9004 100.795 38.0645 101.127 38.3379 101.377C38.6152 101.627 38.9648 101.752 39.3867 101.752C40.0391 101.752 40.5488 101.516 40.916 101.043L41.748 101.975C41.4941 102.334 41.1504 102.615 40.7168 102.818C40.2832 103.018 39.8027 103.117 39.2754 103.117ZM39.082 97.9141C38.7461 97.9141 38.4727 98.0273 38.2617 98.2539C38.0547 98.4805 37.9219 98.8047 37.8633 99.2266H40.2188V99.0918C40.2109 98.7168 40.1094 98.4277 39.9141 98.2246C39.7188 98.0176 39.4414 97.9141 39.082 97.9141Z" fill="black"/>
<path d="M57.3935 258.848V246C57.3935 243.23 55.1638 241 52.3938 241H5.99969C3.2297 241 1 243.23 1 246V276.892C1 279.662 3.2297 281.892 5.99969 281.892H18.3002" stroke="black" stroke-width="2" stroke-linecap="round" stroke-linejoin="round"/>
<path d="M19.6624 258.506V257.729C19.6624 254.959 17.4322 252.729 14.6622 252.729H1V269.549H12.7926" stroke="black" stroke-width="2" stroke-linecap="round" stroke-linejoin="round"/>
<path d="M10.3313 265.182C12.5639 265.182 14.3737 263.372 14.3737 261.139C14.3737 258.907 12.5639 257.097 10.3313 257.097C8.09868 257.097 6.28882 258.907 6.28882 261.139C6.28882 263.372 8.09868 265.182 10.3313 265.182Z" stroke="black" stroke-width="2" stroke-linecap="round" stroke-linejoin="round"/>
<path fill-rule="evenodd" clip-rule="evenodd" d="M29.4337 282.956L40.2377 287.293L50.9441 282.72L55.2826 271.916L50.7101 261.21L39.906 256.872L29.1968 261.446L24.8597 272.249L29.4337 282.956ZM40.2483 289.297C40.1267 289.297 40.0036 289.274 39.8898 289.228L28.3446 284.593C28.1077 284.498 27.9175 284.313 27.8192 284.077L22.9327 272.636C22.8316 272.401 22.8288 272.137 22.9249 271.899L27.5597 260.354C27.6545 260.117 27.8397 259.927 28.0752 259.827L39.5164 254.942C39.7519 254.84 40.0171 254.839 40.2547 254.934L51.7991 259.569C52.036 259.663 52.2255 259.849 52.3252 260.084L57.211 271.523C57.3121 271.759 57.315 272.023 57.2188 272.261L52.5841 283.807C52.49 284.043 52.3047 284.233 52.0685 284.332L40.6288 289.218C40.5057 289.272 40.3777 289.297 40.2483 289.297V289.297Z" fill="black" stroke="black" stroke-width="0.589302"/>
<path fill-rule="evenodd" clip-rule="evenodd" d="M45.2215 264.97V267.166H38.0353L42.5562 271.9L37.9292 276.995H45.2215V279.191H34.9231V276.995L39.5069 271.921L34.9436 267.166V264.97H45.2215Z" fill="black" stroke="black" stroke-width="0.589302"/>
<path d="M18.7617 302V293.469H21.75C22.7852 293.469 23.5703 293.668 24.1055 294.066C24.6406 294.461 24.9082 295.041 24.9082 295.807C24.9082 296.225 24.8008 296.594 24.5859 296.914C24.3711 297.23 24.0723 297.463 23.6895 297.611C24.127 297.721 24.4707 297.941 24.7207 298.273C24.9746 298.605 25.1016 299.012 25.1016 299.492C25.1016 300.312 24.8398 300.934 24.3164 301.355C23.793 301.777 23.0469 301.992 22.0781 302H18.7617ZM20.5195 298.285V300.588H22.0254C22.4395 300.588 22.7617 300.49 22.9922 300.295C23.2266 300.096 23.3438 299.822 23.3438 299.475C23.3438 298.693 22.9395 298.297 22.1309 298.285H20.5195ZM20.5195 297.043H21.8203C22.707 297.027 23.1504 296.674 23.1504 295.982C23.1504 295.596 23.0371 295.318 22.8105 295.15C22.5879 294.979 22.2344 294.893 21.75 294.893H20.5195V297.043ZM26.0508 298.771C26.0508 298.143 26.1719 297.582 26.4141 297.09C26.6562 296.598 27.0039 296.217 27.457 295.947C27.9141 295.678 28.4434 295.543 29.0449 295.543C29.9004 295.543 30.5977 295.805 31.1367 296.328C31.6797 296.852 31.9824 297.562 32.0449 298.461L32.0566 298.895C32.0566 299.867 31.7852 300.648 31.2422 301.238C30.6992 301.824 29.9707 302.117 29.0566 302.117C28.1426 302.117 27.4121 301.824 26.8652 301.238C26.3223 300.652 26.0508 299.855 26.0508 298.848V298.771ZM27.7441 298.895C27.7441 299.496 27.8574 299.957 28.084 300.277C28.3105 300.594 28.6348 300.752 29.0566 300.752C29.4668 300.752 29.7871 300.596 30.0176 300.283C30.248 299.967 30.3633 299.463 30.3633 298.771C30.3633 298.182 30.248 297.725 30.0176 297.4C29.7871 297.076 29.4629 296.914 29.0449 296.914C28.6309 296.914 28.3105 297.076 28.084 297.4C27.8574 297.721 27.7441 298.219 27.7441 298.895ZM38.8125 298.889C38.8125 299.904 38.5957 300.697 38.1621 301.268C37.7285 301.834 37.123 302.117 36.3457 302.117C35.6582 302.117 35.1094 301.854 34.6992 301.326L34.623 302H33.0996V293H34.793V296.229C35.1836 295.771 35.6973 295.543 36.334 295.543C37.1074 295.543 37.7129 295.828 38.1504 296.398C38.5918 296.965 38.8125 297.764 38.8125 298.795V298.889ZM37.1191 298.766C37.1191 298.125 37.0176 297.658 36.8145 297.365C36.6113 297.068 36.3086 296.92 35.9062 296.92C35.3672 296.92 34.9961 297.141 34.793 297.582V300.084C35 300.529 35.375 300.752 35.918 300.752C36.4648 300.752 36.8242 300.482 36.9961 299.943C37.0781 299.686 37.1191 299.293 37.1191 298.766Z" fill="black"/>
<path d="M574.682 77H572.988V70.4727L570.967 71.0996V69.7227L574.5 68.457H574.682V77ZM585.762 73.3027H582.387V75.5879H586.348V77H580.629V68.4688H586.336V69.8926H582.387V71.9258H585.762V73.3027ZM590.83 72.248C590.6 72.2168 590.396 72.2012 590.221 72.2012C589.58 72.2012 589.16 72.418 588.961 72.8516V77H587.268V70.6602H588.867L588.914 71.416C589.254 70.834 589.725 70.543 590.326 70.543C590.514 70.543 590.689 70.5684 590.854 70.6191L590.83 72.248ZM591.287 73.7832C591.287 72.8105 591.518 72.0273 591.979 71.4336C592.443 70.8398 593.068 70.543 593.854 70.543C594.549 70.543 595.09 70.7812 595.477 71.2578L595.547 70.6602H597.082V76.7891C597.082 77.3438 596.955 77.8262 596.701 78.2363C596.451 78.6465 596.098 78.959 595.641 79.1738C595.184 79.3887 594.648 79.4961 594.035 79.4961C593.57 79.4961 593.117 79.4023 592.676 79.2148C592.234 79.0312 591.9 78.793 591.674 78.5L592.424 77.4688C592.846 77.9414 593.357 78.1777 593.959 78.1777C594.408 78.1777 594.758 78.0566 595.008 77.8145C595.258 77.5762 595.383 77.2363 595.383 76.7949V76.4551C594.992 76.8965 594.479 77.1172 593.842 77.1172C593.08 77.1172 592.463 76.8203 591.99 76.2266C591.521 75.6289 591.287 74.8379 591.287 73.8535V73.7832ZM592.98 73.9062C592.98 74.4805 593.096 74.9316 593.326 75.2598C593.557 75.584 593.873 75.7461 594.275 75.7461C594.791 75.7461 595.16 75.5527 595.383 75.166V72.5C595.156 72.1133 594.791 71.9199 594.287 71.9199C593.881 71.9199 593.561 72.0859 593.326 72.418C593.096 72.75 592.98 73.2461 592.98 73.9062Z" fill="black"/>
<path d="M575.682 127H573.988V120.473L571.967 121.1V119.723L575.5 118.457H575.682V127ZM586.762 123.303H583.387V125.588H587.348V127H581.629V118.469H587.336V119.893H583.387V121.926H586.762V123.303ZM591.83 122.248C591.6 122.217 591.396 122.201 591.221 122.201C590.58 122.201 590.16 122.418 589.961 122.852V127H588.268V120.66H589.867L589.914 121.416C590.254 120.834 590.725 120.543 591.326 120.543C591.514 120.543 591.689 120.568 591.854 120.619L591.83 122.248ZM592.287 123.783C592.287 122.811 592.518 122.027 592.979 121.434C593.443 120.84 594.068 120.543 594.854 120.543C595.549 120.543 596.09 120.781 596.477 121.258L596.547 120.66H598.082V126.789C598.082 127.344 597.955 127.826 597.701 128.236C597.451 128.646 597.098 128.959 596.641 129.174C596.184 129.389 595.648 129.496 595.035 129.496C594.57 129.496 594.117 129.402 593.676 129.215C593.234 129.031 592.9 128.793 592.674 128.5L593.424 127.469C593.846 127.941 594.357 128.178 594.959 128.178C595.408 128.178 595.758 128.057 596.008 127.814C596.258 127.576 596.383 127.236 596.383 126.795V126.455C595.992 126.896 595.479 127.117 594.842 127.117C594.08 127.117 593.463 126.82 592.99 126.227C592.521 125.629 592.287 124.838 592.287 123.854V123.783ZM593.98 123.906C593.98 124.48 594.096 124.932 594.326 125.26C594.557 125.584 594.873 125.746 595.275 125.746C595.791 125.746 596.16 125.553 596.383 125.166V122.5C596.156 122.113 595.791 121.92 595.287 121.92C594.881 121.92 594.561 122.086 594.326 122.418C594.096 122.75 593.98 123.246 593.98 123.906Z" fill="black"/>
<path d="M575.682 175H573.988V168.473L571.967 169.1V167.723L575.5 166.457H575.682V175ZM586.762 171.303H583.387V173.588H587.348V175H581.629V166.469H587.336V167.893H583.387V169.926H586.762V171.303ZM591.83 170.248C591.6 170.217 591.396 170.201 591.221 170.201C590.58 170.201 590.16 170.418 589.961 170.852V175H588.268V168.66H589.867L589.914 169.416C590.254 168.834 590.725 168.543 591.326 168.543C591.514 168.543 591.689 168.568 591.854 168.619L591.83 170.248ZM592.287 171.783C592.287 170.811 592.518 170.027 592.979 169.434C593.443 168.84 594.068 168.543 594.854 168.543C595.549 168.543 596.09 168.781 596.477 169.258L596.547 168.66H598.082V174.789C598.082 175.344 597.955 175.826 597.701 176.236C597.451 176.646 597.098 176.959 596.641 177.174C596.184 177.389 595.648 177.496 595.035 177.496C594.57 177.496 594.117 177.402 593.676 177.215C593.234 177.031 592.9 176.793 592.674 176.5L593.424 175.469C593.846 175.941 594.357 176.178 594.959 176.178C595.408 176.178 595.758 176.057 596.008 175.814C596.258 175.576 596.383 175.236 596.383 174.795V174.455C595.992 174.896 595.479 175.117 594.842 175.117C594.08 175.117 593.463 174.82 592.99 174.227C592.521 173.629 592.287 172.838 592.287 171.854V171.783ZM593.98 171.906C593.98 172.48 594.096 172.932 594.326 173.26C594.557 173.584 594.873 173.746 595.275 173.746C595.791 173.746 596.16 173.553 596.383 173.166V170.5C596.156 170.113 595.791 169.92 595.287 169.92C594.881 169.92 594.561 170.086 594.326 170.418C594.096 170.75 593.98 171.246 593.98 171.906Z" fill="black"/>
<rect x="171" y="1" width="138" height="356" rx="4" stroke="black" stroke-width="2"/>
<path d="M210.219 8.46875V14.0879C210.219 15.0215 209.926 15.7598 209.34 16.3027C208.758 16.8457 207.961 17.1172 206.949 17.1172C205.953 17.1172 205.162 16.8535 204.576 16.3262C203.99 15.7988 203.691 15.0742 203.68 14.1523V8.46875H205.438V14.0996C205.438 14.6582 205.57 15.0664 205.836 15.3242C206.105 15.5781 206.477 15.7051 206.949 15.7051C207.938 15.7051 208.439 15.1855 208.455 14.1465V8.46875H210.219ZM213.107 10.6602L213.16 11.3926C213.613 10.8262 214.221 10.543 214.982 10.543C215.654 10.543 216.154 10.7402 216.482 11.1348C216.811 11.5293 216.979 12.1191 216.986 12.9043V17H215.293V12.9453C215.293 12.5859 215.215 12.3262 215.059 12.166C214.902 12.002 214.643 11.9199 214.279 11.9199C213.803 11.9199 213.445 12.123 213.207 12.5293V17H211.514V10.6602H213.107ZM221.709 15.248C221.709 15.041 221.605 14.8789 221.398 14.7617C221.195 14.6406 220.867 14.5332 220.414 14.4395C218.906 14.123 218.152 13.4824 218.152 12.5176C218.152 11.9551 218.385 11.4863 218.85 11.1113C219.318 10.7324 219.93 10.543 220.684 10.543C221.488 10.543 222.131 10.7324 222.611 11.1113C223.096 11.4902 223.338 11.9824 223.338 12.5879H221.645C221.645 12.3457 221.566 12.1465 221.41 11.9902C221.254 11.8301 221.01 11.75 220.678 11.75C220.393 11.75 220.172 11.8145 220.016 11.9434C219.859 12.0723 219.781 12.2363 219.781 12.4355C219.781 12.623 219.869 12.7754 220.045 12.8926C220.225 13.0059 220.525 13.1055 220.947 13.1914C221.369 13.2734 221.725 13.3672 222.014 13.4727C222.908 13.8008 223.355 14.3691 223.355 15.1777C223.355 15.7559 223.107 16.2246 222.611 16.584C222.115 16.9395 221.475 17.1172 220.689 17.1172C220.158 17.1172 219.686 17.0234 219.271 16.8359C218.861 16.6445 218.539 16.3848 218.305 16.0566C218.07 15.7246 217.953 15.3672 217.953 14.9844H219.559C219.574 15.2852 219.686 15.5156 219.893 15.6758C220.1 15.8359 220.377 15.916 220.725 15.916C221.049 15.916 221.293 15.8555 221.457 15.7344C221.625 15.6094 221.709 15.4473 221.709 15.248ZM230.158 13.8887C230.158 14.8652 229.936 15.6484 229.49 16.2383C229.049 16.8242 228.451 17.1172 227.697 17.1172C227.057 17.1172 226.539 16.8945 226.145 16.4492V19.4375H224.451V10.6602H226.021L226.08 11.2812C226.49 10.7891 227.025 10.543 227.686 10.543C228.467 10.543 229.074 10.832 229.508 11.4102C229.941 11.9883 230.158 12.7852 230.158 13.8008V13.8887ZM228.465 13.7656C228.465 13.1758 228.359 12.7207 228.148 12.4004C227.941 12.0801 227.639 11.9199 227.24 11.9199C226.709 11.9199 226.344 12.123 226.145 12.5293V15.125C226.352 15.543 226.721 15.752 227.252 15.752C228.061 15.752 228.465 15.0898 228.465 13.7656ZM234.131 17.1172C233.201 17.1172 232.443 16.832 231.857 16.2617C231.275 15.6914 230.984 14.9316 230.984 13.9824V13.8184C230.984 13.1816 231.107 12.6133 231.354 12.1133C231.6 11.6094 231.947 11.2227 232.396 10.9531C232.85 10.6797 233.365 10.543 233.943 10.543C234.811 10.543 235.492 10.8164 235.988 11.3633C236.488 11.9102 236.738 12.6855 236.738 13.6895V14.3809H232.701C232.756 14.7949 232.92 15.127 233.193 15.377C233.471 15.627 233.82 15.752 234.242 15.752C234.895 15.752 235.404 15.5156 235.771 15.043L236.604 15.9746C236.35 16.334 236.006 16.6152 235.572 16.8184C235.139 17.0176 234.658 17.1172 234.131 17.1172ZM233.938 11.9141C233.602 11.9141 233.328 12.0273 233.117 12.2539C232.91 12.4805 232.777 12.8047 232.719 13.2266H235.074V13.0918C235.066 12.7168 234.965 12.4277 234.77 12.2246C234.574 12.0176 234.297 11.9141 233.938 11.9141ZM239.264 10.6602L239.316 11.3926C239.77 10.8262 240.377 10.543 241.139 10.543C241.811 10.543 242.311 10.7402 242.639 11.1348C242.967 11.5293 243.135 12.1191 243.143 12.9043V17H241.449V12.9453C241.449 12.5859 241.371 12.3262 241.215 12.166C241.059 12.002 240.799 11.9199 240.436 11.9199C239.959 11.9199 239.602 12.123 239.363 12.5293V17H237.67V10.6602H239.264ZM246.459 9.10156V10.6602H247.543V11.9023H246.459V15.0664C246.459 15.3008 246.504 15.4688 246.594 15.5703C246.684 15.6719 246.855 15.7227 247.109 15.7227C247.297 15.7227 247.463 15.709 247.607 15.6816V16.9648C247.275 17.0664 246.934 17.1172 246.582 17.1172C245.395 17.1172 244.789 16.5176 244.766 15.3184V11.9023H243.84V10.6602H244.766V9.10156H246.459ZM251.779 14.0293H248.48V12.6641H251.779V14.0293ZM258.852 13.8887C258.852 14.9043 258.635 15.6973 258.201 16.2676C257.768 16.834 257.162 17.1172 256.385 17.1172C255.697 17.1172 255.148 16.8535 254.738 16.3262L254.662 17H253.139V8H254.832V11.2285C255.223 10.7715 255.736 10.543 256.373 10.543C257.146 10.543 257.752 10.8281 258.189 11.3984C258.631 11.9648 258.852 12.7637 258.852 13.7949V13.8887ZM257.158 13.7656C257.158 13.125 257.057 12.6582 256.854 12.3652C256.65 12.0684 256.348 11.9199 255.945 11.9199C255.406 11.9199 255.035 12.1406 254.832 12.582V15.084C255.039 15.5293 255.414 15.752 255.957 15.752C256.504 15.752 256.863 15.4824 257.035 14.9434C257.117 14.6855 257.158 14.293 257.158 13.7656ZM259.637 13.7715C259.637 13.1426 259.758 12.582 260 12.0898C260.242 11.5977 260.59 11.2168 261.043 10.9473C261.5 10.6777 262.029 10.543 262.631 10.543C263.486 10.543 264.184 10.8047 264.723 11.3281C265.266 11.8516 265.568 12.5625 265.631 13.4609L265.643 13.8945C265.643 14.8672 265.371 15.6484 264.828 16.2383C264.285 16.8242 263.557 17.1172 262.643 17.1172C261.729 17.1172 260.998 16.8242 260.451 16.2383C259.908 15.6523 259.637 14.8555 259.637 13.8477V13.7715ZM261.33 13.8945C261.33 14.4961 261.443 14.957 261.67 15.2773C261.896 15.5938 262.221 15.752 262.643 15.752C263.053 15.752 263.373 15.5957 263.604 15.2832C263.834 14.9668 263.949 14.4629 263.949 13.7715C263.949 13.1816 263.834 12.7246 263.604 12.4004C263.373 12.0762 263.049 11.9141 262.631 11.9141C262.217 11.9141 261.896 12.0762 261.67 12.4004C261.443 12.7207 261.33 13.2188 261.33 13.8945ZM268.971 12.5527L270.037 10.6602H271.848L270.043 13.7656L271.924 17H270.107L268.977 15.0078L267.852 17H266.029L267.91 13.7656L266.111 10.6602H267.928L268.971 12.5527ZM209.357 27.8887C209.357 28.8652 209.135 29.6484 208.689 30.2383C208.248 30.8242 207.65 31.1172 206.896 31.1172C206.256 31.1172 205.738 30.8945 205.344 30.4492V33.4375H203.65V24.6602H205.221L205.279 25.2812C205.689 24.7891 206.225 24.543 206.885 24.543C207.666 24.543 208.273 24.832 208.707 25.4102C209.141 25.9883 209.357 26.7852 209.357 27.8008V27.8887ZM207.664 27.7656C207.664 27.1758 207.559 26.7207 207.348 26.4004C207.141 26.0801 206.838 25.9199 206.439 25.9199C205.908 25.9199 205.543 26.123 205.344 26.5293V29.125C205.551 29.543 205.92 29.752 206.451 29.752C207.26 29.752 207.664 29.0898 207.664 27.7656ZM210.148 27.7715C210.148 27.1426 210.27 26.582 210.512 26.0898C210.754 25.5977 211.102 25.2168 211.555 24.9473C212.012 24.6777 212.541 24.543 213.143 24.543C213.998 24.543 214.695 24.8047 215.234 25.3281C215.777 25.8516 216.08 26.5625 216.143 27.4609L216.154 27.8945C216.154 28.8672 215.883 29.6484 215.34 30.2383C214.797 30.8242 214.068 31.1172 213.154 31.1172C212.24 31.1172 211.51 30.8242 210.963 30.2383C210.42 29.6523 210.148 28.8555 210.148 27.8477V27.7715ZM211.842 27.8945C211.842 28.4961 211.955 28.957 212.182 29.2773C212.408 29.5938 212.732 29.752 213.154 29.752C213.564 29.752 213.885 29.5957 214.115 29.2832C214.346 28.9668 214.461 28.4629 214.461 27.7715C214.461 27.1816 214.346 26.7246 214.115 26.4004C213.885 26.0762 213.561 25.9141 213.143 25.9141C212.729 25.9141 212.408 26.0762 212.182 26.4004C211.955 26.7207 211.842 27.2188 211.842 27.8945ZM216.934 27.7715C216.934 27.1426 217.055 26.582 217.297 26.0898C217.539 25.5977 217.887 25.2168 218.34 24.9473C218.797 24.6777 219.326 24.543 219.928 24.543C220.783 24.543 221.48 24.8047 222.02 25.3281C222.562 25.8516 222.865 26.5625 222.928 27.4609L222.939 27.8945C222.939 28.8672 222.668 29.6484 222.125 30.2383C221.582 30.8242 220.854 31.1172 219.939 31.1172C219.025 31.1172 218.295 30.8242 217.748 30.2383C217.205 29.6523 216.934 28.8555 216.934 27.8477V27.7715ZM218.627 27.8945C218.627 28.4961 218.74 28.957 218.967 29.2773C219.193 29.5938 219.518 29.752 219.939 29.752C220.35 29.752 220.67 29.5957 220.9 29.2832C221.131 28.9668 221.246 28.4629 221.246 27.7715C221.246 27.1816 221.131 26.7246 220.9 26.4004C220.67 26.0762 220.346 25.9141 219.928 25.9141C219.514 25.9141 219.193 26.0762 218.967 26.4004C218.74 26.7207 218.627 27.2188 218.627 27.8945ZM225.77 31H224.07V22H225.77V31ZM230.234 27.5312C230.234 26.6367 230.354 25.7852 230.592 24.9766C230.83 24.168 231.182 23.4531 231.646 22.832C232.111 22.207 232.615 21.7734 233.158 21.5312L233.486 22.4453C232.916 22.8672 232.471 23.5195 232.15 24.4023C231.83 25.2852 231.67 26.3164 231.67 27.4961V27.6777C231.67 28.8613 231.828 29.8965 232.145 30.7832C232.461 31.6699 232.908 32.332 233.486 32.7695L233.158 33.666C232.627 33.4277 232.131 33.0059 231.67 32.4004C231.213 31.7988 230.863 31.1035 230.621 30.3145C230.379 29.5254 230.25 28.7012 230.234 27.8418V27.5312ZM240.945 22.4688V28.0879C240.945 29.0215 240.652 29.7598 240.066 30.3027C239.484 30.8457 238.688 31.1172 237.676 31.1172C236.68 31.1172 235.889 30.8535 235.303 30.3262C234.717 29.7988 234.418 29.0742 234.406 28.1523V22.4688H236.164V28.0996C236.164 28.6582 236.297 29.0664 236.562 29.3242C236.832 29.5781 237.203 29.7051 237.676 29.7051C238.664 29.7051 239.166 29.1855 239.182 28.1465V22.4688H240.945ZM245.568 28.0293H242.27V26.6641H245.568V28.0293ZM252.635 27.8887C252.635 28.8652 252.412 29.6484 251.967 30.2383C251.525 30.8242 250.928 31.1172 250.174 31.1172C249.533 31.1172 249.016 30.8945 248.621 30.4492V33.4375H246.928V24.6602H248.498L248.557 25.2812C248.967 24.7891 249.502 24.543 250.162 24.543C250.943 24.543 251.551 24.832 251.984 25.4102C252.418 25.9883 252.635 26.7852 252.635 27.8008V27.8887ZM250.941 27.7656C250.941 27.1758 250.836 26.7207 250.625 26.4004C250.418 26.0801 250.115 25.9199 249.717 25.9199C249.186 25.9199 248.82 26.123 248.621 26.5293V29.125C248.828 29.543 249.197 29.752 249.729 29.752C250.537 29.752 250.941 29.0898 250.941 27.7656ZM253.426 27.7715C253.426 27.1426 253.547 26.582 253.789 26.0898C254.031 25.5977 254.379 25.2168 254.832 24.9473C255.289 24.6777 255.818 24.543 256.42 24.543C257.275 24.543 257.973 24.8047 258.512 25.3281C259.055 25.8516 259.357 26.5625 259.42 27.4609L259.432 27.8945C259.432 28.8672 259.16 29.6484 258.617 30.2383C258.074 30.8242 257.346 31.1172 256.432 31.1172C255.518 31.1172 254.787 30.8242 254.24 30.2383C253.697 29.6523 253.426 28.8555 253.426 27.8477V27.7715ZM255.119 27.8945C255.119 28.4961 255.232 28.957 255.459 29.2773C255.686 29.5938 256.01 29.752 256.432 29.752C256.842 29.752 257.162 29.5957 257.393 29.2832C257.623 28.9668 257.738 28.4629 257.738 27.7715C257.738 27.1816 257.623 26.7246 257.393 26.4004C257.162 26.0762 256.838 25.9141 256.42 25.9141C256.006 25.9141 255.686 26.0762 255.459 26.4004C255.232 26.7207 255.119 27.2188 255.119 27.8945ZM260.211 27.7715C260.211 27.1426 260.332 26.582 260.574 26.0898C260.816 25.5977 261.164 25.2168 261.617 24.9473C262.074 24.6777 262.604 24.543 263.205 24.543C264.061 24.543 264.758 24.8047 265.297 25.3281C265.84 25.8516 266.143 26.5625 266.205 27.4609L266.217 27.8945C266.217 28.8672 265.945 29.6484 265.402 30.2383C264.859 30.8242 264.131 31.1172 263.217 31.1172C262.303 31.1172 261.572 30.8242 261.025 30.2383C260.482 29.6523 260.211 28.8555 260.211 27.8477V27.7715ZM261.904 27.8945C261.904 28.4961 262.018 28.957 262.244 29.2773C262.471 29.5938 262.795 29.752 263.217 29.752C263.627 29.752 263.947 29.5957 264.178 29.2832C264.408 28.9668 264.523 28.4629 264.523 27.7715C264.523 27.1816 264.408 26.7246 264.178 26.4004C263.947 26.0762 263.623 25.9141 263.205 25.9141C262.791 25.9141 262.471 26.0762 262.244 26.4004C262.018 26.7207 261.904 27.2188 261.904 27.8945ZM269.047 31H267.348V22H269.047V31ZM273.365 27.666C273.365 28.5488 273.238 29.3984 272.984 30.2148C272.73 31.0312 272.365 31.752 271.889 32.377C271.412 33.002 270.902 33.4316 270.359 33.666L270.031 32.7695C270.586 32.3516 271.023 31.707 271.344 30.8359C271.664 29.9648 271.83 28.9629 271.842 27.8301V27.5195C271.842 26.3516 271.682 25.3223 271.361 24.4316C271.045 23.541 270.602 22.873 270.031 22.4277L270.359 21.5312C270.891 21.7617 271.391 22.1797 271.859 22.7852C272.332 23.3906 272.697 24.0957 272.955 24.9004C273.217 25.7051 273.354 26.5391 273.365 27.4023V27.666Z" fill="black"/>
<path d="M372.486 88.5879H376.787V90H370.289V88.9688L374.508 82.8926H370.295V81.4688H376.693V82.4766L372.486 88.5879ZM380.578 90.1172C379.648 90.1172 378.891 89.832 378.305 89.2617C377.723 88.6914 377.432 87.9316 377.432 86.9824V86.8184C377.432 86.1816 377.555 85.6133 377.801 85.1133C378.047 84.6094 378.395 84.2227 378.844 83.9531C379.297 83.6797 379.812 83.543 380.391 83.543C381.258 83.543 381.939 83.8164 382.436 84.3633C382.936 84.9102 383.186 85.6855 383.186 86.6895V87.3809H379.148C379.203 87.7949 379.367 88.127 379.641 88.377C379.918 88.627 380.268 88.752 380.689 88.752C381.342 88.752 381.852 88.5156 382.219 88.043L383.051 88.9746C382.797 89.334 382.453 89.6152 382.02 89.8184C381.586 90.0176 381.105 90.1172 380.578 90.1172ZM380.385 84.9141C380.049 84.9141 379.775 85.0273 379.564 85.2539C379.357 85.4805 379.225 85.8047 379.166 86.2266H381.521V86.0918C381.514 85.7168 381.412 85.4277 381.217 85.2246C381.021 85.0176 380.744 84.9141 380.385 84.9141ZM387.715 85.248C387.484 85.2168 387.281 85.2012 387.105 85.2012C386.465 85.2012 386.045 85.418 385.846 85.8516V90H384.152V83.6602H385.752L385.799 84.416C386.139 83.834 386.609 83.543 387.211 83.543C387.398 83.543 387.574 83.5684 387.738 83.6191L387.715 85.248ZM388.061 86.7715C388.061 86.1426 388.182 85.582 388.424 85.0898C388.666 84.5977 389.014 84.2168 389.467 83.9473C389.924 83.6777 390.453 83.543 391.055 83.543C391.91 83.543 392.607 83.8047 393.146 84.3281C393.689 84.8516 393.992 85.5625 394.055 86.4609L394.066 86.8945C394.066 87.8672 393.795 88.6484 393.252 89.2383C392.709 89.8242 391.98 90.1172 391.066 90.1172C390.152 90.1172 389.422 89.8242 388.875 89.2383C388.332 88.6523 388.061 87.8555 388.061 86.8477V86.7715ZM389.754 86.8945C389.754 87.4961 389.867 87.957 390.094 88.2773C390.32 88.5938 390.645 88.752 391.066 88.752C391.477 88.752 391.797 88.5957 392.027 88.2832C392.258 87.9668 392.373 87.4629 392.373 86.7715C392.373 86.1816 392.258 85.7246 392.027 85.4004C391.797 85.0762 391.473 84.9141 391.055 84.9141C390.641 84.9141 390.32 85.0762 390.094 85.4004C389.867 85.7207 389.754 86.2188 389.754 86.8945ZM398.402 87.0293H395.104V85.6641H398.402V87.0293ZM402.064 87.457L401.455 88.0664V90H399.762V81H401.455V85.9863L401.783 85.5645L403.406 83.6602H405.439L403.148 86.3027L405.639 90H403.693L402.064 87.457ZM407.73 83.6602L407.783 84.3926C408.236 83.8262 408.844 83.543 409.605 83.543C410.277 83.543 410.777 83.7402 411.105 84.1348C411.434 84.5293 411.602 85.1191 411.609 85.9043V90H409.916V85.9453C409.916 85.5859 409.838 85.3262 409.682 85.166C409.525 85.002 409.266 84.9199 408.902 84.9199C408.426 84.9199 408.068 85.123 407.83 85.5293V90H406.137V83.6602H407.73ZM412.635 86.7715C412.635 86.1426 412.756 85.582 412.998 85.0898C413.24 84.5977 413.588 84.2168 414.041 83.9473C414.498 83.6777 415.027 83.543 415.629 83.543C416.484 83.543 417.182 83.8047 417.721 84.3281C418.264 84.8516 418.566 85.5625 418.629 86.4609L418.641 86.8945C418.641 87.8672 418.369 88.6484 417.826 89.2383C417.283 89.8242 416.555 90.1172 415.641 90.1172C414.727 90.1172 413.996 89.8242 413.449 89.2383C412.906 88.6523 412.635 87.8555 412.635 86.8477V86.7715ZM414.328 86.8945C414.328 87.4961 414.441 87.957 414.668 88.2773C414.895 88.5938 415.219 88.752 415.641 88.752C416.051 88.752 416.371 88.5957 416.602 88.2832C416.832 87.9668 416.947 87.4629 416.947 86.7715C416.947 86.1816 416.832 85.7246 416.602 85.4004C416.371 85.0762 416.047 84.9141 415.629 84.9141C415.215 84.9141 414.895 85.0762 414.668 85.4004C414.441 85.7207 414.328 86.2188 414.328 86.8945ZM425.197 87.6973L426.029 83.6602H427.664L426.047 90H424.629L423.428 86.0098L422.227 90H420.814L419.197 83.6602H420.832L421.658 87.6914L422.818 83.6602H424.043L425.197 87.6973ZM431.426 90.1172C430.496 90.1172 429.738 89.832 429.152 89.2617C428.57 88.6914 428.279 87.9316 428.279 86.9824V86.8184C428.279 86.1816 428.402 85.6133 428.648 85.1133C428.895 84.6094 429.242 84.2227 429.691 83.9531C430.145 83.6797 430.66 83.543 431.238 83.543C432.105 83.543 432.787 83.8164 433.283 84.3633C433.783 84.9102 434.033 85.6855 434.033 86.6895V87.3809H429.996C430.051 87.7949 430.215 88.127 430.488 88.377C430.766 88.627 431.115 88.752 431.537 88.752C432.189 88.752 432.699 88.5156 433.066 88.043L433.898 88.9746C433.645 89.334 433.301 89.6152 432.867 89.8184C432.434 90.0176 431.953 90.1172 431.426 90.1172ZM431.232 84.9141C430.896 84.9141 430.623 85.0273 430.412 85.2539C430.205 85.4805 430.072 85.8047 430.014 86.2266H432.369V86.0918C432.361 85.7168 432.26 85.4277 432.064 85.2246C431.869 85.0176 431.592 84.9141 431.232 84.9141ZM436.787 90H435.088V81H436.787V90ZM441.105 90.1172C440.176 90.1172 439.418 89.832 438.832 89.2617C438.25 88.6914 437.959 87.9316 437.959 86.9824V86.8184C437.959 86.1816 438.082 85.6133 438.328 85.1133C438.574 84.6094 438.922 84.2227 439.371 83.9531C439.824 83.6797 440.34 83.543 440.918 83.543C441.785 83.543 442.467 83.8164 442.963 84.3633C443.463 84.9102 443.713 85.6855 443.713 86.6895V87.3809H439.676C439.73 87.7949 439.895 88.127 440.168 88.377C440.445 88.627 440.795 88.752 441.217 88.752C441.869 88.752 442.379 88.5156 442.746 88.043L443.578 88.9746C443.324 89.334 442.98 89.6152 442.547 89.8184C442.113 90.0176 441.633 90.1172 441.105 90.1172ZM440.912 84.9141C440.576 84.9141 440.303 85.0273 440.092 85.2539C439.885 85.4805 439.752 85.8047 439.693 86.2266H442.049V86.0918C442.041 85.7168 441.939 85.4277 441.744 85.2246C441.549 85.0176 441.271 84.9141 440.912 84.9141ZM444.416 86.7832C444.416 85.7949 444.637 85.0078 445.078 84.4219C445.523 83.8359 446.131 83.543 446.9 83.543C447.518 83.543 448.027 83.7734 448.43 84.2344V81H450.129V90H448.6L448.518 89.3262C448.096 89.8535 447.553 90.1172 446.889 90.1172C446.143 90.1172 445.543 89.8242 445.09 89.2383C444.641 88.6484 444.416 87.8301 444.416 86.7832ZM446.109 86.9062C446.109 87.5 446.213 87.9551 446.42 88.2715C446.627 88.5879 446.928 88.7461 447.322 88.7461C447.846 88.7461 448.215 88.5254 448.43 88.084V85.582C448.219 85.1406 447.854 84.9199 447.334 84.9199C446.518 84.9199 446.109 85.582 446.109 86.9062ZM451.195 86.7832C451.195 85.8105 451.426 85.0273 451.887 84.4336C452.352 83.8398 452.977 83.543 453.762 83.543C454.457 83.543 454.998 83.7812 455.385 84.2578L455.455 83.6602H456.99V89.7891C456.99 90.3438 456.863 90.8262 456.609 91.2363C456.359 91.6465 456.006 91.959 455.549 92.1738C455.092 92.3887 454.557 92.4961 453.943 92.4961C453.479 92.4961 453.025 92.4023 452.584 92.2148C452.143 92.0312 451.809 91.793 451.582 91.5L452.332 90.4688C452.754 90.9414 453.266 91.1777 453.867 91.1777C454.316 91.1777 454.666 91.0566 454.916 90.8145C455.166 90.5762 455.291 90.2363 455.291 89.7949V89.4551C454.9 89.8965 454.387 90.1172 453.75 90.1172C452.988 90.1172 452.371 89.8203 451.898 89.2266C451.43 88.6289 451.195 87.8379 451.195 86.8535V86.7832ZM452.889 86.9062C452.889 87.4805 453.004 87.9316 453.234 88.2598C453.465 88.584 453.781 88.7461 454.184 88.7461C454.699 88.7461 455.068 88.5527 455.291 88.166V85.5C455.064 85.1133 454.699 84.9199 454.195 84.9199C453.789 84.9199 453.469 85.0859 453.234 85.418C453.004 85.75 452.889 86.2461 452.889 86.9062ZM461.215 90.1172C460.285 90.1172 459.527 89.832 458.941 89.2617C458.359 88.6914 458.068 87.9316 458.068 86.9824V86.8184C458.068 86.1816 458.191 85.6133 458.438 85.1133C458.684 84.6094 459.031 84.2227 459.48 83.9531C459.934 83.6797 460.449 83.543 461.027 83.543C461.895 83.543 462.576 83.8164 463.072 84.3633C463.572 84.9102 463.822 85.6855 463.822 86.6895V87.3809H459.785C459.84 87.7949 460.004 88.127 460.277 88.377C460.555 88.627 460.904 88.752 461.326 88.752C461.979 88.752 462.488 88.5156 462.855 88.043L463.688 88.9746C463.434 89.334 463.09 89.6152 462.656 89.8184C462.223 90.0176 461.742 90.1172 461.215 90.1172ZM461.021 84.9141C460.686 84.9141 460.412 85.0273 460.201 85.2539C459.994 85.4805 459.861 85.8047 459.803 86.2266H462.158V86.0918C462.15 85.7168 462.049 85.4277 461.854 85.2246C461.658 85.0176 461.381 84.9141 461.021 84.9141ZM385.576 100.889C385.576 101.865 385.354 102.648 384.908 103.238C384.467 103.824 383.869 104.117 383.115 104.117C382.475 104.117 381.957 103.895 381.562 103.449V106.438H379.869V97.6602H381.439L381.498 98.2812C381.908 97.7891 382.443 97.543 383.104 97.543C383.885 97.543 384.492 97.832 384.926 98.4102C385.359 98.9883 385.576 99.7852 385.576 100.801V100.889ZM383.883 100.766C383.883 100.176 383.777 99.7207 383.566 99.4004C383.359 99.0801 383.057 98.9199 382.658 98.9199C382.127 98.9199 381.762 99.123 381.562 99.5293V102.125C381.77 102.543 382.139 102.752 382.67 102.752C383.479 102.752 383.883 102.09 383.883 100.766ZM390.193 99.248C389.963 99.2168 389.76 99.2012 389.584 99.2012C388.943 99.2012 388.523 99.418 388.324 99.8516V104H386.631V97.6602H388.23L388.277 98.416C388.617 97.834 389.088 97.543 389.689 97.543C389.877 97.543 390.053 97.5684 390.217 97.6191L390.193 99.248ZM390.539 100.771C390.539 100.143 390.66 99.582 390.902 99.0898C391.145 98.5977 391.492 98.2168 391.945 97.9473C392.402 97.6777 392.932 97.543 393.533 97.543C394.389 97.543 395.086 97.8047 395.625 98.3281C396.168 98.8516 396.471 99.5625 396.533 100.461L396.545 100.895C396.545 101.867 396.273 102.648 395.73 103.238C395.188 103.824 394.459 104.117 393.545 104.117C392.631 104.117 391.9 103.824 391.354 103.238C390.811 102.652 390.539 101.855 390.539 100.848V100.771ZM392.232 100.895C392.232 101.496 392.346 101.957 392.572 102.277C392.799 102.594 393.123 102.752 393.545 102.752C393.955 102.752 394.275 102.596 394.506 102.283C394.736 101.967 394.852 101.463 394.852 100.771C394.852 100.182 394.736 99.7246 394.506 99.4004C394.275 99.0762 393.951 98.9141 393.533 98.9141C393.119 98.9141 392.799 99.0762 392.572 99.4004C392.346 99.7207 392.232 100.219 392.232 100.895ZM397.324 100.771C397.324 100.143 397.445 99.582 397.688 99.0898C397.93 98.5977 398.277 98.2168 398.73 97.9473C399.188 97.6777 399.717 97.543 400.318 97.543C401.174 97.543 401.871 97.8047 402.41 98.3281C402.953 98.8516 403.256 99.5625 403.318 100.461L403.33 100.895C403.33 101.867 403.059 102.648 402.516 103.238C401.973 103.824 401.244 104.117 400.33 104.117C399.416 104.117 398.686 103.824 398.139 103.238C397.596 102.652 397.324 101.855 397.324 100.848V100.771ZM399.018 100.895C399.018 101.496 399.131 101.957 399.357 102.277C399.584 102.594 399.908 102.752 400.33 102.752C400.74 102.752 401.061 102.596 401.291 102.283C401.521 101.967 401.637 101.463 401.637 100.771C401.637 100.182 401.521 99.7246 401.291 99.4004C401.061 99.0762 400.736 98.9141 400.318 98.9141C399.904 98.9141 399.584 99.0762 399.357 99.4004C399.131 99.7207 399.018 100.219 399.018 100.895ZM404.836 104V98.9023H403.893V97.6602H404.836V97.1211C404.836 96.4102 405.039 95.8594 405.445 95.4688C405.855 95.0742 406.428 94.877 407.162 94.877C407.396 94.877 407.684 94.916 408.023 94.9941L408.006 96.3066C407.865 96.2715 407.693 96.2539 407.49 96.2539C406.854 96.2539 406.535 96.5527 406.535 97.1504V97.6602H407.795V98.9023H406.535V104H404.836ZM413.689 96.1016V97.6602H414.773V98.9023H413.689V102.066C413.689 102.301 413.734 102.469 413.824 102.57C413.914 102.672 414.086 102.723 414.34 102.723C414.527 102.723 414.693 102.709 414.838 102.682V103.965C414.506 104.066 414.164 104.117 413.812 104.117C412.625 104.117 412.02 103.518 411.996 102.318V98.9023H411.07V97.6602H411.996V96.1016H413.689ZM417.369 98.3516C417.818 97.8125 418.383 97.543 419.062 97.543C420.438 97.543 421.135 98.3418 421.154 99.9395V104H419.461V99.9863C419.461 99.623 419.383 99.3555 419.227 99.1836C419.07 99.0078 418.811 98.9199 418.447 98.9199C417.951 98.9199 417.592 99.1113 417.369 99.4941V104H415.676V95H417.369V98.3516ZM426.105 104C426.027 103.848 425.971 103.658 425.936 103.432C425.525 103.889 424.992 104.117 424.336 104.117C423.715 104.117 423.199 103.938 422.789 103.578C422.383 103.219 422.18 102.766 422.18 102.219C422.18 101.547 422.428 101.031 422.924 100.672C423.424 100.312 424.145 100.131 425.086 100.127H425.865V99.7637C425.865 99.4707 425.789 99.2363 425.637 99.0605C425.488 98.8848 425.252 98.7969 424.928 98.7969C424.643 98.7969 424.418 98.8652 424.254 99.002C424.094 99.1387 424.014 99.3262 424.014 99.5645H422.32C422.32 99.1973 422.434 98.8574 422.66 98.5449C422.887 98.2324 423.207 97.9883 423.621 97.8125C424.035 97.6328 424.5 97.543 425.016 97.543C425.797 97.543 426.416 97.7402 426.873 98.1348C427.334 98.5254 427.564 99.0762 427.564 99.7871V102.535C427.568 103.137 427.652 103.592 427.816 103.9V104H426.105ZM424.705 102.822C424.955 102.822 425.186 102.768 425.396 102.658C425.607 102.545 425.764 102.395 425.865 102.207V101.117H425.232C424.385 101.117 423.934 101.41 423.879 101.996L423.873 102.096C423.873 102.307 423.947 102.48 424.096 102.617C424.244 102.754 424.447 102.822 424.705 102.822ZM430.893 96.1016V97.6602H431.977V98.9023H430.893V102.066C430.893 102.301 430.938 102.469 431.027 102.57C431.117 102.672 431.289 102.723 431.543 102.723C431.73 102.723 431.896 102.709 432.041 102.682V103.965C431.709 104.066 431.367 104.117 431.016 104.117C429.828 104.117 429.223 103.518 429.199 102.318V98.9023H428.273V97.6602H429.199V96.1016H430.893ZM441.621 100.889C441.621 101.904 441.404 102.697 440.971 103.268C440.537 103.834 439.932 104.117 439.154 104.117C438.467 104.117 437.918 103.854 437.508 103.326L437.432 104H435.908V95H437.602V98.2285C437.992 97.7715 438.506 97.543 439.143 97.543C439.916 97.543 440.521 97.8281 440.959 98.3984C441.4 98.9648 441.621 99.7637 441.621 100.795V100.889ZM439.928 100.766C439.928 100.125 439.826 99.6582 439.623 99.3652C439.42 99.0684 439.117 98.9199 438.715 98.9199C438.176 98.9199 437.805 99.1406 437.602 99.582V102.084C437.809 102.529 438.184 102.752 438.727 102.752C439.273 102.752 439.633 102.482 439.805 101.943C439.887 101.686 439.928 101.293 439.928 100.766ZM442.406 100.771C442.406 100.143 442.527 99.582 442.77 99.0898C443.012 98.5977 443.359 98.2168 443.812 97.9473C444.27 97.6777 444.799 97.543 445.4 97.543C446.256 97.543 446.953 97.8047 447.492 98.3281C448.035 98.8516 448.338 99.5625 448.4 100.461L448.412 100.895C448.412 101.867 448.141 102.648 447.598 103.238C447.055 103.824 446.326 104.117 445.412 104.117C444.498 104.117 443.768 103.824 443.221 103.238C442.678 102.652 442.406 101.855 442.406 100.848V100.771ZM444.1 100.895C444.1 101.496 444.213 101.957 444.439 102.277C444.666 102.594 444.99 102.752 445.412 102.752C445.822 102.752 446.143 102.596 446.373 102.283C446.604 101.967 446.719 101.463 446.719 100.771C446.719 100.182 446.604 99.7246 446.373 99.4004C446.143 99.0762 445.818 98.9141 445.4 98.9141C444.986 98.9141 444.666 99.0762 444.439 99.4004C444.213 99.7207 444.1 100.219 444.1 100.895ZM451.74 99.5527L452.807 97.6602H454.617L452.812 100.766L454.693 104H452.877L451.746 102.008L450.621 104H448.799L450.68 100.766L448.881 97.6602H450.697L451.74 99.5527ZM378.492 118.117C377.562 118.117 376.805 117.832 376.219 117.262C375.637 116.691 375.346 115.932 375.346 114.982V114.818C375.346 114.182 375.469 113.613 375.715 113.113C375.961 112.609 376.309 112.223 376.758 111.953C377.211 111.68 377.727 111.543 378.305 111.543C379.172 111.543 379.854 111.816 380.35 112.363C380.85 112.91 381.1 113.686 381.1 114.689V115.381H377.062C377.117 115.795 377.281 116.127 377.555 116.377C377.832 116.627 378.182 116.752 378.604 116.752C379.256 116.752 379.766 116.516 380.133 116.043L380.965 116.975C380.711 117.334 380.367 117.615 379.934 117.818C379.5 118.018 379.02 118.117 378.492 118.117ZM378.299 112.914C377.963 112.914 377.689 113.027 377.479 113.254C377.271 113.48 377.139 113.805 377.08 114.227H379.436V114.092C379.428 113.717 379.326 113.428 379.131 113.225C378.936 113.018 378.658 112.914 378.299 112.914ZM384.48 113.553L385.547 111.66H387.357L385.553 114.766L387.434 118H385.617L384.486 116.008L383.361 118H381.539L383.42 114.766L381.621 111.66H383.438L384.48 113.553ZM389.959 118H388.26V111.66H389.959V118ZM388.16 110.02C388.16 109.766 388.244 109.557 388.412 109.393C388.584 109.229 388.816 109.146 389.109 109.146C389.398 109.146 389.629 109.229 389.801 109.393C389.973 109.557 390.059 109.766 390.059 110.02C390.059 110.277 389.971 110.488 389.795 110.652C389.623 110.816 389.395 110.898 389.109 110.898C388.824 110.898 388.594 110.816 388.418 110.652C388.246 110.488 388.16 110.277 388.16 110.02ZM394.793 116.248C394.793 116.041 394.689 115.879 394.482 115.762C394.279 115.641 393.951 115.533 393.498 115.439C391.99 115.123 391.236 114.482 391.236 113.518C391.236 112.955 391.469 112.486 391.934 112.111C392.402 111.732 393.014 111.543 393.768 111.543C394.572 111.543 395.215 111.732 395.695 112.111C396.18 112.49 396.422 112.982 396.422 113.588H394.729C394.729 113.346 394.65 113.146 394.494 112.99C394.338 112.83 394.094 112.75 393.762 112.75C393.477 112.75 393.256 112.814 393.1 112.943C392.943 113.072 392.865 113.236 392.865 113.436C392.865 113.623 392.953 113.775 393.129 113.893C393.309 114.006 393.609 114.105 394.031 114.191C394.453 114.273 394.809 114.367 395.098 114.473C395.992 114.801 396.439 115.369 396.439 116.178C396.439 116.756 396.191 117.225 395.695 117.584C395.199 117.939 394.559 118.117 393.773 118.117C393.242 118.117 392.77 118.023 392.355 117.836C391.945 117.645 391.623 117.385 391.389 117.057C391.154 116.725 391.037 116.367 391.037 115.984H392.643C392.658 116.285 392.77 116.516 392.977 116.676C393.184 116.836 393.461 116.916 393.809 116.916C394.133 116.916 394.377 116.855 394.541 116.734C394.709 116.609 394.793 116.447 394.793 116.248ZM399.562 110.102V111.66H400.646V112.902H399.562V116.066C399.562 116.301 399.607 116.469 399.697 116.57C399.787 116.672 399.959 116.723 400.213 116.723C400.4 116.723 400.566 116.709 400.711 116.682V117.965C400.379 118.066 400.037 118.117 399.686 118.117C398.498 118.117 397.893 117.518 397.869 116.318V112.902H396.943V111.66H397.869V110.102H399.562ZM405.023 116.248C405.023 116.041 404.92 115.879 404.713 115.762C404.51 115.641 404.182 115.533 403.729 115.439C402.221 115.123 401.467 114.482 401.467 113.518C401.467 112.955 401.699 112.486 402.164 112.111C402.633 111.732 403.244 111.543 403.998 111.543C404.803 111.543 405.445 111.732 405.926 112.111C406.41 112.49 406.652 112.982 406.652 113.588H404.959C404.959 113.346 404.881 113.146 404.725 112.99C404.568 112.83 404.324 112.75 403.992 112.75C403.707 112.75 403.486 112.814 403.33 112.943C403.174 113.072 403.096 113.236 403.096 113.436C403.096 113.623 403.184 113.775 403.359 113.893C403.539 114.006 403.84 114.105 404.262 114.191C404.684 114.273 405.039 114.367 405.328 114.473C406.223 114.801 406.67 115.369 406.67 116.178C406.67 116.756 406.422 117.225 405.926 117.584C405.43 117.939 404.789 118.117 404.004 118.117C403.473 118.117 403 118.023 402.586 117.836C402.176 117.645 401.854 117.385 401.619 117.057C401.385 116.725 401.268 116.367 401.268 115.984H402.873C402.889 116.285 403 116.516 403.207 116.676C403.414 116.836 403.691 116.916 404.039 116.916C404.363 116.916 404.607 116.855 404.771 116.734C404.939 116.609 405.023 116.447 405.023 116.248ZM412.541 118H410.842V111.66H412.541V118ZM410.742 110.02C410.742 109.766 410.826 109.557 410.994 109.393C411.166 109.229 411.398 109.146 411.691 109.146C411.98 109.146 412.211 109.229 412.383 109.393C412.555 109.557 412.641 109.766 412.641 110.02C412.641 110.277 412.553 110.488 412.377 110.652C412.205 110.816 411.977 110.898 411.691 110.898C411.406 110.898 411.176 110.816 411 110.652C410.828 110.488 410.742 110.277 410.742 110.02ZM415.5 111.66L415.553 112.393C416.006 111.826 416.613 111.543 417.375 111.543C418.047 111.543 418.547 111.74 418.875 112.135C419.203 112.529 419.371 113.119 419.379 113.904V118H417.686V113.945C417.686 113.586 417.607 113.326 417.451 113.166C417.295 113.002 417.035 112.92 416.672 112.92C416.195 112.92 415.838 113.123 415.6 113.529V118H413.906V111.66H415.5ZM430.225 109.469V115.088C430.225 116.021 429.932 116.76 429.346 117.303C428.764 117.846 427.967 118.117 426.955 118.117C425.959 118.117 425.168 117.854 424.582 117.326C423.996 116.799 423.697 116.074 423.686 115.152V109.469H425.443V115.1C425.443 115.658 425.576 116.066 425.842 116.324C426.111 116.578 426.482 116.705 426.955 116.705C427.943 116.705 428.445 116.186 428.461 115.146V109.469H430.225ZM434.848 115.029H431.549V113.664H434.848V115.029ZM441.914 114.889C441.914 115.865 441.691 116.648 441.246 117.238C440.805 117.824 440.207 118.117 439.453 118.117C438.812 118.117 438.295 117.895 437.9 117.449V120.438H436.207V111.66H437.777L437.836 112.281C438.246 111.789 438.781 111.543 439.441 111.543C440.223 111.543 440.83 111.832 441.264 112.41C441.697 112.988 441.914 113.785 441.914 114.801V114.889ZM440.221 114.766C440.221 114.176 440.115 113.721 439.904 113.4C439.697 113.08 439.395 112.92 438.996 112.92C438.465 112.92 438.1 113.123 437.9 113.529V116.125C438.107 116.543 438.477 116.752 439.008 116.752C439.816 116.752 440.221 116.09 440.221 114.766ZM442.705 114.771C442.705 114.143 442.826 113.582 443.068 113.09C443.311 112.598 443.658 112.217 444.111 111.947C444.568 111.678 445.098 111.543 445.699 111.543C446.555 111.543 447.252 111.805 447.791 112.328C448.334 112.852 448.637 113.562 448.699 114.461L448.711 114.895C448.711 115.867 448.439 116.648 447.896 117.238C447.354 117.824 446.625 118.117 445.711 118.117C444.797 118.117 444.066 117.824 443.52 117.238C442.977 116.652 442.705 115.855 442.705 114.848V114.771ZM444.398 114.895C444.398 115.496 444.512 115.957 444.738 116.277C444.965 116.594 445.289 116.752 445.711 116.752C446.121 116.752 446.441 116.596 446.672 116.283C446.902 115.967 447.018 115.463 447.018 114.771C447.018 114.182 446.902 113.725 446.672 113.4C446.441 113.076 446.117 112.914 445.699 112.914C445.285 112.914 444.965 113.076 444.738 113.4C444.512 113.721 444.398 114.219 444.398 114.895ZM449.49 114.771C449.49 114.143 449.611 113.582 449.854 113.09C450.096 112.598 450.443 112.217 450.896 111.947C451.354 111.678 451.883 111.543 452.484 111.543C453.34 111.543 454.037 111.805 454.576 112.328C455.119 112.852 455.422 113.562 455.484 114.461L455.496 114.895C455.496 115.867 455.225 116.648 454.682 117.238C454.139 117.824 453.41 118.117 452.496 118.117C451.582 118.117 450.852 117.824 450.305 117.238C449.762 116.652 449.49 115.855 449.49 114.848V114.771ZM451.184 114.895C451.184 115.496 451.297 115.957 451.523 116.277C451.75 116.594 452.074 116.752 452.496 116.752C452.906 116.752 453.227 116.596 453.457 116.283C453.688 115.967 453.803 115.463 453.803 114.771C453.803 114.182 453.688 113.725 453.457 113.4C453.227 113.076 452.902 112.914 452.484 112.914C452.07 112.914 451.75 113.076 451.523 113.4C451.297 113.721 451.184 114.219 451.184 114.895ZM458.326 118H456.627V109H458.326V118Z" fill="black"/>
<path d="M569 56.5H605C607.485 56.5 609.5 58.5147 609.5 61V85C609.5 87.4853 607.485 89.5 605 89.5H569C566.515 89.5 564.5 87.4853 564.5 85V61C564.5 58.5147 566.515 56.5 569 56.5Z" stroke="black"/>
<path d="M569 106.5H605C607.485 106.5 609.5 108.515 609.5 111V135C609.5 137.485 607.485 139.5 605 139.5H569C566.515 139.5 564.5 137.485 564.5 135V111C564.5 108.515 566.515 106.5 569 106.5Z" stroke="black"/>
<path d="M569 156.5H605C607.485 156.5 609.5 158.515 609.5 161V185C609.5 187.485 607.485 189.5 605 189.5H569C566.515 189.5 564.5 187.485 564.5 185V161C564.5 158.515 566.515 156.5 569 156.5Z" stroke="black"/>
<path d="M780.682 77H778.988V70.4727L776.967 71.0996V69.7227L780.5 68.457H780.682V77ZM791.762 73.3027H788.387V75.5879H792.348V77H786.629V68.4688H792.336V69.8926H788.387V71.9258H791.762V73.3027ZM796.83 72.248C796.6 72.2168 796.396 72.2012 796.221 72.2012C795.58 72.2012 795.16 72.418 794.961 72.8516V77H793.268V70.6602H794.867L794.914 71.416C795.254 70.834 795.725 70.543 796.326 70.543C796.514 70.543 796.689 70.5684 796.854 70.6191L796.83 72.248ZM797.287 73.7832C797.287 72.8105 797.518 72.0273 797.979 71.4336C798.443 70.8398 799.068 70.543 799.854 70.543C800.549 70.543 801.09 70.7812 801.477 71.2578L801.547 70.6602H803.082V76.7891C803.082 77.3438 802.955 77.8262 802.701 78.2363C802.451 78.6465 802.098 78.959 801.641 79.1738C801.184 79.3887 800.648 79.4961 800.035 79.4961C799.57 79.4961 799.117 79.4023 798.676 79.2148C798.234 79.0312 797.9 78.793 797.674 78.5L798.424 77.4688C798.846 77.9414 799.357 78.1777 799.959 78.1777C800.408 78.1777 800.758 78.0566 801.008 77.8145C801.258 77.5762 801.383 77.2363 801.383 76.7949V76.4551C800.992 76.8965 800.479 77.1172 799.842 77.1172C799.08 77.1172 798.463 76.8203 797.99 76.2266C797.521 75.6289 797.287 74.8379 797.287 73.8535V73.7832ZM798.98 73.9062C798.98 74.4805 799.096 74.9316 799.326 75.2598C799.557 75.584 799.873 75.7461 800.275 75.7461C800.791 75.7461 801.16 75.5527 801.383 75.166V72.5C801.156 72.1133 800.791 71.9199 800.287 71.9199C799.881 71.9199 799.561 72.0859 799.326 72.418C799.096 72.75 798.98 73.2461 798.98 73.9062Z" fill="black"/>
<path d="M781.682 127H779.988V120.473L777.967 121.1V119.723L781.5 118.457H781.682V127ZM792.762 123.303H789.387V125.588H793.348V127H787.629V118.469H793.336V119.893H789.387V121.926H792.762V123.303ZM797.83 122.248C797.6 122.217 797.396 122.201 797.221 122.201C796.58 122.201 796.16 122.418 795.961 122.852V127H794.268V120.66H795.867L795.914 121.416C796.254 120.834 796.725 120.543 797.326 120.543C797.514 120.543 797.689 120.568 797.854 120.619L797.83 122.248ZM798.287 123.783C798.287 122.811 798.518 122.027 798.979 121.434C799.443 120.84 800.068 120.543 800.854 120.543C801.549 120.543 802.09 120.781 802.477 121.258L802.547 120.66H804.082V126.789C804.082 127.344 803.955 127.826 803.701 128.236C803.451 128.646 803.098 128.959 802.641 129.174C802.184 129.389 801.648 129.496 801.035 129.496C800.57 129.496 800.117 129.402 799.676 129.215C799.234 129.031 798.9 128.793 798.674 128.5L799.424 127.469C799.846 127.941 800.357 128.178 800.959 128.178C801.408 128.178 801.758 128.057 802.008 127.814C802.258 127.576 802.383 127.236 802.383 126.795V126.455C801.992 126.896 801.479 127.117 800.842 127.117C800.08 127.117 799.463 126.82 798.99 126.227C798.521 125.629 798.287 124.838 798.287 123.854V123.783ZM799.98 123.906C799.98 124.48 800.096 124.932 800.326 125.26C800.557 125.584 800.873 125.746 801.275 125.746C801.791 125.746 802.16 125.553 802.383 125.166V122.5C802.156 122.113 801.791 121.92 801.287 121.92C800.881 121.92 800.561 122.086 800.326 122.418C800.096 122.75 799.98 123.246 799.98 123.906Z" fill="black"/>
<path d="M781.682 175H779.988V168.473L777.967 169.1V167.723L781.5 166.457H781.682V175ZM792.762 171.303H789.387V173.588H793.348V175H787.629V166.469H793.336V167.893H789.387V169.926H792.762V171.303ZM797.83 170.248C797.6 170.217 797.396 170.201 797.221 170.201C796.58 170.201 796.16 170.418 795.961 170.852V175H794.268V168.66H795.867L795.914 169.416C796.254 168.834 796.725 168.543 797.326 168.543C797.514 168.543 797.689 168.568 797.854 168.619L797.83 170.248ZM798.287 171.783C798.287 170.811 798.518 170.027 798.979 169.434C799.443 168.84 800.068 168.543 800.854 168.543C801.549 168.543 802.09 168.781 802.477 169.258L802.547 168.66H804.082V174.789C804.082 175.344 803.955 175.826 803.701 176.236C803.451 176.646 803.098 176.959 802.641 177.174C802.184 177.389 801.648 177.496 801.035 177.496C800.57 177.496 800.117 177.402 799.676 177.215C799.234 177.031 798.9 176.793 798.674 176.5L799.424 175.469C799.846 175.941 800.357 176.178 800.959 176.178C801.408 176.178 801.758 176.057 802.008 175.814C802.258 175.576 802.383 175.236 802.383 174.795V174.455C801.992 174.896 801.479 175.117 800.842 175.117C800.08 175.117 799.463 174.82 798.99 174.227C798.521 173.629 798.287 172.838 798.287 171.854V171.783ZM799.98 171.906C799.98 172.48 800.096 172.932 800.326 173.26C800.557 173.584 800.873 173.746 801.275 173.746C801.791 173.746 802.16 173.553 802.383 173.166V170.5C802.156 170.113 801.791 169.92 801.287 169.92C800.881 169.92 800.561 170.086 800.326 170.418C800.096 170.75 799.98 171.246 799.98 171.906Z" fill="black"/>
<path d="M775 56.5H811C813.485 56.5 815.5 58.5147 815.5 61V85C815.5 87.4853 813.485 89.5 811 89.5H775C772.515 89.5 770.5 87.4853 770.5 85V61C770.5 58.5147 772.515 56.5 775 56.5Z" stroke="black"/>
<path d="M775 106.5H811C813.485 106.5 815.5 108.515 815.5 111V135C815.5 137.485 813.485 139.5 811 139.5H775C772.515 139.5 770.5 137.485 770.5 135V111C770.5 108.515 772.515 106.5 775 106.5Z" stroke="black"/>
<path d="M775 156.5H811C813.485 156.5 815.5 158.515 815.5 161V185C815.5 187.485 813.485 189.5 811 189.5H775C772.515 189.5 770.5 187.485 770.5 185V161C770.5 158.515 772.515 156.5 775 156.5Z" stroke="black"/>
<path d="M228.682 226H226.988V219.473L224.967 220.1V218.723L228.5 217.457H228.682V226ZM239.762 222.303H236.387V224.588H240.348V226H234.629V217.469H240.336V218.893H236.387V220.926H239.762V222.303ZM244.83 221.248C244.6 221.217 244.396 221.201 244.221 221.201C243.58 221.201 243.16 221.418 242.961 221.852V226H241.268V219.66H242.867L242.914 220.416C243.254 219.834 243.725 219.543 244.326 219.543C244.514 219.543 244.689 219.568 244.854 219.619L244.83 221.248ZM245.287 222.783C245.287 221.811 245.518 221.027 245.979 220.434C246.443 219.84 247.068 219.543 247.854 219.543C248.549 219.543 249.09 219.781 249.477 220.258L249.547 219.66H251.082V225.789C251.082 226.344 250.955 226.826 250.701 227.236C250.451 227.646 250.098 227.959 249.641 228.174C249.184 228.389 248.648 228.496 248.035 228.496C247.57 228.496 247.117 228.402 246.676 228.215C246.234 228.031 245.9 227.793 245.674 227.5L246.424 226.469C246.846 226.941 247.357 227.178 247.959 227.178C248.408 227.178 248.758 227.057 249.008 226.814C249.258 226.576 249.383 226.236 249.383 225.795V225.455C248.992 225.896 248.479 226.117 247.842 226.117C247.08 226.117 246.463 225.82 245.99 225.227C245.521 224.629 245.287 223.838 245.287 222.854V222.783ZM246.98 222.906C246.98 223.48 247.096 223.932 247.326 224.26C247.557 224.584 247.873 224.746 248.275 224.746C248.791 224.746 249.16 224.553 249.383 224.166V221.5C249.156 221.113 248.791 220.92 248.287 220.92C247.881 220.92 247.561 221.086 247.326 221.418C247.096 221.75 246.98 222.246 246.98 222.906Z" fill="black"/>
<path d="M229.682 276H227.988V269.473L225.967 270.1V268.723L229.5 267.457H229.682V276ZM240.762 272.303H237.387V274.588H241.348V276H235.629V267.469H241.336V268.893H237.387V270.926H240.762V272.303ZM245.83 271.248C245.6 271.217 245.396 271.201 245.221 271.201C244.58 271.201 244.16 271.418 243.961 271.852V276H242.268V269.66H243.867L243.914 270.416C244.254 269.834 244.725 269.543 245.326 269.543C245.514 269.543 245.689 269.568 245.854 269.619L245.83 271.248ZM246.287 272.783C246.287 271.811 246.518 271.027 246.979 270.434C247.443 269.84 248.068 269.543 248.854 269.543C249.549 269.543 250.09 269.781 250.477 270.258L250.547 269.66H252.082V275.789C252.082 276.344 251.955 276.826 251.701 277.236C251.451 277.646 251.098 277.959 250.641 278.174C250.184 278.389 249.648 278.496 249.035 278.496C248.57 278.496 248.117 278.402 247.676 278.215C247.234 278.031 246.9 277.793 246.674 277.5L247.424 276.469C247.846 276.941 248.357 277.178 248.959 277.178C249.408 277.178 249.758 277.057 250.008 276.814C250.258 276.576 250.383 276.236 250.383 275.795V275.455C249.992 275.896 249.479 276.117 248.842 276.117C248.08 276.117 247.463 275.82 246.99 275.227C246.521 274.629 246.287 273.838 246.287 272.854V272.783ZM247.98 272.906C247.98 273.48 248.096 273.932 248.326 274.26C248.557 274.584 248.873 274.746 249.275 274.746C249.791 274.746 250.16 274.553 250.383 274.166V271.5C250.156 271.113 249.791 270.92 249.287 270.92C248.881 270.92 248.561 271.086 248.326 271.418C248.096 271.75 247.98 272.246 247.98 272.906Z" fill="black"/>
<path d="M229.682 324H227.988V317.473L225.967 318.1V316.723L229.5 315.457H229.682V324ZM240.762 320.303H237.387V322.588H241.348V324H235.629V315.469H241.336V316.893H237.387V318.926H240.762V320.303ZM245.83 319.248C245.6 319.217 245.396 319.201 245.221 319.201C244.58 319.201 244.16 319.418 243.961 319.852V324H242.268V317.66H243.867L243.914 318.416C244.254 317.834 244.725 317.543 245.326 317.543C245.514 317.543 245.689 317.568 245.854 317.619L245.83 319.248ZM246.287 320.783C246.287 319.811 246.518 319.027 246.979 318.434C247.443 317.84 248.068 317.543 248.854 317.543C249.549 317.543 250.09 317.781 250.477 318.258L250.547 317.66H252.082V323.789C252.082 324.344 251.955 324.826 251.701 325.236C251.451 325.646 251.098 325.959 250.641 326.174C250.184 326.389 249.648 326.496 249.035 326.496C248.57 326.496 248.117 326.402 247.676 326.215C247.234 326.031 246.9 325.793 246.674 325.5L247.424 324.469C247.846 324.941 248.357 325.178 248.959 325.178C249.408 325.178 249.758 325.057 250.008 324.814C250.258 324.576 250.383 324.236 250.383 323.795V323.455C249.992 323.896 249.479 324.117 248.842 324.117C248.08 324.117 247.463 323.82 246.99 323.227C246.521 322.629 246.287 321.838 246.287 320.854V320.783ZM247.98 320.906C247.98 321.48 248.096 321.932 248.326 322.26C248.557 322.584 248.873 322.746 249.275 322.746C249.791 322.746 250.16 322.553 250.383 322.166V319.5C250.156 319.113 249.791 318.92 249.287 318.92C248.881 318.92 248.561 319.086 248.326 319.418C248.096 319.75 247.98 320.246 247.98 320.906Z" fill="black"/>
<path d="M223 205.5H259C261.485 205.5 263.5 207.515 263.5 210V234C263.5 236.485 261.485 238.5 259 238.5H223C220.515 238.5 218.5 236.485 218.5 234V210C218.5 207.515 220.515 205.5 223 205.5Z" stroke="black"/>
<path d="M223 255.5H259C261.485 255.5 263.5 257.515 263.5 260V284C263.5 286.485 261.485 288.5 259 288.5H223C220.515 288.5 218.5 286.485 218.5 284V260C218.5 257.515 220.515 255.5 223 255.5Z" stroke="black"/>
<path d="M223 305.5H259C261.485 305.5 263.5 307.515 263.5 310V334C263.5 336.485 261.485 338.5 259 338.5H223C220.515 338.5 218.5 336.485 218.5 334V310C218.5 307.515 220.515 305.5 223 305.5Z" stroke="black"/>
<path d="M227.682 77H225.988V70.4727L223.967 71.0996V69.7227L227.5 68.457H227.682V77ZM238.762 73.3027H235.387V75.5879H239.348V77H233.629V68.4688H239.336V69.8926H235.387V71.9258H238.762V73.3027ZM243.83 72.248C243.6 72.2168 243.396 72.2012 243.221 72.2012C242.58 72.2012 242.16 72.418 241.961 72.8516V77H240.268V70.6602H241.867L241.914 71.416C242.254 70.834 242.725 70.543 243.326 70.543C243.514 70.543 243.689 70.5684 243.854 70.6191L243.83 72.248ZM244.287 73.7832C244.287 72.8105 244.518 72.0273 244.979 71.4336C245.443 70.8398 246.068 70.543 246.854 70.543C247.549 70.543 248.09 70.7812 248.477 71.2578L248.547 70.6602H250.082V76.7891C250.082 77.3438 249.955 77.8262 249.701 78.2363C249.451 78.6465 249.098 78.959 248.641 79.1738C248.184 79.3887 247.648 79.4961 247.035 79.4961C246.57 79.4961 246.117 79.4023 245.676 79.2148C245.234 79.0312 244.9 78.793 244.674 78.5L245.424 77.4688C245.846 77.9414 246.357 78.1777 246.959 78.1777C247.408 78.1777 247.758 78.0566 248.008 77.8145C248.258 77.5762 248.383 77.2363 248.383 76.7949V76.4551C247.992 76.8965 247.479 77.1172 246.842 77.1172C246.08 77.1172 245.463 76.8203 244.99 76.2266C244.521 75.6289 244.287 74.8379 244.287 73.8535V73.7832ZM245.98 73.9062C245.98 74.4805 246.096 74.9316 246.326 75.2598C246.557 75.584 246.873 75.7461 247.275 75.7461C247.791 75.7461 248.16 75.5527 248.383 75.166V72.5C248.156 72.1133 247.791 71.9199 247.287 71.9199C246.881 71.9199 246.561 72.0859 246.326 72.418C246.096 72.75 245.98 73.2461 245.98 73.9062Z" fill="black"/>
<path d="M228.682 127H226.988V120.473L224.967 121.1V119.723L228.5 118.457H228.682V127ZM239.762 123.303H236.387V125.588H240.348V127H234.629V118.469H240.336V119.893H236.387V121.926H239.762V123.303ZM244.83 122.248C244.6 122.217 244.396 122.201 244.221 122.201C243.58 122.201 243.16 122.418 242.961 122.852V127H241.268V120.66H242.867L242.914 121.416C243.254 120.834 243.725 120.543 244.326 120.543C244.514 120.543 244.689 120.568 244.854 120.619L244.83 122.248ZM245.287 123.783C245.287 122.811 245.518 122.027 245.979 121.434C246.443 120.84 247.068 120.543 247.854 120.543C248.549 120.543 249.09 120.781 249.477 121.258L249.547 120.66H251.082V126.789C251.082 127.344 250.955 127.826 250.701 128.236C250.451 128.646 250.098 128.959 249.641 129.174C249.184 129.389 248.648 129.496 248.035 129.496C247.57 129.496 247.117 129.402 246.676 129.215C246.234 129.031 245.9 128.793 245.674 128.5L246.424 127.469C246.846 127.941 247.357 128.178 247.959 128.178C248.408 128.178 248.758 128.057 249.008 127.814C249.258 127.576 249.383 127.236 249.383 126.795V126.455C248.992 126.896 248.479 127.117 247.842 127.117C247.08 127.117 246.463 126.82 245.99 126.227C245.521 125.629 245.287 124.838 245.287 123.854V123.783ZM246.98 123.906C246.98 124.48 247.096 124.932 247.326 125.26C247.557 125.584 247.873 125.746 248.275 125.746C248.791 125.746 249.16 125.553 249.383 125.166V122.5C249.156 122.113 248.791 121.92 248.287 121.92C247.881 121.92 247.561 122.086 247.326 122.418C247.096 122.75 246.98 123.246 246.98 123.906Z" fill="black"/>
<path d="M228.682 175H226.988V168.473L224.967 169.1V167.723L228.5 166.457H228.682V175ZM239.762 171.303H236.387V173.588H240.348V175H234.629V166.469H240.336V167.893H236.387V169.926H239.762V171.303ZM244.83 170.248C244.6 170.217 244.396 170.201 244.221 170.201C243.58 170.201 243.16 170.418 242.961 170.852V175H241.268V168.66H242.867L242.914 169.416C243.254 168.834 243.725 168.543 244.326 168.543C244.514 168.543 244.689 168.568 244.854 168.619L244.83 170.248ZM245.287 171.783C245.287 170.811 245.518 170.027 245.979 169.434C246.443 168.84 247.068 168.543 247.854 168.543C248.549 168.543 249.09 168.781 249.477 169.258L249.547 168.66H251.082V174.789C251.082 175.344 250.955 175.826 250.701 176.236C250.451 176.646 250.098 176.959 249.641 177.174C249.184 177.389 248.648 177.496 248.035 177.496C247.57 177.496 247.117 177.402 246.676 177.215C246.234 177.031 245.9 176.793 245.674 176.5L246.424 175.469C246.846 175.941 247.357 176.178 247.959 176.178C248.408 176.178 248.758 176.057 249.008 175.814C249.258 175.576 249.383 175.236 249.383 174.795V174.455C248.992 174.896 248.479 175.117 247.842 175.117C247.08 175.117 246.463 174.82 245.99 174.227C245.521 173.629 245.287 172.838 245.287 171.854V171.783ZM246.98 171.906C246.98 172.48 247.096 172.932 247.326 173.26C247.557 173.584 247.873 173.746 248.275 173.746C248.791 173.746 249.16 173.553 249.383 173.166V170.5C249.156 170.113 248.791 169.92 248.287 169.92C247.881 169.92 247.561 170.086 247.326 170.418C247.096 170.75 246.98 171.246 246.98 171.906Z" fill="black"/>
<path d="M222 56.5H258C260.485 56.5 262.5 58.5147 262.5 61V85C262.5 87.4853 260.485 89.5 258 89.5H222C219.515 89.5 217.5 87.4853 217.5 85V61C217.5 58.5147 219.515 56.5 222 56.5Z" stroke="black"/>
<path d="M222 106.5H258C260.485 106.5 262.5 108.515 262.5 111V135C262.5 137.485 260.485 139.5 258 139.5H222C219.515 139.5 217.5 137.485 217.5 135V111C217.5 108.515 219.515 106.5 222 106.5Z" stroke="black"/>
<path d="M222 156.5H258C260.485 156.5 262.5 158.515 262.5 161V185C262.5 187.485 260.485 189.5 258 189.5H222C219.515 189.5 217.5 187.485 217.5 185V161C217.5 158.515 219.515 156.5 222 156.5Z" stroke="black"/>
<rect x="517" y="1" width="138" height="209" rx="4" stroke="black" stroke-width="2"/>
<path d="M554.186 14.7617C554.186 14.4297 554.068 14.1758 553.834 14C553.6 13.8203 553.178 13.6328 552.568 13.4375C551.959 13.2383 551.477 13.043 551.121 12.8516C550.152 12.3281 549.668 11.623 549.668 10.7363C549.668 10.2754 549.797 9.86523 550.055 9.50586C550.316 9.14258 550.689 8.85938 551.174 8.65625C551.662 8.45312 552.209 8.35156 552.814 8.35156C553.424 8.35156 553.967 8.46289 554.443 8.68555C554.92 8.9043 555.289 9.21484 555.551 9.61719C555.816 10.0195 555.949 10.4766 555.949 10.9883H554.191C554.191 10.5977 554.068 10.2949 553.822 10.0801C553.576 9.86133 553.23 9.75195 552.785 9.75195C552.355 9.75195 552.021 9.84375 551.783 10.0273C551.545 10.207 551.426 10.4453 551.426 10.7422C551.426 11.0195 551.564 11.252 551.842 11.4395C552.123 11.627 552.535 11.8027 553.078 11.9668C554.078 12.2676 554.807 12.6406 555.264 13.0859C555.721 13.5312 555.949 14.0859 555.949 14.75C555.949 15.4883 555.67 16.0684 555.111 16.4902C554.553 16.9082 553.801 17.1172 552.855 17.1172C552.199 17.1172 551.602 16.998 551.062 16.7598C550.523 16.5176 550.111 16.1875 549.826 15.7695C549.545 15.3516 549.404 14.8672 549.404 14.3164H551.168C551.168 15.2578 551.73 15.7285 552.855 15.7285C553.273 15.7285 553.6 15.6445 553.834 15.4766C554.068 15.3047 554.186 15.0664 554.186 14.7617ZM562.74 13.8887C562.74 14.8652 562.518 15.6484 562.072 16.2383C561.631 16.8242 561.033 17.1172 560.279 17.1172C559.639 17.1172 559.121 16.8945 558.727 16.4492V19.4375H557.033V10.6602H558.604L558.662 11.2812C559.072 10.7891 559.607 10.543 560.268 10.543C561.049 10.543 561.656 10.832 562.09 11.4102C562.523 11.9883 562.74 12.7852 562.74 13.8008V13.8887ZM561.047 13.7656C561.047 13.1758 560.941 12.7207 560.73 12.4004C560.523 12.0801 560.221 11.9199 559.822 11.9199C559.291 11.9199 558.926 12.123 558.727 12.5293V15.125C558.934 15.543 559.303 15.752 559.834 15.752C560.643 15.752 561.047 15.0898 561.047 13.7656ZM566.713 17.1172C565.783 17.1172 565.025 16.832 564.439 16.2617C563.857 15.6914 563.566 14.9316 563.566 13.9824V13.8184C563.566 13.1816 563.689 12.6133 563.936 12.1133C564.182 11.6094 564.529 11.2227 564.979 10.9531C565.432 10.6797 565.947 10.543 566.525 10.543C567.393 10.543 568.074 10.8164 568.57 11.3633C569.07 11.9102 569.32 12.6855 569.32 13.6895V14.3809H565.283C565.338 14.7949 565.502 15.127 565.775 15.377C566.053 15.627 566.402 15.752 566.824 15.752C567.477 15.752 567.986 15.5156 568.354 15.043L569.186 15.9746C568.932 16.334 568.588 16.6152 568.154 16.8184C567.721 17.0176 567.24 17.1172 566.713 17.1172ZM566.52 11.9141C566.184 11.9141 565.91 12.0273 565.699 12.2539C565.492 12.4805 565.359 12.8047 565.301 13.2266H567.656V13.0918C567.648 12.7168 567.547 12.4277 567.352 12.2246C567.156 12.0176 566.879 11.9141 566.52 11.9141ZM571.846 10.6602L571.898 11.3926C572.352 10.8262 572.959 10.543 573.721 10.543C574.393 10.543 574.893 10.7402 575.221 11.1348C575.549 11.5293 575.717 12.1191 575.725 12.9043V17H574.031V12.9453C574.031 12.5859 573.953 12.3262 573.797 12.166C573.641 12.002 573.381 11.9199 573.018 11.9199C572.541 11.9199 572.184 12.123 571.945 12.5293V17H570.252V10.6602H571.846ZM579.041 9.10156V10.6602H580.125V11.9023H579.041V15.0664C579.041 15.3008 579.086 15.4688 579.176 15.5703C579.266 15.6719 579.438 15.7227 579.691 15.7227C579.879 15.7227 580.045 15.709 580.189 15.6816V16.9648C579.857 17.0664 579.516 17.1172 579.164 17.1172C577.977 17.1172 577.371 16.5176 577.348 15.3184V11.9023H576.422V10.6602H577.348V9.10156H579.041ZM584.361 14.0293H581.062V12.6641H584.361V14.0293ZM591.434 13.8887C591.434 14.9043 591.217 15.6973 590.783 16.2676C590.35 16.834 589.744 17.1172 588.967 17.1172C588.279 17.1172 587.73 16.8535 587.32 16.3262L587.244 17H585.721V8H587.414V11.2285C587.805 10.7715 588.318 10.543 588.955 10.543C589.729 10.543 590.334 10.8281 590.771 11.3984C591.213 11.9648 591.434 12.7637 591.434 13.7949V13.8887ZM589.74 13.7656C589.74 13.125 589.639 12.6582 589.436 12.3652C589.232 12.0684 588.93 11.9199 588.527 11.9199C587.988 11.9199 587.617 12.1406 587.414 12.582V15.084C587.621 15.5293 587.996 15.752 588.539 15.752C589.086 15.752 589.445 15.4824 589.617 14.9434C589.699 14.6855 589.74 14.293 589.74 13.7656ZM592.219 13.7715C592.219 13.1426 592.34 12.582 592.582 12.0898C592.824 11.5977 593.172 11.2168 593.625 10.9473C594.082 10.6777 594.611 10.543 595.213 10.543C596.068 10.543 596.766 10.8047 597.305 11.3281C597.848 11.8516 598.15 12.5625 598.213 13.4609L598.225 13.8945C598.225 14.8672 597.953 15.6484 597.41 16.2383C596.867 16.8242 596.139 17.1172 595.225 17.1172C594.311 17.1172 593.58 16.8242 593.033 16.2383C592.49 15.6523 592.219 14.8555 592.219 13.8477V13.7715ZM593.912 13.8945C593.912 14.4961 594.025 14.957 594.252 15.2773C594.479 15.5938 594.803 15.752 595.225 15.752C595.635 15.752 595.955 15.5957 596.186 15.2832C596.416 14.9668 596.531 14.4629 596.531 13.7715C596.531 13.1816 596.416 12.7246 596.186 12.4004C595.955 12.0762 595.631 11.9141 595.213 11.9141C594.799 11.9141 594.479 12.0762 594.252 12.4004C594.025 12.7207 593.912 13.2188 593.912 13.8945ZM601.553 12.5527L602.619 10.6602H604.43L602.625 13.7656L604.506 17H602.689L601.559 15.0078L600.434 17H598.611L600.492 13.7656L598.693 10.6602H600.51L601.553 12.5527ZM555.357 27.8887C555.357 28.8652 555.135 29.6484 554.689 30.2383C554.248 30.8242 553.65 31.1172 552.896 31.1172C552.256 31.1172 551.738 30.8945 551.344 30.4492V33.4375H549.65V24.6602H551.221L551.279 25.2812C551.689 24.7891 552.225 24.543 552.885 24.543C553.666 24.543 554.273 24.832 554.707 25.4102C555.141 25.9883 555.357 26.7852 555.357 27.8008V27.8887ZM553.664 27.7656C553.664 27.1758 553.559 26.7207 553.348 26.4004C553.141 26.0801 552.838 25.9199 552.439 25.9199C551.908 25.9199 551.543 26.123 551.344 26.5293V29.125C551.551 29.543 551.92 29.752 552.451 29.752C553.26 29.752 553.664 29.0898 553.664 27.7656ZM556.148 27.7715C556.148 27.1426 556.27 26.582 556.512 26.0898C556.754 25.5977 557.102 25.2168 557.555 24.9473C558.012 24.6777 558.541 24.543 559.143 24.543C559.998 24.543 560.695 24.8047 561.234 25.3281C561.777 25.8516 562.08 26.5625 562.143 27.4609L562.154 27.8945C562.154 28.8672 561.883 29.6484 561.34 30.2383C560.797 30.8242 560.068 31.1172 559.154 31.1172C558.24 31.1172 557.51 30.8242 556.963 30.2383C556.42 29.6523 556.148 28.8555 556.148 27.8477V27.7715ZM557.842 27.8945C557.842 28.4961 557.955 28.957 558.182 29.2773C558.408 29.5938 558.732 29.752 559.154 29.752C559.564 29.752 559.885 29.5957 560.115 29.2832C560.346 28.9668 560.461 28.4629 560.461 27.7715C560.461 27.1816 560.346 26.7246 560.115 26.4004C559.885 26.0762 559.561 25.9141 559.143 25.9141C558.729 25.9141 558.408 26.0762 558.182 26.4004C557.955 26.7207 557.842 27.2188 557.842 27.8945ZM562.934 27.7715C562.934 27.1426 563.055 26.582 563.297 26.0898C563.539 25.5977 563.887 25.2168 564.34 24.9473C564.797 24.6777 565.326 24.543 565.928 24.543C566.783 24.543 567.48 24.8047 568.02 25.3281C568.562 25.8516 568.865 26.5625 568.928 27.4609L568.939 27.8945C568.939 28.8672 568.668 29.6484 568.125 30.2383C567.582 30.8242 566.854 31.1172 565.939 31.1172C565.025 31.1172 564.295 30.8242 563.748 30.2383C563.205 29.6523 562.934 28.8555 562.934 27.8477V27.7715ZM564.627 27.8945C564.627 28.4961 564.74 28.957 564.967 29.2773C565.193 29.5938 565.518 29.752 565.939 29.752C566.35 29.752 566.67 29.5957 566.9 29.2832C567.131 28.9668 567.246 28.4629 567.246 27.7715C567.246 27.1816 567.131 26.7246 566.9 26.4004C566.67 26.0762 566.346 25.9141 565.928 25.9141C565.514 25.9141 565.193 26.0762 564.967 26.4004C564.74 26.7207 564.627 27.2188 564.627 27.8945ZM571.77 31H570.07V22H571.77V31ZM576.234 27.5312C576.234 26.6367 576.354 25.7852 576.592 24.9766C576.83 24.168 577.182 23.4531 577.646 22.832C578.111 22.207 578.615 21.7734 579.158 21.5312L579.486 22.4453C578.916 22.8672 578.471 23.5195 578.15 24.4023C577.83 25.2852 577.67 26.3164 577.67 27.4961V27.6777C577.67 28.8613 577.828 29.8965 578.145 30.7832C578.461 31.6699 578.908 32.332 579.486 32.7695L579.158 33.666C578.627 33.4277 578.131 33.0059 577.67 32.4004C577.213 31.7988 576.863 31.1035 576.621 30.3145C576.379 29.5254 576.25 28.7012 576.234 27.8418V27.5312ZM584.912 28.7617C584.912 28.4297 584.795 28.1758 584.561 28C584.326 27.8203 583.904 27.6328 583.295 27.4375C582.686 27.2383 582.203 27.043 581.848 26.8516C580.879 26.3281 580.395 25.623 580.395 24.7363C580.395 24.2754 580.523 23.8652 580.781 23.5059C581.043 23.1426 581.416 22.8594 581.9 22.6562C582.389 22.4531 582.936 22.3516 583.541 22.3516C584.15 22.3516 584.693 22.4629 585.17 22.6855C585.646 22.9043 586.016 23.2148 586.277 23.6172C586.543 24.0195 586.676 24.4766 586.676 24.9883H584.918C584.918 24.5977 584.795 24.2949 584.549 24.0801C584.303 23.8613 583.957 23.752 583.512 23.752C583.082 23.752 582.748 23.8438 582.51 24.0273C582.271 24.207 582.152 24.4453 582.152 24.7422C582.152 25.0195 582.291 25.252 582.568 25.4395C582.85 25.627 583.262 25.8027 583.805 25.9668C584.805 26.2676 585.533 26.6406 585.99 27.0859C586.447 27.5312 586.676 28.0859 586.676 28.75C586.676 29.4883 586.396 30.0684 585.838 30.4902C585.279 30.9082 584.527 31.1172 583.582 31.1172C582.926 31.1172 582.328 30.998 581.789 30.7598C581.25 30.5176 580.838 30.1875 580.553 29.7695C580.271 29.3516 580.131 28.8672 580.131 28.3164H581.895C581.895 29.2578 582.457 29.7285 583.582 29.7285C584 29.7285 584.326 29.6445 584.561 29.4766C584.795 29.3047 584.912 29.0664 584.912 28.7617ZM591.053 28.0293H587.754V26.6641H591.053V28.0293ZM598.119 27.8887C598.119 28.8652 597.896 29.6484 597.451 30.2383C597.01 30.8242 596.412 31.1172 595.658 31.1172C595.018 31.1172 594.5 30.8945 594.105 30.4492V33.4375H592.412V24.6602H593.982L594.041 25.2812C594.451 24.7891 594.986 24.543 595.646 24.543C596.428 24.543 597.035 24.832 597.469 25.4102C597.902 25.9883 598.119 26.7852 598.119 27.8008V27.8887ZM596.426 27.7656C596.426 27.1758 596.32 26.7207 596.109 26.4004C595.902 26.0801 595.6 25.9199 595.201 25.9199C594.67 25.9199 594.305 26.123 594.105 26.5293V29.125C594.312 29.543 594.682 29.752 595.213 29.752C596.021 29.752 596.426 29.0898 596.426 27.7656ZM598.91 27.7715C598.91 27.1426 599.031 26.582 599.273 26.0898C599.516 25.5977 599.863 25.2168 600.316 24.9473C600.773 24.6777 601.303 24.543 601.904 24.543C602.76 24.543 603.457 24.8047 603.996 25.3281C604.539 25.8516 604.842 26.5625 604.904 27.4609L604.916 27.8945C604.916 28.8672 604.645 29.6484 604.102 30.2383C603.559 30.8242 602.83 31.1172 601.916 31.1172C601.002 31.1172 600.271 30.8242 599.725 30.2383C599.182 29.6523 598.91 28.8555 598.91 27.8477V27.7715ZM600.604 27.8945C600.604 28.4961 600.717 28.957 600.943 29.2773C601.17 29.5938 601.494 29.752 601.916 29.752C602.326 29.752 602.646 29.5957 602.877 29.2832C603.107 28.9668 603.223 28.4629 603.223 27.7715C603.223 27.1816 603.107 26.7246 602.877 26.4004C602.646 26.0762 602.322 25.9141 601.904 25.9141C601.49 25.9141 601.17 26.0762 600.943 26.4004C600.717 26.7207 600.604 27.2188 600.604 27.8945ZM605.695 27.7715C605.695 27.1426 605.816 26.582 606.059 26.0898C606.301 25.5977 606.648 25.2168 607.102 24.9473C607.559 24.6777 608.088 24.543 608.689 24.543C609.545 24.543 610.242 24.8047 610.781 25.3281C611.324 25.8516 611.627 26.5625 611.689 27.4609L611.701 27.8945C611.701 28.8672 611.43 29.6484 610.887 30.2383C610.344 30.8242 609.615 31.1172 608.701 31.1172C607.787 31.1172 607.057 30.8242 606.51 30.2383C605.967 29.6523 605.695 28.8555 605.695 27.8477V27.7715ZM607.389 27.8945C607.389 28.4961 607.502 28.957 607.729 29.2773C607.955 29.5938 608.279 29.752 608.701 29.752C609.111 29.752 609.432 29.5957 609.662 29.2832C609.893 28.9668 610.008 28.4629 610.008 27.7715C610.008 27.1816 609.893 26.7246 609.662 26.4004C609.432 26.0762 609.107 25.9141 608.689 25.9141C608.275 25.9141 607.955 26.0762 607.729 26.4004C607.502 26.7207 607.389 27.2188 607.389 27.8945ZM614.531 31H612.832V22H614.531V31ZM618.85 27.666C618.85 28.5488 618.723 29.3984 618.469 30.2148C618.215 31.0312 617.85 31.752 617.373 32.377C616.896 33.002 616.387 33.4316 615.844 33.666L615.516 32.7695C616.07 32.3516 616.508 31.707 616.828 30.8359C617.148 29.9648 617.314 28.9629 617.326 27.8301V27.5195C617.326 26.3516 617.166 25.3223 616.846 24.4316C616.529 23.541 616.086 22.873 615.516 22.4277L615.844 21.5312C616.375 21.7617 616.875 22.1797 617.344 22.7852C617.816 23.3906 618.182 24.0957 618.439 24.9004C618.701 25.7051 618.838 26.5391 618.85 27.4023V27.666Z" fill="black"/>
<path d="M217.356 72.3513C217.55 72.1549 217.548 71.8383 217.351 71.6442L214.15 68.4822C213.953 68.2882 213.636 68.2902 213.442 68.4866C213.248 68.6831 213.25 68.9997 213.447 69.1937L216.293 72.0044L213.482 74.8505C213.288 75.0469 213.29 75.3635 213.487 75.5576C213.683 75.7516 214 75.7496 214.194 75.5531L217.356 72.3513ZM57.0031 73.5L217.003 72.5L216.997 71.5L56.9969 72.5L57.0031 73.5Z" fill="black"/>
<path d="M770.356 72.3513C770.55 72.1549 770.548 71.8383 770.351 71.6442L767.15 68.4822C766.953 68.2882 766.636 68.2902 766.442 68.4866C766.248 68.6831 766.25 68.9997 766.447 69.1937L769.293 72.0044L766.482 74.8505C766.288 75.0469 766.29 75.3635 766.487 75.5576C766.683 75.7516 767 75.7496 767.194 75.5531L770.356 72.3513ZM610.003 73.5L770.003 72.5L769.997 71.5L609.997 72.5L610.003 73.5Z" fill="black"/>
<path d="M770.356 173.351C770.55 173.155 770.548 172.838 770.351 172.644L767.15 169.482C766.953 169.288 766.636 169.29 766.442 169.487C766.248 169.683 766.25 170 766.447 170.194L769.293 173.004L766.482 175.85C766.288 176.047 766.29 176.364 766.487 176.558C766.683 176.752 767 176.75 767.194 176.553L770.356 173.351ZM610.003 174.5L770.003 173.5L769.997 172.5L609.997 173.5L610.003 174.5Z" fill="black"/>
<path d="M770.356 122.351C770.55 122.155 770.548 121.838 770.351 121.644L767.15 118.482C766.953 118.288 766.636 118.29 766.442 118.487C766.248 118.683 766.25 119 766.447 119.194L769.293 122.004L766.482 124.85C766.288 125.047 766.29 125.364 766.487 125.558C766.683 125.752 767 125.75 767.194 125.553L770.356 122.351ZM610.003 123.5L770.003 122.5L769.997 121.5L609.997 122.5L610.003 123.5Z" fill="black"/>
<path d="M218.356 272.345C218.55 272.149 218.548 271.832 218.351 271.638L215.149 268.476C214.953 268.282 214.636 268.284 214.442 268.48C214.248 268.677 214.25 268.993 214.447 269.187L217.293 271.998L214.482 274.844C214.288 275.041 214.29 275.357 214.487 275.551C214.683 275.745 215 275.743 215.194 275.547L218.356 272.345ZM57.0031 273.5L218.003 272.494L217.997 271.494L56.9969 272.5L57.0031 273.5Z" fill="black"/>
<path d="M564.353 72.8541C564.549 72.6592 564.549 72.3426 564.354 72.147L561.177 68.9598C560.983 68.7642 560.666 68.7637 560.47 68.9586C560.275 69.1535 560.274 69.4701 560.469 69.6657L563.293 72.4988L560.46 75.3226C560.264 75.5175 560.264 75.8341 560.459 76.0297C560.654 76.2252 560.97 76.2258 561.166 76.0308L564.353 72.8541ZM262.999 72.5L563.999 73L564.001 72L263.001 71.5L262.999 72.5Z" fill="black"/>
<path d="M564.354 123.354C564.549 123.158 564.549 122.842 564.354 122.646L561.172 119.464C560.976 119.269 560.66 119.269 560.464 119.464C560.269 119.66 560.269 119.976 560.464 120.172L563.293 123L560.464 125.828C560.269 126.024 560.269 126.34 560.464 126.536C560.66 126.731 560.976 126.731 561.172 126.536L564.354 123.354ZM263 123.5L564 123.5V122.5L263 122.5V123.5Z" fill="black"/>
<path d="M564.354 173.354C564.549 173.158 564.549 172.842 564.354 172.646L561.172 169.464C560.976 169.269 560.66 169.269 560.464 169.464C560.269 169.66 560.269 169.976 560.464 170.172L563.293 173L560.464 175.828C560.269 176.024 560.269 176.34 560.464 176.536C560.66 176.731 560.976 176.731 561.172 176.536L564.354 173.354ZM263 173.5L564 173.5V172.5L263 172.5V173.5Z" fill="black"/>
</svg>
